<svg width="64" height="80" viewBox="0 0 64 80" fill="none" xmlns="http://www.w3.org/2000/svg">
<path d="M33 33V25.417H35.5L32 19.583L28.5 25.417H31V33H33Z" fill="url(#paint0_linear_871_2080)"/>
<path d="M17 19C17 17.4178 16.5308 15.871 15.6518 14.5554C14.7727 13.2398 13.5233 12.2145 12.0615 11.609C10.5997 11.0035 8.99113 10.845 7.43928 11.1537C5.88743 11.4624 4.46197 12.2243 3.34315 13.3431C2.22433 14.462 1.4624 15.8874 1.15372 17.4393C0.84504 18.9911 1.00347 20.5997 1.60897 22.0615C2.21447 23.5233 3.23985 24.7727 4.55544 25.6518C5.87103 26.5308 7.41775 27 9 27C11.121 26.9976 13.1545 26.154 14.6542 24.6542C16.154 23.1545 16.9976 21.121 17 19V19ZM12.56 23.82C11.5312 24.5862 10.2827 25 9 25C7.71727 25 6.46876 24.5862 5.44 23.82V20.22C5.44106 19.7482 5.62894 19.2961 5.96252 18.9625C6.29611 18.6289 6.74824 18.4411 7.22 18.44H8.956C8.37062 18.4284 7.81347 18.1862 7.40565 17.7661C6.99783 17.346 6.77232 16.7819 6.77811 16.1964C6.78391 15.611 7.02055 15.0514 7.43661 14.6395C7.85267 14.2275 8.4145 13.9964 9 13.9964C9.5855 13.9964 10.1473 14.2275 10.5634 14.6395C10.9795 15.0514 11.2161 15.611 11.2219 16.1964C11.2277 16.7819 11.0022 17.346 10.5944 17.7661C10.1865 18.1862 9.62939 18.4284 9.044 18.44H10.78C11.2518 18.4411 11.7039 18.6289 12.0375 18.9625C12.3711 19.2961 12.5589 19.7482 12.56 20.22V23.82Z" fill="url(#paint1_linear_871_2080)"/>
<path d="M40 9C40 7.41775 39.5308 5.87103 38.6518 4.55544C37.7727 3.23985 36.5233 2.21447 35.0615 1.60897C33.5997 1.00347 31.9911 0.84504 30.4393 1.15372C28.8874 1.4624 27.462 2.22433 26.3431 3.34315C25.2243 4.46197 24.4624 5.88743 24.1537 7.43928C23.845 8.99113 24.0035 10.5997 24.609 12.0615C25.2145 13.5233 26.2399 14.7727 27.5554 15.6518C28.871 16.5308 30.4178 17 32 17C34.121 16.9976 36.1545 16.154 37.6542 14.6542C39.154 13.1545 39.9976 11.121 40 9ZM35.56 13.82C34.5312 14.5862 33.2827 15 32 15C30.7173 15 29.4688 14.5862 28.44 13.82V10.22C28.4411 9.74824 28.6289 9.29611 28.9625 8.96252C29.2961 8.62893 29.7482 8.44106 30.22 8.44H31.956C31.3706 8.42841 30.8135 8.18624 30.4057 7.76612C29.9978 7.34601 29.7723 6.78191 29.7781 6.19644C29.7839 5.61097 30.0206 5.05144 30.4366 4.63949C30.8527 4.22753 31.4145 3.99644 32 3.99644C32.5855 3.99644 33.1473 4.22753 33.5634 4.63949C33.9795 5.05144 34.2161 5.61097 34.2219 6.19644C34.2277 6.78191 34.0022 7.34601 33.5944 7.76612C33.1865 8.18624 32.6294 8.42841 32.044 8.44H33.78C34.2518 8.44106 34.7039 8.62893 35.0375 8.96252C35.3711 9.29611 35.5589 9.74824 35.56 10.22V13.82Z" fill="url(#paint2_linear_871_2080)"/>
<path d="M55 11C53.4178 11 51.871 11.4692 50.5554 12.3482C49.2399 13.2273 48.2145 14.4767 47.609 15.9385C47.0035 17.4003 46.845 19.0089 47.1537 20.5607C47.4624 22.1126 48.2243 23.538 49.3432 24.6569C50.462 25.7757 51.8874 26.5376 53.4393 26.8463C54.9911 27.155 56.5997 26.9965 58.0615 26.391C59.5233 25.7855 60.7727 24.7602 61.6518 23.4446C62.5308 22.129 63 20.5823 63 19C62.9976 16.879 62.154 14.8456 60.6542 13.3458C59.1545 11.846 57.121 11.0024 55 11V11ZM58.56 23.82C57.5312 24.5862 56.2827 25 55 25C53.7173 25 52.4688 24.5862 51.44 23.82V20.22C51.4411 19.7482 51.6289 19.2961 51.9625 18.9625C52.2961 18.6289 52.7482 18.4411 53.22 18.44H54.956C54.3706 18.4284 53.8135 18.1862 53.4057 17.7661C52.9978 17.346 52.7723 16.7819 52.7781 16.1964C52.7839 15.611 53.0206 15.0514 53.4366 14.6395C53.8527 14.2275 54.4145 13.9964 55 13.9964C55.5855 13.9964 56.1473 14.2275 56.5634 14.6395C56.9795 15.0514 57.2161 15.611 57.2219 16.1964C57.2277 16.7819 57.0022 17.346 56.5944 17.7661C56.1865 18.1862 55.6294 18.4284 55.044 18.44H56.78C57.2518 18.4411 57.7039 18.6289 58.0375 18.9625C58.3711 19.2961 58.5589 19.7482 58.56 20.22V23.82Z" fill="url(#paint3_linear_871_2080)"/>
<path d="M43.179 30.235L44.947 32.003L46.597 25.403L39.997 27.053L41.765 28.821L36.403 34.183L37.817 35.597L43.179 30.235Z" fill="url(#paint4_linear_871_2080)"/>
<path d="M17.403 25.403L19.053 32.003L20.821 30.235L26.183 35.597L27.597 34.183L22.235 28.821L24.003 27.053L17.403 25.403Z" fill="url(#paint5_linear_871_2080)"/>
<path d="M32 44C33.933 44 35.5 42.433 35.5 40.5C35.5 38.567 33.933 37 32 37C30.067 37 28.5 38.567 28.5 40.5C28.5 42.433 30.067 44 32 44Z" fill="url(#paint6_linear_871_2080)"/>
<path d="M44.406 60.452L44.818 60.679C44.9791 60.7687 45.1684 60.7932 45.347 60.7474C45.5257 60.7017 45.6799 60.5891 45.778 60.433L46.906 58.567C46.9519 58.4903 46.9817 58.4051 46.9935 58.3166C47.0053 58.228 46.999 58.138 46.9748 58.0519C46.9507 57.9659 46.9092 57.8857 46.853 57.8163C46.7968 57.7468 46.7271 57.6896 46.648 57.648L46.241 57.424C46.1236 57.3628 46.0275 57.2675 45.9655 57.1505C45.9036 57.0335 45.8786 56.9005 45.894 56.769C45.9687 56.2587 45.9687 55.7403 45.894 55.23C45.8788 55.0987 45.9039 54.9658 45.9658 54.8491C46.0278 54.7323 46.1237 54.6371 46.241 54.576L46.648 54.352C46.7271 54.3104 46.7968 54.2531 46.853 54.1837C46.9092 54.1142 46.9507 54.034 46.9748 53.948C46.999 53.862 47.0053 53.772 46.9935 53.6834C46.9817 53.5949 46.9519 53.5096 46.906 53.433L45.778 51.567C45.6799 51.4109 45.5257 51.2983 45.3472 51.2523C45.1686 51.2064 44.9792 51.2306 44.818 51.32L44.406 51.548C44.2802 51.6143 44.1381 51.6433 43.9964 51.6316C43.8547 51.6199 43.7192 51.568 43.606 51.482C43.1997 51.1844 42.7576 50.9391 42.29 50.752C42.1593 50.7053 42.0457 50.6203 41.964 50.5081C41.8824 50.3959 41.8363 50.2617 41.832 50.123V49.672C41.8278 49.4902 41.7518 49.3175 41.6206 49.1916C41.4895 49.0656 41.3138 48.9968 41.132 49H38.872C38.6902 48.9968 38.5145 49.0656 38.3833 49.1916C38.2522 49.3175 38.1762 49.4902 38.172 49.672V50.123C38.1676 50.2617 38.1216 50.3959 38.0399 50.5081C37.9582 50.6203 37.8447 50.7053 37.714 50.752C37.2464 50.9391 36.8043 51.1844 36.398 51.482C36.2847 51.568 36.1493 51.6199 36.0076 51.6316C35.8659 51.6433 35.7238 51.6143 35.598 51.548L35.187 51.32C35.0256 51.2306 34.8361 51.2063 34.6573 51.2523C34.4786 51.2982 34.3243 51.4108 34.226 51.567L33.098 53.433C33.0521 53.5096 33.0223 53.5949 33.0105 53.6834C32.9987 53.772 33.005 53.862 33.0292 53.948C33.0533 54.034 33.0947 54.1142 33.1509 54.1837C33.2071 54.2531 33.2769 54.3104 33.356 54.352L33.763 54.576C33.8802 54.6371 33.9762 54.7323 34.0381 54.8491C34.1001 54.9658 34.1251 55.0987 34.11 55.23C34.0353 55.7403 34.0353 56.2587 34.11 56.769C34.1254 56.9005 34.1004 57.0335 34.0384 57.1505C33.9765 57.2675 33.8804 57.3628 33.763 57.424L33.356 57.648C33.2769 57.6896 33.2071 57.7468 33.1509 57.8163C33.0947 57.8857 33.0533 57.9659 33.0292 58.0519C33.005 58.138 32.9987 58.228 33.0105 58.3166C33.0223 58.4051 33.0521 58.4903 33.098 58.567L34.226 60.433C34.3243 60.5892 34.4787 60.7018 34.6575 60.7475C34.8362 60.7933 35.0258 60.7688 35.187 60.679L35.598 60.452C35.7237 60.3855 35.8659 60.3563 36.0076 60.368C36.1494 60.3797 36.2849 60.4318 36.398 60.518C36.8043 60.8156 37.2464 61.0608 37.714 61.248C37.8447 61.2946 37.9584 61.3796 38.0401 61.4918C38.1218 61.604 38.1678 61.7382 38.172 61.877V62.328C38.1762 62.5098 38.2522 62.6825 38.3833 62.8084C38.5145 62.9343 38.6902 63.0032 38.872 63H41.128C41.3098 63.0032 41.4855 62.9343 41.6166 62.8084C41.7478 62.6825 41.8238 62.5098 41.828 62.328V61.877C41.8322 61.7382 41.8782 61.604 41.9599 61.4918C42.0416 61.3796 42.1552 61.2946 42.286 61.248C42.7536 61.0608 43.1957 60.8156 43.602 60.518C43.7155 60.431 43.8517 60.3784 43.9943 60.3667C44.1369 60.355 44.2798 60.3846 44.406 60.452V60.452ZM40 58.333C39.5386 58.333 39.0875 58.1962 38.7038 57.9398C38.3202 57.6835 38.0212 57.3191 37.8446 56.8928C37.668 56.4665 37.6218 55.9974 37.7118 55.5448C37.8018 55.0923 38.024 54.6766 38.3503 54.3503C38.6766 54.024 39.0923 53.8018 39.5448 53.7118C39.9974 53.6218 40.4665 53.668 40.8928 53.8446C41.3191 54.0212 41.6835 54.3202 41.9398 54.7038C42.1962 55.0875 42.333 55.5386 42.333 56C42.3331 56.3064 42.2729 56.6098 42.1557 56.8929C42.0385 57.1761 41.8666 57.4333 41.65 57.65C41.4333 57.8666 41.1761 58.0385 40.8929 58.1557C40.6098 58.2729 40.3064 58.3331 40 58.333V58.333Z" fill="url(#paint7_linear_871_2080)"/>
<path d="M31.5 56C31.5 53.7543 32.3886 51.5998 33.9719 50.0072C35.5552 48.4146 37.7043 47.5132 39.95 47.5C39.8317 46.5353 39.3649 45.647 38.6374 45.0024C37.9099 44.3578 36.972 44.0013 36 44H28C26.9391 44 25.9217 44.4214 25.1716 45.1716C24.4214 45.9217 24 46.9391 24 48V60H32.5C31.8419 58.7695 31.4984 57.3954 31.5 56V56Z" fill="url(#paint8_linear_871_2080)"/>
<defs>
<linearGradient id="paint0_linear_871_2080" x1="35.5" y1="19.583" x2="24.4954" y2="25.3244" gradientUnits="userSpaceOnUse">
<stop stop-color="#00FF88"/>
<stop offset="1" stop-color="#EF04FF"/>
</linearGradient>
<linearGradient id="paint1_linear_871_2080" x1="17" y1="11" x2="1" y2="27" gradientUnits="userSpaceOnUse">
<stop stop-color="#00FF88"/>
<stop offset="1" stop-color="#EF04FF"/>
</linearGradient>
<linearGradient id="paint2_linear_871_2080" x1="40" y1="1" x2="24" y2="17" gradientUnits="userSpaceOnUse">
<stop stop-color="#00FF88"/>
<stop offset="1" stop-color="#EF04FF"/>
</linearGradient>
<linearGradient id="paint3_linear_871_2080" x1="63" y1="11" x2="47" y2="27" gradientUnits="userSpaceOnUse">
<stop stop-color="#00FF88"/>
<stop offset="1" stop-color="#EF04FF"/>
</linearGradient>
<linearGradient id="paint4_linear_871_2080" x1="46.597" y1="25.403" x2="36.403" y2="35.597" gradientUnits="userSpaceOnUse">
<stop stop-color="#00FF88"/>
<stop offset="1" stop-color="#EF04FF"/>
</linearGradient>
<linearGradient id="paint5_linear_871_2080" x1="27.597" y1="25.403" x2="17.403" y2="35.597" gradientUnits="userSpaceOnUse">
<stop stop-color="#00FF88"/>
<stop offset="1" stop-color="#EF04FF"/>
</linearGradient>
<linearGradient id="paint6_linear_871_2080" x1="35.5" y1="37" x2="28.5" y2="44" gradientUnits="userSpaceOnUse">
<stop stop-color="#00FF88"/>
<stop offset="1" stop-color="#EF04FF"/>
</linearGradient>
<linearGradient id="paint7_linear_871_2080" x1="46.9993" y1="48.9999" x2="32.9991" y2="62.9945" gradientUnits="userSpaceOnUse">
<stop stop-color="#00FF88"/>
<stop offset="1" stop-color="#EF04FF"/>
</linearGradient>
<linearGradient id="paint8_linear_871_2080" x1="39.95" y1="44" x2="23.9501" y2="59.9499" gradientUnits="userSpaceOnUse">
<stop stop-color="#00FF88"/>
<stop offset="1" stop-color="#EF04FF"/>
</linearGradient>
</defs>
</svg>
