<svg width="62" height="60" viewBox="0 0 62 60" fill="none" xmlns="http://www.w3.org/2000/svg">
<path d="M58.0625 60H40.5099C40.1563 60 39.8785 59.7239 39.8785 59.3726V53.3491C39.8785 52.9978 40.1563 52.7217 40.5099 52.7217H58.0625C58.416 52.7217 58.6939 52.9978 58.6939 53.3491V59.3726C58.6939 59.7239 58.416 60 58.0625 60ZM41.1413 58.7451H57.4311V53.9766H41.1413V58.7451Z" fill="url(#paint0_linear_751_2263)"/>
<path d="M55.3475 51.0652C54.9939 51.0652 54.7161 50.7891 54.7161 50.4378C54.7161 50.3374 54.7414 50.237 54.7919 50.1492C57.7468 44.4771 59.5399 40.5493 60.5628 36.1195L60.5754 29.9706L60.6133 16.3049C60.6133 15.9159 60.4365 15.552 60.1334 15.301C59.7799 14.9998 59.3253 14.8367 58.858 14.8367H58.8328C58.3782 14.8367 57.9236 14.9873 57.57 15.2759C57.2669 15.5143 57.0901 15.8783 57.0775 16.2673C57.0775 16.2798 57.0775 16.2924 57.0775 16.3049L56.3199 27.1095C56.2946 27.4608 55.9915 27.7118 55.638 27.6867C55.2844 27.6616 55.0318 27.3605 55.0571 27.0216L55.8147 16.2422C55.8274 15.5018 56.1809 14.7991 56.7492 14.3348C57.9741 13.3308 59.7546 13.3434 60.9669 14.3599C61.5351 14.8493 61.8761 15.552 61.8761 16.3049L61.8382 29.9581L61.8256 36.1697C61.8256 36.2199 61.8256 36.2576 61.8129 36.3078C60.7775 40.8881 58.9338 44.9037 55.9158 50.7013C55.8021 50.9272 55.5874 51.0652 55.3475 51.0652Z" fill="url(#paint1_linear_751_2263)"/>
<path d="M45.0559 50.9648C44.7654 50.9648 44.5129 50.7766 44.4497 50.5005C43.5405 47.0747 43.0354 42.2057 45.7504 38.5289C46.6596 37.274 47.8845 36.2827 49.2988 35.6427L52.5062 29.2428V29.2302L53.2513 27.8122C53.6175 27.1471 54.2489 26.6828 54.9813 26.5322C56.5345 26.206 58.1003 27.0342 58.6939 28.5024C58.9717 29.1926 58.9338 29.9832 58.5928 30.6483L57.8352 32.0663L53.6427 40.3109C53.4912 40.6246 53.1124 40.7626 52.7967 40.612C52.481 40.4614 52.3421 40.085 52.4936 39.7713C52.4936 39.7587 52.5062 39.7462 52.5062 39.7336L56.7239 31.4765L57.4816 30.0459C57.6584 29.7071 57.671 29.293 57.5195 28.9416C57.1533 28.0632 56.2062 27.5612 55.2591 27.7495C54.8803 27.8248 54.5519 28.0632 54.3625 28.402L53.6175 29.8075L50.3216 36.4082C50.2459 36.5588 50.1196 36.6717 49.9554 36.7219C49.9428 36.7219 48.137 37.3744 46.7227 39.3195C44.8412 41.9171 44.475 45.6692 45.662 50.1743C45.7504 50.5131 45.5483 50.8519 45.2074 50.9397C45.1569 50.9648 45.1064 50.9648 45.0559 50.9648Z" fill="url(#paint2_linear_751_2263)"/>
<path d="M56.5471 53.8511C56.1935 53.8511 55.9157 53.575 55.9157 53.2236V51.0903H42.6566V53.2236C42.6566 53.575 42.3788 53.8511 42.0252 53.8511C41.6716 53.8511 41.3938 53.575 41.3938 53.2236V50.4629C41.3938 50.1115 41.6716 49.8354 42.0252 49.8354H56.5471C56.9007 49.8354 57.1785 50.1115 57.1785 50.4629V53.2236C57.1785 53.575 56.9007 53.8511 56.5471 53.8511Z" fill="url(#paint3_linear_751_2263)"/>
<path d="M6.52856 51.0652C6.28863 51.0652 6.07396 50.9397 5.96031 50.7264C2.94227 44.9163 1.11124 40.9132 0.0757667 36.3329C0.0631389 36.2827 0.0631388 36.245 0.0631388 36.1948L0.0505111 29.9832L0 16.4555C0 15.7026 0.328322 14.9998 0.909199 14.5104C1.49008 14.0085 2.23511 13.7324 3.00541 13.7324C3.7757 13.7199 4.53337 13.9834 5.12687 14.4728C5.70775 14.9496 6.0487 15.6398 6.06133 16.3802L6.81899 27.0342C6.84425 27.3855 6.57907 27.6867 6.23812 27.7118C5.88454 27.7369 5.58147 27.4734 5.55622 27.1346L4.79855 16.4681C4.79855 16.4555 4.79855 16.443 4.79855 16.4304C4.78592 16.0414 4.60914 15.6775 4.30607 15.439C3.93986 15.1379 3.48526 14.9873 3.01804 14.9998C2.55081 14.9998 2.09621 15.163 1.74263 15.4641C1.43957 15.7151 1.26278 16.079 1.26278 16.4555L1.30066 29.9957L1.31329 36.1446C2.32351 40.5618 4.12928 44.4896 7.08418 50.1742C7.24834 50.488 7.12206 50.8644 6.81899 51.015C6.71797 51.0401 6.61695 51.0652 6.52856 51.0652Z" fill="url(#paint4_linear_751_2263)"/>
<path d="M16.8202 50.9648C16.7697 50.9648 16.7065 50.9523 16.656 50.9397C16.3151 50.8519 16.113 50.5131 16.2014 50.1743C17.3884 45.6692 17.0222 41.9171 15.1407 39.3195C13.7264 37.3744 11.9206 36.7219 11.908 36.7219C11.7564 36.6717 11.6175 36.5588 11.5544 36.4082L8.24593 29.8075L7.50089 28.402C7.31147 28.0632 6.98315 27.8248 6.60432 27.7495C5.65723 27.5612 4.72278 28.0632 4.34395 28.9416C4.19241 29.293 4.20504 29.6945 4.38183 30.0459L5.1395 31.4765L9.3698 39.7336C9.53396 40.0473 9.40768 40.4238 9.09199 40.5744C8.77629 40.7375 8.39746 40.612 8.24593 40.2983L4.01562 32.0537L3.25796 30.6357C2.90438 29.9706 2.8665 29.1926 3.15694 28.5024C3.75044 27.0342 5.32891 26.206 6.88213 26.5322C7.61454 26.6828 8.25856 27.1597 8.61213 27.8122L9.3698 29.2302L9.38243 29.2428L12.5899 35.6301C14.0042 36.2701 15.2291 37.2615 16.1383 38.5164C17.641 40.5493 19.0932 44.2763 17.4389 50.488C17.3632 50.7766 17.1106 50.9774 16.8202 50.9648Z" fill="url(#paint5_linear_751_2263)"/>
<path d="M19.8003 53.8511C19.4467 53.8511 19.1689 53.575 19.1689 53.2236V51.0903H5.90975V53.2236C5.90975 53.575 5.63194 53.8511 5.27836 53.8511C4.92478 53.8511 4.64697 53.575 4.64697 53.2236V50.4629C4.64697 50.1115 4.92478 49.8354 5.27836 49.8354H19.8003C20.1539 49.8354 20.4317 50.1115 20.4317 50.4629V53.2236C20.4317 53.575 20.1539 53.8511 19.8003 53.8511Z" fill="url(#paint6_linear_751_2263)"/>
<path d="M21.5682 60H4.0156C3.66203 60 3.38422 59.7239 3.38422 59.3726V53.3491C3.38422 52.9978 3.66203 52.7217 4.0156 52.7217H21.5682C21.9218 52.7217 22.1996 52.9978 22.1996 53.3491V59.3726C22.1996 59.7239 21.9218 60 21.5682 60ZM4.64699 58.7451H20.9368V53.9766H4.64699V58.7451Z" fill="url(#paint7_linear_751_2263)"/>
<path d="M28.9429 30.2969C28.9176 30.2969 28.8924 30.2969 28.8671 30.2969C28.5261 30.2592 28.2736 29.933 28.3241 29.5942L28.8924 25.1644L27.9453 21.9017C27.8442 21.5629 28.0463 21.2241 28.3746 21.1237C28.7156 21.0233 29.0565 21.2241 29.1575 21.5503L30.1425 24.9385C30.1678 25.0138 30.1678 25.1017 30.1551 25.1895L29.5743 29.7447C29.5237 30.071 29.2586 30.2969 28.9429 30.2969Z" fill="url(#paint8_linear_751_2263)"/>
<path d="M33.1226 30.3596C32.8069 30.3596 32.5418 30.1212 32.4912 29.8075L31.8851 25.1895C31.8725 25.1017 31.8851 25.0264 31.8977 24.9385L32.8827 21.5503C32.9837 21.2115 33.3247 21.0233 33.6656 21.1237C34.0066 21.2241 34.196 21.5629 34.095 21.9017L33.1479 25.1644L33.7288 29.6443C33.7793 29.9832 33.5267 30.2969 33.1858 30.3471C33.1731 30.3596 33.1479 30.3596 33.1226 30.3596Z" fill="url(#paint9_linear_751_2263)"/>
<path d="M32.3018 25.7417H29.5237C29.1701 25.7417 28.8923 25.4656 28.8923 25.1142C28.8923 24.7628 29.1701 24.4868 29.5237 24.4868H32.3018C32.6554 24.4868 32.9332 24.7628 32.9332 25.1142C32.9332 25.4656 32.6554 25.7417 32.3018 25.7417Z" fill="url(#paint10_linear_751_2263)"/>
<path d="M30.9127 22.366C25.6217 22.3535 21.3283 18.0869 21.3283 12.8289V10.0556L21.3156 9.82971C21.3156 9.81716 21.3156 9.81716 21.3156 9.80462C21.1641 4.5341 25.3439 0.154555 30.6349 0.00396854C35.926 -0.146618 40.3457 4.00705 40.4972 9.26502C40.4972 9.4407 40.4972 9.61638 40.4972 9.80462V10.0681V12.8289C40.4972 18.0869 36.2038 22.3535 30.9127 22.366ZM22.5784 9.79207L22.591 10.0179V12.8163C22.4521 17.3841 26.0637 21.2115 30.6728 21.3496C35.2819 21.4876 39.1208 17.8986 39.2597 13.3183C39.2597 13.1552 39.2597 12.9795 39.2597 12.8163L39.2471 9.80462C39.386 5.23684 35.7744 1.40944 31.1779 1.2714C26.5814 1.13336 22.7299 4.72233 22.591 9.29011C22.5784 9.4658 22.5784 9.62893 22.5784 9.79207Z" fill="url(#paint11_linear_751_2263)"/>
<path d="M21.6945 14.3222C21.2778 14.3096 20.8611 14.1967 20.4949 13.9834C19.9519 13.6697 19.2952 13.0171 19.2952 11.6869C19.2952 10.3568 19.9392 9.70422 20.4822 9.3905C20.8484 9.18972 21.2525 9.06423 21.6692 9.05168C22.0228 9.05168 22.3006 9.32776 22.3006 9.67912C22.3006 10.0305 22.0228 10.3066 21.6692 10.3066C21.4041 10.3066 20.5454 10.4321 20.5454 11.6869C20.5454 12.2893 20.7348 12.6783 21.1136 12.9042C21.2904 13.0046 21.4798 13.0548 21.6819 13.0673C22.0355 13.0673 22.3133 13.3434 22.3133 13.6948C22.3133 14.0461 22.0481 14.3222 21.6945 14.3222Z" fill="url(#paint12_linear_751_2263)"/>
<path d="M40.0047 14.3222C39.6512 14.3222 39.3734 14.0461 39.3734 13.6948C39.3734 13.3434 39.6512 13.0673 40.0047 13.0673C41.2044 13.0422 41.2675 11.9128 41.2675 11.6869C41.2675 11.0971 41.0655 10.6956 40.6614 10.4823C40.4593 10.3819 40.2447 10.3191 40.03 10.3066C39.6764 10.3066 39.3986 10.0305 39.3986 9.67912C39.3986 9.32776 39.6764 9.05168 40.03 9.05168C41.0402 9.05168 42.5303 9.75442 42.5303 11.6869C42.5303 13.6195 41.015 14.3222 40.0047 14.3222Z" fill="url(#paint13_linear_751_2263)"/>
<path d="M25.1671 10.2187C24.0559 10.2187 22.9446 10.1183 21.846 9.91755C21.5051 9.84226 21.2904 9.51599 21.3662 9.17717C21.4419 8.83835 21.7703 8.62502 22.1112 8.70031C22.187 8.71286 29.4479 10.1936 32.8195 6.03996C33.0342 5.77643 33.4383 5.72624 33.7035 5.95212C33.7793 6.01486 33.8424 6.09015 33.8803 6.19055C33.9434 6.34113 35.6229 9.9301 39.6512 8.72541C39.9795 8.62502 40.3331 8.81326 40.4341 9.15207C40.5351 9.47834 40.3457 9.82971 40.0047 9.9301C36.229 11.0595 34.0697 8.77561 33.1858 7.49563C31.5694 9.07678 29.208 10.0054 26.3036 10.2062C25.9122 10.2062 25.5333 10.2187 25.1671 10.2187Z" fill="url(#paint14_linear_751_2263)"/>
<path d="M23.2603 35.6803L18.7901 35.6552C18.4365 35.6552 18.1587 35.3792 18.1587 35.0278V25.1142C18.1587 20.3331 22.8057 17.4218 23.0078 17.3088C23.2982 17.1206 23.6897 17.1959 23.8791 17.4845C24.0685 17.7731 23.9927 18.1622 23.7023 18.3504C23.6897 18.3629 23.677 18.3629 23.677 18.3755C23.6391 18.4006 19.4341 21.0484 19.4341 25.1268V34.4129L23.2856 34.438C23.6391 34.438 23.917 34.7141 23.917 35.0654C23.917 35.4168 23.6139 35.6803 23.2603 35.6803Z" fill="url(#paint15_linear_751_2263)"/>
<path d="M43.0354 35.7807H38.641C38.2874 35.7807 38.0096 35.5047 38.0096 35.1533C38.0096 34.8019 38.2874 34.5259 38.641 34.5259H42.4041V25.1142C42.4041 21.0233 38.199 18.4006 38.1611 18.3629C37.8707 18.1747 37.7949 17.7857 37.9843 17.4971C38.1737 17.221 38.54 17.1332 38.8304 17.2963C39.0324 17.4218 43.6795 20.3331 43.6795 25.1017V35.1407C43.6668 35.5047 43.389 35.7807 43.0354 35.7807Z" fill="url(#paint16_linear_751_2263)"/>
<path d="M39.1208 35.5297C38.7672 35.5297 38.4894 35.2537 38.4894 34.9023V25.2397C38.4894 24.8883 38.7672 24.6122 39.1208 24.6122C39.4743 24.6122 39.7522 24.8883 39.7522 25.2397V34.9023C39.7522 35.2537 39.4743 35.5297 39.1208 35.5297Z" fill="url(#paint17_linear_751_2263)"/>
<path d="M22.9573 35.5297C22.6037 35.5297 22.3259 35.2537 22.3259 34.9023V25.2397C22.3259 24.8883 22.6037 24.6122 22.9573 24.6122C23.3108 24.6122 23.5886 24.8883 23.5886 25.2397V34.9023C23.5886 35.2537 23.3108 35.5297 22.9573 35.5297Z" fill="url(#paint18_linear_751_2263)"/>
<path d="M26.9602 31.0122C26.6067 31.0122 26.3289 30.7361 26.3289 30.3847V21.0986C26.3289 20.7472 26.6067 20.4711 26.9602 20.4711C27.3138 20.4711 27.5916 20.7472 27.5916 21.0986V30.3847C27.5916 30.7361 27.3012 31.0122 26.9602 31.0122Z" fill="url(#paint19_linear_751_2263)"/>
<path d="M35.0799 31.0122C34.7263 31.0122 34.4485 30.7361 34.4485 30.3847V21.0986C34.4485 20.7472 34.7263 20.4711 35.0799 20.4711C35.4335 20.4711 35.7113 20.7472 35.7113 21.0986V30.3847C35.7113 30.7361 35.4335 31.0122 35.0799 31.0122Z" fill="url(#paint20_linear_751_2263)"/>
<path d="M30.9254 41.4528C29.107 41.4528 27.9073 40.5367 27.8694 39.1062C27.8568 38.7548 28.1346 38.4662 28.4882 38.4662C28.8418 38.4536 29.1322 38.7297 29.1322 39.0811C29.1575 40.1226 30.4455 40.223 30.9759 40.2105C31.5189 40.1979 32.024 39.9971 32.3018 39.696C32.4659 39.5077 32.5417 39.2442 32.5038 38.9932C32.4659 38.7046 32.3397 38.3909 31.2916 38.2278C31.1905 38.2152 31.1021 38.2027 31.0011 38.1776C30.1045 38.0395 29.0943 37.8889 28.3872 36.9101C28.0967 36.5211 27.9957 36.0192 28.0841 35.5423C28.223 34.9023 28.6018 34.3502 29.1448 33.9862C29.9278 33.4592 31.1148 33.3839 32.1124 33.7855C32.8321 34.0741 33.413 34.6513 33.7035 35.3666C33.8424 35.6803 33.6908 36.0568 33.3625 36.1948C33.0342 36.3329 32.668 36.1823 32.5291 35.856C32.5291 35.8435 32.5165 35.8309 32.5165 35.8184C32.3523 35.4168 32.024 35.1031 31.6199 34.94C31.0264 34.7015 30.2687 34.7266 29.8394 35.0152C29.5742 35.1784 29.3848 35.4419 29.309 35.7431C29.2837 35.8937 29.309 36.0443 29.3974 36.1697C29.7636 36.6968 30.3066 36.7972 31.1653 36.9227C31.2663 36.9352 31.3673 36.9478 31.4683 36.9729C31.9735 37.0607 33.5267 37.3117 33.7287 38.8175C33.8171 39.4199 33.6403 40.0348 33.2362 40.4991C32.7311 41.0889 31.8851 41.4403 30.9759 41.4528H30.9254Z" fill="url(#paint21_linear_751_2263)"/>
<path d="M30.9254 34.7768C30.5718 34.7768 30.294 34.5007 30.294 34.1494V32.5933C30.294 32.242 30.5718 31.9659 30.9254 31.9659C31.279 31.9659 31.5568 32.242 31.5568 32.5933V34.1494C31.5568 34.5007 31.2663 34.7768 30.9254 34.7768Z" fill="url(#paint22_linear_751_2263)"/>
<path d="M30.9254 43.0465C30.5718 43.0465 30.294 42.7704 30.294 42.4191V40.863C30.294 40.5116 30.5718 40.2356 30.9254 40.2356C31.279 40.2356 31.5568 40.5116 31.5568 40.863V42.4191C31.5568 42.7579 31.2663 43.034 30.9254 43.0465Z" fill="url(#paint23_linear_751_2263)"/>
<path d="M30.9254 45.9453C26.1647 45.9453 22.3006 42.1053 22.3006 37.3744C22.3006 32.6435 26.1647 28.8036 30.9254 28.8036C35.686 28.8036 39.5501 32.6435 39.5501 37.3744C39.5501 42.1053 35.6987 45.9453 30.9254 45.9453ZM30.9254 30.0459C26.8592 30.0459 23.5634 33.3211 23.5634 37.3619C23.5634 41.4026 26.8592 44.6778 30.9254 44.6778C34.9915 44.6778 38.2874 41.4026 38.2874 37.3619C38.2874 33.3337 34.9915 30.0584 30.9254 30.0459Z" fill="url(#paint24_linear_751_2263)"/>
<path d="M26.8719 12.3144H26.7456C26.392 12.3144 26.1142 12.0383 26.1142 11.687C26.1142 11.3356 26.392 11.0595 26.7456 11.0595H26.8719C27.2254 11.0595 27.5033 11.3356 27.5033 11.687C27.5033 12.0383 27.2254 12.3144 26.8719 12.3144Z" fill="url(#paint25_linear_751_2263)"/>
<path d="M34.9536 12.3144H34.8274C34.4738 12.3144 34.196 12.0383 34.196 11.687C34.196 11.3356 34.4738 11.0595 34.8274 11.0595H34.9536C35.3072 11.0595 35.585 11.3356 35.585 11.687C35.585 12.0383 35.3072 12.3144 34.9536 12.3144Z" fill="url(#paint26_linear_751_2263)"/>
<path d="M49.1598 14.3222C48.8694 14.3222 48.6042 14.1214 48.5411 13.8328C48.5285 13.7826 47.3541 8.86345 42.9596 7.88464C42.6187 7.80934 42.404 7.47052 42.4797 7.13171C42.5303 6.89328 42.7323 6.70504 42.9722 6.65485C43.1743 6.6172 47.9223 5.63839 48.5285 0.694147C48.5663 0.380426 48.8315 0.154547 49.1472 0.141998H49.1598C49.4629 0.141998 49.7281 0.367878 49.7786 0.66905C49.9806 1.64786 50.3342 2.57647 50.8393 3.44234C51.9001 5.27448 53.4154 6.35368 55.3222 6.65485C55.6631 6.70504 55.9031 7.03131 55.8526 7.37013C55.8147 7.63366 55.6126 7.83444 55.3601 7.88464C55.1707 7.92228 50.5363 8.96384 49.7912 13.7951C49.7407 14.0963 49.4882 14.3222 49.1851 14.3222H49.1598ZM45.0053 7.26974C47.1647 8.3364 48.4022 10.2062 49.0841 11.6242C49.7155 10.1183 50.7762 8.83835 52.1526 7.94738C52.5062 7.70895 52.8724 7.50817 53.2512 7.31994C51.799 6.67995 50.612 5.5631 49.7281 4.01959C49.5387 3.69332 49.3745 3.36705 49.223 3.02823C48.6168 4.49645 47.5687 5.73878 46.2302 6.59211C45.8387 6.85563 45.4346 7.08151 45.0053 7.26974Z" fill="url(#paint27_linear_751_2263)"/>
<path d="M13.6759 24.8632C13.3855 24.8632 13.1203 24.6625 13.0571 24.3738C13.0445 24.3236 11.8701 19.4045 7.47566 18.4257C7.13471 18.3504 6.92003 18.0116 6.9958 17.6728C7.04631 17.4343 7.24836 17.2461 7.48828 17.1959C7.69033 17.1582 12.4384 16.1794 13.0445 11.2352C13.0824 10.9215 13.3476 10.6956 13.6506 10.683H13.6633C13.9663 10.683 14.2315 10.9089 14.282 11.2101C14.4841 12.1889 14.8376 13.1175 15.3428 13.9834C16.4035 15.8155 17.9188 16.8947 19.8256 17.1959C20.1666 17.2461 20.4065 17.5724 20.356 17.9112C20.3181 18.1747 20.1161 18.3755 19.8635 18.4257C19.6615 18.4633 15.0397 19.5049 14.2947 24.3362C14.2441 24.6374 13.9916 24.8632 13.6885 24.8632H13.6759V24.8632ZM9.52135 17.8108C11.6807 18.8774 12.9182 20.7472 13.6001 22.1652C14.2315 20.6594 15.2922 19.3794 16.6687 18.4884C17.0222 18.25 17.3885 18.0492 17.7673 17.861C16.3277 17.2084 15.1407 16.0916 14.2568 14.5606C14.0674 14.2344 13.9032 13.9081 13.7517 13.5693C13.1455 15.0375 12.0974 16.2798 10.7589 17.1332C10.3548 17.3967 9.9507 17.6226 9.52135 17.8108Z" fill="url(#paint28_linear_751_2263)"/>
<path d="M7.67769 56.9883H6.79374C6.44016 56.9883 6.16235 56.7122 6.16235 56.3608C6.16235 56.0095 6.44016 55.7334 6.79374 55.7334H7.67769C8.03126 55.7334 8.30907 56.0095 8.30907 56.3608C8.30907 56.7122 8.03126 56.9883 7.67769 56.9883Z" fill="url(#paint29_linear_751_2263)"/>
<path d="M55.158 56.9883H54.2741C53.9205 56.9883 53.6427 56.7122 53.6427 56.3608C53.6427 56.0095 53.9205 55.7334 54.2741 55.7334H55.158C55.5116 55.7334 55.7894 56.0095 55.7894 56.3608C55.7894 56.7122 55.5116 56.9883 55.158 56.9883Z" fill="url(#paint30_linear_751_2263)"/>
<defs>
<linearGradient id="paint0_linear_751_2263" x1="58.6939" y1="52.7217" x2="53.7958" y2="65.3836" gradientUnits="userSpaceOnUse">
<stop stop-color="#00FF88"/>
<stop offset="1" stop-color="#EF04FF"/>
</linearGradient>
<linearGradient id="paint1_linear_751_2263" x1="61.8761" y1="13.5896" x2="48.0605" y2="16.2292" gradientUnits="userSpaceOnUse">
<stop stop-color="#00FF88"/>
<stop offset="1" stop-color="#EF04FF"/>
</linearGradient>
<linearGradient id="paint2_linear_751_2263" x1="58.8783" y1="26.4615" x2="36.9552" y2="40.02" gradientUnits="userSpaceOnUse">
<stop stop-color="#00FF88"/>
<stop offset="1" stop-color="#EF04FF"/>
</linearGradient>
<linearGradient id="paint3_linear_751_2263" x1="57.1785" y1="49.8354" x2="55.2596" y2="57.3785" gradientUnits="userSpaceOnUse">
<stop stop-color="#00FF88"/>
<stop offset="1" stop-color="#EF04FF"/>
</linearGradient>
<linearGradient id="paint4_linear_751_2263" x1="7.15657" y1="13.732" x2="-6.64925" y2="16.3785" gradientUnits="userSpaceOnUse">
<stop stop-color="#00FF88"/>
<stop offset="1" stop-color="#EF04FF"/>
</linearGradient>
<linearGradient id="paint5_linear_751_2263" x1="18.173" y1="26.4615" x2="-3.78618" y2="40.0919" gradientUnits="userSpaceOnUse">
<stop stop-color="#00FF88"/>
<stop offset="1" stop-color="#EF04FF"/>
</linearGradient>
<linearGradient id="paint6_linear_751_2263" x1="20.4317" y1="49.8354" x2="18.5127" y2="57.3785" gradientUnits="userSpaceOnUse">
<stop stop-color="#00FF88"/>
<stop offset="1" stop-color="#EF04FF"/>
</linearGradient>
<linearGradient id="paint7_linear_751_2263" x1="22.1996" y1="52.7217" x2="17.3016" y2="65.3836" gradientUnits="userSpaceOnUse">
<stop stop-color="#00FF88"/>
<stop offset="1" stop-color="#EF04FF"/>
</linearGradient>
<linearGradient id="paint8_linear_751_2263" x1="30.1634" y1="21.0977" x2="25.927" y2="22.1313" gradientUnits="userSpaceOnUse">
<stop stop-color="#00FF88"/>
<stop offset="1" stop-color="#EF04FF"/>
</linearGradient>
<linearGradient id="paint9_linear_751_2263" x1="34.1221" y1="21.0967" x2="29.8859" y2="22.1222" gradientUnits="userSpaceOnUse">
<stop stop-color="#00FF88"/>
<stop offset="1" stop-color="#EF04FF"/>
</linearGradient>
<linearGradient id="paint10_linear_751_2263" x1="32.9332" y1="24.4868" x2="32.2224" y2="26.7758" gradientUnits="userSpaceOnUse">
<stop stop-color="#00FF88"/>
<stop offset="1" stop-color="#EF04FF"/>
</linearGradient>
<linearGradient id="paint11_linear_751_2263" x1="40.4972" y1="0" x2="18.3917" y2="18.9621" gradientUnits="userSpaceOnUse">
<stop stop-color="#00FF88"/>
<stop offset="1" stop-color="#EF04FF"/>
</linearGradient>
<linearGradient id="paint12_linear_751_2263" x1="22.3133" y1="9.05168" x2="17.7677" y2="11.6546" gradientUnits="userSpaceOnUse">
<stop stop-color="#00FF88"/>
<stop offset="1" stop-color="#EF04FF"/>
</linearGradient>
<linearGradient id="paint13_linear_751_2263" x1="42.5303" y1="9.05168" x2="37.8836" y2="11.835" gradientUnits="userSpaceOnUse">
<stop stop-color="#00FF88"/>
<stop offset="1" stop-color="#EF04FF"/>
</linearGradient>
<linearGradient id="paint14_linear_751_2263" x1="40.4612" y1="5.80888" x2="38.5158" y2="14.2096" gradientUnits="userSpaceOnUse">
<stop stop-color="#00FF88"/>
<stop offset="1" stop-color="#EF04FF"/>
</linearGradient>
<linearGradient id="paint15_linear_751_2263" x1="23.983" y1="17.2056" x2="13.3875" y2="20.5459" gradientUnits="userSpaceOnUse">
<stop stop-color="#00FF88"/>
<stop offset="1" stop-color="#EF04FF"/>
</linearGradient>
<linearGradient id="paint16_linear_751_2263" x1="43.6795" y1="17.2145" x2="33.1123" y2="20.515" gradientUnits="userSpaceOnUse">
<stop stop-color="#00FF88"/>
<stop offset="1" stop-color="#EF04FF"/>
</linearGradient>
<linearGradient id="paint17_linear_751_2263" x1="39.7522" y1="24.6122" x2="37.2599" y2="24.9005" gradientUnits="userSpaceOnUse">
<stop stop-color="#00FF88"/>
<stop offset="1" stop-color="#EF04FF"/>
</linearGradient>
<linearGradient id="paint18_linear_751_2263" x1="23.5886" y1="24.6122" x2="21.0964" y2="24.9005" gradientUnits="userSpaceOnUse">
<stop stop-color="#00FF88"/>
<stop offset="1" stop-color="#EF04FF"/>
</linearGradient>
<linearGradient id="paint19_linear_751_2263" x1="27.5916" y1="20.4711" x2="25.1018" y2="20.7694" gradientUnits="userSpaceOnUse">
<stop stop-color="#00FF88"/>
<stop offset="1" stop-color="#EF04FF"/>
</linearGradient>
<linearGradient id="paint20_linear_751_2263" x1="35.7113" y1="20.4711" x2="33.2214" y2="20.7694" gradientUnits="userSpaceOnUse">
<stop stop-color="#00FF88"/>
<stop offset="1" stop-color="#EF04FF"/>
</linearGradient>
<linearGradient id="paint21_linear_751_2263" x1="33.755" y1="33.5299" x2="26.1695" y2="39.1652" gradientUnits="userSpaceOnUse">
<stop stop-color="#00FF88"/>
<stop offset="1" stop-color="#EF04FF"/>
</linearGradient>
<linearGradient id="paint22_linear_751_2263" x1="31.5568" y1="31.9659" x2="29.4553" y2="32.9099" gradientUnits="userSpaceOnUse">
<stop stop-color="#00FF88"/>
<stop offset="1" stop-color="#EF04FF"/>
</linearGradient>
<linearGradient id="paint23_linear_751_2263" x1="31.5568" y1="40.2356" x2="29.4553" y2="41.1796" gradientUnits="userSpaceOnUse">
<stop stop-color="#00FF88"/>
<stop offset="1" stop-color="#EF04FF"/>
</linearGradient>
<linearGradient id="paint24_linear_751_2263" x1="39.5501" y1="28.8036" x2="22.4088" y2="46.0528" gradientUnits="userSpaceOnUse">
<stop stop-color="#00FF88"/>
<stop offset="1" stop-color="#EF04FF"/>
</linearGradient>
<linearGradient id="paint25_linear_751_2263" x1="27.5033" y1="11.0595" x2="26.2548" y2="12.4414" gradientUnits="userSpaceOnUse">
<stop stop-color="#00FF88"/>
<stop offset="1" stop-color="#EF04FF"/>
</linearGradient>
<linearGradient id="paint26_linear_751_2263" x1="35.585" y1="11.0595" x2="34.3366" y2="12.4414" gradientUnits="userSpaceOnUse">
<stop stop-color="#00FF88"/>
<stop offset="1" stop-color="#EF04FF"/>
</linearGradient>
<linearGradient id="paint27_linear_751_2263" x1="55.8593" y1="0.141998" x2="41.7021" y2="13.515" gradientUnits="userSpaceOnUse">
<stop stop-color="#00FF88"/>
<stop offset="1" stop-color="#EF04FF"/>
</linearGradient>
<linearGradient id="paint28_linear_751_2263" x1="20.3627" y1="10.683" x2="6.20626" y2="24.0427" gradientUnits="userSpaceOnUse">
<stop stop-color="#00FF88"/>
<stop offset="1" stop-color="#EF04FF"/>
</linearGradient>
<linearGradient id="paint29_linear_751_2263" x1="8.30907" y1="55.7334" x2="7.21561" y2="57.604" gradientUnits="userSpaceOnUse">
<stop stop-color="#00FF88"/>
<stop offset="1" stop-color="#EF04FF"/>
</linearGradient>
<linearGradient id="paint30_linear_751_2263" x1="55.7894" y1="55.7334" x2="54.696" y2="57.604" gradientUnits="userSpaceOnUse">
<stop stop-color="#00FF88"/>
<stop offset="1" stop-color="#EF04FF"/>
</linearGradient>
</defs>
</svg>
