<svg width="24" height="24" viewBox="0 0 24 24" fill="none" xmlns="http://www.w3.org/2000/svg">
<path d="M11.9951 16.6768V14.1398" stroke="white" stroke-width="1.5" stroke-linecap="round" stroke-linejoin="round"/>
<path fill-rule="evenodd" clip-rule="evenodd" d="M18.1899 5.3302C19.8799 5.3302 21.2399 6.7002 21.2399 8.3902V11.8302C18.7799 13.2702 15.5299 14.1402 11.9899 14.1402C8.44989 14.1402 5.20989 13.2702 2.74989 11.8302V8.3802C2.74989 6.6902 4.11989 5.3302 5.80989 5.3302H18.1899Z" stroke="white" stroke-width="1.5" stroke-linecap="round" stroke-linejoin="round"/>
<path d="M15.4951 5.3258V4.9598C15.4951 3.7398 14.5051 2.7498 13.2851 2.7498H10.7051C9.48509 2.7498 8.49509 3.7398 8.49509 4.9598V5.3258" stroke="white" stroke-width="1.5" stroke-linecap="round" stroke-linejoin="round"/>
<path d="M2.7744 15.483L2.9634 17.992C3.0914 19.683 4.5004 20.99 6.1954 20.99H17.7944C19.4894 20.99 20.8984 19.683 21.0264 17.992L21.2154 15.483" stroke="white" stroke-width="1.5" stroke-linecap="round" stroke-linejoin="round"/>
</svg>
