<svg width="40" height="45" viewBox="0 0 40 45" fill="none" xmlns="http://www.w3.org/2000/svg">
<path d="M26.7342 24.5532L30.8308 25.3662C30.8941 26.3778 31.3231 27.3319 32.0378 28.0505C32.7526 28.7692 33.7043 29.2034 34.7156 29.2721C35.7268 29.3409 36.7286 29.0396 37.534 28.4243C38.3395 27.809 38.8937 26.9218 39.0934 25.928C39.293 24.9343 39.1244 23.9019 38.619 23.0233C38.1137 22.1447 37.306 21.4798 36.3467 21.1527C35.3873 20.8256 34.3418 20.8586 33.4049 21.2454C32.4681 21.6323 31.7039 22.3467 31.2548 23.2554L27.0156 22.4141C26.9696 20.8083 26.3483 19.2725 25.2649 18.0865L30.9795 10.0138C32.1642 10.5277 33.4974 10.5843 34.7215 10.1729C35.9456 9.76141 36.9738 8.91101 37.6076 7.78587C38.2415 6.66073 38.436 5.34064 38.1536 4.0805C37.8712 2.82036 37.1319 1.70953 36.0785 0.962498C35.0251 0.215466 33.7323 -0.114789 32.4497 0.0354995C31.1671 0.185788 29.9856 0.805962 29.1334 1.77628C28.2813 2.74659 27.8188 3.99823 27.8354 5.28952C27.8519 6.58081 28.3463 7.82017 29.2231 8.76831L23.5763 16.7453C22.2638 16.0087 20.7417 15.7347 19.2546 15.9675C17.7676 16.2003 16.402 16.9263 15.3773 18.0288L7.97767 12.2822C8.40707 11.3616 8.48696 10.3162 8.20245 9.34102C7.91793 8.36584 7.28843 7.52745 6.43135 6.98218C5.57426 6.43691 4.54811 6.22199 3.54425 6.37752C2.54039 6.53304 1.62737 7.04839 0.975463 7.82744C0.323551 8.6065 -0.0227433 9.59608 0.00115972 10.6116C0.0250628 11.6272 0.417532 12.5994 1.10537 13.3469C1.79322 14.0944 2.72947 14.5662 3.73953 14.6744C4.74959 14.7825 5.7645 14.5195 6.59499 13.9345L14.1757 19.8216C13.5823 21.1177 13.4169 22.5691 13.7035 23.9655C13.9901 25.362 14.7138 26.6309 15.7698 27.5885L11.2289 34.0104C10.0236 33.3385 8.6115 33.139 7.26728 33.4507C5.92305 33.7624 4.74287 34.5631 3.95639 35.6969C3.16991 36.8308 2.83339 38.2166 3.0123 39.5849C3.19121 40.9531 3.87276 42.2059 4.92432 43.0994C5.97589 43.9929 7.32226 44.4632 8.70144 44.4188C10.0806 44.3744 11.394 43.8185 12.3859 42.8593C13.3779 41.9 13.9775 40.6061 14.068 39.2291C14.1586 37.8522 13.7337 36.4908 12.8759 35.4099L17.5748 28.764C18.3854 29.1236 19.2593 29.3188 20.1458 29.3383C21.0324 29.3578 21.914 29.2012 22.7396 28.8776L28.3568 37.1756C27.5939 38.0446 27.1769 39.1637 27.1853 40.3201C27.1937 41.4764 27.6268 42.5894 28.4023 43.4472C29.1778 44.305 30.2415 44.8479 31.3912 44.9725C32.5409 45.0972 33.6962 44.7949 34.6375 44.1232C35.5788 43.4514 36.2404 42.4572 36.4964 41.3295C36.7524 40.2018 36.5849 39.0193 36.0259 38.007C35.4669 36.9947 34.5553 36.2232 33.4645 35.8393C32.3737 35.4553 31.1798 35.4857 30.11 35.9246L24.5961 27.7794C25.6087 26.936 26.352 25.8144 26.7342 24.5532ZM2.17038 10.5223C2.17038 10.1223 2.28898 9.73139 2.51117 9.39885C2.73337 9.06631 3.04918 8.80713 3.41868 8.65408C3.78817 8.50103 4.19476 8.46098 4.58701 8.539C4.97927 8.61703 5.33958 8.80962 5.62238 9.09242C5.90518 9.37522 6.09777 9.73553 6.1758 10.1278C6.25382 10.52 6.21378 10.9266 6.06073 11.2961C5.90767 11.6656 5.64849 11.9814 5.31595 12.2036C4.98342 12.4258 4.59246 12.5444 4.19252 12.5444C3.6564 12.5438 3.14241 12.3306 2.76331 11.9515C2.38422 11.5724 2.17098 11.0584 2.17038 10.5223ZM8.53671 42.2411C7.86639 42.2411 7.21113 42.0423 6.65379 41.6699C6.09645 41.2974 5.66207 40.7681 5.40556 40.1488C5.14906 39.5295 5.08195 38.8481 5.21274 38.1906C5.34353 37.5332 5.66633 36.9293 6.14032 36.4553C6.61431 35.9813 7.21821 35.6586 7.87565 35.5278C8.53309 35.397 9.21454 35.4641 9.83383 35.7207C10.4531 35.9772 10.9824 36.4116 11.3548 36.9689C11.7273 37.5263 11.926 38.1816 11.926 38.8519C11.925 39.7505 11.5676 40.612 10.9322 41.2474C10.2968 41.8827 9.43529 42.2401 8.53671 42.2411ZM34.4674 40.2942C34.4674 40.8023 34.3167 41.299 34.0344 41.7215C33.7521 42.1439 33.3509 42.4732 32.8815 42.6677C32.4121 42.8621 31.8955 42.913 31.3972 42.8139C30.8989 42.7147 30.4411 42.4701 30.0818 42.1108C29.7225 41.7515 29.4779 41.2937 29.3787 40.7954C29.2796 40.2971 29.3305 39.7805 29.5249 39.3111C29.7194 38.8417 30.0486 38.4404 30.4711 38.1581C30.8936 37.8759 31.3903 37.7252 31.8984 37.7252C32.5795 37.726 33.2325 37.9969 33.7141 38.4785C34.1957 38.9601 34.4666 39.6131 34.4674 40.2942ZM34.9969 23.0823C35.3969 23.0823 35.7878 23.2009 36.1204 23.4231C36.4529 23.6452 36.7121 23.9611 36.8651 24.3306C37.0182 24.7001 37.0582 25.1066 36.9802 25.4989C36.9022 25.8912 36.7096 26.2515 36.4268 26.5343C36.144 26.8171 35.7837 27.0097 35.3914 27.0877C34.9992 27.1657 34.5926 27.1257 34.2231 26.9726C33.8536 26.8196 33.5378 26.5604 33.3156 26.2278C33.0934 25.8953 32.9748 25.5043 32.9748 25.1044C32.9753 24.5682 33.1884 24.0542 33.5676 23.675C33.9467 23.2959 34.4608 23.0827 34.9969 23.0823ZM33.0434 2.17721C33.6476 2.17723 34.2383 2.35644 34.7408 2.69217C35.2432 3.0279 35.6348 3.50507 35.866 4.06335C36.0972 4.62163 36.1577 5.23594 36.0398 5.8286C35.9219 6.42126 35.6309 6.96564 35.2036 7.39292C34.7763 7.8202 34.2319 8.11117 33.6393 8.22905C33.0466 8.34693 32.4323 8.28642 31.874 8.05517C31.3158 7.82392 30.8386 7.43232 30.5029 6.92989C30.1672 6.42745 29.988 5.83675 29.988 5.23248C29.9889 4.42244 30.3111 3.64585 30.8839 3.07308C31.4567 2.5003 32.2333 2.17812 33.0434 2.17721ZM15.7192 22.6132C15.7192 21.7086 15.9875 20.8242 16.4901 20.072C16.9927 19.3198 17.7071 18.7336 18.5429 18.3874C19.3787 18.0412 20.2984 17.9506 21.1856 18.1271C22.0729 18.3036 22.8879 18.7392 23.5276 19.3789C24.1673 20.0186 24.6029 20.8336 24.7794 21.7209C24.9559 22.6081 24.8653 23.5278 24.5191 24.3636C24.1729 25.1994 23.5867 25.9138 22.8345 26.4164C22.0823 26.919 21.1979 27.1872 20.2933 27.1872C19.0806 27.1859 17.918 26.7035 17.0605 25.846C16.203 24.9885 15.7206 23.8259 15.7192 22.6132Z" fill="url(#paint0_linear_422_5875)"/>
<defs>
<linearGradient id="paint0_linear_422_5875" x1="39.1752" y1="0" x2="-5.39592" y2="38.8018" gradientUnits="userSpaceOnUse">
<stop stop-color="#00FF88"/>
<stop offset="1" stop-color="#EF04FF"/>
</linearGradient>
</defs>
</svg>
