<svg width="48" height="35" viewBox="0 0 48 35" fill="none" xmlns="http://www.w3.org/2000/svg">
<path d="M30.1183 27.9278C29.7509 28.3969 29.31 28.7577 28.8324 29.0464L29.163 33.232C29.163 33.3402 29.1998 33.4124 29.1998 33.4845C29.1263 33.4485 29.0528 33.4124 28.9793 33.3763L19.3537 28.3969C19.1332 28.2887 18.9128 28.2165 18.6556 28.2165C18.4352 28.2165 18.178 28.2887 17.9576 28.3969L8.33188 33.3763C8.2584 33.4124 8.18492 33.4485 8.11144 33.4845C8.11144 33.4124 8.11144 33.3402 8.14818 33.232L9.98514 22.6959C10.0586 22.2268 9.91167 21.7577 9.54427 21.433L1.79229 13.9639C1.71881 13.8918 1.68207 13.8196 1.60859 13.7835C1.68207 13.7835 1.75555 13.7474 1.86577 13.7474L12.6304 12.1959C13.108 12.1237 13.5121 11.8351 13.7325 11.4021L18.5454 1.80412C18.5821 1.73196 18.6189 1.65979 18.6556 1.58763C18.6923 1.65979 18.7291 1.73196 18.7658 1.80412L23.5787 11.366C23.7991 11.799 24.2032 12.0876 24.6808 12.1598L29.3835 12.8454C29.8978 12.4124 30.4489 12.0155 31 11.6186L24.8645 10.7526L20.0884 1.19072C19.6843 0.396907 19.17 0 18.6556 0C18.1413 0 17.6269 0.396907 17.2228 1.19072L12.4099 10.7887L1.64533 12.3041C-0.154892 12.5567 -0.522284 13.7835 0.76359 15.0103L8.55231 22.4794L6.71535 33.0155C6.49491 34.2784 6.97252 35 7.85427 35C8.18492 35 8.58905 34.8918 9.02992 34.6753L18.6556 29.6959L28.2813 34.6753C28.7222 34.8918 29.1263 35 29.4569 35C30.3387 35 30.8163 34.2784 30.5959 33.0155L30.1183 27.9278Z" fill="url(#paint0_linear_422_5879)"/>
<path d="M45.311 8.14068C45.4229 8.14068 45.5349 8.14068 45.6469 8.17871C47.3269 8.52091 47.2522 11.4867 45.2363 11.7909C38.3673 12.7795 32.1329 18.4068 29.7064 24.8707C29.445 25.5551 28.8104 25.8593 28.1758 25.8593C28.0264 25.8593 27.8771 25.8593 27.7651 25.8213C27.1305 25.7072 26.6078 25.289 26.4212 24.6426C25.5999 21.5247 24.2559 19.1673 21.7921 17.1521C20.3735 15.9734 21.6054 14.0342 23.0613 14.0342C23.1733 14.0342 23.2853 14.0342 23.3973 14.0722C23.6586 14.1483 23.92 14.2624 24.1813 14.4525C25.9732 15.9354 27.3171 17.6464 28.3251 19.5856C31.9462 13.654 38.3299 9.1673 45.0123 8.21673C45.1243 8.17871 45.199 8.14068 45.311 8.14068ZM45.311 7C45.1616 7 45.0123 7 44.863 7.03802C38.5166 7.95057 32.3569 11.8669 28.3624 17.4183C27.4291 15.9734 26.2718 14.6806 24.8532 13.5399C24.4426 13.2357 24.032 13.0076 23.584 12.9316C23.3973 12.8935 23.2107 12.8555 23.024 12.8555C21.7547 12.8555 20.5974 13.73 20.1495 14.9468C19.7762 16.0494 20.1121 17.2281 21.0454 17.9886C23.248 19.8137 24.5173 21.8669 25.3012 24.9087C25.5625 25.9354 26.4212 26.6958 27.5038 26.924C27.7278 26.962 27.9518 27 28.1758 27C29.333 27 30.341 26.3536 30.7516 25.289C33.1782 18.9011 39.1886 13.8061 45.4229 12.9316C46.8789 12.7034 47.9242 11.4867 47.9988 9.96578C48.0362 8.52091 47.1775 7.3422 45.9083 7.07604C45.6843 7.03802 45.4976 7 45.311 7Z" fill="url(#paint1_linear_422_5879)"/>
<defs>
<linearGradient id="paint0_linear_422_5879" x1="31" y1="0" x2="-3.74382" y2="30.7731" gradientUnits="userSpaceOnUse">
<stop stop-color="#00FF88"/>
<stop offset="1" stop-color="#EF04FF"/>
</linearGradient>
<linearGradient id="paint1_linear_422_5879" x1="48" y1="7" x2="29.0811" y2="33.4865" gradientUnits="userSpaceOnUse">
<stop stop-color="#00FF88"/>
<stop offset="1" stop-color="#EF04FF"/>
</linearGradient>
</defs>
</svg>
