<svg width="41" height="41" viewBox="0 0 41 41" fill="none" xmlns="http://www.w3.org/2000/svg">
<path d="M35.4573 0.377065C35.2156 0.13562 34.8879 0 34.5463 0C34.2046 0 33.8769 0.13562 33.6352 0.377065L13.3557 20.6703C13.2168 20.809 13.1109 20.9771 13.0459 21.1623L10.3766 29.0017C10.2993 29.2279 10.2869 29.4712 10.3408 29.704C10.3947 29.9369 10.5127 30.15 10.6815 30.3193C10.8503 30.4885 11.0631 30.6071 11.2958 30.6617C11.5285 30.7162 11.7718 30.7045 11.9982 30.6279L19.8376 27.954C20.0215 27.8886 20.1893 27.7845 20.3296 27.6488L40.6228 7.35557C40.8643 7.11386 40.9999 6.78618 40.9999 6.44454C40.9999 6.10289 40.8643 5.77522 40.6228 5.53351L35.4573 0.377065ZM18.7262 25.6263L13.6654 27.3573L15.3964 22.2737L30.9295 6.71785L34.2775 10.0704L18.7262 25.6263ZM36.0905 8.26205L32.7379 4.90945L34.5599 3.08739L37.9125 6.43998L36.0905 8.26205Z" fill="url(#paint0_linear_422_5883)"/>
<path d="M20.4982 2.56895C20.8251 2.54946 21.1322 2.40587 21.3567 2.16754C21.5813 1.92921 21.7063 1.61412 21.7063 1.28667C21.7063 0.959223 21.5813 0.644135 21.3567 0.405802C21.1322 0.167469 20.8251 0.0238852 20.4982 0.00439453C16.4441 0.00439453 12.4809 1.20659 9.11003 3.45897C5.73911 5.71134 3.11181 8.91273 1.56034 12.6583C0.00888159 16.4038 -0.397052 20.5254 0.393877 24.5016C1.18481 28.4779 3.13707 32.1303 6.0038 34.997C8.87053 37.8638 12.523 39.816 16.4992 40.607C20.4755 41.3979 24.597 40.992 28.3426 39.4405C32.0881 37.889 35.2895 35.2617 37.5419 31.8908C39.7943 28.5199 40.9965 24.5568 40.9965 20.5026C40.977 20.1757 40.8334 19.8687 40.595 19.6441C40.3567 19.4196 40.0416 19.2945 39.7142 19.2945C39.3867 19.2945 39.0716 19.4196 38.8333 19.6441C38.595 19.8687 38.4514 20.1757 38.4319 20.5026C38.4328 24.0508 37.3814 27.5196 35.4107 30.4703C33.4399 33.4209 30.6384 35.7208 27.3604 37.0791C24.0825 38.4373 20.4753 38.7929 16.9952 38.1009C13.5151 37.4089 10.3184 35.7004 7.80944 33.1914C5.30046 30.6824 3.59192 27.4857 2.89991 24.0056C2.20791 20.5255 2.56353 16.9184 3.92179 13.6404C5.28006 10.3624 7.57995 7.56092 10.5306 5.59019C13.4812 3.61946 16.95 2.56805 20.4982 2.56895Z" fill="url(#paint1_linear_422_5883)"/>
<defs>
<linearGradient id="paint0_linear_422_5883" x1="40.9999" y1="0" x2="10.3045" y2="30.692" gradientUnits="userSpaceOnUse">
<stop stop-color="#00FF88"/>
<stop offset="1" stop-color="#EF04FF"/>
</linearGradient>
<linearGradient id="paint1_linear_422_5883" x1="40.9965" y1="0.00439453" x2="0" y2="41.0008" gradientUnits="userSpaceOnUse">
<stop stop-color="#00FF88"/>
<stop offset="1" stop-color="#EF04FF"/>
</linearGradient>
</defs>
</svg>
