<svg width="27" height="16" viewBox="0 0 27 16" fill="none" xmlns="http://www.w3.org/2000/svg">
<g clip-path="url(#clip0_422_5489)">
<path d="M1.125 2.25H25.875C26.1731 2.24921 26.4588 2.13043 26.6696 1.91962C26.8804 1.70881 26.9992 1.42313 27 1.125C26.9992 0.826875 26.8804 0.541187 26.6696 0.330379C26.4588 0.119572 26.1731 0.000791837 25.875 0H1.125C0.826875 0.000791837 0.541187 0.119572 0.330379 0.330379C0.119572 0.541187 0.000791837 0.826875 0 1.125C0.000791837 1.42313 0.119572 1.70881 0.330379 1.91962C0.541187 2.13043 0.826875 2.24921 1.125 2.25Z" fill="white"/>
<path d="M1.125 9H25.875C26.1731 8.99921 26.4588 8.88043 26.6696 8.66962C26.8804 8.45881 26.9992 8.17313 27 7.875C26.9992 7.57687 26.8804 7.29119 26.6696 7.08038C26.4588 6.86957 26.1731 6.75079 25.875 6.75H1.125C0.826875 6.75079 0.541187 6.86957 0.330379 7.08038C0.119572 7.29119 0.000791837 7.57687 0 7.875C0.000791837 8.17313 0.119572 8.45881 0.330379 8.66962C0.541187 8.88043 0.826875 8.99921 1.125 9Z" fill="white"/>
<path d="M1.125 15.75H25.875C26.1731 15.7492 26.4588 15.6304 26.6696 15.4196C26.8804 15.2088 26.9992 14.9231 27 14.625C26.9992 14.3269 26.8804 14.0412 26.6696 13.8304C26.4588 13.6196 26.1731 13.5008 25.875 13.5H1.125C0.826875 13.5008 0.541187 13.6196 0.330379 13.8304C0.119572 14.0412 0.000791837 14.3269 0 14.625C0.000791837 14.9231 0.119572 15.2088 0.330379 15.4196C0.541187 15.6304 0.826875 15.7492 1.125 15.75Z" fill="white"/>
</g>
<defs>
<clipPath id="clip0_422_5489">
<rect width="27" height="15.75" fill="white"/>
</clipPath>
</defs>
</svg>
