<svg width="36" height="50" viewBox="0 0 36 50" fill="none" xmlns="http://www.w3.org/2000/svg">
<path d="M30.2203 21.3377C32.367 21.656 33.8532 22.6115 34.679 23.8854C35.5046 25.1593 36 27.3887 36 30.2548C36 35.9873 34.1835 40.7645 30.5505 44.4269C26.9175 48.0894 22.2936 50 16.679 50C14.532 50 12.3853 49.6816 10.2385 48.8854C8.0917 48.0894 6.44034 46.9746 4.95408 45.7008C3.30272 44.2675 1.98169 42.516 1.15594 40.9236C0.495422 39.1721 0 37.4204 0 35.6689C0 33.758 0.495422 32.1657 1.32103 31.0511C2.14678 29.9364 3.63291 29.2994 5.4495 28.8218C5.11931 28.0256 4.78898 27.3885 4.62389 26.7516C4.45866 26.2739 4.29356 25.7963 4.29356 25.4778C4.29356 24.5224 4.78898 23.4077 5.94492 22.2931C7.10086 21.1785 8.0917 20.7007 9.08255 20.7007C9.57797 20.7007 9.9083 20.7008 10.4037 20.8599C10.8991 21.0191 11.3946 21.1783 12.0551 21.656C10.5688 16.879 9.08255 12.8981 8.2568 10.1911C7.43119 7.48414 7.10086 5.7326 7.10086 4.61784C7.10086 3.18469 7.43119 2.07006 8.2568 1.27396C8.91759 0.477581 10.0735 0 11.3947 0C13.5415 0 16.3488 4.77717 19.8167 14.4904C20.4773 16.0829 20.8074 17.3567 21.1378 18.3122C21.4681 17.6753 21.7983 16.5605 22.2937 15.2867C25.7614 5.73247 28.7339 0.955434 31.0459 0.955434C32.2019 0.955434 33.1927 1.27382 34.0183 2.07006C34.679 2.8663 35.1743 3.98093 35.1743 5.25475C35.1743 6.21018 34.8441 8.12105 34.0183 10.828C33.0275 13.5351 31.8715 17.0382 30.2202 21.3377H30.2203ZM4.78884 35.3505C5.11917 35.6689 5.61459 36.3058 6.11002 37.102C7.59628 39.172 9.08255 40.2866 10.4037 40.2866C10.8991 40.2866 11.2293 40.1274 11.5597 39.8089C11.8898 39.4904 12.0551 39.172 12.0551 39.0126C12.0551 38.6943 11.8898 38.0573 11.3946 37.2611C10.8991 36.4649 10.2386 35.5096 9.41287 34.5541C8.42203 33.4395 7.59628 32.4841 7.101 32.0062C6.44034 31.5286 5.94506 31.2102 5.61459 31.2102C4.78898 31.2102 3.96323 31.6878 3.30272 32.4841C2.6422 33.2802 2.31188 34.3948 2.31188 35.5096C2.31188 36.4649 2.47711 37.4203 2.97253 38.6943C3.46795 39.8089 4.12847 41.0827 5.11931 42.1975C6.60544 43.7898 8.25694 45.223 10.4037 46.1783C12.5505 47.1337 14.6973 47.6115 17.3393 47.6115C21.9632 47.6115 25.7614 46.0191 28.8991 42.6752C32.0368 39.3312 33.5229 35.191 33.5229 30.0955C33.5229 28.5031 33.3578 27.3885 33.1927 26.4329C33.0275 25.4776 32.532 24.8407 32.0368 24.5222C31.0459 23.726 29.2293 23.0891 26.422 22.4522C23.6147 21.8152 20.6422 21.4967 17.6697 21.4967C16.8441 21.4967 16.1835 21.6559 15.8532 21.9744C15.5229 22.293 15.3578 22.7707 15.3578 23.4076C15.3578 24.9999 16.1835 26.1146 18 26.7515C19.8165 27.3885 22.789 27.8661 26.7524 27.8661H28.2385C28.5688 27.8661 28.8991 28.0254 29.0642 28.1848C29.2293 28.5031 29.3946 28.8215 29.3946 29.2994C29.0641 29.6178 28.2386 30.0955 26.9175 30.5732C25.5963 31.0509 24.7707 31.5286 24.1102 32.0064C22.6237 32.9618 21.4678 34.2356 20.6422 35.6688C19.8165 37.1019 19.321 38.3757 19.321 39.6497C19.321 40.4458 19.4863 41.242 19.8165 42.3567C20.1469 43.4713 20.3119 44.1082 20.3119 44.2675V44.9044C19.321 44.9044 18.4954 44.2675 17.8349 43.1529C17.1742 42.0383 17.0092 40.605 17.0092 38.6943V38.3757C16.8441 38.5349 16.679 38.6943 16.5137 38.6943C16.3486 38.6943 16.1835 38.8535 15.8532 38.8535H15.1927C15.0275 38.8535 14.8624 38.6943 14.532 38.6943C14.532 39.0126 14.6973 39.172 14.6973 39.4904V40.1274C14.6973 40.9235 14.367 41.7197 13.7064 42.3567C13.0459 42.9936 12.2202 43.3121 11.2293 43.3121C9.74306 43.3121 8.25694 42.6752 6.60558 41.242C5.11917 39.8089 4.2937 38.5349 4.2937 37.1019C4.2937 36.7834 4.2937 36.6242 4.45866 36.4649C4.45866 35.6688 4.62389 35.5096 4.78898 35.3502L4.78884 35.3505ZM15.5228 36.1465C15.8531 36.1465 16.3485 35.9873 16.6787 35.6689C17.0092 35.3504 17.1741 34.8727 17.1741 34.5543C17.1741 34.0766 16.8439 33.121 16.1834 31.5288C15.5227 29.9364 14.697 28.3441 13.7063 26.9109C13.0458 25.7963 12.22 24.8409 11.5595 24.363C10.899 23.7261 10.2383 23.5671 9.57783 23.5671C9.08241 23.5671 8.58698 23.8854 7.92647 24.5223C7.26595 25.1593 7.10072 25.637 7.10072 26.2739C7.10072 26.7516 7.43105 27.7072 7.92647 28.8218C8.58698 29.9364 9.2475 31.0511 10.2383 32.3249C11.2293 33.5988 12.2203 34.7135 13.211 35.5097C14.2019 35.8281 14.8624 36.1466 15.5229 36.1466L15.5228 36.1465ZM18.9906 19.586L15.0273 8.91716C14.0366 6.21018 13.376 4.29932 12.7155 3.50321C12.22 2.70697 11.7246 2.22926 11.0641 2.22926C10.5687 2.22926 10.2383 2.38858 9.90816 2.70697C9.41273 3.18469 9.2475 3.66241 9.2475 4.29932C9.2475 5.41394 9.74292 7.16562 10.5687 9.7134C11.3944 12.2612 12.7155 15.7644 14.367 19.9045C14.5319 19.586 14.6971 19.4268 15.0273 19.4268C15.3577 19.2676 15.688 19.2676 16.0182 19.2676H16.8439C17.3393 19.4268 17.9999 19.4268 18.9907 19.586H18.9906ZM22.9539 29.9363C21.9631 29.9363 20.9724 29.7771 19.9815 29.6179C18.9907 29.4587 18.165 29.2994 17.3392 28.981C17.6697 29.7771 17.9999 30.4141 18.3302 31.2102C18.6604 32.0065 18.8256 32.6434 18.9907 33.4395C19.4861 32.8026 20.1466 32.1657 20.8072 31.5288C21.6329 30.8919 22.2936 30.4141 22.9539 29.9364V29.9363ZM27.7429 20.7006C29.3944 16.5605 30.5504 13.0574 31.5412 10.3503C32.3668 7.64334 32.8622 6.05099 32.8622 5.41408C32.8622 4.77703 32.6971 4.29945 32.3668 3.8216C32.0366 3.50321 31.7063 3.34402 31.2109 3.34402C30.5504 3.34402 29.8897 3.8216 29.2292 4.93636C28.5687 6.05099 27.7429 7.64334 26.9173 10.0319L23.2843 19.9045L27.7429 20.7007V20.7006Z" fill="white"/>
</svg>
