<svg width="52" height="52" viewBox="0 0 52 52" fill="none" xmlns="http://www.w3.org/2000/svg">
<circle cx="26" cy="26" r="25.5" stroke="url(#paint0_linear_124_2178)"/>
<path d="M17.1405 32.7393C16.5547 33.3251 16.5547 34.2749 17.1405 34.8606C17.7263 35.4464 18.676 35.4464 19.2618 34.8606L17.1405 32.7393ZM35.7345 17.7667C35.7345 16.9382 35.0629 16.2667 34.2345 16.2667L20.7345 16.2667C19.9061 16.2667 19.2345 16.9382 19.2345 17.7667C19.2345 18.5951 19.9061 19.2667 20.7345 19.2667H32.7345V31.2667C32.7345 32.0951 33.4061 32.7667 34.2345 32.7667C35.0629 32.7667 35.7345 32.0951 35.7345 31.2667L35.7345 17.7667ZM19.2618 34.8606L35.2952 18.8273L33.1738 16.706L17.1405 32.7393L19.2618 34.8606Z" fill="url(#paint1_linear_124_2178)"/>
<defs>
<linearGradient id="paint0_linear_124_2178" x1="26" y1="0" x2="26" y2="52" gradientUnits="userSpaceOnUse">
<stop stop-color="#B344E1"/>
<stop offset="1" stop-color="#00FF88"/>
</linearGradient>
<linearGradient id="paint1_linear_124_2178" x1="41.8698" y1="5.13016" x2="0.906429" y2="41.5888" gradientUnits="userSpaceOnUse">
<stop stop-color="#EF04FF"/>
<stop offset="1" stop-color="#00FF88"/>
</linearGradient>
</defs>
</svg>
