<svg xmlns="http://www.w3.org/2000/svg" width="108" height="108" viewBox="0 0 108 108"><defs><style>.a,.d{fill:none;}.a{stroke:#fff;stroke-width:5px;}.b{fill:#fff;fill-rule:evenodd;}.c{stroke:none;}</style></defs><g transform="translate(-859.5 -7853)"><g class="a" transform="translate(859.5 7853)"><circle class="c" cx="54" cy="54" r="54"/><circle class="d" cx="54" cy="54" r="51.5"/></g><path class="b" d="M40.451,45.653a3.708,3.708,0,0,0-1.178.212,3.327,3.327,0,0,1,1.405,1.964c.015.106.045.181.06.287a1.66,1.66,0,0,1,.03.272c.06,1.329-.347,1.5-.635,2.281a3.228,3.228,0,0,0,.212,2.976,1.805,1.805,0,0,0,.181.332c-.574-3.822,2.614-4.4,3.2-5.59a2.786,2.786,0,0,0-1.5-2.221,3.338,3.338,0,0,0-1.783-.514Zm4.8.861a1.748,1.748,0,0,0-.03.438c-.015.121-.015.272-.03.393a3.281,3.281,0,0,1-.106.363,3.4,3.4,0,0,1-.121.363c-.06.121-.106.227-.166.347-.045.06-.076.121-.121.181l-.091.136c-.076.106-.151.212-.227.3a2.312,2.312,0,0,1-.272.272v.015c-.091.076-.181.166-.287.242-.317.242-.68.423-1.012.65a2.252,2.252,0,0,0-.3.227,2.209,2.209,0,0,0-.287.242,2.444,2.444,0,0,0-.272.287,2.252,2.252,0,0,0-.227.3c-.076.106-.151.212-.212.317-.06.121-.106.227-.166.347a3.164,3.164,0,0,0-.121.347c-.045.136-.076.257-.106.378-.015.06-.015.136-.03.2s-.015.121-.03.181c0,.121-.015.257-.015.378a1.64,1.64,0,0,0,.015.272,1.715,1.715,0,0,0,.045.378,3.1,3.1,0,0,0,.076.363c.045.121.076.242.121.363.03.076.076.151.106.212L37.913,53.66c-.589-.166-1.163-.317-1.753-.453l-.952-.227c-.906-.181-1.828-.317-2.75-.408-.03,0-.045-.015-.076-.015a27.012,27.012,0,0,0-2.7-.136c-.665,0-1.329.03-1.979.076-.922.06-1.843.181-2.765.332-.227.03-.453.076-.68.121-.468.091-.922.2-1.36.3l-.68.181c-.227.091-.438.2-.65.287l-.5.227c-.03.015-.06.015-.076.03-.151.076-.287.136-.423.212a.736.736,0,0,0-.106.045c-.166.076-.332.166-.468.242-.106.045-.212.106-.3.151a1.362,1.362,0,0,1-.136.076c-.136.076-.272.151-.393.227a3.8,3.8,0,0,0-.363.227c-.106.076-.212.136-.3.212-.015.015-.03.015-.045.03a3.49,3.49,0,0,0-.287.212l-.03.03-.227.181c-.03.015-.06.045-.091.06-.076.06-.151.136-.227.2-.015.03-.045.045-.06.06-.091.091-.181.166-.272.257-.015,0-.015.015-.03.03-.091.076-.181.166-.272.257-.015.015-.015.03-.03.03-.076.076-.151.151-.227.242-.03.03-.076.06-.106.091-.076.091-.166.181-.257.272-.015.03-.045.045-.06.076-.121.121-.227.242-.347.363l-.045.045a8.917,8.917,0,0,1-.77.74,8.588,8.588,0,0,1-.846.665c-.3.212-.589.393-.906.574a9.207,9.207,0,0,1-.952.453c-.317.136-.65.257-.982.363a16.907,16.907,0,0,1-1.843.438,3.215,3.215,0,0,0-.378.045c-.136.03-.257.06-.378.091l-.363.136a3.863,3.863,0,0,0-.363.166c-.106.076-.227.136-.332.212a2.465,2.465,0,0,0-.3.257,2.587,2.587,0,0,0-.3.272c-.091.106-.181.2-.257.3-.076.121-.166.227-.227.347a2.662,2.662,0,0,0-.212.347c-.06.136-.121.257-.166.393-.045.121-.091.257-.136.393a3.094,3.094,0,0,0-.076.363c0,.015-.015.03-.015.045-.03.136-.03.317-.045.408a2.044,2.044,0,0,0-.03.3.86.86,0,0,0,.015.2,1.6,1.6,0,0,0,.06.287,2.019,2.019,0,0,0,.106.272v.015a2.628,2.628,0,0,0,.166.272,3.07,3.07,0,0,0,.2.272c.076.076.166.166.257.242a2.209,2.209,0,0,0,.287.242,3.516,3.516,0,0,0,.922.665c.076.045.151.076.242.121.015,0,.03.015.045.015a.136.136,0,0,0,.015.076,3.1,3.1,0,0,0,.076.363,2.036,2.036,0,0,0,.121.363c.045.091.076.181.121.272a.33.33,0,0,0,.045.076c.06.121.121.227.181.332l.227.317c.076.091.166.2.257.287s.181.166.287.257a.053.053,0,0,0,.03.015,3.315,3.315,0,0,0,.272.212,2.4,2.4,0,0,0,.332.2,2.457,2.457,0,0,0,.347.166,1.778,1.778,0,0,0,.3.106c.015.015.03.015.06.03.06.015.136.03.2.045a6.01,6.01,0,0,0,.06,1.858c.136.3.8-.619,1.465-1.677a9.219,9.219,0,0,0,0,2.629c.166.378,1.073-.8,1.858-2.1A17.46,17.46,0,0,1,36.07,86.912,2.959,2.959,0,0,0,32.943,84.6a7.88,7.88,0,0,1-2.463,3.445,9.687,9.687,0,0,0-.151-3.022,9.771,9.771,0,0,1-1.873,3.807A4.22,4.22,0,0,1,24.83,87.2c-.06-.045-.076-.136-.121-.2a2.723,2.723,0,0,1-.121-.317,1.254,1.254,0,0,1-.091-.317,2.335,2.335,0,0,1-.015-.332v-.227a2.419,2.419,0,0,1,.076-.317,2.6,2.6,0,0,1,.106-.317,3.4,3.4,0,0,1,.181-.317c.257-.725.257-1.314-.212-1.662a1.721,1.721,0,0,0-.287-.151c-.06-.015-.136-.045-.2-.06-.045-.015-.076-.03-.121-.045a2.415,2.415,0,0,0-.317-.076,1.151,1.151,0,0,0-.317-.045,2.464,2.464,0,0,0-.332-.03c-.076,0-.151.015-.227.015a1.18,1.18,0,0,0-.332.045,2.346,2.346,0,0,0-.317.06,2.6,2.6,0,0,0-.317.106c-.106.045-.2.091-.3.136-.091.045-.181.106-.287.151-3.52,2.3-1.42,7.675.982,9.231a7.543,7.543,0,0,0-2.085.559l-.03.03a14.235,14.235,0,0,0,2.04,1.012c.967.317,1.994.6,2.447.725v.015a14.616,14.616,0,0,0,3.807.272A14.37,14.37,0,0,0,41.615,82.878c.03.136.06.257.091.393.045.272.106.559.136.846v.015c.03.136.045.272.06.393v.06a3.708,3.708,0,0,1,.03.393c.015.166.03.332.03.5v.242c0,.076.015.166.015.242,0,.091-.015.181-.015.272v.212c0,.106-.015.2-.015.3a.928.928,0,0,1-.015.2c0,.106-.015.212-.015.332a.417.417,0,0,0-.015.136c-.015.121-.03.227-.045.347a.418.418,0,0,1-.015.136c-.015.151-.045.287-.06.438v.03c-.03.136-.06.287-.091.423v.045l-.091.408c0,.015-.015.045-.015.06a4.056,4.056,0,0,1-.106.408v.045c-.045.151-.091.287-.121.423a.047.047,0,0,0-.015.03l-.136.453c-.06.151-.106.287-.166.438s-.106.3-.166.438c-.06.151-.121.287-.181.438h-.015c-.06.136-.121.287-.2.423a.735.735,0,0,1-.045.106c-.015.015-.015.03-.03.045a14.3,14.3,0,0,1-4.245,5.076c-.121.076-.242.166-.363.257-.03.03-.076.045-.106.076-.106.076-.212.151-.332.227l.045.091h.015l.635-.091h.015c.393-.06.786-.136,1.178-.212a2.637,2.637,0,0,0,.332-.076c.076-.015.136-.03.212-.045.106-.015.212-.045.317-.06.091-.03.181-.045.272-.076a28.631,28.631,0,0,0,4.381-1.45,24.2,24.2,0,0,1-9.382,7.66,24.858,24.858,0,0,0,5.152-.891A24.138,24.138,0,0,0,52.809,91.625a24.115,24.115,0,0,1-4.064,9.714,23.742,23.742,0,0,0,10.394-16.2,24.057,24.057,0,0,1,.438,7.282c10.908-15.213.906-30.986-3.278-35.141-.015-.03-.03-.045-.03-.076-.015.015-.015.015-.015.03,0-.015,0-.015-.015-.03,0,.181-.015.363-.03.544-.045.347-.091.68-.151,1.012-.076.332-.166.665-.257,1-.106.317-.227.65-.363.967-.136.3-.287.619-.453.922-.166.287-.347.589-.544.861-.2.287-.408.559-.619.816-.227.272-.468.514-.71.755-.151.136-.287.257-.438.378l-.347.3a8.432,8.432,0,0,1-.846.589c-.287.181-.589.363-.891.514-.317.151-.635.287-.952.423-.317.121-.65.227-.982.317s-.68.166-1.012.227c-.347.06-.695.091-1.027.121-.242.015-.483.03-.725.03-.347,0-.695-.03-1.027-.06a10.167,10.167,0,0,1-2.04-.408h-.015c.332-.03.665-.06,1-.121.347-.06.68-.136,1.012-.227s.665-.2.982-.317a9.074,9.074,0,0,0,.952-.423c.317-.151.6-.317.906-.5.287-.2.574-.393.846-.6a12.335,12.335,0,0,0,1.481-1.42q.34-.408.635-.816c.03-.045.06-.106.091-.151.151-.242.3-.483.438-.725.166-.3.317-.6.453-.922s.257-.635.363-.967c.106-.317.181-.65.257-.982.06-.347.121-.68.151-1.012.03-.347.06-.695.06-1.027,0-.242-.015-.483-.03-.725-.03-.347-.076-.68-.121-1.012-.06-.347-.136-.68-.227-1.012-.106-.317-.212-.65-.332-.967s-.272-.635-.423-.937c-.166-.3-.332-.6-.514-.891-.2-.287-.393-.559-.6-.831-.227-.257-.453-.514-.695-.77-.121-.121-.257-.257-.393-.378-.68-.529-1.39-1.027-2.1-1.481a2.814,2.814,0,0,0-.3-.151,5.887,5.887,0,0,0-1.435-.635Z" transform="translate(877.994 7831.348)"/></g></svg>