<svg xmlns="http://www.w3.org/2000/svg" width="108" height="108" viewBox="0 0 108 108">
  <g id="Group_2355" data-name="Group 2355" transform="translate(21863.5 10756)">
    <g id="Group_2351" data-name="Group 2351" transform="translate(1108 179)">
      <path id="Path_10708" data-name="Path 10708" d="M-22759.445-10658.918l-.141,26.574-15.4-8.662Z" transform="translate(-157.84 -263)" fill="#fff" opacity="0.62"/>
      <path id="Path_10709" data-name="Path 10709" d="M-22788.809-10759.006l31,17.389.23,27.646-14.3-8.506-16.926-9.842Z" transform="translate(-159.707 -127.009)" fill="#fff" opacity="0.61"/>
      <path id="Path_10710" data-name="Path 10710" d="M-22620.344-10632.4l15.348-8.96-15.187-17.508Z" transform="translate(-297.015 -263.042)" fill="#fff" opacity="0.8"/>
      <path id="Path_10711" data-name="Path 10711" d="M-22604.807-10456.835l15.854-9.089-15.852-18.325-15.328,9.024Z" transform="translate(-297.205 -420.196)" fill="#fff" opacity="0.39"/>
      <path id="Path_10712" data-name="Path 10712" d="M-22621.268-10125.841l15.814,18.515-15.7,9.078Z" transform="translate(-296.184 -742.752)" fill="#fff" opacity="0.8"/>
      <path id="Path_10713" data-name="Path 10713" d="M-22620.086-10202.025l15.32-8.506,16.023,17.684-15.539,9.224Z" transform="translate(-297.248 -666.533)" fill="#fff" opacity="0.39"/>
      <path id="Path_10714" data-name="Path 10714" d="M-22451.02-10301.149l15.871,18.181-15.76,8.631-16.025-17.659Z" transform="translate(-435.079 -584.98)" fill="#fff" opacity="0.8"/>
      <path id="Path_10715" data-name="Path 10715" d="M-23085.934-10281.2l15.3-17.848v26.555Z" transform="translate(122 -586.87)" fill="#fff"/>
      <path id="Path_10716" data-name="Path 10716" d="M-22916.328-10478.43v26.361l-15.609-8.61Z" transform="translate(-16.591 -425.434)" fill="#fff" opacity="0.15"/>
      <path id="Path_10717" data-name="Path 10717" d="M-22620.758-10393.1l-.008,26.718,15.324-8.455Z" transform="translate(-296.635 -502.227)" fill="#fff" opacity="0.8"/>
      <path id="Path_10718" data-name="Path 10718" d="M-22775.838-10478.886l-.061,26.5,15.441,8.707v-26.6Z" transform="translate(-157.021 -425.023)" fill="#fff"/>
    </g>
    <g id="Group_2352" data-name="Group 2352" transform="translate(-22424.5 -15214)">
      <g id="Ellipse_140" data-name="Ellipse 140" transform="translate(561 4458)" fill="none" stroke="#fff" stroke-width="5">
        <circle cx="54" cy="54" r="54" stroke="none"/>
        <circle cx="54" cy="54" r="51.5" fill="none"/>
      </g>
    </g>
  </g>
</svg>
