<svg width="352" height="43" viewBox="0 0 352 43" fill="none" xmlns="http://www.w3.org/2000/svg">
<path d="M3.111 6.998V19H1.173V6.998H3.111ZM10.6922 9.48C11.7802 9.48 12.6529 9.83133 13.3102 10.534C13.9675 11.2367 14.2962 12.2397 14.2962 13.543V19H12.3582V13.747C12.3582 12.9083 12.1429 12.2623 11.7122 11.809C11.2815 11.3443 10.6922 11.112 9.9442 11.112C9.17354 11.112 8.55587 11.3613 8.0912 11.86C7.62654 12.3473 7.3942 13.067 7.3942 14.019V19H5.4562V9.633H7.3942V11.69C7.64354 10.9873 8.06287 10.4433 8.6522 10.058C9.24154 9.67267 9.92154 9.48 10.6922 9.48ZM20.3196 9.514C21.1696 9.514 21.895 9.72367 22.4956 10.143C23.0963 10.5623 23.5213 11.1177 23.7706 11.809V9.633H25.7086V19H23.7706V16.824C23.5213 17.5153 23.0963 18.0707 22.4956 18.49C21.895 18.9093 21.1696 19.119 20.3196 19.119C19.5036 19.119 18.7726 18.9263 18.1266 18.541C17.492 18.1557 16.9933 17.6003 16.6306 16.875C16.268 16.1497 16.0866 15.294 16.0866 14.308C16.0866 13.3333 16.268 12.4833 16.6306 11.758C16.9933 11.0327 17.492 10.4773 18.1266 10.092C18.7726 9.70667 19.5036 9.514 20.3196 9.514ZM20.9146 11.214C20.0533 11.214 19.362 11.4917 18.8406 12.047C18.3306 12.591 18.0756 13.3447 18.0756 14.308C18.0756 15.2713 18.3306 16.0307 18.8406 16.586C19.362 17.13 20.0533 17.402 20.9146 17.402C21.4586 17.402 21.946 17.2773 22.3766 17.028C22.8073 16.7673 23.1473 16.4047 23.3966 15.94C23.646 15.4753 23.7706 14.9313 23.7706 14.308C23.7706 13.696 23.646 13.1577 23.3966 12.693C23.1473 12.217 22.8073 11.8543 22.3766 11.605C21.946 11.3443 21.4586 11.214 20.9146 11.214ZM32.1993 9.514C33.412 9.514 34.415 9.837 35.2083 10.483C36.0017 11.1177 36.4947 11.9847 36.6873 13.084H34.6303C34.517 12.4947 34.2393 12.0357 33.7973 11.707C33.3667 11.367 32.8227 11.197 32.1653 11.197C31.4173 11.197 30.794 11.4633 30.2953 11.996C29.7967 12.5173 29.5473 13.288 29.5473 14.308C29.5473 15.328 29.7967 16.1043 30.2953 16.637C30.794 17.1697 31.4173 17.436 32.1653 17.436C32.8227 17.436 33.3667 17.266 33.7973 16.926C34.2393 16.586 34.517 16.1213 34.6303 15.532H36.6873C36.4947 16.6313 36.0017 17.504 35.2083 18.15C34.415 18.796 33.412 19.119 32.1993 19.119C31.2927 19.119 30.488 18.9263 29.7853 18.541C29.094 18.1557 28.55 17.6003 28.1533 16.875C27.7567 16.1497 27.5583 15.294 27.5583 14.308C27.5583 13.3333 27.7567 12.4833 28.1533 11.758C28.55 11.0327 29.094 10.4773 29.7853 10.092C30.488 9.70667 31.2927 9.514 32.1993 9.514ZM43.2687 17.317V19H42.0787C41.0814 19 40.3221 18.762 39.8007 18.286C39.2907 17.7987 39.0357 16.994 39.0357 15.872V11.282H37.6927V9.633H39.0357V7.304H40.9907V9.633H43.2517V11.282H40.9907V15.906C40.9907 16.4387 41.0871 16.807 41.2797 17.011C41.4837 17.215 41.8351 17.317 42.3337 17.317H43.2687ZM44.8121 6.913C44.8121 6.58433 44.9255 6.31233 45.1521 6.097C45.3788 5.88167 45.6791 5.774 46.0531 5.774C46.4271 5.774 46.7275 5.88167 46.9541 6.097C47.1921 6.31233 47.3111 6.58433 47.3111 6.913C47.3111 7.24167 47.1921 7.508 46.9541 7.712C46.7275 7.916 46.4271 8.018 46.0531 8.018C45.6791 8.018 45.3788 7.916 45.1521 7.712C44.9255 7.508 44.8121 7.24167 44.8121 6.913ZM47.0221 9.633V19H45.0841V9.633H47.0221ZM53.2093 16.994L55.8613 9.633H57.9353L54.3653 19H52.0193L48.4493 9.633H50.5233L53.2093 16.994ZM68.0655 13.866C68.0655 14.1833 68.0428 14.461 67.9975 14.699H60.7895C60.8235 15.6623 61.0898 16.3763 61.5885 16.841C62.0871 17.3057 62.7048 17.538 63.4415 17.538C64.0875 17.538 64.6315 17.3737 65.0735 17.045C65.5268 16.7163 65.8045 16.28 65.9065 15.736H67.9805C67.8558 16.3933 67.5951 16.977 67.1985 17.487C66.8018 17.997 66.2861 18.3993 65.6515 18.694C65.0168 18.9773 64.3085 19.119 63.5265 19.119C62.6198 19.119 61.8151 18.9263 61.1125 18.541C60.4211 18.1557 59.8771 17.6003 59.4805 16.875C59.0838 16.1497 58.8855 15.294 58.8855 14.308C58.8855 13.3333 59.0838 12.4833 59.4805 11.758C59.8771 11.0327 60.4211 10.4773 61.1125 10.092C61.8151 9.70667 62.6198 9.514 63.5265 9.514C64.4445 9.514 65.2435 9.70667 65.9235 10.092C66.6148 10.466 67.1418 10.9873 67.5045 11.656C67.8785 12.3133 68.0655 13.05 68.0655 13.866ZM66.1105 13.815C66.1331 13.203 66.0255 12.693 65.7875 12.285C65.5608 11.8657 65.2435 11.5597 64.8355 11.367C64.4388 11.163 64.0025 11.061 63.5265 11.061C62.7671 11.061 62.1325 11.2933 61.6225 11.758C61.1125 12.2227 60.8348 12.9083 60.7895 13.815H66.1105ZM81.639 6.998V8.562H78.29V19H76.335V8.562H73.003V6.998H81.639ZM86.8421 9.514C87.6921 9.514 88.4174 9.72367 89.0181 10.143C89.6188 10.5623 90.0438 11.1177 90.2931 11.809V9.633H92.2311V19H90.2931V16.824C90.0438 17.5153 89.6188 18.0707 89.0181 18.49C88.4174 18.9093 87.6921 19.119 86.8421 19.119C86.0261 19.119 85.2951 18.9263 84.6491 18.541C84.0144 18.1557 83.5158 17.6003 83.1531 16.875C82.7904 16.1497 82.6091 15.294 82.6091 14.308C82.6091 13.3333 82.7904 12.4833 83.1531 11.758C83.5158 11.0327 84.0144 10.4773 84.6491 10.092C85.2951 9.70667 86.0261 9.514 86.8421 9.514ZM87.4371 11.214C86.5758 11.214 85.8844 11.4917 85.3631 12.047C84.8531 12.591 84.5981 13.3447 84.5981 14.308C84.5981 15.2713 84.8531 16.0307 85.3631 16.586C85.8844 17.13 86.5758 17.402 87.4371 17.402C87.9811 17.402 88.4684 17.2773 88.8991 17.028C89.3298 16.7673 89.6698 16.4047 89.9191 15.94C90.1684 15.4753 90.2931 14.9313 90.2931 14.308C90.2931 13.696 90.1684 13.1577 89.9191 12.693C89.6698 12.217 89.3298 11.8543 88.8991 11.605C88.4684 11.3443 87.9811 11.214 87.4371 11.214ZM99.9288 9.514C100.745 9.514 101.47 9.70667 102.105 10.092C102.751 10.4773 103.255 11.0327 103.618 11.758C103.98 12.4833 104.162 13.3333 104.162 14.308C104.162 15.294 103.98 16.1497 103.618 16.875C103.255 17.6003 102.751 18.1557 102.105 18.541C101.47 18.9263 100.745 19.119 99.9288 19.119C99.0788 19.119 98.3535 18.9093 97.7528 18.49C97.1521 18.0707 96.7328 17.5153 96.4948 16.824V19H94.5568V6.42H96.4948V11.809C96.7328 11.1177 97.1521 10.5623 97.7528 10.143C98.3535 9.72367 99.0788 9.514 99.9288 9.514ZM99.3338 11.214C98.7898 11.214 98.3025 11.3443 97.8718 11.605C97.4411 11.8543 97.1011 12.217 96.8518 12.693C96.6025 13.1577 96.4778 13.696 96.4778 14.308C96.4778 14.9313 96.6025 15.4753 96.8518 15.94C97.1011 16.4047 97.4411 16.7673 97.8718 17.028C98.3025 17.2773 98.7898 17.402 99.3338 17.402C100.195 17.402 100.886 17.13 101.408 16.586C101.929 16.0307 102.19 15.2713 102.19 14.308C102.19 13.356 101.929 12.6023 101.408 12.047C100.886 11.4917 100.195 11.214 99.3338 11.214Z" fill="white" fill-opacity="0.2"/>
<path d="M236.33 16.399H231.264L230.346 19H228.272L232.692 7.185H234.919L239.322 19H237.248L236.33 16.399ZM235.786 14.903L233.797 9.293L231.808 14.903H235.786ZM244.926 9.514C246.139 9.514 247.142 9.837 247.935 10.483C248.728 11.1177 249.221 11.9847 249.414 13.084H247.357C247.244 12.4947 246.966 12.0357 246.524 11.707C246.093 11.367 245.549 11.197 244.892 11.197C244.144 11.197 243.521 11.4633 243.022 11.996C242.523 12.5173 242.274 13.288 242.274 14.308C242.274 15.328 242.523 16.1043 243.022 16.637C243.521 17.1697 244.144 17.436 244.892 17.436C245.549 17.436 246.093 17.266 246.524 16.926C246.966 16.586 247.244 16.1213 247.357 15.532H249.414C249.221 16.6313 248.728 17.504 247.935 18.15C247.142 18.796 246.139 19.119 244.926 19.119C244.019 19.119 243.215 18.9263 242.512 18.541C241.821 18.1557 241.277 17.6003 240.88 16.875C240.483 16.1497 240.285 15.294 240.285 14.308C240.285 13.3333 240.483 12.4833 240.88 11.758C241.277 11.0327 241.821 10.4773 242.512 10.092C243.215 9.70667 244.019 9.514 244.926 9.514ZM255.995 17.317V19H254.805C253.808 19 253.049 18.762 252.527 18.286C252.017 17.7987 251.762 16.994 251.762 15.872V11.282H250.419V9.633H251.762V7.304H253.717V9.633H255.978V11.282H253.717V15.906C253.717 16.4387 253.814 16.807 254.006 17.011C254.21 17.215 254.562 17.317 255.06 17.317H255.995ZM257.539 6.913C257.539 6.58433 257.652 6.31233 257.879 6.097C258.105 5.88167 258.406 5.774 258.78 5.774C259.154 5.774 259.454 5.88167 259.681 6.097C259.919 6.31233 260.038 6.58433 260.038 6.913C260.038 7.24167 259.919 7.508 259.681 7.712C259.454 7.916 259.154 8.018 258.78 8.018C258.406 8.018 258.105 7.916 257.879 7.712C257.652 7.508 257.539 7.24167 257.539 6.913ZM259.749 9.633V19H257.811V9.633H259.749ZM265.936 16.994L268.588 9.633H270.662L267.092 19H264.746L261.176 9.633H263.25L265.936 16.994ZM280.792 13.866C280.792 14.1833 280.769 14.461 280.724 14.699H273.516C273.55 15.6623 273.816 16.3763 274.315 16.841C274.814 17.3057 275.431 17.538 276.168 17.538C276.814 17.538 277.358 17.3737 277.8 17.045C278.253 16.7163 278.531 16.28 278.633 15.736H280.707C280.582 16.3933 280.322 16.977 279.925 17.487C279.528 17.997 279.013 18.3993 278.378 18.694C277.743 18.9773 277.035 19.119 276.253 19.119C275.346 19.119 274.542 18.9263 273.839 18.541C273.148 18.1557 272.604 17.6003 272.207 16.875C271.81 16.1497 271.612 15.294 271.612 14.308C271.612 13.3333 271.81 12.4833 272.207 11.758C272.604 11.0327 273.148 10.4773 273.839 10.092C274.542 9.70667 275.346 9.514 276.253 9.514C277.171 9.514 277.97 9.70667 278.65 10.092C279.341 10.466 279.868 10.9873 280.231 11.656C280.605 12.3133 280.792 13.05 280.792 13.866ZM278.837 13.815C278.86 13.203 278.752 12.693 278.514 12.285C278.287 11.8657 277.97 11.5597 277.562 11.367C277.165 11.163 276.729 11.061 276.253 11.061C275.494 11.061 274.859 11.2933 274.349 11.758C273.839 12.2227 273.561 12.9083 273.516 13.815H278.837ZM294.366 6.998V8.562H291.017V19H289.062V8.562H285.73V6.998H294.366ZM299.569 9.514C300.419 9.514 301.144 9.72367 301.745 10.143C302.345 10.5623 302.77 11.1177 303.02 11.809V9.633H304.958V19H303.02V16.824C302.77 17.5153 302.345 18.0707 301.745 18.49C301.144 18.9093 300.419 19.119 299.569 19.119C298.753 19.119 298.022 18.9263 297.376 18.541C296.741 18.1557 296.242 17.6003 295.88 16.875C295.517 16.1497 295.336 15.294 295.336 14.308C295.336 13.3333 295.517 12.4833 295.88 11.758C296.242 11.0327 296.741 10.4773 297.376 10.092C298.022 9.70667 298.753 9.514 299.569 9.514ZM300.164 11.214C299.302 11.214 298.611 11.4917 298.09 12.047C297.58 12.591 297.325 13.3447 297.325 14.308C297.325 15.2713 297.58 16.0307 298.09 16.586C298.611 17.13 299.302 17.402 300.164 17.402C300.708 17.402 301.195 17.2773 301.626 17.028C302.056 16.7673 302.396 16.4047 302.646 15.94C302.895 15.4753 303.02 14.9313 303.02 14.308C303.02 13.696 302.895 13.1577 302.646 12.693C302.396 12.217 302.056 11.8543 301.626 11.605C301.195 11.3443 300.708 11.214 300.164 11.214ZM312.655 9.514C313.471 9.514 314.197 9.70667 314.831 10.092C315.477 10.4773 315.982 11.0327 316.344 11.758C316.707 12.4833 316.888 13.3333 316.888 14.308C316.888 15.294 316.707 16.1497 316.344 16.875C315.982 17.6003 315.477 18.1557 314.831 18.541C314.197 18.9263 313.471 19.119 312.655 19.119C311.805 19.119 311.08 18.9093 310.479 18.49C309.879 18.0707 309.459 17.5153 309.221 16.824V19H307.283V6.42H309.221V11.809C309.459 11.1177 309.879 10.5623 310.479 10.143C311.08 9.72367 311.805 9.514 312.655 9.514ZM312.06 11.214C311.516 11.214 311.029 11.3443 310.598 11.605C310.168 11.8543 309.828 12.217 309.578 12.693C309.329 13.1577 309.204 13.696 309.204 14.308C309.204 14.9313 309.329 15.4753 309.578 15.94C309.828 16.4047 310.168 16.7673 310.598 17.028C311.029 17.2773 311.516 17.402 312.06 17.402C312.922 17.402 313.613 17.13 314.134 16.586C314.656 16.0307 314.916 15.2713 314.916 14.308C314.916 13.356 314.656 12.6023 314.134 12.047C313.613 11.4917 312.922 11.214 312.06 11.214Z" fill="white"/>
<g filter="url(#filter0_ddiiii_1386_2567)">
<rect x="4" y="37" width="345" height="3" fill="#ECEDF1"/>
</g>
<rect x="261" y="31" width="12" height="12" rx="6" fill="url(#paint0_radial_1386_2567)"/>
<defs>
<filter id="filter0_ddiiii_1386_2567" x="-1" y="32" width="355" height="13" filterUnits="userSpaceOnUse" color-interpolation-filters="sRGB">
<feFlood flood-opacity="0" result="BackgroundImageFix"/>
<feColorMatrix in="SourceAlpha" type="matrix" values="0 0 0 0 0 0 0 0 0 0 0 0 0 0 0 0 0 0 127 0" result="hardAlpha"/>
<feOffset dx="-1" dy="-1"/>
<feGaussianBlur stdDeviation="1"/>
<feColorMatrix type="matrix" values="0 0 0 0 0.831373 0 0 0 0 0.835294 0 0 0 0 0.85098 0 0 0 0.5 0"/>
<feBlend mode="normal" in2="BackgroundImageFix" result="effect1_dropShadow_1386_2567"/>
<feColorMatrix in="SourceAlpha" type="matrix" values="0 0 0 0 0 0 0 0 0 0 0 0 0 0 0 0 0 0 127 0" result="hardAlpha"/>
<feOffset dx="1" dy="1"/>
<feGaussianBlur stdDeviation="1"/>
<feColorMatrix type="matrix" values="0 0 0 0 1 0 0 0 0 1 0 0 0 0 1 0 0 0 0.3 0"/>
<feBlend mode="normal" in2="effect1_dropShadow_1386_2567" result="effect2_dropShadow_1386_2567"/>
<feBlend mode="normal" in="SourceGraphic" in2="effect2_dropShadow_1386_2567" result="shape"/>
<feColorMatrix in="SourceAlpha" type="matrix" values="0 0 0 0 0 0 0 0 0 0 0 0 0 0 0 0 0 0 127 0" result="hardAlpha"/>
<feOffset dx="5" dy="5"/>
<feGaussianBlur stdDeviation="6.5"/>
<feComposite in2="hardAlpha" operator="arithmetic" k2="-1" k3="1"/>
<feColorMatrix type="matrix" values="0 0 0 0 0.831373 0 0 0 0 0.835294 0 0 0 0 0.85098 0 0 0 0.9 0"/>
<feBlend mode="normal" in2="shape" result="effect3_innerShadow_1386_2567"/>
<feColorMatrix in="SourceAlpha" type="matrix" values="0 0 0 0 0 0 0 0 0 0 0 0 0 0 0 0 0 0 127 0" result="hardAlpha"/>
<feOffset dx="-5" dy="-5"/>
<feGaussianBlur stdDeviation="5"/>
<feComposite in2="hardAlpha" operator="arithmetic" k2="-1" k3="1"/>
<feColorMatrix type="matrix" values="0 0 0 0 1 0 0 0 0 1 0 0 0 0 1 0 0 0 0.9 0"/>
<feBlend mode="normal" in2="effect3_innerShadow_1386_2567" result="effect4_innerShadow_1386_2567"/>
<feColorMatrix in="SourceAlpha" type="matrix" values="0 0 0 0 0 0 0 0 0 0 0 0 0 0 0 0 0 0 127 0" result="hardAlpha"/>
<feOffset dx="5" dy="-5"/>
<feGaussianBlur stdDeviation="5"/>
<feComposite in2="hardAlpha" operator="arithmetic" k2="-1" k3="1"/>
<feColorMatrix type="matrix" values="0 0 0 0 0.831373 0 0 0 0 0.835294 0 0 0 0 0.85098 0 0 0 0.2 0"/>
<feBlend mode="normal" in2="effect4_innerShadow_1386_2567" result="effect5_innerShadow_1386_2567"/>
<feColorMatrix in="SourceAlpha" type="matrix" values="0 0 0 0 0 0 0 0 0 0 0 0 0 0 0 0 0 0 127 0" result="hardAlpha"/>
<feOffset dx="-5" dy="5"/>
<feGaussianBlur stdDeviation="5"/>
<feComposite in2="hardAlpha" operator="arithmetic" k2="-1" k3="1"/>
<feColorMatrix type="matrix" values="0 0 0 0 0.831373 0 0 0 0 0.835294 0 0 0 0 0.85098 0 0 0 0.2 0"/>
<feBlend mode="normal" in2="effect5_innerShadow_1386_2567" result="effect6_innerShadow_1386_2567"/>
</filter>
<radialGradient id="paint0_radial_1386_2567" cx="0" cy="0" r="1" gradientUnits="userSpaceOnUse" gradientTransform="translate(261 34.587) rotate(90) scale(6.13043 1058.94)">
<stop stop-color="#84FAB0"/>
<stop offset="1" stop-color="#8FD3F4"/>
</radialGradient>
</defs>
</svg>
