<svg width="323" height="62" viewBox="0 0 323 62" fill="none" xmlns="http://www.w3.org/2000/svg">
<rect x="4" y="1" width="318" height="60" rx="21" fill="#EBECF0"/>
<rect x="4" y="1" width="318" height="60" rx="21" fill="url(#paint0_linear_1386_2568)" fill-opacity="0.4" style="mix-blend-mode:soft-light"/>
<rect x="4" y="1" width="318" height="60" rx="21" stroke="#84FAB0" stroke-opacity="0.47" stroke-width="2"/>
<path d="M39.968 26.54V35H38.876V26.54H39.968ZM45.1917 28.304C45.9597 28.304 46.5797 28.552 47.0517 29.048C47.5237 29.536 47.7597 30.244 47.7597 31.172V35H46.6677V31.268C46.6677 30.612 46.4997 30.108 46.1637 29.756C45.8277 29.404 45.3717 29.228 44.7957 29.228C44.1957 29.228 43.7157 29.424 43.3557 29.816C42.9957 30.2 42.8157 30.764 42.8157 31.508V35H41.7237V28.412H42.8157V29.972C42.9837 29.436 43.2797 29.024 43.7037 28.736C44.1357 28.448 44.6317 28.304 45.1917 28.304ZM53.0706 28.328C53.6546 28.328 54.1746 28.464 54.6306 28.736C55.0866 29.008 55.4426 29.4 55.6986 29.912C55.9626 30.424 56.0946 31.024 56.0946 31.712C56.0946 32.4 55.9626 33 55.6986 33.512C55.4426 34.016 55.0866 34.404 54.6306 34.676C54.1746 34.948 53.6546 35.084 53.0706 35.084C52.4306 35.084 51.8866 34.924 51.4386 34.604C50.9986 34.276 50.6946 33.848 50.5266 33.32V38.12H49.4346V28.412H50.5266V30.092C50.6946 29.564 50.9986 29.14 51.4386 28.82C51.8866 28.492 52.4306 28.328 53.0706 28.328ZM52.7586 29.3C52.3346 29.3 51.9506 29.4 51.6066 29.6C51.2626 29.792 50.9946 30.072 50.8026 30.44C50.6106 30.808 50.5146 31.232 50.5146 31.712C50.5146 32.192 50.6106 32.616 50.8026 32.984C50.9946 33.344 51.2626 33.624 51.6066 33.824C51.9506 34.024 52.3346 34.124 52.7586 34.124C53.4386 34.124 53.9786 33.912 54.3786 33.488C54.7866 33.056 54.9906 32.464 54.9906 31.712C54.9906 30.96 54.7866 30.372 54.3786 29.948C53.9786 29.516 53.4386 29.3 52.7586 29.3ZM63.3765 28.412V35H62.2845V33.452C62.1165 33.988 61.8165 34.4 61.3845 34.688C60.9605 34.968 60.4645 35.108 59.8965 35.108C59.1365 35.108 58.5205 34.864 58.0485 34.376C57.5765 33.88 57.3405 33.172 57.3405 32.252V28.412H58.4325V32.144C58.4325 32.8 58.6005 33.308 58.9365 33.668C59.2725 34.02 59.7285 34.196 60.3045 34.196C60.9045 34.196 61.3845 34.004 61.7445 33.62C62.1045 33.228 62.2845 32.66 62.2845 31.916V28.412H63.3765ZM68.27 34.04V35H67.454C66.782 35 66.278 34.84 65.942 34.52C65.614 34.2 65.45 33.664 65.45 32.912V29.36H64.466V28.412H65.45V26.768H66.554V28.412H68.258V29.36H66.554V32.936C66.554 33.36 66.63 33.652 66.782 33.812C66.942 33.964 67.214 34.04 67.598 34.04H68.27ZM76.6954 30.62C77.2154 30.732 77.6354 30.98 77.9554 31.364C78.2834 31.748 78.4474 32.2 78.4474 32.72C78.4474 33.408 78.2114 33.96 77.7394 34.376C77.2754 34.792 76.5994 35 75.7114 35H72.5674V26.54H75.6634C76.5114 26.54 77.1554 26.728 77.5954 27.104C78.0354 27.48 78.2554 27.996 78.2554 28.652C78.2554 29.196 78.1074 29.636 77.8114 29.972C77.5234 30.308 77.1514 30.524 76.6954 30.62ZM73.6594 30.248H75.4834C76.0194 30.248 76.4274 30.124 76.7074 29.876C76.9954 29.628 77.1394 29.28 77.1394 28.832C77.1394 28.4 76.9994 28.06 76.7194 27.812C76.4394 27.564 76.0114 27.44 75.4354 27.44H73.6594V30.248ZM75.5074 34.088C76.0834 34.088 76.5274 33.956 76.8394 33.692C77.1594 33.428 77.3194 33.056 77.3194 32.576C77.3194 32.104 77.1554 31.736 76.8274 31.472C76.5074 31.2 76.0594 31.064 75.4834 31.064H73.6594V34.088H75.5074ZM82.7976 28.328C83.4296 28.328 83.9936 28.464 84.4896 28.736C84.9936 29.008 85.3856 29.4 85.6656 29.912C85.9536 30.424 86.0976 31.024 86.0976 31.712C86.0976 32.4 85.9536 33 85.6656 33.512C85.3856 34.016 84.9936 34.404 84.4896 34.676C83.9936 34.948 83.4296 35.084 82.7976 35.084C82.1656 35.084 81.5976 34.948 81.0936 34.676C80.5976 34.404 80.2056 34.016 79.9176 33.512C79.6296 33 79.4856 32.4 79.4856 31.712C79.4856 31.024 79.6296 30.424 79.9176 29.912C80.2056 29.4 80.5976 29.008 81.0936 28.736C81.5976 28.464 82.1656 28.328 82.7976 28.328ZM82.7976 29.288C82.4056 29.288 82.0416 29.376 81.7056 29.552C81.3776 29.728 81.1096 30 80.9016 30.368C80.7016 30.728 80.6016 31.176 80.6016 31.712C80.6016 32.24 80.7016 32.688 80.9016 33.056C81.1096 33.416 81.3776 33.684 81.7056 33.86C82.0416 34.036 82.4056 34.124 82.7976 34.124C83.1896 34.124 83.5496 34.036 83.8776 33.86C84.2136 33.684 84.4816 33.416 84.6816 33.056C84.8896 32.688 84.9936 32.24 84.9936 31.712C84.9936 31.176 84.8896 30.728 84.6816 30.368C84.4816 30 84.2136 29.728 83.8776 29.552C83.5496 29.376 83.1896 29.288 82.7976 29.288ZM91.3125 35L89.5965 32.48L88.0485 35H86.8365L88.9965 31.604L86.8245 28.412H88.0725L89.7405 30.86L91.2645 28.412H92.4765L90.3285 31.724L92.5605 35H91.3125Z" fill="#456078"/>
<defs>
<linearGradient id="paint0_linear_1386_2568" x1="496.743" y1="31" x2="476.641" y2="-86.0842" gradientUnits="userSpaceOnUse">
<stop/>
<stop offset="1" stop-color="white"/>
</linearGradient>
</defs>
</svg>
