<svg width="293" height="60" viewBox="0 0 293 60" fill="none" xmlns="http://www.w3.org/2000/svg">
<rect opacity="0.95" x="93" width="200" height="60" rx="13" fill="url(#paint0_linear_1527_2826)"/>
<path d="M254.292 29.5H274.708" stroke="#F2F2F2" stroke-width="2" stroke-linecap="round" stroke-linejoin="round"/>
<path d="M264.5 19.291L274.708 29.4993L264.5 39.7077" stroke="#F2F2F2" stroke-width="2" stroke-linecap="round" stroke-linejoin="round"/>
<path d="M128.866 29.448C129.634 29.604 130.252 29.97 130.72 30.546C131.2 31.122 131.44 31.794 131.44 32.562C131.44 33.618 131.086 34.458 130.378 35.082C129.67 35.694 128.644 36 127.3 36H122.242V23.292H127.21C128.482 23.292 129.454 23.58 130.126 24.156C130.81 24.72 131.152 25.5 131.152 26.496C131.152 27.3 130.942 27.954 130.522 28.458C130.102 28.95 129.55 29.28 128.866 29.448ZM124.294 28.764H126.832C127.552 28.764 128.098 28.596 128.47 28.26C128.854 27.924 129.046 27.456 129.046 26.856C129.046 26.268 128.854 25.806 128.47 25.47C128.098 25.134 127.528 24.966 126.76 24.966H124.294V28.764ZM126.886 34.308C127.666 34.308 128.266 34.134 128.686 33.786C129.118 33.426 129.334 32.928 129.334 32.292C129.334 31.656 129.118 31.158 128.686 30.798C128.254 30.438 127.648 30.258 126.868 30.258H124.294V34.308H126.886ZM142.513 26.082V36H140.443V33.84C140.191 34.572 139.753 35.142 139.129 35.55C138.505 35.946 137.779 36.144 136.951 36.144C135.799 36.144 134.875 35.772 134.179 35.028C133.483 34.284 133.135 33.222 133.135 31.842V26.082H135.187V31.626C135.187 32.526 135.415 33.222 135.871 33.714C136.327 34.194 136.951 34.434 137.743 34.434C138.559 34.434 139.213 34.17 139.705 33.642C140.197 33.114 140.443 32.346 140.443 31.338V26.082H142.513ZM149.957 34.218V36H148.697C147.641 36 146.837 35.748 146.285 35.244C145.745 34.728 145.475 33.876 145.475 32.688V27.828H144.053V26.082H145.475V23.616H147.545V26.082H149.939V27.828H147.545V32.724C147.545 33.288 147.647 33.678 147.851 33.894C148.067 34.11 148.439 34.218 148.967 34.218H149.957ZM156.865 34.218V36H155.605C154.549 36 153.745 35.748 153.193 35.244C152.653 34.728 152.383 33.876 152.383 32.688V27.828H150.961V26.082H152.383V23.616H154.453V26.082H156.847V27.828H154.453V32.724C154.453 33.288 154.555 33.678 154.759 33.894C154.975 34.11 155.347 34.218 155.875 34.218H156.865ZM163.323 25.956C164.283 25.956 165.147 26.16 165.915 26.568C166.683 26.976 167.283 27.564 167.715 28.332C168.147 29.1 168.363 30 168.363 31.032C168.363 32.076 168.147 32.982 167.715 33.75C167.283 34.518 166.683 35.106 165.915 35.514C165.147 35.922 164.283 36.126 163.323 36.126C162.363 36.126 161.499 35.922 160.731 35.514C159.975 35.106 159.375 34.518 158.931 33.75C158.499 32.97 158.283 32.064 158.283 31.032C158.283 30 158.499 29.1 158.931 28.332C159.375 27.564 159.975 26.976 160.731 26.568C161.499 26.16 162.363 25.956 163.323 25.956ZM163.323 27.738C162.795 27.738 162.309 27.858 161.865 28.098C161.421 28.338 161.061 28.71 160.785 29.214C160.521 29.706 160.389 30.312 160.389 31.032C160.389 31.764 160.521 32.376 160.785 32.868C161.061 33.36 161.421 33.726 161.865 33.966C162.309 34.206 162.795 34.326 163.323 34.326C163.851 34.326 164.337 34.206 164.781 33.966C165.225 33.726 165.579 33.36 165.843 32.868C166.119 32.376 166.257 31.764 166.257 31.032C166.257 30.312 166.119 29.706 165.843 29.214C165.579 28.71 165.225 28.338 164.781 28.098C164.337 27.858 163.851 27.738 163.323 27.738ZM175.88 25.92C177.032 25.92 177.956 26.292 178.652 27.036C179.348 27.78 179.696 28.842 179.696 30.222V36H177.644V30.438C177.644 29.55 177.416 28.866 176.96 28.386C176.504 27.894 175.88 27.648 175.088 27.648C174.272 27.648 173.618 27.912 173.126 28.44C172.634 28.956 172.388 29.718 172.388 30.726V36H170.336V26.082H172.388V28.26C172.652 27.516 173.096 26.94 173.72 26.532C174.344 26.124 175.064 25.92 175.88 25.92ZM194.486 23.292V24.948H190.94V36H188.87V24.948H185.342V23.292H194.486ZM205.233 30.564C205.233 30.9 205.209 31.194 205.161 31.446H197.529C197.565 32.466 197.847 33.222 198.375 33.714C198.903 34.206 199.557 34.452 200.337 34.452C201.021 34.452 201.597 34.278 202.065 33.93C202.545 33.582 202.839 33.12 202.947 32.544H205.143C205.011 33.24 204.735 33.858 204.315 34.398C203.895 34.938 203.349 35.364 202.677 35.676C202.005 35.976 201.255 36.126 200.427 36.126C199.467 36.126 198.615 35.922 197.871 35.514C197.139 35.106 196.563 34.518 196.143 33.75C195.723 32.982 195.513 32.076 195.513 31.032C195.513 30 195.723 29.1 196.143 28.332C196.563 27.564 197.139 26.976 197.871 26.568C198.615 26.16 199.467 25.956 200.427 25.956C201.399 25.956 202.245 26.16 202.965 26.568C203.697 26.964 204.255 27.516 204.639 28.224C205.035 28.92 205.233 29.7 205.233 30.564ZM203.163 30.51C203.187 29.862 203.073 29.322 202.821 28.89C202.581 28.446 202.245 28.122 201.813 27.918C201.393 27.702 200.931 27.594 200.427 27.594C199.623 27.594 198.951 27.84 198.411 28.332C197.871 28.824 197.577 29.55 197.529 30.51H203.163ZM213.083 36L210.653 32.49L208.529 36H206.243L209.519 30.852L206.207 26.082H208.529L210.905 29.502L213.011 26.082H215.279L212.003 31.086L215.405 36H213.083ZM221.816 34.218V36H220.556C219.5 36 218.696 35.748 218.144 35.244C217.604 34.728 217.334 33.876 217.334 32.688V27.828H215.912V26.082H217.334V23.616H219.404V26.082H221.798V27.828H219.404V32.724C219.404 33.288 219.506 33.678 219.71 33.894C219.926 34.11 220.298 34.218 220.826 34.218H221.816Z" fill="white"/>
<rect width="61" height="60" rx="13" fill="#F2F3F7"/>
<path d="M40.7084 29.5H20.2917" stroke="#456078" stroke-width="2" stroke-linecap="round" stroke-linejoin="round"/>
<path d="M30.5 19.291L20.2917 29.4993L30.5 39.7077" stroke="#456078" stroke-width="2" stroke-linecap="round" stroke-linejoin="round"/>
<defs>
<linearGradient id="paint0_linear_1527_2826" x1="93" y1="30" x2="293" y2="30" gradientUnits="userSpaceOnUse">
<stop stop-color="#007ADF"/>
<stop offset="1" stop-color="#00ECBC"/>
</linearGradient>
</defs>
</svg>
