<svg width="320" height="330" viewBox="0 0 320 330" fill="none" xmlns="http://www.w3.org/2000/svg">
<path d="M26.2967 296.327H15.7881V329.434H13.2093V296.327H2.70068V293.78H26.2967V296.327Z" fill="white"/>
<path d="M114.49 326.887V312.729H99.2056V310.181H114.49V296.327H98.0147V293.78H117.026V329.434H97.7729V326.887H114.49Z" fill="white"/>
<path d="M188.926 311.608C188.885 309.168 189.307 306.745 190.168 304.484C191.029 302.223 192.311 300.171 193.936 298.453C195.56 296.734 197.495 295.385 199.622 294.485C201.75 293.586 204.026 293.156 206.313 293.22C209.198 293.169 212.043 293.933 214.56 295.437C217.076 296.94 219.175 299.128 220.64 301.777L218.394 303.152C217.184 300.885 215.422 299.007 213.296 297.716C211.169 296.426 208.756 295.77 206.31 295.817C204.351 295.794 202.408 296.186 200.593 296.969C198.778 297.752 197.126 298.911 195.733 300.38C194.341 301.848 193.236 303.597 192.481 305.524C191.727 307.451 191.338 309.519 191.338 311.607C191.338 313.695 191.727 315.763 192.481 317.69C193.236 319.617 194.341 321.365 195.733 322.834C197.126 324.302 198.778 325.462 200.593 326.245C202.408 327.028 204.351 327.42 206.31 327.397C208.786 327.444 211.227 326.772 213.372 325.453C215.517 324.134 217.285 322.217 218.487 319.909L220.733 321.286C219.277 323.978 217.171 326.206 214.634 327.737C212.097 329.268 209.222 330.048 206.308 329.994C204.021 330.057 201.745 329.626 199.619 328.727C197.492 327.827 195.559 326.478 193.934 324.76C192.31 323.042 191.029 320.991 190.168 318.73C189.308 316.47 188.885 314.047 188.926 311.608Z" fill="white"/>
<path d="M317.389 293.78V329.434H314.858V312.372H295.417V329.434H292.885V293.78H295.417V309.82H314.858V293.78H317.389Z" fill="white"/>
<path d="M298.038 258.325L21.6938 257.994L21.9715 57L160.006 153.165L298.314 57.3419L298.038 258.325ZM24.5001 255.394L295.248 255.718L295.513 62.5169L160.009 156.414L24.7652 62.1923L24.5001 255.394Z" fill="white" stroke="white" stroke-width="2"/>
<path d="M317.722 267.325L41.3872 266.994L41.6647 66L179.701 162.165L318 66.3419L317.722 267.325ZM44.1845 264.394L314.93 264.718L315.197 71.5169L179.694 165.414L44.4496 71.1942L44.1845 264.394Z" fill="white" stroke="white" stroke-width="2"/>
<path d="M278.335 248.277L2 247.947L2.27752 46.9521L140.314 143.117L278.613 47.294L278.335 248.277ZM4.79731 245.346L275.543 245.67L275.81 52.4691L140.306 146.366L5.06237 52.1445L4.79731 245.346Z" fill="white" stroke="white" stroke-width="2"/>
<path d="M32.7014 0.00961358V35.6433H30.1709V3.97973L17.8142 25.8679H17.3843L5.02757 3.97783V35.6414H2.49707V0.00769043H5.68295L17.6064 21.1168L29.5298 0.00769043L32.7014 0.00961358Z" fill="white"/>
<path d="M132.468 0.00952148L120.291 20.9811V35.6433H117.76V20.9811L105.583 0.00952148H108.448L119.05 18.3706L129.596 0.00952148H132.468Z" fill="white"/>
<path d="M204.566 35.6433L212.873 20.6775C210.779 20.0933 208.924 18.7868 207.598 16.9613C206.477 15.4035 205.786 13.5427 205.604 11.5888C205.422 9.63495 205.756 7.66568 206.567 5.90311C207.379 4.14054 208.636 2.65478 210.197 1.61343C211.758 0.572083 213.561 0.01657 215.402 0.00952148H228.579V35.6433H226.049V21.0327H215.54L207.481 35.6433H204.566ZM215.402 2.55505C214.43 2.53935 213.465 2.73939 212.569 3.14242C211.673 3.54546 210.866 4.14273 210.198 4.89628C209.502 5.63555 208.953 6.51703 208.583 7.48796C208.214 8.45889 208.032 9.4993 208.049 10.5469C208.031 11.591 208.212 12.6282 208.581 13.5953C208.951 14.5624 209.501 15.4393 210.198 16.1727C210.869 16.9199 211.678 17.5114 212.573 17.91C213.469 18.3086 214.432 18.5057 215.402 18.489H226.049V2.55697L215.402 2.55505Z" fill="white"/>
<path d="M302.18 33.0882H317.939V35.6337H299.655V0H302.185L302.18 33.0882Z" fill="white"/>
</svg>
