<svg width="120" height="120" viewBox="0 0 120 120" fill="none" xmlns="http://www.w3.org/2000/svg">
<g clip-path="url(#clip0_1533_3213)">
<path d="M60 120C93.1371 120 120 93.1371 120 60C120 26.8629 93.1371 0 60 0C26.8629 0 0 26.8629 0 60C0 93.1371 26.8629 120 60 120Z" fill="url(#paint0_linear_1533_3213)"/>
<path d="M27.1367 9.80754L87.0397 113.559C88.0335 113.055 89.0225 112.528 89.9997 111.962C90.9769 111.397 91.9281 110.805 92.8628 110.197L32.962 6.44531C31.9659 6.94693 30.977 7.4746 29.9998 8.0401C29.0226 8.6056 28.0713 9.19708 27.1367 9.80754Z" fill="black"/>
<path d="M6.44238 32.9624L110.194 92.8631C110.805 91.9308 111.394 90.9772 111.962 90.0024C112.525 89.0252 113.053 88.0362 113.557 87.04L9.80468 27.1323C9.19423 28.0646 8.60267 29.0252 8.03717 29.9953C7.47167 30.9654 6.94637 31.9686 6.44238 32.9624Z" fill="black"/>
<path d="M0.0993584 63.3647H119.901C119.962 62.2502 120 61.1311 120 60.0024C120 58.8738 119.962 57.7522 119.901 56.6401H0.0993584C0.0378394 57.7522 0 58.8714 0 60.0024C0 61.1334 0.0378394 62.2502 0.0993584 63.3647Z" fill="black"/>
<path d="M9.80468 92.8631L113.557 32.9624C113.053 31.9686 112.525 30.9796 111.962 30.0024C111.399 29.0252 110.805 28.0717 110.194 27.1394L6.44238 87.0401C6.94637 88.0362 7.47404 89.0252 8.03717 90.0024C8.60031 90.9796 9.19423 91.9308 9.80468 92.8631Z" fill="black"/>
<path d="M32.962 113.559L92.8628 9.80754C91.9163 9.19708 90.9698 8.60324 89.9997 8.0401C89.0296 7.47697 88.0335 6.94693 87.0397 6.44531L27.1367 110.197C28.0832 110.808 29.0297 111.399 29.9998 111.962C30.9699 112.525 31.9659 113.055 32.962 113.559Z" fill="black"/>
<path d="M60.0002 104.71C84.6929 104.71 104.71 84.6927 104.71 60C104.71 35.3072 84.6929 15.2898 60.0002 15.2898C35.3075 15.2898 15.29 35.3072 15.29 60C15.29 84.6927 35.3075 104.71 60.0002 104.71Z" fill="#0F0F0F"/>
<path d="M74.8713 72.1428C75.021 74.0126 74.6978 75.8901 73.9316 77.6024C73.1654 79.3146 71.9808 80.8066 70.4868 81.9409C68.4813 83.3818 66.1433 84.291 63.6913 84.5838V89.1079C63.6026 89.8531 63.226 90.5341 62.642 91.0054C62.0579 91.4766 61.3128 91.7009 60.5657 91.6302H59.1106C58.3633 91.7015 57.6177 91.4775 57.0336 91.0061C56.4494 90.5347 56.0731 89.8533 55.985 89.1079V84.4277C52.6203 83.8445 49.6131 81.9783 47.597 79.2222C46.4474 77.6107 45.6259 75.789 45.1789 73.8606C44.8287 72.3794 46.1678 70.9763 48.0347 70.8674L50.6375 70.7184C51.3281 70.6369 52.0261 70.789 52.6201 71.1506C53.214 71.5121 53.6698 72.0622 53.9146 72.713C54.2642 74.2438 55.0703 75.6325 56.2263 76.6952C56.7324 77.1586 57.325 77.5173 57.9702 77.7508C58.6155 77.9843 59.3006 78.0879 59.986 78.0557C60.9104 78.0599 61.8231 77.8482 62.6512 77.4374C63.4794 77.0266 64.2001 76.4281 64.7561 75.6896C65.4246 74.7526 65.7482 73.6131 65.6718 72.4646C65.5678 71.2785 65.2132 70.128 64.6316 69.0892C64.05 68.0503 63.2545 67.1467 62.2977 66.4381C60.4663 65.0658 57.7524 63.0057 54.1559 60.2578C51.8536 58.5929 49.8073 56.6 48.0821 54.3425C46.544 52.2311 45.7155 49.686 45.7159 47.0738C45.7037 44.6023 46.4796 42.1913 47.9307 40.1907C48.8811 38.883 50.0815 37.777 51.4624 36.9367C52.8434 36.0963 54.3773 35.5384 55.9754 35.2952V30.8943C56.0641 30.1493 56.4408 29.4684 57.0249 28.9975C57.609 28.5266 58.3541 28.303 59.101 28.3744H60.5563C61.3032 28.303 62.0483 28.5266 62.6324 28.9975C63.2166 29.4684 63.5932 30.1493 63.6819 30.8943V35.2929C65.8741 35.6293 67.955 36.4817 69.7533 37.7797C71.6957 39.1797 73.1518 41.152 73.9177 43.4205C74.0031 43.7942 74.0043 44.1822 73.9212 44.5564C73.8381 44.9306 73.6727 45.2816 73.4371 45.584C73.2015 45.8864 72.9017 46.1326 72.5592 46.3047C72.2167 46.4769 71.8402 46.5707 71.457 46.5793L68.7193 46.9792C68.0083 47.1165 67.2718 47.0134 66.6258 46.6861C65.9798 46.3589 65.461 45.826 65.1512 45.1714C64.8063 44.2536 64.2735 43.4179 63.5872 42.7177C63.1007 42.2951 62.5347 41.974 61.9223 41.7732C61.31 41.5725 60.6638 41.4962 60.0215 41.5489C59.2879 41.5067 58.5553 41.6481 57.8901 41.9605C57.2249 42.2728 56.6482 42.7462 56.2121 43.3377C55.4786 44.383 55.1063 45.6391 55.152 46.9153C55.2588 48.2359 55.6296 49.5217 56.242 50.6967C56.8545 51.8716 57.6963 52.9118 58.7177 53.7557C59.9693 54.8846 61.308 55.9132 62.7213 56.8317C64.8508 58.2301 66.2491 59.2285 66.9613 59.8248C68.9087 61.3773 70.6409 63.1819 72.1124 65.1912C73.6786 67.1964 74.6362 69.6092 74.8713 72.1428Z" fill="url(#paint1_linear_1533_3213)"/>
</g>
<defs>
<linearGradient id="paint0_linear_1533_3213" x1="120" y1="0" x2="0" y2="120" gradientUnits="userSpaceOnUse">
<stop stop-color="#EF04FF"/>
<stop offset="1" stop-color="#00FF88"/>
</linearGradient>
<linearGradient id="paint1_linear_1533_3213" x1="74.9069" y1="28.3613" x2="26.1415" y2="51.313" gradientUnits="userSpaceOnUse">
<stop stop-color="#EF04FF"/>
<stop offset="1" stop-color="#00FF88"/>
</linearGradient>
<clipPath id="clip0_1533_3213">
<rect width="120" height="120" fill="white"/>
</clipPath>
</defs>
</svg>
