<svg width="310" height="65" viewBox="0 0 310 65" fill="none" xmlns="http://www.w3.org/2000/svg">
<path d="M75.322 21.27L64.486 21.306V45.75H75.322C82.954 45.75 88.246 40.602 88.246 33.474C88.246 26.418 83.386 21.234 75.322 21.27ZM70.39 26.742H75.322C79.498 26.742 82.27 29.082 82.27 33.474C82.27 37.578 79.426 40.278 75.322 40.278H70.39V26.742ZM103.452 20.838C96.4321 20.838 90.8161 26.562 90.8161 33.51C90.8161 40.494 96.4321 46.182 103.452 46.182C110.4 46.182 116.088 40.494 116.088 33.51C116.088 26.562 110.4 20.838 103.452 20.838ZM103.452 26.346C107.376 26.346 110.616 29.55 110.616 33.51C110.616 37.506 107.376 40.71 103.452 40.71C99.4561 40.71 96.2161 37.506 96.2161 33.51C96.2161 29.55 99.4561 26.346 103.452 26.346ZM150.131 21.27H143.543L135.047 39.234L126.515 21.27H119.963V45.75H125.867V33.258L131.735 45.75H138.323L144.191 33.258V45.75H150.131V21.27ZM161.48 21.27H155.576V45.75H161.48V21.27ZM190.87 21.27H184.93V36.21L172.546 21.27H166.606V45.75H172.546V30.774L184.93 45.75H190.87V21.27ZM215.842 45.75H222.142L211.63 21.27H205.042L194.566 45.75H200.83L202.45 41.934H214.258L215.842 45.75ZM204.502 37.11L208.39 27.966L212.206 37.11H204.502ZM243.347 21.27H220.019V26.742H228.695V45.75H234.671V26.742H243.347V21.27ZM247.369 21.27V45.75H266.125V40.278H253.273V36.066H264.001V30.954H253.273V26.742H266.125V21.27H247.369ZM273.012 39.126C271.14 39.126 269.556 40.746 269.556 42.726C269.556 44.598 271.14 46.182 273.012 46.182C274.992 46.182 276.612 44.598 276.612 42.726C276.612 40.746 274.992 39.126 273.012 39.126Z" fill="white"/>
<rect x="1.5" y="5.07593" width="11.7493" height="53.3156" rx="5.87466" stroke="white" stroke-width="3"/>
<rect x="9.71946" y="10.4133" width="11.7493" height="42.8888" rx="5.87466" transform="rotate(-44.8892 9.71946 10.4133)" stroke="white" stroke-width="3"/>
<rect x="39.6636" y="24.6267" width="11.7493" height="42.3472" rx="5.87466" transform="rotate(45 39.6636 24.6267)" stroke="white" stroke-width="3"/>
</svg>
