<svg width="135" height="50" viewBox="0 0 135 50" fill="none" xmlns="http://www.w3.org/2000/svg">
<path d="M9.89016 25.2051L5.28516 33.0545H14.4952L19.1002 25.2051H9.89016Z" fill="#F2F2F2"/>
<path fill-rule="evenodd" clip-rule="evenodd" d="M9.63475 24.938C9.65135 24.9084 9.68204 24.8901 9.71525 24.8901H19.0106C19.0438 24.8901 19.0745 24.9084 19.0911 24.938C19.1077 24.9676 19.1077 25.004 19.0911 25.0336L14.4434 33.3197C14.4268 33.3493 14.3962 33.3675 14.3629 33.3675H5.06756C5.03436 33.3675 5.00367 33.3493 4.98706 33.3197C4.97046 33.2901 4.97046 33.2536 4.98706 33.224L9.63475 24.938ZM9.76893 25.0815L5.22855 33.1762H14.3093L18.8496 25.0815H9.76893Z" fill="#DCE0DF"/>
<path d="M0.578125 41.2171L5.18313 33.0537H14.3931L9.78813 41.2171H0.578125Z" fill="#F2F2F2"/>
<path fill-rule="evenodd" clip-rule="evenodd" d="M5.02542 33.0998C5.0424 33.0713 5.07376 33.0537 5.10771 33.0537H14.6097C14.6436 33.0537 14.675 33.0713 14.6919 33.0998C14.7089 33.1283 14.7089 33.1634 14.6919 33.1919L9.94097 41.1711C9.924 41.1996 9.89263 41.2171 9.85868 41.2171H0.356738C0.322791 41.2171 0.291422 41.1996 0.274449 41.1711C0.257475 41.1425 0.257475 41.1074 0.27445 41.0789L5.02542 33.0998ZM5.16257 33.238L0.521319 41.0328H9.80383L14.4451 33.238H5.16257Z" fill="#DCE0DF"/>
<path d="M23.8126 33.0537H14.3933L9.68359 41.2171H19.1029L23.8126 33.0537Z" fill="#F2F2F2"/>
<path fill-rule="evenodd" clip-rule="evenodd" d="M14.3437 33.0998C14.3603 33.0713 14.391 33.0537 14.4242 33.0537H23.7196C23.7528 33.0537 23.7835 33.0713 23.8001 33.0998C23.8167 33.1283 23.8167 33.1634 23.8001 33.1919L19.1524 41.1711C19.1358 41.1996 19.1051 41.2171 19.0719 41.2171H9.77655C9.74334 41.2171 9.71265 41.1996 9.69605 41.1711C9.67944 41.1425 9.67944 41.1074 9.69605 41.0789L14.3437 33.0998ZM14.4779 33.238L9.93755 41.0328H19.0183L23.5586 33.238H14.4779Z" fill="#DCE0DF"/>
<path d="M33.2227 33.0537H23.8034L19.0938 41.2171H28.5131L33.2227 33.0537Z" fill="#F2F2F2"/>
<path fill-rule="evenodd" clip-rule="evenodd" d="M23.7539 33.0998C23.7705 33.0713 23.8012 33.0537 23.8344 33.0537H33.1298C33.163 33.0537 33.1937 33.0713 33.2103 33.0998C33.2269 33.1283 33.2269 33.1634 33.2103 33.1919L28.5626 41.1711C28.546 41.1996 28.5153 41.2171 28.4821 41.2171H19.1867C19.1535 41.2171 19.1228 41.1996 19.1062 41.1711C19.0896 41.1425 19.0896 41.1074 19.1062 41.0789L23.7539 33.0998ZM23.8881 33.238L19.3477 41.0328H28.4284L32.9688 33.238H23.8881Z" fill="#DCE0DF"/>
<path d="M28.4136 25.2051L23.8086 33.0545H33.0186L37.6236 25.2051H28.4136Z" fill="#F2F2F2"/>
<path fill-rule="evenodd" clip-rule="evenodd" d="M28.4687 24.938C28.4853 24.9084 28.516 24.8901 28.5492 24.8901H37.8446C37.8778 24.8901 37.9085 24.9084 37.9251 24.938C37.9417 24.9676 37.9417 25.004 37.9251 25.0336L33.2774 33.3197C33.2608 33.3493 33.2301 33.3675 33.1969 33.3675H23.9015C23.8683 33.3675 23.8377 33.3493 23.821 33.3197C23.8044 33.2901 23.8044 33.2536 23.821 33.224L28.4687 24.938ZM28.6029 25.0815L24.0625 33.1762H33.1433L37.6836 25.0815H28.6029Z" fill="#DCE0DF"/>
<path d="M33.1206 17.041L28.5156 25.2044H37.7256L42.3306 17.041H33.1206Z" fill="#F2F2F2"/>
<path fill-rule="evenodd" clip-rule="evenodd" d="M32.9688 17.0871C32.9858 17.0586 33.0171 17.041 33.0511 17.041H42.553C42.587 17.041 42.6183 17.0586 42.6353 17.0871C42.6523 17.1156 42.6523 17.1507 42.6353 17.1792L37.8843 25.1584C37.8674 25.1869 37.836 25.2044 37.802 25.2044H28.3001C28.2662 25.2044 28.2348 25.1869 28.2178 25.1584C28.2008 25.1298 28.2008 25.0947 28.2178 25.0662L32.9688 17.0871ZM33.1059 17.2253L28.4647 25.0202H37.7472L42.3884 17.2253H33.1059Z" fill="#DCE0DF"/>
<path d="M37.8355 8.87744L33.2305 17.0409H42.4405L47.0455 8.87744H37.8355Z" fill="#F2F2F2"/>
<path fill-rule="evenodd" clip-rule="evenodd" d="M37.5703 8.92351C37.5869 8.895 37.6176 8.87744 37.6508 8.87744H46.9462C46.9794 8.87744 47.0101 8.895 47.0267 8.92351C47.0433 8.95202 47.0433 8.98714 47.0267 9.01565L42.379 16.9948C42.3624 17.0233 42.3317 17.0409 42.2985 17.0409H33.0031C32.9699 17.0409 32.9392 17.0233 32.9226 16.9948C32.906 16.9663 32.906 16.9312 32.9226 16.9026L37.5703 8.92351ZM37.7045 9.06172L33.1641 16.8566H42.2448L46.7852 9.06172H37.7045Z" fill="#DCE0DF"/>
<path d="M42.3347 1.02783L37.625 8.87726H47.0443L51.754 1.02783H42.3347Z" fill="#F2F2F2"/>
<path fill-rule="evenodd" clip-rule="evenodd" d="M42.2851 0.761707C42.3017 0.732104 42.3324 0.713867 42.3656 0.713867H51.661C51.6942 0.713867 51.7249 0.732104 51.7415 0.761709C51.7581 0.791313 51.7581 0.827787 51.7415 0.857391L47.0938 9.14342C47.0772 9.17302 47.0465 9.19126 47.0133 9.19126H37.718C37.6847 9.19126 37.6541 9.17302 37.6375 9.14341C37.6208 9.11381 37.6208 9.07734 37.6375 9.04773L42.2851 0.761707ZM42.4193 0.90523L37.879 8.99989H46.9597L51.5 0.90523H42.4193Z" fill="#DCE0DF"/>
<path d="M0.578125 41.2168L5.18313 49.3802H14.3931L9.78813 41.2168H0.578125Z" fill="#F2F2F2"/>
<path fill-rule="evenodd" clip-rule="evenodd" d="M0.274449 41.2629C0.291422 41.2344 0.322791 41.2168 0.356738 41.2168H9.85868C9.89263 41.2168 9.924 41.2344 9.94097 41.2629L14.6919 49.242C14.7089 49.2705 14.7089 49.3056 14.6919 49.3341C14.675 49.3626 14.6436 49.3802 14.6097 49.3802H5.10771C5.07376 49.3802 5.0424 49.3626 5.02542 49.3341L0.27445 41.355C0.257475 41.3265 0.257475 41.2914 0.274449 41.2629ZM0.521319 41.4011L5.16257 49.1959H14.4451L9.80383 41.4011H0.521319Z" fill="#DCE0DF"/>
<path d="M23.8126 49.3802H14.3933L9.68359 41.2168H19.1029L23.8126 49.3802Z" fill="#F2F2F2"/>
<path fill-rule="evenodd" clip-rule="evenodd" d="M9.69605 41.2629C9.71265 41.2344 9.74334 41.2168 9.77655 41.2168H19.0719C19.1051 41.2168 19.1358 41.2344 19.1524 41.2629L23.8001 49.242C23.8167 49.2705 23.8167 49.3056 23.8001 49.3341C23.7835 49.3626 23.7528 49.3802 23.7196 49.3802H14.4242C14.391 49.3802 14.3603 49.3626 14.3437 49.3341L9.69605 41.355C9.67944 41.3265 9.67944 41.2914 9.69605 41.2629ZM9.93755 41.4011L14.4779 49.1959H23.5586L19.0183 41.4011H9.93755Z" fill="#DCE0DF"/>
<path d="M33.2227 49.3802H23.8034L19.0938 41.2168H28.5131L33.2227 49.3802Z" fill="#F2F2F2"/>
<path fill-rule="evenodd" clip-rule="evenodd" d="M19.1062 41.2629C19.1228 41.2344 19.1535 41.2168 19.1867 41.2168H28.4821C28.5153 41.2168 28.546 41.2344 28.5626 41.2629L33.2103 49.242C33.2269 49.2705 33.2269 49.3056 33.2103 49.3341C33.1937 49.3626 33.163 49.3802 33.1298 49.3802H23.8344C23.8012 49.3802 23.7705 49.3626 23.7539 49.3341L19.1062 41.355C19.0896 41.3265 19.0896 41.2914 19.1062 41.2629ZM19.3477 41.4011L23.8881 49.1959H32.9688L28.4284 41.4011H19.3477Z" fill="#DCE0DF"/>
<path d="M37.621 41.2171L33.0683 33.0537L28.5156 41.2171L33.0683 49.3805L37.621 41.2171Z" fill="#F2F2F2"/>
<path fill-rule="evenodd" clip-rule="evenodd" d="M33.0717 33.0537C33.1058 33.0537 33.1373 33.0715 33.1544 33.1003L37.9256 41.1705C37.9426 41.1994 37.9426 41.2349 37.9256 41.2637L33.1544 49.3339C33.1373 49.3628 33.1058 49.3805 33.0717 49.3805C33.0376 49.3805 33.0061 49.3628 32.9891 49.3339L28.2179 41.2637C28.2008 41.2349 28.2008 41.1994 28.2179 41.1705L32.9891 33.1003C33.0061 33.0715 33.0376 33.0537 33.0717 33.0537ZM28.4107 41.2171L33.0717 49.101L37.7328 41.2171L33.0717 33.3333L28.4107 41.2171Z" fill="#DCE0DF"/>
<path d="M47.0443 25.2044L42.3347 17.041L37.625 25.2044H47.0443Z" fill="#F2F2F2"/>
<path fill-rule="evenodd" clip-rule="evenodd" d="M42.3347 17.041C42.3677 17.041 42.3981 17.0586 42.4146 17.0871L47.0319 25.0662C47.0484 25.0947 47.0484 25.1298 47.0319 25.1584C47.0155 25.1869 46.985 25.2044 46.952 25.2044H37.7173C37.6844 25.2044 37.6539 25.1869 37.6374 25.1584C37.6209 25.1298 37.6209 25.0947 37.6374 25.0662L42.2547 17.0871C42.2712 17.0586 42.3017 17.041 42.3347 17.041ZM37.8773 25.0202H46.792L42.3347 17.3174L37.8773 25.0202Z" fill="#DCE0DF"/>
<path d="M47.0476 8.87744L42.3379 17.0409L47.0476 25.2043L51.7572 17.0409L47.0476 8.87744Z" fill="#F2F2F2"/>
<path fill-rule="evenodd" clip-rule="evenodd" d="M47.0476 8.87744C47.0805 8.87744 47.111 8.8952 47.1275 8.92404L51.7448 16.9943C51.7613 17.0231 51.7613 17.0586 51.7448 17.0874L47.1275 25.1577C47.111 25.1865 47.0805 25.2043 47.0476 25.2043C47.0146 25.2043 46.9841 25.1865 46.9676 25.1577L42.3503 17.0874C42.3338 17.0586 42.3338 17.0231 42.3503 16.9943L46.9676 8.92404C46.9841 8.8952 47.0146 8.87744 47.0476 8.87744ZM42.5369 17.0409L47.0476 24.9247L51.5582 17.0409L47.0476 9.15701L42.5369 17.0409Z" fill="#DCE0DF"/>
<path d="M23.8139 33.0545L19.1042 25.2051L14.3945 33.0545H23.8139Z" fill="#F2F2F2"/>
<path fill-rule="evenodd" clip-rule="evenodd" d="M19.1042 24.8901C19.1372 24.8901 19.1677 24.9084 19.1842 24.938L23.8015 33.224C23.818 33.2536 23.818 33.2901 23.8015 33.3197C23.785 33.3493 23.7545 33.3675 23.7215 33.3675H14.4869C14.4539 33.3675 14.4234 33.3493 14.4069 33.3197C14.3904 33.2901 14.3904 33.2536 14.4069 33.224L19.0242 24.938C19.0407 24.9084 19.0712 24.8901 19.1042 24.8901ZM14.6468 33.1762H23.5616L19.1042 25.1771L14.6468 33.1762Z" fill="#DCE0DF"/>
<path d="M47.0455 25.2051H37.8355L33.2305 33.0545H42.4405L47.0455 25.2051Z" fill="#F2F2F2"/>
<path fill-rule="evenodd" clip-rule="evenodd" d="M37.5703 24.938C37.5869 24.9084 37.6176 24.8901 37.6508 24.8901H46.9462C46.9794 24.8901 47.0101 24.9084 47.0267 24.938C47.0433 24.9676 47.0433 25.004 47.0267 25.0336L42.379 33.3197C42.3624 33.3493 42.3317 33.3675 42.2985 33.3675H33.0031C32.9699 33.3675 32.9392 33.3493 32.9226 33.3197C32.906 33.2901 32.906 33.2536 32.9226 33.224L37.5703 24.938ZM37.7045 25.0815L33.1641 33.1762H42.2448L46.7852 25.0815H37.7045Z" fill="#DCE0DF"/>
<path d="M56.4669 25.2051H47.0475L42.3379 33.0545H51.7572L56.4669 25.2051Z" fill="#F2F2F2"/>
<path fill-rule="evenodd" clip-rule="evenodd" d="M46.998 24.938C47.0146 24.9084 47.0453 24.8901 47.0785 24.8901H56.3739C56.4071 24.8901 56.4378 24.9084 56.4544 24.938C56.471 24.9676 56.471 25.004 56.4544 25.0336L51.8067 33.3197C51.7901 33.3493 51.7594 33.3675 51.7262 33.3675H42.4308C42.3976 33.3675 42.367 33.3493 42.3503 33.3197C42.3337 33.2901 42.3337 33.2536 42.3503 33.224L46.998 24.938ZM47.1322 25.0815L42.5918 33.1762H51.6726L56.2129 25.0815H47.1322Z" fill="#DCE0DF"/>
<path d="M65.5624 9.03425L61.0097 1.02783L56.457 9.03425L61.0097 17.0407L65.5624 9.03425Z" fill="#F2F2F2"/>
<path fill-rule="evenodd" clip-rule="evenodd" d="M61.0209 0.713867C61.055 0.713867 61.0865 0.731629 61.1036 0.760461L65.8748 8.83068C65.8919 8.85952 65.8919 8.89504 65.8748 8.92387L61.1036 16.9941C61.0865 17.0229 61.055 17.0407 61.0209 17.0407C60.9869 17.0407 60.9554 17.0229 60.9383 16.9941L56.1671 8.92387C56.15 8.89504 56.15 8.85952 56.1671 8.83068L60.9383 0.760461C60.9554 0.731629 60.9869 0.713867 61.0209 0.713867ZM56.3599 8.87728L61.0209 16.7611L65.682 8.87728L61.0209 0.993432L56.3599 8.87728Z" fill="#DCE0DF"/>
<path d="M70.2792 17.0409L65.7265 8.87744L61.1738 17.0409L65.7265 25.2043L70.2792 17.0409Z" fill="#F2F2F2"/>
<path fill-rule="evenodd" clip-rule="evenodd" d="M65.726 8.87744C65.7601 8.87744 65.7916 8.8952 65.8087 8.92404L70.5799 16.9943C70.5969 17.0231 70.5969 17.0586 70.5799 17.0874L65.8087 25.1577C65.7916 25.1865 65.7601 25.2043 65.726 25.2043C65.6919 25.2043 65.6604 25.1865 65.6434 25.1577L60.8722 17.0874C60.8551 17.0586 60.8551 17.0231 60.8722 16.9943L65.6434 8.92404C65.6604 8.8952 65.6919 8.87744 65.726 8.87744ZM61.065 17.0409L65.726 24.9247L70.3871 17.0409L65.726 9.15701L61.065 17.0409Z" fill="#DCE0DF"/>
<path d="M74.9857 25.0465L70.2761 17.041L65.5664 25.0465L70.2761 33.0539L74.9857 25.0465Z" fill="#F2F2F2"/>
<path fill-rule="evenodd" clip-rule="evenodd" d="M70.2761 17.041C70.3091 17.041 70.3395 17.0588 70.356 17.0876L74.9734 25.1569C74.9898 25.1857 74.9899 25.2212 74.9734 25.2501L70.356 33.3212C70.3395 33.3501 70.3091 33.3678 70.2761 33.3678C70.2431 33.3678 70.2126 33.3501 70.1961 33.3212L65.5788 25.2501C65.5623 25.2212 65.5623 25.1857 65.5788 25.1569L70.1961 17.0876C70.2126 17.0588 70.2431 17.041 70.2761 17.041ZM65.7654 25.2035L70.2761 33.0883L74.7867 25.2035L70.2761 17.3205L65.7654 25.2035Z" fill="#DCE0DF"/>
<path d="M79.6947 33.2124L74.9851 25.2051L70.2754 33.2124L74.9851 41.2179L79.6947 33.2124Z" fill="#F2F2F2"/>
<path fill-rule="evenodd" clip-rule="evenodd" d="M74.9851 24.8901C75.018 24.8901 75.0485 24.9079 75.065 24.9367L79.6823 33.0079C79.6988 33.0367 79.6988 33.0722 79.6823 33.1011L75.065 41.1704C75.0485 41.1992 75.018 41.217 74.9851 41.217C74.9521 41.217 74.9216 41.1992 74.9051 41.1704L70.2878 33.1011C70.2713 33.0722 70.2713 33.0367 70.2878 33.0079L74.9051 24.9367C74.9216 24.9079 74.9521 24.8901 74.9851 24.8901ZM70.4744 33.0545L74.9851 40.9374L79.4957 33.0545L74.9851 25.1697L70.4744 33.0545Z" fill="#DCE0DF"/>
<path d="M84.4076 41.2171L79.6979 33.0537L74.9883 41.2171L79.6979 49.3805L84.4076 41.2171Z" fill="#F2F2F2"/>
<path fill-rule="evenodd" clip-rule="evenodd" d="M79.6979 33.0537C79.7309 33.0537 79.7614 33.0715 79.7779 33.1003L84.3952 41.1705C84.4117 41.1994 84.4117 41.2349 84.3952 41.2637L79.7779 49.3339C79.7614 49.3628 79.7309 49.3805 79.6979 49.3805C79.6649 49.3805 79.6345 49.3628 79.618 49.3339L75.0007 41.2637C74.9842 41.2349 74.9842 41.1994 75.0007 41.1705L79.618 33.1003C79.6345 33.0715 79.6649 33.0537 79.6979 33.0537ZM75.1873 41.2171L79.6979 49.101L84.2086 41.2171L79.6979 33.3333L75.1873 41.2171Z" fill="#DCE0DF"/>
<path d="M79.6979 1.02783L74.9883 9.03425L79.6979 17.0407L84.4076 9.03425L79.6979 1.02783Z" fill="#F2F2F2"/>
<path fill-rule="evenodd" clip-rule="evenodd" d="M79.6979 0.713867C79.7309 0.713867 79.7614 0.731629 79.7779 0.760461L84.3952 8.83068C84.4117 8.85952 84.4117 8.89504 84.3952 8.92387L79.7779 16.9941C79.7614 17.0229 79.7309 17.0407 79.6979 17.0407C79.6649 17.0407 79.6345 17.0229 79.618 16.9941L75.0007 8.92387C74.9842 8.89504 74.9842 8.85952 75.0007 8.83068L79.618 0.760461C79.6345 0.731629 79.6649 0.713867 79.6979 0.713867ZM75.1873 8.87728L79.6979 16.7611L84.2086 8.87728L79.6979 0.993432L75.1873 8.87728Z" fill="#DCE0DF"/>
<path d="M70.2754 17.0409L74.9851 8.87744L79.6947 17.0409L74.9851 25.2043L70.2754 17.0409Z" fill="#F2F2F2"/>
<path fill-rule="evenodd" clip-rule="evenodd" d="M74.9851 8.87744C75.018 8.87744 75.0485 8.8952 75.065 8.92404L79.6823 16.9943C79.6988 17.0231 79.6988 17.0586 79.6823 17.0874L75.065 25.1577C75.0485 25.1865 75.018 25.2043 74.9851 25.2043C74.9521 25.2043 74.9216 25.1865 74.9051 25.1577L70.2878 17.0874C70.2713 17.0586 70.2713 17.0231 70.2878 16.9943L74.9051 8.92404C74.9216 8.8952 74.9521 8.87744 74.9851 8.87744ZM70.4744 17.0409L74.9851 24.9247L79.4957 17.0409L74.9851 9.15701L70.4744 17.0409Z" fill="#DCE0DF"/>
<path d="M65.7265 25.2051L61.1738 33.2124L65.7265 41.2179L70.2792 33.2124L65.7265 25.2051Z" fill="#F2F2F2"/>
<path fill-rule="evenodd" clip-rule="evenodd" d="M65.726 24.8901C65.7601 24.8901 65.7916 24.9079 65.8087 24.9367L70.5799 33.0079C70.5969 33.0367 70.5969 33.0722 70.5799 33.1011L65.8087 41.1704C65.7916 41.1992 65.7601 41.217 65.726 41.217C65.6919 41.217 65.6604 41.1992 65.6434 41.1704L60.8722 33.1011C60.8551 33.0722 60.8551 33.0367 60.8722 33.0079L65.6434 24.9367C65.6604 24.9079 65.6919 24.8901 65.726 24.8901ZM61.065 33.0545L65.726 40.9374L70.3871 33.0545L65.726 25.1697L61.065 33.0545Z" fill="#DCE0DF"/>
<path d="M61.0097 49.3805L56.457 41.2171L61.0097 33.0537L65.5624 41.2171L61.0097 49.3805Z" fill="#F2F2F2"/>
<path fill-rule="evenodd" clip-rule="evenodd" d="M61.0209 33.0537C61.055 33.0537 61.0865 33.0715 61.1036 33.1003L65.8748 41.1705C65.8919 41.1994 65.8919 41.2349 65.8748 41.2637L61.1036 49.3339C61.0865 49.3628 61.055 49.3805 61.0209 49.3805C60.9869 49.3805 60.9554 49.3628 60.9383 49.3339L56.1671 41.2637C56.15 41.2349 56.15 41.1994 56.1671 41.1705L60.9383 33.1003C60.9554 33.0715 60.9869 33.0537 61.0209 33.0537ZM56.3599 41.2171L61.0209 49.101L65.682 41.2171L61.0209 33.3333L56.3599 41.2171Z" fill="#DCE0DF"/>
<path d="M51.7565 49.3802L47.0469 41.2168H56.4662L61.1759 49.3802H51.7565Z" fill="#F2F2F2"/>
<path fill-rule="evenodd" clip-rule="evenodd" d="M47.0593 41.2629C47.0759 41.2344 47.1066 41.2168 47.1398 41.2168H56.4352C56.4684 41.2168 56.4991 41.2344 56.5157 41.2629L61.1634 49.242C61.18 49.2705 61.18 49.3056 61.1634 49.3341C61.1468 49.3626 61.1161 49.3802 61.0829 49.3802H51.7875C51.7543 49.3802 51.7236 49.3626 51.707 49.3341L47.0593 41.355C47.0427 41.3265 47.0427 41.2914 47.0593 41.2629ZM47.3008 41.4011L51.8412 49.1959H60.9219L56.3815 41.4011H47.3008Z" fill="#DCE0DF"/>
<path d="M42.4405 33.0537H33.2305L37.8355 41.2171H47.0455L42.4405 33.0537Z" fill="#F2F2F2"/>
<path fill-rule="evenodd" clip-rule="evenodd" d="M32.9226 33.0998C32.9392 33.0713 32.9699 33.0537 33.0031 33.0537H42.2985C42.3317 33.0537 42.3624 33.0713 42.379 33.0998L47.0267 41.0789C47.0433 41.1074 47.0433 41.1425 47.0267 41.1711C47.0101 41.1996 46.9794 41.2171 46.9462 41.2171H37.6508C37.6176 41.2171 37.5869 41.1996 37.5703 41.1711L32.9226 33.1919C32.906 33.1634 32.906 33.1283 32.9226 33.0998ZM33.1641 33.238L37.7045 41.0328H46.7852L42.2448 33.238H33.1641Z" fill="#DCE0DF"/>
<path d="M51.7572 33.0537H42.3379L47.0476 41.2171L51.7572 33.0537Z" fill="#F2F2F2"/>
<path fill-rule="evenodd" clip-rule="evenodd" d="M42.3503 33.0998C42.3668 33.0713 42.3972 33.0537 42.4302 33.0537H51.6649C51.6979 33.0537 51.7283 33.0713 51.7448 33.0998C51.7613 33.1283 51.7613 33.1634 51.7448 33.1919L47.1275 41.1711C47.111 41.1996 47.0805 41.2171 47.0476 41.2171C47.0146 41.2171 46.9841 41.1996 46.9676 41.1711L42.3503 33.1919C42.3338 33.1634 42.3338 33.1283 42.3503 33.0998ZM42.5902 33.238L47.0476 40.9407L51.5049 33.238H42.5902Z" fill="#DCE0DF"/>
<path d="M51.7559 17.041L56.3609 25.2044H65.5709L60.9659 17.041H51.7559Z" fill="#F2F2F2"/>
<path fill-rule="evenodd" clip-rule="evenodd" d="M51.7683 17.0871C51.7849 17.0586 51.8156 17.041 51.8488 17.041H61.1442C61.1774 17.041 61.2081 17.0586 61.2247 17.0871L65.8724 25.0662C65.889 25.0947 65.889 25.1298 65.8724 25.1584C65.8558 25.1869 65.8251 25.2044 65.7919 25.2044H56.4965C56.4633 25.2044 56.4326 25.1869 56.416 25.1584L51.7683 17.1792C51.7517 17.1507 51.7517 17.1156 51.7683 17.0871ZM52.0098 17.2253L56.5502 25.0202H65.6309L61.0905 17.2253H52.0098Z" fill="#DCE0DF"/>
<path d="M56.4662 8.87744H47.0469L51.7565 17.0409H61.1759L56.4662 8.87744Z" fill="#F2F2F2"/>
<path fill-rule="evenodd" clip-rule="evenodd" d="M47.0593 8.92351C47.0759 8.895 47.1066 8.87744 47.1398 8.87744H56.4352C56.4684 8.87744 56.4991 8.895 56.5157 8.92351L61.1634 16.9026C61.18 16.9312 61.18 16.9663 61.1634 16.9948C61.1468 17.0233 61.1161 17.0409 61.0829 17.0409H51.7875C51.7543 17.0409 51.7236 17.0233 51.707 16.9948L47.0593 9.01565C47.0427 8.98714 47.0427 8.95202 47.0593 8.92351ZM47.3008 9.06172L51.8412 16.8566H60.9219L56.3815 9.06172H47.3008Z" fill="#DCE0DF"/>
<path d="M79.6954 49.3802L74.9857 41.2168H65.5664L70.2761 49.3802H79.6954Z" fill="#F2F2F2"/>
<path fill-rule="evenodd" clip-rule="evenodd" d="M65.5789 41.2629C65.5955 41.2344 65.6262 41.2168 65.6594 41.2168H74.9547C74.9879 41.2168 75.0186 41.2344 75.0352 41.2629L79.6829 49.242C79.6995 49.2705 79.6995 49.3056 79.6829 49.3341C79.6663 49.3626 79.6356 49.3802 79.6024 49.3802H70.3071C70.2738 49.3802 70.2432 49.3626 70.2266 49.3341L65.5789 41.355C65.5623 41.3265 65.5623 41.2914 65.5789 41.2629ZM65.8204 41.4011L70.3607 49.1959H79.4414L74.9011 41.4011H65.8204Z" fill="#DCE0DF"/>
<path d="M70.2761 33.0537L65.5664 41.2171H74.9857L70.2761 33.0537Z" fill="#F2F2F2"/>
<path fill-rule="evenodd" clip-rule="evenodd" d="M70.2761 33.0537C70.3091 33.0537 70.3395 33.0713 70.356 33.0998L74.9734 41.0789C74.9898 41.1074 74.9899 41.1425 74.9734 41.1711C74.9569 41.1996 74.9264 41.2171 74.8934 41.2171H65.6588C65.6258 41.2171 65.5953 41.1996 65.5788 41.1711C65.5623 41.1425 65.5623 41.1074 65.5788 41.0789L70.1961 33.0998C70.2126 33.0713 70.2431 33.0537 70.2761 33.0537ZM65.8187 41.0328H74.7334L70.2761 33.3301L65.8187 41.0328Z" fill="#DCE0DF"/>
<path d="M61.1759 1.02783H51.7565L47.0469 8.87726H56.4662L61.1759 1.02783Z" fill="#F2F2F2"/>
<path fill-rule="evenodd" clip-rule="evenodd" d="M51.707 0.761707C51.7236 0.732104 51.7543 0.713867 51.7875 0.713867H61.0829C61.1161 0.713867 61.1468 0.732104 61.1634 0.761709C61.18 0.791313 61.18 0.827787 61.1634 0.857391L56.5157 9.14342C56.4991 9.17302 56.4684 9.19126 56.4352 9.19126H47.1398C47.1066 9.19126 47.0759 9.17302 47.0593 9.14341C47.0427 9.11381 47.0427 9.07734 47.0593 9.04773L51.707 0.761707ZM51.8412 0.90523L47.3008 8.99989H56.3815L60.9219 0.90523H51.8412Z" fill="#DCE0DF"/>
<path d="M61.1759 33.0537H51.7565L47.0469 41.2171H56.4662L61.1759 33.0537Z" fill="#F2F2F2"/>
<path fill-rule="evenodd" clip-rule="evenodd" d="M51.707 33.0998C51.7236 33.0713 51.7543 33.0537 51.7875 33.0537H61.0829C61.1161 33.0537 61.1468 33.0713 61.1634 33.0998C61.18 33.1283 61.18 33.1634 61.1634 33.1919L56.5157 41.1711C56.4991 41.1996 56.4684 41.2171 56.4352 41.2171H47.1398C47.1066 41.2171 47.0759 41.1996 47.0593 41.1711C47.0427 41.1425 47.0427 41.1074 47.0593 41.0789L51.707 33.0998ZM51.8412 33.238L47.3008 41.0328H56.3815L60.9219 33.238H51.8412Z" fill="#DCE0DF"/>
<path d="M65.5709 25.2051H56.3609L51.7559 33.0545H60.9659L65.5709 25.2051Z" fill="#F2F2F2"/>
<path fill-rule="evenodd" clip-rule="evenodd" d="M56.416 24.938C56.4326 24.9084 56.4633 24.8901 56.4965 24.8901H65.7919C65.8251 24.8901 65.8558 24.9084 65.8724 24.938C65.889 24.9676 65.889 25.004 65.8724 25.0336L61.2247 33.3197C61.2081 33.3493 61.1774 33.3675 61.1442 33.3675H51.8488C51.8156 33.3675 51.7849 33.3493 51.7683 33.3197C51.7517 33.2901 51.7517 33.2536 51.7683 33.224L56.416 24.938ZM56.5502 25.0815L52.0098 33.1762H61.0905L65.6309 25.0815H56.5502Z" fill="#DCE0DF"/>
<path d="M79.6973 1.02783H70.278L65.5684 8.87726H74.9877L79.6973 1.02783Z" fill="#F2F2F2"/>
<path fill-rule="evenodd" clip-rule="evenodd" d="M70.2285 0.761707C70.2451 0.732104 70.2758 0.713867 70.309 0.713867H79.6044C79.6376 0.713867 79.6683 0.732104 79.6849 0.761709C79.7015 0.791313 79.7015 0.827787 79.6849 0.857391L75.0372 9.14342C75.0206 9.17302 74.9899 9.19126 74.9567 9.19126H65.6613C65.6281 9.19126 65.5974 9.17302 65.5808 9.14341C65.5642 9.11381 65.5642 9.07734 65.5808 9.04773L70.2285 0.761707ZM70.3627 0.90523L65.8223 8.99989H74.903L79.4434 0.90523H70.3627Z" fill="#DCE0DF"/>
<path d="M70.2761 17.0409L65.5664 8.87744H74.9857L70.2761 17.0409Z" fill="#F2F2F2"/>
<path fill-rule="evenodd" clip-rule="evenodd" d="M65.5788 8.92351C65.5953 8.895 65.6258 8.87744 65.6588 8.87744H74.8934C74.9264 8.87744 74.9569 8.895 74.9734 8.92351C74.9899 8.95202 74.9898 8.98714 74.9734 9.01565L70.356 16.9948C70.3395 17.0233 70.3091 17.0409 70.2761 17.0409C70.2431 17.0409 70.2126 17.0233 70.1961 16.9948L65.5788 9.01565C65.5623 8.98714 65.5623 8.95202 65.5788 8.92351ZM65.8187 9.06172L70.2761 16.7644L74.7334 9.06172H65.8187Z" fill="#DCE0DF"/>
<path d="M134.326 33.0543H132.358L128.33 26.554L124.24 33.0543H122.395L127.361 25.3629L122.741 18.2974H124.669L128.391 24.182L132.133 18.2974H133.969L129.359 25.3326L134.326 33.0543Z" fill="white"/>
<path d="M120.611 33.0543L118.775 28.39H112.799L110.973 33.0543H109.219L115.052 18.2974H116.613L122.406 33.0543H120.611ZM118.255 26.8721L116.511 22.2379C116.47 22.1173 116.402 21.9196 116.307 21.6448C116.219 21.37 116.127 21.0852 116.032 20.7904C115.936 20.4955 115.858 20.2576 115.797 20.0766C115.729 20.3514 115.654 20.6262 115.573 20.9009C115.498 21.169 115.423 21.4203 115.348 21.6549C115.273 21.8827 115.209 22.0771 115.154 22.2379L113.38 26.8721H118.255Z" fill="white"/>
<path d="M103.322 37.136C102.963 37.136 102.648 37.1122 102.376 37.0646C102.104 37.017 101.871 36.9524 101.678 36.8708V35.3919C101.907 35.4599 102.154 35.5109 102.419 35.5449C102.684 35.5857 102.971 35.6061 103.279 35.6061C103.68 35.6061 104.049 35.5313 104.385 35.3817C104.722 35.2321 104.991 34.9771 105.191 34.6167C105.392 34.2563 105.492 33.7599 105.492 33.1276V18.2974H107.329V32.995C107.329 33.9265 107.165 34.6983 106.835 35.3103C106.513 35.9223 106.051 36.3778 105.449 36.677C104.855 36.983 104.145 37.136 103.322 37.136Z" fill="white"/>
</svg>
