<svg width="249" height="54" viewBox="0 0 249 54" fill="none" xmlns="http://www.w3.org/2000/svg">
<path d="M21.2908 1.59657C23.3723 0.400753 25.9369 0.400753 28.0184 1.59657L45.3243 11.5386C47.4058 12.7344 48.6881 14.9443 48.6881 17.336V37.2199C48.6881 39.6115 47.4058 41.8215 45.3243 43.0173L28.0184 52.9593C25.9369 54.1551 23.3723 54.1551 21.2908 52.9593L3.98491 43.0173C1.90337 41.8215 0.621094 39.6115 0.621094 37.2199V17.336C0.621094 14.9443 1.90337 12.7344 3.98491 11.5386L21.2908 1.59657Z" fill="#D9D9D9"/>
<path d="M21.8443 8.85103C16.4968 11.813 9.23307 16.1663 8.4755 16.9292C7.67338 17.737 7.58425 18.5 7.45056 26.7577C7.31687 33.9383 7.45056 35.913 7.98531 36.9452C8.96569 38.8301 22.3345 46.5044 24.6072 46.5044C25.9441 46.5044 27.8603 45.6068 33.2078 42.5102C36.9956 40.3111 40.516 37.9774 41.0062 37.3042C41.8084 36.2271 41.8975 35.4193 41.8975 27.2065C41.8975 18.4102 41.8975 18.2756 40.828 17.1536C39.3129 15.538 26.8353 8.35736 25.0974 8.08809C24.117 7.95345 23.0475 8.17785 21.8443 8.85103ZM32.1383 14.3262C35.3022 16.1663 38.2433 18.1858 38.689 18.7693C39.3574 19.7117 39.4465 20.699 39.3574 27.027L39.2237 34.2525L33.3415 30.8417C30.1329 28.9568 27.0581 26.8475 26.5234 26.1743C25.3647 24.7381 24.1616 24.6484 22.9138 25.905C22.2899 26.5333 22.1117 27.1167 22.3345 27.7899C22.7355 29.0465 23.8496 29.9441 24.7854 29.7197C25.6321 29.5402 37.3967 36.1823 37.3521 36.8554C37.3521 37.0798 34.8566 38.7852 31.8263 40.5355C27.9048 42.8243 25.8549 43.8117 24.7409 43.8117C23.6714 43.8117 21.5769 42.8692 17.388 40.4906C14.1795 38.6506 11.1493 36.6759 10.7036 36.1823C9.90151 35.2847 9.81238 34.3871 9.67869 27.8797C9.54501 22.0005 9.67869 20.2951 10.2134 19.218C11.2384 17.2434 23.0921 10.4667 25.0082 10.7808C25.7658 10.8706 28.9743 12.4862 32.1383 14.3262Z" fill="black"/>
<path d="M248.869 26.4951C248.869 28.7163 248.573 30.7278 247.982 32.5295C247.39 34.3311 246.509 35.8552 245.338 37.1015C244.18 38.3479 242.731 39.2549 240.993 39.8226L247.221 46.5048H242.822L237.698 40.3964C237.541 40.3964 237.378 40.4026 237.209 40.4149C237.052 40.4272 236.895 40.4334 236.738 40.4334C234.686 40.4334 232.894 40.1002 231.361 39.4339C229.84 38.7675 228.572 37.8173 227.558 36.5832C226.556 35.3492 225.802 33.8745 225.295 32.1592C224.8 30.4439 224.553 28.5435 224.553 26.458C224.553 23.6938 224.999 21.2689 225.893 19.1834C226.786 17.0979 228.138 15.4752 229.948 14.3152C231.771 13.1552 234.052 12.5752 236.792 12.5752C239.412 12.5752 241.615 13.149 243.401 14.2967C245.2 15.4443 246.557 17.0609 247.475 19.1464C248.404 21.2196 248.869 23.6691 248.869 26.4951ZM227.794 26.4951C227.794 28.7903 228.114 30.7771 228.753 32.4554C229.393 34.1337 230.371 35.4294 231.686 36.3426C233.014 37.2558 234.698 37.7124 236.738 37.7124C238.79 37.7124 240.468 37.2558 241.771 36.3426C243.087 35.4294 244.059 34.1337 244.687 32.4554C245.314 30.7771 245.628 28.7903 245.628 26.4951C245.628 23.0027 244.91 20.2755 243.473 18.3134C242.049 16.339 239.822 15.3518 236.792 15.3518C234.74 15.3518 233.05 15.8022 231.723 16.703C230.395 17.6039 229.405 18.8873 228.753 20.5532C228.114 22.2068 227.794 24.1874 227.794 26.4951Z" fill="white"/>
<path d="M202.201 19.3599C204.533 19.3599 206.298 19.9436 207.494 21.1111C208.69 22.2664 209.288 24.127 209.288 26.693V39.7177H206.345V26.8937C206.345 25.2276 205.969 23.9811 205.215 23.1541C204.473 22.3272 203.331 21.9137 201.788 21.9137C199.611 21.9137 198.08 22.54 197.195 23.7926C196.31 25.0452 195.867 26.8633 195.867 29.2469V39.7177H192.889V19.7247H195.293L195.742 22.6069H195.903C196.322 21.9015 196.854 21.3117 197.5 20.8374C198.146 20.351 198.869 19.9862 199.671 19.7429C200.472 19.4876 201.316 19.3599 202.201 19.3599Z" fill="white"/>
<path d="M187.236 29.7847C187.236 31.4423 187.027 32.9219 186.607 34.2235C186.187 35.5251 185.582 36.624 184.79 37.5204C183.999 38.4168 183.039 39.1044 181.912 39.5833C180.797 40.0499 179.532 40.2831 178.117 40.2831C176.797 40.2831 175.586 40.0499 174.483 39.5833C173.392 39.1044 172.444 38.4168 171.641 37.5204C170.849 36.624 170.232 35.5251 169.788 34.2235C169.356 32.9219 169.141 31.4423 169.141 29.7847C169.141 27.5745 169.506 25.6958 170.238 24.1486C170.969 22.5892 172.013 21.4043 173.368 20.5939C174.735 19.7712 176.36 19.3599 178.242 19.3599C180.041 19.3599 181.612 19.7712 182.955 20.5939C184.31 21.4166 185.36 22.6076 186.103 24.1671C186.859 25.7142 187.236 27.5867 187.236 29.7847ZM172.235 29.7847C172.235 31.4055 172.444 32.8114 172.864 34.0025C173.284 35.1935 173.931 36.1145 174.807 36.7652C175.682 37.416 176.809 37.7414 178.189 37.7414C179.556 37.7414 180.677 37.416 181.552 36.7652C182.44 36.1145 183.093 35.1935 183.513 34.0025C183.933 32.8114 184.143 31.4055 184.143 29.7847C184.143 28.1761 183.933 26.7886 183.513 25.6221C183.093 24.4433 182.446 23.5347 181.57 22.8962C180.695 22.2577 179.562 21.9384 178.171 21.9384C176.12 21.9384 174.615 22.6322 173.656 24.0197C172.708 25.4072 172.235 27.3289 172.235 29.7847Z" fill="white"/>
<path d="M165.181 39.7181H150.479V37.7316L161.538 22.2734H151.178V19.9258H164.942V22.147L154.03 37.3885H165.181V39.7181Z" fill="white"/>
<path d="M138.986 19.3599C141.345 19.3599 143.096 19.9011 144.24 20.9835C145.383 22.066 145.955 23.7942 145.955 26.1682V39.9141H143.77L143.193 36.9251H143.048C142.494 37.6631 141.917 38.2843 141.315 38.7886C140.713 39.2807 140.015 39.6558 139.221 39.9141C138.438 40.1601 137.475 40.2831 136.332 40.2831C135.128 40.2831 134.057 40.0679 133.118 39.6374C132.191 39.2068 131.457 38.5549 130.915 37.6816C130.386 36.8082 130.121 35.7012 130.121 34.3604C130.121 32.3431 130.903 30.7933 132.468 29.7108C134.033 28.6284 136.416 28.0379 139.618 27.9395L143.03 27.7919V26.5557C143.03 24.809 142.663 23.5851 141.929 22.884C141.195 22.1828 140.159 21.8323 138.823 21.8323C137.788 21.8323 136.801 21.986 135.862 22.2936C134.924 22.6011 134.033 22.9639 133.19 23.3822L132.27 21.0573C133.16 20.5899 134.183 20.1902 135.339 19.858C136.494 19.5259 137.71 19.3599 138.986 19.3599ZM142.994 29.9507L139.979 30.0798C137.511 30.1782 135.772 30.5903 134.761 31.316C133.75 32.0418 133.245 33.0689 133.245 34.3973C133.245 35.5536 133.588 36.4085 134.274 36.962C134.96 37.5155 135.868 37.7923 137 37.7923C138.757 37.7923 140.196 37.2941 141.315 36.2978C142.434 35.3014 142.994 33.8069 142.994 31.8142V29.9507Z" fill="white"/>
<path d="M118.388 19.3599C120.582 19.3599 122.237 19.9375 123.352 21.0928C124.467 22.236 125.025 24.0784 125.025 26.6201V39.7177H122.043V26.766C122.043 25.1486 121.691 23.9385 120.988 23.1359C120.297 22.3211 119.267 21.9137 117.897 21.9137C115.97 21.9137 114.569 22.4731 113.697 23.5919C112.824 24.7108 112.387 26.3586 112.387 28.5355V39.7177H109.387V26.766C109.387 25.6837 109.23 24.7837 108.914 24.0662C108.611 23.3487 108.151 22.8136 107.533 22.461C106.926 22.0961 106.157 21.9137 105.223 21.9137C103.902 21.9137 102.841 22.1873 102.041 22.7346C101.241 23.2818 100.659 24.0966 100.296 25.179C99.9442 26.2492 99.7684 27.5687 99.7684 29.1374V39.7177H96.75V19.7247H99.1865L99.6411 22.5522H99.8048C100.205 21.859 100.708 21.2752 101.314 20.801C101.92 20.3267 102.599 19.9679 103.35 19.7247C104.102 19.4815 104.902 19.3599 105.751 19.3599C107.266 19.3599 108.533 19.6457 109.551 20.2172C110.581 20.7766 111.327 21.634 111.787 22.7893H111.951C112.606 21.634 113.503 20.7766 114.642 20.2172C115.782 19.6457 117.03 19.3599 118.388 19.3599Z" fill="white"/>
<path d="M90.1253 39.7189L86.8189 31.3181H76.0548L72.7668 39.7189H69.6074L80.1143 13.1406H82.9247L93.3582 39.7189H90.1253ZM85.8821 28.5842L82.7411 20.2378C82.6676 20.0205 82.5451 19.6645 82.3737 19.1696C82.2145 18.6747 82.0492 18.1618 81.8777 17.6307C81.7063 17.0996 81.5655 16.6711 81.4552 16.3452C81.3328 16.8401 81.1981 17.335 81.0511 17.8298C80.9164 18.3126 80.7817 18.7653 80.647 19.1877C80.5123 19.5981 80.396 19.9481 80.298 20.2378L77.1019 28.5842H85.8821Z" fill="white"/>
</svg>
