<svg width="269" height="45" viewBox="0 0 269 45" fill="none" xmlns="http://www.w3.org/2000/svg">
<path d="M73.7591 12.7179C73.6698 12.4462 73.402 12.3104 73.1341 12.3104H72.7769C72.509 12.3104 72.2857 12.4462 72.1518 12.7179L60.9449 37.2999C60.7217 37.7526 61.0789 38.2959 61.57 38.2506H64.6954C65.1419 38.2506 65.5884 37.979 65.7224 37.5262L67.5083 33.5424H78.2687L80.0546 37.5262C80.1886 37.979 80.6351 38.2959 81.1262 38.2506H84.2516C84.7427 38.2959 85.0999 37.7526 84.8767 37.2999L73.7591 12.7179ZM69.2943 29.5133L72.8662 21.4551L76.4827 29.5586L69.2943 29.5133ZM108.139 12.6726H104.835C104.433 12.6726 104.12 12.9895 104.12 13.3969V28.5174L89.0737 12.3104H88.1807C87.8235 12.3104 87.511 12.6273 87.511 12.9895V37.5715C87.511 37.9337 87.8235 38.2506 88.1807 38.2959H91.4847C91.8865 38.2959 92.1991 37.979 92.1991 37.5715V21.8626L107.246 38.658H108.094C108.451 38.658 108.808 38.3864 108.808 37.979V13.3969C108.808 12.9895 108.496 12.6726 108.139 12.6726ZM124.346 12.7179C124.257 12.4462 123.989 12.3104 123.721 12.3104H123.364C123.096 12.3104 122.873 12.4462 122.739 12.7179L111.487 37.2999C111.264 37.7526 111.577 38.2959 112.112 38.2506H115.238C115.684 38.2506 116.131 37.979 116.265 37.5262L118.14 33.5424H128.811L130.597 37.5262C130.731 37.979 131.177 38.2959 131.624 38.2506H134.749C135.241 38.2959 135.598 37.7526 135.374 37.2999L124.346 12.7179ZM119.837 29.5133L123.364 21.4099H123.453L127.07 29.5133H119.837ZM155.154 31.7316C154.886 31.5052 154.484 31.5052 154.261 31.7316C152.743 33.0444 150.823 33.7688 148.814 33.8141C144.26 33.7688 140.643 29.966 140.732 25.3937C140.598 20.8213 144.215 16.9733 148.724 16.8828C150.778 16.9281 152.743 17.6976 154.261 19.0558C154.484 19.3727 154.931 19.3727 155.154 19.0558L157.342 16.747C157.654 16.4753 157.654 15.9774 157.342 15.7057C154.975 13.4422 151.85 12.1746 148.591 12.2652C145.063 12.1293 141.67 13.4875 139.125 15.9774C136.58 18.4673 135.151 21.8626 135.151 25.439C135.151 29.0153 136.58 32.4107 139.125 34.9005C141.67 37.3904 145.063 38.7033 148.591 38.6128C151.85 38.658 155.02 37.3904 157.342 35.0816C157.61 34.81 157.61 34.3573 157.342 34.0857L155.154 31.7316ZM172.165 12.3104C168.727 12.3104 165.423 13.7138 162.967 16.1584C160.556 18.6483 159.172 21.9984 159.217 25.4842C159.217 32.7276 165.021 38.6128 172.165 38.6128C179.309 38.6128 185.113 32.7276 185.113 25.4842C185.113 21.9984 183.774 18.6031 181.318 16.1584C178.952 13.6686 175.648 12.2652 172.165 12.3104ZM172.165 33.9046C164.753 33.9046 161.048 24.8504 166.316 19.5538C171.54 14.2571 180.514 18.0598 180.47 25.5748C180.425 30.1471 176.764 33.9046 172.165 33.9046ZM209.715 12.6726H206.411C206.009 12.6726 205.696 12.9895 205.696 13.3969V28.5174L190.65 12.3104H189.757C189.399 12.3104 189.087 12.5821 189.042 12.9895V37.5715C189.042 37.979 189.355 38.2506 189.757 38.2959H193.016C193.418 38.2959 193.73 37.979 193.73 37.5715V21.8626L208.822 38.658H209.67C210.027 38.658 210.34 38.3864 210.34 37.979V13.3969C210.384 12.9895 210.117 12.6726 209.715 12.6726ZM224.181 12.6726H215.608C215.251 12.6726 214.939 12.9895 214.939 13.3969V37.5715C214.939 37.9337 215.206 38.2506 215.608 38.2959H224.181C227.619 38.3864 230.923 37.1188 233.379 34.7195C235.834 32.3201 237.218 28.9701 237.218 25.5295C237.218 22.0436 235.834 18.7389 233.379 16.3395C230.923 13.8496 227.619 12.5368 224.181 12.6726ZM223.734 33.8141H219.627V17.1091H223.734C228.289 17.0186 231.95 20.8213 231.86 25.439C231.994 30.0566 228.333 33.8593 223.734 33.8141ZM260.927 37.2999L249.854 12.6726C249.765 12.401 249.497 12.2652 249.229 12.2652H248.872C248.604 12.2652 248.381 12.401 248.247 12.6726L237.04 37.2999C236.816 37.7526 237.174 38.2959 237.665 38.2506H240.79C241.281 38.2506 241.683 37.979 241.862 37.5262L243.603 33.5424H254.408L256.149 37.5262C256.283 37.979 256.73 38.2959 257.221 38.2506H260.346C260.838 38.2959 261.195 37.7526 260.927 37.2999ZM245.389 29.5133L248.916 21.4099H249.05L252.667 29.5133H245.389ZM265.436 37.8432H265.66C265.704 37.8432 265.749 37.7979 265.749 37.7526V37.0735H266.106L266.419 37.7979C266.419 37.8431 266.463 37.8884 266.508 37.8884H266.776C266.865 37.8884 266.91 37.7979 266.865 37.7073C266.776 37.481 266.687 37.2546 266.553 37.0283C266.82 36.9377 266.999 36.6661 266.999 36.3492C266.999 35.9418 266.687 35.6249 266.285 35.6702H265.392C265.347 35.6702 265.302 35.7154 265.302 35.7607V37.7526C265.347 37.7979 265.392 37.8432 265.436 37.8432ZM265.749 36.0776H266.285C266.463 36.0776 266.597 36.2134 266.597 36.3945C266.597 36.5756 266.463 36.7114 266.285 36.6661H265.749V36.0776Z" fill="white"/>
<path d="M266.133 38.6521C267.346 38.7387 268.386 37.7859 268.386 36.5732C268.386 35.3605 267.346 34.4076 266.133 34.4942C263.578 34.7108 263.578 38.4355 266.133 38.6521ZM266.133 34.9273C267.13 34.8407 267.952 35.6203 267.952 36.5732C267.952 37.5693 267.13 38.3056 266.133 38.219C265.137 38.3056 264.314 37.526 264.314 36.5732C264.314 35.577 265.137 34.8407 266.133 34.9273Z" fill="white"/>
<path d="M8.54846 34.2837V34.1051C8.59336 32.8101 8.68316 31.5598 8.86275 30.2648V30.1308H8.72806C7.56068 29.6396 6.39331 29.1038 5.27084 28.4786L5.13614 28.3893L5.04634 28.5233C4.32796 29.9969 3.69938 31.5598 3.20549 33.1227V33.2566H3.38509C5.04635 33.7032 6.7076 34.0158 8.41376 34.1944L8.54846 34.2837ZM12.0506 11.7332C11.0628 11.7332 10.1199 11.8225 9.13214 11.9118C9.26684 12.8942 9.44644 13.832 9.62603 14.8144C10.2995 13.6534 11.1077 12.6263 12.0506 11.7332ZM8.54846 35.4447V35.3107H8.41376C6.977 35.1768 5.54023 34.9535 4.10347 34.5963L3.74428 34.507L3.96877 34.8195C5.27084 36.7397 6.8423 38.4812 8.63826 39.9101L8.95255 40.1334V39.7762C8.72806 38.3472 8.63826 36.8736 8.54846 35.4447ZM15.5078 1.41807C13.8016 1.99858 12.1404 2.80236 10.6138 3.78475C11.7363 3.96337 12.9037 4.2313 13.9812 4.58853C14.4751 3.51683 14.969 2.44512 15.5078 1.41807ZM22.7814 0.212402C21.9283 0.212402 21.0753 0.257058 20.2222 0.346367C21.3895 1.15015 22.5569 2.04323 23.5896 3.02563L24.4876 3.82941L23.6345 4.67784C22.9161 5.39231 22.1977 6.15143 21.5242 6.91056L21.2099 7.31245C21.7487 7.2678 22.2875 7.22314 22.8263 7.22314C27.5856 7.26779 32.0306 9.54517 34.8592 13.2961C37.6878 17.0918 38.5858 21.9591 37.3287 26.5138C36.0266 31.0686 32.7041 34.7302 28.304 36.4717C23.9039 38.2133 18.9201 37.8114 14.8343 35.4C13.7118 35.534 12.5445 35.5787 11.3771 35.5787H9.76073C9.80563 37.3648 9.98522 39.151 10.2546 40.8925C16.1364 44.8221 23.5447 45.7599 30.2346 43.3932C36.9246 41.0265 42.0879 35.668 44.1533 28.9252C46.2186 22.1824 44.9615 14.859 40.741 9.18793C36.5205 3.56148 29.8754 0.212402 22.7814 0.212402ZM19.8181 5.52628C20.2671 4.99042 20.7161 4.49922 21.165 4.00802C20.1324 3.11494 19.0548 2.2665 17.8874 1.55203C17.169 2.7577 16.5405 4.00802 16.0466 5.25835C17.0792 5.61558 18.067 6.01747 19.0548 6.46401C19.2344 6.15143 19.5487 5.83886 19.8181 5.52628ZM4.64225 18.1635L4.73205 18.2974L4.86675 18.2081C5.89942 17.4936 6.977 16.7792 8.09947 16.1987L8.18927 16.1094V16.0201C7.83008 14.7251 7.60558 13.4301 7.42599 12.1351V11.9565H7.24639C5.58513 12.2691 3.96877 12.7156 2.39731 13.2961H2.26261V13.4301C2.8912 15.0823 3.69938 16.6452 4.64225 18.1635ZM4.37286 20.3069L4.23817 20.3962C3.0259 21.3786 1.90342 22.4503 0.825847 23.6113L0.736051 23.7453L0.870749 23.8346C2.03812 24.8616 3.29529 25.7547 4.59736 26.6031L4.73205 26.6924L4.82185 26.5585C5.40554 25.4868 6.07902 24.5044 6.7974 23.522V23.4327L6.70761 23.3434C5.89943 22.4503 5.18104 21.4679 4.46266 20.4855L4.37286 20.3069ZM13.1281 34.373H13.5322L13.2179 34.1497C12.0057 33.1673 10.973 32.0063 10.1648 30.756L9.94032 30.6667V30.8899C9.80563 32.0063 9.71583 33.1673 9.67093 34.2837V34.4176H11.422C11.9159 34.373 12.5445 34.373 13.1281 34.373ZM12.4098 9.76844C12.6343 8.65208 12.9486 7.58038 13.3077 6.50867C11.9159 6.10678 10.4791 5.7942 9.04235 5.61558C8.90765 7.04452 8.90765 8.51812 9.04235 9.94705C10.075 9.85775 11.2424 9.81309 12.4098 9.76844ZM14.5649 9.67913C15.5527 9.05396 16.5854 8.56277 17.6629 8.20554C16.8548 7.8483 16.0915 7.49107 15.2384 7.17849C14.969 8.02692 14.7445 8.83069 14.5649 9.67913ZM4.14837 27.7641L4.01367 27.6748C2.8463 26.9604 1.76872 26.1566 0.691149 25.3082L0.376858 25.0849V25.4421C0.646252 27.5855 1.27484 29.6843 2.12792 31.6044L2.26261 31.9616L2.39731 31.6044C2.8463 30.3541 3.38508 29.1038 3.96877 27.8981L4.14837 27.7641ZM7.0219 6.64263C5.67493 7.98227 4.50756 9.45586 3.56468 11.0634C4.73205 10.7062 5.89942 10.4383 7.06679 10.2596C6.977 9.05397 6.977 7.8483 7.0219 6.64263ZM7.69538 22.2717V21.8698C7.74028 20.5301 7.96477 19.1905 8.36886 17.8955L8.50356 17.5383L8.18927 17.7169C7.33619 18.2081 6.43821 18.7886 5.63003 19.3691L5.49533 19.4584L5.58513 19.5924C6.16882 20.3962 6.7974 21.2 7.42599 21.9591L7.69538 22.2717ZM7.83008 24.549V24.1471L7.60558 24.4597C6.977 25.3082 6.39331 26.2012 5.89942 27.139L5.80963 27.2729L5.94432 27.3623C6.8872 27.8981 7.87498 28.3447 8.86275 28.7912L9.22194 28.9698L9.04235 28.6126C8.45866 27.3176 8.05457 25.978 7.83008 24.549ZM3.47488 19.2352L3.56468 19.1459L3.47488 19.0119C2.7565 17.8955 2.12792 16.7345 1.54423 15.5289L1.40953 15.1716L1.27484 15.5289C0.601353 17.5383 0.242165 19.6371 0.197266 21.7805V22.1823L0.466655 21.9144C1.45443 20.9767 2.44221 20.0836 3.47488 19.2352Z" fill="white"/>
</svg>
