<svg width="184" height="73" viewBox="0 0 184 73" fill="none" xmlns="http://www.w3.org/2000/svg">
<path fill-rule="evenodd" clip-rule="evenodd" d="M39.0781 0.529586C41.4023 4.68285 42.6297 9.61629 42.6297 14.29C42.6297 29.9331 29.909 42.7193 14.283 42.7193C9.63364 42.7193 4.79125 41.5522 0.851562 39.2159C3.75782 39.9939 6.92141 40.6437 10.0207 40.6437C26.8097 40.6437 40.4985 26.8823 40.4985 10.0053C40.4985 6.76052 39.9175 3.31964 39.0781 0.529586ZM85.8937 43.4995C82.9874 44.3433 79.6952 44.8627 76.6603 44.8627C60.6463 44.8627 47.6028 31.751 47.6028 15.7179C47.6028 10.3068 49.182 4.89771 51.998 0.333496H50.6357C46.4833 5.41817 44.0512 11.8442 44.0512 18.5079C44.0512 34.2157 56.7719 47.003 72.3989 47.003C77.0473 47.004 81.8897 45.7712 85.8937 43.4995Z" fill="white"/>
<path fill-rule="evenodd" clip-rule="evenodd" d="M66.3939 55.9762C61.3611 47.3061 51.618 41.8733 41.4871 41.8733C25.4845 41.8733 12.4505 54.9408 12.4505 70.9223C12.4505 71.3734 12.4712 71.8932 12.5054 72.4109H12.3385C11.9818 70.4763 11.7402 68.5614 11.7402 66.7172C11.7402 51.059 24.4518 38.3138 40.0666 38.3138C51.5527 38.3127 62.006 45.3652 66.3939 55.9762ZM96.3989 19.7459L99.6899 27.9627H102.399L91.6886 2.40674H88.7201L78.0739 27.9627H80.7831L84.0741 19.7459H96.3989ZM95.6887 18.0628H84.7843L87.5589 11.0113C88.3977 8.81158 89.3008 6.54738 90.1396 4.08878H90.3335C91.2365 6.61288 92.1396 8.81158 92.9784 11.1413L95.6887 18.0628ZM104.852 14.1821V23.7566C104.852 25.3742 105.175 26.4085 105.755 27.1206C106.401 27.8972 107.562 28.286 108.853 28.286C109.884 28.286 110.852 28.0272 111.692 27.5739C112.466 27.1851 113.112 26.6674 113.756 26.0852H113.885L113.821 28.0261H116.143V14.2465H113.821V24.3387C113.207 25.0114 112.488 25.5794 111.692 26.0208C110.981 26.3441 110.208 26.6029 109.562 26.6029C108.593 26.6029 108.013 26.2141 107.69 25.8264C107.174 25.1787 107.108 24.2088 107.108 23.1089V14.2455L104.852 14.1821ZM119.564 14.1821H118.145V15.7352H119.564V23.8865C119.564 27.0562 120.724 28.286 122.79 28.286C123.758 28.286 124.468 27.9627 125.048 27.6384L124.661 26.1507C124.339 26.3451 123.888 26.604 123.306 26.604C122.337 26.604 121.821 25.5041 121.821 23.1754V15.6697H124.209V14.1166H121.821V11.1402H119.499L119.564 14.1821ZM140.664 21.0402C140.664 16.1229 137.759 13.8587 133.501 13.8587C129.243 13.8587 126.341 16.1229 126.341 21.0402C126.341 25.4396 128.663 28.286 133.501 28.286C138.276 28.286 140.664 25.4396 140.664 21.1046V21.0402ZM133.501 26.7973C130.599 26.7973 128.727 24.792 128.727 21.0391C128.727 17.0284 130.986 15.3453 133.501 15.3453C136.019 15.3453 138.276 17.0274 138.276 21.0391C138.276 24.662 136.404 26.7973 133.501 26.7973ZM151.504 15.2819H151.44C150.665 14.3764 149.505 13.8587 148.147 13.8587C144.535 13.8587 142.793 16.5117 142.793 21.1046C142.793 25.763 144.794 28.2216 148.02 28.2216C149.696 28.2216 150.729 27.5094 151.375 26.9273H151.439V27.6394C151.439 29.8391 151.18 31.1979 150.664 32.0389C150.082 32.8155 149.244 33.2032 148.406 33.2032C147.632 33.2032 146.986 33.0099 146.534 32.62C146.018 32.2323 145.695 31.7145 145.501 30.938L143.114 31.1968C143.63 32.4267 144.403 33.2677 145.179 33.7854C146.147 34.433 147.308 34.6909 148.47 34.6909C150.212 34.6909 151.631 34.1077 152.469 33.0099C153.374 31.779 153.761 30.2269 153.761 27.3795V14.1821H151.438L151.504 15.2819ZM145.181 21.1691C145.181 17.675 146.084 15.5397 148.602 15.5397C149.891 15.5397 150.86 16.2519 151.504 17.1573V24.9209C150.794 25.8274 149.891 26.6029 148.537 26.6029C146.471 26.604 145.181 24.5331 145.181 21.1691ZM168.798 21.4279C168.798 18.9693 168.216 16.964 166.992 15.6052C165.83 14.4409 164.41 13.8577 162.668 13.8577C160.667 13.8577 159.184 14.4409 158.088 15.5397C156.86 16.7696 156.279 18.645 156.279 20.9747C156.279 23.6277 156.861 25.4386 158.023 26.604C159.184 27.7693 160.862 28.286 162.668 28.286C164.604 28.286 165.894 27.7683 166.862 27.1206C167.831 26.4085 168.477 25.5686 168.798 24.7275L166.41 24.5331C165.637 26.0863 164.409 26.9273 162.733 26.9273C160.797 26.9273 158.796 25.633 158.666 21.4279H168.798ZM158.666 20.2636C158.861 16.7051 160.538 15.2175 162.667 15.2175C164.668 15.2175 166.215 17.1584 166.475 20.2636H158.666ZM183.38 27.9627V18.4526C183.38 16.8351 183.058 15.7996 182.412 15.0231C181.766 14.2465 180.67 13.9232 179.316 13.9232C178.347 13.9232 177.444 14.1176 176.604 14.5054C175.701 14.9586 174.863 15.4763 174.025 16.1229H173.96V14.2465H171.638V28.0272H173.96V17.9994C174.606 17.2873 175.637 16.5762 176.348 16.2518C177.122 15.8641 177.833 15.6697 178.541 15.6697C179.574 15.6697 180.156 15.993 180.542 16.4463C180.994 17.0939 181.124 18.0638 181.124 19.1637V28.0272L183.38 27.9627Z" fill="white"/>
</svg>
