<svg width="264" height="45" viewBox="0 0 264 45" fill="none" xmlns="http://www.w3.org/2000/svg">
<path d="M46.5274 44.7006C59.4134 44.7006 69.8595 34.7038 69.8595 22.372C69.8595 10.0403 59.4134 0.043457 46.5274 0.043457C33.6415 0.043457 23.1953 10.0403 23.1953 22.372C23.1953 34.7038 33.6415 44.7006 46.5274 44.7006Z" fill="white"/>
<path d="M23.1926 44.7006C35.94 44.7006 46.2738 34.7038 46.2738 22.372C46.2738 10.0403 35.94 0.043457 23.1926 0.043457C10.4451 0.043457 0.111328 10.0403 0.111328 22.372C0.111328 34.7038 10.4451 44.7006 23.1926 44.7006Z" fill="white"/>
<path d="M46.2765 22.3721C46.2765 34.704 35.9427 44.7006 23.1953 44.7006V22.3721H46.2765ZM23.1953 22.3721C23.1953 10.0404 33.5291 0.043457 46.2765 0.043457V22.3721H23.1953Z" fill="#1E1E1E"/>
<path d="M246.48 11.584H253.254C256.243 11.584 258.49 12.0249 259.995 12.9067C261.501 13.7885 262.253 15.2887 262.253 17.4071C262.253 18.3212 262.073 19.1439 261.713 19.8751C261.364 20.5956 260.852 21.1925 260.175 21.6656C259.499 22.1388 258.665 22.4668 257.672 22.6496V22.8109C258.719 22.9722 259.646 23.2679 260.454 23.6981C261.261 24.1282 261.893 24.7305 262.352 25.5047C262.81 26.279 263.039 27.263 263.039 28.4566C263.039 29.9084 262.695 31.1343 262.008 32.1344C261.332 33.1345 260.372 33.8927 259.128 34.4088C257.885 34.9143 256.412 35.167 254.711 35.167H246.48V11.584ZM249.262 21.6979H253.843C255.927 21.6979 257.367 21.3592 258.163 20.6817C258.97 20.0042 259.374 19.0148 259.374 17.7136C259.374 16.3694 258.894 15.4016 257.934 14.8101C256.985 14.2187 255.469 13.9229 253.385 13.9229H249.262V21.6979ZM249.262 24.0046V32.828H254.236C256.363 32.828 257.868 32.4194 258.752 31.6021C259.635 30.7741 260.077 29.6611 260.077 28.2631C260.077 27.3705 259.875 26.607 259.472 25.9725C259.079 25.338 258.436 24.8541 257.541 24.5208C256.658 24.1766 255.474 24.0046 253.991 24.0046H249.262Z" fill="white"/>
<path d="M240.96 23.1497C240.96 25.8058 240.48 28.0265 239.521 29.8116C238.561 31.586 237.17 32.9248 235.347 33.8281C233.535 34.7207 231.333 35.167 228.743 35.167H222.395V11.584H229.446C231.824 11.584 233.871 12.0249 235.587 12.9067C237.303 13.7778 238.625 15.0736 239.553 16.7942C240.491 18.504 240.96 20.6225 240.96 23.1497ZM238.098 23.2464C238.098 21.1279 237.746 19.3805 237.042 18.004C236.349 16.6275 235.326 15.6059 233.972 14.9392C232.629 14.2617 230.982 13.9229 229.031 13.9229H225.113V32.8119H228.423C231.643 32.8119 234.057 32.0108 235.667 30.4084C237.287 28.8061 238.098 26.4188 238.098 23.2464Z" fill="white"/>
<path d="M201.157 17.1035C203.25 17.1035 204.804 17.5837 205.819 18.5442C206.833 19.5047 207.34 21.0381 207.34 23.1446V35.3414H205.402L204.889 32.6892H204.761C204.27 33.3441 203.757 33.8953 203.223 34.3428C202.689 34.7793 202.07 35.1122 201.365 35.3414C200.671 35.5597 199.816 35.6689 198.802 35.6689C197.734 35.6689 196.783 35.4778 195.95 35.0958C195.128 34.7138 194.476 34.1354 193.996 33.3605C193.526 32.5855 193.291 31.6033 193.291 30.4136C193.291 28.6236 193.985 27.2484 195.374 26.288C196.762 25.3275 198.877 24.8036 201.717 24.7163L204.745 24.5853V23.4884C204.745 21.9386 204.419 20.8526 203.768 20.2305C203.117 19.6084 202.198 19.2973 201.013 19.2973C200.094 19.2973 199.218 19.4337 198.385 19.7066C197.552 19.9795 196.762 20.3014 196.014 20.6725L195.197 18.6097C195.988 18.195 196.895 17.8402 197.921 17.5455C198.946 17.2509 200.025 17.1035 201.157 17.1035ZM204.713 26.5008L202.038 26.6154C199.848 26.7027 198.305 27.0683 197.408 27.7123C196.511 28.3562 196.062 29.2676 196.062 30.4463C196.062 31.4723 196.367 32.2308 196.976 32.722C197.584 33.2131 198.391 33.4587 199.395 33.4587C200.954 33.4587 202.23 33.0167 203.223 32.1326C204.217 31.2485 204.713 29.9224 204.713 28.1543V26.5008Z" fill="white"/>
<path d="M183.269 17.1035C185.255 17.1035 186.752 17.6161 187.762 18.6412C188.771 19.6555 189.276 21.2903 189.276 23.5455V35.1671H186.577V23.675C186.577 22.2399 186.259 21.1662 185.622 20.454C184.997 19.731 184.064 19.3696 182.825 19.3696C181.08 19.3696 179.813 19.8659 179.023 20.8587C178.233 21.8514 177.838 23.3135 177.838 25.2451V35.1671H175.123V23.675C175.123 22.7147 174.98 21.9162 174.695 21.2795C174.421 20.6429 174.004 20.1681 173.444 19.8551C172.896 19.5314 172.199 19.3696 171.354 19.3696C170.158 19.3696 169.199 19.6123 168.474 20.0979C167.75 20.5835 167.224 21.3065 166.895 22.2668C166.576 23.2164 166.417 24.3872 166.417 25.7792V35.1671H163.686V17.4272H165.891L166.302 19.9361H166.45C166.812 19.321 167.268 18.803 167.816 18.3822C168.365 17.9614 168.979 17.643 169.659 17.4272C170.34 17.2114 171.064 17.1035 171.832 17.1035C173.203 17.1035 174.349 17.3571 175.271 17.8643C176.204 18.3606 176.878 19.1214 177.295 20.1465H177.443C178.036 19.1214 178.848 18.3606 179.879 17.8643C180.91 17.3571 182.04 17.1035 183.269 17.1035Z" fill="white"/>
<path d="M159.175 26.3535C159.175 27.8243 158.983 29.1372 158.599 30.2921C158.215 31.447 157.661 32.4221 156.937 33.2174C156.213 34.0128 155.335 34.6229 154.303 35.0478C153.283 35.4618 152.125 35.6689 150.83 35.6689C149.623 35.6689 148.515 35.4618 147.506 35.0478C146.507 34.6229 145.64 34.0128 144.905 33.2174C144.181 32.4221 143.616 31.447 143.21 30.2921C142.815 29.1372 142.617 27.8243 142.617 26.3535C142.617 24.3924 142.952 22.7254 143.621 21.3526C144.291 19.9689 145.245 18.9176 146.485 18.1985C147.736 17.4685 149.223 17.1035 150.946 17.1035C152.592 17.1035 154.029 17.4685 155.258 18.1985C156.498 18.9285 157.458 19.9853 158.139 21.369C158.83 22.7418 159.175 24.4033 159.175 26.3535ZM145.448 26.3535C145.448 27.7917 145.64 29.0392 146.024 30.096C146.408 31.1528 147.001 31.9699 147.802 32.5474C148.603 33.1248 149.634 33.4136 150.896 33.4136C152.147 33.4136 153.173 33.1248 153.974 32.5474C154.786 31.9699 155.384 31.1528 155.768 30.096C156.152 29.0392 156.344 27.7917 156.344 26.3535C156.344 24.9262 156.152 23.6951 155.768 22.66C155.384 21.6141 154.792 20.8079 153.991 20.2413C153.19 19.6748 152.153 19.3915 150.88 19.3915C149.003 19.3915 147.626 20.0071 146.749 21.2382C145.882 22.4694 145.448 24.1745 145.448 26.3535Z" fill="white"/>
<path d="M137.99 17.1035C138.34 17.1035 138.706 17.1251 139.088 17.1683C139.469 17.2006 139.809 17.2492 140.106 17.3139L139.772 19.8066C139.485 19.731 139.167 19.6717 138.817 19.6285C138.468 19.5854 138.139 19.5638 137.831 19.5638C137.132 19.5638 136.469 19.7095 135.843 20.0008C135.228 20.2814 134.688 20.6914 134.221 21.2309C133.755 21.7597 133.389 22.4017 133.124 23.1571C132.859 23.9016 132.726 24.7325 132.726 25.6497V35.1671H130.07V17.4272H132.265L132.551 20.6968H132.663C133.023 20.0386 133.458 19.4397 133.967 18.9002C134.476 18.3498 135.064 17.9128 135.732 17.5891C136.411 17.2654 137.163 17.1035 137.99 17.1035Z" fill="white"/>
<path d="M112.228 10.0781V17.5756C112.228 18.0056 112.217 18.4409 112.195 18.8816C112.173 19.3116 112.135 19.7093 112.08 20.0747H112.261C112.634 19.4513 113.106 18.93 113.677 18.5108C114.259 18.0808 114.918 17.7583 115.654 17.5433C116.389 17.3176 117.169 17.2047 117.992 17.2047C119.442 17.2047 120.649 17.4305 121.616 17.8819C122.593 18.3334 123.323 19.0321 123.806 19.978C124.3 20.9239 124.547 22.1493 124.547 23.6542V35.1664H121.846V23.8315C121.846 22.3589 121.5 21.2571 120.809 20.5262C120.128 19.7953 119.079 19.4298 117.663 19.4298C116.323 19.4298 115.253 19.6824 114.451 20.1876C113.661 20.6821 113.09 21.413 112.739 22.3804C112.398 23.3478 112.228 24.5302 112.228 25.9276V35.1664H109.494V10.0781H112.228Z" fill="white"/>
<path d="M99.396 13.5363C98.0738 13.5363 96.8826 13.7653 95.8226 14.2233C94.7736 14.6704 93.8775 15.3248 93.1344 16.1863C92.4023 17.0369 91.8395 18.0675 91.4461 19.278C91.0527 20.4885 90.856 21.8517 90.856 23.3676C90.856 25.3742 91.1674 27.1191 91.7903 28.6023C92.4241 30.0745 93.3639 31.2141 94.6097 32.0211C95.8664 32.8282 97.4345 33.2317 99.3141 33.2317C100.385 33.2317 101.39 33.1444 102.33 32.9699C103.281 32.7845 104.204 32.5555 105.1 32.2829V34.7039C104.226 35.0311 103.308 35.271 102.347 35.4237C101.385 35.5873 100.243 35.669 98.9207 35.669C96.4838 35.669 94.4457 35.1674 92.8066 34.1641C91.1783 33.1499 89.9544 31.7212 89.1349 29.8782C88.3262 28.0352 87.9219 25.8595 87.9219 23.3512C87.9219 21.5409 88.1732 19.8887 88.6759 18.3947C89.1895 16.8897 89.9326 15.592 90.9052 14.5014C91.8886 13.4109 93.0907 12.5711 94.5113 11.9822C95.9428 11.3824 97.582 11.0825 99.4288 11.0825C100.642 11.0825 101.811 11.2025 102.937 11.4424C104.062 11.6823 105.078 12.0258 105.985 12.473L104.871 14.8286C104.106 14.4796 103.264 14.1797 102.347 13.9289C101.44 13.6671 100.456 13.5363 99.396 13.5363Z" fill="white"/>
</svg>
