<svg width="157" height="53" viewBox="0 0 157 53" fill="none" xmlns="http://www.w3.org/2000/svg">
<path d="M82.5271 49.9643C81.3634 50.2631 80.278 50.083 79.2065 49.8502C77.1282 49.3986 75.1847 48.6999 73.7003 47.2411C73.03 46.5824 72.1279 46.3453 71.3516 46.8741C66.4536 50.2099 61.1342 50.9845 55.5054 49.3038C51.9784 48.2506 49.6832 45.8131 48.5604 42.2881C48.4405 41.9115 48.0175 41.7276 47.6465 41.8617C45.5023 42.637 43.3204 42.7899 41.0992 42.2006C40.6721 42.0873 40.2725 41.946 39.9002 41.7768C37.6942 40.7739 34.1671 40.1551 32.9576 42.2588C32.423 43.1885 31.9323 44.1384 31.5236 45.1354C29.6483 49.7101 25.4366 51.4064 20.9556 49.3861C20.5159 49.1879 20.1979 49.2983 19.8272 49.4718C17.2159 50.6937 14.4815 51.2968 11.5859 51.2316C5.1163 51.0859 0.297927 46.1883 0.199326 39.6925C0.134054 35.3923 1.62551 31.5995 3.81384 28.0264C5.74372 24.8753 8.17584 22.1933 11.3744 20.271C16.4602 17.2145 21.568 18.1388 25.2927 22.792C25.6224 23.2037 26.1277 23.2592 26.4403 22.8343C26.471 22.7926 26.5022 22.7518 26.5352 22.7132C27.9418 21.0692 29.6306 19.9125 31.8261 19.6485C34.0931 19.3759 36.0248 20.0255 37.4155 21.8957C37.8203 22.4401 38.0905 22.4498 38.6306 22.1222C42.1598 19.9813 45.8095 19.3803 49.5795 21.477C50.2756 21.8642 50.978 22.1269 51.7461 22.2597C51.8616 22.2796 51.9362 22.128 51.8965 22.0175C51.7582 21.6331 51.5448 21.3128 51.2069 21.0622C48.781 19.2632 47.718 16.7124 47.3158 13.8314C46.9678 11.3389 47.2288 8.90849 48.3398 6.61739C49.9897 3.21521 52.8471 1.3983 56.4086 0.577828C59.1455 -0.0526748 61.9206 0.0397089 64.7108 0.183794C68.1856 0.363225 71.6382 0.711478 75.0819 1.1752C80.9114 1.96021 86.6968 3.00858 92.4598 4.18025C99.1663 5.54373 105.87 6.92366 112.569 8.32287C113.065 8.42646 113.356 8.32575 113.678 7.96398C117.156 4.06385 121.477 1.69378 126.667 1.12803C131.86 0.561927 136.885 1.10172 141.347 4.18092C142.98 5.30762 144.327 6.7237 145.272 8.47722C145.596 9.07751 145.881 9.09673 146.458 8.82998C149.5 7.42384 153.539 8.25076 155.404 10.6792C157.309 13.1595 157.217 15.8013 155.808 18.4581C154.909 20.1541 153.718 21.6428 152.223 22.8557C151.683 23.2939 151.497 23.6649 151.75 24.4055C152.328 26.0957 151.988 27.8034 151.495 29.4636C150.67 32.2386 149.609 34.9385 148.864 37.7399C148.214 40.1823 147.794 42.6618 147.697 45.186C147.662 46.0923 147.773 47.0067 147.858 47.9138C147.888 48.237 147.852 48.4878 147.608 48.709C145.99 50.1749 144.289 51.5121 142.186 52.2222C138.881 53.3376 136.449 52.3507 134.836 49.2469C134.752 49.0866 134.532 49.0561 134.363 49.1191C133.425 49.4686 132.488 49.8519 131.469 49.9915C128.394 50.4127 125.651 49.8427 123.529 47.3976C123.141 46.9508 122.882 47.1254 122.522 47.3658C120.408 48.7777 118.107 49.3997 115.579 48.8993C111.901 48.1713 109.612 45.6303 109.16 41.8261C109.107 41.3805 108.668 41.3494 108.393 41.7036C107.723 42.5676 107.071 43.4268 106.366 44.2405C104.308 46.6165 102.032 48.7375 98.9173 49.6254C94.7188 50.8222 90.9859 49.7622 87.6858 47.0341C87.1317 46.576 86.8744 46.5845 86.4024 47.0855C85.3018 48.2536 84.2021 49.4487 82.5271 49.9643ZM66.1249 3.30851C63.3728 3.19962 60.6148 2.96021 57.8744 3.40476C55.6885 3.75936 53.685 4.55556 52.1755 6.26757C50.2846 8.41223 50.0201 10.9905 50.3661 13.6816C50.5529 15.134 51.0616 16.4852 51.9996 17.6487C53.8666 19.9644 56.6366 19.9767 58.4705 17.6665C58.6872 17.3935 58.9086 17.1238 59.1164 16.8442C60.3015 15.2492 61.9136 14.3678 63.8451 14.0815C67.0747 13.6028 70.3071 13.9121 73.5284 14.182C76.8823 14.4629 80.2293 14.8343 83.5746 15.209C87.3989 15.6374 91.2193 16.1025 95.039 16.5713C99.1503 17.0759 103.26 17.5913 107.367 18.1332C107.757 18.1847 108.165 18.1785 108.554 18.2412C109.035 18.3187 109.278 18.7755 109.036 19.1988C107.702 21.528 106.537 23.9435 105.405 26.3747C103.751 29.9231 102.317 33.5725 100.535 37.0607C99.7775 38.5421 98.9858 40.0168 97.7513 41.1697C97.1221 41.7573 96.3454 42.4212 95.4857 42.0752C94.5611 41.703 94.6016 40.6379 94.5334 39.7587C94.3912 37.9269 94.8944 36.2017 95.4118 34.4762C96.1194 32.1156 97.0266 29.8146 97.5194 27.3899C97.9792 25.1276 96.8449 23.7107 94.5538 23.6704C92.6358 23.6367 91.4031 24.7375 90.4664 26.2272C89.2218 28.2066 88.4353 30.4219 87.3835 32.5026C85.9562 35.3261 84.6542 38.218 82.8838 40.853C82.5261 41.3854 82.2098 42.2376 81.4577 42.0787C80.6909 41.9168 80.6732 41.0279 80.5345 40.3489C80.2526 38.9683 80.5621 37.6243 80.8159 36.2856C81.4696 32.8371 82.5492 29.4853 83.1603 26.0259C83.4785 24.2248 82.393 22.8662 80.5737 22.7096C78.628 22.5422 77.2985 23.5055 76.2611 24.9928C74.537 27.4645 73.9737 30.3225 73.5569 33.2379C73.4232 34.173 73.7438 35.2376 73.0729 36.0314C71.2635 38.1721 69.1303 39.9052 66.4208 40.7734C64.6404 41.3438 62.8726 41.2387 61.2244 40.2866C60.5985 39.9251 60.1481 39.4303 59.8397 38.837C59.5266 38.2344 59.8802 37.6148 60.558 37.6192C61.5753 37.6258 62.59 37.639 63.5968 37.4378C66.7809 36.8013 69.4282 35.3805 70.7416 32.227C72.1742 28.7873 71.2122 24.6105 67.1316 23.2524C63.8513 22.1606 60.6793 22.5158 57.9132 24.6506C53.2094 28.281 50.9198 33.1353 51.0815 39.1037C51.1804 42.7526 53.2921 45.5089 56.763 46.5366C59.0056 47.2006 61.2917 47.258 63.5923 46.8721C67.4195 46.2301 70.4109 44.1776 72.9269 41.319C72.9533 41.289 72.9783 41.2569 73.003 41.2238C73.3189 40.8 73.8493 41.0847 73.9847 41.5961C74.7743 44.5786 76.7043 46.2404 79.7092 46.8824C81.2113 47.2033 82.3492 46.9544 83.3998 45.8516C84.7906 44.3915 86.0354 42.8173 87.253 41.2162C87.306 41.1464 87.3505 41.0633 87.3988 40.9837C87.5965 40.6572 87.9828 40.832 88.0536 41.2073C88.3436 42.7445 88.8387 44.2055 90.1572 45.1571C92.9222 47.1527 96.7736 47.9238 100.084 45.776C102.072 44.4858 103.671 42.8084 105.098 40.9507C107.639 37.6441 109.67 34.0147 111.687 30.3779C113.598 26.9306 115.419 23.4326 117.445 20.0486C117.727 19.5777 118.025 19.3394 118.596 19.4161C120.529 19.6756 122.468 19.8931 124.401 20.1459C128.047 20.6224 131.691 20.9119 135.343 20.2021C137.516 19.7795 139.636 19.1936 141.369 17.733C143.234 16.1607 143.93 14.1343 143.333 11.7442C142.762 9.4618 141.286 7.80443 139.391 6.54104C135.331 3.83495 130.784 3.62086 126.173 4.29907C121.564 4.97703 117.906 7.39752 115.093 11.0953C114.687 11.6284 114.311 11.8081 113.612 11.6651C105.573 10.0225 97.5601 8.25668 89.501 6.71383C81.8071 5.24088 74.0975 3.88841 66.1249 3.30851ZM26.5301 46.6854C27.541 46.1277 28.1979 45.2449 28.6154 44.2096C29.5446 41.9051 30.8407 39.8076 32.1797 37.7371C34.1177 34.7405 36.1373 31.8014 38.7107 29.2956C39.1752 28.8433 39.6871 28.4564 40.2664 28.1686C40.6456 27.9803 41.0402 27.9437 41.4064 28.2149C41.7812 28.4925 41.8109 28.8956 41.7492 29.306C41.6762 29.7919 41.4257 30.2102 41.1845 30.6292C40.475 31.8619 39.7779 33.1009 39.4368 34.5003C38.7732 37.2221 39.93 38.9834 42.6625 39.4174C42.7682 39.4342 42.872 39.4652 42.9781 39.4763C45.7007 39.7613 48.5199 38.7536 49.7009 35.7951C49.9143 35.2607 49.872 34.988 49.2687 34.7863C48.1306 34.4059 47.9111 33.9086 48.256 32.7538C48.3477 32.4467 48.4727 32.1488 48.595 31.8518C48.9929 30.886 49.4709 29.9536 49.7486 28.9383C50.4554 26.3542 49.2065 24.1857 46.6327 23.4815C44.8664 22.9982 43.1875 23.2435 41.5515 23.9786C39.1445 25.0601 37.3314 26.8761 35.6199 28.817C35.3053 29.1738 35.0288 28.8999 35.1618 28.4427C35.3371 27.8406 35.5086 27.247 35.6377 26.6443C36.0925 24.5208 34.7668 22.6342 32.7406 22.6116C31.208 22.5945 29.9815 23.3631 28.9819 24.4978C28.2505 25.3282 27.686 26.2703 27.1787 27.2487C25.2491 30.9706 23.7185 34.8609 22.3442 38.8154C22.1604 39.3442 21.8734 39.7458 21.4541 40.1117C19.1171 42.1509 16.3845 43.149 13.3156 43.2943C11.323 43.3886 10.0087 42.1934 9.84542 40.2024C9.65159 37.8394 10.0894 35.6312 11.2156 33.5339C12.7725 30.6344 14.5041 27.8739 17.0411 25.719C17.4648 25.3591 17.9895 24.758 18.5675 25.2231C19.1344 25.6792 18.6999 26.3242 18.4475 26.8402C17.7626 28.2407 17.1494 29.6686 16.7614 31.181C16.2612 33.131 16.9255 34.8021 18.6025 35.91C19.9641 36.8095 20.5566 36.6249 21.1473 35.1196C21.2256 34.92 21.3179 34.7259 21.3979 34.5269C22.068 32.8607 23.0323 31.3224 23.5513 29.5914C23.9846 28.1462 24.2497 26.6465 23.3455 25.322C20.9884 21.8691 17.6801 20.4401 13.7168 22.4621C9.92593 24.3961 7.43911 27.5616 5.48822 31.2262C3.8443 34.3142 2.78342 37.5481 3.3769 41.1053C3.90939 44.2971 5.64466 46.5645 8.75351 47.6347C11.7944 48.6816 14.764 48.2301 17.6868 47.1023C19.745 46.308 22.0556 47.0924 24.259 47.1874C24.9532 47.2173 25.6992 47.0477 26.5301 46.6854ZM113.597 34.0869C112.98 35.9092 112.204 37.6848 112.389 39.6955C112.479 40.6693 113.015 41.9211 113.366 42.6561C113.564 43.0694 113.75 43.3574 114.092 43.6618C114.389 43.9264 114.814 44.2293 115.137 44.4624C115.945 45.0465 117.637 46.0833 118.981 45.668C120.616 45.1628 121.882 44.0939 123.106 42.9576C123.153 42.9134 123.2 42.8673 123.245 42.8202C123.79 42.2523 124.446 42.4329 124.666 43.19C125.301 45.3865 126.881 46.7382 129.135 46.9904C132.077 47.3194 134.296 45.9941 136.19 43.9092C136.61 43.4471 137.066 43.7133 137.045 44.338C137.04 44.4999 137.037 44.6611 137.052 44.8212C137.099 45.355 137.139 45.89 137.208 46.4211C137.393 47.833 137.965 48.4618 139.328 48.784C139.537 48.8332 139.741 48.897 139.947 48.9576C141.502 49.4174 142.673 48.611 143.868 47.8047C144.72 47.2304 144.623 46.3567 144.631 45.5591C144.65 43.6178 144.896 41.7091 145.255 39.8095C145.879 36.5037 146.988 33.3385 148.062 30.1642C148.45 29.0194 148.795 27.8649 148.963 26.6643C149.177 25.1347 148.514 24.2445 147.017 23.9853C145.596 23.739 144.438 24.2641 143.439 25.2014C141.363 27.1485 140.134 29.6383 139.342 32.2973C138.605 34.7691 137.328 36.8931 135.851 38.9401C135.381 39.5918 134.904 40.2434 134.242 40.7228C133.495 41.2633 133.021 41.0934 132.772 40.1996C132.518 39.2863 132.733 38.3836 132.87 37.489C133.228 35.1688 134.12 33.0019 134.852 30.7905C135.291 29.4661 135.709 28.1411 135.926 26.7563C136.204 24.9825 135.406 24.0178 133.643 23.9796C132.771 23.9607 131.986 24.1894 131.312 24.7003C130.798 25.0892 130.485 25.1379 130.127 24.513C129.743 23.845 129.122 23.4071 128.38 23.1683C125.975 22.3934 123.602 22.4916 121.379 23.7012C119.132 24.9237 117.296 27.6103 116.638 28.7643C116.474 29.0528 116.568 28.9291 115.98 29.7534C115.158 30.9075 114.179 32.4734 113.597 34.0869ZM147.314 21.4568C147.789 21.8388 148.263 21.7277 148.718 21.4297C149.314 21.0399 149.71 20.4779 150.07 19.871C150.317 19.4546 150.374 19.0856 150.086 18.6837C149.812 18.3007 149.425 18.2872 149.009 18.3344C148.111 18.4363 147.672 19.0802 147.194 19.75C146.767 20.3487 146.671 20.8395 147.314 21.4568Z" fill="white"/>
<path d="M123.745 10.8449C127.005 7.45228 132.026 7.97011 134.96 9.96488C135.67 10.4479 136.296 11.0396 136.684 11.8562C137.18 12.9023 136.903 13.8329 135.934 14.3895C135.16 14.834 134.313 14.9823 133.447 15.0106C129.951 15.1246 126.544 14.5515 123.202 13.4946C122.451 13.2573 122.383 13.0711 122.749 12.3039C123 11.7799 123.34 11.3237 123.745 10.8449Z" fill="white"/>
<path d="M64.7059 32.2636C63.4802 33.5673 61.9367 34.1609 60.1899 34.3793C59.5672 34.4571 59.3006 34.3061 59.4813 33.6537C59.9921 31.8089 60.8082 30.1256 62.2834 28.7636C62.4615 28.5992 62.6502 28.4412 62.852 28.3028C63.766 27.6759 64.7461 27.5826 65.4189 28.0479C66.0854 28.5088 66.2408 29.2892 65.8763 30.3268C65.6305 31.0263 65.2808 31.6714 64.7059 32.2636Z" fill="white"/>
<path d="M125.731 33.7744C124.736 35.6042 123.577 37.2489 121.985 38.5615C121.488 38.9713 120.933 39.6641 120.212 39.2568C119.551 38.8839 119.788 38.0651 119.93 37.4857C120.73 34.2163 122.178 31.2226 124.274 28.5355C124.707 27.9804 125.271 27.5453 125.973 27.3128C126.798 27.04 127.216 27.2671 127.442 28.0695C127.617 28.6922 127.46 29.2869 127.323 29.8776C127.009 31.2347 126.441 32.501 125.731 33.7744Z" fill="white"/>
</svg>
