<svg width="267" height="92" viewBox="0 0 267 92" fill="none" xmlns="http://www.w3.org/2000/svg">
<line x1="45.6887" y1="0.984375" x2="45.6887" y2="91.11" stroke="white" stroke-width="0.6"/>
<line x1="90.4512" y1="46.3474" x2="0.325539" y2="46.3474" stroke="white" stroke-width="0.6"/>
<circle cx="45.7045" cy="46.0473" r="31.3276" stroke="white"/>
<path d="M45.3878 19.2612C47.8146 33.0997 58.6501 43.9352 72.4885 46.3619C58.6501 48.7887 47.8146 59.6242 45.3878 73.4627C42.9611 59.6242 32.1255 48.7887 18.2871 46.3619C32.1255 43.9352 42.9611 33.0997 45.3878 19.2612Z" fill="#D9D9D9"/>
<path d="M45.7029 28.7158L45.7464 28.9681C47.2723 37.8278 54.1846 44.7826 63.0348 46.3628C54.1846 47.943 47.2723 54.8978 45.7464 63.7575L45.7029 64.0098L45.6595 63.7575C44.1336 54.8978 37.2213 47.943 28.3711 46.3628C37.2213 44.7826 44.1336 37.8278 45.6595 28.9681L45.7029 28.7158Z" fill="#1E1E1E"/>
<line x1="18.5871" y1="14.2197" x2="18.5871" y2="77.8749" stroke="white" stroke-width="0.6"/>
<line x1="70.9016" y1="14.2197" x2="70.9016" y2="77.8749" stroke="white" stroke-width="0.6"/>
<line x1="76.2715" y1="20.1916" x2="12.6163" y2="20.1916" stroke="white" stroke-width="0.6"/>
<line x1="76.2715" y1="72.7026" x2="12.6163" y2="72.7026" stroke="white"/>
<path d="M252.387 54.2727C252.387 55.2838 252.808 56.1264 253.651 56.8005C254.522 57.4746 255.533 57.8116 256.684 57.8116C258.313 57.8116 259.76 57.2077 261.024 56C262.316 54.7923 262.962 53.3739 262.962 51.7449C261.754 50.7899 260.069 50.3125 257.906 50.3125C256.333 50.3125 255.013 50.6916 253.946 51.45C252.907 52.2083 252.387 53.1492 252.387 54.2727ZM257.401 39.2744C260.265 39.2744 262.526 40.0468 264.183 41.5916C265.841 43.1082 266.669 45.2007 266.669 47.8689V60.5922H262.962V57.7273H262.793C261.192 60.0866 259.058 61.2662 256.389 61.2662C254.114 61.2662 252.205 60.5922 250.66 59.244C249.143 57.8959 248.385 56.2107 248.385 54.1884C248.385 52.0538 249.185 50.3546 250.786 49.0907C252.415 47.8268 254.578 47.1948 257.274 47.1948C259.577 47.1948 261.473 47.6161 262.962 48.4587V47.574C262.962 46.2259 262.428 45.0883 261.361 44.1615C260.294 43.2065 259.044 42.7291 257.611 42.7291C255.449 42.7291 253.735 43.6419 252.471 45.4675L249.059 43.3189C250.941 40.6226 253.721 39.2744 257.401 39.2744Z" fill="white"/>
<path d="M217.774 60.5922H213.898V39.9485H217.606V42.8133H217.774C218.364 41.8022 219.263 40.9596 220.471 40.2855C221.707 39.6115 222.928 39.2744 224.136 39.2744C225.653 39.2744 226.987 39.6255 228.138 40.3277C229.29 41.0298 230.133 41.9988 230.666 43.2346C232.379 40.5945 234.753 39.2744 237.786 39.2744C240.173 39.2744 242.013 40.0047 243.305 41.4652C244.597 42.9257 245.243 45.0041 245.243 47.7004V60.5922H241.367V48.2902C241.367 46.3522 241.016 44.962 240.314 44.1194C239.612 43.2487 238.432 42.8133 236.775 42.8133C235.286 42.8133 234.037 43.4453 233.025 44.7092C232.014 45.9731 231.509 47.4617 231.509 49.175V60.5922H227.633V48.2902C227.633 46.3522 227.282 44.962 226.58 44.1194C225.877 43.2487 224.698 42.8133 223.041 42.8133C221.552 42.8133 220.302 43.4453 219.291 44.7092C218.28 45.9731 217.774 47.4617 217.774 49.175V60.5922Z" fill="white"/>
<path d="M181.897 60.5922H178.021V39.9485H181.729V42.8133H181.897C182.487 41.8022 183.386 40.9596 184.594 40.2855C185.83 39.6115 187.051 39.2744 188.259 39.2744C189.776 39.2744 191.11 39.6255 192.261 40.3277C193.413 41.0298 194.256 41.9988 194.789 43.2346C196.502 40.5945 198.876 39.2744 201.909 39.2744C204.297 39.2744 206.136 40.0047 207.428 41.4652C208.72 42.9257 209.366 45.0041 209.366 47.7004V60.5922H205.49V48.2902C205.49 46.3522 205.139 44.962 204.437 44.1194C203.735 43.2487 202.555 42.8133 200.898 42.8133C199.409 42.8133 198.16 43.4453 197.148 44.7092C196.137 45.9731 195.632 47.4617 195.632 49.175V60.5922H191.756V48.2902C191.756 46.3522 191.405 44.962 190.703 44.1194C190 43.2487 188.821 42.8133 187.164 42.8133C185.675 42.8133 184.425 43.4453 183.414 44.7092C182.403 45.9731 181.897 47.4617 181.897 49.175V60.5922Z" fill="white"/>
<path d="M164.702 61.2662C161.669 61.2662 159.169 60.227 157.203 58.1486C155.237 56.0702 154.254 53.4441 154.254 50.2703C154.254 47.1246 155.209 44.5126 157.119 42.4342C159.029 40.3277 161.472 39.2744 164.449 39.2744C167.511 39.2744 169.94 40.2715 171.738 42.2656C173.563 44.2317 174.476 46.9982 174.476 50.5652L174.434 50.9865H158.214C158.27 53.0088 158.944 54.6378 160.236 55.8736C161.528 57.1094 163.073 57.7273 164.871 57.7273C167.342 57.7273 169.28 56.4915 170.685 54.0199L174.139 55.7051C173.212 57.4465 171.92 58.8087 170.263 59.7917C168.634 60.7747 166.781 61.2662 164.702 61.2662ZM158.509 47.7847H170.348C170.235 46.3522 169.645 45.1726 168.578 44.2457C167.539 43.2908 166.135 42.8133 164.365 42.8133C162.905 42.8133 161.641 43.2627 160.573 44.1615C159.534 45.0603 158.846 46.268 158.509 47.7847Z" fill="white"/>
<path d="M151.604 46.7308C151.604 50.9438 150.354 54.3002 147.854 56.7999C145.045 59.7771 141.352 61.2656 136.774 61.2656C132.392 61.2656 128.685 59.749 125.652 56.7156C122.618 53.6823 121.102 49.9467 121.102 45.509C121.102 41.0714 122.618 37.3358 125.652 34.3025C128.685 31.2691 132.392 29.7524 136.774 29.7524C138.993 29.7524 141.085 30.1457 143.051 30.9321C145.017 31.7185 146.632 32.8279 147.896 34.2603L145.116 37.0409C144.189 35.9175 142.981 35.0468 141.492 34.4289C140.032 33.7829 138.459 33.4599 136.774 33.4599C133.488 33.4599 130.707 34.5974 128.432 36.8724C126.185 39.1755 125.062 42.0544 125.062 45.509C125.062 48.9637 126.185 51.8426 128.432 54.1457C130.707 56.4207 133.488 57.5582 136.774 57.5582C139.779 57.5582 142.279 56.7156 144.273 55.0304C146.267 53.3452 147.419 51.0281 147.728 48.079H136.774V44.4558H151.393C151.533 45.2422 151.604 46.0006 151.604 46.7308Z" fill="white"/>
</svg>
