<svg width="179" height="62" viewBox="0 0 179 62" fill="none" xmlns="http://www.w3.org/2000/svg">
<path d="M99.5481 0.975586C88.0981 0.975586 78.7832 10.2905 78.7832 21.7417C78.7832 33.1928 88.0981 42.5066 99.5481 42.5066C110.998 42.5066 120.314 33.1917 120.314 21.7417C120.314 10.2917 110.997 0.975586 99.5481 0.975586ZM99.5481 34.7202C92.3916 34.7202 86.5696 28.897 86.5696 21.7417C86.5696 14.5863 92.3916 8.76316 99.5481 8.76316C106.705 8.76316 112.527 14.5851 112.527 21.7417C112.527 28.8982 106.706 34.7202 99.5481 34.7202Z" fill="white"/>
<path d="M70.8794 1.05639C70.1701 0.976922 69.4572 0.93485 68.7444 0.930176C68.3891 0.930176 68.0491 0.940693 67.7008 0.946536C67.3526 0.952379 67.0067 0.985099 66.6596 1.00613C65.2608 1.11598 63.876 1.35555 62.5216 1.72015C59.7999 2.4552 57.1764 3.73365 54.9081 5.54966C52.606 7.38437 50.7619 9.72742 49.5197 12.3965C48.9003 13.7264 48.4434 15.1264 48.1583 16.5649C48.0169 17.2754 47.9129 17.993 47.8474 18.7152C47.824 19.0739 47.7831 19.4338 47.7785 19.7914L47.7656 20.3278L47.7598 20.5966V20.8186L47.7773 27.773L47.7948 34.7274L47.8427 41.6806H55.6303L55.6794 34.7274L55.6969 27.7718L55.7145 20.8175V20.6048L55.7203 20.4388L55.7296 20.1058C55.7296 19.8826 55.7624 19.6676 55.7752 19.4467C55.8173 19.0143 55.8816 18.5843 55.968 18.1589C56.1387 17.3222 56.4051 16.5077 56.7604 15.7317C57.4767 14.1751 58.546 12.8079 59.884 11.7363C61.2349 10.6471 62.8535 9.83377 64.6029 9.34997C65.4875 9.10807 66.3932 8.94797 67.307 8.87318C67.5384 8.86032 67.7686 8.83812 68.0012 8.82994C68.2337 8.82176 68.4709 8.81475 68.6965 8.81591C69.144 8.81591 69.5846 8.84513 70.031 8.88603C71.805 9.06482 73.524 9.60939 75.077 10.4847L78.9638 3.73483C76.4805 2.2916 73.7285 1.38126 70.8794 1.05639Z" fill="white"/>
<path d="M21.1606 0.870605C9.70947 0.870605 0.394531 10.1855 0.394531 21.6355C0.394531 33.0855 9.70947 42.4016 21.1606 42.4016H27.9899V34.614H21.1606C14.0041 34.614 8.18211 28.7921 8.18211 21.6355C8.18211 14.479 14.0041 8.65701 21.1606 8.65701C28.3171 8.65701 34.1695 14.479 34.1695 21.6355V40.7597C34.1695 47.8695 28.3803 53.6599 21.288 53.7347C17.8944 53.7067 14.6492 52.3429 12.2559 49.9368L6.7494 55.4432C10.5661 59.2798 15.7371 61.4627 21.1478 61.5211V61.5246C21.1945 61.5246 21.2413 61.5246 21.2868 61.5246H21.4329V61.5211C32.7204 61.368 41.8601 52.1665 41.9127 40.8532L41.9197 21.126C41.6486 9.91209 32.44 0.870605 21.1606 0.870605Z" fill="white"/>
<path d="M145.396 0.975586C133.946 0.975586 124.631 10.2905 124.631 21.7417C124.631 33.1928 133.946 42.5066 145.396 42.5066H152.501V34.7202H145.396C138.239 34.7202 132.417 28.897 132.417 21.7417C132.417 14.5863 138.239 8.76316 145.396 8.76316C152.173 8.76316 157.75 13.9845 158.323 20.6163H158.311V60.4891H166.099V21.7417C166.096 10.2905 156.846 0.975586 145.396 0.975586Z" fill="white"/>
<path d="M178.004 2.03027H176.894L175.38 4.38267L173.816 2.03027H172.695V6.21855H173.947V4.1805L175.057 5.82589H175.662L176.753 4.12908L176.773 6.21855H178.024L178.004 2.03027Z" fill="white"/>
<path d="M168.111 3.0306H169.474V6.21855H170.847V3.0306H172.219V2.03027H168.111V3.0306Z" fill="white"/>
</svg>
