<svg width="354" height="62" viewBox="0 0 354 62" fill="none" xmlns="http://www.w3.org/2000/svg">
<path d="M65.9052 49.5792C66.4304 51.092 66.3043 52.703 65.604 54.1039C65.0998 55.1265 64.3786 55.9179 63.4963 56.6253C62.4319 57.4657 61.1084 58.1802 59.5119 58.8666C57.6073 59.6791 55.2824 60.4425 54.218 60.7227C51.494 61.4301 48.8751 61.8783 46.2211 61.8994C42.4258 61.9343 39.1556 61.0379 36.8307 58.7475C35.6264 58.8946 34.4079 58.9786 33.1825 58.9786C32.0201 58.9786 30.8717 58.9087 29.7303 58.7686C27.3984 61.0449 24.1422 61.9343 20.3608 61.8994C17.7069 61.8783 15.0879 61.4301 12.357 60.7227C11.2996 60.4425 8.97481 59.6791 7.07014 58.8666C5.47357 58.1802 4.15009 57.4657 3.09271 56.6253C2.20339 55.9179 1.48214 55.1265 0.97796 54.1039C0.284712 52.703 0.151664 51.092 0.683854 49.5792C0.193679 48.4235 0.067634 47.0998 0.452771 45.6359C0.627834 44.9706 0.914937 44.3541 1.27907 43.8078C1.20204 43.5207 1.13902 43.2265 1.097 42.9043C0.830907 40.9852 1.49614 39.2341 2.74959 37.8754C3.36581 37.196 4.03105 36.7267 4.7243 36.4255C4.21312 34.2542 3.94703 32.02 3.94703 29.7366C3.94703 13.5853 17.0347 0.494629 33.1825 0.494629C38.7285 0.494629 43.9173 2.03552 48.3429 4.72509C49.1411 5.21538 49.9254 5.74068 50.6748 6.30101C51.0459 6.58118 51.417 6.86834 51.7741 7.16952C52.1382 7.46368 52.4953 7.77186 52.8385 8.08704C53.8749 9.0326 54.8482 10.0482 55.7375 11.1338C56.0387 11.491 56.3258 11.8622 56.6058 12.2405C57.173 12.9899 57.6982 13.7674 58.1814 14.5728C58.9166 15.7776 59.5608 17.0382 60.1211 18.348C60.4922 19.2236 60.8144 20.12 61.1014 21.0376C61.5286 22.4104 61.8578 23.8252 62.0818 25.2821C62.1518 25.7654 62.2149 26.2556 62.2638 26.7459C62.3619 27.7265 62.4179 28.7211 62.4179 29.7366C62.4179 31.992 62.1518 34.2052 61.6546 36.3415C62.4249 36.6426 63.1531 37.1329 63.8324 37.8754C65.0858 39.2341 65.7511 40.9921 65.485 42.9113C65.443 43.2265 65.38 43.5207 65.303 43.8078C65.6671 44.3541 65.9542 44.9706 66.1292 45.6359C66.5143 47.0998 66.3883 48.4235 65.9052 49.5792Z" fill="white"/>
<path d="M58.1396 30.1859C58.1396 16.8177 47.167 5.98057 33.6317 5.98057C20.0964 5.98057 9.12379 16.8177 9.12379 30.1859C9.12379 43.5541 20.0964 54.3912 33.6317 54.3912C47.167 54.3912 58.1396 43.5541 58.1396 30.1859ZM6.30273 30.1859C6.30273 15.2789 18.5384 3.19434 33.6317 3.19434C48.725 3.19434 60.9606 15.2789 60.9606 30.1859C60.9606 45.0929 48.725 57.1774 33.6317 57.1774C18.5384 57.1774 6.30273 45.0929 6.30273 30.1859Z" fill="black"/>
<path d="M33.6317 54.4779C47.2344 54.4779 58.2615 43.6017 58.2615 30.1855C58.2615 16.7692 47.2344 5.89307 33.6317 5.89307C20.029 5.89307 9.00195 16.7692 9.00195 30.1855C9.00195 43.6017 20.029 54.4779 33.6317 54.4779Z" fill="white"/>
<path d="M27.2346 54.0222C29.2038 51.2287 29.0642 49.1323 26.3624 46.5201C23.6605 43.9086 22.0878 40.088 22.0878 40.088C22.0878 40.088 21.5004 37.869 20.1623 38.0731C18.8243 38.2773 17.8418 41.5934 20.6446 43.6221C23.4473 45.6501 20.0864 47.0281 19.0081 45.1234C17.9298 43.2185 14.9854 38.3216 13.4585 37.3851C11.9322 36.4486 10.8575 36.9733 11.2174 38.9037C11.5773 40.8341 17.9606 45.513 17.3395 46.5255C16.7184 47.5376 14.5297 45.3358 14.5297 45.3358C14.5297 45.3358 7.68055 39.3066 6.18938 40.8777C4.69821 42.4489 7.32063 43.7654 11.0579 45.9539C14.7958 48.1417 15.0856 48.7196 14.5553 49.5475C14.0244 50.3752 5.77437 43.647 4.99945 46.4993C4.22524 49.3516 13.4191 50.1794 12.8517 52.1485C12.2843 54.1184 6.37541 48.4214 5.16688 50.6411C3.95763 52.8615 13.5049 55.4702 13.5823 55.4895C16.6662 56.2634 24.4985 57.9031 27.2346 54.0222Z" fill="white"/>
<path d="M12.2113 34.2349C11.0651 34.2349 10.0407 34.6925 9.32632 35.5227C8.88454 36.0369 8.42294 36.8656 8.38542 38.1066C7.90472 37.9724 7.44241 37.8973 7.01055 37.8973C5.91319 37.8973 4.92204 38.3062 4.22114 39.049C3.32061 40.0022 2.92061 41.1737 3.09476 42.3459C3.1776 42.9041 3.36946 43.4046 3.65619 43.8678C3.05158 44.3434 2.60627 45.0056 2.39104 45.802C2.22255 46.4263 2.04981 47.7265 2.95175 49.066C2.89441 49.1534 2.8406 49.2442 2.79034 49.3372C2.24803 50.338 2.21334 51.4688 2.69193 52.522C3.4176 54.1181 5.22079 55.3757 8.72241 56.7256C10.9008 57.5652 12.8938 58.1021 12.9115 58.1069C15.7915 58.8331 18.3961 59.202 20.6509 59.202C24.7955 59.202 27.7626 57.9679 29.4702 55.534C32.2186 51.6148 31.8255 48.0301 28.2695 44.5747C26.3013 42.6626 24.993 39.8432 24.7204 39.2244C24.171 37.3921 22.7182 35.3554 20.3034 35.3554H20.3027C20.0994 35.3554 19.8941 35.3712 19.6918 35.4023C18.634 35.5639 17.7094 36.156 17.0489 37.0466C16.336 36.1848 15.6436 35.4993 15.017 35.1124C14.0725 34.5301 13.1288 34.2349 12.2113 34.2349ZM12.2113 36.9882C12.5724 36.9882 13.0134 37.1374 13.4998 37.4376C15.0099 38.3688 17.9239 43.2387 18.9908 45.1329C19.3483 45.7675 19.9594 46.036 20.5094 46.036C21.6011 46.036 22.4534 44.9809 20.6092 43.64C17.8361 41.6225 18.8089 38.3249 20.1328 38.1218C20.1908 38.1128 20.2481 38.1087 20.3034 38.1087C21.5069 38.1087 22.038 40.1254 22.038 40.1254C22.038 40.1254 23.594 43.9249 26.2674 46.522C28.9406 49.1196 29.0787 51.2045 27.1303 53.9825C25.8014 55.8768 23.2577 56.1239 20.6509 56.1239C17.9473 56.1239 15.1708 55.6605 13.6175 55.2688C13.5411 55.2496 4.09938 52.8283 5.29584 50.6202C5.49691 50.2491 5.82824 50.1005 6.24523 50.1005C7.9302 50.1005 10.995 52.5385 12.3125 52.5385C12.6071 52.5385 12.8265 52.317 12.9115 52.0197C13.4977 49.9675 4.36345 49.3378 5.13018 46.5013C5.2654 45.9996 5.63212 45.7958 6.14754 45.7965C8.3741 45.7965 13.3695 49.6035 14.4167 49.6035C14.4966 49.6035 14.5539 49.5808 14.5851 49.5326C15.1097 48.7094 14.8681 48.0392 11.1704 45.8635C7.47267 43.6869 4.83142 42.4733 6.30754 40.9109C6.47744 40.7304 6.71815 40.6506 7.01055 40.6506C9.25552 40.6513 14.5596 45.3442 14.5596 45.3442C14.5596 45.3442 15.9911 46.7917 16.857 46.7917C17.0559 46.7917 17.2252 46.7154 17.3398 46.5267C17.9536 45.5204 11.6385 40.8674 11.2824 38.9477C11.041 37.6468 11.4516 36.9882 12.2113 36.9882Z" fill="black"/>
<path d="M39.9835 54.0222C38.0707 51.2287 38.2061 49.1323 40.8308 46.5201C43.4554 43.9086 44.9833 40.088 44.9833 40.088C44.9833 40.088 45.554 37.869 46.8537 38.0731C48.1536 38.2773 49.1079 41.5934 46.3853 43.6221C43.6626 45.6501 46.9274 47.0281 47.9749 45.1234C49.0224 43.2185 51.8826 38.3216 53.366 37.3851C54.8487 36.4486 55.8926 36.9733 55.543 38.9037C55.1933 40.8341 48.9925 45.513 49.5958 46.5255C50.1992 47.5376 52.3255 45.3358 52.3255 45.3358C52.3255 45.3358 58.9789 39.3066 60.4274 40.8777C61.876 42.4489 59.3284 43.7654 55.6981 45.9539C52.0668 48.1417 51.7854 48.7196 52.3005 49.5475C52.8162 50.3752 60.8306 43.647 61.5834 46.4993C62.3354 49.3516 53.4042 50.1794 53.9555 52.1485C54.5066 54.1184 60.2467 48.4214 61.4207 50.6411C62.5953 52.8615 53.3208 55.4702 53.2457 55.4895C50.2499 56.2634 42.6415 57.9031 39.9835 54.0222Z" fill="white"/>
<path d="M54.3769 34.2349C55.5231 34.2349 56.5475 34.6925 57.2618 35.5227C57.7036 36.0369 58.1653 36.8656 58.2028 38.1066C58.6834 37.9724 59.1457 37.8973 59.5776 37.8973C60.6749 37.8973 61.6661 38.3062 62.367 39.049C63.2676 40.0022 63.6676 41.1737 63.4934 42.3459C63.4106 42.9041 63.2188 43.4046 62.9319 43.8678C63.5366 44.3434 63.9819 45.0056 64.1972 45.802C64.3656 46.4263 64.5384 47.7265 63.6364 49.066C63.6937 49.1534 63.7475 49.2442 63.7978 49.3372C64.3402 50.338 64.3748 51.4688 63.8962 52.522C63.1706 54.1181 61.3674 55.3757 57.8658 56.7256C55.6874 57.5652 53.6943 58.1021 53.6767 58.1069C50.7967 58.8331 48.192 59.202 45.9372 59.202C41.7926 59.202 38.8255 57.9679 37.118 55.534C34.3697 51.6148 34.7625 48.0301 38.3187 44.5747C40.2868 42.6626 41.5951 39.8432 41.8677 39.2244C42.4171 37.3921 43.8699 35.3554 46.2848 35.3554H46.2855C46.4887 35.3554 46.694 35.3712 46.8965 35.4023C47.9541 35.5639 48.8787 36.156 49.5393 37.0466C50.2523 36.1848 50.9447 35.4993 51.5712 35.1124C52.5156 34.5301 53.4593 34.2349 54.3769 34.2349ZM54.3769 36.9882C54.0158 36.9882 53.5747 37.1374 53.0884 37.4376C51.5782 38.3688 48.6643 43.2387 47.5973 45.1329C47.2398 45.7675 46.6289 46.036 46.0787 46.036C44.987 46.036 44.1347 44.9809 45.9789 43.64C48.7521 41.6225 47.7794 38.3249 46.4554 38.1218C46.3973 38.1128 46.34 38.1087 46.2848 38.1087C45.0812 38.1087 44.5503 40.1254 44.5503 40.1254C44.5503 40.1254 42.9941 43.9249 40.3209 46.522C37.6475 49.1196 37.5094 51.2045 39.4578 53.9825C40.7867 55.8768 43.3304 56.1239 45.9372 56.1239C48.6408 56.1239 51.4173 55.6605 52.9706 55.2688C53.047 55.2496 62.4889 52.8283 61.2924 50.6202C61.0912 50.2491 60.76 50.1005 60.3429 50.1005C58.658 50.1005 55.5932 52.5385 54.2756 52.5385C53.9811 52.5385 53.7616 52.317 53.6767 52.0197C53.0904 49.9675 62.2247 49.3378 61.458 46.5013C61.3228 45.9996 60.956 45.7958 60.4407 45.7965C58.2141 45.7965 53.2186 49.6035 52.1716 49.6035C52.0915 49.6035 52.0342 49.5808 52.003 49.5326C51.4784 48.7094 51.72 48.0392 55.4177 45.8635C59.1156 43.6869 61.7568 42.4733 60.2806 40.9109C60.1108 40.7304 59.8699 40.6506 59.5776 40.6506C57.3327 40.6513 52.0285 45.3442 52.0285 45.3442C52.0285 45.3442 50.597 46.7917 49.7312 46.7917C49.5322 46.7917 49.3631 46.7154 49.2483 46.5267C48.6345 45.5204 54.9496 40.8674 55.3058 38.9477C55.5472 37.6468 55.1365 36.9882 54.3769 36.9882Z" fill="black"/>
<path d="M42.7427 30.6013C42.7427 27.3944 38.6693 32.2821 33.6329 32.3039C28.5969 32.2823 24.5234 27.3947 24.5234 30.6013C24.5234 32.7275 25.5198 36.1855 28.1956 38.2835C28.7281 36.4129 31.6539 34.9144 32.0721 35.1296C32.6676 35.436 32.6342 36.2851 33.6329 37.0333C34.6317 36.2851 34.5983 35.4362 35.1938 35.1296C35.6123 34.9144 38.5378 36.4129 39.0701 38.2835C41.746 36.1855 42.7425 32.7275 42.7425 30.6016L42.7427 30.6013Z" fill="#0E1116"/>
<path d="M34.8402 35.6031C34.249 35.8946 34.2822 36.7023 33.2906 37.414C32.299 36.7023 32.3322 35.8948 31.741 35.6031C31.3256 35.3984 28.4211 36.8238 27.8926 38.6033C29.2358 39.6123 31.0055 40.2905 33.289 40.307C33.2895 40.307 33.29 40.307 33.2908 40.307C33.2915 40.307 33.292 40.307 33.2928 40.307C35.5763 40.2908 37.346 39.6123 38.6892 38.6033C38.1607 36.8238 35.256 35.3984 34.8408 35.6031H34.8402Z" fill="white"/>
<path d="M49.8207 26.8109C51.1251 26.8109 52.1825 25.7535 52.1825 24.4492C52.1825 23.1448 51.1251 22.0874 49.8207 22.0874C48.5164 22.0874 47.459 23.1448 47.459 24.4492C47.459 25.7535 48.5164 26.8109 49.8207 26.8109Z" fill="black"/>
<path d="M17.4301 26.8109C18.7345 26.8109 19.7919 25.7535 19.7919 24.4492C19.7919 23.1448 18.7345 22.0874 17.4301 22.0874C16.1257 22.0874 15.0684 23.1448 15.0684 24.4492C15.0684 25.7535 16.1257 26.8109 17.4301 26.8109Z" fill="black"/>
<path d="M41.8614 23.1954C42.8072 23.4822 43.1835 25.1519 44.1389 24.7157C45.9482 23.8895 46.6353 21.9599 45.6732 20.406C44.7111 18.8521 42.4643 18.2623 40.6549 19.0885C38.8454 19.9147 38.1585 21.8441 39.1206 23.398C39.5747 24.1315 41.016 22.939 41.8614 23.1954Z" fill="#0E1116"/>
<path d="M25.3913 23.1954C24.4455 23.4822 24.0692 25.1519 23.1139 24.7157C21.3044 23.8895 20.6175 21.9599 21.5796 20.406C22.5417 18.8521 24.7884 18.2623 26.5979 19.0885C28.4073 19.9147 29.0942 21.8441 28.1321 23.398C27.678 24.1315 26.2367 22.939 25.3913 23.1954Z" fill="#0E1116"/>
<path d="M343.427 24.1128C345.461 24.1128 347.204 24.567 348.657 25.4754C350.11 26.3839 351.221 27.6586 351.991 29.2996C352.761 30.926 353.146 32.8308 353.146 35.014V37.2777H336.65C336.694 40.1056 337.391 42.2594 338.742 43.7393C340.093 45.2191 341.996 45.9591 344.451 45.9591C345.962 45.9591 347.299 45.8199 348.461 45.5415C349.623 45.2631 350.829 44.8528 352.078 44.3107V47.5195C350.873 48.0617 349.674 48.4573 348.483 48.7063C347.306 48.9554 345.911 49.08 344.299 49.08C342.004 49.08 339.999 48.6111 338.285 47.6734C336.585 46.721 335.263 45.329 334.319 43.4975C333.374 41.666 332.902 39.4242 332.902 36.7722C332.902 34.1788 333.331 31.937 334.188 30.0469C335.06 28.1421 336.28 26.6769 337.849 25.6513C339.432 24.6256 341.292 24.1128 343.427 24.1128ZM343.384 27.1018C341.452 27.1018 339.912 27.7392 338.764 29.0139C337.616 30.2887 336.934 32.0689 336.716 34.3546H349.354C349.34 32.9187 349.115 31.6586 348.679 30.5744C348.258 29.4755 347.611 28.6256 346.74 28.0249C345.868 27.4095 344.749 27.1018 343.384 27.1018Z" fill="white"/>
<path d="M322.268 49.08C320.104 49.08 318.196 48.6331 316.544 47.7393C314.892 46.8455 313.605 45.4829 312.684 43.6514C311.763 41.8199 311.303 39.5122 311.303 36.7283C311.303 33.8125 311.785 31.4315 312.75 29.5854C313.73 27.7245 315.075 26.3472 316.785 25.4535C318.496 24.5597 320.44 24.1128 322.619 24.1128C323.818 24.1128 324.973 24.2373 326.084 24.4864C327.21 24.7209 328.131 25.0212 328.847 25.3875L327.751 28.4425C327.02 28.1494 326.172 27.8857 325.207 27.6513C324.256 27.4168 323.365 27.2996 322.531 27.2996C320.864 27.2996 319.476 27.6586 318.364 28.3766C317.268 29.0945 316.442 30.1495 315.886 31.5414C315.345 32.9334 315.075 34.6477 315.075 36.6843C315.075 38.633 315.338 40.296 315.864 41.6733C316.405 43.0506 317.202 44.1056 318.255 44.8382C319.322 45.5561 320.652 45.9151 322.246 45.9151C323.518 45.9151 324.666 45.7833 325.689 45.5195C326.713 45.2411 327.641 44.9188 328.474 44.5525V47.8052C327.67 48.2155 326.771 48.5305 325.777 48.7503C324.797 48.9701 323.628 49.08 322.268 49.08Z" fill="white"/>
<path d="M296.614 24.1128C299.53 24.1128 301.694 24.7586 303.107 26.0503C304.52 27.3419 305.227 29.4042 305.227 32.237V48.6396H302.527L301.813 45.0729H301.635C300.95 45.9536 300.236 46.6948 299.493 47.2966C298.749 47.8837 297.886 48.3314 296.904 48.6396C295.937 48.9332 294.747 49.08 293.334 49.08C291.846 49.08 290.523 48.8231 289.362 48.3094C288.217 47.7957 287.309 47.0177 286.64 45.9756C285.985 44.9335 285.658 43.6124 285.658 42.0125C285.658 39.6054 286.625 37.7559 288.559 36.4643C290.493 35.1726 293.438 34.4681 297.395 34.3507L301.612 34.1745V32.6994C301.612 30.6151 301.159 29.1547 300.251 28.318C299.344 27.4814 298.064 27.0631 296.413 27.0631C295.134 27.0631 293.914 27.2465 292.754 27.6135C291.594 27.9804 290.493 28.4134 289.451 28.9125L288.314 26.1383C289.414 25.5806 290.679 25.1036 292.107 24.7072C293.535 24.3109 295.037 24.1128 296.614 24.1128ZM301.568 36.7505L297.841 36.9046C294.792 37.022 292.642 37.5138 291.393 38.3798C290.143 39.2458 289.518 40.4714 289.518 42.0566C289.518 43.4363 289.942 44.4564 290.79 45.1169C291.638 45.7774 292.761 46.1077 294.16 46.1077C296.331 46.1077 298.109 45.5132 299.493 44.3243C300.876 43.1354 301.568 41.352 301.568 38.9742V36.7505Z" fill="white"/>
<path d="M269.084 48.4045H265.42V16.6895H282.964V19.9434H269.084V31.5708H282.124V34.8031H269.084V48.4045Z" fill="white"/>
<path d="M247.001 59.2018C243.825 59.2018 241.376 58.6134 239.655 57.4365C237.935 56.2741 237.074 54.6395 237.074 52.5327C237.074 51.0362 237.552 49.7576 238.508 48.6969C239.479 47.6362 240.817 46.9315 242.523 46.5828C241.891 46.2922 241.347 45.8564 240.891 45.2752C240.449 44.694 240.229 44.0256 240.229 43.2701C240.229 42.3983 240.472 41.6355 240.957 40.9817C241.457 40.3133 242.214 39.674 243.229 39.0638C241.964 38.5552 240.935 37.698 240.141 36.492C239.361 35.2715 238.971 33.8549 238.971 32.2421C238.971 30.5276 239.332 29.0674 240.052 27.8614C240.773 26.6409 241.817 25.7111 243.185 25.0717C244.553 24.4324 246.207 24.1128 248.149 24.1128C248.575 24.1128 249.002 24.1346 249.428 24.1782C249.869 24.2072 250.288 24.2581 250.685 24.3307C251.083 24.3889 251.428 24.4615 251.722 24.5487H260.017V26.8807L255.561 27.4255C256.002 27.9922 256.37 28.6751 256.664 29.4742C256.958 30.2733 257.105 31.1597 257.105 32.1331C257.105 34.516 256.289 36.4121 254.656 37.8215C253.024 39.2163 250.781 39.9137 247.928 39.9137C247.251 39.9137 246.56 39.8556 245.854 39.7394C245.134 40.1317 244.582 40.5676 244.2 41.0471C243.832 41.5265 243.648 42.0787 243.648 42.7034C243.648 43.1684 243.788 43.5389 244.067 43.8149C244.362 44.091 244.781 44.2944 245.325 44.4252C245.869 44.5414 246.523 44.5995 247.288 44.5995H251.546C254.178 44.5995 256.193 45.1444 257.59 46.2341C259.002 47.3238 259.708 48.9148 259.708 51.0071C259.708 53.6515 258.62 55.6784 256.443 57.0877C254.267 58.4971 251.119 59.2018 247.001 59.2018ZM247.112 56.3685C249.112 56.3685 250.766 56.1651 252.075 55.7583C253.399 55.366 254.384 54.7921 255.031 54.0365C255.693 53.2955 256.024 52.4092 256.024 51.3776C256.024 50.4187 255.804 49.6922 255.362 49.1982C254.921 48.7187 254.274 48.399 253.421 48.2392C252.568 48.0649 251.524 47.9777 250.288 47.9777H246.097C245.009 47.9777 244.06 48.1448 243.251 48.479C242.442 48.8131 241.817 49.3071 241.376 49.961C240.949 50.6148 240.736 51.4285 240.736 52.4019C240.736 53.6951 241.288 54.6758 242.391 55.3442C243.494 56.0271 245.067 56.3685 247.112 56.3685ZM248.06 37.2766C249.81 37.2766 251.127 36.8407 252.009 35.969C252.892 35.0972 253.333 33.8258 253.333 32.1549C253.333 30.3678 252.884 29.0311 251.987 28.1448C251.09 27.2439 249.766 26.7935 248.016 26.7935C246.34 26.7935 245.045 27.2585 244.134 28.1883C243.236 29.1037 242.788 30.4477 242.788 32.2203C242.788 33.8476 243.244 35.0972 244.156 35.969C245.067 36.8407 246.369 37.2766 248.06 37.2766Z" fill="white"/>
<path d="M224.284 24.1128C227.163 24.1128 229.341 24.8093 230.818 26.2025C232.294 27.5811 233.033 29.8013 233.033 32.8633V48.4052H229.4V33.1027C229.4 31.1146 228.935 29.6272 228.005 28.6404C227.09 27.6536 225.679 27.1602 223.775 27.1602C221.087 27.1602 219.197 27.9076 218.105 29.4023C217.012 30.897 216.466 33.0664 216.466 35.9107V48.4052H212.789V24.5481H215.757L216.311 27.9874H216.51C217.027 27.1457 217.684 26.4419 218.481 25.876C219.279 25.2955 220.172 24.8601 221.161 24.5699C222.15 24.2652 223.191 24.1128 224.284 24.1128Z" fill="white"/>
<path d="M204.979 24.8326V48.4045H201.618V24.8326H204.979ZM203.339 16.0146C203.892 16.0146 204.364 16.2082 204.756 16.5953C205.161 16.9681 205.363 17.556 205.363 18.3589C205.363 19.1475 205.161 19.7354 204.756 20.1225C204.364 20.5097 203.892 20.7032 203.339 20.7032C202.759 20.7032 202.273 20.5097 201.881 20.1225C201.503 19.7354 201.314 19.1475 201.314 18.3589C201.314 17.556 201.503 16.9681 201.881 16.5953C202.273 16.2082 202.759 16.0146 203.339 16.0146Z" fill="white"/>
<path d="M183.578 59.2018C180.401 59.2018 177.952 58.6134 176.231 57.4365C174.511 56.2741 173.65 54.6395 173.65 52.5327C173.65 51.0362 174.128 49.7576 175.084 48.6969C176.055 47.6362 177.393 46.9315 179.099 46.5828C178.467 46.2922 177.923 45.8564 177.467 45.2752C177.026 44.694 176.805 44.0256 176.805 43.2701C176.805 42.3983 177.048 41.6355 177.533 40.9817C178.033 40.3133 178.79 39.674 179.805 39.0638C178.54 38.5552 177.511 37.698 176.717 36.492C175.937 35.2715 175.548 33.8549 175.548 32.2421C175.548 30.5276 175.908 29.0674 176.629 27.8614C177.349 26.6409 178.393 25.7111 179.761 25.0717C181.129 24.4324 182.783 24.1128 184.725 24.1128C185.151 24.1128 185.578 24.1346 186.004 24.1782C186.445 24.2072 186.865 24.2581 187.262 24.3307C187.659 24.3889 188.004 24.4615 188.298 24.5487H196.593V26.8807L192.137 27.4255C192.578 27.9922 192.946 28.6751 193.24 29.4742C193.534 30.2733 193.681 31.1597 193.681 32.1331C193.681 34.516 192.865 36.4121 191.233 37.8215C189.6 39.2163 187.357 39.9137 184.504 39.9137C183.828 39.9137 183.136 39.8556 182.43 39.7394C181.71 40.1317 181.158 40.5676 180.776 41.0471C180.408 41.5265 180.224 42.0787 180.224 42.7034C180.224 43.1684 180.364 43.5389 180.644 43.8149C180.938 44.091 181.357 44.2944 181.901 44.4252C182.445 44.5414 183.1 44.5995 183.864 44.5995H188.122C190.755 44.5995 192.769 45.1444 194.167 46.2341C195.578 47.3238 196.284 48.9148 196.284 51.0071C196.284 53.6515 195.196 55.6784 193.019 57.0877C190.843 58.4971 187.696 59.2018 183.578 59.2018ZM183.688 56.3685C185.688 56.3685 187.343 56.1651 188.651 55.7583C189.975 55.366 190.96 54.7921 191.608 54.0365C192.269 53.2955 192.6 52.4092 192.6 51.3776C192.6 50.4187 192.38 49.6922 191.938 49.1982C191.497 48.7187 190.85 48.399 189.997 48.2392C189.144 48.0649 188.1 47.9777 186.865 47.9777H182.673C181.585 47.9777 180.636 48.1448 179.827 48.479C179.018 48.8131 178.393 49.3071 177.952 49.961C177.526 50.6148 177.312 51.4285 177.312 52.4019C177.312 53.6951 177.864 54.6758 178.967 55.3442C180.07 56.0271 181.644 56.3685 183.688 56.3685ZM184.636 37.2766C186.387 37.2766 187.703 36.8407 188.585 35.969C189.468 35.0972 189.909 33.8258 189.909 32.1549C189.909 30.3678 189.46 29.0311 188.563 28.1448C187.666 27.2439 186.342 26.7935 184.592 26.7935C182.916 26.7935 181.622 27.2585 180.71 28.1883C179.813 29.1037 179.364 30.4477 179.364 32.2203C179.364 33.8476 179.82 35.0972 180.732 35.969C181.644 36.8407 182.945 37.2766 184.636 37.2766Z" fill="white"/>
<path d="M159.281 59.2018C156.104 59.2018 153.655 58.6134 151.935 57.4365C150.214 56.2741 149.354 54.6395 149.354 52.5327C149.354 51.0362 149.831 49.7576 150.787 48.6969C151.758 47.6362 153.096 46.9315 154.802 46.5828C154.17 46.2922 153.626 45.8564 153.17 45.2752C152.729 44.694 152.508 44.0256 152.508 43.2701C152.508 42.3983 152.751 41.6355 153.236 40.9817C153.736 40.3133 154.494 39.674 155.508 39.0638C154.244 38.5552 153.214 37.698 152.42 36.492C151.64 35.2715 151.251 33.8549 151.251 32.2421C151.251 30.5276 151.611 29.0674 152.332 27.8614C153.052 26.6409 154.097 25.7111 155.464 25.0717C156.832 24.4324 158.487 24.1128 160.428 24.1128C160.854 24.1128 161.281 24.1346 161.707 24.1782C162.149 24.2072 162.568 24.2581 162.965 24.3307C163.362 24.3889 163.707 24.4615 164.002 24.5487H172.296V26.8807L167.84 27.4255C168.281 27.9922 168.649 28.6751 168.943 29.4742C169.237 30.2733 169.384 31.1597 169.384 32.1331C169.384 34.516 168.568 36.4121 166.936 37.8215C165.303 39.2163 163.06 39.9137 160.207 39.9137C159.531 39.9137 158.839 39.8556 158.134 39.7394C157.413 40.1317 156.861 40.5676 156.479 41.0471C156.111 41.5265 155.928 42.0787 155.928 42.7034C155.928 43.1684 156.067 43.5389 156.347 43.8149C156.641 44.091 157.06 44.2944 157.604 44.4252C158.148 44.5414 158.803 44.5995 159.567 44.5995H163.825C166.458 44.5995 168.473 45.1444 169.87 46.2341C171.282 47.3238 171.987 48.9148 171.987 51.0071C171.987 53.6515 170.899 55.6784 168.723 57.0877C166.546 58.4971 163.399 59.2018 159.281 59.2018ZM159.391 56.3685C161.391 56.3685 163.046 56.1651 164.355 55.7583C165.678 55.366 166.664 54.7921 167.311 54.0365C167.972 53.2955 168.303 52.4092 168.303 51.3776C168.303 50.4187 168.083 49.6922 167.642 49.1982C167.2 48.7187 166.553 48.399 165.7 48.2392C164.847 48.0649 163.803 47.9777 162.568 47.9777H158.376C157.288 47.9777 156.339 48.1448 155.53 48.479C154.722 48.8131 154.097 49.3071 153.655 49.961C153.229 50.6148 153.016 51.4285 153.016 52.4019C153.016 53.6951 153.567 54.6758 154.67 55.3442C155.773 56.0271 157.347 56.3685 159.391 56.3685ZM160.34 37.2766C162.09 37.2766 163.406 36.8407 164.288 35.969C165.171 35.0972 165.612 33.8258 165.612 32.1549C165.612 30.3678 165.163 29.0311 164.266 28.1448C163.369 27.2439 162.046 26.7935 160.295 26.7935C158.619 26.7935 157.325 27.2585 156.413 28.1883C155.516 29.1037 155.067 30.4477 155.067 32.2203C155.067 33.8476 155.523 35.0972 156.435 35.969C157.347 36.8407 158.648 37.2766 160.34 37.2766Z" fill="white"/>
<path d="M145.31 24.7871V48.6442H142.308L141.778 45.292H141.579C141.079 46.1191 140.431 46.8157 139.637 47.3817C138.842 47.9476 137.944 48.3684 136.943 48.6442C135.957 48.9344 134.905 49.0795 133.786 49.0795C131.873 49.0795 130.269 48.7748 128.974 48.1653C127.679 47.5558 126.7 46.6125 126.038 45.3355C125.39 44.0585 125.066 42.4187 125.066 40.4161V24.7871H128.775V40.1549C128.775 42.143 129.231 43.6304 130.144 44.6172C131.056 45.5895 132.447 46.0756 134.316 46.0756C136.112 46.0756 137.539 45.7418 138.599 45.0743C139.673 44.4068 140.446 43.4272 140.917 42.1357C141.388 40.8297 141.623 39.2334 141.623 37.3469V24.7871H145.31Z" fill="white"/>
<path d="M116.966 48.4045H113.239V33.4581H96.401V48.4045H92.6738V16.6895H96.401V30.2042H113.239V16.6895H116.966V48.4045Z" fill="white"/>
</svg>
