<svg width="351" height="54" viewBox="0 0 351 54" fill="none" xmlns="http://www.w3.org/2000/svg">
<path d="M12.9974 40.7847C12.9974 40.7847 14.0588 45.1813 13.8935 45.7986C13.7282 46.4163 10.7093 46.9067 8.95182 47.813C7.79905 48.4086 5.94156 49.7357 7.07258 50.8084C7.68595 51.391 9.39988 49.9196 14.546 49.6218C19.7705 49.3195 20.6927 49.7486 20.423 48.6363C20.1577 47.5286 18.77 47.4014 17.6042 46.9109C17.217 46.7491 16.769 46.4905 16.5819 46.2103C16.4035 45.9433 16.6645 41.402 16.6645 41.402L12.9974 40.7847Z" fill="white"/>
<path d="M22.6444 44.3696C22.6444 44.3696 22.7673 48.6872 22.7673 48.9635C22.7673 49.3678 21.7491 49.8527 20.2349 50.1801C18.7208 50.5078 15.7232 51.0522 15.6837 52.9109C15.6574 54.0553 21.4419 52.507 24.7467 52.5536C28.0515 52.6005 30.1713 53.0215 30.0177 51.6773C29.8948 50.6013 28.1744 50.112 27.2483 49.9163C26.3223 49.7207 25.901 49.2827 25.8746 48.7468C25.8571 48.398 25.9361 44.4632 25.9361 44.4632L22.6444 44.3696Z" fill="white"/>
<path d="M8.52066 11.5024C8.52066 11.5024 5.47656 13.3297 5.14326 13.583C4.80996 13.8363 3.7212 14.3881 3.22347 14.8133C2.43245 15.4917 1.72142 17.0205 2.01472 17.4049C2.30802 17.7849 2.72575 16.5999 3.89007 15.8762C5.05438 15.1525 7.0586 14.0082 7.60076 13.7097C8.14293 13.4111 8.3118 13.2438 8.3118 13.2438L8.52066 11.5024Z" fill="white"/>
<path d="M9.59522 10.9621C9.79992 10.5185 9.89138 9.50136 8.50203 7.71351C6.86879 5.61199 4.57788 5.52686 4.57788 5.52686L4.33398 6.36925L6.86879 8.9771L8.27556 12.1003C8.27556 12.1003 9.17275 11.8762 9.59522 10.9621Z" fill="white"/>
<path fill-rule="evenodd" clip-rule="evenodd" d="M8.79202 11.2519C9.26115 11.1688 12.5545 10.5514 13.9284 9.36812C14.1273 9.19684 14.3306 9.02777 14.5349 8.85784C15.8523 7.76232 17.2129 6.63085 17.7098 4.63871C18.0604 3.2361 18.0779 2.25428 18.0779 2.25428C18.0779 2.25428 12.9031 -0.748178 8.21461 1.71953C5.24857 3.28067 4.60259 5.19615 4.52827 6.39285C3.544 6.39925 2.71645 7.21186 2.62382 7.85936C1.96514 8.52537 1.33856 9.45628 1.01623 10.7313C0.153028 14.1457 1.59462 17.3235 2.22997 17.5383C2.47535 17.6216 3.23777 16.0787 3.23777 16.0787C3.23777 16.0787 4.30692 17.3148 4.84149 17.5997C4.93509 17.6503 5.0205 17.6987 5.10026 17.7438C5.47598 17.9566 5.72621 18.0983 6.11658 18.073C7.04112 18.0117 8.39946 15.316 8.36003 13.5058L8.44038 12.0002C8.57683 11.8542 8.71219 11.582 8.79202 11.2519Z" fill="white"/>
<path d="M17.4775 9.96471C17.4775 9.96471 15.9201 5.96173 12.7157 6.12965C9.48435 6.30212 8.98618 8.73023 9.13429 10.178C9.30483 11.8527 10.3999 12.7786 12.9266 12.6924C15.4579 12.6016 17.4775 9.96471 17.4775 9.96471Z" fill="white"/>
<path d="M13.4715 1.61614L17.4973 1.34424C17.4973 1.34424 19.7368 2.0708 21.8652 5.16426C24.6912 9.27846 24.3179 16.8026 24.3179 16.8026L32.0761 37.5519L33.0138 44.4117C33.0138 44.4117 26.0731 45.5082 19.2746 44.6214C11.2676 43.5737 3.01174 36.2949 3.13615 25.4188C3.26057 14.5427 11.8541 4.04098 11.8541 4.04098L13.4715 1.61614Z" fill="white"/>
<path d="M14.4917 9.20485C14.4917 10.1021 13.3155 10.9048 12.2436 10.9048C11.1765 10.9048 10.3086 10.1768 10.3086 9.27962C10.3086 8.38241 10.9299 7.39469 12.4428 7.32386C14.0411 7.24122 14.4917 8.30764 14.4917 9.20485Z" fill="#1E1E1E"/>
<path d="M33.5385 34.2109C33.5385 34.2109 34.5532 36.4532 38.4504 38.9432C41.7568 41.0574 43.3626 42.3493 45.6496 43.1366C47.9363 43.9239 48.0222 44.1316 47.9363 44.5473C47.8508 44.9631 44.2961 47.6611 40.399 47.3296C36.5065 46.9977 34.6434 45.5027 33.4573 44.7154C32.2709 43.9281 30.0293 38.364 30.0293 38.364L33.5385 34.2109Z" fill="white"/>
<path d="M24.7021 17.478C24.7021 17.478 19.3903 19.0255 17.0605 22.5337C15.1079 25.4704 15.281 30.4645 17.2691 34.1705C19.7275 38.7512 24.8086 42.0089 27.5155 43.2487C30.2225 44.4884 33.9277 45.1039 35.5519 44.941C37.1761 44.7786 34.0964 33.6781 31.1366 27.7344C28.2522 21.9358 24.7021 17.478 24.7021 17.478Z" fill="white"/>
<path d="M70.9622 43.7715C70.2428 43.7715 69.5669 44.0831 69.0598 44.6476C68.5521 45.2108 68.2715 45.9602 68.2715 46.7584C68.2709 47.5573 68.5509 48.308 69.0592 48.8712C69.5669 49.4357 70.2416 49.7473 70.9616 49.7473C71.6809 49.7473 72.3562 49.4363 72.8628 48.8725C73.912 47.7058 73.912 45.8103 72.8628 44.6463C72.3551 44.0825 71.6803 43.7715 70.9622 43.7715ZM71.7386 47.6253C71.323 48.0861 70.5989 48.0861 70.1828 47.624C69.9747 47.3929 69.8606 47.0859 69.8606 46.7591C69.8606 46.4322 69.9747 46.1259 70.1834 45.8948C70.3914 45.6631 70.6679 45.5363 70.9622 45.5363C71.2552 45.5363 71.5311 45.6624 71.7398 45.8935C72.1684 46.3715 72.1684 47.1473 71.7386 47.6253Z" fill="white"/>
<path d="M107.1 37.1655C103.765 34.2896 99.6695 30.7578 96.2937 27.7433L99.0279 24.7987C100.051 23.6936 101.023 23.542 101.921 23.542C102.391 23.542 102.887 23.5903 103.411 23.641C104.008 23.6992 104.625 23.7592 105.288 23.7592C106.996 23.7592 109.309 23.4053 112.06 20.6469C114.737 17.9647 115.793 14.0103 114.815 10.3281C114.739 10.0423 114.517 9.81828 114.232 9.74218C113.948 9.66545 113.643 9.74712 113.435 9.95626L107.774 15.6295L103.429 14.1773L101.98 9.82323L107.64 4.15058C107.848 3.94207 107.93 3.63765 107.854 3.35117C107.777 3.06593 107.554 2.84318 107.27 2.76707C106.368 2.52638 105.437 2.40387 104.503 2.40387C101.657 2.40387 98.9816 3.51328 96.9723 5.52853C93.486 9.02319 93.7638 11.8917 93.988 14.1959C94.159 15.9636 94.2838 17.2414 92.8308 18.5896C91.9262 19.4329 90.8783 20.4093 89.7409 21.4699C82.9961 13.7795 85.9977 8.85428 86.3731 8.30607C88.8838 4.63011 95.6564 5.03168 95.7231 5.03724C96.1183 5.06632 96.4579 4.81883 96.5678 4.45006C96.6784 4.08128 96.5203 3.68467 96.1869 3.49348C96.0745 3.42913 84.9004 -2.79111 75.8974 6.23204L68.3369 13.8018C68.1819 13.9571 68.0942 14.1681 68.0942 14.3865C68.0942 14.6061 68.1819 14.8165 68.3375 14.9712L69.1687 15.8034L67.8966 17.078L67.0649 16.2446C66.7432 15.9222 66.2208 15.9222 65.8978 16.2452L60.1496 22.0044C59.9953 22.1598 59.9082 22.3701 59.9082 22.5898C59.9082 22.8094 59.9953 23.0192 60.1509 23.1745L66.9747 30.0122C67.1359 30.1737 67.3477 30.2548 67.5583 30.2548C67.7688 30.2548 67.9806 30.1737 68.1418 30.0122L73.89 24.2523C74.2123 23.93 74.2123 23.4065 73.8906 23.0835L73.0595 22.2495L74.3185 20.9848L75.1169 21.8225C75.3053 22.0199 75.5751 22.1096 75.848 22.0676C77.9222 21.7279 80.2038 22.9994 84.1137 26.7143C75.9382 34.336 66.6654 42.9805 66.6079 43.0374C64.3973 45.2525 64.3973 48.8567 66.6079 51.0724C67.6787 52.1453 69.1032 52.7356 70.6173 52.7356C72.1073 52.7356 73.5108 52.1639 74.5754 51.1232C74.6007 51.1015 74.626 51.078 74.6495 51.0526L90.74 33.7247C93.6829 37.0406 97.0989 41.0166 99.8838 44.2594C102.802 47.657 105.106 50.3398 105.84 51.0755C106.906 52.1453 108.323 52.735 109.832 52.7362C109.833 52.7362 109.835 52.7362 109.835 52.7362C111.344 52.7362 112.764 52.1466 113.832 51.0761C116.034 48.8716 116.034 45.2804 113.832 43.069C113.101 42.3401 110.452 40.0563 107.1 37.1655ZM76.0253 20.3815L74.9286 19.2306C74.7755 19.0697 74.5637 18.9776 74.3414 18.9751C74.1259 18.9639 73.9048 19.0598 73.748 19.2182L71.3089 21.666C70.9872 21.9884 70.9872 22.5112 71.3089 22.8354L72.1394 23.6682L67.5589 28.2587L61.9015 22.5904L66.4832 18.0012L67.315 18.8334C67.6367 19.1551 68.1591 19.1558 68.482 18.8328L70.9217 16.3893C71.0761 16.2347 71.1632 16.0243 71.1632 15.8053C71.1632 15.5856 71.0761 15.3746 70.9211 15.2199L70.0893 14.3883L77.062 7.40085C82.3564 2.09697 88.3701 2.56784 92.0176 3.59928C89.6118 3.97981 86.6602 4.95309 85.0085 7.37177C84.5583 8.03073 80.9269 13.9459 88.5306 22.5966C87.5111 23.547 86.4336 24.5512 85.3246 25.5845C81.7685 22.1907 78.9058 20.1426 76.0253 20.3815ZM73.4855 49.8776C73.4763 49.8863 73.4676 49.8943 73.459 49.903C72.7001 50.6634 71.6905 51.0817 70.6167 51.0817C69.5429 51.0817 68.5339 50.6634 67.7744 49.903C66.2078 48.3332 66.2078 45.7772 67.7602 44.2205C67.9744 44.0175 83.0739 29.9417 90.2472 23.2555L90.2491 23.2543L90.2497 23.2525C92.4406 21.2106 93.8916 19.8586 93.9522 19.8023C96.0041 17.896 95.8133 15.9333 95.6286 14.0356C95.4187 11.875 95.202 9.64008 98.1375 6.69857C99.835 4.99641 102.095 4.05839 104.501 4.05839C104.787 4.05839 105.073 4.072 105.357 4.09861L100.451 9.01453C100.23 9.23542 100.154 9.56398 100.252 9.86097L101.992 15.0931C102.075 15.3387 102.268 15.5336 102.514 15.6159L107.735 17.3595C108.031 17.4579 108.359 17.3818 108.58 17.1597L113.483 12.245C113.729 14.8994 112.796 17.5693 110.892 19.4775C108.583 21.7922 106.763 22.1047 105.287 22.1047C104.705 22.1047 104.128 22.0484 103.571 21.9939C103.03 21.9413 102.47 21.8869 101.92 21.8869C100.78 21.8869 99.2842 22.0898 97.8176 23.672L73.4855 49.8776ZM112.663 49.9067C111.907 50.6647 110.903 51.0817 109.835 51.0817H109.833C108.765 51.0811 107.762 50.6641 107.008 49.9061C106.317 49.215 103.915 46.4182 101.135 43.1804C98.3141 39.8948 94.8444 35.8575 91.87 32.5089L95.1692 28.9554C98.5605 31.9848 102.675 35.5327 106.024 38.4203C109.219 41.1756 111.978 43.5547 112.663 44.239C114.222 45.8038 114.222 48.3469 112.663 49.9067Z" fill="white"/>
<path d="M341.507 18.625C343.2 18.625 344.705 18.9811 346.022 19.6933C347.366 20.4056 348.414 21.4608 349.166 22.8589C349.946 24.257 350.335 25.9453 350.335 27.9238V40.7839H345.78V28.5965C345.78 26.6444 345.283 25.1539 344.288 24.1251C343.294 23.0699 341.937 22.5424 340.217 22.5424C338.497 22.5424 337.126 23.0699 336.105 24.1251C335.11 25.1539 334.613 26.6444 334.613 28.5965V40.7839H330.018V11.5024H334.613V21.5135C335.393 20.5903 336.374 19.878 337.556 19.3768C338.765 18.8756 340.082 18.625 341.507 18.625Z" fill="white"/>
<path d="M320.734 22.4845V34.6706C320.734 35.4963 320.912 36.0957 321.267 36.4686C321.648 36.8148 322.282 36.988 323.17 36.988H325.834V40.7837H322.409C320.455 40.7837 318.958 40.3042 317.917 39.3453C316.877 38.3864 316.357 36.8282 316.357 34.6706V22.4845H313.883V18.7687H316.357V13.2949H320.734V18.7687H325.834V22.4845H320.734Z" fill="white"/>
<path d="M307.331 16.0863C306.479 16.0863 305.765 15.8092 305.188 15.2551C304.611 14.701 304.322 14.015 304.322 13.197C304.322 12.379 304.611 11.6929 305.188 11.1388C305.765 10.5847 306.479 10.3076 307.331 10.3076C308.155 10.3076 308.856 10.5847 309.433 11.1388C310.01 11.6929 310.298 12.379 310.298 13.197C310.298 14.015 310.01 14.701 309.433 15.2551C308.856 15.8092 308.155 16.0863 307.331 16.0863ZM309.639 18.9757V40.7843H304.94V18.9757H309.639Z" fill="white"/>
<path d="M290.434 18.6733C292.172 18.6733 293.723 19.0287 295.087 19.7394C296.477 20.4501 297.56 21.503 298.335 22.898C299.137 24.2931 299.538 25.9777 299.538 27.9519V40.7839H295.006V28.6231C295.006 26.6752 294.512 25.188 293.523 24.1615C292.533 23.1086 291.183 22.5822 289.472 22.5822C287.761 22.5822 286.397 23.1086 285.381 24.1615C284.392 25.188 283.897 26.6752 283.897 28.6231V40.7839H279.365V28.6231C279.365 26.6752 278.87 25.188 277.881 24.1615C276.892 23.1086 275.542 22.5822 273.83 22.5822C272.119 22.5822 270.756 23.1086 269.74 24.1615C268.75 25.188 268.256 26.6752 268.256 28.6231V40.7839H263.684V19.0287H268.256V21.5161C269.004 20.6212 269.954 19.9236 271.103 19.4235C272.253 18.9234 273.483 18.6733 274.793 18.6733C276.558 18.6733 278.135 19.0418 279.526 19.7789C280.916 20.5159 281.985 21.5819 282.734 22.977C283.402 21.6609 284.445 20.6212 285.862 19.8578C287.279 19.0682 288.803 18.6733 290.434 18.6733Z" fill="white"/>
<path d="M248.859 40.7846C247.023 40.7846 245.37 40.4685 243.901 39.8365C242.432 39.1781 241.278 38.2564 240.439 37.0713C239.599 35.8862 239.18 34.5037 239.18 32.9236H243.98C244.085 34.1086 244.544 35.083 245.357 35.8467C246.197 36.6105 247.364 36.9923 248.859 36.9923C250.407 36.9923 251.613 36.6236 252.479 35.8862C253.345 35.1225 253.777 34.1481 253.777 32.9631C253.777 32.0413 253.502 31.2908 252.951 30.7114C252.426 30.132 251.758 29.6843 250.944 29.3683C250.157 29.0523 249.056 28.71 247.639 28.3413C245.856 27.8672 244.4 27.3932 243.272 26.9192C242.17 26.4188 241.226 25.6551 240.439 24.628C239.652 23.601 239.258 22.2315 239.258 20.5198C239.258 18.9396 239.652 17.5571 240.439 16.372C241.226 15.1869 242.327 14.2783 243.744 13.6463C245.16 13.0143 246.8 12.6982 248.662 12.6982C251.312 12.6982 253.476 13.3698 255.155 14.7129C256.86 16.0296 257.804 17.8467 257.988 20.1642H253.03C252.951 19.1635 252.479 18.3076 251.613 17.5966C250.748 16.8855 249.607 16.53 248.19 16.53C246.905 16.53 245.856 16.8592 245.042 17.5176C244.229 18.1759 243.823 19.124 243.823 20.3617C243.823 21.2045 244.072 21.9023 244.57 22.4554C245.095 22.9821 245.751 23.4034 246.538 23.7195C247.325 24.0355 248.4 24.3778 249.764 24.7465C251.574 25.2469 253.043 25.7473 254.171 26.2476C255.325 26.748 256.296 27.5249 257.083 28.5783C257.896 29.6053 258.302 30.9879 258.302 32.726C258.302 34.1218 257.922 35.4386 257.161 36.6763C256.427 37.9141 255.338 38.9148 253.895 39.6785C252.479 40.4159 250.8 40.7846 248.859 40.7846Z" fill="white"/>
<path d="M221.529 18.6733C223.241 18.6733 224.752 19.0157 226.063 19.7004C227.4 20.3588 228.443 21.1884 229.192 22.1892V19.0289H233.806V41.1509C233.806 43.1524 233.378 44.9301 232.522 46.4839C231.666 48.064 230.422 49.3018 228.791 50.1972C227.186 51.0926 225.26 51.5403 223.013 51.5403C220.018 51.5403 217.53 50.8424 215.551 49.4466C213.572 48.0772 212.448 46.2073 212.181 43.8371H216.715C217.062 44.9696 217.798 45.8781 218.921 46.5629C220.071 47.2739 221.435 47.6295 223.013 47.6295C224.859 47.6295 226.343 47.0764 227.467 45.9703C228.617 44.8642 229.192 43.2577 229.192 41.1509V37.5165C228.416 38.5436 227.36 39.4127 226.022 40.1238C224.712 40.8085 223.214 41.1509 221.529 41.1509C219.603 41.1509 217.838 40.6768 216.233 39.7287C214.655 38.7543 213.398 37.4112 212.462 35.6994C211.552 33.9612 211.098 31.9992 211.098 29.8133C211.098 27.6275 211.552 25.6918 212.462 24.0063C213.398 22.3208 214.655 21.0172 216.233 20.0955C217.838 19.1474 219.603 18.6733 221.529 18.6733ZM229.192 29.8924C229.192 28.3912 228.871 27.0876 228.229 25.9815C227.614 24.8754 226.798 24.0327 225.782 23.4533C224.765 22.8739 223.669 22.5842 222.492 22.5842C221.315 22.5842 220.218 22.8739 219.202 23.4533C218.186 24.0063 217.356 24.8359 216.715 25.942C216.099 27.0218 215.792 28.3122 215.792 29.8133C215.792 31.3145 216.099 32.6313 216.715 33.7637C217.356 34.8961 218.186 35.7652 219.202 36.3709C220.245 36.9503 221.342 37.24 222.492 37.24C223.669 37.24 224.765 36.9503 225.782 36.3709C226.798 35.7916 227.614 34.9488 228.229 33.8427C228.871 32.7103 229.192 31.3935 229.192 29.8924Z" fill="white"/>
<path d="M198.069 18.6733C199.764 18.6733 201.277 19.0287 202.608 19.7394C203.964 20.4501 205.02 21.503 205.777 22.898C206.533 24.2931 206.912 25.9777 206.912 27.9519V40.7839H202.49V28.6231C202.49 26.6752 202.008 25.188 201.042 24.1615C200.077 23.1086 198.76 22.5822 197.091 22.5822C195.421 22.5822 194.091 23.1086 193.1 24.1615C192.134 25.188 191.652 26.6752 191.652 28.6231V40.7839H187.191V19.0287H191.652V21.5161C192.382 20.6212 193.308 19.9236 194.43 19.4235C195.578 18.9234 196.791 18.6733 198.069 18.6733Z" fill="white"/>
<path d="M158.51 29.9276C158.51 27.7193 158.964 25.7638 159.874 24.061C160.81 22.3583 162.067 21.0413 163.645 20.1101C165.25 19.1522 167.015 18.6733 168.941 18.6733C170.68 18.6733 172.191 19.0192 173.475 19.711C174.785 20.3761 175.828 21.2142 176.604 22.2252V19.0325H181.218V41.0223H176.604V37.7497C175.828 38.7874 174.772 39.6521 173.435 40.3438C172.097 41.0356 170.573 41.3814 168.861 41.3814C166.962 41.3814 165.223 40.9025 163.645 39.9447C162.067 38.9603 160.81 37.6034 159.874 35.874C158.964 34.118 158.51 32.1359 158.51 29.9276ZM176.604 30.0074C176.604 28.4909 176.283 27.1739 175.641 26.0565C175.026 24.939 174.21 24.0876 173.194 23.5023C172.177 22.917 171.081 22.6243 169.904 22.6243C168.727 22.6243 167.63 22.917 166.614 23.5023C165.598 24.061 164.769 24.8991 164.127 26.0166C163.511 27.1074 163.204 28.4111 163.204 29.9276C163.204 31.4441 163.511 32.7744 164.127 33.9185C164.769 35.0625 165.598 35.9405 166.614 36.5525C167.657 37.1378 168.754 37.4305 169.904 37.4305C171.081 37.4305 172.177 37.1378 173.194 36.5525C174.21 35.9671 175.026 35.1158 175.641 33.9983C176.283 32.8543 176.604 31.524 176.604 30.0074Z" fill="white"/>
<path d="M147.06 37.1449H156.717V40.7837H142.375V13.2949H147.06V37.1449Z" fill="white"/>
</svg>
