<svg width="284" height="44" viewBox="0 0 284 44" fill="none" xmlns="http://www.w3.org/2000/svg">
<path d="M10.4805 33.5708C10.4805 33.5708 11.3901 37.1816 11.2484 37.6885C11.1067 38.1958 8.5196 38.5986 7.01355 39.3429C6.02566 39.832 4.43386 40.9219 5.40311 41.8028C5.92874 42.2813 7.39751 41.0729 11.8076 40.8283C16.2847 40.5801 17.075 40.9325 16.8439 40.019C16.6165 39.1093 15.4273 39.0048 14.4283 38.602C14.0965 38.4691 13.7125 38.2568 13.5522 38.0266C13.3994 37.8074 13.623 34.0778 13.623 34.0778L10.4805 33.5708Z" fill="white"/>
<path d="M18.6756 36.0264C18.6756 36.0264 18.7765 39.5722 18.7765 39.7991C18.7765 40.1311 17.9403 40.5294 16.6968 40.7982C15.4533 41.0673 12.9915 41.5145 12.9591 43.0409C12.9374 43.9807 17.688 42.7092 20.4021 42.7475C23.1162 42.786 24.8571 43.1317 24.7309 42.0279C24.63 41.1442 23.2171 40.7423 22.4566 40.5816C21.6961 40.4209 21.35 40.0613 21.3284 39.6211C21.314 39.3347 21.3789 36.1032 21.3789 36.1032L18.6756 36.0264Z" fill="white"/>
<path d="M6.57616 9.03418C6.57616 9.03418 4.07618 10.5348 3.80246 10.7429C3.52874 10.9509 2.63458 11.404 2.22583 11.7532C1.5762 12.3104 0.992258 13.5659 1.23313 13.8816C1.47401 14.1937 1.81707 13.2204 2.77327 12.6261C3.72947 12.0318 5.37544 11.092 5.82069 10.8469C6.26595 10.6017 6.40463 10.4643 6.40463 10.4643L6.57616 9.03418Z" fill="white"/>
<path d="M7.45948 8.5902C7.62759 8.22588 7.70271 7.39054 6.5617 5.92226C5.22039 4.19638 3.33897 4.12646 3.33897 4.12646L3.13867 4.81829L5.22039 6.96L6.3757 9.52489C6.3757 9.52489 7.11253 9.3409 7.45948 8.5902Z" fill="white"/>
<path fill-rule="evenodd" clip-rule="evenodd" d="M6.8018 8.82859C7.17739 8.76208 9.89088 8.2549 11.0222 7.28109C11.1852 7.14012 11.3528 7.00099 11.5215 6.86115C12.6021 5.96172 13.7188 5.03255 14.127 3.39702C14.2259 3.00289 14.2923 2.64918 14.3373 2.35438C14.4227 1.78772 14.4295 1.43879 14.4295 1.43879C14.4295 1.43879 10.1799 -1.02699 6.32949 0.999654C3.89151 2.28288 3.36073 3.8576 3.30113 4.8402C2.49485 4.84568 1.819 5.50888 1.74029 6.03983C1.19826 6.58695 0.682102 7.35209 0.417838 8.40057C-0.291741 11.2047 0.89239 13.8145 1.41417 13.9909C1.61546 14.0592 2.24183 12.7922 2.24183 12.7922C2.24183 12.7922 3.12008 13.8073 3.55865 14.0412L3.77231 14.16C4.08043 14.3345 4.28622 14.4508 4.60671 14.43C5.36577 14.3796 6.4813 12.1658 6.44869 10.6792L6.51504 9.44272C6.62637 9.3232 6.73657 9.09857 6.8018 8.82859Z" fill="white"/>
<path d="M13.9352 7.97547C13.9352 7.97547 12.6562 4.98686 10.0246 5.11224C7.3708 5.241 6.96168 7.05382 7.08331 8.13473C7.22337 9.38507 8.1227 10.0763 10.1978 10.0119C12.2766 9.94416 13.9352 7.97547 13.9352 7.97547Z" fill="white"/>
<path d="M10.6493 0.914222L13.9554 0.690918C13.9554 0.690918 15.7946 1.28761 17.5426 3.82812C19.8634 7.20693 19.5569 13.3862 19.5569 13.3862L25.9283 30.4266L26.6985 36.0603C26.6985 36.0603 20.9983 36.9608 15.4151 36.2325C8.83929 35.372 2.05912 29.3943 2.1613 20.4622C2.26347 11.5302 9.32098 2.90563 9.32098 2.90563L10.6493 0.914222Z" fill="white"/>
<path d="M11.4895 7.40569C11.4895 8.26533 10.6616 9.03448 9.90705 9.03448C9.15588 9.03448 8.54492 8.33697 8.54492 7.47732C8.54492 6.61768 8.98227 5.67132 10.0473 5.60345C11.1724 5.52427 11.4895 6.54604 11.4895 7.40569Z" fill="#1E1E1E"/>
<path d="M27.13 28.1743C27.13 28.1743 27.9633 30.0158 31.1639 32.0607C33.8793 33.797 35.1981 34.858 37.0763 35.5045C38.9543 36.1511 39.0248 36.3217 38.9543 36.6631C38.884 37.0046 35.9647 39.2203 32.7642 38.948C29.5675 38.6755 28.0374 37.4477 27.0633 36.8011C26.089 36.1546 24.248 31.585 24.248 31.585L27.13 28.1743Z" fill="white"/>
<path d="M19.8733 13.9429C19.8733 13.9429 15.5109 15.2137 13.5976 18.0948C11.994 20.5066 12.1362 24.608 13.7689 27.6516C15.7879 31.4135 19.9607 34.089 22.1838 35.1071C24.4069 36.1253 27.4499 36.6307 28.7837 36.497C30.1176 36.3635 27.5884 27.2472 25.1577 22.366C22.7888 17.6038 19.8733 13.9429 19.8733 13.9429Z" fill="white"/>
<path d="M51.1091 36.6091C48.7409 34.1968 48.7409 30.3476 51.1091 27.9356L57.9369 21.1175C58.6802 20.3753 59.6566 19.8186 60.6767 19.5421C61.6969 19.2656 62.7681 19.2656 63.741 19.4948C64.7612 19.7713 65.7376 20.2843 66.5281 21.0265C66.5756 21.0738 66.5756 21.0738 66.6193 21.1175C69.0347 23.5296 69.0347 27.3789 66.6193 29.7911L59.7915 36.6091C57.3796 39.0211 53.4774 39.0211 51.1091 36.6091ZM70.4303 17.3155C65.927 12.8187 58.5417 12.8187 54.0349 17.3155L47.2544 24.1336C42.7511 28.6303 42.7511 36.0052 47.2544 40.5055C51.7577 45.0062 59.143 45.0024 63.6498 40.5055L70.4775 33.6875C74.9336 29.1871 74.9336 21.816 70.4303 17.3155Z" fill="white"/>
<path d="M66.9609 16.3474C68.2053 15.7458 69.3943 16.1658 69.3943 16.1658C66.8241 14.3398 64.0203 13.8201 61.6056 13.9661C61.5908 13.9839 61.5798 14.0017 61.565 14.023C60.5058 15.5856 60.2688 17.6501 60.928 19.3871C61.9205 19.1522 62.9501 19.1593 63.8908 19.3765C64.276 19.4761 64.5684 19.5722 65.1462 19.8321C65.1501 19.8285 64.9462 17.3226 66.9609 16.3474Z" fill="white"/>
<path d="M59.5624 19.7503C59.6118 19.4053 59.6346 19.0568 59.6575 18.7083C59.764 17.2075 60.0381 15.7139 60.472 14.2665C60.5025 14.1634 60.5329 14.0531 60.5634 13.9429C59.3874 14.1171 58.2339 14.4514 57.1492 14.9493C55.4591 16.987 56.0149 19.6258 57.9979 20.8136C58.451 20.3904 58.9839 20.0312 59.5624 19.7503Z" fill="white"/>
<path d="M80.3216 7.47076C82.6898 9.88291 82.6898 13.7322 80.3216 16.1443L73.4936 22.9624C72.7504 23.7046 71.7739 24.2612 70.7537 24.5377C69.7335 24.8143 68.6623 24.8143 67.6897 24.585C66.6695 24.3085 65.693 23.7955 64.9022 23.0533C64.855 23.006 64.855 23.006 64.8113 22.9624C62.3955 20.5502 62.3955 16.701 64.8113 14.2888L71.6392 7.47076C74.0512 5.05861 77.9533 5.05861 80.3216 7.47076ZM61.0002 26.7643C65.5036 31.2611 72.8888 31.2611 77.396 26.7643L84.1764 19.9463C88.6798 15.4494 88.6798 8.07471 84.1764 3.57421C79.673 -0.926294 72.2878 -0.922656 67.7806 3.57421L60.9565 10.3923C56.4968 14.8928 56.4968 22.2638 61.0002 26.7643Z" fill="white"/>
<path d="M60.7128 12.8835C60.7269 12.8727 60.741 12.8582 60.7551 12.8474C60.9416 12.681 61.1495 12.5218 61.3924 12.4784C61.6355 12.435 61.9206 12.5471 62.0051 12.7859C62.0685 12.9631 62.0122 13.1585 61.9524 13.3357C61.0261 16.2115 60.2832 19.8614 61.1847 22.8385C61.2726 23.1278 61.3571 23.5004 61.1213 23.6813C60.9838 23.7898 60.7796 23.7717 60.6283 23.6885C58.9731 22.7697 58.6844 20.281 58.6069 18.5736C58.5153 16.4177 59.0963 14.3413 60.7128 12.8835Z" fill="white"/>
<path d="M68.3677 24.3273C68.1416 24.2971 67.9014 24.248 67.9014 24.248C67.9014 24.248 67.8661 25.8589 66.6612 27.1943C65.3259 28.6732 63.9941 28.6355 63.9941 28.6355C64.697 29.0691 66.0997 29.5182 66.6084 29.6465L66.6612 29.5897C68.0144 28.1411 68.5797 26.1946 68.3677 24.3273Z" fill="white"/>
<path d="M75.5559 20.813L73.7014 22.724C74.1642 24.8537 74.039 27.0909 73.3223 29.156C74.2232 28.8262 75.0897 28.371 75.8968 27.7936C77.2292 25.4417 76.9369 22.663 75.5559 20.813Z" fill="white"/>
<path d="M71.5173 23.8836C71.2917 23.3072 70.851 22.7236 70.2993 22.7779C69.9554 22.8106 69.4217 23.1368 69.4576 24.1337C69.4825 24.9058 69.7728 25.6598 69.3572 26.6712C68.7482 28.1503 68.8878 28.5491 69.0348 28.7845C69.1959 29.0421 69.4934 29.1581 69.7691 29.1543C70.4965 29.1508 71.0983 28.4766 71.4279 27.737C71.9615 26.5552 71.9939 25.0943 71.5173 23.8836Z" fill="white"/>
<path d="M60.4166 38.0579C60.652 37.8657 61.2627 37.2234 61.5458 37.6298C61.4428 38.7472 60.5711 39.658 59.6146 40.2675C58.4374 41.0184 57.043 41.461 55.6416 41.4212C54.4791 41.3884 52.5514 40.924 51.8745 39.8612C51.3227 38.9977 52.4887 38.8488 53.1362 39.0882C55.4429 39.9555 58.051 39.9735 60.4166 38.0579Z" fill="white"/>
<path d="M275.883 14.9224C277.318 14.9224 278.598 15.2142 279.724 15.7979C280.872 16.3815 281.766 17.2462 282.406 18.3919C283.046 19.5376 283.366 20.9211 283.366 22.5424V33.0807H279.625V23.0936C279.625 21.494 279.216 20.2726 278.4 19.4295C277.583 18.5648 276.468 18.1325 275.056 18.1325C273.643 18.1325 272.518 18.5648 271.679 19.4295C270.862 20.2726 270.454 21.494 270.454 23.0936V33.0807H266.68V15.2142H270.454V17.257C271.072 16.522 271.855 15.9492 272.805 15.5384C273.776 15.1277 274.802 14.9224 275.883 14.9224Z" fill="white"/>
<path d="M260.075 12.798C259.446 12.798 258.918 12.5705 258.491 12.1154C258.065 11.6603 257.852 11.0969 257.852 10.4251C257.852 9.75336 258.065 9.18993 258.491 8.73486C258.918 8.27978 259.446 8.05225 260.075 8.05225C260.684 8.05225 261.202 8.27978 261.629 8.73486C262.055 9.18993 262.268 9.75336 262.268 10.4251C262.268 11.0969 262.055 11.6603 261.629 12.1154C261.202 12.5705 260.684 12.798 260.075 12.798ZM261.781 15.1709V33.0813H258.308V15.1709H261.781Z" fill="white"/>
<path d="M234.783 24.165C234.783 22.3514 235.157 20.7454 235.903 19.347C236.672 17.9486 237.705 16.867 239.001 16.1023C240.319 15.3157 241.768 14.9224 243.35 14.9224C244.778 14.9224 246.019 15.2064 247.073 15.7745C248.149 16.3208 249.006 17.0091 249.643 17.8394V15.2173H253.432V33.2765H249.643V30.5889C249.006 31.4411 248.139 32.1512 247.04 32.7193C245.942 33.2874 244.69 33.5715 243.284 33.5715C241.724 33.5715 240.297 33.1782 239.001 32.3916C237.705 31.5831 236.672 30.4688 235.903 29.0485C235.157 27.6064 234.783 25.9785 234.783 24.165ZM249.643 24.2305C249.643 22.9851 249.38 21.9035 248.852 20.9858C248.347 20.0681 247.677 19.3689 246.843 18.8882C246.008 18.4075 245.107 18.1671 244.141 18.1671C243.174 18.1671 242.274 18.4075 241.439 18.8882C240.604 19.347 239.923 20.0353 239.396 20.953C238.891 21.8489 238.638 22.9195 238.638 24.165C238.638 25.4104 238.891 26.5029 239.396 27.4425C239.923 28.3821 240.604 29.1031 241.439 29.6057C242.296 30.0864 243.196 30.3267 244.141 30.3267C245.107 30.3267 246.008 30.0864 246.843 29.6057C247.677 29.125 248.347 28.4258 248.852 27.5081C249.38 26.5685 249.643 25.476 249.643 24.2305Z" fill="white"/>
<path d="M224.1 14.8836C225.49 14.8836 226.726 15.1761 227.808 15.761C228.911 16.3459 229.772 17.2125 230.39 18.3607C231.03 19.5089 231.35 20.8955 231.35 22.5203V33.0817H227.609V23.0727C227.609 21.4696 227.201 20.2455 226.384 19.4006C225.567 18.534 224.453 18.1008 223.04 18.1008C221.628 18.1008 220.502 18.534 219.663 19.4006C218.847 20.2455 218.438 21.4696 218.438 23.0727V33.0817H214.664V9.03418H218.438V17.2558C219.078 16.4976 219.884 15.9126 220.855 15.501C221.848 15.0894 222.93 14.8836 224.1 14.8836Z" fill="white"/>
<path d="M188.652 22.0408C188.652 19.8317 189.163 17.85 190.183 16.0956C191.226 14.3413 192.626 12.9769 194.385 12.0022C196.166 11.006 198.109 10.5078 200.216 10.5078C202.626 10.5078 204.765 11.1034 206.633 12.2946C208.522 13.4642 209.89 15.1318 210.737 17.2977H206.274C205.688 16.1065 204.874 15.2185 203.831 14.6337C202.789 14.0489 201.584 13.7565 200.216 13.7565C198.717 13.7565 197.382 14.0922 196.209 14.7637C195.037 15.4351 194.114 16.3988 193.441 17.655C192.789 18.9112 192.463 20.3731 192.463 22.0408C192.463 23.7085 192.789 25.1704 193.441 26.4266C194.114 27.6828 195.037 28.6574 196.209 29.3505C197.382 30.0219 198.717 30.3576 200.216 30.3576C201.584 30.3576 202.789 30.0652 203.831 29.4804C204.874 28.8956 205.688 28.0077 206.274 26.8165H210.737C209.89 28.9823 208.522 30.65 206.633 31.8195C204.765 32.989 202.626 33.5738 200.216 33.5738C198.088 33.5738 196.144 33.0865 194.385 32.1119C192.626 31.1156 191.226 29.7403 190.183 27.986C189.163 26.2317 188.652 24.25 188.652 22.0408Z" fill="white"/>
<path d="M174.906 14.9224C176.275 14.9224 177.483 15.2035 178.531 15.7659C179.6 16.3066 180.435 16.9879 181.033 17.8097V15.2143H184.723V33.3821C184.723 35.0259 184.381 36.4858 183.696 37.7619C183.012 39.0596 182.017 40.0761 180.713 40.8115C179.429 41.5468 177.889 41.9145 176.093 41.9145C173.697 41.9145 171.708 41.3413 170.126 40.195C168.543 39.0704 167.645 37.5348 167.431 35.5882H171.056C171.334 36.5182 171.922 37.2644 172.82 37.8267C173.74 38.4107 174.831 38.7027 176.093 38.7027C177.569 38.7027 178.756 38.2485 179.654 37.3401C180.574 36.4317 181.033 35.1124 181.033 33.3821V30.3974C180.413 31.2409 179.568 31.9547 178.499 32.5386C177.451 33.101 176.253 33.3821 174.906 33.3821C173.366 33.3821 171.954 32.9928 170.671 32.2142C169.409 31.414 168.404 30.3109 167.655 28.9051C166.928 27.4776 166.564 25.8663 166.564 24.0711C166.564 22.276 166.928 20.6863 167.655 19.3021C168.404 17.9179 169.409 16.8473 170.671 16.0903C171.954 15.3117 173.366 14.9224 174.906 14.9224ZM181.033 24.136C181.033 22.9032 180.777 21.8326 180.263 20.9242C179.771 20.0158 179.119 19.3237 178.306 18.8479C177.494 18.3721 176.617 18.1342 175.676 18.1342C174.735 18.1342 173.858 18.3721 173.045 18.8479C172.232 19.3021 171.569 19.9834 171.056 20.8918C170.564 21.7785 170.318 22.8383 170.318 24.0711C170.318 25.304 170.564 26.3854 171.056 27.3154C171.569 28.2454 172.232 28.9591 173.045 29.4566C173.879 29.9324 174.756 30.1703 175.676 30.1703C176.617 30.1703 177.494 29.9324 178.306 29.4566C179.119 28.9808 179.771 28.2887 180.263 27.3803C180.777 26.4503 181.033 25.3688 181.033 24.136Z" fill="white"/>
<path d="M155.378 14.9224C156.771 14.9224 158.013 15.2142 159.106 15.7979C160.22 16.3815 161.087 17.2462 161.709 18.3919C162.33 19.5376 162.641 20.9211 162.641 22.5424V33.0807H159.01V23.0936C159.01 21.494 158.613 20.2726 157.821 19.4295C157.028 18.5648 155.946 18.1325 154.575 18.1325C153.204 18.1325 152.112 18.5648 151.297 19.4295C150.505 20.2726 150.109 21.494 150.109 23.0936V33.0807H146.445V15.2142H150.109V17.257C150.708 16.522 151.469 15.9492 152.39 15.5384C153.333 15.1277 154.329 14.9224 155.378 14.9224Z" fill="white"/>
<path d="M122.885 24.165C122.885 22.3514 123.258 20.7454 124.005 19.347C124.774 17.9486 125.806 16.867 127.102 16.1023C128.42 15.3157 129.87 14.9224 131.451 14.9224C132.879 14.9224 134.12 15.2064 135.175 15.7745C136.251 16.3208 137.108 17.0091 137.745 17.8394V15.2173H141.534V33.2765H137.745V30.5889C137.108 31.4411 136.24 32.1512 135.142 32.7193C134.043 33.2874 132.791 33.5715 131.386 33.5715C129.826 33.5715 128.398 33.1782 127.102 32.3916C125.806 31.5831 124.774 30.4688 124.005 29.0485C123.258 27.6064 122.885 25.9785 122.885 24.165ZM137.745 24.2305C137.745 22.9851 137.481 21.9035 136.954 20.9858C136.449 20.0681 135.779 19.3689 134.944 18.8882C134.109 18.4075 133.209 18.1671 132.242 18.1671C131.276 18.1671 130.375 18.4075 129.54 18.8882C128.706 19.347 128.025 20.0353 127.498 20.953C126.992 21.8489 126.74 22.9195 126.74 24.165C126.74 25.4104 126.992 26.5029 127.498 27.4425C128.025 28.3821 128.706 29.1031 129.54 29.6057C130.397 30.0864 131.298 30.3267 132.242 30.3267C133.209 30.3267 134.109 30.0864 134.944 29.6057C135.779 29.125 136.449 28.4258 136.954 27.5081C137.481 26.5685 137.745 25.476 137.745 24.2305Z" fill="white"/>
<path d="M113.49 30.0947H121.421V33.0831H109.643V10.5078H113.49V30.0947Z" fill="white"/>
</svg>
