<svg width="271" height="42" viewBox="0 0 271 42" fill="none" xmlns="http://www.w3.org/2000/svg">
<path d="M9.88742 31.9575C9.88742 31.9575 10.7126 35.3756 10.5841 35.8555C10.4556 36.3356 8.10858 36.7169 6.74232 37.4215C5.84613 37.8845 4.40209 38.9162 5.28137 39.7501C5.75821 40.203 7.09065 39.0592 11.0914 38.8277C15.1529 38.5926 15.8699 38.9262 15.6602 38.0615C15.4539 37.2003 14.3751 37.1015 13.4688 36.7202C13.1678 36.5943 12.8195 36.3934 12.674 36.1755C12.5354 35.9679 12.7383 32.4374 12.7383 32.4374L9.88742 31.9575Z" fill="white"/>
<path d="M17.6174 34.2793C17.6174 34.2793 17.7169 37.6359 17.7169 37.8507C17.7169 38.1649 16.8924 38.5419 15.6662 38.7964C14.44 39.0512 12.0125 39.4744 11.9805 40.9194C11.9592 41.8091 16.6436 40.6054 19.3198 40.6416C21.9961 40.6781 23.7127 41.0054 23.5883 39.9604C23.4888 39.1239 22.0956 38.7435 21.3457 38.5914C20.5958 38.4393 20.2546 38.0988 20.2332 37.6821C20.219 37.411 20.283 34.352 20.283 34.352L17.6174 34.2793Z" fill="white"/>
<path d="M6.40518 8.72852C6.40518 8.72852 4.03865 10.1491 3.77954 10.346C3.52043 10.5429 2.674 10.9719 2.28707 11.3024C1.67211 11.8298 1.11935 13.0183 1.34736 13.3172C1.57538 13.6126 1.90013 12.6913 2.80528 12.1287C3.71044 11.5661 5.26855 10.6765 5.69004 10.4444C6.11152 10.2124 6.2428 10.0823 6.2428 10.0823L6.40518 8.72852Z" fill="white"/>
<path d="M7.24251 8.30748C7.40164 7.96262 7.47275 7.17187 6.39265 5.78197C5.12294 4.14822 3.34195 4.08203 3.34195 4.08203L3.15234 4.73692L5.12294 6.76431L6.21658 9.19229C6.21658 9.19229 6.91407 9.01811 7.24251 8.30748Z" fill="white"/>
<path fill-rule="evenodd" clip-rule="evenodd" d="M6.61874 8.5336C6.98345 8.46899 9.54373 7.98898 10.6118 7.0691C10.7664 6.93595 10.9245 6.80452 11.0833 6.67242L11.0834 6.6724C12.1075 5.82072 13.1653 4.9411 13.5516 3.39239C13.8241 2.30198 13.8377 1.53869 13.8377 1.53869C13.8377 1.53869 9.81473 -0.795458 6.16985 1.12298C3.86401 2.33663 3.36182 3.82575 3.30404 4.75609C2.53885 4.76106 1.8955 5.39279 1.82349 5.89617C1.31142 6.41394 0.824306 7.13764 0.573725 8.12884C-0.0973423 10.7833 1.02337 13.2537 1.51731 13.4207C1.70807 13.4855 2.30078 12.286 2.30078 12.286C2.30078 12.286 3.13195 13.2469 3.54754 13.4684C3.62026 13.5078 3.68662 13.5454 3.74859 13.5805L3.74871 13.5805C4.0408 13.7459 4.23533 13.8561 4.53881 13.8364C5.25757 13.7887 6.31356 11.6931 6.2829 10.2858L6.34537 9.11531C6.45145 9.00181 6.55668 8.79021 6.61874 8.5336Z" fill="white"/>
<path d="M13.3692 7.72672C13.3692 7.72672 12.1585 4.89765 9.66733 5.01633C7.15523 5.13822 6.76795 6.85426 6.88308 7.87748C7.01567 9.06107 7.86699 9.71542 9.83132 9.65447C11.7991 9.59032 13.3692 7.72672 13.3692 7.72672Z" fill="white"/>
<path d="M10.2586 1.04195L13.3883 0.830566C13.3883 0.830566 15.1293 1.39541 16.7839 3.8003C18.9809 6.99875 18.6908 12.8481 18.6908 12.8481L24.7221 28.979L25.4511 34.3119C25.4511 34.3119 20.0552 35.1643 14.77 34.4749C8.54525 33.6604 2.12701 28.0017 2.22374 19.5465C2.32046 11.0912 9.00123 2.92706 9.00123 2.92706L10.2586 1.04195Z" fill="white"/>
<path d="M11.053 7.18718C11.053 8.00093 10.2693 8.72903 9.55504 8.72903C8.84397 8.72903 8.26562 8.06875 8.26562 7.25499C8.26562 6.44124 8.67963 5.54539 9.68777 5.48115C10.7528 5.4062 11.053 6.37343 11.053 7.18718Z" fill="#1E1E1E"/>
<path d="M25.8609 26.8462C25.8609 26.8462 26.6498 28.5894 29.6795 30.5251C32.25 32.1687 33.4983 33.1731 35.2763 33.7851C37.054 34.3972 37.1208 34.5586 37.054 34.8819C36.9875 35.2051 34.224 37.3026 31.1943 37.0448C28.1683 36.7868 26.7199 35.6246 25.7978 35.0125C24.8755 34.4005 23.1328 30.0748 23.1328 30.0748L25.8609 26.8462Z" fill="white"/>
<path d="M18.9916 13.375C18.9916 13.375 14.8621 14.578 13.0509 17.3053C11.533 19.5884 11.6675 23.4708 13.213 26.352C15.1243 29.9131 19.0744 32.4457 21.1788 33.4095C23.2832 34.3733 26.1637 34.8517 27.4264 34.7252C28.689 34.5988 26.2948 25.9692 23.9939 21.3485C21.7515 16.8405 18.9916 13.375 18.9916 13.375Z" fill="white"/>
<path d="M48.5571 34.8313C46.3153 32.5478 46.3153 28.904 48.5571 26.6208L55.0204 20.1666C55.7239 19.464 56.6482 18.9371 57.6139 18.6754C58.5796 18.4136 59.5936 18.4136 60.5146 18.6306C61.4803 18.8923 62.4046 19.3779 63.1529 20.0805C63.1979 20.1253 63.1979 20.1253 63.2393 20.1666C65.5258 22.45 65.5258 26.0938 63.2393 28.3772L56.776 34.8313C54.4928 37.1146 50.7989 37.1146 48.5571 34.8313ZM66.8469 16.5676C62.584 12.3108 55.5929 12.3108 51.3267 16.5676L44.9081 23.0217C40.6452 27.2784 40.6452 34.2596 44.9081 38.5197C49.171 42.7801 56.1621 42.7765 60.4283 38.5197L66.8916 32.0656C71.1097 27.8055 71.1097 20.8279 66.8469 16.5676Z" fill="white"/>
<path d="M63.228 15.6511C64.3405 15.0817 65.4035 15.4793 65.4035 15.4793C63.1056 13.7508 60.599 13.2588 58.4402 13.397C58.4269 13.4138 58.4171 13.4307 58.4039 13.4509C57.4569 14.9301 57.245 16.8844 57.8344 18.5286C58.7217 18.3063 59.6422 18.313 60.4832 18.5185C60.8276 18.6129 61.089 18.7039 61.6056 18.9498C61.609 18.9465 61.4268 16.5744 63.228 15.6511Z" fill="white"/>
<path d="M56.5598 18.8724C56.6065 18.5459 56.6281 18.2159 56.6497 17.886C56.7506 16.4654 57.01 15.0515 57.4208 13.6813C57.4496 13.5837 57.4785 13.4794 57.5073 13.375C56.394 13.54 55.3021 13.8564 54.2753 14.3277C52.6755 16.2567 53.2016 18.7546 55.0787 19.879C55.5076 19.4784 56.0121 19.1383 56.5598 18.8724Z" fill="white"/>
<path d="M76.2131 7.24867C78.455 9.53206 78.455 13.1758 76.2131 15.4592L69.7496 21.9133C69.0461 22.6159 68.1217 23.1429 67.156 23.4046C66.1903 23.6663 65.1763 23.6664 64.2555 23.4494C63.2898 23.1876 62.3655 22.702 61.6169 21.9994C61.5722 21.9547 61.5722 21.9547 61.5308 21.9133C59.244 19.6299 59.244 15.9862 61.5308 13.7028L67.9942 7.24867C70.2775 4.96528 73.9712 4.96528 76.2131 7.24867ZM57.9231 25.5123C62.1861 29.7691 69.1771 29.7691 73.4437 25.5123L79.8622 19.0582C84.1251 14.8014 84.1251 7.82038 79.8622 3.56011C75.5992 -0.700145 68.6082 -0.696702 64.3416 3.56011L57.8817 10.0142C53.6601 14.2745 53.6602 21.2521 57.9231 25.5123Z" fill="white"/>
<path d="M57.6507 12.3736C57.664 12.3634 57.6774 12.3497 57.6907 12.3394C57.8672 12.1819 58.0641 12.0312 58.294 11.9901C58.5241 11.949 58.794 12.0552 58.874 12.2812C58.934 12.449 58.8807 12.6339 58.8241 12.8017C57.9473 15.5239 57.244 18.979 58.0974 21.7971C58.1806 22.0711 58.2606 22.4238 58.0374 22.595C57.9073 22.6977 57.7139 22.6806 57.5707 22.6018C56.0039 21.7321 55.7305 19.3762 55.6572 17.76C55.5705 15.7191 56.1204 13.7536 57.6507 12.3736Z" fill="white"/>
<path d="M64.896 23.2054C64.6819 23.1768 64.4545 23.1304 64.4545 23.1304C64.4545 23.1304 64.4211 24.6552 63.2806 25.9194C62.0165 27.3193 60.7559 27.2836 60.7559 27.2836C61.4212 27.6941 62.749 28.1192 63.2306 28.2406L63.2806 28.1869C64.5615 26.8156 65.0966 24.9731 64.896 23.2054Z" fill="white"/>
<path d="M71.7003 19.8774L69.9448 21.6864C70.3829 23.7024 70.2644 25.8203 69.5859 27.7751C70.4388 27.4629 71.259 27.032 72.0231 26.4854C73.2843 24.259 73.0077 21.6287 71.7003 19.8774Z" fill="white"/>
<path d="M67.878 22.7848C67.6645 22.2392 67.2473 21.6867 66.725 21.7382C66.3995 21.7691 65.8943 22.0779 65.9282 23.0216C65.9518 23.7525 66.2267 24.4663 65.8333 25.4237C65.2568 26.8238 65.3889 27.2012 65.5281 27.4242C65.6805 27.6679 65.9621 27.7777 66.2231 27.7742C66.9117 27.7709 67.4814 27.1326 67.7934 26.4326C68.2985 25.3139 68.3292 23.9309 67.878 22.7848Z" fill="white"/>
<path d="M57.3709 36.2028C57.5937 36.0209 58.1718 35.4129 58.4398 35.7975C58.3423 36.8553 57.5171 37.7175 56.6117 38.2944C55.4974 39.0052 54.1774 39.4242 52.8508 39.3866C51.7503 39.3555 49.9256 38.9159 49.2848 37.9098C48.7625 37.0924 49.8662 36.9515 50.4791 37.1781C52.6627 37.9991 55.1316 38.0161 57.3709 36.2028Z" fill="white"/>
<path d="M263.981 14.4502C265.967 14.4502 267.592 15.0655 268.854 16.296C270.116 17.5059 270.747 19.3106 270.747 21.7101V31.4924H269.382V21.8024C269.382 19.8131 268.875 18.2955 267.861 17.2496C266.847 16.1832 265.471 15.65 263.733 15.65C261.912 15.65 260.453 16.2242 259.356 17.3726C258.28 18.5211 257.742 20.2232 257.742 22.4791V31.4924H256.346V8.72852H257.742V18.3263C258.218 17.0753 259.015 16.1216 260.132 15.4654C261.25 14.7886 262.533 14.4502 263.981 14.4502Z" fill="white"/>
<path d="M237.263 19.3508C237.727 18.0067 238.565 16.907 239.776 16.0516C241.007 15.1962 242.491 14.7686 244.227 14.7686C245.761 14.7686 247.124 15.1148 248.315 15.8072C249.526 16.4996 250.465 17.4874 251.131 18.7704C251.817 20.0535 252.16 21.5503 252.16 23.2611C252.16 24.9718 251.817 26.4788 251.131 27.7822C250.465 29.0653 249.526 30.0632 248.315 30.776C247.124 31.4684 245.761 31.8147 244.227 31.8147C242.511 31.8147 241.038 31.387 239.806 30.5316C238.595 29.6559 237.747 28.5561 237.263 27.2324V39.3907H235.9V14.9824H237.263V19.3508ZM250.767 23.2611C250.767 21.754 250.485 20.4506 249.92 19.3508C249.354 18.2511 248.557 17.4161 247.528 16.8459C246.518 16.2553 245.347 15.9599 244.015 15.9599C242.743 15.9599 241.593 16.2654 240.563 16.8764C239.534 17.467 238.726 18.3224 238.141 19.4425C237.556 20.5422 237.263 21.8151 237.263 23.2611C237.263 24.7274 237.556 26.0206 238.141 27.1407C238.726 28.2405 239.534 29.0958 240.563 29.7068C241.593 30.2974 242.743 30.5927 244.015 30.5927C245.347 30.5927 246.518 30.2974 247.528 29.7068C248.557 29.1162 249.354 28.271 249.92 27.1713C250.485 26.0715 250.767 24.7681 250.767 23.2611Z" fill="white"/>
<path d="M214.068 23.3323C214.068 21.6072 214.411 20.0978 215.096 18.804C215.802 17.5102 216.768 16.5142 217.993 15.8159C219.238 15.1177 220.65 14.7686 222.228 14.7686C224.014 14.7686 225.529 15.1998 226.775 16.0624C228.021 16.9249 228.893 18.0236 229.391 19.3585V14.9842H230.793V31.7112H229.391V27.3061C228.893 28.6615 228.011 29.7807 226.744 30.6638C225.498 31.5263 223.993 31.9576 222.228 31.9576C220.65 31.9576 219.238 31.6085 217.993 30.9102C216.768 30.1915 215.802 29.1852 215.096 27.8914C214.411 26.577 214.068 25.0573 214.068 23.3323ZM229.391 23.3323C229.391 21.8742 229.08 20.5906 228.457 19.4817C227.855 18.3522 227.024 17.4896 225.965 16.8941C224.907 16.278 223.723 15.9699 222.415 15.9699C221.045 15.9699 219.84 16.2677 218.802 16.8633C217.764 17.4383 216.954 18.2803 216.373 19.3893C215.792 20.4982 215.501 21.8126 215.501 23.3323C215.501 24.852 215.792 26.1663 216.373 27.2753C216.954 28.3842 217.764 29.2365 218.802 29.8321C219.861 30.4276 221.065 30.7254 222.415 30.7254C223.723 30.7254 224.907 30.4276 225.965 29.8321C227.045 29.216 227.886 28.3534 228.488 27.2445C229.09 26.115 229.391 24.8109 229.391 23.3323Z" fill="white"/>
<path d="M205.672 18.4817C206.075 17.2742 206.79 16.3585 207.818 15.7346C208.845 15.0906 210.154 14.7686 211.746 14.7686V16.1874H211.292C209.681 16.1874 208.341 16.6503 207.274 17.5761C206.206 18.4817 205.672 19.9711 205.672 22.044V31.493H204.312V15.1006H205.672V18.4817Z" fill="white"/>
<path d="M197.85 16.3002C197.234 14.6577 196.208 13.3478 194.771 12.3706C193.355 11.3933 191.672 10.9047 189.722 10.9047C188.018 10.9047 186.479 11.3102 185.103 12.1211C183.728 12.9319 182.64 14.0859 181.84 15.5829C181.039 17.0799 180.639 18.8264 180.639 20.8225C180.639 22.8185 181.039 24.565 181.84 26.062C182.64 27.559 183.728 28.713 185.103 29.5239C186.479 30.314 188.018 30.709 189.722 30.709C191.364 30.709 192.852 30.3348 194.186 29.5863C195.52 28.8377 196.588 27.7774 197.388 26.4051C198.189 25.012 198.63 23.3903 198.712 21.5398H189.075V20.3547H200.128V21.2903C200.067 23.3279 199.584 25.1576 198.681 26.7793C197.778 28.4011 196.546 29.6694 194.987 30.5843C193.427 31.4991 191.672 31.9565 189.722 31.9565C187.731 31.9565 185.935 31.4887 184.334 30.5531C182.733 29.5966 181.481 28.2764 180.577 26.5922C179.674 24.8873 179.223 22.964 179.223 20.8225C179.223 18.6601 179.674 16.7369 180.577 15.0527C181.481 13.3478 182.733 12.0275 184.334 11.0919C185.935 10.1354 187.731 9.65723 189.722 9.65723C192.041 9.65723 194.042 10.2498 195.725 11.4349C197.429 12.5993 198.671 14.221 199.451 16.3002H197.85Z" fill="white"/>
<path d="M165.496 14.3037C166.827 14.3037 168.002 14.5699 169.021 15.1022C170.06 15.614 170.871 16.259 171.453 17.037V14.5801H175.04V31.7781C175.04 33.3341 174.708 34.7161 174.042 35.924C173.377 37.1524 172.41 38.1147 171.142 38.8108C169.894 39.5069 168.397 39.855 166.65 39.855C164.321 39.855 162.388 39.3124 160.849 38.2273C159.31 37.1627 158.437 35.709 158.229 33.8664H161.753C162.024 34.7468 162.595 35.4531 163.469 35.9854C164.363 36.5382 165.423 36.8146 166.65 36.8146C168.085 36.8146 169.239 36.3847 170.112 35.5248C171.006 34.6649 171.453 33.416 171.453 31.7781V28.9527C170.85 29.7512 170.029 30.4268 168.989 30.9796C167.971 31.5119 166.806 31.7781 165.496 31.7781C163.999 31.7781 162.627 31.4096 161.379 30.6725C160.152 29.915 159.175 28.8708 158.447 27.54C157.74 26.1887 157.387 24.6634 157.387 22.9641C157.387 21.2648 157.74 19.76 158.447 18.4497C159.175 17.1393 160.152 16.1259 161.379 15.4093C162.627 14.6722 163.999 14.3037 165.496 14.3037ZM171.453 23.0255C171.453 21.8585 171.204 20.8451 170.705 19.9852C170.227 19.1253 169.592 18.4701 168.802 18.0197C168.012 17.5693 167.16 17.3441 166.245 17.3441C165.33 17.3441 164.477 17.5693 163.687 18.0197C162.897 18.4497 162.252 19.0946 161.753 19.9545C161.275 20.7939 161.036 21.7971 161.036 22.9641C161.036 24.1311 161.275 25.1548 161.753 26.0352C162.252 26.9156 162.897 27.5912 163.687 28.0621C164.498 28.5125 165.351 28.7377 166.245 28.7377C167.16 28.7377 168.012 28.5125 168.802 28.0621C169.592 27.6117 170.227 26.9565 170.705 26.0966C171.204 25.2162 171.453 24.1925 171.453 23.0255Z" fill="white"/>
<path d="M147.263 14.3037C148.581 14.3037 149.757 14.58 150.791 15.1325C151.846 15.685 152.667 16.5035 153.255 17.588C153.843 18.6726 154.137 19.9822 154.137 21.517V31.4928H150.7V22.0388C150.7 20.5245 150.325 19.3683 149.575 18.5703C148.824 17.7518 147.8 17.3425 146.502 17.3425C145.205 17.3425 144.17 17.7518 143.4 18.5703C142.649 19.3683 142.274 20.5245 142.274 22.0388V31.4928H138.807V14.58H142.274V16.5137C142.842 15.818 143.562 15.2757 144.434 14.8869C145.326 14.4981 146.269 14.3037 147.263 14.3037Z" fill="white"/>
<path d="M116.504 23.053C116.504 21.3362 116.857 19.8159 117.564 18.4922C118.292 17.1684 119.269 16.1446 120.496 15.4206C121.744 14.676 123.116 14.3037 124.613 14.3037C125.965 14.3037 127.14 14.5726 128.138 15.1104C129.157 15.6275 129.968 16.279 130.571 17.065V14.5829H134.158V31.6781H130.571V29.134C129.968 29.9407 129.146 30.6129 128.107 31.1507C127.067 31.6884 125.882 31.9573 124.551 31.9573C123.075 31.9573 121.723 31.585 120.496 30.8404C119.269 30.0751 118.292 29.0202 117.564 27.6758C116.857 26.3106 116.504 24.7697 116.504 23.053ZM130.571 23.115C130.571 21.936 130.321 20.9122 129.822 20.0435C129.344 19.1747 128.71 18.5129 127.919 18.0578C127.129 17.6028 126.277 17.3753 125.362 17.3753C124.447 17.3753 123.594 17.6028 122.804 18.0578C122.014 18.4922 121.37 19.1437 120.871 20.0124C120.392 20.8605 120.153 21.874 120.153 23.053C120.153 24.2319 120.392 25.2661 120.871 26.1555C121.37 27.0449 122.014 27.7275 122.804 28.2032C123.615 28.6583 124.468 28.8858 125.362 28.8858C126.277 28.8858 127.129 28.6583 127.919 28.2032C128.71 27.7482 129.344 27.0863 129.822 26.2176C130.321 25.3282 130.571 24.294 130.571 23.115Z" fill="white"/>
<path d="M107.457 28.6634H114.652V31.4922H103.967V10.1221H107.457V28.6634Z" fill="white"/>
</svg>
