<svg width="217" height="80" viewBox="0 0 217 80" fill="none" xmlns="http://www.w3.org/2000/svg">
<path d="M7.86149 32.008C7.86149 34.7623 8.46754 36.877 9.25967 38.1564C10.2983 39.8321 11.8473 40.542 13.4266 40.542C15.4635 40.542 17.3269 40.0378 20.9179 35.0834C23.7947 31.1124 27.1846 25.5385 29.4654 22.0441L33.328 16.124C36.0112 12.0126 39.1169 7.44203 42.6777 4.34401C45.5848 1.81542 48.7206 0.410645 51.8766 0.410645C57.1751 0.410645 62.2221 3.47355 66.0847 9.21806C70.312 15.5094 72.364 23.4339 72.364 31.6116C72.364 36.4731 71.4034 40.0453 69.7688 42.8674C68.1895 45.5966 65.1115 48.3234 59.9337 48.3234V40.542C64.3672 40.542 65.4736 36.4782 65.4736 31.8274C65.4736 25.1999 63.9246 17.8449 60.5121 12.5895C58.0904 8.86185 54.9521 6.58412 51.4994 6.58412C47.765 6.58412 44.7599 9.39366 41.3827 14.4032C39.5872 17.0647 37.7439 20.3082 35.6743 23.9682L33.3959 27.9943C28.8191 36.0893 27.6599 37.9331 25.3715 40.9759C21.3605 46.304 17.9354 48.3234 13.4266 48.3234C8.07776 48.3234 4.69546 46.0131 2.6007 42.5312C0.890697 39.6941 0.0507812 35.9714 0.0507812 31.7295L7.86149 32.008Z" fill="#D9D9D9"/>
<path d="M6.20898 9.76743C9.78994 4.26122 14.9577 0.410645 20.8849 0.410645C24.3175 0.410645 27.7299 1.42409 31.2933 4.32645C35.1911 7.49972 39.3454 12.725 44.5282 21.3367L46.3866 24.4272C50.8729 31.8825 53.4253 35.7181 54.919 37.5267C56.8403 39.8496 58.1857 40.542 59.9334 40.542C64.3668 40.542 65.4733 36.4782 65.4733 31.8274L72.3636 31.6116C72.3636 36.4731 71.403 40.0453 69.7684 42.8674C68.1892 45.5966 65.1112 48.3234 59.9334 48.3234C56.7146 48.3234 53.8629 47.626 50.7094 44.6584C48.2852 42.3807 45.4511 38.3345 43.2709 34.6971L36.7854 23.8904C33.5314 18.467 30.5464 14.4232 28.8188 12.592C26.9604 10.6228 24.5714 8.24476 20.7591 8.24476C17.6736 8.24476 15.0532 10.4046 12.8604 13.7083L6.20898 9.76743Z" fill="#D9D9D9"/>
<path d="M20.7595 8.24476C17.6739 8.24476 15.0536 10.4046 12.8607 13.7083C9.7601 18.3767 7.86149 25.3303 7.86149 32.008C7.86149 34.7623 8.46754 36.877 9.25967 38.1564L2.6007 42.5312C0.890697 39.6941 0.0507812 35.9714 0.0507812 31.7295C0.0507812 24.0158 2.1732 15.976 6.20932 9.76743C9.79028 4.26122 14.958 0.410645 20.8852 0.410645L20.7595 8.24476Z" fill="#D9D9D9"/>
<path d="M4.83203 60.7031H8.58926L14.9775 72.2318L21.3668 60.7031H25.0425V79.6464H21.9775V65.1281L16.3746 75.1818H13.4989L7.897 65.1281V79.6464H4.83203V60.7031ZM34.6462 67.7662C32.4482 67.7662 31.1243 69.4164 30.8075 71.4599H38.2675C38.1138 69.3549 36.8966 67.7662 34.6462 67.7662ZM27.7686 72.624C27.7686 68.3243 30.5544 65.1949 34.6996 65.1949C38.7768 65.1949 41.2112 68.2846 41.2112 72.8535V73.6933H30.8075C31.1766 75.9162 32.6552 77.4141 35.0394 77.4141C36.9416 77.4141 38.1306 76.8352 39.2578 75.7764L40.886 77.7656C39.3519 79.1728 37.4006 79.9844 34.9307 79.9844C30.4435 79.9844 27.7686 76.7204 27.7686 72.624ZM44.9277 68.0374H42.1063V65.5339H44.9277V61.3937H47.8849V65.5339H52.1713V68.0374H47.8849V74.3828C47.8849 76.5494 48.5793 77.3192 50.2859 77.3192C51.0649 77.3192 51.5114 77.2524 52.1713 77.1429V79.6193C51.3494 79.8509 50.5651 79.9573 49.716 79.9573C46.5234 79.9573 44.9277 78.2173 44.9277 74.7343V68.0374ZM64.6236 70.4721C64.0296 68.9762 62.7047 67.8747 60.7576 67.8747C58.227 67.8747 56.6072 69.6657 56.6072 72.5834C56.6072 75.428 58.0984 77.3056 60.6363 77.3056C62.6315 77.3056 64.0558 76.1477 64.6236 74.7072V70.4721ZM67.5809 79.6464H64.678V77.6707C63.8665 78.8338 62.39 79.9844 59.9984 79.9844C56.1523 79.9844 53.5819 76.7726 53.5819 72.5834C53.5819 68.3545 56.214 65.1949 60.1615 65.1949C62.1128 65.1949 63.6438 65.973 64.678 67.3468V65.5339H67.5809V79.6464Z" fill="#D9D9D9"/>
<path d="M192.834 32.1668C192.834 29.8109 193.311 27.7495 194.264 25.9826C195.218 24.1876 196.522 22.7993 198.177 21.8177C199.86 20.836 201.725 20.3452 203.772 20.3452C205.791 20.3452 207.544 20.7799 209.031 21.6494C210.517 22.5188 211.625 23.6126 212.354 24.9308V20.7238H216.225V43.7781H212.354V39.4869C211.597 40.8332 210.461 41.955 208.947 42.8525C207.46 43.722 205.721 44.1567 203.73 44.1567C201.683 44.1567 199.832 43.6518 198.177 42.6422C196.522 41.6325 195.218 40.2162 194.264 38.3931C193.311 36.5701 192.834 34.4947 192.834 32.1668ZM212.354 32.2089C212.354 30.47 212.004 28.9555 211.303 27.6654C210.601 26.3752 209.648 25.3936 208.442 24.7205C207.264 24.0193 205.96 23.6687 204.529 23.6687C203.099 23.6687 201.795 24.0053 200.617 24.6784C199.439 25.3515 198.499 26.3331 197.798 27.6233C197.097 28.9134 196.746 30.4279 196.746 32.1668C196.746 33.9337 197.097 35.4763 197.798 36.7945C198.499 38.0846 199.439 39.0803 200.617 39.7814C201.795 40.4545 203.099 40.7911 204.529 40.7911C205.96 40.7911 207.264 40.4545 208.442 39.7814C209.648 39.0803 210.601 38.0846 211.303 36.7945C212.004 35.4763 212.354 33.9478 212.354 32.2089Z" fill="white"/>
<path d="M178.646 20.3042C180.441 20.3042 182.039 20.6828 183.442 21.4401C184.844 22.1693 185.952 23.2771 186.765 24.7636C187.579 26.2501 187.985 28.0591 187.985 30.1906V43.7791H184.199V30.7375C184.199 28.4377 183.624 26.6848 182.474 25.4788C181.352 24.2447 179.824 23.6277 177.889 23.6277C175.897 23.6277 174.313 24.2728 173.135 25.5629C171.957 26.825 171.368 28.6621 171.368 31.0741V43.7791H167.581V30.7375C167.581 28.4377 167.007 26.6848 165.857 25.4788C164.735 24.2447 163.206 23.6277 161.271 23.6277C159.28 23.6277 157.695 24.2728 156.517 25.5629C155.339 26.825 154.75 28.6621 154.75 31.0741V43.7791H150.922V20.7249H154.75V24.0484C155.507 22.8424 156.517 21.9169 157.779 21.2718C159.069 20.6267 160.486 20.3042 162.028 20.3042C163.963 20.3042 165.674 20.7389 167.161 21.6084C168.647 22.4778 169.755 23.7539 170.484 25.4367C171.129 23.81 172.195 22.5479 173.682 21.6504C175.168 20.7529 176.823 20.3042 178.646 20.3042Z" fill="white"/>
<path d="M121.061 32.1668C121.061 29.8109 121.537 27.7495 122.491 25.9826C123.444 24.1876 124.749 22.7993 126.403 21.8177C128.086 20.836 129.951 20.3452 131.999 20.3452C134.018 20.3452 135.771 20.7799 137.257 21.6494C138.744 22.5188 139.852 23.6126 140.581 24.9308V20.7238H144.451V43.7781H140.581V39.4869C139.824 40.8332 138.688 41.955 137.173 42.8525C135.687 43.722 133.948 44.1567 131.957 44.1567C129.909 44.1567 128.058 43.6518 126.403 42.6422C124.749 41.6325 123.444 40.2162 122.491 38.3931C121.537 36.5701 121.061 34.4947 121.061 32.1668ZM140.581 32.2089C140.581 30.47 140.23 28.9555 139.529 27.6654C138.828 26.3752 137.874 25.3936 136.668 24.7205C135.49 24.0193 134.186 23.6687 132.756 23.6687C131.326 23.6687 130.021 24.0053 128.843 24.6784C127.665 25.3515 126.726 26.3331 126.025 27.6233C125.324 28.9134 124.973 30.4279 124.973 32.1668C124.973 33.9337 125.324 35.4763 126.025 36.7945C126.726 38.0846 127.665 39.0803 128.843 39.7814C130.021 40.4545 131.326 40.7911 132.756 40.7911C134.186 40.7911 135.49 40.4545 136.668 39.7814C137.874 39.0803 138.828 38.0846 139.529 36.7945C140.23 35.4763 140.581 33.9478 140.581 32.2089Z" fill="white"/>
<path d="M115.967 12.6465V43.7781H112.139V12.6465H115.967Z" fill="white"/>
<path d="M97.8088 40.666H108.074V43.7791H93.9805V14.4565H97.8088V40.666Z" fill="white"/>
</svg>
