<svg width="220" height="38" viewBox="0 0 220 38" fill="none" xmlns="http://www.w3.org/2000/svg">
<rect x="15.1738" y="0.84082" width="27.6626" height="5.39035" rx="2.69518" fill="#D9D9D9" fill-opacity="0.4"/>
<rect x="8.25391" y="0.84082" width="27.6626" height="5.39035" rx="2.69518" fill="#D9D9D9"/>
<rect x="23.2344" y="7.04297" width="27.6626" height="5.39035" rx="2.69518" fill="#D9D9D9" fill-opacity="0.4"/>
<rect x="16.3145" y="7.04297" width="27.6626" height="5.39035" rx="2.69518" fill="#D9D9D9"/>
<rect x="17.2773" y="13.2505" width="27.6626" height="5.39035" rx="2.69518" fill="#D9D9D9" fill-opacity="0.4"/>
<rect x="10.3574" y="13.2505" width="27.6626" height="5.39035" rx="2.69518" fill="#D9D9D9"/>
<rect x="7.11719" y="19.4546" width="27.6626" height="5.39035" rx="2.69518" fill="#D9D9D9" fill-opacity="0.4"/>
<rect x="0.197266" y="19.4546" width="27.6626" height="5.39035" rx="2.69518" fill="#D9D9D9"/>
<rect x="17.2773" y="25.6592" width="27.6626" height="5.39035" rx="2.69518" fill="#D9D9D9" fill-opacity="0.4"/>
<rect x="10.3574" y="25.6592" width="27.6626" height="5.39035" rx="2.69518" fill="#D9D9D9"/>
<rect x="33.8789" y="31.8633" width="19.4768" height="5.39035" rx="2.69518" fill="#D9D9D9" fill-opacity="0.4"/>
<rect x="29.0059" y="31.8633" width="19.4768" height="5.39035" rx="2.69518" fill="#D9D9D9"/>
<path d="M211.212 31.4228C209.608 31.4228 208.201 31.0411 206.99 30.2778C205.788 29.5144 204.847 28.4465 204.168 27.074C203.498 25.7015 203.162 24.0977 203.162 22.2626C203.162 20.4121 203.498 18.7967 204.168 17.4165C204.847 16.0363 205.788 14.9645 206.99 14.2012C208.201 13.4378 209.608 13.0562 211.212 13.0562C212.816 13.0562 214.219 13.4378 215.422 14.2012C216.633 14.9645 217.573 16.0363 218.244 17.4165C218.923 18.7967 219.262 20.4121 219.262 22.2626C219.262 24.0977 218.923 25.7015 218.244 27.074C217.573 28.4465 216.633 29.5144 215.422 30.2778C214.219 31.0411 212.816 31.4228 211.212 31.4228ZM211.212 28.9708C212.43 28.9708 213.433 28.6585 214.219 28.034C215.006 27.4094 215.588 26.5882 215.966 25.5704C216.343 24.5526 216.532 23.45 216.532 22.2626C216.532 21.0752 216.343 19.9687 215.966 18.9432C215.588 17.9177 215.006 17.0888 214.219 16.4565C213.433 15.8243 212.43 15.5081 211.212 15.5081C209.994 15.5081 208.991 15.8243 208.205 16.4565C207.418 17.0888 206.836 17.9177 206.458 18.9432C206.081 19.9687 205.892 21.0752 205.892 22.2626C205.892 23.45 206.081 24.5526 206.458 25.5704C206.836 26.5882 207.418 27.4094 208.205 28.034C208.991 28.6585 209.994 28.9708 211.212 28.9708Z" fill="white"/>
<path d="M196.268 31.0522V13.287H198.998V31.0522H196.268ZM197.656 10.3261C197.124 10.3261 196.665 10.1449 196.28 9.78249C195.902 9.42009 195.713 8.98444 195.713 8.47554C195.713 7.96664 195.902 7.53099 196.28 7.1686C196.665 6.8062 197.124 6.625 197.656 6.625C198.188 6.625 198.643 6.8062 199.021 7.1686C199.406 7.53099 199.599 7.96664 199.599 8.47554C199.599 8.98444 199.406 9.42009 199.021 9.78249C198.643 10.1449 198.188 10.3261 197.656 10.3261Z" fill="white"/>
<path d="M182.744 31.4228C181.264 31.4228 179.957 31.0488 178.823 30.3009C177.69 29.5452 176.803 28.4812 176.163 27.1087C175.523 25.7285 175.203 24.0977 175.203 22.2163C175.203 20.3504 175.523 18.7311 176.163 17.3586C176.803 15.9862 177.694 14.926 178.835 14.178C179.976 13.4301 181.294 13.0561 182.79 13.0561C183.947 13.0561 184.861 13.2489 185.531 13.6344C186.21 14.0123 186.727 14.444 187.081 14.9298C187.444 15.4079 187.725 15.8011 187.926 16.1095H188.157V7.36572H190.886V31.0527H188.249V28.3231H187.926C187.725 28.647 187.44 29.0556 187.07 29.5491C186.7 30.0349 186.171 30.4705 185.485 30.856C184.799 31.2339 183.885 31.4228 182.744 31.4228ZM183.114 28.9708C184.209 28.9708 185.134 28.6855 185.89 28.1149C186.646 27.5366 187.22 26.7386 187.613 25.7208C188.007 24.6953 188.203 23.5117 188.203 22.1701C188.203 20.8438 188.01 19.6834 187.625 18.6887C187.239 17.6863 186.669 16.9076 185.913 16.3524C185.157 15.7895 184.225 15.5081 183.114 15.5081C181.958 15.5081 180.994 15.805 180.223 16.3987C179.459 16.9847 178.885 17.7827 178.499 18.7928C178.122 19.7952 177.933 20.9209 177.933 22.1701C177.933 23.4346 178.125 24.5835 178.511 25.6167C178.904 26.6422 179.482 27.4595 180.246 28.0687C181.017 28.6701 181.973 28.9708 183.114 28.9708Z" fill="white"/>
<path d="M168.307 23.788V13.2861H171.037V31.0513H168.307V28.0442H168.122C167.706 28.9463 167.058 29.7135 166.179 30.3458C165.3 30.9704 164.19 31.2827 162.848 31.2827C161.738 31.2827 160.751 31.0398 159.887 30.554C159.024 30.0605 158.345 29.3203 157.852 28.3333C157.358 27.3387 157.111 26.0857 157.111 24.5744V13.2861H159.841V24.3894C159.841 25.6848 160.203 26.718 160.928 27.489C161.661 28.2601 162.594 28.6456 163.727 28.6456C164.406 28.6456 165.096 28.4721 165.797 28.1252C166.507 27.7782 167.1 27.2462 167.578 26.5291C168.064 25.812 168.307 24.8983 168.307 23.788Z" fill="white"/>
<path d="M153.007 13.2855V15.5987H143.801V13.2855H153.007ZM146.484 9.0293H149.214V25.9618C149.214 26.7328 149.325 27.3111 149.549 27.6966C149.78 28.0745 150.073 28.3289 150.428 28.46C150.79 28.5834 151.172 28.645 151.573 28.645C151.874 28.645 152.121 28.6296 152.313 28.5988C152.506 28.5602 152.66 28.5294 152.776 28.5062L153.331 30.9582C153.146 31.0276 152.888 31.097 152.556 31.1664C152.225 31.2435 151.804 31.2821 151.295 31.2821C150.524 31.2821 149.769 31.1163 149.029 30.7847C148.296 30.4532 147.687 29.9481 147.201 29.2696C146.723 28.5911 146.484 27.7352 146.484 26.702V9.0293Z" fill="white"/>
<path d="M137.837 13.2881C137.698 12.1161 137.135 11.2062 136.148 10.5585C135.161 9.91082 133.951 9.58698 132.517 9.58698C131.468 9.58698 130.55 9.75661 129.764 10.0959C128.985 10.4351 128.376 10.9016 127.936 11.4953C127.505 12.0891 127.289 12.7637 127.289 13.5194C127.289 14.1516 127.439 14.6952 127.74 15.1502C128.048 15.5974 128.441 15.9713 128.92 16.2721C129.398 16.5651 129.899 16.8079 130.423 17.0007C130.947 17.1858 131.429 17.3361 131.869 17.4518L134.275 18.0995C134.891 18.2614 135.578 18.485 136.333 18.7703C137.097 19.0556 137.825 19.445 138.519 19.9384C139.221 20.4242 139.799 21.0488 140.254 21.8121C140.709 22.5755 140.936 23.5123 140.936 24.6226C140.936 25.9026 140.601 27.0592 139.93 28.0924C139.267 29.1256 138.296 29.9468 137.016 30.5559C135.743 31.1651 134.197 31.4696 132.378 31.4696C130.681 31.4696 129.213 31.1959 127.971 30.6485C126.737 30.101 125.766 29.3377 125.057 28.3584C124.355 27.3792 123.958 26.2419 123.865 24.9465H126.826C126.903 25.8409 127.204 26.5811 127.728 27.1671C128.26 27.7454 128.931 28.1772 129.741 28.4625C130.558 28.7401 131.437 28.8789 132.378 28.8789C133.473 28.8789 134.456 28.7015 135.327 28.3468C136.198 27.9844 136.888 27.4833 137.397 26.8433C137.906 26.1956 138.161 25.44 138.161 24.5764C138.161 23.7899 137.941 23.1499 137.501 22.6564C137.062 22.1629 136.484 21.762 135.767 21.4536C135.049 21.1452 134.275 20.8753 133.442 20.644L130.527 19.8112C128.677 19.2792 127.212 18.5197 126.132 17.5327C125.053 16.5458 124.513 15.2543 124.513 13.6582C124.513 12.3319 124.871 11.1754 125.589 10.1884C126.313 9.19374 127.285 8.42268 128.503 7.87522C129.729 7.32006 131.098 7.04248 132.609 7.04248C134.136 7.04248 135.493 7.31621 136.68 7.86366C137.868 8.4034 138.808 9.14362 139.502 10.0843C140.204 11.025 140.574 12.0929 140.613 13.2881H137.837Z" fill="white"/>
<path d="M86.7461 7.36572H90.1696L98.2195 27.0277H98.497L106.547 7.36572H109.97V31.0527H107.287V13.0561H107.056L99.6536 31.0527H97.0629L89.6607 13.0561H89.4294V31.0527H86.7461V7.36572Z" fill="white"/>
<path d="M68.4258 31.0527V7.36572H71.2941V28.5082H82.3048V31.0527H68.4258Z" fill="white"/>
</svg>
