<svg width="140" height="46" viewBox="0 0 140 46" fill="none" xmlns="http://www.w3.org/2000/svg">
<path d="M58.896 8.59315H61.9437L63.2011 13.1437L63.6323 14.9193H63.7114L64.1374 13.1437L65.4008 8.59315H68.4486V21.4341H65.9911V17.459L65.9924 17.2515C66.0137 15.7322 66.2507 12.8186 66.3803 11.4939H66.3211L65.3365 14.9406L64.3371 18.0338H62.9278L61.9113 14.9406L60.9926 11.4939H60.9244L60.9558 11.801C61.1036 13.3009 61.3137 16.1116 61.3137 17.459V21.4344H58.896V8.59315ZM71.0408 18.9974H74.0389V11.0299H71.0408V8.59288H79.9418V11.0299H76.945V18.9977H79.942V21.4344H71.0411L71.0408 18.9974ZM82.3943 19.8163L84.0619 17.8204C85.0324 18.6152 86.23 19.1606 87.4746 19.1606C88.7074 19.1606 89.277 18.6829 89.277 18.0551C89.277 17.1306 88.5138 16.907 87.2992 16.3982L85.6267 15.6839C84.2043 15.1434 82.9055 14.0521 82.9055 12.1832C82.9055 10.0565 84.8207 8.35649 87.6104 8.35649C89.1545 8.35649 90.7149 8.93572 91.8738 10.0379L90.4102 11.8698C89.5058 11.2201 88.7055 10.8667 87.4514 10.8667C86.4946 10.8667 85.8449 11.2635 85.8449 12.0134C85.8449 12.7859 86.7055 13.0689 87.9369 13.5305L89.5074 14.1962C91.1889 14.8268 92.25 15.8755 92.25 17.6874C92.25 19.8223 90.4596 21.6705 87.2818 21.6705C85.5471 21.6705 83.7556 21.0356 82.3943 19.8163ZM97.6785 11.0302H93.8297V8.59315H104.432V11.0302H100.584V21.4347H97.6785V11.0302ZM109.32 10.8997H110.736C112.263 10.8997 113.081 11.326 113.081 12.594C113.081 13.8512 112.263 14.5085 110.736 14.5085H109.32V10.8997ZM116.546 21.4347L113.643 16.2975C115.013 15.6773 115.93 14.4809 115.93 12.594C115.93 9.56954 113.737 8.61226 111.055 8.59343H106.408V21.4341H109.32V16.8148H110.845L113.296 21.4344L116.546 21.4347ZM121.369 16.1163L121.672 14.9332L122.669 10.7919H122.747C122.968 11.7598 123.23 12.8036 123.481 13.7884L124.074 16.1163H121.369ZM125.43 21.4347H128.51L124.512 8.59315H121.029L117.031 21.4347H120.004L120.787 18.3808H124.651L125.43 21.4347ZM130.78 8.59343H133.68V18.9979H139.394V21.4347H130.78V8.59343ZM62.2705 36.7164L62.574 35.5334L63.5701 31.3918H63.6492C63.8696 32.3597 64.132 33.4035 64.3827 34.3886L64.9756 36.7164H62.2705ZM66.3304 42.0398H69.4122L65.412 29.1931H61.9282L57.928 42.0398H60.9021L61.6865 38.9842H65.5514L66.3304 42.0398ZM71.0408 39.5978H74.0389V31.6301H71.0408V29.1931H79.9418V31.6301H76.945V39.5978H79.942V42.0348H71.0411L71.0408 39.5978ZM82.5255 43.3129H92.0353V45.5263H82.5255V43.3129ZM33.2734 0.869141H41.6554V9.25754H33.2734V0.869141Z" fill="white"/>
<path d="M37.5996 0.869141H46.2429V9.03228H37.5996V0.869141Z" fill="white"/>
<path d="M0.144531 0.869141H8.30767V9.2723H0.144531V0.869141ZM0.144531 9.2723H8.30767V17.6755H0.144531V9.2723ZM0.144531 17.6755H8.30767V26.0789H0.144531V17.6755ZM0.144531 26.0789H8.30767V34.4821H0.144531V26.0789Z" fill="white"/>
<path d="M0.144531 34.4819H8.30767V42.6451H0.144531V34.4819Z" fill="white"/>
<path d="M3.99023 0.869141H12.6336V9.03228H3.99023V0.869141Z" fill="white"/>
<path d="M37.7953 9.03223H46.2465V17.6755H37.7953V9.03223ZM3.99023 9.03223H12.4414V17.6755H3.99023V9.03223Z" fill="white"/>
<path d="M25.1113 9.03223H33.2745V17.6755H25.1113V9.03223Z" fill="white"/>
<path d="M29.2773 9.03223H37.6005V17.6755H29.2773V9.03223ZM12.6309 9.03223H20.954V17.6755H12.6309V9.03223Z" fill="white"/>
<path d="M20.954 17.6758H29.2771V25.8389H20.954V17.6758ZM29.2771 17.6758H37.6005V25.8389H29.2771V17.6758ZM12.6309 17.6758H20.954V25.8389H12.6309V17.6758Z" fill="white"/>
<path d="M16.9492 25.8389H25.1124V34.4822H16.9492V25.8389Z" fill="white"/>
<path d="M20.793 25.8389H29.4363V34.4822H20.793V25.8389Z" fill="white"/>
<path d="M37.7953 17.6758H46.2465V25.8389H37.7953V17.6758ZM3.99023 17.6758H12.4414V25.8389H3.99023V17.6758Z" fill="white"/>
<path d="M33.2734 25.8389H41.9168V34.4822H33.2734V25.8389Z" fill="white"/>
<path d="M37.5996 25.8389H46.2429V34.4822H37.5996V25.8389Z" fill="white"/>
<path d="M33.2734 34.4819H41.9168V42.6451H33.2734V34.4819Z" fill="white"/>
<path d="M3.99023 25.8389H12.6336V34.4822H3.99023V25.8389Z" fill="white"/>
<path d="M37.7953 34.4819H46.2465V42.6451H37.7953V34.4819ZM3.99023 34.4819H12.4414V42.6451H3.99023V34.4819Z" fill="white"/>
</svg>
