<svg width="202" height="53" viewBox="0 0 202 53" fill="none" xmlns="http://www.w3.org/2000/svg">
<path d="M7.24626 1.48858C5.45251 3.28278 4.76917 5.76049 4.81188 10.2887C4.85459 13.749 4.76917 13.9625 3.53063 15.415C0.541053 18.7898 -0.355821 24.2151 1.43793 27.7181C2.24939 29.3841 2.24939 29.3841 1.39522 31.9046C0.37022 34.9803 0.541053 39.2522 1.8223 41.8154C2.54834 43.2251 2.54834 43.6096 2.07855 44.7203C1.35251 46.3863 0.88272 50.1883 1.22439 51.5553C1.43793 52.4097 1.73689 52.6233 2.93272 52.6233H4.34209L4.12855 50.3592C4.04313 48.9067 4.21397 47.4543 4.68376 46.2154C5.87959 42.9688 5.87959 42.5416 4.85459 41.1319C4.08584 40.1066 3.82959 39.0386 3.70147 36.7745C3.53063 34.2114 3.65876 33.4852 4.68376 31.4346C5.75147 29.2987 5.79417 28.9997 5.15355 28.3589C4.17126 27.2055 3.18897 24.6423 3.18897 23.0617C3.23168 21.1393 4.51293 18.4908 6.30667 16.8247C7.54521 15.6286 8.27126 15.3296 10.4921 15.0732C11.9869 14.9024 13.2681 14.5179 13.3535 14.2189C13.6952 13.1509 15.6171 11.2712 17.0265 10.5877C18.8202 9.73336 21.5535 9.69064 23.4327 10.5023C24.2015 10.8441 25.6108 11.9975 26.5077 13.0654C28.0025 14.8596 28.3014 15.0305 30.0098 15.0305C32.3587 15.0305 34.2806 16.1412 35.9035 18.5335C36.9712 20.0287 37.1421 20.7122 37.1421 23.1471C37.1421 25.5821 36.9712 26.2656 35.9035 27.7608L34.7077 29.5123L35.69 30.922C36.5014 32.0327 36.7577 33.0152 36.8431 35.5784C37.0139 38.7396 36.5869 40.4911 35.1348 42.4134C34.7504 42.9688 34.7931 43.4814 35.4764 44.763C36.0317 45.9591 36.2879 47.3261 36.2879 49.5475V52.666L37.7827 52.5379L39.2775 52.4097L39.2348 49.3766C39.2348 47.7106 38.9785 45.7882 38.6796 45.062C38.2525 43.9513 38.2952 43.396 39.0639 41.0464C40.1316 37.8852 40.0889 33.1861 38.9785 30.922C38.3379 29.6832 38.3379 29.4696 39.2348 27.7608C39.8754 26.3938 40.1316 25.1977 40.0889 23.1471C40.0462 19.8578 39.2775 17.8927 37.1848 15.5432C35.6473 13.8344 35.6046 13.7917 35.9035 11.1004C36.0744 9.22073 35.9462 7.59741 35.4764 5.71777C34.665 2.4284 33.8535 1.18955 32.1452 0.463326C31.0348 0.0361366 30.6504 0.0361328 29.7108 0.548763C28.3014 1.36042 26.7639 4.05173 26.4223 6.35855C26.2942 7.38381 26.0379 8.19548 25.8671 8.19548C25.6962 8.19548 24.6285 7.89644 23.5181 7.51197C21.1692 6.70031 18.1369 6.87119 16.0869 7.85373C14.6348 8.57995 14.2931 8.49451 14.2931 7.21294C14.2931 4.26532 11.5171 0.0788574 9.59521 0.0788574C9.08271 0.0788574 8.01501 0.719639 7.24626 1.48858ZM10.7056 4.6498C11.1754 5.67505 11.4744 7.34109 11.4744 9.04985L11.5171 11.7839L9.80875 12.0829C8.86917 12.2538 7.92959 12.2538 7.71605 12.1683C6.64834 11.4848 8.35667 3.06919 9.5525 3.06919C9.76605 3.06919 10.2785 3.79541 10.7056 4.6498ZM32.615 5.84592C33.0848 7.72556 33.2556 11.7412 32.8712 12.1256C32.7431 12.2111 31.8462 12.2111 30.8639 12.0829C29.1556 11.8266 29.0275 11.7412 28.8994 10.3741C28.7285 8.62267 29.4546 5.37602 30.3514 4.00901C31.2056 2.68472 31.9744 3.3255 32.615 5.84592Z" fill="white"/>
<path d="M16.2683 23.077C9.63618 25.9658 10.8143 33.5857 18.0572 34.6324C23.3804 35.386 27.7 33.0833 28.1363 29.3152C28.6599 24.2911 21.766 20.6486 16.2683 23.077ZM23.6858 25.1703C24.4276 25.5471 25.3439 26.552 25.7802 27.3893C26.5219 28.8128 26.5219 29.0222 25.8675 30.2363C25.4748 30.9899 24.5148 31.8273 23.6858 32.1622C20.5879 33.3764 15.3957 32.5809 14.3485 30.7387C11.9051 26.3008 18.5372 22.3652 23.6858 25.1703Z" fill="white"/>
<path d="M18.4667 27.4952C18.3339 27.6716 18.4224 28.2011 18.6437 28.6422C18.865 29.0834 19.1749 29.7893 19.3077 30.1863C19.4404 30.6275 19.7503 30.9805 20.0158 30.9805C20.2814 30.9805 20.5912 30.6275 20.724 30.1863C20.8568 29.7893 21.1666 29.0834 21.388 28.6422C21.6535 28.1569 21.742 27.6716 21.565 27.5393C21.1224 27.0981 18.688 27.054 18.4667 27.4952Z" fill="white"/>
<path d="M8.53766 23.5014C8.22257 23.8369 8.04252 24.6339 8.13255 25.305C8.22257 26.2697 8.49265 26.5214 9.70799 26.6052C10.9233 26.7311 11.2834 26.5633 11.6885 25.7244C12.6788 23.6691 10.0231 21.8236 8.53766 23.5014Z" fill="white"/>
<path d="M29.3027 23.2036C28.6926 23.6287 28.53 24.564 28.9367 25.7542C29.1807 26.5619 29.506 26.732 30.5228 26.6044C31.6209 26.5194 31.8649 26.2644 31.9462 25.2866C32.1496 23.3737 30.7261 22.2259 29.3027 23.2036Z" fill="white"/>
<path d="M198.012 40.1962L194.842 32.1425H184.523L181.371 40.1962H178.342L188.415 14.7158H191.109L201.111 40.1962H198.012ZM193.944 29.5215L190.933 21.5198C190.862 21.3116 190.745 20.9702 190.581 20.4958C190.428 20.0213 190.27 19.5296 190.105 19.0204C189.941 18.5113 189.806 18.1005 189.7 17.788C189.583 18.2625 189.454 18.7369 189.313 19.2113C189.184 19.6742 189.055 20.1081 188.925 20.5131C188.796 20.9066 188.685 21.2421 188.591 21.5198L185.527 29.5215H193.944Z" fill="white"/>
<path d="M160.728 40.1962L152.236 17.6438H152.098C152.144 18.1202 152.184 18.7011 152.219 19.3866C152.253 20.0722 152.282 20.8216 152.305 21.6349C152.328 22.4366 152.34 23.2558 152.34 24.0923V40.1962H149.607V14.7158H153.966L161.973 35.9088H162.094L170.222 14.7158H174.546V40.1962H171.64V23.8832C171.64 23.1279 171.652 22.3727 171.675 21.6175C171.698 20.8506 171.727 20.1303 171.761 19.4564C171.796 18.7708 171.83 18.1783 171.865 17.6787H171.727L163.131 40.1962H160.728Z" fill="white"/>
<path d="M142.711 40.1962L139.542 32.1425H129.222L126.07 40.1962H123.041L133.114 14.7158H135.808L145.811 40.1962H142.711ZM138.643 29.5215L135.632 21.5198C135.562 21.3116 135.444 20.9702 135.28 20.4958C135.127 20.0213 134.969 19.5296 134.804 19.0204C134.64 18.5113 134.505 18.1005 134.399 17.788C134.282 18.2625 134.153 18.7369 134.012 19.2113C133.883 19.6742 133.754 20.1081 133.625 20.5131C133.495 20.9066 133.384 21.2421 133.29 21.5198L130.226 29.5215H138.643Z" fill="white"/>
<path d="M107.857 40.1962V14.7158H110.783V37.5471H121.953V40.1962H107.857Z" fill="white"/>
<path d="M88.8809 40.1962V14.7158H91.9192V37.5471H103.519V40.1962H88.8809Z" fill="white"/>
<path d="M82.9212 27.4478C82.9212 29.4365 82.6724 31.2486 82.1748 32.8843C81.6772 34.5082 80.9366 35.9085 79.953 37.0852C78.9809 38.2502 77.7717 39.1504 76.3252 39.7858C74.8787 40.4212 73.2007 40.739 71.2913 40.739C69.3241 40.739 67.6056 40.4212 66.136 39.7858C64.6779 39.1504 63.4629 38.2443 62.4908 37.0676C61.5303 35.8908 60.8071 34.4847 60.3211 32.849C59.8466 31.2133 59.6094 29.4012 59.6094 27.4125C59.6094 24.7766 60.0375 22.4644 60.8939 20.4757C61.7502 18.487 63.0463 16.9396 64.7821 15.8335C66.5294 14.7274 68.7166 14.1743 71.3434 14.1743C73.8545 14.1743 75.9664 14.7215 77.6791 15.8159C79.4033 16.9102 80.7052 18.4517 81.5846 20.4404C82.4757 22.4173 82.9212 24.7531 82.9212 27.4478ZM62.7165 27.4478C62.7165 29.6365 63.0231 31.5311 63.6364 33.1314C64.2498 34.7318 65.1871 35.9673 66.4484 36.8381C67.7214 37.7089 69.3357 38.1443 71.2913 38.1443C73.2586 38.1443 74.8671 37.7089 76.1169 36.8381C77.3782 35.9673 78.3098 34.7318 78.9115 33.1314C79.5133 31.5311 79.8141 29.6365 79.8141 27.4478C79.8141 24.1177 79.1256 21.5171 77.7485 19.6461C76.383 17.7633 74.248 16.822 71.3434 16.822C69.3762 16.822 67.7561 17.2515 66.4832 18.1105C65.2102 18.9695 64.2613 20.1933 63.6364 21.7819C63.0231 23.3587 62.7165 25.2473 62.7165 27.4478Z" fill="white"/>
</svg>
