<svg width="175" height="55" viewBox="0 0 175 55" fill="none" xmlns="http://www.w3.org/2000/svg">
<path d="M49.9811 22.5092C50.5829 20.7057 50.791 18.7951 50.5916 16.9052C50.3922 15.0152 49.7898 13.1894 48.8247 11.5497C47.394 9.07117 45.2093 7.10889 42.5857 5.94572C39.9622 4.78255 37.0352 4.4786 34.2269 5.07768C32.6314 3.31141 30.597 1.99405 28.328 1.25789C26.0591 0.521742 23.6354 0.392719 21.3005 0.883784C18.9656 1.37485 16.8016 2.46871 15.0259 4.05551C13.2501 5.64231 11.9252 7.66618 11.1842 9.92385C9.31324 10.3057 7.54573 11.0805 5.99978 12.1966C4.45383 13.3127 3.16505 14.7443 2.21957 16.3958C0.77327 18.8702 0.155132 21.7382 0.45452 24.5852C0.753908 27.4322 1.95531 30.1107 3.88503 32.2334C3.28106 34.0361 3.07085 35.9463 3.26847 37.8363C3.46608 39.7263 4.06697 41.5525 5.03092 43.1927C6.46348 45.6721 8.65004 47.6349 11.2755 48.798C13.9009 49.9612 16.8296 50.2648 19.6395 49.6649C20.9071 51.0855 22.4646 52.2207 24.2081 52.9945C25.9516 53.7684 27.8409 54.1631 29.7498 54.1525C32.6283 54.1551 35.4332 53.2474 37.7595 51.5603C40.0859 49.8732 41.8134 47.4941 42.6928 44.7663C44.5635 44.3838 46.3307 43.6087 47.8766 42.4926C49.4225 41.3766 50.7114 39.9452 51.6574 38.2941C53.0866 35.8234 53.6941 32.9662 53.393 30.1311C53.0919 27.2959 51.8977 24.628 49.9811 22.5092ZM29.7498 50.6469C27.3924 50.6506 25.1089 49.8283 23.2997 48.3241L23.6179 48.1447L34.3329 41.9892C34.5996 41.8335 34.821 41.6115 34.9754 41.3449C35.1298 41.0783 35.2119 40.7764 35.2135 40.4687V25.4338L39.7433 28.0418C39.7657 28.0531 39.7851 28.0695 39.7999 28.0897C39.8147 28.1099 39.8245 28.1332 39.8285 28.1579V40.6167C39.8228 43.2751 38.7591 45.8231 36.8702 47.7029C34.9813 49.5827 32.4211 50.6413 29.7498 50.6469ZM8.08625 41.4402C6.90397 39.4085 6.47947 37.0269 6.88744 34.7144L7.20586 34.9046L17.9315 41.0601C18.1969 41.2151 18.499 41.2968 18.8067 41.2968C19.1144 41.2968 19.4165 41.2151 19.6819 41.0601L32.7841 33.5426V38.7478C32.7828 38.7748 32.7755 38.8012 32.7626 38.8249C32.7497 38.8487 32.7316 38.8692 32.7096 38.8851L21.8566 45.1145C19.5405 46.4424 16.7895 46.8013 14.2077 46.1124C11.6259 45.4235 9.42427 43.7431 8.08625 41.4402ZM5.26436 18.212C6.45483 16.1672 8.33389 14.6076 10.5689 13.8093V26.4792C10.5648 26.7853 10.6434 27.0868 10.7964 27.3524C10.9494 27.618 11.1712 27.8378 11.4387 27.9889L24.4772 35.4748L19.9472 38.0825C19.9227 38.0955 19.8954 38.1023 19.8676 38.1023C19.8398 38.1023 19.8125 38.0955 19.788 38.0825L8.95632 31.8639C6.6445 30.5302 4.95793 28.3392 4.26595 25.7706C3.57397 23.2019 3.93298 20.4651 5.26436 18.1593V18.212ZM42.4806 26.8171L29.3998 19.2573L33.9192 16.6596C33.9437 16.6467 33.9711 16.6399 33.9988 16.6399C34.0266 16.6399 34.0539 16.6467 34.0784 16.6596L44.9101 22.889C46.5662 23.8401 47.9164 25.2404 48.8029 26.9264C49.6894 28.6125 50.0756 30.5147 49.9166 32.4111C49.7575 34.3074 49.0597 36.1196 47.9046 37.6361C46.7495 39.1525 45.1847 40.3107 43.3931 40.9753V28.3054C43.3837 27.9998 43.2946 27.7019 43.1346 27.441C42.9746 27.18 42.7494 26.9651 42.4806 26.8171ZM46.9895 20.0704L46.6711 19.8802L35.9668 13.672C35.6998 13.5161 35.3958 13.4339 35.0862 13.4339C34.7766 13.4339 34.4726 13.5161 34.2056 13.672L21.1144 21.1893V15.9843C21.1116 15.9578 21.1161 15.9311 21.1273 15.907C21.1385 15.8828 21.156 15.8621 21.1781 15.8471L32.0098 9.62815C33.6699 8.67636 35.568 8.21466 37.482 8.29706C39.3961 8.37945 41.2471 9.00253 42.8184 10.0934C44.3897 11.1843 45.6165 12.6979 46.3552 14.4572C47.0939 16.2165 47.314 18.1487 46.9897 20.028L46.9895 20.0704ZM18.6421 29.2978L14.1124 26.7006C14.0897 26.687 14.0703 26.6686 14.0556 26.6467C14.0409 26.6249 14.0312 26.6 14.0272 26.574V14.1472C14.0296 12.2408 14.5774 10.3745 15.6064 8.76648C16.6354 7.15849 18.1031 5.87526 19.8379 5.06683C21.5727 4.25839 23.5028 3.95816 25.4028 4.20123C27.3027 4.44431 29.0938 5.22064 30.5667 6.43947L30.2483 6.61912L19.5335 12.7742C19.2668 12.9299 19.0454 13.1519 18.891 13.4185C18.7366 13.685 18.6545 13.987 18.6529 14.2947L18.6421 29.2978ZM21.1034 24.0189L26.9382 20.6718L32.7841 24.0189V30.7127L26.9596 34.0597L21.1142 30.7127L21.1034 24.0189Z" fill="white"/>
<path d="M172.439 39.4584V17.1807H174.809V39.4584H172.439Z" fill="white"/>
<path d="M166.413 39.4588L163.641 32.2675H154.619L151.863 39.4588H149.215L158.022 16.707H160.377L169.123 39.4588H166.413ZM162.856 29.9272L160.223 22.7824C160.162 22.5964 160.059 22.2916 159.915 21.868C159.782 21.4444 159.643 21.0053 159.5 20.5506C159.356 20.096 159.238 19.7292 159.146 19.4503C159.043 19.8739 158.93 20.2975 158.807 20.7211C158.694 21.1344 158.581 21.5219 158.468 21.8835C158.355 22.2348 158.258 22.5345 158.176 22.7824L155.497 29.9272H162.856Z" fill="white"/>
<path d="M140.7 22.3955C142.722 22.3955 144.252 22.8848 145.289 23.8634C146.326 24.8317 146.845 26.3913 146.845 28.5421V39.4593H144.293V28.7103C144.293 27.3138 143.967 26.269 143.313 25.5759C142.67 24.8827 141.68 24.5361 140.342 24.5361C138.454 24.5361 137.126 25.0611 136.359 26.111C135.591 27.1609 135.208 28.6849 135.208 30.6828V39.4593H132.625V22.7013H134.71L135.099 25.1172H135.239C135.602 24.5259 136.063 24.0316 136.623 23.634C137.183 23.2263 137.811 22.9205 138.506 22.7166C139.201 22.5025 139.932 22.3955 140.7 22.3955Z" fill="white"/>
<path d="M121.532 22.3955C122.96 22.3955 124.185 22.7146 125.205 23.3527C126.226 23.9908 127.006 24.8862 127.547 26.0389C128.088 27.1814 128.359 28.5193 128.359 30.0529V31.643H116.771C116.802 33.6294 117.292 35.1423 118.241 36.1818C119.19 37.2213 120.527 37.7411 122.251 37.7411C123.312 37.7411 124.251 37.6433 125.068 37.4478C125.884 37.2522 126.731 36.964 127.608 36.5832V38.8372C126.762 39.218 125.92 39.4959 125.083 39.6709C124.256 39.8458 123.277 39.9333 122.144 39.9333C120.532 39.9333 119.124 39.604 117.919 38.9453C116.725 38.2763 115.797 37.2985 115.134 36.012C114.47 34.7255 114.139 33.1508 114.139 31.2879C114.139 29.4662 114.44 27.8915 115.042 26.5638C115.654 25.2258 116.511 24.1966 117.613 23.4762C118.726 22.7557 120.032 22.3955 121.532 22.3955ZM121.501 24.4951C120.144 24.4951 119.062 24.9428 118.256 25.8382C117.45 26.7336 116.97 27.9841 116.817 29.5897H125.695C125.685 28.5811 125.527 27.696 125.221 26.9343C124.925 26.1624 124.471 25.5655 123.858 25.1435C123.246 24.7112 122.46 24.4951 121.501 24.4951Z" fill="white"/>
<path d="M103.508 22.3955C105.591 22.3955 107.253 23.1168 108.492 24.5595C109.732 26.0021 110.352 28.1712 110.352 31.0667C110.352 32.98 110.068 34.5864 109.498 35.8858C108.929 37.1852 108.127 38.1674 107.09 38.8324C106.064 39.4975 104.849 39.83 103.447 39.83C102.563 39.83 101.786 39.7123 101.115 39.477C100.444 39.2417 99.8702 38.9245 99.3926 38.5255C98.915 38.1265 98.5187 37.6916 98.2037 37.221H98.0208C98.0513 37.62 98.0869 38.1009 98.1275 38.6636C98.1783 39.2263 98.2037 39.7175 98.2037 40.137V47.0432H95.6582V22.7025H97.7464L98.0818 25.1887H98.2037C98.5289 24.6771 98.9252 24.2116 99.3926 23.7921C99.8601 23.3624 100.429 23.0247 101.1 22.7792C101.781 22.5234 102.583 22.3955 103.508 22.3955ZM103.066 24.5441C101.908 24.5441 100.973 24.7692 100.261 25.2194C99.5603 25.6696 99.0471 26.3449 98.722 27.2452C98.3968 28.1354 98.224 29.2557 98.2037 30.6063V31.0974C98.2037 32.5196 98.3561 33.7218 98.661 34.704C98.976 35.6862 99.4892 36.4331 100.2 36.9447C100.922 37.4563 101.887 37.7121 103.097 37.7121C104.133 37.7121 104.997 37.4307 105.688 36.868C106.379 36.3052 106.892 35.5225 107.227 34.5198C107.573 33.5069 107.746 32.3457 107.746 31.036C107.746 29.0511 107.359 27.4755 106.587 26.3091C105.825 25.1324 104.651 24.5441 103.066 24.5441Z" fill="white"/>
<path d="M90.913 28.3122C90.913 30.0509 90.6955 31.6353 90.2604 33.0654C89.8254 34.4851 89.1779 35.7094 88.3179 36.7383C87.468 37.7568 86.4107 38.5438 85.146 39.0994C83.8813 39.655 82.4143 39.9328 80.7449 39.9328C79.0249 39.9328 77.5225 39.655 76.2375 39.0994C74.9627 38.5438 73.9004 37.7516 73.0505 36.7228C72.2108 35.694 71.5784 34.4646 71.1535 33.0345C70.7387 31.6044 70.5312 30.02 70.5312 28.2813C70.5312 25.9767 70.9056 23.9551 71.6543 22.2164C72.403 20.4777 73.5362 19.1248 75.0538 18.1577C76.5815 17.1906 78.4937 16.707 80.7904 16.707C82.9859 16.707 84.8324 17.1854 86.3298 18.1422C87.8373 19.099 88.9755 20.4468 89.7444 22.1855C90.5235 23.914 90.913 25.9562 90.913 28.3122ZM73.2478 28.3122C73.2478 30.2258 73.5159 31.8822 74.0522 33.2814C74.5884 34.6806 75.4079 35.7609 76.5107 36.5222C77.6236 37.2835 79.035 37.6642 80.7449 37.6642C82.4649 37.6642 83.8712 37.2835 84.9639 36.5222C86.0667 35.7609 86.8812 34.6806 87.4073 33.2814C87.9334 31.8822 88.1965 30.2258 88.1965 28.3122C88.1965 25.4006 87.5945 23.1269 86.3905 21.4911C85.1966 19.8449 83.3299 19.0219 80.7904 19.0219C79.0704 19.0219 77.654 19.3974 76.5411 20.1485C75.4281 20.8995 74.5985 21.9695 74.0522 23.3584C73.5159 24.737 73.2478 26.3883 73.2478 28.3122Z" fill="white"/>
</svg>
