<svg width="197" height="46" viewBox="0 0 197 46" fill="none" xmlns="http://www.w3.org/2000/svg">
<path d="M16.9466 40.3421C18.3466 40.3421 19.4815 41.4813 19.4815 42.8866C19.4815 44.2919 18.3466 45.4311 16.9466 45.4311C15.5466 45.4311 14.4116 44.2919 14.4116 42.8866C14.4116 41.4813 15.5466 40.3421 16.9466 40.3421ZM31.0104 35.6995L33.5155 36.4445L31.527 43.1811C31.3532 43.7697 30.7959 44.1585 30.1857 44.1168L29.5715 44.0745L29.5564 44.087L23.1748 43.6374L23.3524 41.0209L27.6399 41.313L24.833 37.2486L26.9801 35.7543L29.7907 39.8237L31.0104 35.6995ZM3.7454 31.0425L6.35157 31.2278L6.04629 35.5308L10.088 32.7097L11.5801 34.8626L7.53304 37.6867L11.6639 38.9085L10.9255 41.4241L4.18264 39.4301C3.59396 39.256 3.20537 38.694 3.24874 38.0796L3.7454 31.0425ZM20.5726 27.3783L25.2763 33.0786L23.1563 34.8411L20.357 31.4487L19.4495 36.6645L16.7379 36.1887L17.6464 30.9648L13.8778 33.1952L12.4805 30.8145L18.814 27.0692C19.3963 26.7249 20.1415 26.8558 20.5726 27.3783ZM33.7325 23.5538L36.0821 22.2706L39.5051 28.5858C39.805 29.139 39.6814 29.8271 39.208 30.2404L38.7237 30.6603L33.7821 34.9772L32.0267 32.9512L35.3489 30.05L30.4005 29.1551L30.8752 26.5127L35.8202 27.4071L33.7325 23.5538ZM6.02259 16.9514L7.7926 18.9646L4.51599 21.8654L9.47389 22.7342L9.01436 25.3793L4.051 24.5098L6.18292 28.3785L3.84229 29.6782L0.36446 23.3676C0.0608109 22.8166 0.179451 22.1279 0.649771 21.7112L6.02259 16.9514ZM22.7812 14.8746L27.469 20.5595L25.3485 22.3213L22.5498 18.9274L21.6423 24.1448L18.9307 23.6691L19.836 18.4654L16.0819 20.6744L14.69 18.2906L20.4566 14.8968L20.4622 14.8747L20.4877 14.8781L21.025 14.5635C21.6072 14.221 22.351 14.3527 22.7812 14.8746ZM28.822 12.0787L29.8473 9.59872L36.479 12.3612C37.0579 12.6023 37.3923 13.2146 37.2836 13.8341L37.1732 14.4503L36.0407 20.9165L33.4063 20.4507L34.1655 16.1222L29.7656 18.5631L28.4727 16.2126L32.8809 13.7697L28.822 12.0787ZM16.1885 7.19168L16.3026 9.87426L11.9217 10.0622L15.2258 13.8524L13.2128 15.6205L9.90313 11.8246L9.13205 16.1582L6.49893 15.6854L7.76083 8.60359C7.87111 7.98467 8.39456 7.52548 9.02037 7.49868L9.6403 7.47084L9.65421 7.46073L16.1885 7.19168ZM25.1498 1.47074L29.8163 7.19162L27.6865 8.94208L24.9168 5.54606L23.9826 10.7565L21.2735 10.2672L22.2092 5.04496L18.4277 7.26425L17.0389 4.87861L23.3905 1.15315C23.9749 0.810346 24.7209 0.945016 25.1498 1.47074Z" fill="white"/>
<path d="M188.853 17.9512C190.359 17.9512 191.65 18.2875 192.726 18.9601C193.801 19.6327 194.624 20.5766 195.194 21.7916C195.764 22.9958 196.049 24.4062 196.049 26.0226V27.6987H183.836C183.868 29.7925 184.384 31.3873 185.385 32.483C186.385 33.5787 187.794 34.1266 189.612 34.1266C190.73 34.1266 191.72 34.0235 192.58 33.8174C193.441 33.6113 194.334 33.3075 195.259 32.9061V35.282C194.366 35.6834 193.479 35.9763 192.597 36.1607C191.725 36.3452 190.693 36.4374 189.499 36.4374C187.799 36.4374 186.315 36.0902 185.046 35.3959C183.787 34.6907 182.808 33.6601 182.109 32.304C181.41 30.9479 181.061 29.2881 181.061 27.3245C181.061 25.4042 181.378 23.7444 182.012 22.3449C182.658 20.9346 183.561 19.8497 184.723 19.0903C185.895 18.3309 187.272 17.9512 188.853 17.9512ZM188.821 20.1643C187.391 20.1643 186.25 20.6362 185.401 21.5801C184.551 22.5239 184.045 23.842 183.884 25.5344H193.242C193.231 24.4712 193.064 23.5383 192.742 22.7355C192.43 21.9218 191.951 21.2926 191.306 20.8478C190.66 20.3921 189.832 20.1643 188.821 20.1643Z" fill="white"/>
<path d="M170.304 17.9512C172.364 17.9512 173.923 18.4812 174.98 19.5414C176.037 20.5905 176.565 22.2801 176.565 24.6102V36.4374H173.966V24.7924C173.966 23.2795 173.633 22.1476 172.967 21.3966C172.312 20.6457 171.302 20.2702 169.939 20.2702C168.016 20.2702 166.663 20.8389 165.881 21.9764C165.099 23.1138 164.708 24.7648 164.708 26.9292V36.4374H162.076V18.2825H164.2L164.597 20.8997H164.739C165.109 20.2592 165.58 19.7236 166.15 19.2929C166.721 18.8512 167.36 18.5199 168.068 18.299C168.776 18.0671 169.522 17.9512 170.304 17.9512Z" fill="white"/>
<path d="M157.084 27.1617C157.084 28.6263 156.898 29.9336 156.528 31.0835C156.157 32.2335 155.622 33.2045 154.922 33.9964C154.223 34.7884 153.375 35.3959 152.38 35.819C151.394 36.2312 150.276 36.4374 149.026 36.4374C147.861 36.4374 146.791 36.2312 145.816 35.819C144.852 35.3959 144.015 34.7884 143.305 33.9964C142.606 33.2045 142.06 32.2335 141.668 31.0835C141.286 29.9336 141.096 28.6263 141.096 27.1617C141.096 25.209 141.419 23.5491 142.065 22.1822C142.711 20.8044 143.633 19.7575 144.83 19.0415C146.038 18.3146 147.474 17.9512 149.137 17.9512C150.727 17.9512 152.115 18.3146 153.301 19.0415C154.499 19.7683 155.426 20.8207 156.083 22.1984C156.75 23.5654 157.084 25.2198 157.084 27.1617ZM143.829 27.1617C143.829 28.5938 144.015 29.8359 144.385 30.8883C144.756 31.9406 145.328 32.7542 146.102 33.3292C146.875 33.9042 147.871 34.1917 149.09 34.1917C150.298 34.1917 151.288 33.9042 152.062 33.3292C152.846 32.7542 153.423 31.9406 153.794 30.8883C154.165 29.8359 154.35 28.5938 154.35 27.1617C154.35 25.7405 154.165 24.5146 153.794 23.484C153.423 22.4425 152.851 21.6397 152.078 21.0756C151.304 20.5115 150.303 20.2294 149.074 20.2294C147.262 20.2294 145.932 20.8424 145.085 22.0683C144.248 23.2942 143.829 24.992 143.829 27.1617Z" fill="white"/>
<path d="M133.22 36.4374C131.618 36.4374 130.206 36.1065 128.982 35.4447C127.759 34.7829 126.807 33.774 126.125 32.4179C125.443 31.0618 125.102 29.3532 125.102 27.2919C125.102 25.133 125.459 23.3701 126.173 22.0032C126.899 20.6254 127.894 19.6056 129.161 18.9438C130.428 18.2821 131.867 17.9512 133.48 17.9512C134.368 17.9512 135.223 18.0434 136.046 18.2278C136.879 18.4014 137.561 18.6238 138.092 18.895L137.28 21.157C136.739 20.94 136.111 20.7447 135.396 20.5711C134.693 20.3976 134.032 20.3108 133.415 20.3108C132.181 20.3108 131.153 20.5766 130.33 21.1081C129.518 21.6397 128.907 22.4208 128.495 23.4515C128.095 24.4821 127.894 25.7514 127.894 27.2594C127.894 28.7022 128.089 29.9336 128.479 30.9533C128.88 31.9731 129.47 32.7542 130.249 33.2967C131.039 33.8283 132.024 34.094 133.204 34.094C134.146 34.094 134.996 33.9964 135.754 33.8011C136.511 33.595 137.199 33.3563 137.816 33.0851V35.4935C137.22 35.7973 136.555 36.0305 135.819 36.1933C135.093 36.356 134.227 36.4374 133.22 36.4374Z" fill="white"/>
<path d="M114.168 17.9512C115.724 17.9512 117.058 18.2875 118.169 18.9601C119.281 19.6327 120.131 20.5766 120.72 21.7916C121.309 22.9958 121.604 24.4062 121.604 26.0226V27.6987H108.983C109.016 29.7925 109.55 31.3873 110.583 32.483C111.617 33.5787 113.073 34.1266 114.951 34.1266C116.107 34.1266 117.13 34.0235 118.019 33.8174C118.908 33.6113 119.831 33.3075 120.787 32.9061V35.282C119.864 35.6834 118.947 35.9763 118.036 36.1607C117.136 36.3452 116.069 36.4374 114.835 36.4374C113.079 36.4374 111.545 36.0902 110.233 35.3959C108.933 34.6907 107.921 33.6601 107.199 32.304C106.476 30.9479 106.115 29.2881 106.115 27.3245C106.115 25.4042 106.443 23.7444 107.099 22.3449C107.766 20.9346 108.699 19.8497 109.9 19.0903C111.111 18.3309 112.534 17.9512 114.168 17.9512ZM114.135 20.1643C112.656 20.1643 111.478 20.6362 110.6 21.5801C109.722 22.5239 109.2 23.842 109.033 25.5344H118.703C118.692 24.4712 118.519 23.5383 118.186 22.7355C117.864 21.9218 117.369 21.2926 116.702 20.8478C116.035 20.3921 115.179 20.1643 114.135 20.1643Z" fill="white"/>
<path d="M95.3603 17.9512C97.4211 17.9512 98.9799 18.4812 100.037 19.5414C101.094 20.5905 101.622 22.2801 101.622 24.6102V36.4374H99.0222V24.7924C99.0222 23.2795 98.6893 22.1476 98.0235 21.3966C97.3682 20.6457 96.359 20.2702 94.9956 20.2702C93.0722 20.2702 91.7195 20.8389 90.9374 21.9764C90.1554 23.1138 89.7643 24.7648 89.7643 26.9292V36.4374H87.1328V18.2825H89.257L89.6534 20.8997H89.796C90.1659 20.2592 90.6362 19.7236 91.2069 19.2929C91.7776 18.8512 92.417 18.5199 93.1251 18.299C93.8331 18.0671 94.5782 17.9512 95.3603 17.9512Z" fill="white"/>
<path d="M81.3019 18.6211V36.4378H78.399V18.6211H81.3019ZM79.8854 11.9561C80.3634 11.9561 80.7714 12.1024 81.1095 12.395C81.4592 12.6767 81.6341 13.1211 81.6341 13.728C81.6341 14.324 81.4592 14.7684 81.1095 15.061C80.7714 15.3536 80.3634 15.4999 79.8854 15.4999C79.3841 15.4999 78.9644 15.3536 78.6264 15.061C78.2999 14.7684 78.1367 14.324 78.1367 13.728C78.1367 13.1211 78.2999 12.6767 78.6264 12.395C78.9644 12.1024 79.3841 11.9561 79.8854 11.9561Z" fill="white"/>
<path d="M65.3356 12.4551C68.3895 12.4551 70.6179 13.062 72.0207 14.2759C73.4343 15.4788 74.1412 17.2067 74.1412 19.4594C74.1412 20.4764 73.9739 21.4443 73.6394 22.3629C73.3156 23.2705 72.7869 24.0743 72.0531 24.7742C71.3193 25.4631 70.3535 26.0099 69.1557 26.4146C67.9687 26.8082 66.5119 27.0051 64.7853 27.0051H61.9041V36.4372H59.1523V12.4551H65.3356ZM65.0766 14.8336H61.9041V24.6102H64.4777C65.9885 24.6102 67.2457 24.4461 68.2492 24.1181C69.2636 23.79 70.0244 23.2596 70.5315 22.5269C71.0387 21.7833 71.2923 20.7991 71.2923 19.5742C71.2923 17.9776 70.7905 16.7911 69.787 16.0147C68.7834 15.2273 67.2133 14.8336 65.0766 14.8336Z" fill="white"/>
</svg>
