<svg width="255" height="56" viewBox="0 0 255 56" fill="none" xmlns="http://www.w3.org/2000/svg">
<path fill-rule="evenodd" clip-rule="evenodd" d="M41.1817 13.7597C41.1817 14.3217 40.7241 14.7793 40.1611 14.7793C39.6001 14.7793 39.1424 14.3217 39.1424 13.7597C39.1424 13.1977 39.6001 12.7401 40.1611 12.7401C40.7241 12.7401 41.1817 13.1977 41.1817 13.7597ZM35.128 23.7624C35.128 23.2095 35.5776 22.7589 36.1316 22.7589C36.6856 22.7589 37.1352 23.2095 37.1352 23.7624C37.1352 24.3154 36.6856 24.766 36.1316 24.766C35.5776 24.766 35.128 24.3154 35.128 23.7624ZM35.128 42.8306C35.128 42.2776 35.5776 41.827 36.1316 41.827C36.6856 41.827 37.1352 42.2776 37.1352 42.8306C37.1352 43.3836 36.6856 43.8342 36.1316 43.8342C35.5776 43.8342 35.128 43.3836 35.128 42.8306ZM45.164 29.784C45.164 30.3369 44.7144 30.7875 44.1604 30.7875C43.6064 30.7875 43.1568 30.3369 43.1568 29.784C43.1568 29.231 43.6064 28.7804 44.1604 28.7804C44.7144 28.7804 45.164 29.231 45.164 29.784ZM52.1872 33.0677L47.1321 30.1673C47.1481 30.0409 47.1712 29.9154 47.1712 29.784C47.1712 28.124 45.8204 26.7732 44.1604 26.7732C42.4995 26.7732 41.1496 28.124 41.1496 29.784C41.1496 31.4439 42.4995 32.7947 44.1604 32.7947C44.9623 32.7947 45.6869 32.4746 46.2268 31.9627L51.0692 34.7407L46.7226 36.9144C46.3824 37.0851 46.1676 37.4323 46.1676 37.8127V46.2839L34.1054 53.7065L28.1038 50.2772V43.8342H33.3055C33.721 44.9993 34.8249 45.8413 36.1316 45.8413C37.7916 45.8413 39.1424 44.4905 39.1424 42.8306C39.1424 41.1697 37.7916 39.8198 36.1316 39.8198C34.8249 39.8198 33.721 40.6608 33.3055 41.827H28.1038V27.7768C28.1038 27.4245 27.9181 27.0974 27.6161 26.9157L22.5971 23.905L21.5644 25.6261L26.0966 28.3448V31.2964L20.074 35.9289V31.7911C20.074 31.486 19.9355 31.197 19.6977 31.0073L15.056 27.2941V22.2922L20.63 18.5759C20.91 18.3892 21.0776 18.0761 21.0776 17.7409V11.7194H19.0704V17.204L14.0635 20.5409L9.03441 17.202V9.2847L14.0524 6.35825V14.7302H16.0596V5.18706L20.077 2.84369L26.0946 6.31509L26.0956 18.7445C26.0956 19.1048 26.2883 19.437 26.6014 19.6156L33.161 23.364C33.1429 23.4955 33.1208 23.626 33.1208 23.7624C33.1208 25.4224 34.4707 26.7732 36.1316 26.7732C37.7916 26.7732 39.1424 25.4224 39.1424 23.7624C39.1424 22.1025 37.7916 20.7517 36.1316 20.7517C35.3348 20.7517 34.6142 21.0678 34.0752 21.5746L28.1028 18.1614L28.1018 6.3171L34.0863 2.86376L45.164 10.2492V12.723H43.0053C42.5818 11.5628 41.4668 10.7329 40.1611 10.7329C38.4921 10.7329 37.1352 12.0907 37.1352 13.7597C37.1352 15.4287 38.4921 16.7865 40.1611 16.7865C41.4918 16.7865 42.6239 15.9244 43.0294 14.7302H45.164V17.7409C45.164 18.1012 45.3567 18.4334 45.6698 18.612L52.1872 22.3373V33.0677ZM20.0921 53.7065L16.9277 51.7595L22.6643 47.6619L21.4981 46.028L15.0721 50.6174L8.03081 46.2839V38.3807L12.5611 35.662L11.5284 33.9408L6.98305 36.6686L2.00921 34.1817L2.0082 28.396L7.47582 25.6632L6.5786 23.8678L2.0082 26.152L2.00921 22.3373L7.99167 18.9191L13.0488 22.2761V27.2549L7.47582 30.9551L8.5858 32.6271L14.0083 29.0263L18.0668 32.2729V37.4734L13.4402 41.0312L14.6636 42.6218L26.0966 33.8284V50.2762L20.0921 53.7065ZM53.6886 20.8842L47.1712 17.1588V9.71223C47.1712 9.37603 47.0036 9.06291 46.7236 8.87725L34.6804 0.848555C34.3633 0.637802 33.9538 0.623752 33.6226 0.814434L27.1012 4.57788L20.5758 0.814434C20.2627 0.633788 19.8783 0.633788 19.5682 0.816441L7.52499 7.84155C7.21588 8.02119 7.02721 8.35137 7.02721 8.70864V17.1588L0.507821 20.8842C0.194698 21.0618 0.00200706 21.395 0.00200706 21.7553V22.1738C0.00100345 22.1948 0 22.2149 0 22.236V33.159C0 33.1791 0.00100345 33.1992 0.00200706 33.2182V34.8019C0.00200706 35.1823 0.216778 35.5295 0.556998 35.6991L6.02361 38.4329V46.8449C6.02361 47.1932 6.20325 47.5163 6.50032 47.699L19.5471 55.7277C19.7087 55.827 19.8914 55.8772 20.074 55.8772C20.2456 55.8772 20.4172 55.8331 20.5718 55.7447L27.1002 52.0154L33.6266 55.7447C33.9428 55.9264 34.3362 55.9194 34.6503 55.7277L47.6971 47.699C47.9942 47.5163 48.1748 47.1932 48.1748 46.8449V38.4329L53.6394 35.6991C53.9796 35.5295 54.1944 35.1823 54.1944 34.8019V21.7553C54.1944 21.395 54.0007 21.0628 53.6886 20.8842Z" fill="white"/>
<path d="M244.768 37.6947V17.9876H247.693V20.9642H247.898C248.257 19.9891 248.907 19.1979 249.848 18.5906C250.789 17.9833 251.85 17.6797 253.03 17.6797C253.253 17.6797 253.531 17.684 253.864 17.6925C254.198 17.7011 254.45 17.7139 254.621 17.731V20.8102C254.518 20.7846 254.283 20.7461 253.915 20.6948C253.556 20.6349 253.176 20.605 252.774 20.605C251.816 20.605 250.96 20.806 250.208 21.208C249.463 21.6014 248.873 22.1488 248.437 22.8502C248.009 23.5431 247.795 24.3342 247.795 25.2238V37.6947H244.768Z" fill="white"/>
<path d="M231.999 38.1047C230.1 38.1047 228.462 37.6856 227.085 36.8473C225.716 36.0006 224.66 34.8202 223.916 33.3062C223.18 31.7837 222.812 30.0132 222.812 27.9946C222.812 25.976 223.18 24.1968 223.916 22.6572C224.66 21.1091 225.695 19.903 227.021 19.0391C228.355 18.1667 229.912 17.7305 231.691 17.7305C232.717 17.7305 233.731 17.9015 234.732 18.2437C235.732 18.5858 236.643 19.1418 237.464 19.9116C238.286 20.6728 238.94 21.6821 239.427 22.9395C239.915 24.1968 240.159 25.745 240.159 27.584V28.867H224.968V26.2497H237.08C237.08 25.1377 236.857 24.1455 236.412 23.2731C235.976 22.4006 235.352 21.7121 234.539 21.2074C233.735 20.7028 232.786 20.4505 231.691 20.4505C230.485 20.4505 229.441 20.7498 228.56 21.3486C227.688 21.9387 227.016 22.7086 226.546 23.658C226.076 24.6074 225.84 25.6253 225.84 26.7115V28.4564C225.84 29.9447 226.097 31.2064 226.61 32.2413C227.132 33.2677 227.855 34.0504 228.778 34.5892C229.702 35.1196 230.776 35.3847 231.999 35.3847C232.794 35.3847 233.513 35.2735 234.154 35.0511C234.804 34.8202 235.365 34.478 235.835 34.0247C236.305 33.5628 236.669 32.9898 236.926 32.3055L239.851 33.1266C239.543 34.1188 239.025 34.9913 238.298 35.744C237.571 36.4881 236.673 37.0697 235.604 37.4888C234.535 37.8994 233.333 38.1047 231.999 38.1047Z" fill="white"/>
<path d="M207.721 30.5102L207.67 26.7638H208.286L216.907 17.988H220.654L211.467 27.277H211.211L207.721 30.5102ZM204.898 37.695V11.4189H207.926V37.695H204.898ZM217.421 37.695L209.723 27.9441L211.878 25.84L221.27 37.695H217.421Z" fill="white"/>
<path d="M190.338 38.156C189.089 38.156 187.956 37.9208 186.938 37.4504C185.92 36.9714 185.112 36.2828 184.513 35.3847C183.915 34.478 183.615 33.3832 183.615 32.1002C183.615 30.9711 183.838 30.0559 184.282 29.3546C184.727 28.6446 185.322 28.0886 186.066 27.6866C186.81 27.2846 187.631 26.9853 188.529 26.7885C189.436 26.5832 190.347 26.4207 191.262 26.301C192.459 26.147 193.43 26.0316 194.174 25.9546C194.927 25.869 195.475 25.7279 195.817 25.5312C196.167 25.3344 196.343 24.9923 196.343 24.5048V24.4021C196.343 23.1362 195.996 22.1526 195.303 21.4512C194.619 20.7498 193.58 20.3991 192.186 20.3991C190.74 20.3991 189.607 20.7156 188.786 21.3486C187.965 21.9815 187.387 22.6572 187.054 23.3757L184.18 22.3493C184.693 21.1518 185.377 20.2195 186.233 19.5523C187.096 18.8766 188.037 18.4062 189.055 18.141C190.082 17.8673 191.091 17.7305 192.083 17.7305C192.716 17.7305 193.443 17.8074 194.264 17.9614C195.094 18.1068 195.894 18.4105 196.663 18.8723C197.442 19.3342 198.088 20.0313 198.601 20.9637C199.114 21.896 199.371 23.1448 199.371 24.7101V37.6941H196.343V35.0255H196.189C195.983 35.4531 195.641 35.9107 195.162 36.3983C194.683 36.8858 194.046 37.3007 193.251 37.6428C192.455 37.9849 191.484 38.156 190.338 38.156ZM190.8 35.436C191.998 35.436 193.007 35.2008 193.828 34.7304C194.658 34.2599 195.282 33.6526 195.701 32.9085C196.129 32.1643 196.343 31.3817 196.343 30.5606V27.7893C196.214 27.9432 195.932 28.0844 195.496 28.2127C195.068 28.3324 194.572 28.4393 194.008 28.5334C193.452 28.619 192.909 28.6959 192.378 28.7644C191.856 28.8242 191.433 28.8756 191.108 28.9183C190.321 29.021 189.586 29.1878 188.901 29.4187C188.226 29.6411 187.678 29.979 187.259 30.4323C186.848 30.8771 186.643 31.4844 186.643 32.2542C186.643 33.3062 187.032 34.1017 187.811 34.6406C188.598 35.1709 189.594 35.436 190.8 35.436Z" fill="white"/>
<path d="M152.807 11.4189H156.604L165.534 33.2301H165.842L174.772 11.4189H178.57V37.695H175.593V17.7314H175.336L167.125 37.695H164.251L156.04 17.7314H155.783V37.695H152.807V11.4189Z" fill="white"/>
<path d="M139.63 38.1047C137.731 38.1047 136.093 37.6856 134.716 36.8473C133.347 36.0006 132.291 34.8202 131.547 33.3062C130.811 31.7837 130.443 30.0132 130.443 27.9946C130.443 25.976 130.811 24.1968 131.547 22.6572C132.291 21.1091 133.326 19.903 134.652 19.0391C135.986 18.1667 137.543 17.7305 139.322 17.7305C140.348 17.7305 141.362 17.9015 142.363 18.2437C143.363 18.5858 144.274 19.1418 145.095 19.9116C145.916 20.6728 146.571 21.6821 147.058 22.9395C147.546 24.1968 147.79 25.745 147.79 27.584V28.867H132.599V26.2497H144.71C144.71 25.1377 144.488 24.1455 144.043 23.2731C143.607 22.4006 142.983 21.7121 142.17 21.2074C141.366 20.7028 140.417 20.4505 139.322 20.4505C138.116 20.4505 137.072 20.7498 136.191 21.3486C135.319 21.9387 134.647 22.7086 134.177 23.658C133.706 24.6074 133.471 25.6253 133.471 26.7115V28.4564C133.471 29.9447 133.728 31.2064 134.241 32.2413C134.763 33.2677 135.486 34.0504 136.409 34.5892C137.333 35.1196 138.407 35.3847 139.63 35.3847C140.425 35.3847 141.144 35.2735 141.785 35.0511C142.435 34.8202 142.995 34.478 143.466 34.0247C143.936 33.5628 144.3 32.9898 144.556 32.3055L147.482 33.1266C147.174 34.1188 146.656 34.9913 145.929 35.744C145.202 36.4881 144.304 37.0697 143.235 37.4888C142.166 37.8994 140.964 38.1047 139.63 38.1047Z" fill="white"/>
<path d="M117.306 45.4948C115.844 45.4948 114.586 45.3067 113.534 44.9303C112.482 44.5625 111.605 44.075 110.904 43.4677C110.211 42.8689 109.659 42.2274 109.249 41.5432L111.661 39.8496C111.935 40.2088 112.281 40.6194 112.7 41.0813C113.119 41.5517 113.692 41.958 114.419 42.3001C115.155 42.6508 116.117 42.8262 117.306 42.8262C118.897 42.8262 120.21 42.4413 121.245 41.6715C122.28 40.9017 122.797 39.6956 122.797 38.0534V34.0504H122.541C122.318 34.4096 122.002 34.8544 121.591 35.3847C121.189 35.9065 120.608 36.3726 119.847 36.7832C119.094 37.1852 118.076 37.3862 116.793 37.3862C115.202 37.3862 113.774 37.0099 112.508 36.2572C111.25 35.5045 110.254 34.4096 109.518 32.9726C108.791 31.5357 108.428 29.7908 108.428 27.738C108.428 25.7194 108.783 23.9616 109.493 22.4648C110.203 20.9594 111.19 19.7961 112.456 18.975C113.722 18.1453 115.185 17.7305 116.844 17.7305C118.127 17.7305 119.145 17.9443 119.898 18.372C120.659 18.7911 121.241 19.2701 121.643 19.8089C122.053 20.3393 122.37 20.7755 122.592 21.1176H122.9V17.9871H125.825V38.2587C125.825 39.9522 125.44 41.3293 124.671 42.39C123.909 43.4591 122.883 44.2418 121.591 44.7379C120.308 45.2425 118.88 45.4948 117.306 45.4948ZM117.204 34.6662C118.418 34.6662 119.445 34.3882 120.283 33.8323C121.121 33.2763 121.758 32.4765 122.194 31.433C122.631 30.3895 122.849 29.1407 122.849 27.6866C122.849 26.2668 122.635 25.0137 122.207 23.9274C121.78 22.8411 121.147 21.9901 120.308 21.3742C119.47 20.7584 118.435 20.4505 117.204 20.4505C115.921 20.4505 114.851 20.7755 113.996 21.4255C113.149 22.0756 112.512 22.948 112.084 24.0429C111.665 25.1377 111.456 26.3523 111.456 27.6866C111.456 29.0552 111.669 30.2655 112.097 31.3176C112.533 32.3611 113.175 33.1822 114.022 33.7809C114.877 34.3711 115.938 34.6662 117.204 34.6662Z" fill="white"/>
<path d="M94.7913 38.156C93.5425 38.156 92.4092 37.9208 91.3914 37.4504C90.3735 36.9714 89.5652 36.2828 88.9665 35.3847C88.3677 34.478 88.0684 33.3832 88.0684 32.1002C88.0684 30.9711 88.2907 30.0559 88.7355 29.3546C89.1803 28.6446 89.7748 28.0886 90.5189 27.6866C91.2631 27.2846 92.0842 26.9853 92.9823 26.7885C93.889 26.5832 94.7999 26.4207 95.7151 26.301C96.9126 26.147 97.8834 26.0316 98.6275 25.9546C99.3802 25.869 99.9277 25.7279 100.27 25.5312C100.62 25.3344 100.796 24.9923 100.796 24.5048V24.4021C100.796 23.1362 100.449 22.1526 99.7566 21.4512C99.0723 20.7498 98.0331 20.3991 96.6389 20.3991C95.1934 20.3991 94.06 20.7156 93.2389 21.3486C92.4178 21.9815 91.8404 22.6572 91.5068 23.3757L88.6329 22.3493C89.1461 21.1518 89.8304 20.2195 90.6857 19.5523C91.5496 18.8766 92.4905 18.4062 93.5083 18.141C94.5347 17.8673 95.544 17.7305 96.5362 17.7305C97.1692 17.7305 97.8962 17.8074 98.7174 17.9614C99.547 18.1068 100.347 18.4105 101.117 18.8723C101.895 19.3342 102.541 20.0313 103.054 20.9637C103.567 21.896 103.824 23.1448 103.824 24.7101V37.6941H100.796V35.0255H100.642C100.437 35.4531 100.094 35.9107 99.6155 36.3983C99.1365 36.8858 98.4992 37.3007 97.7038 37.6428C96.9083 37.9849 95.9375 38.156 94.7913 38.156ZM95.2532 35.436C96.4507 35.436 97.46 35.2008 98.2811 34.7304C99.1108 34.2599 99.7352 33.6526 100.154 32.9085C100.582 32.1643 100.796 31.3817 100.796 30.5606V27.7893C100.668 27.9432 100.385 28.0844 99.949 28.2127C99.5214 28.3324 99.0253 28.4393 98.4608 28.5334C97.9048 28.619 97.3616 28.6959 96.8313 28.7644C96.3096 28.8242 95.8862 28.8756 95.5611 28.9183C94.7742 29.021 94.0386 29.1878 93.3544 29.4187C92.6786 29.6411 92.1312 29.979 91.7121 30.4323C91.3015 30.8771 91.0963 31.4844 91.0963 32.2542C91.0963 33.3062 91.4854 34.1017 92.2638 34.6406C93.0507 35.1709 94.0472 35.436 95.2532 35.436Z" fill="white"/>
<path d="M80.7332 17.9888C80.5792 16.6887 79.9548 15.6794 78.86 14.9609C77.7651 14.2424 76.4222 13.8832 74.8313 13.8832C73.668 13.8832 72.6502 14.0713 71.7777 14.4477C70.9138 14.824 70.2381 15.3415 69.7506 16.0001C69.2716 16.6588 69.0321 17.4072 69.0321 18.2454C69.0321 18.9468 69.1989 19.5498 69.5325 20.0545C69.8746 20.5506 70.3108 20.9654 70.8411 21.299C71.3714 21.624 71.9274 21.8934 72.5091 22.1073C73.0907 22.3126 73.6253 22.4794 74.1128 22.6077L76.7815 23.3261C77.4658 23.5058 78.227 23.7538 79.0652 24.0703C79.912 24.3868 80.7203 24.8187 81.4901 25.3661C82.2685 25.905 82.91 26.5978 83.4146 27.4446C83.9193 28.2914 84.1716 29.3306 84.1716 30.5623C84.1716 31.9822 83.7996 33.2652 83.0554 34.4114C82.3198 35.5575 81.2421 36.4685 79.8222 37.1442C78.4109 37.8199 76.6959 38.1578 74.6773 38.1578C72.7956 38.1578 71.1662 37.8541 69.7891 37.2468C68.4205 36.6395 67.3428 35.7927 66.5559 34.7065C65.7775 33.6202 65.337 32.3585 65.2344 30.9216H68.5189C68.6044 31.9138 68.938 32.7349 69.5196 33.385C70.1098 34.0265 70.854 34.5054 71.7521 34.8219C72.6587 35.1298 73.6338 35.2838 74.6773 35.2838C75.8919 35.2838 76.9825 35.0871 77.949 34.6936C78.9156 34.2916 79.6811 33.7356 80.2456 33.0257C80.8101 32.3072 81.0924 31.469 81.0924 30.511C81.0924 29.6386 80.8486 28.9286 80.3611 28.3812C79.8735 27.8338 79.232 27.389 78.4366 27.0469C77.6411 26.7047 76.7815 26.4054 75.8577 26.1488L72.6245 25.225C70.5717 24.6348 68.9466 23.7923 67.7491 22.6975C66.5516 21.6026 65.9529 20.1699 65.9529 18.3994C65.9529 16.9282 66.3506 15.6452 67.1461 14.5503C67.9501 13.4469 69.0278 12.5916 70.3793 11.9843C71.7392 11.3685 73.2575 11.0605 74.9339 11.0605C76.6275 11.0605 78.1329 11.3642 79.4501 11.9715C80.7674 12.5702 81.8109 13.3914 82.5807 14.4349C83.3591 15.4784 83.7696 16.663 83.8124 17.9888H80.7332Z" fill="white"/>
</svg>
