<svg width="188" height="41" viewBox="0 0 188 41" fill="none" xmlns="http://www.w3.org/2000/svg">
<g clip-path="url(#clip0_506_1881)">
<path d="M24.5044 0.509766L6.54957 7.95571C5.55111 8.36985 5.56145 9.79149 6.56617 10.1906L24.5959 17.3564C26.18 17.986 27.9442 17.986 29.5283 17.3564L47.5583 10.1903C48.5627 9.79149 48.5736 8.37012 47.5746 7.95598L29.6203 0.509493C27.9823 -0.169831 26.1422 -0.169831 24.5042 0.509493" fill="#FCB400"/>
<path d="M28.6621 21.2687V39.17C28.6621 40.0212 29.5187 40.6045 30.3084 40.2907L50.3991 32.4751C50.6232 32.3861 50.8154 32.2317 50.9508 32.0318C51.0862 31.832 51.1586 31.596 51.1585 31.3544V13.4533C51.1585 12.6019 50.3019 12.0189 49.5122 12.3326L29.4216 20.1482C29.1975 20.2373 29.0054 20.3918 28.87 20.5916C28.7345 20.7914 28.6621 21.0274 28.6621 21.269" fill="#18BFFF"/>
<path d="M23.9704 22.1929L18.0079 25.0782L17.4025 25.3715L4.81617 31.4157C4.0186 31.8014 3 31.2187 3 30.3304V13.5288C3 13.2074 3.16441 12.93 3.3849 12.7213C3.47536 12.631 3.57798 12.5539 3.68978 12.4921C3.99029 12.3112 4.41929 12.2629 4.78405 12.4075L23.8702 19.9869C24.8404 20.3727 24.9166 21.7351 23.9704 22.1932" fill="#F82B60"/>
<path d="M23.9703 22.1929L18.0078 25.0782L3.38477 12.721C3.47524 12.6308 3.57786 12.5538 3.68964 12.4921C3.99016 12.3112 4.41916 12.2629 4.78392 12.4075L23.8701 19.9869C24.8402 20.3727 24.9165 21.7351 23.9703 22.1932" fill="black" fill-opacity="0.25"/>
<path d="M77.272 23.2436L74.0499 14.5386C73.9184 14.1826 73.4159 14.1826 73.2842 14.5386L70.0626 23.2442C70.0397 23.3061 70.0321 23.3726 70.0405 23.438C70.0488 23.5035 70.0728 23.566 70.1104 23.6201C70.148 23.6743 70.1981 23.7185 70.2565 23.7491C70.3149 23.7796 70.3798 23.7956 70.4456 23.7955H76.889C76.9549 23.7955 77.0198 23.7795 77.0781 23.749C77.1365 23.7184 77.1866 23.6741 77.2242 23.6199C77.2618 23.5657 77.2858 23.5032 77.294 23.4378C77.3023 23.3723 77.2947 23.3058 77.2718 23.2439L77.272 23.2436ZM78.7605 28.1366H68.5744C68.4911 28.1366 68.4098 28.1622 68.3413 28.2098C68.2729 28.2575 68.2207 28.3251 68.1917 28.4034L66.1864 33.8199C66.1574 33.8982 66.1051 33.9657 66.0367 34.0134C65.9683 34.0611 65.887 34.0867 65.8036 34.0867H61.3887C61.3219 34.0867 61.2562 34.0702 61.1973 34.0389C61.1383 34.0075 61.088 33.9621 61.0506 33.9067C61.0132 33.8513 60.9899 33.7876 60.9828 33.7211C60.9757 33.6545 60.9849 33.5873 61.0098 33.5252L71.1743 8.1474C71.2047 8.0716 71.2571 8.00667 71.3247 7.96096C71.3923 7.91526 71.472 7.89088 71.5535 7.89096H75.7809C75.9475 7.89096 76.0975 7.99244 76.1598 8.1474L86.324 33.5249C86.349 33.5871 86.3583 33.6544 86.3513 33.7209C86.3442 33.7875 86.321 33.8514 86.2836 33.9068C86.2462 33.9623 86.1957 34.0077 86.1367 34.0392C86.0777 34.0706 86.0119 34.087 85.9451 34.0869H81.531C81.4476 34.0869 81.3663 34.0613 81.2978 34.0135C81.2294 33.9658 81.1772 33.8982 81.1483 33.8199L79.1426 28.4034C79.1136 28.3251 79.0614 28.2575 78.993 28.2098C78.9246 28.1622 78.8433 28.1366 78.7599 28.1366H78.7605ZM88.3926 16.7973H92.1686C92.2769 16.7973 92.3808 16.8404 92.4573 16.9171C92.5339 16.9939 92.5769 17.098 92.5769 17.2065V33.6774C92.5769 33.786 92.5339 33.8901 92.4573 33.9668C92.3808 34.0436 92.2769 34.0867 92.1686 34.0867H88.3926C88.2843 34.0867 88.1804 34.0436 88.1038 33.9668C88.0273 33.8901 87.9842 33.786 87.9842 33.6774V17.2062C87.9842 17.0977 88.0273 16.9936 88.1038 16.9169C88.1804 16.8401 88.2843 16.797 88.3926 16.797V16.7973ZM106.348 20.8038C106.348 20.9124 106.305 21.0165 106.229 21.0932C106.152 21.17 106.048 21.2131 105.94 21.2131H105.826C103.959 21.2131 102.589 21.6621 101.718 22.5602C100.847 23.4583 100.412 24.943 100.412 27.0137V33.6774C100.412 33.786 100.369 33.8901 100.292 33.9668C100.215 34.0436 100.112 34.0867 100.003 34.0867H96.2643C96.156 34.0867 96.0521 34.0436 95.9755 33.9668C95.899 33.8901 95.856 33.786 95.856 33.6774V17.2062C95.856 17.0977 95.899 16.9936 95.9755 16.9169C96.0521 16.8401 96.156 16.797 96.2643 16.797H99.9658C100.074 16.797 100.178 16.8401 100.254 16.9169C100.331 16.9936 100.374 17.0977 100.374 17.2062V20.4642H100.449C100.897 19.117 101.606 18.0822 102.578 17.3582C103.548 16.635 104.743 16.2729 106.162 16.2729H106.348V20.8036V20.8038ZM116.673 20.6516C116.565 20.6516 116.461 20.6947 116.385 20.7715C116.308 20.8482 116.265 20.9523 116.265 21.0608V27.9118C116.265 28.6104 116.401 29.1094 116.676 29.4087C116.949 29.708 117.422 29.8578 118.094 29.8578H118.47C118.578 29.8578 118.682 29.9009 118.759 29.9776C118.835 30.0544 118.879 30.1585 118.879 30.267V33.7145C118.879 33.8231 118.835 33.9272 118.759 34.0039C118.682 34.0807 118.578 34.1238 118.47 34.1238H116.862C115.194 34.1238 113.912 33.6935 113.016 32.8328C112.12 31.9721 111.672 30.6939 111.672 28.997V21.0608C111.672 20.9523 111.629 20.8482 111.552 20.7715C111.476 20.6947 111.372 20.6516 111.263 20.6516H108.906C108.798 20.6516 108.694 20.6085 108.618 20.5318C108.541 20.455 108.498 20.3509 108.498 20.2424V17.2062C108.498 17.0977 108.541 16.9936 108.618 16.9169C108.694 16.8401 108.798 16.797 108.906 16.797H111.264C111.372 16.797 111.476 16.7539 111.552 16.6771C111.629 16.6004 111.672 16.4963 111.672 16.3878V10.283C111.672 10.1745 111.715 10.0704 111.792 9.99363C111.868 9.91689 111.972 9.87378 112.08 9.87378H115.856C115.965 9.87378 116.069 9.91689 116.145 9.99363C116.222 10.0704 116.265 10.1745 116.265 10.283V16.3878C116.265 16.4963 116.308 16.6004 116.384 16.6771C116.461 16.7539 116.565 16.797 116.673 16.797H119.404C119.512 16.797 119.616 16.8401 119.692 16.9169C119.769 16.9936 119.812 17.0977 119.812 17.2062V20.2427C119.812 20.3512 119.769 20.4553 119.692 20.532C119.616 20.6088 119.512 20.6519 119.404 20.6519H116.673V20.6516ZM133.964 28.9597C134.823 28.0615 135.252 26.889 135.252 25.4417C135.252 23.9952 134.823 22.8221 133.964 21.924C133.105 21.0259 131.979 20.5769 130.585 20.5769C129.191 20.5769 128.065 21.0259 127.206 21.924C126.347 22.8221 125.918 23.9952 125.918 25.4417C125.918 26.889 126.347 28.0615 127.206 28.9597C128.065 29.8578 129.191 30.3068 130.585 30.3068C131.979 30.3068 133.105 29.8578 133.964 28.9597ZM125.245 33.5626C123.976 32.8394 122.974 31.7849 122.24 30.4004C121.505 29.0159 121.138 27.3631 121.138 25.4417C121.138 23.5211 121.505 21.8678 122.24 20.4833C122.974 19.0987 123.976 18.0451 125.245 17.3211C126.515 16.5976 127.909 16.2358 129.427 16.2358C130.772 16.2358 131.923 16.4977 132.882 17.0215C133.839 17.5453 134.605 18.2817 135.178 19.2297H135.252V17.2062C135.252 17.0977 135.295 16.9936 135.372 16.9169C135.449 16.8401 135.552 16.797 135.661 16.797H139.399C139.508 16.797 139.612 16.8401 139.688 16.9169C139.765 16.9936 139.808 17.0977 139.808 17.2062V33.6772C139.808 33.7857 139.765 33.8898 139.688 33.9665C139.612 34.0433 139.508 34.0864 139.399 34.0864H135.661C135.552 34.0864 135.449 34.0433 135.372 33.9665C135.295 33.8898 135.252 33.7857 135.252 33.6772V31.654H135.178C134.605 32.6026 133.839 33.3381 132.881 33.8619C131.923 34.3857 130.772 34.6476 129.427 34.6476C127.909 34.6476 126.515 34.2858 125.245 33.5626ZM155.357 28.9597C156.216 28.0615 156.645 26.889 156.645 25.4417C156.645 23.9952 156.216 22.8221 155.357 21.924C154.499 21.0259 153.372 20.5769 151.978 20.5769C150.584 20.5769 149.458 21.0259 148.599 21.924C147.74 22.8221 147.31 23.9952 147.31 25.4417C147.31 26.889 147.74 28.0615 148.599 28.9597C149.458 29.8578 150.584 30.3068 151.978 30.3068C153.372 30.3068 154.499 29.8578 155.357 28.9597ZM149.682 33.8619C148.723 33.3381 147.957 32.6026 147.385 31.654H147.31V33.6772C147.31 33.7857 147.267 33.8898 147.191 33.9665C147.114 34.0433 147.01 34.0864 146.902 34.0864H143.126C143.018 34.0864 142.914 34.0433 142.837 33.9665C142.761 33.8898 142.718 33.7857 142.718 33.6772V8.29936C142.718 8.19083 142.761 8.08674 142.837 8.01C142.914 7.93325 143.018 7.89014 143.126 7.89014H146.902C147.01 7.89014 147.114 7.93325 147.191 8.01C147.267 8.08674 147.31 8.19083 147.31 8.29936V19.2294H147.385C147.957 18.2814 148.723 17.5453 149.682 17.0215C150.64 16.4975 151.791 16.2356 153.136 16.2356C154.654 16.2356 156.048 16.5973 157.318 17.3208C158.587 18.0449 159.589 19.0985 160.323 20.4827C161.057 21.8681 161.425 23.5214 161.425 25.442C161.425 27.3634 161.057 29.0159 160.324 30.4007C159.589 31.7852 158.587 32.8396 157.318 33.5626C156.048 34.2861 154.654 34.6481 153.136 34.6481C151.791 34.6481 150.64 34.3862 149.682 33.8621L149.682 33.8619ZM167.787 34.0867H164.011C163.903 34.0867 163.799 34.0436 163.722 33.9668C163.646 33.8901 163.603 33.786 163.603 33.6774V8.30018C163.603 8.19165 163.646 8.08756 163.722 8.01081C163.799 7.93407 163.903 7.89096 164.011 7.89096H167.787C167.896 7.89096 167.999 7.93407 168.076 8.01081C168.153 8.08756 168.196 8.19165 168.196 8.30018V33.6774C168.196 33.786 168.153 33.8901 168.076 33.9668C167.999 34.0436 167.896 34.0867 167.787 34.0867ZM176.694 20.8017C176.068 21.2911 175.646 21.9977 175.427 22.922C175.367 23.1768 175.565 23.4212 175.826 23.4212H183.013C183.262 23.4212 183.458 23.1975 183.418 22.9509C183.274 22.0765 182.9 21.3795 182.295 20.8579C181.586 20.2468 180.658 19.9412 179.513 19.9412C178.368 19.9412 177.428 20.2279 176.694 20.8017ZM185.899 18.6497C187.367 20.2593 188.102 22.5359 188.102 25.4793V25.9682C188.102 26.0768 188.059 26.1809 187.982 26.2576C187.905 26.3343 187.802 26.3775 187.693 26.3775H175.688C175.628 26.3776 175.569 26.3908 175.515 26.4161C175.461 26.4415 175.413 26.4784 175.374 26.5243C175.336 26.5702 175.308 26.6239 175.292 26.6817C175.276 26.7396 175.273 26.8002 175.284 26.8592C175.475 27.9527 175.958 28.8213 176.732 29.4649C177.615 30.2015 178.729 30.569 180.074 30.569C181.809 30.569 183.415 29.8902 184.892 28.5324C185.073 28.3666 185.359 28.4017 185.499 28.6034L187.334 31.2442C187.392 31.3263 187.417 31.4268 187.406 31.5265C187.394 31.6262 187.347 31.7182 187.272 31.7849C186.371 32.5754 185.369 33.2425 184.293 33.7686C183.098 34.3546 181.691 34.6481 180.074 34.6481C178.207 34.6481 176.576 34.2673 175.182 33.5067C173.788 32.7461 172.705 31.6733 171.934 30.2883C171.162 28.9037 170.776 27.3009 170.776 25.4793C170.776 23.6586 171.15 22.0495 171.896 20.6519C172.643 19.2551 173.688 18.1698 175.033 17.3961C176.377 16.6232 177.945 16.2361 179.738 16.2361C182.375 16.2361 184.429 17.0409 185.899 18.6497ZM93.0702 10.708C93.0702 12.2516 91.8216 13.503 90.2811 13.503C88.7404 13.503 87.4918 12.2516 87.4918 10.7078C87.4918 9.16391 88.7407 7.91251 90.2811 7.91251C91.8216 7.91251 93.0702 9.16391 93.0702 10.7078" fill="white"/>
</g>
<defs>
<clipPath id="clip0_506_1881">
<rect width="188" height="41" fill="white"/>
</clipPath>
</defs>
</svg>
