<svg width="186" height="22" viewBox="0 0 186 22" fill="none" xmlns="http://www.w3.org/2000/svg">
<path fill-rule="evenodd" clip-rule="evenodd" d="M128.131 22L141.398 0H185.851V3.62737H152.506L149.213 9.17725H166.816L164.694 12.8046H146.999L143.612 18.3545H161.308L159.094 22H128.131ZM96.2191 16.2688H109.56C109.114 16.9035 108.909 17.5383 109.188 17.9373C109.672 18.6447 111.384 18.2998 111.831 18.155C112.724 17.8829 113.208 17.3388 113.635 16.6134L115.869 12.8046H102.267C99.4193 12.8046 99.3265 11.1542 100.48 9.17725L104.667 2.24897C105.914 0.253916 107.589 0 109.728 0H133.378C135.779 0 135.779 1.90437 134.811 3.62737L133.471 5.96702H120.055C120.465 5.20528 120.483 4.53421 120.167 4.11706C119.646 3.42786 118.269 3.57296 117.543 3.9357C116.967 4.24402 116.483 4.76999 115.962 5.62242L113.822 9.17725H126.977C129.75 9.17725 130.178 11.1544 129.303 12.8046L125.303 19.3157C124.224 21.0387 122.363 22 120.223 22H96.7406C94.4333 22 93.6334 20.5128 94.6191 18.8805L96.2191 16.2688ZM68.1218 3.62737C70.2617 0 73.8157 0 76.5696 0H96.6659C98.7869 0 100.573 1.723 99.4193 3.62737L90.5438 18.3545C88.6645 21.2927 87.1573 22 84.7569 22H61.3673C59.06 22 57.9994 20.3495 59.2461 18.3545L68.1218 3.62737ZM79.7887 5.62242L73.0156 16.6134C72.7923 17.0124 72.6993 17.3749 72.8295 17.6653C73.2575 18.5721 75.8812 18.4089 76.7929 18.2275C78.0954 17.9373 78.4304 17.0305 78.7095 16.6134L85.3896 5.62242C85.8547 4.84254 85.7989 4.33471 85.3896 4.02638C84.7941 3.57296 82.9706 3.53669 81.9658 3.80874C81.1098 4.04452 80.4028 4.57049 79.7887 5.62242ZM35.6705 0H61.4604C63.5072 0 65.1074 1.81369 63.7677 3.99011L61.1068 8.39736C59.9532 10.3924 57.9994 11.3355 56.5666 11.3355C57.9994 12.1154 57.9994 13.4936 57.2737 14.709L54.6128 19.2248C53.9058 20.44 52.8265 22 49.5516 22H0V18.3545H24.5618L35.6705 0ZM43.4112 9.17725H49.9796C51.5054 9.17725 52.1194 8.39736 52.473 7.70816L53.8127 5.62242C54.3523 4.67931 54.3523 3.62737 53.1987 3.62737H46.7791L43.4112 9.17725ZM37.8103 18.3545H44.3788C45.9046 18.3545 46.5186 17.5744 46.8719 16.8854L48.2119 14.7997C48.7515 13.8384 48.7515 12.8046 47.5792 12.8046H41.1783L37.8103 18.3545ZM184.12 8.03463C183.097 8.03463 182.222 7.25474 182.222 6.2028C182.222 5.15087 183.097 4.38912 184.12 4.38912C185.144 4.38912 186 5.15087 186 6.2028C186 7.25474 185.144 8.03463 184.12 8.03463ZM182.595 6.2028C182.595 7.07337 183.265 7.7263 184.12 7.7263C184.958 7.7263 185.628 7.07337 185.628 6.2028C185.628 5.33223 184.958 4.67931 184.12 4.67931C183.265 4.67931 182.595 5.33223 182.595 6.2028ZM183.73 6.3479V7.25474H183.395V5.15087H184.214C184.735 5.15087 184.977 5.33223 184.977 5.74938C184.977 6.13026 184.735 6.29349 184.418 6.32976L185.033 7.25474H184.66L184.102 6.3479H183.73ZM183.73 6.07585H184.121C184.4 6.07585 184.642 6.05771 184.642 5.73125C184.642 5.47733 184.4 5.42292 184.177 5.42292H183.73V6.07585Z" fill="white"/>
</svg>
