<svg width="100" height="100" viewBox="0 0 100 100" fill="none" xmlns="http://www.w3.org/2000/svg">
<g clip-path="url(#clip0_506_1864)">
<path d="M50 100C77.6143 100 100 77.6143 100 50C100 22.3858 77.6143 0 50 0C22.3858 0 0 22.3858 0 50C0 77.6143 22.3858 100 50 100Z" fill="#23BEC7"/>
<path d="M51.1643 50.8429C52.6267 49.5584 53.8137 48.3484 55.3793 47.6889C56.2968 47.3047 57.3118 46.7599 58.1835 47.6029C59.0551 48.4458 58.5046 49.3691 58.2408 50.2752C57.7132 52.093 57.1799 53.9166 56.6982 55.746C56.5549 56.2793 56.314 56.8929 56.8588 57.3689C57.4036 57.8449 58.086 57.5294 58.6251 57.2542C60.6207 56.2334 62.2436 55.0234 61.9913 52.3396C61.8422 50.7339 61.9913 49.025 63.4765 47.8781C64.05 47.4251 64.7439 46.8975 65.4722 47.4021C66.2005 47.9068 65.6786 48.5491 65.4722 49.1225C64.7676 51.2852 64.5714 53.5812 64.8987 55.832C64.9733 56.3367 64.8987 57.0649 65.3632 57.2485C65.9998 57.4893 66.2865 56.675 66.6936 56.3424C67.1008 56.0098 67.3761 55.5395 67.7316 55.1496C68.6721 54.1231 69.1882 53.303 67.938 51.8981C66.4872 50.2752 66.923 47.0982 68.3509 45.59C68.7431 45.1184 69.2733 44.7817 69.8669 44.6274C70.4605 44.473 71.0876 44.5089 71.6598 44.7298C72.9042 45.1828 73.3114 46.2552 73.3458 47.5111C73.3802 48.9218 72.7723 50.1605 72.2963 51.5253C73.6841 51.8751 74.5443 51.0952 75.3242 50.2522C77.2052 48.2107 79.3843 46.9147 82.2746 47.2186C84.3677 47.4365 85.5662 48.5663 85.4573 50.2121C85.4161 50.5766 85.2881 50.9259 85.084 51.2307C84.8799 51.5355 84.6058 51.7869 84.2844 51.9638C83.9631 52.1408 83.6041 52.2381 83.2374 52.2476C82.8707 52.2571 82.5071 52.1785 82.1771 52.0185C81.5233 51.6687 81.6036 51.3475 82.1771 51.0149C82.397 50.9196 82.5735 50.7458 82.6721 50.5274C82.7707 50.3089 82.7844 50.0616 82.7104 49.8336C82.62 49.5608 82.4498 49.3215 82.2218 49.1466C81.9938 48.9718 81.7185 48.8695 81.4316 48.853C80.6419 48.7356 79.8368 48.9154 79.1721 49.3576C77.0733 50.6995 75.8977 54.427 76.8783 56.6979C77.4518 58.0628 78.5184 58.3208 79.6252 57.3517C80.2358 56.7665 80.6962 56.0426 80.9671 55.2413C81.1289 54.7421 81.3585 54.2674 81.6495 53.8306C82.1713 53.1367 82.8939 52.5231 83.8 52.8959C84.706 53.2686 84.2415 54.2091 84.0924 54.8457C83.5591 57.0535 83.1061 59.204 84.9755 61.062C85.0249 61.1071 85.0644 61.162 85.0913 61.2232C85.1183 61.2845 85.1323 61.3506 85.1323 61.4175C85.1323 61.4844 85.1183 61.5506 85.0913 61.6118C85.0644 61.673 85.0249 61.7279 84.9755 61.7731C84.8625 61.8839 84.7171 61.9559 84.5603 61.9786C84.4036 62.0013 84.2438 61.9735 84.1039 61.8992C83.4555 61.6718 82.8584 61.3187 82.3467 60.8601C81.835 60.4015 81.4188 59.8465 81.1219 59.2269C80.9327 58.814 80.8524 58.2119 80.1814 58.8025C79.6026 59.3957 78.8291 59.7601 78.0031 59.8286C77.1771 59.897 76.3541 59.6651 75.6855 59.1753C74.0569 58.1316 73.4719 56.566 73.621 54.6908C73.6497 54.3238 73.6956 53.9683 73.7415 53.5439C71.8662 53.6987 70.3408 54.1174 69.2685 55.8377C68.3384 57.2593 67.0718 58.4294 65.5811 59.2441C63.6256 60.391 62.8629 60.0355 62.3353 57.885C62.2608 57.5868 62.1977 57.3115 62.083 56.7381C60.8128 57.8756 59.3584 58.7889 57.7821 59.4391C54.8173 60.4942 53.0969 59.1351 53.5327 55.9983C53.8016 54.3873 54.2458 52.8104 54.8574 51.2959C54.995 50.9232 55.3277 50.4644 54.8574 50.149C54.5133 49.9311 54.1521 50.2981 53.8825 50.5275C52.0532 52.0816 50.4418 53.802 49.9142 56.2621C49.7917 56.9875 49.5838 57.6959 49.2948 58.3724C49.1207 58.8248 48.8004 59.2059 48.3848 59.4553C47.9691 59.7047 47.4821 59.808 47.001 59.7487C45.9688 59.5652 46.634 58.5101 46.3473 57.8621C45.2462 58.4355 44.1911 59.009 43.1015 59.5079C42.3158 59.8692 41.2893 60.1559 40.7159 59.4792C39.7582 58.3323 39.1102 58.728 38.1009 59.3703C36.6271 60.3107 34.9354 59.9093 33.5992 58.3552C32.9226 57.5696 32.5727 57.6212 31.919 58.3208C30.5953 59.6865 29.0225 60.7863 27.2854 61.5609C20.467 64.8009 13.7632 61.1652 13.3848 53.6529C12.9375 45.1714 16.5445 38.4218 23.6325 33.7136C24.5482 33.0777 25.5935 32.6527 26.6932 32.4692C27.7929 32.2858 28.9196 32.3485 29.9922 32.6527C31.2504 32.9817 32.356 33.7361 33.1212 34.7877C33.8864 35.8393 34.264 37.1233 34.1899 38.4218C34.1063 39.6674 33.6283 40.8541 32.8251 41.8099C32.022 42.7657 30.9353 43.4409 29.7227 43.7377C29.3155 43.8295 28.7879 43.9901 28.5757 43.6058C28.2546 43.0897 28.765 42.7399 29.1148 42.4589C31.0301 40.8418 31.357 38.7372 30.9957 36.4261C30.6517 34.2699 29.1148 33.3982 27.0675 34.1839C25.5981 34.7937 24.3019 35.757 23.2942 36.9881C19.9075 40.7302 17.79 45.4469 17.2442 50.4644C16.9681 52.6306 17.354 54.8296 18.3509 56.7725C19.8075 59.5538 22.2791 60.7867 25.3299 60.0641C27.744 59.4607 29.9595 58.2394 31.7584 56.5202C32.0105 56.2566 32.2073 55.9453 32.3373 55.6045C32.4673 55.2638 32.5279 54.9005 32.5154 54.536C32.934 50.1777 36.7017 46.909 40.9109 47.2301C41.9262 47.2617 42.8933 47.6706 43.6233 48.377C43.9703 48.7015 44.2079 49.1257 44.3034 49.591C44.399 50.0564 44.3477 50.5399 44.1566 50.9748C43.7495 51.9611 42.8434 52.2823 41.8169 52.2307C41.6023 52.254 41.3852 52.2237 41.185 52.1427C40.9849 52.0616 40.808 51.9323 40.67 51.7662C40.2915 51.1927 41.0141 51.1526 41.2435 50.8658C41.8857 50.063 41.5245 49.1053 40.4234 48.8817C39.8786 48.7593 39.3111 48.7841 38.779 48.9534C38.247 49.1227 37.7695 49.4304 37.3955 49.8451C36.6158 50.6368 36.0347 51.602 35.6998 52.6616C35.3649 53.7211 35.2857 54.8449 35.4687 55.941C35.5834 56.7897 35.9447 57.6212 36.8794 57.8735C37.8142 58.1258 38.422 57.4262 38.9955 56.7725C39.42 56.2301 39.7267 55.6051 39.8958 54.9374C40.0331 54.31 40.3738 53.7455 40.865 53.3317C41.4384 52.8902 42.0693 52.5289 42.7459 52.9246C43.4226 53.3203 43.0097 53.9855 43.0097 54.536C43.0097 55.5453 41.9201 56.7209 43.2678 57.495C43.9903 57.9079 46.9035 55.7116 47.1329 54.6793C47.4942 53.0335 47.7867 51.3705 48.1135 49.7189C48.1538 49.1368 48.3742 48.5816 48.7443 48.1304C49.0229 47.8128 49.3918 47.5877 49.8016 47.4852C50.2115 47.3827 50.6429 47.4078 51.0382 47.557C51.9041 47.9183 51.474 48.7039 51.388 49.3691C51.3421 49.7648 51.2733 50.1662 51.1643 50.8429ZM70.5358 47.0237C70.3867 46.6222 70.1459 46.2323 69.6527 46.2839C69.1595 46.3355 69.0162 46.7885 68.976 47.2129C68.9129 47.8413 68.9989 48.4757 69.2271 49.0646C69.4552 49.6535 69.8192 50.1803 70.2892 50.602C70.8308 49.4859 70.9191 48.2035 70.5358 47.0237Z" fill="white"/>
</g>
<defs>
<clipPath id="clip0_506_1864">
<rect width="100" height="100" fill="white"/>
</clipPath>
</defs>
</svg>
