<svg width="84" height="100" viewBox="0 0 84 100" fill="none" xmlns="http://www.w3.org/2000/svg">
<path d="M8.35657 19.3682H17.7476C18.2854 19.3682 18.7178 18.9302 18.7189 18.3966C18.7189 18.3931 18.6049 10.3497 18.6049 8.11288V8.08634C18.6049 6.24926 18.9905 4.64763 19.6621 3.30542L19.983 2.70265C19.9417 2.71042 19.904 2.73127 19.8755 2.76212L1.6405 20.8447C1.60709 20.8721 1.5832 20.9094 1.57224 20.9512C1.94938 20.7646 2.4651 20.5095 2.53801 20.4774C4.12602 19.7609 6.05152 19.3682 8.35657 19.3682ZM81.3826 17.3993C80.6371 13.4087 78.2645 11.442 76.1194 10.6687C73.805 9.83223 69.1124 8.96575 63.2161 8.27077C58.4724 7.71213 52.8968 7.7566 49.529 7.86071C49.1246 5.09216 47.1829 2.56286 45.0101 1.68724C39.2206 -0.642975 30.2762 -0.0800282 27.9794 0.563587C26.1546 1.07362 24.1346 2.11885 23.0105 3.72961C22.2565 4.80552 21.7687 6.18393 21.7649 8.10961C21.7649 9.19948 21.7953 11.7669 21.823 14.048C21.8506 16.3361 21.8806 18.3826 21.8806 18.3966C21.8796 20.4338 20.2285 22.0918 18.1823 22.0944H8.79593C6.79373 22.0944 5.26398 22.4308 4.09534 22.9617C2.92497 23.4931 2.09606 24.2095 1.46623 25.057C0.212616 26.74 -0.00508223 28.8168 8.87518e-05 30.9362C8.87518e-05 30.9362 0.0185319 32.6682 0.43583 36.0203C0.782803 38.6141 3.59565 56.7336 6.26732 62.2445C7.30324 64.3884 7.99323 65.2814 10.0284 66.2266C14.5628 68.168 24.9201 70.3278 29.7744 70.9462C34.62 71.5662 37.6612 72.8695 39.4737 69.0693C39.4797 69.0597 39.8365 68.1239 40.3277 66.7508C41.9013 61.9826 42.12 57.7519 42.12 54.6904C42.12 54.3789 42.5768 54.3648 42.5768 54.6904C42.5768 56.8517 42.1638 64.5006 47.9418 66.5524C50.2226 67.3613 54.9545 68.0825 59.7624 68.646C64.1096 69.1453 67.2643 70.8562 67.2643 82.0093C67.2643 88.7947 65.839 89.7253 58.3883 89.7253C52.3485 89.7253 50.0466 89.8817 50.0466 85.0833C50.0466 81.2053 53.8821 81.6115 56.7248 81.6115C57.9944 81.6115 57.0729 80.6671 57.0729 78.2747C57.0729 75.8945 58.5615 74.5188 57.1536 74.484C47.3241 74.2136 41.5402 74.4728 41.5402 86.7661C41.5402 97.9263 45.811 99.9987 59.7622 99.9987C70.7005 99.9987 74.5564 99.6407 79.0727 85.6266C79.9669 82.8602 82.1282 74.4177 83.4362 60.2421C84.2637 51.2792 82.6571 24.227 81.3826 17.3993ZM62.3149 47.3005C60.9636 47.2533 59.6638 47.3386 58.4517 47.5334C58.7928 44.7784 59.9299 41.398 63.9581 41.5395C68.4172 41.6929 69.042 45.9074 69.0579 48.7622C67.1777 47.9238 64.8501 47.3896 62.3149 47.3005Z" fill="white"/>
</svg>
