<svg width="142" height="39" viewBox="0 0 142 39" fill="none" xmlns="http://www.w3.org/2000/svg">
<g clip-path="url(#clip0_506_1856)">
<path d="M141.126 33.9286C141.126 31.7611 139.574 30.1739 137.437 30.1739C135.304 30.1739 133.751 31.7611 133.751 33.9286C133.751 36.0926 135.304 37.6771 137.437 37.6771C139.574 37.6771 141.126 36.0899 141.126 33.9286ZM136.468 34.1211V36.5735H135.668V31.1658H137.656C138.82 31.1658 139.354 31.6696 139.354 32.6518C139.354 33.2568 138.942 33.736 138.41 33.8055V33.8283C138.871 33.9013 139.041 34.3093 139.136 35.0559C139.209 35.5395 139.305 36.3783 139.479 36.5753H138.533C138.313 36.0671 138.335 35.3478 138.166 34.7455C138.026 34.2873 137.779 34.1203 137.249 34.1203H136.473V34.1229L136.468 34.1211ZM137.459 33.4221C138.236 33.4221 138.458 33.0123 138.458 32.6509C138.458 32.2236 138.236 31.8859 137.459 31.8859H136.468V33.4239H137.459V33.4221ZM132.871 33.9286C132.871 31.2581 135.011 29.4529 137.434 29.4529C139.864 29.4529 142.001 31.2581 142.001 33.9286C142.001 36.5938 139.865 38.4008 137.434 38.4008C135.011 38.4008 132.871 36.5938 132.871 33.9286Z" fill="#FF5A00"/>
<path d="M117.059 37.6208L111.799 31.7761L106.585 37.6208H95.614L106.337 25.6851L95.614 13.7458H106.928L112.241 19.5457L117.354 13.7458H128.272L117.602 25.6349L128.42 37.6208H117.059ZM74.5469 37.6208V0.0100098H95.614V8.39338H83.4705V13.7458H95.614V21.8126H83.4705V29.2164H95.614V37.6208H74.5469Z" fill="#FF5A00"/>
<path d="M65.6561 0.0102539V15.4026H65.5575C63.59 13.1621 61.1308 12.3813 58.2793 12.3813C52.4361 12.3813 48.0342 16.3197 46.4891 21.5226C44.7265 15.7886 40.1817 12.274 33.4439 12.274C27.9708 12.274 23.6506 14.7071 21.3937 18.6728V13.7451H10.0827V8.3945H22.4276V0.0120149H0V37.6211H10.0827V21.8128H20.1326C19.823 23.0284 19.6683 24.2777 19.672 25.5314C19.672 33.3731 25.7202 38.8838 33.4422 38.8838C39.9332 38.8838 44.2144 35.8616 46.4766 30.3597H37.8352C36.6673 32.0155 35.7798 32.5044 33.4431 32.5044C30.7345 32.5044 28.3968 30.1619 28.3968 27.3885H45.9921C46.7553 33.6185 51.6542 38.9902 58.3778 38.9902C61.2781 38.9902 63.9334 37.5771 65.5567 35.1898H65.6543V37.6264H74.5442V0.0120149H65.6561V0.0102539ZM28.6773 21.9254C29.239 19.5354 31.109 17.9737 33.4431 17.9737C36.0132 17.9737 37.7882 19.487 38.2541 21.9254H28.6773ZM60.261 31.8976C56.9853 31.8976 54.9495 28.8737 54.9495 25.7152C54.9495 22.3386 56.7209 19.0949 60.261 19.0949C63.9343 19.0949 65.3978 22.3404 65.3978 25.7152C65.3978 28.9141 63.8483 31.8976 60.261 31.8976Z" fill="#29007C"/>
</g>
<defs>
<clipPath id="clip0_506_1856">
<rect width="142" height="39" fill="white"/>
</clipPath>
</defs>
</svg>
