<svg width="157" height="100" viewBox="0 0 157 100" fill="none" xmlns="http://www.w3.org/2000/svg">
<path d="M18.0781 83.6676L20.4733 83.9541C21.5568 84.0688 21.6709 84.9857 21.6709 85.5587V88.3668H10.6644V85.5587C10.6644 84.9857 10.7784 84.0688 11.862 83.9541L14.2572 83.6676V81.2607H0V83.6676L2.39521 83.9541C3.47875 84.0688 3.59281 84.9857 3.59281 85.5587V94.8424C3.59281 95.4155 3.47875 96.3324 2.39521 96.447L0 96.7335V99.1404H14.2572V96.7335L11.862 96.447C10.7784 96.3324 10.6644 95.4155 10.6644 94.8424V92.0344H21.6139V94.8424C21.6139 95.4155 21.4998 96.3324 20.4163 96.447L18.0211 96.7335V99.1404H32.2782V96.7335L29.883 96.447C28.7995 96.3324 28.6854 95.4155 28.6854 94.8424V85.5587C28.6854 84.9857 28.7995 84.0688 29.883 83.9541L32.2782 83.6676V81.2607H18.0211V83.6676H18.0781Z" fill="white"/>
<path d="M113.031 81.2607H95.4664V83.6676L97.5765 83.8968C98.3178 84.0115 98.8311 84.298 98.8311 85.3295V94.7851C98.8311 95.3582 98.717 96.2751 97.6335 96.3897L95.2383 96.6762V99.0831H113.031C119.418 99.0831 124.665 96.5043 124.665 90.1433C124.665 83.7822 119.418 81.2607 113.031 81.2607ZM111.72 95.702H105.732V84.6991H111.72C115.255 84.6991 116.453 86.361 116.453 90.2006C116.453 93.9828 115.255 95.702 111.72 95.702Z" fill="white"/>
<path d="M154.548 96.447C153.407 96.3324 153.065 95.5874 152.723 95.0716L144.511 82.4642C143.941 81.5473 143.484 81.2607 142.629 81.2607H129.17V83.6676L132.421 84.0115C132.877 84.0688 133.504 84.6991 132.991 85.5014L126.889 95.4155C126.661 95.8166 126.319 96.2751 125.634 96.3897L123.239 96.6762V99.0831H134.588V96.6762L132.649 96.5043C131.794 96.3897 131.337 95.8166 131.794 95.1289L132.706 93.639H143.656L144.454 94.8424C145.195 95.9312 144.283 96.3897 143.484 96.447L141.488 96.6762V99.0831H156.886V96.6762L154.548 96.447ZM134.588 90.4871L137.953 84.9857L141.545 90.4871H134.588Z" fill="white"/>
<path d="M82.7483 83.6676L85.1435 83.9541C86.2271 84.0687 86.3411 84.9856 86.3411 85.5587V94.4985L76.9314 82.0057C76.5322 81.4326 76.133 81.2607 75.1065 81.2607H62.9023V83.6676L65.2975 83.9541C66.3811 84.0687 66.4951 84.9856 66.4951 85.5587V94.8423C66.4951 95.4154 66.3811 96.3323 65.2975 96.4469L62.9023 96.7335V99.1403H74.3081V96.7335L71.9129 96.4469C70.8293 96.3323 70.7153 95.4154 70.7153 94.8423V85.9025L80.125 98.338C80.5812 98.9111 80.9234 99.083 81.9499 99.083H82.064H90.6183V85.5014C90.6183 84.9283 90.7324 84.0114 91.8159 83.8968L94.2111 83.6102V81.2034H82.8624L82.7483 83.6676Z" fill="white"/>
<path d="M47.5618 80.6304C35.985 80.6304 33.0195 85.7307 33.0195 90.1433C33.0195 94.5559 35.985 99.7135 47.5618 99.7135C59.1387 99.7135 62.1042 94.6132 62.1042 90.2006C62.1042 85.7307 59.1387 80.6304 47.5618 80.6304ZM47.5618 96.3324C43.0566 96.3324 41.2317 94.4413 41.2317 90.2006C41.2317 85.9599 43.1136 84.0688 47.5618 84.0688C52.0671 84.0688 53.892 85.9599 53.892 90.2006C53.892 94.4413 52.0671 96.3324 47.5618 96.3324Z" fill="white"/>
<path d="M98.1462 5.90259C96.2073 14.6705 95.4088 18.7393 93.8121 25.043C92.2723 31.1175 91.0747 36.7908 89.0216 39.5416C86.9686 42.3496 84.1742 42.9226 82.2922 43.1519C81.3228 43.2665 80.5814 43.3238 78.4713 43.3238C76.3613 43.3238 75.6199 43.2665 74.6504 43.1519C72.7685 42.9226 69.9741 42.3496 67.921 39.5416C65.868 36.7908 64.6704 31.1175 63.1876 25.043C61.5908 18.682 60.7924 14.6705 58.8535 5.90259C58.8535 5.90259 56.9145 5.95989 56.059 6.0172C54.8614 6.07451 53.949 6.18912 52.9795 6.30373C52.9795 6.30373 54.1201 24.3553 54.6333 32.0344C55.1466 40.0573 56.1161 53.639 56.9715 63.8969C56.9715 63.8969 58.6253 64.1834 61.3627 64.298C64.2142 64.4699 65.5258 64.4699 65.5258 64.4699C66.7234 59.9427 68.1491 53.6963 69.803 51.0029C71.1716 48.8252 73.2247 48.596 74.4223 48.4241C76.2472 48.1949 77.844 48.1375 78.5284 48.1375C79.2697 48.1375 80.8095 48.1375 82.6344 48.4241C83.832 48.596 85.8851 48.8252 87.2537 51.0029C88.9076 53.6963 90.3903 59.9427 91.5309 64.4699C91.5309 64.4699 92.7855 64.4699 95.637 64.298C98.3743 64.1261 100.028 63.8969 100.028 63.8969C100.884 53.639 101.853 40.1146 102.366 32.0344C102.88 24.4126 104.02 6.30373 104.02 6.30373C103.051 6.18912 102.081 6.07451 100.941 6.0172C100.085 5.95989 98.1462 5.90259 98.1462 5.90259Z" fill="white"/>
<path d="M120.787 16.5616C119.647 5.10029 112.005 2.69341 105.332 1.54728C101.968 0.974212 95.9797 0.515759 92.1587 0.34384C88.794 0.114613 80.9241 0 78.5289 0C76.1337 0 68.2637 0.114613 64.899 0.34384C61.0781 0.515759 55.0901 0.974212 51.7254 1.54728C45.053 2.69341 37.4112 5.10029 36.2706 16.5616C35.9284 19.7135 35.8714 23.7822 35.9284 28.1375C36.0425 35.4155 36.6698 40.2865 37.012 43.7249C37.2401 46.0745 38.2096 53.0659 39.4642 56.6762C41.1751 61.6619 42.7149 63.0946 44.5398 64.5845C47.8474 67.2779 53.3222 68.1375 54.4628 68.3668C60.6219 69.4556 73.0541 69.6848 78.5859 69.6848C84.0607 69.6848 96.5499 69.5129 102.709 68.3668C103.85 68.1375 109.324 67.3353 112.632 64.5845C114.457 63.0946 115.997 61.6619 117.708 56.6762C118.962 53.0659 119.932 46.0172 120.16 43.7249C120.502 40.3438 121.129 35.4155 121.243 28.1375C121.186 23.7249 121.072 19.6562 120.787 16.5616ZM116.567 35.8166C115.883 44.9857 115.084 50.4871 113.944 54.4413C112.917 57.937 111.663 60.2292 109.838 61.8911C106.758 64.6991 102.538 65.2722 100.029 65.6734C94.668 66.4756 85.6004 66.7622 78.5289 66.7622C71.4003 66.7622 62.3898 66.4756 57.0291 65.6734C54.5198 65.2722 50.2997 64.6991 47.2201 61.8911C45.3952 60.2292 44.1406 57.8797 43.1141 54.4413C41.9735 50.4871 41.1181 44.9857 40.4907 35.8166C40.0915 30.3152 40.1486 21.3754 40.7759 16.5616C41.6313 9.34097 45.1671 5.73066 52.7519 4.41261C56.2877 3.78224 61.0781 3.32378 65.5834 3.09456C69.2332 2.86533 75.1642 2.75072 78.5289 2.75072C81.8365 2.69341 87.8246 2.86533 91.4174 3.09456C95.9226 3.32378 100.713 3.78224 104.249 4.41261C111.834 5.78797 115.369 9.39828 116.282 16.5616C116.909 21.3181 116.966 30.2579 116.567 35.8166Z" fill="white"/>
</svg>
