<svg width="678" height="121" viewBox="0 0 678 121" fill="none" xmlns="http://www.w3.org/2000/svg">
<g clip-path="url(#clip0_1151_2164)">
<path fill-rule="evenodd" clip-rule="evenodd" d="M614.258 91.6494H640.011V0H614.258V91.6494Z" fill="white"/>
<path fill-rule="evenodd" clip-rule="evenodd" d="M677.879 0V91.6494H652.13V0H677.879Z" fill="white"/>
<path fill-rule="evenodd" clip-rule="evenodd" d="M54.9097 35.5967H34.082V0H0V91.6494H34.082V46.2051H54.9097V91.6494H88.9951V0H54.9097V35.5967Z" fill="white"/>
<path fill-rule="evenodd" clip-rule="evenodd" d="M214.914 34.082L212.83 28.0244H184.805V91.6494H212.83V53.3984C212.83 45.0654 218.134 40.5225 222.677 40.5225C226.463 40.5225 231.385 41.2793 231.385 49.6123V91.6494H259.41V50.3701C259.41 27.2676 233.473 18.1807 214.914 34.082Z" fill="white"/>
<path fill-rule="evenodd" clip-rule="evenodd" d="M502.73 64.9482L489.666 28.0244H470.541L457.474 66.4629L443.84 28.0244H417.143H416.951H406.351L392.904 60.4014L373.97 28.0244H341.968L379.649 92.4062L374.728 104.521C373.021 108.312 368.941 108.499 368.143 104.9C368.143 98.3936 362.866 93.1211 356.359 93.1211C349.852 93.1211 344.576 98.3936 344.576 104.9C344.622 111.719 351.438 120.618 364.88 120.049C378.326 119.482 384.005 108.312 385.898 103.577L417.04 28.2725L439.487 91.6494H459.937L472.434 55.1006L485.311 91.6494H504.623L526.398 28.0244H515.228L502.73 64.9482Z" fill="white"/>
<path fill-rule="evenodd" clip-rule="evenodd" d="M137.277 24.79C115.834 24.79 98.4536 40.7344 98.4536 60.4014C98.4536 80.0752 115.834 96.0195 137.277 96.0195C158.724 96.0195 176.108 80.0752 176.108 60.4014C176.108 40.7344 158.724 24.79 137.277 24.79ZM146.937 77.0635C146.937 82.3994 142.613 86.7236 137.277 86.7236C131.948 86.7236 127.624 82.3994 127.624 77.0635V43.7422C127.624 38.4102 131.948 34.0898 137.277 34.0898C142.613 34.0898 146.937 38.4102 146.937 43.7422V77.0635Z" fill="white"/>
<path fill-rule="evenodd" clip-rule="evenodd" d="M345.079 65.5146C345.284 64.0244 345.39 61.9443 345.39 60.4014C345.39 40.7344 328.006 24.79 306.563 24.79C285.116 24.79 267.732 40.7344 267.732 60.4014C267.732 80.0752 285.116 96.0195 306.563 96.0195C321.297 96.0195 334.113 88.4893 340.694 77.3965L332.117 74.2227C326.934 82.1445 317.429 87.4492 306.563 87.4492C301.227 87.4492 296.903 82.3994 296.903 77.0635V65.5176L345.079 65.5146ZM296.903 43.7422C296.903 38.4102 301.227 34.0898 306.563 34.0898C311.895 34.0898 316.219 38.4102 316.219 43.7422V56.4277H296.903V43.7422Z" fill="white"/>
<path fill-rule="evenodd" clip-rule="evenodd" d="M604.488 65.5146C604.697 64.0244 604.803 61.9443 604.803 60.4014C604.803 40.7344 587.419 24.79 565.973 24.79C544.529 24.79 527.146 40.7344 527.146 60.4014C527.146 80.0752 544.529 96.0195 565.973 96.0195C580.71 96.0195 593.526 88.4893 600.107 77.3965L591.53 74.2227C586.347 82.1445 576.843 87.4492 565.973 87.4492C560.64 87.4492 556.316 82.3994 556.316 77.0635V65.5176L604.488 65.5146ZM556.316 43.7422C556.316 38.4102 560.64 34.0898 565.973 34.0898C571.309 34.0898 575.633 38.4102 575.633 43.7422V56.4277H556.316V43.7422Z" fill="white"/>
</g>
<defs>
<clipPath id="clip0_1151_2164">
<rect width="677.879" height="120.075" fill="white"/>
</clipPath>
</defs>
</svg>
