<svg width="95" height="100" viewBox="0 0 95 100" fill="none" xmlns="http://www.w3.org/2000/svg">
<g clip-path="url(#clip0_506_1861)">
<path d="M33.615 3.13997C18.2939 4.27227 5.26919 5.31361 4.65681 5.43555C2.93981 5.74137 1.37786 6.90464 0.643387 8.43567L0 9.78282L0.0620132 41.89L0.153095 73.9971L1.13368 75.9869C1.68598 77.0882 5.42422 82.231 9.49965 87.5248C17.5594 97.9613 18.1408 98.5439 21.2046 98.8497C22.0942 98.9407 28.7741 98.6349 36.0064 98.2071C43.2697 97.7484 54.9127 97.0439 61.9008 96.6471C91.7466 94.8373 90.2137 94.9902 91.9288 93.5211C94.0741 91.7462 93.921 94.6534 94.012 55.6305C94.0741 22.544 94.0431 20.3723 93.5528 19.3619C92.9714 18.2296 91.9288 17.4341 78.3227 7.88404C69.2223 1.51797 68.5789 1.18118 64.5015 1.11924C62.8175 1.05924 48.9052 1.97669 33.615 3.13997ZM68.0576 7.3324C69.3444 7.91307 78.7529 14.463 80.1308 15.7192C80.499 16.087 80.6211 16.3928 80.437 16.5767C80.0087 16.9444 21.7841 20.4033 20.1 20.1574C19.3346 20.0355 18.2009 19.5768 17.5575 19.1471C14.8909 17.3412 8.27295 11.9236 8.27295 11.5268C8.27295 10.4854 8.05784 10.4854 34.0143 8.61955C38.9792 8.28276 47.1301 7.67112 52.095 7.2724C62.8485 6.41494 66.0673 6.44591 68.0576 7.3324ZM86.5666 24.075C86.9949 24.5028 87.3631 25.3293 87.4852 26.1248C87.5762 26.8603 87.6383 40.5718 87.5762 56.548C87.4852 83.9711 87.4541 85.686 86.9329 86.4815C86.6267 86.9712 86.0143 87.4919 85.5531 87.6448C84.2682 88.1654 23.2569 91.6243 22.0011 91.2565C21.4198 91.1036 20.6213 90.6139 20.1931 90.1862L19.4566 89.3906L19.3656 59.8249C19.3036 39.0737 19.3656 29.8914 19.6117 29.0649C19.7958 28.4533 20.2551 27.7178 20.6543 27.4739C21.2066 27.1061 24.8227 26.8003 37.2641 26.0667C45.9983 25.577 59.5114 24.7505 67.265 24.2918C85.7081 23.1576 85.648 23.1576 86.5666 24.075Z" fill="white"/>
<path d="M70.1717 34.2058C66.8618 34.4206 63.92 34.7264 63.5828 34.9103C62.5712 35.431 61.9589 36.2884 61.8368 37.2678C61.7457 38.2782 62.0519 38.4001 65.3599 38.7989L66.7998 38.9827V52.0516C66.7998 59.8249 66.6777 64.9676 66.5246 64.8147C66.3715 64.6309 62.0209 58.0209 56.8408 50.1238C51.6627 42.1977 47.3722 35.6768 47.3102 35.6168C47.2482 35.5549 43.8781 35.7387 39.8337 36.0155C34.8688 36.3523 32.1421 36.6581 31.5898 36.9639C30.7003 37.4227 29.7197 39.0447 29.7197 40.117C29.7197 40.7596 30.8844 41.0964 33.3359 41.0964H34.6226V78.6811L32.5394 79.3237C30.9154 79.8134 30.3631 80.1192 30.0879 80.7309C29.5976 81.7722 29.6286 82.7206 30.1189 82.7206C30.303 82.7206 33.7661 82.5058 37.7485 82.2619C45.6242 81.8032 46.5117 81.5883 47.3392 79.9663C47.5854 79.4766 47.7985 78.956 47.7985 78.803C47.7985 78.6811 46.7269 78.3134 45.4381 78.0075C44.1204 77.7017 42.8026 77.3959 42.5274 77.334C42.0061 77.181 41.9751 76.2326 41.9751 63.0708V48.9606L51.2906 63.5605C61.0655 78.863 62.2922 80.6089 63.7941 81.3735C65.6642 82.3529 70.414 81.6793 72.8034 80.1192L73.5398 79.6605L73.6018 58.7874L73.6929 37.8833L75.3169 37.5775C77.2471 37.2098 78.1366 36.3233 78.1366 34.7922C78.1366 33.8128 78.0745 33.7509 77.156 33.7819C76.6075 33.807 73.4507 33.9909 70.1717 34.2058Z" fill="white"/>
</g>
<defs>
<clipPath id="clip0_506_1861">
<rect width="94.0741" height="100" fill="white"/>
</clipPath>
</defs>
</svg>
