<svg width="182" height="34" viewBox="0 0 182 34" fill="none" xmlns="http://www.w3.org/2000/svg">
<path d="M61.741 0.668709H51.9629V13.3904H41.7843V0.668709H32.0063V32.6754H41.7843V20.0856H51.9629V32.6754H61.741V0.668709ZM95.7547 26.244V0.668709H85.9767V32.6754H103.657L105.128 26.244H95.7547ZM78.7479 0.668709H68.9698V32.6754H78.7479V0.668709ZM118.388 0.668709H108.615V32.6754H118.388V0.668709ZM166.596 8.83753C166.596 7.09551 168.339 6.29047 171.148 6.29047C174.229 6.29047 177.58 6.96362 179.856 7.90512L179.055 0.937061C176.506 0.400356 174.229 0.000102997 170.082 0.000102997C162.18 0.000102997 156.822 3.11572 156.822 9.64259C156.822 20.8906 172.095 18.6165 172.095 23.838C172.095 25.8438 170.615 26.9126 167.001 26.9126C163.791 26.9126 158.829 25.8438 155.884 24.3701L156.959 31.7384C159.904 32.8118 163.919 33.344 167.137 33.344C175.304 33.344 182 30.665 182 22.6281C182 11.9213 166.596 13.9271 166.596 8.83753ZM139.014 25.0433C148.114 25.0433 153.877 20.3539 153.877 12.1851C153.877 3.21578 147.718 0.000102997 137.671 0.000102997C133.788 0.000102997 129.099 0.268456 125.753 0.668709V32.6754H135.532V25.0433H139.014ZM144.235 12.3216C144.235 16.4696 142.228 19.2851 137.134 19.2851H135.532V6.0585C136.101 6.02666 136.633 6.02666 137.134 6.02666C141.955 6.02666 144.235 8.30083 144.235 12.3216ZM13.2605 25.0433C22.3648 25.0433 28.1233 20.3539 28.1233 12.1851C28.1233 3.21578 21.9642 0.000102997 11.9221 0.000102997C8.03457 0.000102997 3.35039 0.268456 0 0.668709V32.6754H9.77805V25.0433H13.2605ZM18.4863 12.3216C18.4863 16.4696 16.4743 19.2851 11.385 19.2851H9.77805V6.0585C10.3471 6.02666 10.8842 6.02666 11.385 6.02666C16.2057 6.02666 18.4863 8.30083 18.4863 12.3216Z" fill="#0B5ED7"/>
</svg>
