<svg width="181" height="41" viewBox="0 0 181 41" fill="none" xmlns="http://www.w3.org/2000/svg">
<path d="M117.459 14.9305C114.406 12.2308 110.723 10.9113 106.463 10.9113C102.263 10.9113 98.5778 12.2323 95.5235 14.9305C92.4721 17.5725 90.9201 21.2471 90.9201 25.9541C90.9201 30.6642 92.4721 34.3372 95.5235 37.037C98.5763 39.6775 102.263 41 106.463 41C110.723 41 114.406 39.6775 117.459 37.037C120.569 34.3372 122.12 30.6642 122.12 25.9556C122.12 21.2471 120.566 17.571 117.459 14.9305ZM100.709 31.9822C99.0997 30.4334 98.2882 28.423 98.2882 25.9541C98.2882 23.4867 99.0921 21.4763 100.709 19.9837C102.318 18.435 104.222 17.6879 106.46 17.6879C108.703 17.6879 110.662 18.435 112.273 19.9837C113.94 21.4763 114.75 23.4867 114.75 25.9556C114.75 28.4246 113.946 30.4349 112.273 31.9837C110.664 33.4763 108.705 34.2218 106.46 34.2218C104.222 34.2218 102.323 33.4763 100.709 31.9837V31.9822ZM133.005 40.1922V0.792608H125.752V40.1922H133.005ZM156.417 11.7145V27.4346C156.417 31.223 154.365 33.7329 150.457 33.7329C146.484 33.7329 144.485 31.2245 144.485 27.4346V11.7145H137.219V28.6402C137.219 35.1982 141.364 40.9954 150.457 40.9954H150.512C159.55 40.9954 163.687 35.0706 163.687 28.6402V11.7145H156.417ZM83.199 11.7145L75.947 31.0059L68.6935 11.7145H60.9799L72.5532 40.1937H79.3482L90.9201 11.7145H83.199ZM61.0176 25.1509C61.0176 21.0163 59.6948 17.6302 57.1035 14.9305C54.5107 12.2308 51.1758 10.9113 47.0883 10.9113C42.8876 10.9113 39.3174 12.3477 36.3792 15.1598C33.4983 17.9749 32.0639 21.5325 32.0639 25.9556C32.0639 30.3772 33.5013 33.9941 36.3234 36.8062C39.2043 39.6213 42.6583 40.9985 46.7444 40.9985C53.022 40.9985 57.4534 38.2426 60.1533 32.6731L54.7445 29.5725C52.9632 33.0739 50.3704 34.7973 46.859 34.7973C42.5422 34.7973 39.4909 32.0414 39.0308 27.6775H61.0146V25.1509H61.0176ZM46.8545 16.4231C50.9405 16.4231 53.6495 18.7189 54.3373 22.395H39.0263C40.1228 19.0089 43.1123 16.4231 46.8545 16.4231ZM32.0639 40.1937L22.3337 23.1982C28.4907 20.9586 31.542 17.0547 31.542 11.3698C31.548 4.4216 26.0185 0 17.213 0H0V40.1922H7.59892V23.8845H14.0485L23.3714 40.1922L32.0639 40.1937ZM17.2099 6.66125C21.7002 6.66125 23.9461 8.44082 23.9461 11.9423C23.9461 15.4437 21.6987 17.2233 17.2099 17.2233H7.60043V6.66277L17.2099 6.66125ZM175.983 40.9954C171.315 40.9954 167.529 37.2192 167.529 32.5561V4.02074H174.781V11.7251H181V17.5816H174.781V32.0915C174.781 33.4581 175.891 34.565 177.264 34.565H181V40.9939L175.983 40.9954Z" fill="white"/>
</svg>
