<svg width="422" height="204" viewBox="0 0 422 204" fill="none" xmlns="http://www.w3.org/2000/svg">
<rect opacity="0.7" x="-6" y="-6" width="76" height="12" rx="6" transform="matrix(0 -1 -1 0 22 126)" fill="url(#paint0_linear_1386_2552)" stroke="url(#paint1_linear_1386_2552)" stroke-width="12"/>
<g filter="url(#filter0_ddd_1386_2552)">
<rect x="22" y="22" width="362" height="144" fill="url(#paint2_linear_1386_2552)"/>
</g>
<path d="M69.614 81.922C69.698 81.682 69.83 81.502 70.01 81.382C70.202 81.262 70.412 81.202 70.64 81.202C70.928 81.202 71.174 81.292 71.378 81.472C71.594 81.652 71.702 81.892 71.702 82.192C71.702 82.3 71.672 82.456 71.612 82.66L67.742 93.37C67.646 93.61 67.484 93.796 67.256 93.928C67.04 94.06 66.8 94.126 66.536 94.126C66.272 94.126 66.026 94.06 65.798 93.928C65.57 93.796 65.414 93.61 65.33 93.37L62.342 84.892L59.3 93.37C59.204 93.61 59.042 93.796 58.814 93.928C58.598 94.06 58.358 94.126 58.094 94.126C57.83 94.126 57.584 94.06 57.356 93.928C57.14 93.796 56.99 93.61 56.906 93.37L53.036 82.66C52.976 82.48 52.946 82.324 52.946 82.192C52.946 81.892 53.054 81.652 53.27 81.472C53.498 81.292 53.762 81.202 54.062 81.202C54.302 81.202 54.518 81.262 54.71 81.382C54.902 81.502 55.04 81.682 55.124 81.922L58.184 90.724L61.334 81.976C61.418 81.736 61.556 81.55 61.748 81.418C61.94 81.274 62.15 81.202 62.378 81.202C62.606 81.202 62.816 81.274 63.008 81.418C63.212 81.55 63.356 81.742 63.44 81.994L66.5 90.832L69.614 81.922ZM75.4325 94.108C75.1085 94.108 74.8385 94.018 74.6225 93.838C74.4185 93.646 74.3165 93.376 74.3165 93.028V86.08C74.3165 85.732 74.4185 85.468 74.6225 85.288C74.8385 85.108 75.1085 85.018 75.4325 85.018C75.7565 85.018 76.0265 85.108 76.2425 85.288C76.4585 85.468 76.5665 85.732 76.5665 86.08V93.028C76.5665 93.376 76.4585 93.646 76.2425 93.838C76.0265 94.018 75.7565 94.108 75.4325 94.108ZM75.4325 83.416C75.0245 83.416 74.7005 83.308 74.4605 83.092C74.2205 82.864 74.1005 82.57 74.1005 82.21C74.1005 81.85 74.2205 81.562 74.4605 81.346C74.7005 81.13 75.0245 81.022 75.4325 81.022C75.8285 81.022 76.1465 81.13 76.3865 81.346C76.6385 81.562 76.7645 81.85 76.7645 82.21C76.7645 82.57 76.6445 82.864 76.4045 83.092C76.1645 83.308 75.8405 83.416 75.4325 83.416ZM86.2308 81.22C86.5668 81.22 86.8428 81.316 87.0588 81.508C87.2748 81.7 87.3828 81.952 87.3828 82.264V93.028C87.3828 93.352 87.2808 93.61 87.0768 93.802C86.8728 93.994 86.6028 94.09 86.2668 94.09C85.9308 94.09 85.6608 93.994 85.4568 93.802C85.2528 93.61 85.1508 93.352 85.1508 93.028V92.578C84.8868 93.07 84.5028 93.454 83.9988 93.73C83.5068 94.006 82.9428 94.144 82.3068 94.144C81.5508 94.144 80.8728 93.952 80.2728 93.568C79.6848 93.184 79.2228 92.644 78.8868 91.948C78.5628 91.24 78.4008 90.43 78.4008 89.518C78.4008 88.606 78.5628 87.808 78.8868 87.124C79.2228 86.44 79.6848 85.912 80.2728 85.54C80.8608 85.168 81.5388 84.982 82.3068 84.982C82.9428 84.982 83.5068 85.114 83.9988 85.378C84.4908 85.642 84.8688 86.014 85.1328 86.494V82.228C85.1328 81.928 85.2288 81.688 85.4208 81.508C85.6248 81.316 85.8948 81.22 86.2308 81.22ZM82.9008 92.398C83.6208 92.398 84.1728 92.152 84.5568 91.66C84.9528 91.168 85.1508 90.466 85.1508 89.554C85.1508 88.642 84.9528 87.946 84.5568 87.466C84.1728 86.974 83.6268 86.728 82.9188 86.728C82.1988 86.728 81.6408 86.968 81.2448 87.448C80.8488 87.928 80.6508 88.618 80.6508 89.518C80.6508 90.43 80.8488 91.138 81.2448 91.642C81.6408 92.146 82.1928 92.398 82.9008 92.398ZM97.1493 85.018C97.4853 85.018 97.7553 85.114 97.9593 85.306C98.1633 85.498 98.2653 85.756 98.2653 86.08V93.19C98.2653 94.57 97.8813 95.614 97.1133 96.322C96.3453 97.03 95.2113 97.384 93.7113 97.384C92.4033 97.384 91.3113 97.138 90.4353 96.646C89.9913 96.382 89.7693 96.064 89.7693 95.692C89.7693 95.428 89.8293 95.218 89.9493 95.062C90.0813 94.906 90.2493 94.828 90.4533 94.828C90.5613 94.828 90.6933 94.852 90.8493 94.9C91.0053 94.96 91.1673 95.026 91.3353 95.098C91.7673 95.278 92.1513 95.416 92.4873 95.512C92.8353 95.608 93.2313 95.656 93.6753 95.656C95.2473 95.656 96.0333 94.888 96.0333 93.352V92.2C95.7693 92.692 95.3853 93.076 94.8813 93.352C94.3773 93.616 93.8013 93.748 93.1533 93.748C92.3853 93.748 91.7013 93.568 91.1013 93.208C90.5133 92.836 90.0513 92.32 89.7153 91.66C89.3793 91 89.2113 90.238 89.2113 89.374C89.2113 88.51 89.3733 87.748 89.6973 87.088C90.0333 86.416 90.5013 85.9 91.1013 85.54C91.7013 85.168 92.3853 84.982 93.1533 84.982C93.8013 84.982 94.3773 85.12 94.8813 85.396C95.3853 85.66 95.7693 86.038 96.0333 86.53V86.062C96.0333 85.75 96.1353 85.498 96.3393 85.306C96.5433 85.114 96.8133 85.018 97.1493 85.018ZM93.7473 92.002C94.4673 92.002 95.0253 91.768 95.4213 91.3C95.8293 90.832 96.0333 90.19 96.0333 89.374C96.0333 88.546 95.8293 87.898 95.4213 87.43C95.0253 86.962 94.4673 86.728 93.7473 86.728C93.0393 86.728 92.4813 86.962 92.0733 87.43C91.6653 87.898 91.4613 88.546 91.4613 89.374C91.4613 90.19 91.6653 90.832 92.0733 91.3C92.4813 91.768 93.0393 92.002 93.7473 92.002ZM107.562 91.588C107.766 91.588 107.928 91.666 108.048 91.822C108.18 91.978 108.246 92.188 108.246 92.452C108.246 92.824 108.024 93.136 107.58 93.388C107.172 93.616 106.71 93.802 106.194 93.946C105.678 94.078 105.186 94.144 104.718 94.144C103.302 94.144 102.18 93.736 101.352 92.92C100.524 92.104 100.11 90.988 100.11 89.572C100.11 88.672 100.29 87.874 100.65 87.178C101.01 86.482 101.514 85.942 102.162 85.558C102.822 85.174 103.566 84.982 104.394 84.982C105.186 84.982 105.876 85.156 106.464 85.504C107.052 85.852 107.508 86.344 107.832 86.98C108.156 87.616 108.318 88.366 108.318 89.23C108.318 89.746 108.09 90.004 107.634 90.004H102.324C102.396 90.832 102.63 91.444 103.026 91.84C103.422 92.224 103.998 92.416 104.754 92.416C105.138 92.416 105.474 92.368 105.762 92.272C106.062 92.176 106.398 92.044 106.77 91.876C107.13 91.684 107.394 91.588 107.562 91.588ZM104.448 86.566C103.836 86.566 103.344 86.758 102.972 87.142C102.612 87.526 102.396 88.078 102.324 88.798H106.392C106.368 88.066 106.188 87.514 105.852 87.142C105.516 86.758 105.048 86.566 104.448 86.566ZM114.607 92.434C115.207 92.47 115.507 92.74 115.507 93.244C115.507 93.532 115.387 93.754 115.147 93.91C114.919 94.054 114.589 94.114 114.157 94.09L113.671 94.054C111.655 93.91 110.647 92.83 110.647 90.814V86.89H109.747C109.423 86.89 109.171 86.818 108.991 86.674C108.823 86.53 108.739 86.32 108.739 86.044C108.739 85.768 108.823 85.558 108.991 85.414C109.171 85.27 109.423 85.198 109.747 85.198H110.647V83.542C110.647 83.218 110.749 82.96 110.953 82.768C111.157 82.576 111.433 82.48 111.781 82.48C112.117 82.48 112.387 82.576 112.591 82.768C112.795 82.96 112.897 83.218 112.897 83.542V85.198H114.427C114.751 85.198 114.997 85.27 115.165 85.414C115.345 85.558 115.435 85.768 115.435 86.044C115.435 86.32 115.345 86.53 115.165 86.674C114.997 86.818 114.751 86.89 114.427 86.89H112.897V90.976C112.897 91.864 113.305 92.338 114.121 92.398L114.607 92.434ZM127.434 94.162C126.21 94.162 125.136 93.898 124.212 93.37C123.3 92.842 122.598 92.086 122.106 91.102C121.614 90.118 121.368 88.966 121.368 87.646C121.368 86.326 121.614 85.18 122.106 84.208C122.598 83.224 123.3 82.468 124.212 81.94C125.136 81.412 126.21 81.148 127.434 81.148C128.226 81.148 128.97 81.268 129.666 81.508C130.362 81.736 130.98 82.072 131.52 82.516C131.676 82.636 131.784 82.762 131.844 82.894C131.904 83.026 131.934 83.188 131.934 83.38C131.934 83.644 131.862 83.866 131.718 84.046C131.574 84.226 131.4 84.316 131.196 84.316C130.956 84.316 130.71 84.232 130.458 84.064C129.942 83.68 129.462 83.416 129.018 83.272C128.574 83.116 128.082 83.038 127.542 83.038C126.294 83.038 125.346 83.428 124.698 84.208C124.062 84.988 123.744 86.134 123.744 87.646C123.744 89.17 124.062 90.322 124.698 91.102C125.346 91.882 126.294 92.272 127.542 92.272C128.058 92.272 128.532 92.194 128.964 92.038C129.408 91.882 129.906 91.618 130.458 91.246C130.578 91.174 130.698 91.114 130.818 91.066C130.938 91.018 131.064 90.994 131.196 90.994C131.4 90.994 131.574 91.084 131.718 91.264C131.862 91.444 131.934 91.666 131.934 91.93C131.934 92.11 131.904 92.272 131.844 92.416C131.784 92.548 131.676 92.674 131.52 92.794C130.98 93.238 130.362 93.58 129.666 93.82C128.97 94.048 128.226 94.162 127.434 94.162ZM137.406 84.982C138.63 84.982 139.536 85.288 140.124 85.9C140.724 86.5 141.024 87.418 141.024 88.654V93.046C141.024 93.37 140.928 93.628 140.736 93.82C140.544 94 140.28 94.09 139.944 94.09C139.632 94.09 139.374 93.994 139.17 93.802C138.978 93.61 138.882 93.358 138.882 93.046V92.65C138.678 93.118 138.354 93.484 137.91 93.748C137.478 94.012 136.974 94.144 136.398 94.144C135.81 94.144 135.276 94.024 134.796 93.784C134.316 93.544 133.938 93.214 133.662 92.794C133.386 92.374 133.248 91.906 133.248 91.39C133.248 90.742 133.41 90.232 133.734 89.86C134.07 89.488 134.61 89.218 135.354 89.05C136.098 88.882 137.124 88.798 138.432 88.798H138.882V88.384C138.882 87.796 138.756 87.37 138.504 87.106C138.252 86.83 137.844 86.692 137.28 86.692C136.932 86.692 136.578 86.746 136.218 86.854C135.858 86.95 135.432 87.094 134.94 87.286C134.628 87.442 134.4 87.52 134.256 87.52C134.04 87.52 133.86 87.442 133.716 87.286C133.584 87.13 133.518 86.926 133.518 86.674C133.518 86.47 133.566 86.296 133.662 86.152C133.77 85.996 133.944 85.852 134.184 85.72C134.604 85.492 135.102 85.312 135.678 85.18C136.266 85.048 136.842 84.982 137.406 84.982ZM136.848 92.524C137.448 92.524 137.934 92.326 138.306 91.93C138.69 91.522 138.882 91 138.882 90.364V89.986H138.558C137.754 89.986 137.13 90.022 136.686 90.094C136.242 90.166 135.924 90.292 135.732 90.472C135.54 90.652 135.444 90.898 135.444 91.21C135.444 91.594 135.576 91.912 135.84 92.164C136.116 92.404 136.452 92.524 136.848 92.524ZM148.225 85.018C148.537 84.994 148.783 85.06 148.963 85.216C149.143 85.372 149.233 85.606 149.233 85.918C149.233 86.242 149.155 86.482 148.999 86.638C148.843 86.794 148.561 86.896 148.153 86.944L147.613 86.998C146.905 87.07 146.383 87.31 146.047 87.718C145.723 88.126 145.561 88.636 145.561 89.248V93.028C145.561 93.376 145.453 93.646 145.237 93.838C145.021 94.018 144.751 94.108 144.427 94.108C144.103 94.108 143.833 94.018 143.617 93.838C143.413 93.646 143.311 93.376 143.311 93.028V86.062C143.311 85.726 143.413 85.468 143.617 85.288C143.833 85.108 144.097 85.018 144.409 85.018C144.721 85.018 144.973 85.108 145.165 85.288C145.357 85.456 145.453 85.702 145.453 86.026V86.746C145.681 86.218 146.017 85.81 146.461 85.522C146.917 85.234 147.421 85.072 147.973 85.036L148.225 85.018ZM157.369 81.22C157.705 81.22 157.981 81.316 158.197 81.508C158.413 81.7 158.521 81.952 158.521 82.264V93.028C158.521 93.352 158.419 93.61 158.215 93.802C158.011 93.994 157.741 94.09 157.405 94.09C157.069 94.09 156.799 93.994 156.595 93.802C156.391 93.61 156.289 93.352 156.289 93.028V92.578C156.025 93.07 155.641 93.454 155.137 93.73C154.645 94.006 154.081 94.144 153.445 94.144C152.689 94.144 152.011 93.952 151.411 93.568C150.823 93.184 150.361 92.644 150.025 91.948C149.701 91.24 149.539 90.43 149.539 89.518C149.539 88.606 149.701 87.808 150.025 87.124C150.361 86.44 150.823 85.912 151.411 85.54C151.999 85.168 152.677 84.982 153.445 84.982C154.081 84.982 154.645 85.114 155.137 85.378C155.629 85.642 156.007 86.014 156.271 86.494V82.228C156.271 81.928 156.367 81.688 156.559 81.508C156.763 81.316 157.033 81.22 157.369 81.22ZM154.039 92.398C154.759 92.398 155.311 92.152 155.695 91.66C156.091 91.168 156.289 90.466 156.289 89.554C156.289 88.642 156.091 87.946 155.695 87.466C155.311 86.974 154.765 86.728 154.057 86.728C153.337 86.728 152.779 86.968 152.383 87.448C151.987 87.928 151.789 88.618 151.789 89.518C151.789 90.43 151.987 91.138 152.383 91.642C152.779 92.146 153.331 92.398 154.039 92.398Z" fill="white" fill-opacity="0.79"/>
<defs>
<filter id="filter0_ddd_1386_2552" x="0" y="0" width="422" height="204" filterUnits="userSpaceOnUse" color-interpolation-filters="sRGB">
<feFlood flood-opacity="0" result="BackgroundImageFix"/>
<feColorMatrix in="SourceAlpha" type="matrix" values="0 0 0 0 0 0 0 0 0 0 0 0 0 0 0 0 0 0 127 0" result="hardAlpha"/>
<feOffset dx="8" dy="8"/>
<feGaussianBlur stdDeviation="15"/>
<feColorMatrix type="matrix" values="0 0 0 0 0.137465 0 0 0 0 0.145816 0 0 0 0 0.154167 0 0 0 0.9 0"/>
<feBlend mode="normal" in2="BackgroundImageFix" result="effect1_dropShadow_1386_2552"/>
<feColorMatrix in="SourceAlpha" type="matrix" values="0 0 0 0 0 0 0 0 0 0 0 0 0 0 0 0 0 0 127 0" result="hardAlpha"/>
<feOffset dx="2" dy="2"/>
<feGaussianBlur stdDeviation="3"/>
<feColorMatrix type="matrix" values="0 0 0 0 0.137255 0 0 0 0 0.145098 0 0 0 0 0.152941 0 0 0 0.8 0"/>
<feBlend mode="normal" in2="effect1_dropShadow_1386_2552" result="effect2_dropShadow_1386_2552"/>
<feColorMatrix in="SourceAlpha" type="matrix" values="0 0 0 0 0 0 0 0 0 0 0 0 0 0 0 0 0 0 127 0" result="hardAlpha"/>
<feOffset dx="-2" dy="-2"/>
<feGaussianBlur stdDeviation="2"/>
<feColorMatrix type="matrix" values="0 0 0 0 0.290196 0 0 0 0 0.305882 0 0 0 0 0.32549 0 0 0 0.5 0"/>
<feBlend mode="normal" in2="effect2_dropShadow_1386_2552" result="effect3_dropShadow_1386_2552"/>
<feBlend mode="normal" in="SourceGraphic" in2="effect3_dropShadow_1386_2552" result="shape"/>
</filter>
<linearGradient id="paint0_linear_1386_2552" x1="71.0286" y1="21.1714" x2="64.8984" y2="-7.29078" gradientUnits="userSpaceOnUse">
<stop offset="0.130754" stop-color="#2D3135"/>
<stop offset="0.827958" stop-color="#35393E"/>
</linearGradient>
<linearGradient id="paint1_linear_1386_2552" x1="6.91824" y1="24" x2="84.6594" y2="13.9644" gradientUnits="userSpaceOnUse">
<stop stop-color="#00E9E0"/>
<stop offset="1" stop-color="#57CBA1"/>
</linearGradient>
<linearGradient id="paint2_linear_1386_2552" x1="314.186" y1="149.029" x2="263.092" y2="-13.6158" gradientUnits="userSpaceOnUse">
<stop offset="0.130754" stop-color="#2D3135"/>
<stop offset="0.827958" stop-color="#35393E"/>
</linearGradient>
</defs>
</svg>
