<svg width="361" height="266" viewBox="0 0 361 266" fill="none" xmlns="http://www.w3.org/2000/svg">
<g filter="url(#filter0_d_1386_2555)">
<rect x="22" y="22" width="301" height="206" rx="19" fill="url(#paint0_linear_1386_2555)"/>
</g>
<path d="M159.403 125.162C158.179 125.162 157.105 124.898 156.181 124.37C155.269 123.842 154.567 123.086 154.075 122.102C153.583 121.118 153.337 119.966 153.337 118.646C153.337 117.326 153.583 116.18 154.075 115.208C154.567 114.224 155.269 113.468 156.181 112.94C157.105 112.412 158.179 112.148 159.403 112.148C160.195 112.148 160.939 112.268 161.635 112.508C162.331 112.736 162.949 113.072 163.489 113.516C163.645 113.636 163.753 113.762 163.813 113.894C163.873 114.026 163.903 114.188 163.903 114.38C163.903 114.644 163.831 114.866 163.687 115.046C163.543 115.226 163.369 115.316 163.165 115.316C162.925 115.316 162.679 115.232 162.427 115.064C161.911 114.68 161.431 114.416 160.987 114.272C160.543 114.116 160.051 114.038 159.511 114.038C158.263 114.038 157.315 114.428 156.667 115.208C156.031 115.988 155.713 117.134 155.713 118.646C155.713 120.17 156.031 121.322 156.667 122.102C157.315 122.882 158.263 123.272 159.511 123.272C160.027 123.272 160.501 123.194 160.933 123.038C161.377 122.882 161.875 122.618 162.427 122.246C162.547 122.174 162.667 122.114 162.787 122.066C162.907 122.018 163.033 121.994 163.165 121.994C163.369 121.994 163.543 122.084 163.687 122.264C163.831 122.444 163.903 122.666 163.903 122.93C163.903 123.11 163.873 123.272 163.813 123.416C163.753 123.548 163.645 123.674 163.489 123.794C162.949 124.238 162.331 124.58 161.635 124.82C160.939 125.048 160.195 125.162 159.403 125.162ZM169.375 115.982C170.599 115.982 171.505 116.288 172.093 116.9C172.693 117.5 172.993 118.418 172.993 119.654V124.046C172.993 124.37 172.897 124.628 172.705 124.82C172.513 125 172.249 125.09 171.913 125.09C171.601 125.09 171.343 124.994 171.139 124.802C170.947 124.61 170.851 124.358 170.851 124.046V123.65C170.647 124.118 170.323 124.484 169.879 124.748C169.447 125.012 168.943 125.144 168.367 125.144C167.779 125.144 167.245 125.024 166.765 124.784C166.285 124.544 165.907 124.214 165.631 123.794C165.355 123.374 165.217 122.906 165.217 122.39C165.217 121.742 165.379 121.232 165.703 120.86C166.039 120.488 166.579 120.218 167.323 120.05C168.067 119.882 169.093 119.798 170.401 119.798H170.851V119.384C170.851 118.796 170.725 118.37 170.473 118.106C170.221 117.83 169.813 117.692 169.249 117.692C168.901 117.692 168.547 117.746 168.187 117.854C167.827 117.95 167.401 118.094 166.909 118.286C166.597 118.442 166.369 118.52 166.225 118.52C166.009 118.52 165.829 118.442 165.685 118.286C165.553 118.13 165.487 117.926 165.487 117.674C165.487 117.47 165.535 117.296 165.631 117.152C165.739 116.996 165.913 116.852 166.153 116.72C166.573 116.492 167.071 116.312 167.647 116.18C168.235 116.048 168.811 115.982 169.375 115.982ZM168.817 123.524C169.417 123.524 169.903 123.326 170.275 122.93C170.659 122.522 170.851 122 170.851 121.364V120.986H170.527C169.723 120.986 169.099 121.022 168.655 121.094C168.211 121.166 167.893 121.292 167.701 121.472C167.509 121.652 167.413 121.898 167.413 122.21C167.413 122.594 167.545 122.912 167.809 123.164C168.085 123.404 168.421 123.524 168.817 123.524ZM180.193 116.018C180.505 115.994 180.751 116.06 180.931 116.216C181.111 116.372 181.201 116.606 181.201 116.918C181.201 117.242 181.123 117.482 180.967 117.638C180.811 117.794 180.529 117.896 180.121 117.944L179.581 117.998C178.873 118.07 178.351 118.31 178.015 118.718C177.691 119.126 177.529 119.636 177.529 120.248V124.028C177.529 124.376 177.421 124.646 177.205 124.838C176.989 125.018 176.719 125.108 176.395 125.108C176.071 125.108 175.801 125.018 175.585 124.838C175.381 124.646 175.279 124.376 175.279 124.028V117.062C175.279 116.726 175.381 116.468 175.585 116.288C175.801 116.108 176.065 116.018 176.377 116.018C176.689 116.018 176.941 116.108 177.133 116.288C177.325 116.456 177.421 116.702 177.421 117.026V117.746C177.649 117.218 177.985 116.81 178.429 116.522C178.885 116.234 179.389 116.072 179.941 116.036L180.193 116.018ZM189.338 112.22C189.674 112.22 189.95 112.316 190.166 112.508C190.382 112.7 190.49 112.952 190.49 113.264V124.028C190.49 124.352 190.388 124.61 190.184 124.802C189.98 124.994 189.71 125.09 189.374 125.09C189.038 125.09 188.768 124.994 188.564 124.802C188.36 124.61 188.258 124.352 188.258 124.028V123.578C187.994 124.07 187.61 124.454 187.106 124.73C186.614 125.006 186.05 125.144 185.414 125.144C184.658 125.144 183.98 124.952 183.38 124.568C182.792 124.184 182.33 123.644 181.994 122.948C181.67 122.24 181.508 121.43 181.508 120.518C181.508 119.606 181.67 118.808 181.994 118.124C182.33 117.44 182.792 116.912 183.38 116.54C183.968 116.168 184.646 115.982 185.414 115.982C186.05 115.982 186.614 116.114 187.106 116.378C187.598 116.642 187.976 117.014 188.24 117.494V113.228C188.24 112.928 188.336 112.688 188.528 112.508C188.732 112.316 189.002 112.22 189.338 112.22ZM186.008 123.398C186.728 123.398 187.28 123.152 187.664 122.66C188.06 122.168 188.258 121.466 188.258 120.554C188.258 119.642 188.06 118.946 187.664 118.466C187.28 117.974 186.734 117.728 186.026 117.728C185.306 117.728 184.748 117.968 184.352 118.448C183.956 118.928 183.758 119.618 183.758 120.518C183.758 121.43 183.956 122.138 184.352 122.642C184.748 123.146 185.3 123.398 186.008 123.398Z" fill="white" fill-opacity="0.79"/>
<defs>
<filter id="filter0_d_1386_2555" x="0" y="0" width="361" height="266" filterUnits="userSpaceOnUse" color-interpolation-filters="sRGB">
<feFlood flood-opacity="0" result="BackgroundImageFix"/>
<feColorMatrix in="SourceAlpha" type="matrix" values="0 0 0 0 0 0 0 0 0 0 0 0 0 0 0 0 0 0 127 0" result="hardAlpha"/>
<feOffset dx="8" dy="8"/>
<feGaussianBlur stdDeviation="15"/>
<feColorMatrix type="matrix" values="0 0 0 0 0.137465 0 0 0 0 0.145816 0 0 0 0 0.154167 0 0 0 0.22 0"/>
<feBlend mode="normal" in2="BackgroundImageFix" result="effect1_dropShadow_1386_2555"/>
<feBlend mode="normal" in="SourceGraphic" in2="effect1_dropShadow_1386_2555" result="shape"/>
</filter>
<linearGradient id="paint0_linear_1386_2555" x1="264.95" y1="203.721" x2="158.022" y2="5.87986" gradientUnits="userSpaceOnUse">
<stop offset="0.130754" stop-color="#2D3135"/>
<stop offset="0.827958" stop-color="#35393E"/>
</linearGradient>
</defs>
</svg>
