<svg width="382" height="124" viewBox="0 0 382 124" fill="none" xmlns="http://www.w3.org/2000/svg">
<g filter="url(#filter0_dddd_1386_2554)">
<rect x="26" y="26" width="318" height="60" rx="30" fill="url(#paint0_linear_1386_2554)"/>
<rect x="26.5" y="26.5" width="317" height="59" rx="29.5" stroke="url(#paint1_linear_1386_2554)"/>
</g>
<path d="M53.862 60.07C53.6473 60.07 53.4747 60.0047 53.344 59.874C53.2133 59.7433 53.148 59.566 53.148 59.342V50.788C53.148 50.5733 53.2133 50.4007 53.344 50.27C53.4747 50.13 53.6473 50.06 53.862 50.06C54.086 50.06 54.2633 50.1253 54.394 50.256C54.5247 50.3867 54.59 50.564 54.59 50.788V59.342C54.59 59.566 54.5247 59.7433 54.394 59.874C54.2727 60.0047 54.0953 60.07 53.862 60.07ZM60.3944 53C62.0278 53 62.8444 53.9193 62.8444 55.758V59.398C62.8444 59.6127 62.7791 59.7807 62.6484 59.902C62.5271 60.014 62.3544 60.07 62.1304 60.07C61.9158 60.07 61.7431 60.0093 61.6124 59.888C61.4911 59.7667 61.4304 59.6033 61.4304 59.398V55.828C61.4304 55.2493 61.3138 54.8247 61.0804 54.554C60.8564 54.2833 60.5018 54.148 60.0164 54.148C59.4471 54.148 58.9898 54.3253 58.6444 54.68C58.2991 55.0347 58.1264 55.5107 58.1264 56.108V59.398C58.1264 59.6033 58.0611 59.7667 57.9304 59.888C57.8091 60.0093 57.6411 60.07 57.4264 60.07C57.2118 60.07 57.0391 60.0093 56.9084 59.888C56.7778 59.7667 56.7124 59.6033 56.7124 59.398V53.7C56.7124 53.504 56.7778 53.3453 56.9084 53.224C57.0484 53.0933 57.2211 53.028 57.4264 53.028C57.6318 53.028 57.7951 53.0887 57.9164 53.21C58.0378 53.3313 58.0984 53.49 58.0984 53.686V54.26C58.3224 53.8493 58.6351 53.5367 59.0364 53.322C59.4378 53.1073 59.8904 53 60.3944 53ZM68.4468 53C69.0348 53 69.5575 53.1493 70.0148 53.448C70.4815 53.7467 70.8408 54.1667 71.0928 54.708C71.3542 55.2493 71.4848 55.8747 71.4848 56.584C71.4848 57.284 71.3588 57.9 71.1068 58.432C70.8548 58.964 70.4955 59.3747 70.0288 59.664C69.5715 59.9533 69.0442 60.098 68.4468 60.098C67.9335 60.098 67.4808 59.9907 67.0888 59.776C66.6968 59.552 66.3982 59.2347 66.1928 58.824V61.946C66.1928 62.142 66.1275 62.296 65.9968 62.408C65.8755 62.5293 65.7122 62.59 65.5068 62.59C65.2922 62.59 65.1148 62.5293 64.9748 62.408C64.8442 62.2867 64.7788 62.1233 64.7788 61.918V53.714C64.7788 53.5087 64.8442 53.3453 64.9748 53.224C65.1055 53.0933 65.2782 53.028 65.4928 53.028C65.6982 53.028 65.8662 53.0933 65.9968 53.224C66.1275 53.3453 66.1928 53.5087 66.1928 53.714V54.288C66.3982 53.8773 66.6968 53.56 67.0888 53.336C67.4808 53.112 67.9335 53 68.4468 53ZM68.1108 58.978C68.7268 58.978 69.2028 58.7727 69.5388 58.362C69.8748 57.942 70.0428 57.3493 70.0428 56.584C70.0428 55.8093 69.8702 55.2073 69.5248 54.778C69.1888 54.3487 68.7175 54.134 68.1108 54.134C67.4948 54.134 67.0188 54.344 66.6828 54.764C66.3562 55.184 66.1928 55.7813 66.1928 56.556C66.1928 57.3307 66.3562 57.928 66.6828 58.348C67.0188 58.768 67.4948 58.978 68.1108 58.978ZM78.3423 53.028C78.557 53.028 78.725 53.0887 78.8463 53.21C78.977 53.3313 79.0423 53.4993 79.0423 53.714V59.412C79.0423 59.608 78.977 59.7667 78.8463 59.888C78.7156 60.0093 78.543 60.07 78.3283 60.07C78.1323 60.07 77.9736 60.014 77.8523 59.902C77.731 59.7807 77.6703 59.622 77.6703 59.426V58.894C77.4556 59.286 77.157 59.5847 76.7743 59.79C76.401 59.9953 75.981 60.098 75.5143 60.098C73.853 60.098 73.0223 59.1833 73.0223 57.354V53.714C73.0223 53.4993 73.083 53.3313 73.2043 53.21C73.335 53.0887 73.5123 53.028 73.7363 53.028C73.951 53.028 74.119 53.0887 74.2403 53.21C74.371 53.3313 74.4363 53.4993 74.4363 53.714V57.34C74.4363 57.8907 74.5483 58.2967 74.7723 58.558C74.9963 58.8193 75.3416 58.95 75.8083 58.95C76.359 58.95 76.7976 58.7727 77.1243 58.418C77.4603 58.0633 77.6283 57.592 77.6283 57.004V53.714C77.6283 53.5087 77.6936 53.3453 77.8243 53.224C77.955 53.0933 78.1276 53.028 78.3423 53.028ZM84.367 58.992C84.5723 59.0107 84.717 59.0667 84.801 59.16C84.8943 59.244 84.941 59.3653 84.941 59.524C84.941 59.7107 84.8663 59.8553 84.717 59.958C84.577 60.0513 84.367 60.0887 84.087 60.07L83.709 60.042C82.953 59.986 82.3883 59.7573 82.015 59.356C81.6417 58.9453 81.455 58.3433 81.455 57.55V54.26H80.615C80.2043 54.26 79.999 54.078 79.999 53.714C79.999 53.546 80.0503 53.4153 80.153 53.322C80.265 53.2193 80.419 53.168 80.615 53.168H81.455V51.726C81.455 51.5113 81.5157 51.3433 81.637 51.222C81.7677 51.1007 81.9403 51.04 82.155 51.04C82.3697 51.04 82.5423 51.1007 82.673 51.222C82.8037 51.3433 82.869 51.5113 82.869 51.726V53.168H84.255C84.451 53.168 84.6003 53.2193 84.703 53.322C84.815 53.4153 84.871 53.546 84.871 53.714C84.871 53.8913 84.815 54.0267 84.703 54.12C84.6003 54.2133 84.451 54.26 84.255 54.26H82.869V57.648C82.869 58.0867 82.9577 58.4087 83.135 58.614C83.3217 58.8193 83.6017 58.936 83.975 58.964L84.367 58.992ZM92.994 58.992C93.1993 59.0107 93.344 59.0667 93.428 59.16C93.5213 59.244 93.568 59.3653 93.568 59.524C93.568 59.7107 93.4933 59.8553 93.344 59.958C93.204 60.0513 92.994 60.0887 92.714 60.07L92.336 60.042C91.58 59.986 91.0153 59.7573 90.642 59.356C90.2686 58.9453 90.082 58.3433 90.082 57.55V54.26H89.242C88.8313 54.26 88.626 54.078 88.626 53.714C88.626 53.546 88.6773 53.4153 88.78 53.322C88.892 53.2193 89.046 53.168 89.242 53.168H90.082V51.726C90.082 51.5113 90.1426 51.3433 90.264 51.222C90.3946 51.1007 90.5673 51.04 90.782 51.04C90.9966 51.04 91.1693 51.1007 91.3 51.222C91.4306 51.3433 91.496 51.5113 91.496 51.726V53.168H92.882C93.078 53.168 93.2273 53.2193 93.33 53.322C93.442 53.4153 93.498 53.546 93.498 53.714C93.498 53.8913 93.442 54.0267 93.33 54.12C93.2273 54.2133 93.078 54.26 92.882 54.26H91.496V57.648C91.496 58.0867 91.5846 58.4087 91.762 58.614C91.9486 58.8193 92.2286 58.936 92.602 58.964L92.994 58.992ZM99.9315 58.278C100.062 58.278 100.17 58.3293 100.254 58.432C100.338 58.5347 100.38 58.6653 100.38 58.824C100.38 59.0947 100.212 59.3233 99.8755 59.51C99.5488 59.6967 99.1895 59.8413 98.7975 59.944C98.4148 60.0467 98.0462 60.098 97.6915 60.098C96.6088 60.098 95.7548 59.7853 95.1295 59.16C94.5042 58.5253 94.1915 57.662 94.1915 56.57C94.1915 55.87 94.3268 55.2493 94.5975 54.708C94.8775 54.1667 95.2648 53.7467 95.7595 53.448C96.2635 53.1493 96.8328 53 97.4675 53C98.3822 53 99.1055 53.294 99.6375 53.882C100.17 54.47 100.436 55.2633 100.436 56.262C100.436 56.6353 100.268 56.822 99.9315 56.822H95.6055C95.6988 58.2687 96.3942 58.992 97.6915 58.992C98.0368 58.992 98.3355 58.9453 98.5875 58.852C98.8395 58.7587 99.1055 58.6373 99.3855 58.488C99.4135 58.4693 99.4882 58.432 99.6095 58.376C99.7402 58.3107 99.8475 58.278 99.9315 58.278ZM97.4955 54.036C96.9542 54.036 96.5202 54.2087 96.1935 54.554C95.8668 54.8993 95.6708 55.3847 95.6055 56.01H99.2175C99.1895 55.3753 99.0262 54.89 98.7275 54.554C98.4382 54.2087 98.0275 54.036 97.4955 54.036ZM107.611 58.936C107.751 59.076 107.821 59.2393 107.821 59.426C107.821 59.6033 107.756 59.7573 107.625 59.888C107.504 60.0093 107.354 60.07 107.177 60.07C107 60.07 106.836 59.9907 106.687 59.832L104.545 57.424L102.417 59.832C102.268 59.9907 102.104 60.07 101.927 60.07C101.75 60.07 101.596 60.0047 101.465 59.874C101.344 59.7433 101.283 59.5893 101.283 59.412C101.283 59.2347 101.348 59.076 101.479 58.936L103.691 56.5L101.591 54.162C101.451 54.0033 101.381 53.8447 101.381 53.686C101.381 53.5087 101.446 53.3593 101.577 53.238C101.708 53.1073 101.857 53.042 102.025 53.042C102.202 53.042 102.366 53.1213 102.515 53.28L104.545 55.576L106.575 53.28C106.724 53.1213 106.892 53.042 107.079 53.042C107.247 53.042 107.396 53.1073 107.527 53.238C107.658 53.3593 107.723 53.5087 107.723 53.686C107.723 53.8633 107.653 54.022 107.513 54.162L105.413 56.5L107.611 58.936ZM112.558 58.992C112.764 59.0107 112.908 59.0667 112.992 59.16C113.086 59.244 113.132 59.3653 113.132 59.524C113.132 59.7107 113.058 59.8553 112.908 59.958C112.768 60.0513 112.558 60.0887 112.278 60.07L111.9 60.042C111.144 59.986 110.58 59.7573 110.206 59.356C109.833 58.9453 109.646 58.3433 109.646 57.55V54.26H108.806C108.396 54.26 108.19 54.078 108.19 53.714C108.19 53.546 108.242 53.4153 108.344 53.322C108.456 53.2193 108.61 53.168 108.806 53.168H109.646V51.726C109.646 51.5113 109.707 51.3433 109.828 51.222C109.959 51.1007 110.132 51.04 110.346 51.04C110.561 51.04 110.734 51.1007 110.864 51.222C110.995 51.3433 111.06 51.5113 111.06 51.726V53.168H112.446C112.642 53.168 112.792 53.2193 112.894 53.322C113.006 53.4153 113.062 53.546 113.062 53.714C113.062 53.8913 113.006 54.0267 112.894 54.12C112.792 54.2133 112.642 54.26 112.446 54.26H111.06V57.648C111.06 58.0867 111.149 58.4087 111.326 58.614C111.513 58.8193 111.793 58.936 112.166 58.964L112.558 58.992ZM121.507 53C122.105 53 122.632 53.1447 123.089 53.434C123.547 53.7233 123.901 54.134 124.153 54.666C124.415 55.198 124.545 55.8187 124.545 56.528C124.545 57.228 124.415 57.8487 124.153 58.39C123.901 58.9313 123.542 59.3513 123.075 59.65C122.618 59.9487 122.095 60.098 121.507 60.098C120.994 60.098 120.541 59.9907 120.149 59.776C119.757 59.552 119.459 59.2347 119.253 58.824V59.384C119.253 59.5893 119.188 59.7573 119.057 59.888C118.936 60.0093 118.768 60.07 118.553 60.07C118.339 60.07 118.166 60.0093 118.035 59.888C117.905 59.7573 117.839 59.5893 117.839 59.384V50.732C117.839 50.5267 117.905 50.3633 118.035 50.242C118.175 50.1207 118.353 50.06 118.567 50.06C118.773 50.06 118.936 50.1207 119.057 50.242C119.188 50.354 119.253 50.508 119.253 50.704V54.288C119.459 53.8773 119.757 53.56 120.149 53.336C120.541 53.112 120.994 53 121.507 53ZM121.171 58.978C121.778 58.978 122.249 58.7633 122.585 58.334C122.931 57.9047 123.103 57.3027 123.103 56.528C123.103 55.7627 122.935 55.1747 122.599 54.764C122.263 54.344 121.787 54.134 121.171 54.134C120.555 54.134 120.079 54.344 119.743 54.764C119.417 55.184 119.253 55.7813 119.253 56.556C119.253 57.3307 119.417 57.928 119.743 58.348C120.079 58.768 120.555 58.978 121.171 58.978ZM129.079 60.098C128.407 60.098 127.814 59.9533 127.301 59.664C126.797 59.3747 126.405 58.964 126.125 58.432C125.854 57.8907 125.719 57.2653 125.719 56.556C125.719 55.8373 125.854 55.212 126.125 54.68C126.405 54.1387 126.797 53.7233 127.301 53.434C127.814 53.1447 128.407 53 129.079 53C129.751 53 130.339 53.1447 130.843 53.434C131.356 53.7233 131.748 54.1387 132.019 54.68C132.299 55.212 132.439 55.8373 132.439 56.556C132.439 57.2653 132.299 57.8907 132.019 58.432C131.748 58.964 131.356 59.3747 130.843 59.664C130.339 59.9533 129.751 60.098 129.079 60.098ZM129.079 58.978C129.704 58.978 130.18 58.7727 130.507 58.362C130.843 57.9513 131.011 57.3493 131.011 56.556C131.011 55.772 130.843 55.1747 130.507 54.764C130.171 54.344 129.695 54.134 129.079 54.134C128.463 54.134 127.987 54.344 127.651 54.764C127.315 55.1747 127.147 55.772 127.147 56.556C127.147 57.3493 127.31 57.9513 127.637 58.362C127.973 58.7727 128.454 58.978 129.079 58.978ZM139.63 58.936C139.77 59.076 139.84 59.2393 139.84 59.426C139.84 59.6033 139.775 59.7573 139.644 59.888C139.523 60.0093 139.374 60.07 139.196 60.07C139.019 60.07 138.856 59.9907 138.706 59.832L136.564 57.424L134.436 59.832C134.287 59.9907 134.124 60.07 133.946 60.07C133.769 60.07 133.615 60.0047 133.484 59.874C133.363 59.7433 133.302 59.5893 133.302 59.412C133.302 59.2347 133.368 59.076 133.498 58.936L135.71 56.5L133.61 54.162C133.47 54.0033 133.4 53.8447 133.4 53.686C133.4 53.5087 133.466 53.3593 133.596 53.238C133.727 53.1073 133.876 53.042 134.044 53.042C134.222 53.042 134.385 53.1213 134.534 53.28L136.564 55.576L138.594 53.28C138.744 53.1213 138.912 53.042 139.098 53.042C139.266 53.042 139.416 53.1073 139.546 53.238C139.677 53.3593 139.742 53.5087 139.742 53.686C139.742 53.8633 139.672 54.022 139.532 54.162L137.432 56.5L139.63 58.936Z" fill="#A8A8A8"/>
<defs>
<filter id="filter0_dddd_1386_2554" x="0" y="0" width="382" height="124" filterUnits="userSpaceOnUse" color-interpolation-filters="sRGB">
<feFlood flood-opacity="0" result="BackgroundImageFix"/>
<feColorMatrix in="SourceAlpha" type="matrix" values="0 0 0 0 0 0 0 0 0 0 0 0 0 0 0 0 0 0 127 0" result="hardAlpha"/>
<feOffset dx="-6" dy="-6"/>
<feGaussianBlur stdDeviation="10"/>
<feColorMatrix type="matrix" values="0 0 0 0 0.288437 0 0 0 0 0.306719 0 0 0 0 0.325 0 0 0 0.7 0"/>
<feBlend mode="normal" in2="BackgroundImageFix" result="effect1_dropShadow_1386_2554"/>
<feColorMatrix in="SourceAlpha" type="matrix" values="0 0 0 0 0 0 0 0 0 0 0 0 0 0 0 0 0 0 127 0" result="hardAlpha"/>
<feOffset dx="8" dy="8"/>
<feGaussianBlur stdDeviation="15"/>
<feColorMatrix type="matrix" values="0 0 0 0 0.137465 0 0 0 0 0.145816 0 0 0 0 0.154167 0 0 0 0.9 0"/>
<feBlend mode="normal" in2="effect1_dropShadow_1386_2554" result="effect2_dropShadow_1386_2554"/>
<feColorMatrix in="SourceAlpha" type="matrix" values="0 0 0 0 0 0 0 0 0 0 0 0 0 0 0 0 0 0 127 0" result="hardAlpha"/>
<feOffset dx="2" dy="2"/>
<feGaussianBlur stdDeviation="3"/>
<feColorMatrix type="matrix" values="0 0 0 0 0.137255 0 0 0 0 0.145098 0 0 0 0 0.152941 0 0 0 0.8 0"/>
<feBlend mode="normal" in2="effect2_dropShadow_1386_2554" result="effect3_dropShadow_1386_2554"/>
<feColorMatrix in="SourceAlpha" type="matrix" values="0 0 0 0 0 0 0 0 0 0 0 0 0 0 0 0 0 0 127 0" result="hardAlpha"/>
<feOffset dx="-2" dy="-2"/>
<feGaussianBlur stdDeviation="2"/>
<feColorMatrix type="matrix" values="0 0 0 0 0.290196 0 0 0 0 0.305882 0 0 0 0 0.32549 0 0 0 0.5 0"/>
<feBlend mode="normal" in2="effect3_dropShadow_1386_2554" result="effect4_dropShadow_1386_2554"/>
<feBlend mode="normal" in="SourceGraphic" in2="effect4_dropShadow_1386_2554" result="shape"/>
</filter>
<linearGradient id="paint0_linear_1386_2554" x1="282.671" y1="78.9286" x2="271.818" y2="6.08948" gradientUnits="userSpaceOnUse">
<stop offset="0.130754" stop-color="#2D3135"/>
<stop offset="0.827958" stop-color="#35393E"/>
</linearGradient>
<linearGradient id="paint1_linear_1386_2554" x1="51" y1="86" x2="327" y2="34.5" gradientUnits="userSpaceOnUse">
<stop stop-color="#2E3192"/>
<stop offset="1" stop-color="#57CBA1"/>
</linearGradient>
</defs>
</svg>
