<svg width="232" height="112" viewBox="0 0 232 112" fill="none" xmlns="http://www.w3.org/2000/svg">
<g filter="url(#filter0_dddd_1372_2645)">
<rect x="26" y="26" width="168" height="48" rx="24" fill="url(#paint0_linear_1372_2645)"/>
</g>
<path d="M48.9399 56.108C48.5919 56.108 48.3099 56.006 48.0939 55.802C47.8899 55.586 47.7879 55.298 47.7879 54.938V44.408C47.7879 44.06 47.8839 43.79 48.0759 43.598C48.2799 43.406 48.5559 43.31 48.9039 43.31H53.3319C54.6879 43.31 55.7439 43.652 56.4999 44.336C57.2559 45.008 57.6339 45.956 57.6339 47.18C57.6339 48.404 57.2559 49.358 56.4999 50.042C55.7439 50.726 54.6879 51.068 53.3319 51.068H50.1099V54.938C50.1099 55.298 50.0019 55.586 49.7859 55.802C49.5819 56.006 49.2999 56.108 48.9399 56.108ZM53.0439 49.286C54.6399 49.286 55.4379 48.59 55.4379 47.198C55.4379 45.806 54.6399 45.11 53.0439 45.11H50.1099V49.286H53.0439ZM64.211 47.018C64.523 46.994 64.769 47.06 64.949 47.216C65.129 47.372 65.219 47.606 65.219 47.918C65.219 48.242 65.141 48.482 64.985 48.638C64.829 48.794 64.547 48.896 64.139 48.944L63.599 48.998C62.891 49.07 62.369 49.31 62.033 49.718C61.709 50.126 61.547 50.636 61.547 51.248V55.028C61.547 55.376 61.439 55.646 61.223 55.838C61.007 56.018 60.737 56.108 60.413 56.108C60.089 56.108 59.819 56.018 59.603 55.838C59.399 55.646 59.297 55.376 59.297 55.028V48.062C59.297 47.726 59.399 47.468 59.603 47.288C59.819 47.108 60.083 47.018 60.395 47.018C60.707 47.018 60.959 47.108 61.151 47.288C61.343 47.456 61.439 47.702 61.439 48.026V48.746C61.667 48.218 62.003 47.81 62.447 47.522C62.903 47.234 63.407 47.072 63.959 47.036L64.211 47.018ZM67.3036 56.108C66.9796 56.108 66.7096 56.018 66.4936 55.838C66.2896 55.646 66.1876 55.376 66.1876 55.028V48.08C66.1876 47.732 66.2896 47.468 66.4936 47.288C66.7096 47.108 66.9796 47.018 67.3036 47.018C67.6276 47.018 67.8976 47.108 68.1136 47.288C68.3296 47.468 68.4376 47.732 68.4376 48.08V55.028C68.4376 55.376 68.3296 55.646 68.1136 55.838C67.8976 56.018 67.6276 56.108 67.3036 56.108ZM67.3036 45.416C66.8956 45.416 66.5716 45.308 66.3316 45.092C66.0916 44.864 65.9716 44.57 65.9716 44.21C65.9716 43.85 66.0916 43.562 66.3316 43.346C66.5716 43.13 66.8956 43.022 67.3036 43.022C67.6996 43.022 68.0176 43.13 68.2576 43.346C68.5096 43.562 68.6356 43.85 68.6356 44.21C68.6356 44.57 68.5156 44.864 68.2756 45.092C68.0356 45.308 67.7116 45.416 67.3036 45.416ZM81.2159 46.982C82.1759 46.982 82.9079 47.27 83.4119 47.846C83.9279 48.41 84.1859 49.328 84.1859 50.6V55.028C84.1859 55.376 84.0779 55.646 83.8619 55.838C83.6579 56.018 83.3879 56.108 83.0519 56.108C82.7279 56.108 82.4579 56.018 82.2419 55.838C82.0379 55.646 81.9359 55.376 81.9359 55.028V50.6C81.9359 49.94 81.8159 49.472 81.5759 49.196C81.3479 48.908 80.9939 48.764 80.5139 48.764C79.9259 48.764 79.4579 48.968 79.1099 49.376C78.7619 49.772 78.5879 50.318 78.5879 51.014V55.028C78.5879 55.376 78.4799 55.646 78.2639 55.838C78.0599 56.018 77.7959 56.108 77.4719 56.108C77.1479 56.108 76.8779 56.018 76.6619 55.838C76.4459 55.646 76.3379 55.376 76.3379 55.028V50.6C76.3379 49.94 76.2179 49.472 75.9779 49.196C75.7499 48.908 75.3959 48.764 74.9159 48.764C74.3279 48.764 73.8599 48.968 73.5119 49.376C73.1759 49.772 73.0079 50.318 73.0079 51.014V55.028C73.0079 55.376 72.8999 55.646 72.6839 55.838C72.4679 56.018 72.1979 56.108 71.8739 56.108C71.5499 56.108 71.2799 56.018 71.0639 55.838C70.8599 55.646 70.7579 55.376 70.7579 55.028V48.062C70.7579 47.726 70.8659 47.468 71.0819 47.288C71.2979 47.108 71.5679 47.018 71.8919 47.018C72.2039 47.018 72.4559 47.108 72.6479 47.288C72.8519 47.456 72.9539 47.702 72.9539 48.026V48.458C73.2299 47.978 73.5959 47.612 74.0519 47.36C74.5199 47.108 75.0539 46.982 75.6539 46.982C76.9739 46.982 77.8559 47.534 78.2999 48.638C78.5639 48.134 78.9539 47.732 79.4699 47.432C79.9859 47.132 80.5679 46.982 81.2159 46.982ZM90.2887 46.982C91.5127 46.982 92.4187 47.288 93.0067 47.9C93.6067 48.5 93.9067 49.418 93.9067 50.654V55.046C93.9067 55.37 93.8107 55.628 93.6187 55.82C93.4267 56 93.1627 56.09 92.8267 56.09C92.5147 56.09 92.2567 55.994 92.0527 55.802C91.8607 55.61 91.7647 55.358 91.7647 55.046V54.65C91.5607 55.118 91.2367 55.484 90.7927 55.748C90.3607 56.012 89.8567 56.144 89.2807 56.144C88.6927 56.144 88.1587 56.024 87.6787 55.784C87.1987 55.544 86.8207 55.214 86.5447 54.794C86.2687 54.374 86.1307 53.906 86.1307 53.39C86.1307 52.742 86.2927 52.232 86.6167 51.86C86.9527 51.488 87.4927 51.218 88.2367 51.05C88.9807 50.882 90.0067 50.798 91.3147 50.798H91.7647V50.384C91.7647 49.796 91.6387 49.37 91.3867 49.106C91.1347 48.83 90.7267 48.692 90.1627 48.692C89.8147 48.692 89.4607 48.746 89.1007 48.854C88.7407 48.95 88.3147 49.094 87.8227 49.286C87.5107 49.442 87.2827 49.52 87.1387 49.52C86.9227 49.52 86.7427 49.442 86.5987 49.286C86.4667 49.13 86.4007 48.926 86.4007 48.674C86.4007 48.47 86.4487 48.296 86.5447 48.152C86.6527 47.996 86.8267 47.852 87.0667 47.72C87.4867 47.492 87.9847 47.312 88.5607 47.18C89.1487 47.048 89.7247 46.982 90.2887 46.982ZM89.7307 54.524C90.3307 54.524 90.8167 54.326 91.1887 53.93C91.5727 53.522 91.7647 53 91.7647 52.364V51.986H91.4407C90.6367 51.986 90.0127 52.022 89.5687 52.094C89.1247 52.166 88.8067 52.292 88.6147 52.472C88.4227 52.652 88.3267 52.898 88.3267 53.21C88.3267 53.594 88.4587 53.912 88.7227 54.164C88.9987 54.404 89.3347 54.524 89.7307 54.524ZM101.107 47.018C101.419 46.994 101.665 47.06 101.845 47.216C102.025 47.372 102.115 47.606 102.115 47.918C102.115 48.242 102.037 48.482 101.881 48.638C101.725 48.794 101.443 48.896 101.035 48.944L100.495 48.998C99.7874 49.07 99.2654 49.31 98.9294 49.718C98.6054 50.126 98.4434 50.636 98.4434 51.248V55.028C98.4434 55.376 98.3354 55.646 98.1194 55.838C97.9034 56.018 97.6334 56.108 97.3094 56.108C96.9854 56.108 96.7154 56.018 96.4994 55.838C96.2954 55.646 96.1934 55.376 96.1934 55.028V48.062C96.1934 47.726 96.2954 47.468 96.4994 47.288C96.7154 47.108 96.9794 47.018 97.2914 47.018C97.6034 47.018 97.8554 47.108 98.0474 47.288C98.2394 47.456 98.3354 47.702 98.3354 48.026V48.746C98.5634 48.218 98.8994 47.81 99.3434 47.522C99.7994 47.234 100.303 47.072 100.855 47.036L101.107 47.018ZM109.767 47.666C109.863 47.45 109.989 47.294 110.145 47.198C110.313 47.09 110.493 47.036 110.685 47.036C110.961 47.036 111.207 47.132 111.423 47.324C111.651 47.504 111.765 47.732 111.765 48.008C111.765 48.14 111.729 48.278 111.657 48.422L106.743 58.718C106.539 59.126 106.221 59.33 105.789 59.33C105.513 59.33 105.267 59.24 105.051 59.06C104.847 58.892 104.745 58.676 104.745 58.412C104.745 58.28 104.781 58.13 104.853 57.962L106.077 55.388L102.729 48.422C102.669 48.302 102.639 48.164 102.639 48.008C102.639 47.732 102.753 47.498 102.981 47.306C103.221 47.114 103.491 47.018 103.791 47.018C103.995 47.018 104.181 47.072 104.349 47.18C104.517 47.276 104.649 47.432 104.745 47.648L107.265 53.21L109.767 47.666ZM126 49.448C126.732 49.652 127.296 50.024 127.692 50.564C128.1 51.104 128.304 51.764 128.304 52.544C128.304 53.624 127.914 54.47 127.134 55.082C126.366 55.694 125.304 56 123.948 56H119.304C118.956 56 118.68 55.904 118.476 55.712C118.284 55.52 118.188 55.25 118.188 54.902V44.408C118.188 44.06 118.284 43.79 118.476 43.598C118.68 43.406 118.956 43.31 119.304 43.31H123.768C125.088 43.31 126.12 43.604 126.864 44.192C127.62 44.768 127.998 45.578 127.998 46.622C127.998 47.294 127.818 47.876 127.458 48.368C127.11 48.86 126.624 49.22 126 49.448ZM120.456 48.656H123.39C124.986 48.656 125.784 48.062 125.784 46.874C125.784 46.274 125.586 45.83 125.19 45.542C124.794 45.254 124.194 45.11 123.39 45.11H120.456V48.656ZM123.696 54.2C124.536 54.2 125.148 54.05 125.532 53.75C125.916 53.45 126.108 52.982 126.108 52.346C126.108 51.71 125.91 51.236 125.514 50.924C125.13 50.612 124.524 50.456 123.696 50.456H120.456V54.2H123.696ZM137.225 47.018C137.573 47.018 137.849 47.114 138.053 47.306C138.257 47.498 138.359 47.756 138.359 48.08V55.064C138.359 55.376 138.251 55.628 138.035 55.82C137.831 56.012 137.561 56.108 137.225 56.108C136.901 56.108 136.643 56.018 136.451 55.838C136.259 55.658 136.163 55.412 136.163 55.1V54.65C135.887 55.13 135.515 55.502 135.047 55.766C134.579 56.018 134.051 56.144 133.463 56.144C131.303 56.144 130.223 54.932 130.223 52.508V48.08C130.223 47.756 130.325 47.498 130.529 47.306C130.733 47.114 131.003 47.018 131.339 47.018C131.687 47.018 131.963 47.114 132.167 47.306C132.371 47.498 132.473 47.756 132.473 48.08V52.526C132.473 53.15 132.599 53.612 132.851 53.912C133.103 54.212 133.499 54.362 134.039 54.362C134.663 54.362 135.161 54.158 135.533 53.75C135.917 53.33 136.109 52.778 136.109 52.094V48.08C136.109 47.756 136.211 47.498 136.415 47.306C136.619 47.114 136.889 47.018 137.225 47.018ZM145.273 54.434C145.873 54.47 146.173 54.74 146.173 55.244C146.173 55.532 146.053 55.754 145.813 55.91C145.585 56.054 145.255 56.114 144.823 56.09L144.337 56.054C142.321 55.91 141.313 54.83 141.313 52.814V48.89H140.413C140.089 48.89 139.837 48.818 139.657 48.674C139.489 48.53 139.405 48.32 139.405 48.044C139.405 47.768 139.489 47.558 139.657 47.414C139.837 47.27 140.089 47.198 140.413 47.198H141.313V45.542C141.313 45.218 141.415 44.96 141.619 44.768C141.823 44.576 142.099 44.48 142.447 44.48C142.783 44.48 143.053 44.576 143.257 44.768C143.461 44.96 143.563 45.218 143.563 45.542V47.198H145.093C145.417 47.198 145.663 47.27 145.831 47.414C146.011 47.558 146.101 47.768 146.101 48.044C146.101 48.32 146.011 48.53 145.831 48.674C145.663 48.818 145.417 48.89 145.093 48.89H143.563V52.976C143.563 53.864 143.971 54.338 144.787 54.398L145.273 54.434ZM151.795 54.434C152.395 54.47 152.695 54.74 152.695 55.244C152.695 55.532 152.575 55.754 152.335 55.91C152.107 56.054 151.777 56.114 151.345 56.09L150.859 56.054C148.843 55.91 147.835 54.83 147.835 52.814V48.89H146.935C146.611 48.89 146.359 48.818 146.179 48.674C146.011 48.53 145.927 48.32 145.927 48.044C145.927 47.768 146.011 47.558 146.179 47.414C146.359 47.27 146.611 47.198 146.935 47.198H147.835V45.542C147.835 45.218 147.937 44.96 148.141 44.768C148.345 44.576 148.621 44.48 148.969 44.48C149.305 44.48 149.575 44.576 149.779 44.768C149.983 44.96 150.085 45.218 150.085 45.542V47.198H151.615C151.939 47.198 152.185 47.27 152.353 47.414C152.533 47.558 152.623 47.768 152.623 48.044C152.623 48.32 152.533 48.53 152.353 48.674C152.185 48.818 151.939 48.89 151.615 48.89H150.085V52.976C150.085 53.864 150.493 54.338 151.309 54.398L151.795 54.434ZM157.881 56.144C156.981 56.144 156.189 55.958 155.505 55.586C154.833 55.214 154.311 54.68 153.939 53.984C153.567 53.288 153.381 52.478 153.381 51.554C153.381 50.63 153.567 49.826 153.939 49.142C154.311 48.446 154.833 47.912 155.505 47.54C156.189 47.168 156.981 46.982 157.881 46.982C158.781 46.982 159.567 47.168 160.239 47.54C160.923 47.912 161.445 48.446 161.805 49.142C162.177 49.826 162.363 50.63 162.363 51.554C162.363 52.478 162.177 53.288 161.805 53.984C161.445 54.68 160.923 55.214 160.239 55.586C159.567 55.958 158.781 56.144 157.881 56.144ZM157.863 54.398C158.595 54.398 159.153 54.158 159.537 53.678C159.921 53.198 160.113 52.49 160.113 51.554C160.113 50.63 159.921 49.928 159.537 49.448C159.153 48.956 158.601 48.71 157.881 48.71C157.161 48.71 156.603 48.956 156.207 49.448C155.823 49.928 155.631 50.63 155.631 51.554C155.631 52.49 155.823 53.198 156.207 53.678C156.591 54.158 157.143 54.398 157.863 54.398ZM169.333 46.982C170.389 46.982 171.175 47.282 171.691 47.882C172.207 48.482 172.465 49.388 172.465 50.6V55.028C172.465 55.364 172.363 55.628 172.159 55.82C171.967 56.012 171.697 56.108 171.349 56.108C171.001 56.108 170.725 56.012 170.521 55.82C170.317 55.628 170.215 55.364 170.215 55.028V50.726C170.215 50.042 170.083 49.544 169.819 49.232C169.567 48.92 169.165 48.764 168.613 48.764C167.965 48.764 167.443 48.968 167.047 49.376C166.663 49.784 166.471 50.33 166.471 51.014V55.028C166.471 55.364 166.369 55.628 166.165 55.82C165.961 56.012 165.685 56.108 165.337 56.108C164.989 56.108 164.713 56.012 164.509 55.82C164.317 55.628 164.221 55.364 164.221 55.028V48.062C164.221 47.75 164.323 47.498 164.527 47.306C164.731 47.114 165.007 47.018 165.355 47.018C165.667 47.018 165.919 47.114 166.111 47.306C166.315 47.486 166.417 47.726 166.417 48.026V48.512C166.717 48.02 167.119 47.642 167.623 47.378C168.127 47.114 168.697 46.982 169.333 46.982Z" fill="#E2E2E2"/>
<defs>
<filter id="filter0_dddd_1372_2645" x="0" y="0" width="232" height="112" filterUnits="userSpaceOnUse" color-interpolation-filters="sRGB">
<feFlood flood-opacity="0" result="BackgroundImageFix"/>
<feColorMatrix in="SourceAlpha" type="matrix" values="0 0 0 0 0 0 0 0 0 0 0 0 0 0 0 0 0 0 127 0" result="hardAlpha"/>
<feOffset dx="-6" dy="-6"/>
<feGaussianBlur stdDeviation="10"/>
<feColorMatrix type="matrix" values="0 0 0 0 0.288437 0 0 0 0 0.306719 0 0 0 0 0.325 0 0 0 0.7 0"/>
<feBlend mode="normal" in2="BackgroundImageFix" result="effect1_dropShadow_1372_2645"/>
<feColorMatrix in="SourceAlpha" type="matrix" values="0 0 0 0 0 0 0 0 0 0 0 0 0 0 0 0 0 0 127 0" result="hardAlpha"/>
<feOffset dx="8" dy="8"/>
<feGaussianBlur stdDeviation="15"/>
<feColorMatrix type="matrix" values="0 0 0 0 0.137465 0 0 0 0 0.145816 0 0 0 0 0.154167 0 0 0 0.9 0"/>
<feBlend mode="normal" in2="effect1_dropShadow_1372_2645" result="effect2_dropShadow_1372_2645"/>
<feColorMatrix in="SourceAlpha" type="matrix" values="0 0 0 0 0 0 0 0 0 0 0 0 0 0 0 0 0 0 127 0" result="hardAlpha"/>
<feOffset dx="2" dy="2"/>
<feGaussianBlur stdDeviation="3"/>
<feColorMatrix type="matrix" values="0 0 0 0 0.137255 0 0 0 0 0.145098 0 0 0 0 0.152941 0 0 0 0.8 0"/>
<feBlend mode="normal" in2="effect2_dropShadow_1372_2645" result="effect3_dropShadow_1372_2645"/>
<feColorMatrix in="SourceAlpha" type="matrix" values="0 0 0 0 0 0 0 0 0 0 0 0 0 0 0 0 0 0 127 0" result="hardAlpha"/>
<feOffset dx="-2" dy="-2"/>
<feGaussianBlur stdDeviation="2"/>
<feColorMatrix type="matrix" values="0 0 0 0 0.290196 0 0 0 0 0.305882 0 0 0 0 0.32549 0 0 0 0.5 0"/>
<feBlend mode="normal" in2="effect3_dropShadow_1372_2645" result="effect4_dropShadow_1372_2645"/>
<feBlend mode="normal" in="SourceGraphic" in2="effect4_dropShadow_1372_2645" result="shape"/>
</filter>
<linearGradient id="paint0_linear_1372_2645" x1="33.1489" y1="40.8404" x2="195.027" y2="68.4583" gradientUnits="userSpaceOnUse">
<stop stop-color="#57CBA1"/>
<stop offset="1" stop-color="#17868B"/>
</linearGradient>
</defs>
</svg>
