<svg width="432" height="119" viewBox="0 0 432 119" fill="none" xmlns="http://www.w3.org/2000/svg">
<g filter="url(#filter0_ii_1386_2553)">
<rect width="53.672" height="391.734" rx="26.836" transform="matrix(-0.00743349 -0.999972 0.999988 -0.00481189 0.398926 81.5547)" fill="#2D3135"/>
</g>
<g filter="url(#filter1_dddd_1386_2553)">
<rect width="53.5597" height="194.445" rx="26.7799" transform="matrix(-0.00743347 -0.999972 0.999988 -0.0048119 199.398 80.5547)" fill="url(#paint0_linear_1386_2553)"/>
<rect x="0.496277" y="-0.502392" width="52.5597" height="193.445" rx="26.2799" transform="matrix(-0.00743347 -0.999972 0.999988 -0.0048119 200.4 80.5461)" stroke="url(#paint1_linear_1386_2553)"/>
</g>
<path d="M264.188 57.1687C264.26 57.3247 264.296 57.4807 264.296 57.6367C264.296 57.9127 264.182 58.1467 263.954 58.3387C263.738 58.5307 263.486 58.6267 263.198 58.6267C263.006 58.6267 262.826 58.5787 262.658 58.4827C262.49 58.3747 262.358 58.2127 262.262 57.9967L261.182 55.5847H254.846L253.766 57.9967C253.67 58.2127 253.538 58.3747 253.37 58.4827C253.202 58.5787 253.016 58.6267 252.812 58.6267C252.536 58.6267 252.284 58.5307 252.056 58.3387C251.828 58.1467 251.714 57.9127 251.714 57.6367C251.714 57.4807 251.75 57.3247 251.822 57.1687L256.79 46.4947C256.898 46.2547 257.06 46.0747 257.276 45.9547C257.504 45.8227 257.744 45.7567 257.996 45.7567C258.248 45.7567 258.482 45.8227 258.698 45.9547C258.926 46.0747 259.094 46.2547 259.202 46.4947L264.188 57.1687ZM255.638 53.7847H260.39L258.014 48.4387L255.638 53.7847ZM269.753 58.6987C268.877 58.6987 268.103 58.5127 267.431 58.1407C266.771 57.7687 266.261 57.2407 265.901 56.5567C265.541 55.8727 265.361 55.0747 265.361 54.1627C265.361 53.2507 265.547 52.4467 265.919 51.7507C266.303 51.0427 266.837 50.4967 267.521 50.1127C268.205 49.7287 268.991 49.5367 269.879 49.5367C270.347 49.5367 270.815 49.6027 271.283 49.7347C271.763 49.8667 272.183 50.0467 272.543 50.2747C272.927 50.5267 273.119 50.8447 273.119 51.2287C273.119 51.4927 273.053 51.7087 272.921 51.8767C272.801 52.0327 272.639 52.1107 272.435 52.1107C272.303 52.1107 272.165 52.0807 272.021 52.0207C271.877 51.9607 271.733 51.8887 271.589 51.8047C271.325 51.6487 271.073 51.5287 270.833 51.4447C270.593 51.3487 270.317 51.3007 270.005 51.3007C269.261 51.3007 268.685 51.5467 268.277 52.0387C267.881 52.5187 267.683 53.2147 267.683 54.1267C267.683 55.0267 267.881 55.7227 268.277 56.2147C268.685 56.6947 269.261 56.9347 270.005 56.9347C270.305 56.9347 270.569 56.8927 270.797 56.8087C271.037 56.7127 271.301 56.5867 271.589 56.4307C271.769 56.3227 271.925 56.2447 272.057 56.1967C272.189 56.1367 272.321 56.1067 272.453 56.1067C272.645 56.1067 272.807 56.1907 272.939 56.3587C273.071 56.5267 273.137 56.7367 273.137 56.9887C273.137 57.1927 273.089 57.3727 272.993 57.5287C272.909 57.6727 272.765 57.8047 272.561 57.9247C272.189 58.1647 271.757 58.3567 271.265 58.5007C270.773 58.6327 270.269 58.6987 269.753 58.6987ZM279.261 56.9887C279.861 57.0247 280.161 57.2947 280.161 57.7987C280.161 58.0867 280.041 58.3087 279.801 58.4647C279.573 58.6087 279.243 58.6687 278.811 58.6447L278.325 58.6087C276.309 58.4647 275.301 57.3847 275.301 55.3687V51.4447H274.401C274.077 51.4447 273.825 51.3727 273.645 51.2287C273.477 51.0847 273.393 50.8747 273.393 50.5987C273.393 50.3227 273.477 50.1127 273.645 49.9687C273.825 49.8247 274.077 49.7527 274.401 49.7527H275.301V48.0967C275.301 47.7727 275.403 47.5147 275.607 47.3227C275.811 47.1307 276.087 47.0347 276.435 47.0347C276.771 47.0347 277.041 47.1307 277.245 47.3227C277.449 47.5147 277.551 47.7727 277.551 48.0967V49.7527H279.081C279.405 49.7527 279.651 49.8247 279.819 49.9687C279.999 50.1127 280.089 50.3227 280.089 50.5987C280.089 50.8747 279.999 51.0847 279.819 51.2287C279.651 51.3727 279.405 51.4447 279.081 51.4447H277.551V55.5307C277.551 56.4187 277.959 56.8927 278.775 56.9527L279.261 56.9887ZM282.45 58.6627C282.126 58.6627 281.856 58.5727 281.64 58.3927C281.436 58.2007 281.334 57.9307 281.334 57.5827V50.6347C281.334 50.2867 281.436 50.0227 281.64 49.8427C281.856 49.6627 282.126 49.5727 282.45 49.5727C282.774 49.5727 283.044 49.6627 283.26 49.8427C283.476 50.0227 283.584 50.2867 283.584 50.6347V57.5827C283.584 57.9307 283.476 58.2007 283.26 58.3927C283.044 58.5727 282.774 58.6627 282.45 58.6627ZM282.45 47.9707C282.042 47.9707 281.718 47.8627 281.478 47.6467C281.238 47.4187 281.118 47.1247 281.118 46.7647C281.118 46.4047 281.238 46.1167 281.478 45.9007C281.718 45.6847 282.042 45.5767 282.45 45.5767C282.846 45.5767 283.164 45.6847 283.404 45.9007C283.656 46.1167 283.782 46.4047 283.782 46.7647C283.782 47.1247 283.662 47.4187 283.422 47.6467C283.182 47.8627 282.858 47.9707 282.45 47.9707ZM292.042 50.2207C292.138 50.0047 292.264 49.8427 292.42 49.7347C292.588 49.6267 292.768 49.5727 292.96 49.5727C293.236 49.5727 293.482 49.6687 293.698 49.8607C293.926 50.0407 294.04 50.2687 294.04 50.5447C294.04 50.6887 294.004 50.8327 293.932 50.9767L290.602 57.9427C290.494 58.1707 290.338 58.3447 290.134 58.4647C289.942 58.5847 289.726 58.6447 289.486 58.6447C289.258 58.6447 289.036 58.5847 288.82 58.4647C288.616 58.3447 288.46 58.1707 288.352 57.9427L285.004 50.9767C284.944 50.8567 284.914 50.7187 284.914 50.5627C284.914 50.2867 285.028 50.0527 285.256 49.8607C285.496 49.6687 285.766 49.5727 286.066 49.5727C286.498 49.5727 286.816 49.7827 287.02 50.2027L289.54 55.7647L292.042 50.2207ZM302.204 56.1427C302.408 56.1427 302.57 56.2207 302.69 56.3767C302.822 56.5327 302.888 56.7427 302.888 57.0067C302.888 57.3787 302.666 57.6907 302.222 57.9427C301.814 58.1707 301.352 58.3567 300.836 58.5007C300.32 58.6327 299.828 58.6987 299.36 58.6987C297.944 58.6987 296.822 58.2907 295.994 57.4747C295.166 56.6587 294.752 55.5427 294.752 54.1267C294.752 53.2267 294.932 52.4287 295.292 51.7327C295.652 51.0367 296.156 50.4967 296.804 50.1127C297.464 49.7287 298.208 49.5367 299.036 49.5367C299.828 49.5367 300.518 49.7107 301.106 50.0587C301.694 50.4067 302.15 50.8987 302.474 51.5347C302.798 52.1707 302.96 52.9207 302.96 53.7847C302.96 54.3007 302.732 54.5587 302.276 54.5587H296.966C297.038 55.3867 297.272 55.9987 297.668 56.3947C298.064 56.7787 298.64 56.9707 299.396 56.9707C299.78 56.9707 300.116 56.9227 300.404 56.8267C300.704 56.7307 301.04 56.5987 301.412 56.4307C301.772 56.2387 302.036 56.1427 302.204 56.1427ZM299.09 51.1207C298.478 51.1207 297.986 51.3127 297.614 51.6967C297.254 52.0807 297.038 52.6327 296.966 53.3527H301.034C301.01 52.6207 300.83 52.0687 300.494 51.6967C300.158 51.3127 299.69 51.1207 299.09 51.1207ZM314.043 58.6447C313.683 58.6447 313.395 58.5427 313.179 58.3387C312.975 58.1227 312.873 57.8407 312.873 57.4927V47.7727H309.597C308.877 47.7727 308.517 47.4547 308.517 46.8187C308.517 46.1827 308.877 45.8647 309.597 45.8647H318.471C319.191 45.8647 319.551 46.1827 319.551 46.8187C319.551 47.4547 319.191 47.7727 318.471 47.7727H315.195V57.4927C315.195 57.8407 315.087 58.1227 314.871 58.3387C314.667 58.5427 314.391 58.6447 314.043 58.6447ZM323.136 49.5367C324.36 49.5367 325.266 49.8427 325.854 50.4547C326.454 51.0547 326.754 51.9727 326.754 53.2087V57.6007C326.754 57.9247 326.658 58.1827 326.466 58.3747C326.274 58.5547 326.01 58.6447 325.674 58.6447C325.362 58.6447 325.104 58.5487 324.9 58.3567C324.708 58.1647 324.612 57.9127 324.612 57.6007V57.2047C324.408 57.6727 324.084 58.0387 323.64 58.3027C323.208 58.5667 322.704 58.6987 322.128 58.6987C321.54 58.6987 321.006 58.5787 320.526 58.3387C320.046 58.0987 319.668 57.7687 319.392 57.3487C319.116 56.9287 318.978 56.4607 318.978 55.9447C318.978 55.2967 319.14 54.7867 319.464 54.4147C319.8 54.0427 320.34 53.7727 321.084 53.6047C321.828 53.4367 322.854 53.3527 324.162 53.3527H324.612V52.9387C324.612 52.3507 324.486 51.9247 324.234 51.6607C323.982 51.3847 323.574 51.2467 323.01 51.2467C322.662 51.2467 322.308 51.3007 321.948 51.4087C321.588 51.5047 321.162 51.6487 320.67 51.8407C320.358 51.9967 320.13 52.0747 319.986 52.0747C319.77 52.0747 319.59 51.9967 319.446 51.8407C319.314 51.6847 319.248 51.4807 319.248 51.2287C319.248 51.0247 319.296 50.8507 319.392 50.7067C319.5 50.5507 319.674 50.4067 319.914 50.2747C320.334 50.0467 320.832 49.8667 321.408 49.7347C321.996 49.6027 322.572 49.5367 323.136 49.5367ZM322.578 57.0787C323.178 57.0787 323.664 56.8807 324.036 56.4847C324.42 56.0767 324.612 55.5547 324.612 54.9187V54.5407H324.288C323.484 54.5407 322.86 54.5767 322.416 54.6487C321.972 54.7207 321.654 54.8467 321.462 55.0267C321.27 55.2067 321.174 55.4527 321.174 55.7647C321.174 56.1487 321.306 56.4667 321.57 56.7187C321.846 56.9587 322.182 57.0787 322.578 57.0787ZM334.099 49.5367C334.867 49.5367 335.545 49.7227 336.133 50.0947C336.721 50.4667 337.177 50.9947 337.501 51.6787C337.837 52.3627 338.005 53.1607 338.005 54.0727C338.005 54.9847 337.837 55.7947 337.501 56.5027C337.177 57.1987 336.715 57.7387 336.115 58.1227C335.527 58.5067 334.855 58.6987 334.099 58.6987C333.463 58.6987 332.893 58.5607 332.389 58.2847C331.897 58.0087 331.519 57.6247 331.255 57.1327V57.5827C331.255 57.9067 331.153 58.1647 330.949 58.3567C330.745 58.5487 330.475 58.6447 330.139 58.6447C329.803 58.6447 329.533 58.5487 329.329 58.3567C329.137 58.1647 329.041 57.9067 329.041 57.5827V46.8187C329.041 46.5067 329.143 46.2547 329.347 46.0627C329.563 45.8707 329.839 45.7747 330.175 45.7747C330.511 45.7747 330.781 45.8647 330.985 46.0447C331.189 46.2247 331.291 46.4707 331.291 46.7827V51.0307C331.555 50.5507 331.933 50.1847 332.425 49.9327C332.917 49.6687 333.475 49.5367 334.099 49.5367ZM333.505 56.9527C334.213 56.9527 334.765 56.7007 335.161 56.1967C335.557 55.6927 335.755 54.9847 335.755 54.0727C335.755 53.1727 335.557 52.4827 335.161 52.0027C334.777 51.5227 334.225 51.2827 333.505 51.2827C332.785 51.2827 332.227 51.5287 331.831 52.0207C331.447 52.5007 331.255 53.1967 331.255 54.1087C331.255 55.0207 331.447 55.7227 331.831 56.2147C332.227 56.7067 332.785 56.9527 333.505 56.9527Z" fill="white" fill-opacity="0.79"/>
<path d="M60.8613 58.6627C60.5133 58.6627 60.2313 58.5547 60.0153 58.3387C59.8113 58.1227 59.7093 57.8407 59.7093 57.4927V46.9267C59.7093 46.5787 59.8113 46.3027 60.0153 46.0987C60.2313 45.8827 60.5133 45.7747 60.8613 45.7747C61.2213 45.7747 61.5033 45.8827 61.7073 46.0987C61.9233 46.3027 62.0313 46.5787 62.0313 46.9267V57.4927C62.0313 57.8407 61.9233 58.1227 61.7073 58.3387C61.5033 58.5547 61.2213 58.6627 60.8613 58.6627ZM69.6858 49.5367C70.7418 49.5367 71.5278 49.8367 72.0438 50.4367C72.5598 51.0367 72.8178 51.9427 72.8178 53.1547V57.5827C72.8178 57.9187 72.7158 58.1827 72.5118 58.3747C72.3198 58.5667 72.0498 58.6627 71.7018 58.6627C71.3538 58.6627 71.0778 58.5667 70.8738 58.3747C70.6698 58.1827 70.5678 57.9187 70.5678 57.5827V53.2807C70.5678 52.5967 70.4358 52.0987 70.1718 51.7867C69.9198 51.4747 69.5178 51.3187 68.9658 51.3187C68.3178 51.3187 67.7958 51.5227 67.3998 51.9307C67.0158 52.3387 66.8238 52.8847 66.8238 53.5687V57.5827C66.8238 57.9187 66.7218 58.1827 66.5178 58.3747C66.3138 58.5667 66.0378 58.6627 65.6898 58.6627C65.3418 58.6627 65.0658 58.5667 64.8618 58.3747C64.6698 58.1827 64.5738 57.9187 64.5738 57.5827V50.6167C64.5738 50.3047 64.6758 50.0527 64.8798 49.8607C65.0838 49.6687 65.3598 49.5727 65.7078 49.5727C66.0198 49.5727 66.2718 49.6687 66.4638 49.8607C66.6678 50.0407 66.7698 50.2807 66.7698 50.5807V51.0667C67.0698 50.5747 67.4718 50.1967 67.9758 49.9327C68.4798 49.6687 69.0498 49.5367 69.6858 49.5367ZM78.9191 49.5367C80.1431 49.5367 81.0491 49.8427 81.6371 50.4547C82.2371 51.0547 82.5371 51.9727 82.5371 53.2087V57.6007C82.5371 57.9247 82.4411 58.1827 82.2491 58.3747C82.0571 58.5547 81.7931 58.6447 81.4571 58.6447C81.1451 58.6447 80.8871 58.5487 80.6831 58.3567C80.4911 58.1647 80.3951 57.9127 80.3951 57.6007V57.2047C80.1911 57.6727 79.8671 58.0387 79.4231 58.3027C78.9911 58.5667 78.4871 58.6987 77.9111 58.6987C77.3231 58.6987 76.7891 58.5787 76.3091 58.3387C75.8291 58.0987 75.4511 57.7687 75.1751 57.3487C74.8991 56.9287 74.7611 56.4607 74.7611 55.9447C74.7611 55.2967 74.9231 54.7867 75.2471 54.4147C75.5831 54.0427 76.1231 53.7727 76.8671 53.6047C77.6111 53.4367 78.6371 53.3527 79.9451 53.3527H80.3951V52.9387C80.3951 52.3507 80.2691 51.9247 80.0171 51.6607C79.7651 51.3847 79.3571 51.2467 78.7931 51.2467C78.4451 51.2467 78.0911 51.3007 77.7311 51.4087C77.3711 51.5047 76.9451 51.6487 76.4531 51.8407C76.1411 51.9967 75.9131 52.0747 75.7691 52.0747C75.5531 52.0747 75.3731 51.9967 75.2291 51.8407C75.0971 51.6847 75.0311 51.4807 75.0311 51.2287C75.0311 51.0247 75.0791 50.8507 75.1751 50.7067C75.2831 50.5507 75.4571 50.4067 75.6971 50.2747C76.1171 50.0467 76.6151 49.8667 77.1911 49.7347C77.7791 49.6027 78.3551 49.5367 78.9191 49.5367ZM78.3611 57.0787C78.9611 57.0787 79.4471 56.8807 79.8191 56.4847C80.2031 56.0767 80.3951 55.5547 80.3951 54.9187V54.5407H80.0711C79.2671 54.5407 78.6431 54.5767 78.1991 54.6487C77.7551 54.7207 77.4371 54.8467 77.2451 55.0267C77.0531 55.2067 76.9571 55.4527 76.9571 55.7647C76.9571 56.1487 77.0891 56.4667 77.3531 56.7187C77.6291 56.9587 77.9651 57.0787 78.3611 57.0787ZM88.7298 58.6987C87.8538 58.6987 87.0798 58.5127 86.4078 58.1407C85.7478 57.7687 85.2378 57.2407 84.8778 56.5567C84.5178 55.8727 84.3378 55.0747 84.3378 54.1627C84.3378 53.2507 84.5238 52.4467 84.8958 51.7507C85.2798 51.0427 85.8138 50.4967 86.4978 50.1127C87.1818 49.7287 87.9678 49.5367 88.8558 49.5367C89.3238 49.5367 89.7918 49.6027 90.2598 49.7347C90.7398 49.8667 91.1598 50.0467 91.5198 50.2747C91.9038 50.5267 92.0958 50.8447 92.0958 51.2287C92.0958 51.4927 92.0298 51.7087 91.8978 51.8767C91.7778 52.0327 91.6158 52.1107 91.4118 52.1107C91.2798 52.1107 91.1418 52.0807 90.9978 52.0207C90.8538 51.9607 90.7098 51.8887 90.5658 51.8047C90.3018 51.6487 90.0498 51.5287 89.8098 51.4447C89.5698 51.3487 89.2938 51.3007 88.9818 51.3007C88.2378 51.3007 87.6618 51.5467 87.2538 52.0387C86.8578 52.5187 86.6598 53.2147 86.6598 54.1267C86.6598 55.0267 86.8578 55.7227 87.2538 56.2147C87.6618 56.6947 88.2378 56.9347 88.9818 56.9347C89.2818 56.9347 89.5458 56.8927 89.7738 56.8087C90.0138 56.7127 90.2778 56.5867 90.5658 56.4307C90.7458 56.3227 90.9018 56.2447 91.0338 56.1967C91.1658 56.1367 91.2978 56.1067 91.4298 56.1067C91.6218 56.1067 91.7838 56.1907 91.9158 56.3587C92.0478 56.5267 92.1138 56.7367 92.1138 56.9887C92.1138 57.1927 92.0658 57.3727 91.9698 57.5287C91.8858 57.6727 91.7418 57.8047 91.5378 57.9247C91.1658 58.1647 90.7338 58.3567 90.2418 58.5007C89.7498 58.6327 89.2458 58.6987 88.7298 58.6987ZM98.2376 56.9887C98.8376 57.0247 99.1376 57.2947 99.1376 57.7987C99.1376 58.0867 99.0176 58.3087 98.7776 58.4647C98.5496 58.6087 98.2196 58.6687 97.7876 58.6447L97.3016 58.6087C95.2856 58.4647 94.2776 57.3847 94.2776 55.3687V51.4447H93.3776C93.0536 51.4447 92.8016 51.3727 92.6216 51.2287C92.4536 51.0847 92.3696 50.8747 92.3696 50.5987C92.3696 50.3227 92.4536 50.1127 92.6216 49.9687C92.8016 49.8247 93.0536 49.7527 93.3776 49.7527H94.2776V48.0967C94.2776 47.7727 94.3796 47.5147 94.5836 47.3227C94.7876 47.1307 95.0636 47.0347 95.4116 47.0347C95.7476 47.0347 96.0176 47.1307 96.2216 47.3227C96.4256 47.5147 96.5276 47.7727 96.5276 48.0967V49.7527H98.0576C98.3816 49.7527 98.6276 49.8247 98.7956 49.9687C98.9756 50.1127 99.0656 50.3227 99.0656 50.5987C99.0656 50.8747 98.9756 51.0847 98.7956 51.2287C98.6276 51.3727 98.3816 51.4447 98.0576 51.4447H96.5276V55.5307C96.5276 56.4187 96.9356 56.8927 97.7516 56.9527L98.2376 56.9887ZM101.426 58.6627C101.102 58.6627 100.832 58.5727 100.616 58.3927C100.412 58.2007 100.31 57.9307 100.31 57.5827V50.6347C100.31 50.2867 100.412 50.0227 100.616 49.8427C100.832 49.6627 101.102 49.5727 101.426 49.5727C101.75 49.5727 102.02 49.6627 102.236 49.8427C102.452 50.0227 102.56 50.2867 102.56 50.6347V57.5827C102.56 57.9307 102.452 58.2007 102.236 58.3927C102.02 58.5727 101.75 58.6627 101.426 58.6627ZM101.426 47.9707C101.018 47.9707 100.694 47.8627 100.454 47.6467C100.214 47.4187 100.094 47.1247 100.094 46.7647C100.094 46.4047 100.214 46.1167 100.454 45.9007C100.694 45.6847 101.018 45.5767 101.426 45.5767C101.822 45.5767 102.14 45.6847 102.38 45.9007C102.632 46.1167 102.758 46.4047 102.758 46.7647C102.758 47.1247 102.638 47.4187 102.398 47.6467C102.158 47.8627 101.834 47.9707 101.426 47.9707ZM111.018 50.2207C111.114 50.0047 111.24 49.8427 111.396 49.7347C111.564 49.6267 111.744 49.5727 111.936 49.5727C112.212 49.5727 112.458 49.6687 112.674 49.8607C112.902 50.0407 113.016 50.2687 113.016 50.5447C113.016 50.6887 112.98 50.8327 112.908 50.9767L109.578 57.9427C109.47 58.1707 109.314 58.3447 109.11 58.4647C108.918 58.5847 108.702 58.6447 108.462 58.6447C108.234 58.6447 108.012 58.5847 107.796 58.4647C107.592 58.3447 107.436 58.1707 107.328 57.9427L103.98 50.9767C103.92 50.8567 103.89 50.7187 103.89 50.5627C103.89 50.2867 104.004 50.0527 104.232 49.8607C104.472 49.6687 104.742 49.5727 105.042 49.5727C105.474 49.5727 105.792 49.7827 105.996 50.2027L108.516 55.7647L111.018 50.2207ZM121.18 56.1427C121.384 56.1427 121.546 56.2207 121.666 56.3767C121.798 56.5327 121.864 56.7427 121.864 57.0067C121.864 57.3787 121.642 57.6907 121.198 57.9427C120.79 58.1707 120.328 58.3567 119.812 58.5007C119.296 58.6327 118.804 58.6987 118.336 58.6987C116.92 58.6987 115.798 58.2907 114.97 57.4747C114.142 56.6587 113.728 55.5427 113.728 54.1267C113.728 53.2267 113.908 52.4287 114.268 51.7327C114.628 51.0367 115.132 50.4967 115.78 50.1127C116.44 49.7287 117.184 49.5367 118.012 49.5367C118.804 49.5367 119.494 49.7107 120.082 50.0587C120.67 50.4067 121.126 50.8987 121.45 51.5347C121.774 52.1707 121.936 52.9207 121.936 53.7847C121.936 54.3007 121.708 54.5587 121.252 54.5587H115.942C116.014 55.3867 116.248 55.9987 116.644 56.3947C117.04 56.7787 117.616 56.9707 118.372 56.9707C118.756 56.9707 119.092 56.9227 119.38 56.8267C119.68 56.7307 120.016 56.5987 120.388 56.4307C120.748 56.2387 121.012 56.1427 121.18 56.1427ZM118.066 51.1207C117.454 51.1207 116.962 51.3127 116.59 51.6967C116.23 52.0807 116.014 52.6327 115.942 53.3527H120.01C119.986 52.6207 119.806 52.0687 119.47 51.6967C119.134 51.3127 118.666 51.1207 118.066 51.1207ZM133.02 58.6447C132.66 58.6447 132.372 58.5427 132.156 58.3387C131.952 58.1227 131.85 57.8407 131.85 57.4927V47.7727H128.574C127.854 47.7727 127.494 47.4547 127.494 46.8187C127.494 46.1827 127.854 45.8647 128.574 45.8647H137.448C138.168 45.8647 138.528 46.1827 138.528 46.8187C138.528 47.4547 138.168 47.7727 137.448 47.7727H134.172V57.4927C134.172 57.8407 134.064 58.1227 133.848 58.3387C133.644 58.5427 133.368 58.6447 133.02 58.6447ZM142.112 49.5367C143.336 49.5367 144.242 49.8427 144.83 50.4547C145.43 51.0547 145.73 51.9727 145.73 53.2087V57.6007C145.73 57.9247 145.634 58.1827 145.442 58.3747C145.25 58.5547 144.986 58.6447 144.65 58.6447C144.338 58.6447 144.08 58.5487 143.876 58.3567C143.684 58.1647 143.588 57.9127 143.588 57.6007V57.2047C143.384 57.6727 143.06 58.0387 142.616 58.3027C142.184 58.5667 141.68 58.6987 141.104 58.6987C140.516 58.6987 139.982 58.5787 139.502 58.3387C139.022 58.0987 138.644 57.7687 138.368 57.3487C138.092 56.9287 137.954 56.4607 137.954 55.9447C137.954 55.2967 138.116 54.7867 138.44 54.4147C138.776 54.0427 139.316 53.7727 140.06 53.6047C140.804 53.4367 141.83 53.3527 143.138 53.3527H143.588V52.9387C143.588 52.3507 143.462 51.9247 143.21 51.6607C142.958 51.3847 142.55 51.2467 141.986 51.2467C141.638 51.2467 141.284 51.3007 140.924 51.4087C140.564 51.5047 140.138 51.6487 139.646 51.8407C139.334 51.9967 139.106 52.0747 138.962 52.0747C138.746 52.0747 138.566 51.9967 138.422 51.8407C138.29 51.6847 138.224 51.4807 138.224 51.2287C138.224 51.0247 138.272 50.8507 138.368 50.7067C138.476 50.5507 138.65 50.4067 138.89 50.2747C139.31 50.0467 139.808 49.8667 140.384 49.7347C140.972 49.6027 141.548 49.5367 142.112 49.5367ZM141.554 57.0787C142.154 57.0787 142.64 56.8807 143.012 56.4847C143.396 56.0767 143.588 55.5547 143.588 54.9187V54.5407H143.264C142.46 54.5407 141.836 54.5767 141.392 54.6487C140.948 54.7207 140.63 54.8467 140.438 55.0267C140.246 55.2067 140.15 55.4527 140.15 55.7647C140.15 56.1487 140.282 56.4667 140.546 56.7187C140.822 56.9587 141.158 57.0787 141.554 57.0787ZM153.075 49.5367C153.843 49.5367 154.521 49.7227 155.109 50.0947C155.697 50.4667 156.153 50.9947 156.477 51.6787C156.813 52.3627 156.981 53.1607 156.981 54.0727C156.981 54.9847 156.813 55.7947 156.477 56.5027C156.153 57.1987 155.691 57.7387 155.091 58.1227C154.503 58.5067 153.831 58.6987 153.075 58.6987C152.439 58.6987 151.869 58.5607 151.365 58.2847C150.873 58.0087 150.495 57.6247 150.231 57.1327V57.5827C150.231 57.9067 150.129 58.1647 149.925 58.3567C149.721 58.5487 149.451 58.6447 149.115 58.6447C148.779 58.6447 148.509 58.5487 148.305 58.3567C148.113 58.1647 148.017 57.9067 148.017 57.5827V46.8187C148.017 46.5067 148.119 46.2547 148.323 46.0627C148.539 45.8707 148.815 45.7747 149.151 45.7747C149.487 45.7747 149.757 45.8647 149.961 46.0447C150.165 46.2247 150.267 46.4707 150.267 46.7827V51.0307C150.531 50.5507 150.909 50.1847 151.401 49.9327C151.893 49.6687 152.451 49.5367 153.075 49.5367ZM152.481 56.9527C153.189 56.9527 153.741 56.7007 154.137 56.1967C154.533 55.6927 154.731 54.9847 154.731 54.0727C154.731 53.1727 154.533 52.4827 154.137 52.0027C153.753 51.5227 153.201 51.2827 152.481 51.2827C151.761 51.2827 151.203 51.5287 150.807 52.0207C150.423 52.5007 150.231 53.1967 150.231 54.1087C150.231 55.0207 150.423 55.7227 150.807 56.2147C151.203 56.7067 151.761 56.9527 152.481 56.9527Z" fill="white" fill-opacity="0.2"/>
<defs>
<filter id="filter0_ii_1386_2553" x="-1.80127" y="24.1289" width="395.731" height="59.2969" filterUnits="userSpaceOnUse" color-interpolation-filters="sRGB">
<feFlood flood-opacity="0" result="BackgroundImageFix"/>
<feBlend mode="normal" in="SourceGraphic" in2="BackgroundImageFix" result="shape"/>
<feColorMatrix in="SourceAlpha" type="matrix" values="0 0 0 0 0 0 0 0 0 0 0 0 0 0 0 0 0 0 127 0" result="hardAlpha"/>
<feOffset dx="2" dy="2"/>
<feGaussianBlur stdDeviation="3"/>
<feComposite in2="hardAlpha" operator="arithmetic" k2="-1" k3="1"/>
<feColorMatrix type="matrix" values="0 0 0 0 0.137255 0 0 0 0 0.145098 0 0 0 0 0.152941 0 0 0 0.8 0"/>
<feBlend mode="normal" in2="shape" result="effect1_innerShadow_1386_2553"/>
<feColorMatrix in="SourceAlpha" type="matrix" values="0 0 0 0 0 0 0 0 0 0 0 0 0 0 0 0 0 0 127 0" result="hardAlpha"/>
<feOffset dx="-2" dy="-2"/>
<feGaussianBlur stdDeviation="2"/>
<feComposite in2="hardAlpha" operator="arithmetic" k2="-1" k3="1"/>
<feColorMatrix type="matrix" values="0 0 0 0 0.290196 0 0 0 0 0.305882 0 0 0 0 0.32549 0 0 0 0.5 0"/>
<feBlend mode="normal" in2="effect1_innerShadow_1386_2553" result="effect2_innerShadow_1386_2553"/>
</filter>
<filter id="filter1_dddd_1386_2553" x="173.198" y="0.189453" width="258.444" height="118.236" filterUnits="userSpaceOnUse" color-interpolation-filters="sRGB">
<feFlood flood-opacity="0" result="BackgroundImageFix"/>
<feColorMatrix in="SourceAlpha" type="matrix" values="0 0 0 0 0 0 0 0 0 0 0 0 0 0 0 0 0 0 127 0" result="hardAlpha"/>
<feOffset dx="-6" dy="-6"/>
<feGaussianBlur stdDeviation="10"/>
<feColorMatrix type="matrix" values="0 0 0 0 0.288437 0 0 0 0 0.306719 0 0 0 0 0.325 0 0 0 0.7 0"/>
<feBlend mode="normal" in2="BackgroundImageFix" result="effect1_dropShadow_1386_2553"/>
<feColorMatrix in="SourceAlpha" type="matrix" values="0 0 0 0 0 0 0 0 0 0 0 0 0 0 0 0 0 0 127 0" result="hardAlpha"/>
<feOffset dx="8" dy="8"/>
<feGaussianBlur stdDeviation="15"/>
<feColorMatrix type="matrix" values="0 0 0 0 0.137465 0 0 0 0 0.145816 0 0 0 0 0.154167 0 0 0 0.9 0"/>
<feBlend mode="normal" in2="effect1_dropShadow_1386_2553" result="effect2_dropShadow_1386_2553"/>
<feColorMatrix in="SourceAlpha" type="matrix" values="0 0 0 0 0 0 0 0 0 0 0 0 0 0 0 0 0 0 127 0" result="hardAlpha"/>
<feOffset dx="2" dy="2"/>
<feGaussianBlur stdDeviation="3"/>
<feColorMatrix type="matrix" values="0 0 0 0 0.137255 0 0 0 0 0.145098 0 0 0 0 0.152941 0 0 0 0.8 0"/>
<feBlend mode="normal" in2="effect2_dropShadow_1386_2553" result="effect3_dropShadow_1386_2553"/>
<feColorMatrix in="SourceAlpha" type="matrix" values="0 0 0 0 0 0 0 0 0 0 0 0 0 0 0 0 0 0 127 0" result="hardAlpha"/>
<feOffset dx="-2" dy="-2"/>
<feGaussianBlur stdDeviation="2"/>
<feColorMatrix type="matrix" values="0 0 0 0 0.290196 0 0 0 0 0.305882 0 0 0 0 0.32549 0 0 0 0.5 0"/>
<feBlend mode="normal" in2="effect3_dropShadow_1386_2553" result="effect4_dropShadow_1386_2553"/>
<feBlend mode="normal" in="SourceGraphic" in2="effect4_dropShadow_1386_2553" result="shape"/>
</filter>
<linearGradient id="paint0_linear_1386_2553" x1="43.2304" y1="171.528" x2="-31.8031" y2="145.357" gradientUnits="userSpaceOnUse">
<stop offset="0.130754" stop-color="#2D3135"/>
<stop offset="0.827958" stop-color="#35393E"/>
</linearGradient>
<linearGradient id="paint1_linear_1386_2553" x1="26.7799" y1="0" x2="26.7799" y2="194.445" gradientUnits="userSpaceOnUse">
<stop stop-color="#F8677F"/>
<stop offset="1" stop-color="#9FA6D7"/>
</linearGradient>
</defs>
</svg>
