<svg width="360" height="1377" viewBox="0 0 360 1377" fill="none" xmlns="http://www.w3.org/2000/svg">
<mask id="mask0_939_2071" style="mask-type:alpha" maskUnits="userSpaceOnUse" x="0" y="0" width="363" height="1377">
<rect width="363" height="1377" fill="#C4C4C4"/>
</mask>
<g mask="url(#mask0_939_2071)">
</g>
<g clip-path="url(#clip0_939_2071)">
<path d="M795.035 206.832C797.777 221.986 738.629 218.426 729.908 219.452C722.621 220.328 717.155 224.596 709.39 224.354C697.203 223.981 694.285 220.738 683.478 227.169C668.213 236.246 650.136 241.242 636.108 252.109C629.581 257.161 622.4 262.044 618.668 269.891C615.342 276.845 614.812 284.542 610.602 291.159C602.094 304.561 586.405 306.351 574.696 315.726C561.253 326.5 534.013 343.425 532.245 360.816C530.83 374.908 531.219 383.184 523.701 395.782C512.947 413.938 494.408 422.083 477.058 431.72C457.212 442.754 435.704 447.34 413.24 450.564C399.797 452.428 398.064 455.206 393.323 468.403C388.335 482.252 380.783 496.94 368.012 504.75C356.409 511.854 341.781 510.548 329.222 514.797C318.238 518.525 309.27 524.527 299.772 531.237C289.92 538.191 286.117 546.56 277.98 554.426C267.368 564.677 254.154 563.988 241.242 566.057C230.435 567.772 221.379 570.885 210.147 570.866C191.645 570.866 177.902 577.595 160.621 583.243C138.316 590.55 94.7509 599.31 79.8755 572.898C74.6928 563.727 78.5134 547.92 69.8992 541.601C61.0552 535.04 33.3027 538.936 22.8138 538.88C7.63738 538.88 -10.917 536.084 -25.492 541.431C-30.4448 543.295 -34.336 547.172 -39.43 548.607C-44.524 550.043 -50.892 546.296 -54.8528 547.583C-59.6283 549.111 -57.2939 550.957 -60.461 554.61C-62.2296 556.716 -62.6543 558.878 -64.7413 560.78C-66.2976 562.234 -69.2871 560.053 -70.2425 560.91C-75.018 565.216 -76.5573 569.354 -82.7654 572.187C-87.0457 574.144 -91.963 575.598 -95.9079 577.369C-101.516 579.885 -114.126 583.352 -118.391 588.329C-123.699 594.443 -120.708 595.785 -127.642 599.923C-131.922 602.458 -137.106 602.365 -141.474 603.744C-159.621 609.467 -172.516 629.84 -167.227 649.99C-163.389 664.603 -164.715 671.612 -171.296 685.647C-175.116 693.756 -175.222 704.492 -179.804 711.24C-188.648 714.744 -190.753 734.819 -189.957 744.475C-189.196 753.629 -184.986 761.604 -184.348 770.831C-183.641 780.915 -186.347 790.254 -187.461 800.152C-189.637 819.351 -185.25 837.431 -201.877 850.144C-214.825 860.004 -223.474 878.234 -225.632 895.514C-226.924 905.841 -222.661 916.988 -224.836 927.202C-227.011 937.416 -234.936 946.122 -239.888 954.808C-243.709 961.461 -242.843 966.756 -245.424 973.038C-248.166 979.729 -258.053 989.702 -263.731 993.914C-282.781 1008.01 -318.562 1011.85 -339.064 1003.14C-347.767 999.413 -361.068 994.828 -370.425 995.872C-383.125 997.288 -391.032 1009.4 -405.801 1005.6" stroke="#E8E8E8" stroke-opacity="0.59" stroke-width="1.4" stroke-linecap="round" stroke-linejoin="round"/>
<path d="M480.458 1117.47C479.167 1104.82 481.537 1082.24 477.097 1071.17C476.319 1069.31 466.095 1060.12 464.415 1058.01C459.462 1051.79 453.342 1043.27 450.671 1035.51C445.614 1020.75 451.823 1009.42 455.323 995.269C458.436 982.818 465.936 972.268 467.598 960.003C469.155 948.819 467.209 909.564 459.762 900.467C453.996 893.44 441.101 892.023 433.991 885.555C426.155 878.361 417.205 868.257 412.129 858.826C407.052 849.394 412.217 847.81 400.755 842.05C396.157 839.72 390.727 839.571 386.11 837.204C368.687 828.238 378.256 827.492 383.067 813.14C384.677 808.312 382.254 804.565 383.333 800.092C385.42 791.35 393.433 785.329 395.272 776.754C399.463 757.033 385.119 744.358 368.545 739.251C344.295 731.795 323.441 727.434 319.019 696.732C317.003 683.05 323.636 668.586 316.315 655.836C311.203 646.926 296.045 635.444 287.732 630.057C277.119 623.16 264.26 620.364 253.982 612.61C247.773 607.931 248.34 604.148 244.961 599.991C232.332 584.389 211.124 591.454 196.249 603.104C180.33 615.609 171.698 619.451 151.746 617.363C142.902 616.45 137.454 616.375 130.22 611.771C119.855 605.228 122.154 602.563 108.694 600.997C98.9121 599.879 87.4682 601.631 78.0403 598.555C65.0397 594.303 62.3171 581.147 52.3024 574.473C39.834 566.178 22.8344 571.509 10.364 575.759C-6.245 581.444 -23.0663 582.917 -39.6222 588.62C-50.7482 592.442 -59.9102 598.555 -70.5053 602.973C-78.4295 606.253 -88.9009 605.042 -95.8697 611.044C-101.282 615.704 -104.272 623.943 -109.03 629.684C-116.423 638.705 -125.338 649.274 -134.022 656.712C-140.337 662.099 -146.404 663.906 -151.091 671.157C-162.889 689.033 -157.972 718.894 -163.844 739.975C-166.391 749.109 -170.795 755.483 -169.592 764.655C-168.708 771.477 -163.88 776.06 -163.861 783.425C-163.861 794.609 -170.442 804.785 -171.078 816.212C-171.768 828.496 -171.839 836.493 -176.703 848.031C-184.981 867.621 -197.928 881.787 -203.624 902.515C-208.701 920.856 -214.909 940.148 -218.924 958.434C-220.41 965.181 -218.924 967.045 -222.462 973.791C-228.072 983.855 -235.517 992.781 -244.413 1000.11C-261.995 1014.24 -281.858 1020.32 -302.429 1025.39C-312.812 1027.96 -317.535 1030.81 -328.643 1026.37C-335.099 1023.8 -339.999 1019.4 -346.861 1017.82C-353.442 1016.29 -358.394 1019.68 -363.577 1014.09C-373.234 1016.92 -374.384 1017.33 -379.354 1024.42C-385.775 1033.57 -390.427 1047.59 -393.735 1058.73C-401.782 1085.98 -394.23 1105.33 -391.064 1132.73C-388.623 1153.98 -389.825 1174.77 -384.625 1195.74C-377.196 1225.76 -357.545 1238.61 -330.235 1246.42C-299.369 1255.35 -272.236 1270.2 -242.502 1282.36C-182.063 1307.05 -120.261 1312.94 -55.7005 1311.51C-3.22055 1310.35 48.3931 1296.3 98.7859 1281.98C134.799 1271.77 174.154 1254.19 208.168 1275.2C239.653 1294.64 270.749 1293.69 306.814 1293.84C329.012 1293.84 359.789 1299 377.088 1280.79C382.396 1275.2 385.507 1267.29 390.973 1261.53C397.111 1255.07 405.53 1250.24 411.225 1243.36C419.291 1233.61 415.982 1216.05 424.314 1208.91C429.622 1204.4 440.234 1205.56 446.937 1201.89L450.475 1200.62C466.234 1202.48 478.174 1193.28 476.618 1176.05C476.299 1172.32 472.426 1169.34 472.231 1165.6C471.86 1157.66 475.557 1154.95 477.84 1147.91C480.732 1138.04 481.622 1127.69 480.457 1117.47L480.458 1117.47Z" stroke="#E8E8E8" stroke-opacity="0.59" stroke-width="1.4" stroke-linecap="round" stroke-linejoin="round"/>
<path d="M482.946 1147.28C486.218 1129.68 493.046 1109.74 490.252 1091.25C488.713 1081.22 482.965 1079.39 478.348 1071.36C473.324 1062.65 476.295 1048.75 468.867 1041.53C465.648 1038.38 460.836 1040.15 458.396 1035.49C456.15 1031.23 458.396 1018.57 459.191 1014.04C461.951 999.129 471.803 989.902 476.225 976.165C478.825 968.075 479.002 957.842 479.285 949.302C479.674 937.764 477.605 937.54 472.688 929.321C468.637 922.554 466.815 913.719 462.411 907.232C456.008 897.764 445.13 896.16 438.815 887.418C431.546 877.371 429.971 864.733 419.129 857.595C411.964 853.252 404.033 850.322 395.763 848.965C363.766 845.236 357.08 886.785 331.061 893.868C322.04 896.328 312.329 892.88 303.22 895.377C288.132 899.497 277.165 914.893 263.599 921.94C252.597 927.642 206.697 934 198.684 923.54C194.669 918.302 198.331 909.728 194.209 904.248C188.584 896.795 165.572 896.438 157.365 899.887C153.492 901.508 150.856 906.84 147.089 909.113C141.287 912.636 135.114 913.531 129.401 917.613C120.556 923.932 109.731 938.527 97.845 929.841C92.7875 926.113 94.8731 920.745 91.7605 917.855C88.2228 914.631 69.4205 912.766 64.5739 914.537C58.4539 916.78 55.836 924.533 47.047 924.513C37.9376 924.513 26.5468 918.811 16.9777 917.06C-4.24763 913.239 -35.6795 912.698 -41.3924 940.267C-42.8075 947.014 -43.161 960.397 -40.9323 966.94C-38.2283 975.067 -29.1148 977.099 -25.7914 984.741C-22.8551 991.452 -25.4729 999.951 -24.3588 1007.02C-23.1735 1014.47 -19.8481 1019.21 -21.0334 1026.93C-21.9708 1032.91 -25.5616 1037.94 -26.1274 1044.3C-27.896 1064.6 -16.1337 1088.87 -10.4733 1108.01C-9.25302 1112.11 -3.13299 1123.76 -3.57515 1128.18C-4.24714 1135.09 -13.3395 1138.06 -18.2207 1141.62C-33.7156 1152.91 -31.9109 1171.72 -26.9056 1190.28C-25.7038 1194.68 -24.0579 1202.51 -20.5907 1205.66C-14.9825 1210.75 -6.44038 1206.43 -0.974815 1210.41C5.90583 1215.47 7.86923 1235.69 8.53922 1244.43C9.54721 1256.55 9.31738 1259.51 16.5696 1269.33C17.9671 1271.2 21.577 1272.35 22.4417 1274.57C23.6801 1277.68 21.2745 1282.03 22.4417 1285.14C24.7767 1291.1 27.3059 1292.33 33.8861 1290.73C37.4238 1289.82 39.1939 1285.81 42.5534 1284.62C46.3916 1283.24 50.9197 1284.1 54.9352 1283.48C65.6734 1281.81 76.2196 1279.08 86.4196 1275.34C97.7042 1271.14 109.414 1272.2 120.875 1268.16C129.419 1265.12 134.124 1257.33 142.101 1253.68C150.591 1249.78 162.761 1251.81 171.711 1252.78C184.216 1254.01 197.429 1256.12 209.811 1253.51C220.423 1251.25 219.928 1249.5 228.861 1257.7C234.981 1263.29 242.922 1267.56 247.893 1272.43L267.915 1278.76C278.74 1280.52 288.08 1285.42 298.179 1287.53C309.836 1289.95 312.33 1277.37 322.625 1277.7C325.012 1277.7 330.602 1282.06 333.237 1283C336.774 1284.02 340.388 1284.76 344.045 1285.2C355.666 1285.98 371.089 1281.47 382.481 1278.77C389.804 1277.05 393.66 1274.72 399.16 1268.25C406.483 1259.66 410.233 1248.51 417.131 1239.42C421.217 1234.05 431.052 1228.23 433.05 1222.29C436.04 1213.45 430.592 1206.26 439.719 1198.99C446.476 1193.62 461.793 1191.53 470.142 1189.02C477.571 1186.87 479.18 1190.54 482.046 1180.65C484.912 1170.75 481.018 1157.53 482.946 1147.28Z" stroke="#E8E8E8" stroke-opacity="0.59" stroke-width="1.4" stroke-linecap="round" stroke-linejoin="round"/>
<path d="M6.96091 958.364C13.1515 937.115 38.1269 939.146 55.7974 942.986C60.7502 944.067 66.3039 946.378 71.7164 947.963C74.639 948.935 77.6788 949.512 80.7548 949.677C88.0245 949.845 90.5006 943.657 95.6657 941.942C99.893 940.525 115.282 942.259 118.271 944.812C120.871 947.068 119.191 951.315 123.295 954.3C132.987 961.309 142.292 949.603 149.827 944.477C154.673 941.196 159.802 940.47 164.685 937.617C167.868 935.753 170.221 931.465 173.44 930.164C180.515 927.275 199.228 927.536 203.828 933.315C207.188 937.547 204.111 944.22 207.365 948.227C213.928 956.149 251.338 951.154 260.871 946.251C264.538 944.28 268.009 941.964 271.237 939.336C278.577 933.613 285.847 927.089 294.602 924.89C302.263 923.026 310.325 925.859 317.95 924.014C339.919 918.739 347.243 885.653 373.702 889.698C380.593 891.07 387.164 893.725 393.071 897.527C402.039 903.809 403.294 914.303 409.095 922.896C414.118 930.351 422.909 932.215 427.756 940.473C431.17 946.214 432.212 953.819 435.185 959.728C438.722 966.831 440.314 967.427 439.607 977.025C439.309 983.658 438.541 990.261 437.307 996.785C437.059 997.885 436.776 998.966 436.456 999.99C432.812 1011.77 425.136 1019.38 423.544 1031.68C422.854 1036.09 422.511 1040.56 422.518 1045.02C422.503 1046.58 422.804 1048.12 423.402 1049.55C425.472 1053.51 429.487 1052.41 432.122 1055.15C438.26 1061.65 435.66 1073.38 439.339 1081C442.647 1087.86 447.087 1089.74 447.723 1098.09C448.431 1107.13 446.361 1116.43 443.849 1125.19C442.081 1131.51 439.905 1137.52 438.313 1143.16C436.084 1151.01 438.472 1160.98 435.609 1168.76C432.746 1176.53 431.382 1173.45 425.156 1175.07C422.255 1175.84 418.469 1176.6 414.543 1177.63C408.812 1179.14 402.94 1180.91 399.543 1183.59C391.849 1189.65 396.006 1195.82 393.334 1203.26C391.565 1208.14 383.535 1212.58 380.121 1217.03C374.337 1224.34 371.012 1233.36 364.874 1240.28C361.48 1244.67 356.578 1247.65 351.113 1248.65C341.809 1250.71 329.231 1254.24 319.788 1253.53C316.795 1253.14 313.837 1252.52 310.944 1251.66C308.804 1250.92 304.364 1247.41 302.401 1247.36C294.088 1247.04 291.682 1257.09 282.271 1255.04C274.099 1253.17 266.582 1249.28 257.808 1247.77C257.72 1247.77 241.712 1242.42 241.606 1242.51C237.626 1238.62 231.223 1235.19 226.341 1230.6C219.266 1223.95 219.496 1225.4 210.864 1227.06C200.694 1228.92 189.975 1227.06 179.804 1226.05C172.181 1225.35 161.798 1223.89 154.21 1227.13C147.135 1230.12 142.693 1236.45 135.213 1238.82C125.148 1241.99 114.89 1240.85 105.144 1243.54C100.345 1244.83 95.4638 1245.8 90.5337 1246.43C86.4276 1246.97 82.5033 1247.14 78.4348 1247.4C74.8976 1247.6 71.0414 1246.8 67.6274 1247.81C65.0095 1248.57 63.276 1251.18 60.8354 1252.17C60.512 1252.31 60.1736 1252.41 59.8269 1252.47C54.1846 1253.64 51.9027 1252.47 49.7801 1247.64C48.701 1245.12 50.4701 1241.54 49.3554 1238.9C48.5417 1237.03 45.5348 1235.9 44.3481 1234.2C38.5109 1225.91 38.6897 1223.18 37.9802 1213.14C37.6543 1207.29 36.9094 1201.48 35.7514 1195.75C34.6372 1190.83 32.9923 1186.43 30.4435 1184.38C26.0571 1180.82 18.9266 1183.85 14.4004 1179.42C11.5702 1176.62 10.2943 1170.1 9.34292 1166.37C7.3045 1159.31 6.40858 1151.96 6.68901 1144.62C6.84169 1140.9 7.818 1137.27 9.54746 1133.98C11.2769 1130.69 13.7164 1127.82 16.6898 1125.58C20.6696 1122.6 27.9924 1120.12 28.7 1114.4C29.1597 1110.67 24.5789 1100.85 23.7472 1097.27C19.9441 1080.96 11.3654 1060.49 13.6823 1043.59C14.3899 1038.37 17.503 1034.27 18.5109 1029.29C19.7843 1022.95 17.3437 1018.87 16.7423 1012.74C16.141 1006.61 18.6527 999.931 16.6537 994.34C14.4074 987.965 7.38504 986.027 5.70506 979.428C4.53784 974.171 5.43967 963.527 6.96091 958.364Z" stroke="#E8E8E8" stroke-opacity="0.59" stroke-width="1.4" stroke-linecap="round" stroke-linejoin="round"/>
<path d="M49.8236 989.044C55.519 973.834 74.5866 975.903 89.3739 978.755C93.46 979.538 98.0763 981.16 102.64 982.241C105.083 982.89 107.595 983.24 110.122 983.285C116.031 983.285 118.117 978.439 122.362 976.928C125.988 975.661 138.281 976.369 141.023 978.103C143.304 979.557 142.224 982.763 145.621 984.776C153.705 989.567 161.116 980.228 167.271 975.866C171.198 973.107 175.372 972.25 179.299 969.808C181.864 968.224 183.739 964.831 186.375 963.601C192.212 960.861 207.14 960.041 211.138 963.825C214.056 966.621 211.863 971.56 214.675 974.114C220.371 979.166 249.803 973.406 257.869 968.783C260.808 967.019 263.61 965.038 266.253 962.856C272.143 958.084 278.104 952.772 285.374 950.7C291.67 948.949 298.393 950.793 304.724 949.153C322.872 944.437 329.328 919.329 351.013 922.256C356.743 923.233 362.246 925.248 367.251 928.202C374.803 933.03 376.378 941.25 381.295 948.128C385.522 954.037 392.492 955.752 396.33 962.406C399.107 967.196 399.867 973.478 402.043 978.38C404.679 984.159 405.793 985.034 405.245 992.752C404.873 997.971 404.573 1003.94 403.689 1009.27C403.529 1010.2 403.353 1011.13 403.14 1011.97C400.787 1021.98 395.588 1028.39 395.747 1038.19C395.676 1041.76 395.818 1045.33 396.171 1048.88C396.287 1050.17 396.647 1051.44 397.233 1052.6C399.143 1055.7 402.433 1055.04 404.697 1057.34C410.005 1062.72 408.235 1072.38 411.118 1078.76C413.541 1084.22 416.831 1085.91 417.043 1092.55C417.273 1099.82 415.168 1107.29 412.851 1113.95C411.171 1118.79 409.101 1123.12 407.543 1127.14C405.368 1132.74 406.73 1139.63 404.2 1145.34C401.67 1151.04 400.362 1148.73 395.356 1150.18C392.915 1150.89 389.784 1151.69 386.618 1152.83C381.911 1154.53 377.226 1156.33 374.484 1158.7C368.399 1163.98 371.689 1168.86 369.637 1175.05C368.346 1178.92 362.173 1182.69 359.555 1186.23C355.168 1192.1 352.657 1199.19 347.916 1204.74C345.275 1208.25 341.49 1210.72 337.215 1211.73C329.892 1213.72 320.058 1216.8 312.558 1216.86C310.214 1216.72 307.883 1216.41 305.589 1215.91C303.821 1215.48 300.282 1213.03 298.709 1213.09C292.147 1213.26 290.342 1220.92 282.878 1219.76C276.368 1218.76 270.284 1216.15 263.299 1215.38C263.104 1215.57 250.511 1211.95 250.316 1212.14C247.009 1209.42 241.826 1207.14 237.848 1203.9C232.064 1199.22 232.19 1200.34 225.466 1201.91C217.383 1203.77 208.822 1202.48 200.703 1202.35C194.158 1202.26 185.28 1202.07 178.575 1205.09C172.526 1207.81 168.405 1212.94 161.931 1215.05C153.087 1217.88 144.067 1217.28 135.63 1219C131.549 1219.81 127.407 1220.27 123.248 1220.38C119.852 1220.47 116.827 1220.08 113.325 1220.08C110.354 1220.08 106.904 1219.54 103.88 1220.38C101.58 1221.01 99.9886 1223.03 97.8835 1223.81L96.9992 1224.05C92.2236 1224.98 90.0479 1224.16 87.8357 1220.45C86.684 1218.5 87.6764 1215.68 86.4912 1213.58C85.6399 1212.05 83.1127 1211.13 81.9986 1209.7C77.0282 1203.25 77.0107 1200.77 76.0728 1192.92C75.6048 1188.21 74.783 1183.53 73.6142 1178.94C72.5531 1175.05 71.0669 1171.49 68.9623 1169.88C65.3009 1166.99 59.6406 1169.16 55.8735 1165.62C53.4855 1163.36 52.2121 1158.29 51.2747 1155.25C49.3275 1149.64 48.3061 1143.76 48.2503 1137.82C48.232 1134.83 48.8539 1131.88 50.0741 1129.15C51.2944 1126.42 53.0848 1123.98 55.3252 1122C58.3322 1119.33 63.9214 1116.95 64.3991 1112.23C64.6995 1109.01 61.0737 1101.44 60.4192 1098.42C57.536 1085.18 50.9913 1069.02 52.9903 1055.4C53.5912 1051.26 56.0678 1047.94 56.9171 1043.9C57.9961 1038.88 56.192 1035.62 55.856 1030.85C55.52 1026.08 57.6246 1020.73 56.192 1016.39C54.6352 1011.43 49.4531 1009.94 48.4446 1004.94C47.7497 999.603 48.2205 994.179 49.8246 989.041L49.8236 989.044Z" stroke="#E8E8E8" stroke-opacity="0.59" stroke-width="1.4" stroke-linecap="round" stroke-linejoin="round"/>
<path d="M124.03 998.476C129.672 989.827 141.347 993.145 151.889 996.016C154.736 996.78 157.973 998.067 161.281 998.923C163.008 999.43 164.79 999.724 166.589 999.799C170.695 999.799 172.532 996.705 175.627 995.717C180.035 994.95 184.56 995.199 188.858 996.444C190.52 997.301 189.937 999.352 192.272 1000.66C197.826 1003.77 203.38 997.32 207.945 994.17C210.81 992.212 213.782 991.504 216.612 989.752C218.487 988.597 219.973 986.23 221.83 985.316C226.237 983.135 236.246 982.222 239.076 984.328C241.129 985.837 239.731 988.93 241.765 990.236C245.939 992.883 265.52 988.373 271.834 984.495C273.969 983.176 276.024 981.732 277.989 980.171C282.305 976.778 286.833 973.068 292.139 971.671C296.685 970.497 301.461 971.783 306.113 970.777C319.344 967.906 325.992 951.428 341.082 954.597C345.186 955.605 349.071 957.355 352.544 959.76C357.851 963.656 359.053 969.752 362.236 975.213C364.96 979.836 369.489 981.83 371.593 987.18C373.185 991.225 373.079 996.202 374.122 1000.23C375.429 1003.98 375.704 1008.01 374.919 1011.9C374.318 1016.07 373.767 1020.75 373.15 1024.94C373.026 1025.69 372.902 1026.42 372.778 1027.11C371.24 1035.21 368.551 1040.15 369.665 1047.37C369.948 1049.23 370.216 1052.59 370.78 1055.42C370.94 1056.4 371.25 1057.35 371.7 1058.23C373.097 1060.64 375.432 1060.64 377.008 1062.6C380.722 1067.22 379.448 1074.64 380.74 1079.97C381.783 1084.16 383.534 1085.93 382.88 1090.84C381.954 1096.23 380.08 1101.43 377.344 1106.18C375.727 1108.97 373.906 1111.64 371.896 1114.17C369.597 1117.32 369.455 1121.22 367.103 1124.7C364.75 1128.19 363.742 1126.57 360.028 1127.43C357.838 1127.96 355.696 1128.68 353.625 1129.57C350.481 1130.75 347.535 1132.41 344.887 1134.47C340.5 1138.55 342.34 1142.37 340.677 1147.15C339.704 1149.94 335.62 1152.5 333.761 1154.99C330.701 1159.1 328.738 1164.07 325.395 1167.93C323.574 1170.33 321.002 1172.05 318.09 1172.81C312.749 1174.64 307.229 1175.89 301.622 1176.54C300.099 1176.44 298.584 1176.24 297.089 1175.93C295.922 1175.68 293.675 1174.06 292.579 1174.06C288.245 1174.27 286.67 1179.39 281.789 1178.63C277.455 1177.98 273.458 1176.3 268.824 1175.79C268.524 1176.07 260.528 1173.41 260.211 1173.67C258.018 1171.92 254.603 1170.45 252.004 1168.28C248.29 1165.17 248.184 1165.97 243.692 1166.96C238.191 1168.17 232.496 1167.13 227.083 1167.18C221.237 1167.05 215.419 1168.01 209.926 1170.02C205.115 1172.03 201.4 1175.61 196.306 1177.02C189.23 1178.89 182.155 1178.18 175.629 1178.37C172.485 1178.42 169.347 1178.07 166.289 1177.34C163.866 1176.78 161.991 1175.59 159.32 1175.11C156.928 1174.5 154.449 1174.33 151.997 1174.6C150.228 1174.94 148.689 1176.26 147.027 1176.65L146.337 1176.78C142.799 1177.17 140.871 1176.45 139.014 1173.78C138.006 1172.31 138.342 1170.31 137.334 1168.66C136.609 1167.43 134.804 1166.53 133.955 1165.26C130.647 1160.36 130.594 1158.11 130.028 1152.22C129.762 1148.62 129.241 1145.04 128.472 1141.52C128.031 1138.93 126.948 1136.49 125.323 1134.43C122.9 1131.97 119.009 1132.85 116.479 1129.96C114.834 1128.1 114.02 1124.37 113.348 1121.94C112.066 1117.69 111.398 1113.27 111.365 1108.82C111.329 1104.34 112.99 1100 116.017 1096.69C118.016 1094.56 121.607 1092.64 122.102 1089.05C122.456 1086.44 120.51 1080.83 120.333 1078.33C119.413 1067.98 116.424 1055.72 118.865 1045.52C119.572 1042.54 121.465 1040.06 122.403 1037.12C123.499 1033.52 122.686 1030.96 122.933 1027.44C123.181 1023.92 124.95 1020.14 124.578 1016.95C124.154 1013.22 121.289 1011.93 121.324 1008.5C121.495 1005.01 122.417 1001.59 124.028 998.476H124.03Z" stroke="#E8E8E8" stroke-opacity="0.59" stroke-width="1.4" stroke-linecap="round" stroke-linejoin="round"/>
<path d="M186.7 1006.5C191.457 1004.2 197.136 1007.78 204.264 1010C206.328 1010.69 208.43 1011.27 210.561 1011.72C211.725 1011.96 212.91 1012.08 214.098 1012.09C216.681 1012.09 218.149 1010.34 220.218 1009.66C222.288 1008.99 227.293 1008.41 228.974 1009.11C230.07 1009.55 230.194 1010.21 231.678 1010.63C235.321 1011.68 238.93 1007.76 242.008 1005.53C243.882 1004.18 245.793 1003.46 247.616 1002.19C248.837 1001.35 249.862 999.916 251.047 999.17C254.16 997.306 259.891 994.995 261.996 995.796C263.269 996.281 263.11 996.952 264.4 997.195C267.796 996.412 278.426 992.442 283.043 989.03C284.369 988.042 285.731 986.979 287.093 985.861C289.907 983.328 293.195 981.377 296.768 980.12C299.793 979.226 303.012 979.636 306.196 978.965C315.164 977.101 321.178 968.881 330.836 971.304C333.604 972.089 336.213 973.35 338.547 975.032C342.085 977.642 343.394 981.535 345.392 985.34C347.161 988.509 349.531 990.503 350.433 994.324C351.194 997.512 350.645 1001.11 350.769 1004.24C350.947 1007.17 350.696 1010.11 350.026 1012.96C349.357 1016.22 348.896 1019.51 348.646 1022.82C348.646 1023.4 348.558 1023.94 348.522 1024.48C348.133 1030.78 348.204 1034.51 350.432 1039.13C351.104 1040.53 351.885 1042.62 352.696 1044.56C352.959 1045.21 353.285 1045.83 353.669 1046.42C354.766 1048.04 356.287 1048.55 357.384 1050.06C359.984 1053.67 359.542 1058.87 359.683 1063.1C360.059 1065.69 359.81 1068.32 358.958 1070.78C357.6 1074.33 355.543 1077.57 352.909 1080.31C351.403 1081.73 349.586 1082.79 347.601 1083.38C345.648 1084.13 343.804 1085.13 342.118 1086.37C340.349 1087.56 339.217 1086.78 336.81 1087.41C335.248 1087.84 333.771 1088.54 332.441 1089.46C330.395 1090.75 328.502 1092.27 326.799 1093.99C324.039 1097.14 324.818 1099.77 323.721 1103.31C323.173 1105.08 321.05 1106.72 319.989 1108.33C318.22 1110.88 317.088 1113.92 315.16 1116.27C314.116 1117.71 312.696 1118.85 311.054 1119.55C308.058 1120.91 304.959 1122.04 301.786 1122.92C300.912 1123.03 300.032 1123.08 299.151 1123.07C298.443 1123.07 297.223 1122.45 296.551 1122.6C294.128 1123.11 293.013 1125.85 290.325 1125.83C287.636 1125.81 285.478 1125.36 282.843 1125.46C282.436 1125.81 278.244 1124.71 277.835 1125.05C276.157 1124.49 274.515 1123.83 272.918 1123.07C270.778 1121.8 270.495 1122.31 268.036 1123.07C264.781 1124.02 261.456 1123.74 258.361 1124.24C253.862 1125.03 249.474 1126.35 245.291 1128.18C241.577 1129.8 238.322 1132.11 234.396 1133.06C229.111 1134.22 223.638 1134.22 218.353 1133.06C215.938 1132.57 213.643 1131.61 211.596 1130.25C209.986 1129.2 209.102 1127.34 207.121 1126.52C205.325 1125.8 203.388 1125.52 201.462 1125.68C199.994 1125.83 198.721 1126.52 197.447 1126.67H196.897C195.816 1126.8 194.72 1126.7 193.68 1126.38C192.64 1126.06 191.681 1125.52 190.865 1124.8C189.999 1123.75 189.208 1122.63 188.495 1121.47C187.571 1120.62 186.691 1119.73 185.86 1118.8C184.043 1116.09 183.026 1112.93 182.924 1109.67C182.618 1107.19 182.145 1104.74 181.509 1102.32C181.091 1100.56 180.334 1098.9 179.28 1097.42C177.759 1095.56 175.477 1095.41 173.972 1093.36C172.94 1091.66 172.159 1089.83 171.655 1087.91C170.629 1084.98 169.987 1081.92 169.745 1078.82C169.513 1075.77 170.175 1072.72 171.65 1070.04C172.64 1068.29 174.427 1066.61 174.745 1064.09C175.028 1062.08 174.233 1058.5 174.286 1056.64C174.516 1049.37 174.073 1041.24 176.461 1034.36C177.098 1032.5 178.372 1030.8 179.165 1028.77C179.81 1026.75 180.296 1024.68 180.618 1022.58C181.183 1020.37 182.581 1017.98 182.917 1016C183.324 1013.75 182.492 1012.69 183.235 1010.93C183.918 1009.14 185.126 1007.59 186.702 1006.5L186.7 1006.5Z" stroke="#E8E8E8" stroke-opacity="0.59" stroke-width="1.4" stroke-linecap="round" stroke-linejoin="round"/>
<path d="M305.604 1076.64C303.517 1085.42 292.71 1094.07 286.236 1098.17C277.392 1103.76 258.766 1112.54 251.249 1099.85C250.365 1098.36 250.453 1095.8 249.074 1094.61C247.216 1093.01 243.766 1093.57 241.538 1093.29C237.594 1092.82 233.402 1092.23 230.837 1088.8C228.892 1086.19 228.734 1082.77 227.388 1079.9C225.089 1075 221.746 1071.18 220.313 1065.76C217.801 1056.72 221.214 1047.23 226.557 1040.11C229.741 1035.86 236.763 1027.06 242.476 1031.63C247.411 1035.47 246.226 1041.75 253.938 1041.66C262.057 1041.54 270.193 1035.6 276.048 1030.27C282.946 1023.99 286.413 1014.78 293.488 1008.89C302.562 1001.32 330.421 1001.06 329.235 1018.73C328.776 1025.35 323.381 1030.98 323.927 1037.91C324.474 1044.84 330.348 1046.86 334.824 1050.96C338.202 1054.01 341.439 1058.86 339.21 1063.69C337.742 1066.86 332.135 1071.65 328.597 1071.83C322.018 1072.19 315.509 1059.9 310.361 1066.75C306.542 1071.76 306.312 1073.36 305.604 1076.64Z" stroke="#E8E8E8" stroke-opacity="0.59" stroke-width="1.4" stroke-linecap="round" stroke-linejoin="round"/>
<path d="M735.766 639.164C730.758 674.337 690.237 670.479 669.029 686.882C663.051 691.484 658.417 698.287 653.216 703.844C645.681 711.86 638.535 715.028 629.462 720.752C615.665 729.345 599.217 746.606 591.414 761.275C572.771 796.318 557.047 826.98 554.27 867.671C552.36 896.656 544.542 924.355 552.501 952.538C556.039 964.971 559.877 972.781 549.76 983.387C544.17 989.239 532.071 998.56 523.776 996.714C510.156 993.713 515.304 971.793 516.701 960.702C518.152 947.02 518.453 933.241 517.603 919.508C517.09 907.374 511.182 899.005 507.91 887.821C503.965 874.233 493.653 868.119 485.252 856.879C475.347 843.626 468.82 831.51 455.978 821.202C451.114 817.288 444.269 817.213 441.527 811.379C437.318 802.375 441.97 779.3 443.898 769.738C445.35 762.506 449.31 752.664 446.728 745.506C443.88 737.528 431.711 730.277 424.919 726.326C412.45 719.037 400.156 713.595 388.411 704.778C378.258 697.136 376.701 695.682 377.338 681.868C377.851 670.833 378.93 657.99 375.923 647.252C370.776 628.873 358.041 619.012 345.04 607.568C339.573 602.842 333.425 598.965 326.804 596.067C318.561 592.171 312.158 591.537 317.553 582.758C320.471 578.006 327.918 574.986 331.863 570.978C337.841 564.864 345.022 559.235 349.338 552.019C356.325 540.295 358.907 536.566 373.571 534.74C380.911 533.826 390.463 536.119 397.149 533.286C404.879 530.005 419.453 516.939 423.309 508.625C426.369 502.045 425.255 493.713 429.323 486.872C433.887 479.286 437.867 479.677 444.996 477.868C458.28 474.513 471.953 471.698 484.316 465.23C494.841 459.638 504.764 452.462 514.97 446.292C529.969 437.177 546.985 432.443 561.913 423.477C576.842 414.511 575.851 395.368 587.101 382.302C594.176 373.988 603.657 366.476 609.884 357.362C615.049 349.813 613.811 342.282 617.738 334.101C627.252 314.249 649.788 318.686 658.827 299.841C663.39 290.353 665.407 283.662 674.746 277.958C686.563 270.8 695.741 266.085 706.248 256.727C714.56 249.271 726.96 246.327 737.856 247.184C752.608 248.339 752.555 256.318 751.565 270.26C750.574 284.202 747.815 297.568 737.52 307.13C727.226 316.691 713.606 318.798 706.39 332.256C699.456 345.192 691.568 364.242 691.126 379.024C690.542 399.527 698.501 412.575 683.484 430.47C671.103 445.139 656.156 454.422 649.985 473.845C646.872 483.612 644.042 497.556 645.103 507.769C646.323 519.811 656.423 528.273 665.834 534.219C677.738 541.768 688.617 546.634 699.706 555.767C705.756 560.763 717.023 565.851 725.018 562.161C733.419 558.284 734.799 548.032 746.243 555.283C751.266 558.452 765.7 573.141 764.904 579.123C763.719 588.443 754.291 589.04 755.352 600.503C756.204 609.17 765.859 632.806 748.118 629.003C743.2 627.94 742.81 619.068 736.532 623.411C733.042 625.669 737.411 627.626 735.766 639.164Z" stroke="#E8E8E8" stroke-opacity="0.59" stroke-width="1.4" stroke-linecap="round" stroke-linejoin="round"/>
<path d="M310.99 729.019C314.439 733.325 312.405 736.717 314.05 741.154C315.978 746.373 319.358 745.366 323.159 748.61C329.474 753.978 332.924 760.483 341.536 762.944C348.842 765.05 351.548 761.825 355.687 769.058C358.764 774.426 359.118 781.23 360.994 787.139C364.031 796.997 363.274 807.632 358.872 816.962C354.115 826.282 346.03 830.383 336.514 832.433C328.272 834.297 326.096 833.999 323.637 843.244C322.452 847.624 323.637 854.335 320.524 857.559C316.987 861.287 309.487 860.747 305.207 865.015C300.378 869.937 298.255 875.882 291.923 879.256C284.313 883.046 276.133 885.563 267.708 886.71C259.2 887.698 252.532 884.846 245.704 891.445C240.911 896.123 239.213 900.504 232.775 903.169C222.25 907.493 210.258 908.649 199.398 911.687C190.023 914.316 185.99 911.259 181.303 902.927C178.721 898.325 179.941 897.055 174.582 894.334C167.365 890.606 158.503 891.165 151.428 887.121C147.322 884.79 145.98 881.995 140.939 881.771C132.732 881.398 128.912 887.363 123.163 892.172C115.419 898.75 106.026 903.093 95.9946 904.736C88.106 906.171 78.8193 908.091 70.754 906.6C67.411 905.966 62.7592 903.263 59.4338 901.828C51.9162 898.566 46.1857 898.734 37.9075 898.1C1.02812 895.21 -48.6572 881.566 -71.616 920.281C-75.313 926.507 -74.0391 933.795 -77.9484 940.225C-80.2804 943.93 -81.6942 948.138 -82.0726 952.498C-82.451 956.858 -81.783 961.245 -80.1241 965.296C-72.5359 983.154 -64.2051 991.578 -69.2105 1009.68C-69.5418 1010.79 -69.4472 1011.99 -68.9451 1013.03C-68.4318 1014.1 -68.1653 1015.27 -68.1653 1016.46C-68.1653 1017.65 -68.4318 1018.82 -68.9451 1019.89C-68.8214 1023.92 -72.4828 1031.69 -72.1643 1035.62C-71.7577 1042.07 -69.4053 1042.95 -66.8565 1048.35C-64.3077 1053.76 -65.53 1059.33 -63.6903 1064.66C-61.5502 1070.81 -58.4902 1074.39 -57.3405 1081.1C-56.2614 1087.42 -54.2449 1096.48 -55.678 1102.91C-56.4917 1106.64 -59.3039 1109.29 -60.0645 1113.13C-61.7094 1121.42 -60.8251 1130.65 -62.435 1139.22C-64.2036 1148.54 -69.3687 1161.14 -67.9181 1170.43C-66.6447 1178.68 -63.1956 1185.34 -66.8745 1194.01C-69.6239 1200.21 -74.4872 1205.25 -80.6003 1208.21C-87.2861 1211.19 -95.973 1210.69 -103.134 1212.11C-112.172 1213.97 -120.945 1216.02 -130.178 1216.54C-146.097 1217.44 -160.018 1210.95 -176.167 1211.21C-196.367 1211.62 -215.858 1213.47 -236.094 1211.21C-266.163 1207.97 -295.454 1204.76 -325.382 1199.23C-335.641 1197.36 -347.245 1196.43 -357.221 1193.28C-362.529 1191.56 -362.138 1192.1 -363.641 1186.53C-366.045 1177.62 -365.41 1164.16 -366.082 1154.66C-367.161 1141.14 -366.595 1128.56 -372.379 1116.26C-380.321 1099.32 -375.687 1081.5 -373.069 1063.86C-371.831 1055.44 -375.033 1042.52 -366.949 1037.77C-361.291 1034.41 -359.52 1037.66 -354.408 1039.93C-349.296 1042.2 -344.857 1042.26 -339.391 1042.3C-324.374 1042.45 -304.404 1045.04 -291.07 1037.41C-277.379 1029.6 -262.893 1027.09 -248.619 1020.64C-240.129 1016.91 -231.408 1011.21 -225.748 1003.21C-221.503 997.225 -220.778 989.9 -217.629 983.394C-214.658 977.299 -209.9 972.322 -206.61 966.245C-201.763 957.241 -199.906 947.158 -196.457 937.559C-193.556 929.469 -190.284 922.088 -188.479 913.774C-187.027 907.101 -187.135 901.156 -183.438 895.433C-177.619 886.429 -174.895 885.442 -172.454 874.463C-171.057 868.144 -168.687 862.292 -166.829 856.14C-164.742 849.187 -164.849 841.564 -162.514 834.835C-151.123 802.01 -152.98 766.781 -148.363 732.055C-147.249 723.686 -144.224 711.962 -138.493 705.587C-132.249 698.633 -125.616 694.906 -120.204 686.947C-103.742 662.651 -81.4155 643.435 -55.5363 631.288C-29.2355 618.858 -0.282325 612.149 27.7705 605.326C37.6757 602.939 47.1211 601.001 56.7082 604.561C67.1616 608.457 75.6862 611.719 86.7776 611.551C100.203 611.346 109.949 611.644 122.808 616.882C144.67 625.754 167.152 636.658 190.446 627.787C204.756 622.344 217.987 621.934 231.376 630.247C236.559 633.472 241.334 637.274 246.959 639.865C253.946 643.109 260.809 641.729 267.495 643.873C279.239 647.601 285.89 659.102 289.835 670.174C292.453 677.518 293.195 687.082 299.811 693.008C307.328 699.699 305.277 721.843 310.99 729.019Z" stroke="#E8E8E8" stroke-opacity="0.59" stroke-width="1.4" stroke-linecap="round" stroke-linejoin="round"/>
<path d="M303.661 738.698C304.74 743.973 303.237 750.609 306.065 755.661C309.939 762.539 318.288 763.955 325.062 765.26C329.819 766.173 337.638 766.789 341.423 770.33C345.598 774.244 344.961 781.235 348.339 785.67C352.85 791.561 361.181 793.499 359.536 803.565C358.598 809.306 352.903 814.19 347.95 815.867C344.413 817.06 338.436 814.674 335.374 816.501C332.597 818.159 333.321 820.862 331.501 823.341C329.378 826.212 326.618 828.281 325.062 831.282C323.506 834.283 323.293 837.935 320.764 841.198C317.987 844.927 313.405 849.959 309.39 851.823C302.315 855.141 293.896 852.811 286.714 857.117C273.661 864.964 266.727 876.652 251.621 881.069C244.122 883.27 235.948 883.921 229.388 888.209C222.313 892.794 219.059 895.553 210.091 890.93C197.815 884.592 190.813 874.601 176.642 872.141C164.028 869.905 151.052 870.905 138.931 875.049C129.645 878.18 119.669 877.472 110.064 879.821C99.4518 882.449 89.7234 887.612 78.3501 886.568C68.8873 885.54 59.5714 883.445 50.5802 880.324C37.898 876.036 27.0024 876.726 13.6657 877.64C0.329078 878.553 -14.9535 875.627 -27.8124 879.205C-40.6714 882.784 -53.4247 891.769 -64.0729 899.915C-75.4106 908.582 -69.1138 917.567 -74.0842 929.105C-75.977 933.485 -80.3103 936.561 -82.0259 941.127C-83.6002 945.433 -82.0259 951.398 -83.7945 955.405C-87.1554 963.309 -99.0239 970.412 -104.596 977.307C-117.49 993.226 -124.884 975.257 -136.009 964.744C-140.803 960.215 -144.446 955.219 -150.584 952.982C-154.724 951.454 -160.737 952.982 -164.54 950.503C-172.128 945.451 -166.079 934.082 -164.434 926.103C-162.364 916.038 -160.012 905.413 -154.263 896.82C-151.592 892.813 -147.578 890.054 -144.659 886.308C-138.539 878.442 -141.475 873.26 -140.219 863.94C-138.026 847.518 -127.573 832.979 -123.31 817.135C-119.974 803.992 -118.897 790.377 -120.126 776.873C-121.346 763.267 -123.664 747.516 -117.472 734.635C-114.465 728.429 -108.628 723.75 -104.684 718.232C-98.4246 709.471 -95.3445 699.071 -89.4368 690.366C-81.106 678.045 -67.0263 675.715 -55.1577 668.893C-45.3933 663.301 -39.0971 655.437 -31.4914 647.252C-23.0544 638.193 -11.5394 639.163 -0.395487 635.174C10.7484 631.185 21.1658 626.562 32.5571 624.307C56.242 619.61 82.1893 619.423 104.494 628.594C121.863 635.733 140.931 636.329 158.99 640.803C167.692 642.946 176.43 646.395 185.221 647.923C194.012 649.451 203.581 647.623 212.512 648.128C226.556 648.929 239.521 653.552 252.504 658.679C265.487 663.805 280.982 669.862 286.819 683.6C289.879 690.869 298.546 698.027 299.342 705.483C300.973 720.581 301.574 728.148 303.661 738.698Z" stroke="#E8E8E8" stroke-opacity="0.59" stroke-width="1.4" stroke-linecap="round" stroke-linejoin="round"/>
<path d="M289.571 747.652C290.897 749.236 289.217 757.121 290.667 760.513C292.931 765.826 298.839 767.967 302.465 772.107C310.142 780.793 302.979 788.082 305.119 798.781C307.26 809.48 309.912 817.048 302.36 826.051C290.137 840.608 276.429 851.494 259.36 858.316C245.847 863.74 238.665 877.217 224.444 880.684C214.309 883.088 206.951 880.684 200.725 872.258C189.015 856.358 165.685 855.483 147.785 857.03C139.489 857.775 132.166 861.112 123.871 861.615C113.382 862.265 105.864 865.063 96.1539 868.94C89.3264 871.661 81.0662 873.712 73.478 872.836C69.3384 872.352 66.1732 869.277 62.6876 867.62C56.5676 864.694 50.7835 864.694 43.8853 863.743C23.7742 860.948 2.33656 859.773 -17.8632 863.128C-43.1746 867.34 -68.0793 875.43 -87.0763 894.965C-97.2824 905.459 -95.3385 913.94 -99.0685 927.229C-101.262 934.14 -105.936 939.996 -112.193 943.67C-129.35 952.543 -141.006 923.166 -138.212 909.615C-136.089 899.382 -127.829 890.342 -124.468 880.332C-120.418 868.179 -122.169 854.87 -117.623 843.052C-112.916 830.732 -114.404 819.435 -111.026 806.986C-107.099 792.559 -96.4156 782.996 -96.8753 766.985C-97.2468 753.322 -98.9448 742.753 -91.8178 730.544C-85.3262 719.36 -74.9965 706.536 -65.0383 698.857C-50.6756 687.84 -36.7376 676.731 -20.8186 668.045C-7.05728 660.496 11.9217 648.324 27.5933 647.056C42.8578 645.826 59.0778 646.74 74.4665 646.684C83.3105 646.684 104.748 643.85 112.407 651.139C113.893 652.555 111.876 655.351 113.415 656.582C116.119 658.783 118.934 658.933 122.259 659.564C132.872 661.577 141.503 658.463 151.638 659.322C161.773 660.18 157.597 662.323 164.657 668.12C169.645 672.239 178.365 672.575 184.236 672.053C194.938 671.121 205.763 671.773 216.924 671.643C224.281 671.549 224.193 670.897 230.95 675.37C236.68 679.285 243.171 681.953 250 683.199C250.46 689.48 264.151 693.861 269.032 698.111C272.426 700.508 274.918 703.974 276.108 707.952C277.54 711.68 277.434 714.886 280.264 717.738C286.953 724.259 280.214 736.617 289.571 747.652Z" stroke="#E8E8E8" stroke-opacity="0.59" stroke-width="1.4" stroke-linecap="round" stroke-linejoin="round"/>
<path d="M269.674 751.95C269.498 759.089 271.16 765.781 272.734 774.039C273.725 779.183 272.859 784.421 273.742 789.51C274.626 794.599 277.28 797.599 277.864 802.781C278.819 812.679 277.103 824.068 269.02 830.2C264.173 833.929 260.6 834.711 256.868 839.371C252.162 845.28 246.928 850.406 241.781 855.961C236.983 861.098 231.171 865.186 224.712 867.966C218.202 870.613 216.045 867.966 211.304 862.971C207.201 858.665 203.009 858.069 198.498 854.844C195.209 852.477 194.201 848.767 191.423 846.046C183.269 838.162 166.359 841.274 156.225 839.093C152.156 838.217 146.85 838.329 142.976 836.912C137.475 834.899 135.547 829.456 130.913 826.269C122.511 820.471 115.79 824.591 108.874 829.997C100.384 836.539 91.4159 837.006 81.4042 839.317C75.5671 840.659 66.3319 840.64 65.9093 848.841C56.4994 851.172 47.4962 848.077 38.2455 847.127C24.6434 845.71 10.9553 846.139 -2.64879 845.002C-13.1553 844.107 -25.4825 843.138 -35.9374 844.107C-48.7433 845.281 -58.8076 854.562 -70.0572 859.727C-74.2133 861.591 -80.6699 862.039 -84.2957 865.002C-86.2236 866.587 -87.8334 870.333 -89.8499 872.365C-96.2353 878.796 -105.523 888.172 -107.768 874.229C-108.55 869.324 -108.4 864.315 -107.326 859.466C-106.034 854.787 -102.55 852.01 -102.569 846.51C-102.569 840.396 -107.486 835.084 -107.276 828.728C-107.065 822.372 -102.677 816.463 -100.076 810.852C-96.5388 803.116 -94.5048 795.345 -91.2324 787.459C-88.8624 781.867 -84.1575 776.965 -82.3884 771.168C-80.8862 766.397 -81.0264 759.798 -80.3719 754.747C-78.1256 737.542 -60.6679 723.861 -47.6316 714.128C-33.4813 703.578 -18.9949 692.168 -5.74636 680.427C3.09769 672.617 10.8446 664.602 22.6605 662.533C23.7396 662.346 27.3675 660.932 28.2147 661.247C31.0093 662.253 30.3178 664.341 32.6713 665.907C39.0212 670.101 46.041 668.162 52.6588 665.683C59.2765 663.204 65.728 659.234 72.4339 657.966C80.2344 656.475 82.2154 658.376 86.8322 663.558C93.2351 670.679 104.308 667.193 113.364 667.454C121.326 667.697 125.41 670.138 132.308 673.754C141.93 678.824 152.438 681.714 162.378 685.964C171.222 689.691 173.945 693.42 184.134 691.556C195.312 689.692 205.66 692.04 216.732 695.19C227.804 698.34 242.026 699.254 249.012 710.661C250.789 714.029 252.885 717.218 255.271 720.186C257.04 722.181 260.329 725.778 260.329 728.556C260.282 742.406 269.993 738.939 269.674 751.95Z" stroke="#E8E8E8" stroke-opacity="0.59" stroke-width="1.4" stroke-linecap="round" stroke-linejoin="round"/>
<path d="M249.294 760.572C248.675 766.164 247.312 772.445 246.994 778.112C246.676 783.779 244.907 793.024 246.411 798.727C248.551 806.705 249.329 802.847 245.632 811.104C244.359 813.955 244.217 817.257 242.838 820.088C241.458 822.92 238.875 824.73 237.921 827.656C236.364 832.446 237.284 836.324 235.002 841.244C233.109 845.346 228.952 855.784 224.743 857.778C219.435 860.294 212.237 848.607 207.055 845.252C202.544 842.326 196.159 838.877 192.516 835.094C187.208 829.502 186.678 827.116 178.365 825.625C166.655 823.5 159.174 833.752 148.508 824.488C142.263 819.045 138.921 814.59 130.181 812.353C120.788 809.949 110.919 811.514 101.685 813.9C87.1812 817.629 73.0128 825.456 58.1709 827.47C51.2372 828.402 46.9043 826.37 40.4828 824.693C33.2662 822.829 24.5638 822.605 17.188 822.232C8.34392 821.785 -0.906728 825.736 -9.66214 824.096C-18.011 822.495 -22.751 815.671 -31.613 815.466C-44.2777 815.186 -67.3783 822.92 -74.63 835.001C-78.1677 840.965 -74.984 849.316 -84.482 850.099C-95.36 850.994 -93.2024 839.363 -93.1843 831.459C-93.1843 822.494 -93.1843 819.772 -87.6832 812.67C-81.7244 804.935 -82.6258 801.915 -81.1035 792.744C-79.0505 780.424 -72.2595 768.139 -68.5805 756.359C-65.0428 745.175 -58.8347 746.238 -49.1239 741.093C-38.5112 735.501 -32.8864 725.136 -25.4389 715.799C-17.3024 705.566 -7.59159 694.103 3.81674 687.839C12.8731 682.881 21.6816 687.113 31.1801 687.839C43.4377 688.753 52.7594 686.758 62.6114 679.545C68.5367 675.22 82.8463 673.598 89.6919 676.488C93.5125 678.11 95.5641 681.148 99.9155 682.491C108.299 685.063 118.682 684.522 126.624 688.474C130.162 690.225 131.842 692.947 134.796 695.52C139.503 699.639 144.861 701.876 150.202 704.839C158.427 709.276 166.895 713.247 175.567 716.732C182.925 719.789 192.618 722.473 200.33 720.87C207.316 719.397 212.817 718.222 218.707 724.057C223.836 729.146 224.155 737.329 231.69 740.833C241.564 745.492 250.744 746.648 249.294 760.572Z" stroke="#E8E8E8" stroke-opacity="0.59" stroke-width="1.4" stroke-linecap="round" stroke-linejoin="round"/>
<path d="M-42.5066 801.809C-27.4539 792.359 -7.00669 803.226 6.93137 806.693C18.9766 809.694 30.4035 814.146 42.9795 813.552C52.794 813.105 60.5614 809.265 69.9538 807.103C85.6074 803.487 100.643 801.772 111.556 787.475C115.685 782.318 118.474 776.222 119.676 769.729C120.259 766.132 120.985 761.583 119.41 758.098C117.642 754.258 113.273 753.121 111.398 749.43C109.524 745.74 110.602 742.198 109.364 738.451C107.932 734.164 105.42 731.107 104.394 726.559C102.626 718.749 97.8139 714.071 93.7815 706.876C86.4942 693.828 70.2563 693.958 57.4153 695.058C47.7931 695.879 38.4874 699.961 29.5567 703.539C21.4202 706.82 14.8405 703.689 6.68601 707.268C-0.389427 710.38 -9.05621 713.642 -13.8318 720.315C-17.723 725.758 -18.7135 732.282 -23.0453 737.632C-26.6892 742.143 -30.4563 748.517 -35.0025 752.134C-41.2817 757.129 -49.5594 759.31 -56.2278 764.007C-63.2146 768.984 -65.7794 773.178 -65.3913 782.423C-65.2145 786.393 -64.8405 790.27 -64.8405 794.296V796.16C-64.7564 805.089 -56.8147 810.793 -42.5066 801.809Z" stroke="#E8E8E8" stroke-opacity="0.59" stroke-width="1.4" stroke-linecap="round" stroke-linejoin="round"/>
<path d="M-24.3428 783.938C-14.4727 777.785 0.207929 789.53 11.0329 791.506C18.5855 792.829 26.0145 792.102 33.1074 794.879C36.3682 796.395 39.9117 797.208 43.5076 797.266C47.1035 797.324 50.6713 796.625 53.9792 795.215C65.335 790.928 63.0711 782.54 68.0059 773.108C72.0739 765.298 86.9498 762.521 80.8118 749.809C78.3707 744.739 71.9677 743.9 68.6248 739.817C66.3785 737.04 66.8562 733.741 65.6705 730.758C62.7697 723.305 55.7473 719.463 47.7701 719.798C42.0891 720.188 36.5505 721.75 31.5032 724.383C26.4559 727.017 22.0092 730.667 18.4433 735.102C14.4459 739.967 12.6242 742.555 6.48618 743.9C2.94846 744.645 3.21386 743.453 -0.270779 745.074C-11.4317 750.256 -16.5448 764.533 -28.0938 769.306C-36.0886 772.608 -51.8839 775.755 -47.7628 785.821C-45.0022 792.493 -32.4793 789.027 -24.3428 783.938Z" stroke="#E8E8E8" stroke-opacity="0.59" stroke-width="1.4" stroke-linecap="round" stroke-linejoin="round"/>
<path d="M56.9747 772.871C55.3653 780.327 52.5527 781.744 44.8068 782.191C41.0567 782.377 33.7339 783.384 30.4441 780.886C28.1091 779.135 27.8437 775.406 25.3145 773.43C20.7508 770.019 11.1641 774.344 8.67046 771.566C4.40767 766.795 16.5771 760.83 19.2831 758.947C29.0976 752.069 34.6187 743.252 47.7431 744.483C56.6753 745.321 56.5871 749.608 61.1328 756.207C64.2094 760.811 57.824 768.901 56.9747 772.871Z" stroke="#E8E8E8" stroke-opacity="0.59" stroke-width="1.4" stroke-linecap="round" stroke-linejoin="round"/>
<path d="M139.237 797.363C140.352 799.227 140.67 801.911 142.775 803.458C145.587 805.527 150.169 805.024 153.282 806.497C157.279 808.36 160.357 813.58 164.478 814.791C169.006 816.115 173.959 812.312 178.363 812.014C189.4 811.306 201.358 816.954 209.087 825.062C213.261 829.443 222.477 847.597 229.693 837.513C231.551 834.922 231.463 831.586 231.109 828.492C230.757 824.457 230.645 820.405 230.772 816.357C230.595 812.783 230.862 809.202 231.569 805.695C232.913 800.848 235.319 797.344 235.708 792.181C236.259 784.727 238.555 777.679 239.829 770.316C240.209 766.335 239.794 762.318 238.609 758.499C237.335 754.174 234.77 753.876 231.534 751.49C229.18 749.756 227.554 747.762 224.759 746.662C221.965 745.563 218.622 746.028 215.915 744.798C211.051 742.729 208.84 736.69 203.25 734.528C198.085 732.552 192.974 734.341 187.667 733.801C182.361 733.26 180.203 727.743 175.286 725.431C168.37 722.207 160.004 720.958 152.753 718.516C146.002 716.342 139.698 712.97 134.145 708.562C130.43 705.728 127.53 704.181 125.301 709.997C123.391 715.067 124.735 722.02 125.938 726.959C127.141 731.898 127.247 736.727 128.503 741.535C129.122 743.847 129.033 747.258 129.794 749.289C130.431 751.022 131.757 751.022 132.73 752.383C133.605 753.868 134.282 755.459 134.747 757.118C136.091 760.846 135.26 764.721 136.286 768.302C138.603 776.505 133.791 787.913 139.237 797.363Z" stroke="#E8E8E8" stroke-opacity="0.59" stroke-width="1.4" stroke-linecap="round" stroke-linejoin="round"/>
<path d="M149.989 785.061C150.52 785.807 151.758 784.297 152.554 784.411C152.554 791.978 158.356 794.812 164.034 798.298C170.755 802.417 178.361 797.757 185.56 799.548C189.487 800.518 192.458 803.277 196.42 804.488C199.64 805.513 203.248 806.089 205.884 808.216C209.086 810.863 210.183 813.025 214.622 813.342C220.053 813.733 220.689 812.354 221.132 806.632C221.538 801.357 220.937 796.007 221.238 790.713C221.539 785.42 224.033 781.99 222.847 776.603C221.468 770.284 219.964 764.878 214.463 761.486C209.935 758.862 205.075 756.856 200.013 755.521C194.53 753.843 190.638 750.302 185.597 747.823C180.289 745.194 174.4 743.221 168.952 740.572C165.857 739.062 162.142 738.503 159.365 736.452C155.35 733.47 153.882 726.909 149.901 724.355C141.146 718.763 138.528 737.552 139.377 742.995C139.908 746.462 142.667 749.016 144.117 752.035C145.284 754.496 147.054 760.759 148.044 762.828C151.526 770.223 145.391 778.666 149.989 785.061Z" stroke="#E8E8E8" stroke-opacity="0.59" stroke-width="1.4" stroke-linecap="round" stroke-linejoin="round"/>
<path d="M165.405 772.409C167.297 772.109 169.685 772.409 170.499 774.46C170.985 776.607 170.985 778.836 170.499 780.984C169.597 783.575 165.882 782.624 165.051 785.42C164.219 788.217 166.483 791.795 168.588 793.044C170.693 794.292 174.761 794.218 177.326 794.33C179.891 794.442 182.297 794.889 184.879 794.871C188.053 794.65 191.22 795.405 193.953 797.033C194.793 797.667 195.752 798.127 196.772 798.386C197.793 798.645 198.855 798.699 199.896 798.542C205.061 797.499 206.175 793.529 205.91 788.663C205.768 785.979 205.326 783.332 205.326 780.648C205.475 777.753 205.128 774.853 204.3 772.074C203.239 769.129 201.965 769.035 199.453 767.637C198.48 767.096 197.685 766.202 196.782 765.624C195.208 764.872 193.575 764.249 191.9 763.76C189.389 762.697 187.143 761.281 184.701 760.032C182.259 758.784 179.801 758.653 177.626 757.199C176.874 756.489 175.964 755.967 174.971 755.676C173.978 755.384 172.93 755.331 171.913 755.521C169.528 755.716 167.186 756.263 164.962 757.143C160.115 759.194 159.231 763.685 159.814 768.42C160.169 771.16 162.026 772.931 165.405 772.409Z" stroke="#E8E8E8" stroke-opacity="0.59" stroke-width="1.4" stroke-linecap="round" stroke-linejoin="round"/>
<path d="M113.73 764.44C113.341 766.304 114.385 769.417 114.137 771.709C114.025 773.846 113.464 775.935 112.493 777.841C109.22 783.321 102.552 786.919 97.2806 790.162C93.5522 792.477 89.6961 794.581 85.7306 796.462C82.6881 797.898 79.239 798.01 76.179 799.221C74.4099 799.967 70.8712 803.732 68.9799 803.21C65.5483 802.278 67.9008 795.306 69.2983 793.443C71.2973 790.796 74.8701 788.578 75.3302 784.999C75.5601 783.135 74.835 781.625 75.4714 779.873C76.3027 777.562 78.6732 776.406 80.3887 774.933C83.3956 772.382 82.5644 769.677 84.7046 766.582C85.9063 764.831 87.9063 763.881 88.9849 762.053C90.453 759.611 90.0815 755.976 90.1521 753.199C90.2758 747.178 89.073 743.002 84.0676 739.834C79.9285 737.206 77.3818 735.416 76.0904 730.18C75.0824 726.06 72.3759 722.295 71.9342 717.989C71.5802 714.727 73.8801 710.98 76.1264 708.855C81.5389 703.729 88.7731 708.205 91.6213 714.149C92.3288 715.622 92.3644 717.318 92.9302 718.846C93.496 720.374 94.805 722.183 95.6542 723.879C96.3093 725.402 96.6809 727.032 96.7508 728.688C97.0868 730.925 98.3958 731.95 99.4048 733.87C102.783 740.226 105.013 747.738 109.929 753.051C112.704 756.07 114.827 758.848 113.73 764.44Z" stroke="#E8E8E8" stroke-opacity="0.59" stroke-width="1.4" stroke-linecap="round" stroke-linejoin="round"/>
<path d="M105.164 767.177C105.145 769.086 104.798 770.977 104.138 772.769C102.9 775.788 99.7162 777.746 97.0628 779.237C95.2937 780.206 92.8356 780.71 91.385 782.07C89.9343 783.431 89.7225 786.172 88.1657 787.569C86.6089 788.966 84.8934 788.352 84.1503 786.245C82.7527 782.256 84.8578 778.51 87.2459 775.602C89.2311 773.407 91.0857 771.098 92.8 768.687C94.052 766.278 94.9118 763.686 95.3473 761.007C95.9312 758.901 97.1159 757.111 96.9922 754.781C96.7979 751.93 94.5692 749.636 93.7024 746.971C92.8754 744.25 92.2837 741.462 91.9338 738.639C91.4736 735.433 90.3419 734.538 88.0425 732.563C86.0966 730.885 81.1443 724.678 84.3456 722.031C88.4136 718.62 92.8005 730.214 93.9858 732.824C96.3027 737.876 100.778 742.144 102.282 747.456C103.166 750.643 103.06 754.241 104.74 757.428C106.421 760.615 105.323 763.411 105.164 767.177Z" stroke="#E8E8E8" stroke-opacity="0.59" stroke-width="1.4" stroke-linecap="round" stroke-linejoin="round"/>
<path d="M103.854 841.485C104.938 841.346 106.005 841.096 107.038 840.739C108.88 840.169 110.519 839.082 111.761 837.608C117.069 832.277 122.179 831.662 128.565 835.257C129.991 835.971 131.322 836.86 132.527 837.903C133.765 839.096 133.765 840.455 134.773 841.631C135.781 842.808 137.904 843.232 139.354 843.775C141.816 844.752 144.339 845.568 146.907 846.216C154.265 847.857 164.683 844.966 170.75 850.746C171.14 855.592 160.385 851.976 158.068 852.219C156.121 852.631 154.133 852.812 152.143 852.759C150.717 852.375 149.261 852.108 147.792 851.959C137.674 851.959 128.423 855.687 118.498 857.085C115.881 857.42 113.191 858.24 110.592 858.352C108.524 858.146 106.437 858.388 104.472 859.061C102.364 860.356 100.178 861.52 97.9271 862.546C95.0984 863.882 92.1331 864.907 89.083 865.603C86.8293 865.699 84.5743 865.447 82.3972 864.858C80.6285 864.522 78.3111 864.653 77.0893 863.143C76.3794 862.172 75.7858 861.121 75.3207 860.012C74.9316 858.819 75.4624 857.7 75.4269 856.47C75.4269 853.189 74.8961 849.367 78.8229 848.604C82.405 848.088 85.95 847.34 89.4355 846.367C96.0718 844.206 98.6366 841.615 103.854 841.485Z" stroke="#E8E8E8" stroke-opacity="0.59" stroke-width="1.4" stroke-linecap="round" stroke-linejoin="round"/>
<path d="M123.017 850.745C124.758 849.827 126.614 849.143 128.535 848.713C129.774 848.434 132.285 848.173 132.073 846.253C131.861 844.333 129.048 844.035 127.81 843.513C125.604 842.68 123.249 842.312 120.894 842.432C115.836 842.525 112.331 845.563 107.752 847.034C104.214 848.152 100.783 850.072 97.1394 850.575C94.5473 850.685 91.9878 851.195 89.5512 852.085C88.5252 852.551 83.8203 855.086 84.2434 856.428C84.5263 857.248 87.0205 857.919 87.7811 858.068C90.8017 858.507 93.8777 857.809 96.4128 856.111C97.8273 855.243 99.375 854.614 100.994 854.247C102.718 854.183 104.444 854.308 106.141 854.62C107.91 854.62 109.679 853.316 111.449 853.036C112.768 852.831 114.11 852.831 115.429 853.036C120.77 853.765 120.611 852.012 123.017 850.745Z" stroke="#E8E8E8" stroke-opacity="0.59" stroke-width="1.4" stroke-linecap="round" stroke-linejoin="round"/>
<path d="M128.219 1189.55C123.284 1189.2 117.002 1178.87 115.961 1174.36C115.183 1170.97 116.456 1167.22 115.661 1163.91C114.865 1160.59 112.618 1157.81 111.398 1154.83C110.477 1152.6 109.131 1150.57 107.436 1148.85C105.119 1145.9 105.667 1146.44 105.013 1142.43C103.704 1135.59 99.0542 1129.24 97.3367 1122.28C95.7799 1116 97.6902 1108.99 97.3367 1102.56C96.6466 1091.19 94.0819 1079.6 94.825 1068.25C95.4619 1058.37 98.7518 1049.12 100.133 1039.34C100.876 1034.14 101.247 1022.1 98.1519 1017.99C97.2851 1016.84 95.5515 1017.01 94.7559 1015.76C93.5175 1013.76 94.4729 1012.14 93.9246 1010.17C92.7729 1005.86 91.3954 1006.66 87.5567 1004.05C80.1458 999.038 75.9005 991.47 67.1977 988.021C59.9811 996.969 65.0946 1014.84 68.5066 1024.69C70.5762 1030.69 71.8851 1034.9 69.462 1041.02C67.039 1047.13 65.5708 1051.87 66.2428 1058.65C66.8437 1064.78 68.9313 1070.82 70.0985 1076.82C71.5666 1084.37 70.1871 1091.62 71.0359 1099.19C71.8294 1103.91 72.8626 1108.59 74.1314 1113.21C75.2987 1118.61 78.1819 1124.71 76.8554 1130.45C74.892 1138.89 68.0114 1145.7 71.6378 1154.14C73.5349 1158.04 75.0856 1162.1 76.2721 1166.28C77.581 1171.7 78.9761 1176.27 80.5524 1181.63C81.313 1184.28 80.6761 1187.73 81.9144 1190.11C83.1527 1192.5 85.4521 1192.99 86.8317 1195.04C88.9893 1198.22 88.2292 1200.12 91.6252 1203.03C94.0149 1204.89 96.6081 1206.47 99.3551 1207.75C107.05 1211.29 125.127 1219.3 128.275 1204.75" stroke="#E8E8E8" stroke-opacity="0.59" stroke-width="1.4" stroke-linecap="round" stroke-linejoin="round"/>
<path d="M109.687 1182.49C106.362 1182.27 104.487 1176.54 102.523 1174.1C99.198 1169.94 99.7112 1169.44 99.8194 1164.15C99.9611 1157.4 98.2631 1144.76 89.7726 1144.89C81.282 1145.02 86.2349 1162.99 87.9153 1168.68C89.1006 1172.61 87.9153 1177.66 89.3479 1181.22C91.1166 1185.56 97.2015 1188.67 101.199 1190.04" stroke="#E8E8E8" stroke-opacity="0.59" stroke-width="1.4" stroke-linecap="round" stroke-linejoin="round"/>
<path d="M136.768 1138.83C144.568 1144.82 138.448 1155.61 143.065 1162.51C146.319 1167.3 147.876 1162.1 151.555 1161.05C155.835 1159.82 160.929 1165.38 164.891 1167.07C172.939 1170.52 187.124 1173 190.999 1162.45C193.402 1155.89 191.335 1148.96 184.649 1146.1C180.952 1144.54 178.193 1143.96 175.628 1140.51C173.527 1137.72 171.652 1134.77 170.021 1131.68C169.051 1129.38 167.706 1127.27 166.041 1125.41C163.087 1122.17 163.406 1119.1 161.69 1115.18C159.444 1110.04 156.26 1107.05 155.464 1101.2C154.845 1096.62 153.518 1092.03 153.394 1087.39C153.129 1077.28 154.809 1067.22 154.349 1057.06C154.107 1051.69 155.068 1046.32 157.162 1041.37C158.648 1037.73 161 1034.92 161.814 1030.91C162.875 1025.67 162.681 1014.68 158.612 1010.69C154.544 1006.7 147.893 1007.8 143.701 1010.82C141.72 1012.25 138.218 1014.4 137.139 1016.69C136.06 1018.98 136.873 1020.7 137.139 1023.03C137.637 1026.3 137.702 1029.62 137.333 1032.91C136.82 1035.78 134.751 1038.03 133.795 1040.74C132.257 1045.36 134.997 1047.95 134.821 1052.57C134.99 1055.46 134.745 1058.36 134.096 1061.18C133.088 1064.24 131.019 1066.48 130.559 1069.76C129.972 1073.97 130.298 1078.26 131.514 1082.34C132.264 1084.93 132.465 1087.65 132.103 1090.33C131.741 1093 130.824 1095.57 129.41 1097.87C127.642 1100.94 124.458 1103.2 123.432 1106.59C122.304 1110.9 122.502 1115.44 123.998 1119.64C125.2 1122.25 129.306 1124.13 132.506 1123.65C135.706 1123.16 130.878 1134.32 136.768 1138.83Z" stroke="#E8E8E8" stroke-opacity="0.59" stroke-width="1.4" stroke-linecap="round" stroke-linejoin="round"/>
<path d="M146.812 1139.21C149.367 1144.88 153.467 1149.73 158.646 1153.19C162.767 1156.08 169.948 1165.27 174.565 1159.06C178.209 1154.19 174.741 1149.09 170.762 1146.2C165.163 1141.81 160.426 1136.43 156.788 1130.32C155.426 1128.21 153.003 1125.62 152.137 1123.23C151.724 1121.66 151.645 1120.03 151.907 1118.42C151.767 1116.2 151.411 1114 150.846 1111.84C150.049 1107.54 149.767 1103.23 148.723 1098.96C147.517 1094.97 146.921 1090.82 146.954 1086.64C147.29 1080.08 148.882 1073.59 149.342 1066.98C149.696 1061.74 148.511 1056.39 149.484 1051.26C150.032 1048.38 149.82 1045.43 150.422 1042.58C151.161 1040.31 151.717 1037.98 152.084 1035.63C152.539 1031.01 152.319 1026.36 151.429 1021.81C149.997 1016.59 147.202 1021.55 146.672 1024.42C145.982 1028.28 147.787 1031.88 148.105 1035.61C148.192 1036.84 147.915 1038.07 147.309 1039.15C146.417 1041.02 145.917 1043.06 145.841 1045.13C145.841 1048.23 146.601 1051.25 146.195 1054.36C145.558 1059.07 143.63 1063.49 142.993 1068.26C142.571 1071.5 142.37 1074.75 142.392 1078.01C142.191 1081.8 142.257 1085.6 142.587 1089.38C143.259 1093.95 143.807 1096.15 141.135 1100.05C138.269 1104.24 136.748 1108.04 137.597 1113.34C138.624 1117.31 140.824 1120.89 143.912 1123.61C146.724 1125.92 144.619 1134.29 146.812 1139.21Z" stroke="#E8E8E8" stroke-opacity="0.59" stroke-width="1.4" stroke-linecap="round" stroke-linejoin="round"/>
<path d="M298.832 1094.42C299.787 1092.55 300.902 1092.55 302.37 1091.81C304.624 1090.66 306.645 1089.11 308.329 1087.22C311.353 1084.13 315.811 1072.78 321.048 1077.62C324.585 1080.85 325.823 1088.92 322.958 1092.74C321.048 1095.29 317.65 1096.69 315.883 1099.38C314.414 1101.67 314.414 1104.8 312.858 1107.24C310.629 1110.75 307.375 1112.63 304.333 1115.22C301.29 1117.81 299.575 1119.79 295.807 1120.35C292.153 1120.72 288.534 1121.37 284.982 1122.3C282.523 1123.05 280.648 1124.32 278.314 1125.25C270.779 1128.25 261.28 1127.11 253.391 1126.89C249.59 1126.54 245.762 1127.18 242.283 1128.75C239.773 1129.98 237.192 1131.06 234.554 1131.98C230.344 1133.36 224.914 1135.17 220.492 1134.25C216.424 1133.43 216.954 1129.05 213.416 1127.13C209.083 1124.71 202.804 1124.88 197.94 1124.06C196.312 1123.78 192.632 1123.83 191.59 1122.19C190.882 1121.19 191.112 1119 190.829 1117.72C190.357 1115.35 189.615 1113.04 188.618 1110.84C187.522 1108.58 185.523 1107.11 184.426 1104.8C182.87 1101.65 182.781 1097.87 181.384 1094.51C180.244 1091.28 179.839 1087.83 180.198 1084.43C180.34 1081.82 180.198 1078.2 181.05 1075.87C182.305 1072.72 183.031 1073.1 182.819 1069.72C182.686 1067.82 182.686 1065.92 182.819 1064.02C183.19 1058.72 183.72 1053.45 184.358 1048.19C185.313 1040.31 184.908 1024.37 195.643 1024.43C199.201 1024.41 202.642 1025.7 205.318 1028.04C207.367 1030.7 209.195 1033.52 210.783 1036.47C214.321 1042.06 211.544 1046.74 210.412 1052.7C209.747 1056.13 209.905 1059.66 210.872 1063.01C211.42 1064.35 211.773 1064.41 211.916 1066.01C212.058 1067.62 212.004 1069.07 212.234 1070.67C212.645 1074.55 214.224 1078.21 216.762 1081.17C218.761 1083.35 220.633 1085.65 222.371 1088.05C223.998 1090.8 224.794 1094.22 226.81 1096.86C228.827 1099.51 231.197 1099.68 234.097 1100.33C237.389 1100.9 240.454 1102.39 242.941 1104.62C244.569 1106.2 244.887 1109.05 246.479 1110.41C248.071 1111.77 250.264 1110.95 252.104 1110.9C253.612 1110.93 255.099 1111.26 256.473 1111.89C260.011 1113 264.981 1114.78 268.641 1113.27C270.781 1112.39 271.896 1110.21 273.823 1109.03C275.751 1107.86 278.192 1107.97 280.297 1107.43C283.941 1106.48 286.771 1103.91 289.742 1102.64C291.756 1102 293.607 1100.93 295.175 1099.51C296.742 1098.09 297.989 1096.36 298.832 1094.42V1094.42Z" stroke="#E8E8E8" stroke-opacity="0.59" stroke-width="1.4" stroke-linecap="round" stroke-linejoin="round"/>
<path d="M211.726 1088.02C211.55 1093.52 218.342 1100.68 221.154 1103.16C223.489 1105.19 225.7 1107.93 228.442 1109.38C230.405 1110.41 231.873 1110.09 232.704 1112.48C233.274 1115.19 233.464 1117.96 233.27 1120.72C233.27 1123.94 231.413 1125.67 228.563 1126.66C227.13 1127.26 225.551 1127.41 224.031 1127.09C222.512 1126.78 221.12 1126.02 220.038 1124.91C216.934 1121.86 213.348 1119.34 209.425 1117.46C203.605 1114.96 196.656 1114.7 195.275 1107.06C194.603 1103.33 194.762 1100.05 193.172 1096.51C192.464 1094.94 191.297 1093.65 190.624 1092.09C189.973 1089.99 189.751 1087.79 189.97 1085.6C189.97 1078.01 186.238 1069.42 188.378 1061.95C190.235 1055.37 189.864 1048.32 191.916 1041.83C193.313 1037.32 197.063 1037.44 198.991 1041.83C201.326 1047.33 200.211 1054.75 199.752 1060.47C199.38 1065.1 200.477 1066.46 203.165 1069.79C204.781 1071.92 206.169 1074.2 207.304 1076.62C209.197 1080.83 211.903 1082.6 211.726 1088.02Z" stroke="#E8E8E8" stroke-opacity="0.59" stroke-width="1.4" stroke-linecap="round" stroke-linejoin="round"/>
<path d="M299.658 1142.01C304.646 1144.69 312.446 1141.06 317.257 1138.45C322.068 1135.84 324.828 1131.21 326.915 1126.35C329.374 1120.76 334.521 1118.29 338.554 1114.08C341.879 1110.62 342.869 1104.45 347.203 1101.99C350.316 1100.21 354.278 1100.59 357.391 1099.02C359.673 1097.87 361.017 1095.46 362.556 1093.43C364.095 1091.4 365.952 1089.12 368.534 1090.06C371.435 1091.12 370.144 1095.91 369.56 1098.28C368.054 1105.47 363.861 1111.82 357.833 1116.04C354.915 1117.9 351.943 1119.77 349.113 1121.84C346.92 1123.48 345.204 1125.57 342.976 1127.15C340.239 1129 337.754 1131.19 335.581 1133.67C333.512 1136.3 333.087 1139.8 331.283 1142.56C329.479 1145.32 327.338 1147.95 325.446 1150.56C323.553 1153.17 320.138 1154.9 317.484 1156.58C311.789 1160.07 306.305 1164.03 299.796 1165.6C297.407 1166.08 295.121 1166.98 293.04 1168.25C290.945 1169.98 288.454 1171.17 285.788 1171.72C277.776 1172.61 272.805 1166.12 266.03 1163.03C259.716 1160.08 252.57 1159.51 245.742 1158.98C241.957 1158.7 238.154 1158.52 234.369 1158.2C231.874 1157.82 229.327 1157.95 226.887 1158.59C225.103 1159.63 223.24 1160.52 221.315 1161.26C219 1161.84 216.626 1162.14 214.24 1162.17C212.472 1162.17 209.146 1163.31 207.607 1162.58C206.069 1161.86 205.237 1158.71 205.131 1156.99C204.371 1146.18 225.136 1152.5 230.23 1152.67C235.608 1153.13 241.025 1152.5 246.149 1150.8C250.766 1148.94 254.445 1145.58 259.292 1144.48C262.155 1143.55 265.128 1143 268.136 1142.84C269.487 1143.11 270.792 1143.58 272.009 1144.22C275.14 1145.3 276.997 1144.35 279.863 1143.31C284.906 1141.5 293.308 1138.65 299.658 1142.01Z" stroke="#E8E8E8" stroke-opacity="0.59" stroke-width="1.4" stroke-linecap="round" stroke-linejoin="round"/>
<path d="M294.455 1148.6C297.073 1148.6 299.408 1149.55 302.079 1149.22C303.848 1148.98 305.705 1148.38 307.545 1148.15C310.799 1147.76 313.311 1148.94 310.375 1152.74C308.235 1155.48 303.494 1155.83 300.505 1156.82C296.826 1158.03 293.801 1160.33 290.334 1162.04C289.095 1162.84 287.68 1163.32 286.213 1163.44C284.091 1163.31 282.675 1161.24 280.765 1160.31C278.315 1159.19 275.673 1158.56 272.983 1158.44C270.347 1158.26 267.287 1158.44 265.306 1156.23C263.643 1154.36 263.854 1153.39 265.872 1152.5C267.738 1151.33 269.864 1150.63 272.062 1150.47C274.999 1150.67 277.634 1152.83 281.631 1150.84C287.382 1147.97 288.902 1148.6 294.455 1148.6Z" stroke="#E8E8E8" stroke-opacity="0.59" stroke-width="1.4" stroke-linecap="round" stroke-linejoin="round"/>
<path d="M290.9 1074.26C294.773 1072.08 294.826 1067.67 297.02 1064.22C299.814 1059.86 303.458 1061.5 306.89 1058.46C310.003 1055.7 308.342 1050.2 307.19 1046.9C304.855 1040.21 307.632 1037.95 309.525 1031.6C312.161 1022.61 305.899 1017.75 298.276 1022C292.76 1024.88 287.815 1028.74 283.683 1033.39C281.329 1036.31 280.428 1038.98 277.244 1041.4C273.098 1044.46 268.755 1047.23 264.243 1049.72C261.944 1051.02 259.857 1052.46 257.168 1052.32C255.204 1052.23 253.63 1051.19 251.51 1051.32C247.901 1051.82 244.348 1052.65 240.897 1053.82C235.944 1055.25 233.026 1056.82 233.008 1062.2C233.008 1066.94 232.743 1070.14 235.838 1073.91C238.492 1077.13 239.765 1080.36 242.082 1083.83C244.399 1087.29 246.274 1086.38 250.378 1086.53C254.348 1086.44 258.219 1087.76 261.309 1090.25C263.821 1092.29 265.306 1095.4 268.384 1095.85C277.598 1097.11 283.72 1084.22 289.998 1079.97C292.58 1078.1 288.051 1075.87 290.9 1074.26Z" stroke="#E8E8E8" stroke-opacity="0.59" stroke-width="1.4" stroke-linecap="round" stroke-linejoin="round"/>
<path d="M284.945 1064.27C281.814 1059.57 287.828 1057.8 289.084 1055.92C290.34 1054.04 291.437 1047.9 290.093 1045.83C286.891 1040.93 285.458 1046.13 283.123 1048.28C279.164 1051.54 274.733 1054.2 269.981 1056.14C264.673 1058.58 257.139 1058.86 253.797 1064.57C249.021 1072.75 257.157 1070.48 260.076 1074.43C260.927 1075.58 260.164 1077.45 261.438 1078.94C262.208 1079.75 263.175 1080.35 264.244 1080.67C265.313 1081 266.448 1081.04 267.54 1080.8C270.8 1080.05 273.832 1078.53 276.384 1076.37C277.516 1075.42 278.471 1074 279.339 1073.89C284.184 1073.23 287.033 1067.36 284.945 1064.27Z" stroke="#E8E8E8" stroke-opacity="0.59" stroke-width="1.4" stroke-linecap="round" stroke-linejoin="round"/>
<path d="M54.7419 194.083C55.6617 200.215 57.5896 203.887 56.1214 210.206C54.0343 219.116 49.2938 225.118 49.5237 234.624C49.8066 245.342 47.9143 247.374 42.8729 256.34C38.9461 263.311 38.3978 271.606 35.6562 279.118C33.3568 285.437 33.1976 289.854 32.1185 296.378C30.8802 303.946 27.0776 310.638 25.9454 318.317C24.1768 330.508 29.9603 339.548 30.4911 351.142C30.7565 356.994 29.1116 362.773 29.039 368.682C28.8442 382.233 24.2103 390.062 20.4763 402.457C17.3632 412.84 19.9811 424.061 19.0242 434.686C17.5916 450.716 4.25241 457.538 1.90244 472.767C-1.33433 493.55 -18.9693 499.329 -33.8448 509.356C-40.0354 513.532 -44.6342 520.279 -50.8784 524.138C-58.3249 528.76 -66.196 531.594 -73.5368 537.186C-80.3469 542.293 -96.2483 548.91 -97.4686 558.659C-87.6872 564.53 -72.8473 551.205 -64.5516 545.611C-54.3811 538.695 -45.5736 537.539 -34.2699 533.83C-19.8542 529.096 -7.41981 518.751 6.73056 512.767C20.5025 507.402 35.2461 504.977 50.0129 505.647C67.6124 506.542 81.2144 520.95 99.274 522.104C111.921 522.905 133.801 520.854 137.286 538.526C138.718 545.795 130.617 551.965 134.491 558.042C136.879 561.77 147.492 563.857 151.613 565.945C160.457 570.363 169.689 570.251 179.825 568.909C191.835 567.325 202.501 559.123 213.625 554.538C224.326 550.139 234.267 553.888 245.251 551.574C256.554 549.207 261.488 541.881 270.368 535.842C279.778 529.449 291.31 529.859 301.905 527.585C313.455 525.106 320.902 519.812 329.782 511.834C334.699 507.417 336.645 500.129 341.173 496.68C346.481 492.617 354.616 497.351 360.134 495.079C366.608 492.433 369.298 481.826 372.834 475.825C376.37 469.823 382.899 464.473 385.903 457.8C390.166 448.48 380.403 444.006 375.114 436.308C372.974 433.195 357.125 421.787 357.232 419.14C357.408 414.462 379.289 408.235 383.41 405.999C391.421 401.638 408.173 389.392 417.565 392.802C423.668 395.003 426.409 405.645 427.134 411.964C428.071 419.568 424.658 422.123 430.566 426.371C434.74 429.372 442.364 429.465 447.122 429.726C452.441 430.261 457.812 429.965 463.041 428.85C468.665 427.321 471.885 422.531 477.191 420.742C487.998 417.014 497.249 424.283 508.481 417.144C521.234 409.036 520.332 397.348 523.816 383.593C524.807 379.678 524.718 375.615 526.664 371.999C529.936 365.941 536.569 363.965 541.256 359.548C551.622 349.78 551.869 334.386 556.291 321.318C562.128 304.169 577.198 298.092 582.346 280.403C585.176 270.692 585.087 261.633 586.255 251.68C587.333 242.62 591.03 234.494 593.578 225.845C596.549 215.798 598.388 209.311 605.959 201.799C610.752 197.064 623.222 188.304 618.818 180.643" stroke="#E8E8E8" stroke-opacity="0.59" stroke-width="1.4" stroke-linecap="round" stroke-linejoin="round"/>
<path d="M108.406 197.848C111.696 200.532 100.04 220.514 98.5715 226.385C94.3087 243.497 99.7037 259.117 93.2637 275.818C87.3049 291.494 80.9886 304.02 78.8659 321.113C78.0522 327.562 78.3001 334.347 76.9381 340.591C75.3107 348.045 71.2427 354.998 69.1025 362.401C66.9624 369.805 64.1678 376.493 63.1773 384.024C62.1868 391.555 64.5393 400.8 62.3811 407.827C59.4097 417.464 54.1915 426.597 51.3083 436.626C48.089 447.81 38.4668 456.607 39.0682 468.686C39.4573 476.514 41.5975 476.869 48.8827 479.515C56.168 482.162 59.3011 485.107 65.4572 488.984C70.8696 492.321 77.5024 492.488 83.4988 493.586C92.0349 495.176 100.442 497.394 108.651 500.222C115.16 502.458 121.316 505.311 127.754 508.088C133.503 510.586 147.211 513.456 150.306 519.104C152.075 522.31 150.925 530.456 151.898 534.611C153.207 540.203 154.268 542.589 159.203 545.683C173.938 554.872 180.429 540.408 193.147 536.456C200.717 534.126 208.5 531.666 216.424 531.2C226.754 530.604 233.511 534.742 243.822 531.685C254.7 528.46 260.998 521.023 270.266 515.245C281.498 508.255 295.418 511.815 306.243 504.732C314.555 499.289 318.164 489.242 326.814 483.93C336.278 478.114 347.279 472.525 350.233 459.94C354.266 442.736 338.806 441.543 336.863 426.817C335.094 413.117 346.096 397.459 353.808 387.674C358.177 382.081 360.264 373.806 365.04 368.829C371.796 361.783 383.523 362.342 392.35 363.554C400.612 364.672 405.492 367.506 413.84 366.443C420.916 365.548 429.583 362.715 436.233 367.003C442 370.73 442.3 376.322 442.583 382.66C442.707 385.344 440.443 394.384 441.115 396.36C445.13 408.14 469.575 410.657 478.878 406.332C487.156 402.474 484.963 399.995 486.89 392.073C489.331 382.1 495.097 376.639 500.775 368.586C510.114 355.371 523.893 333.62 527.715 317.588C530.598 305.582 527.22 297.084 534.1 286.142C540.981 275.201 546.482 267.987 549.914 255.014C553.716 240.624 550.444 234.51 546.376 220.922C542.697 208.526 545.279 199.169 550.338 188.134" stroke="#E8E8E8" stroke-opacity="0.59" stroke-width="1.4" stroke-linecap="round" stroke-linejoin="round"/>
<path d="M149.099 205.378C153.149 208.417 147.471 225.155 145.932 230.002C141.086 245.305 136.398 261.316 130.526 276.21C126.988 285.324 122.602 291.942 120.674 301.877C118.179 314.552 120.125 327.973 118.003 340.554C116.782 347.898 112.394 351.738 109.159 357.889C104.286 366.711 100.423 376.052 97.6417 385.737C96.0673 391.963 97.4469 398.636 95.6783 404.675C93.5556 411.87 87.5062 417.164 84.8178 424.452C80.8734 435.151 72.1706 446.167 69.0755 457.517C65.308 471.403 84.6585 473.715 94.3869 477.033C99.534 478.784 101.94 480.221 107.741 480.071C118.354 479.829 121.273 480.5 130.134 485.365C139.668 490.584 155.552 487.807 162.786 497.257C168.853 505.161 162.503 521.489 170.87 526.037C183.464 532.84 201.222 513.828 213.02 512.057C220.537 510.939 228.092 514.946 235.253 513.716C243.937 512.206 249.845 502.066 257.027 497.408C273.229 486.914 292.986 483.522 309.577 473.27C321.075 466.167 321.269 456.233 321.606 442.943C321.765 436.68 321.729 433.623 318.068 428.273C314.406 422.923 308.854 420.276 310.533 412.634C311.541 408.032 317.165 404.431 319.66 400.667C323.285 395.187 324.367 389.167 327 383.202C328.928 378.803 332.112 375.094 333.863 370.639C336.127 364.805 334.464 358.504 336.781 352.78C342.089 339.882 358.856 339.732 369.858 337.458C385.317 334.289 400.581 326.704 416.326 325.398C430.671 324.205 449.155 328.94 457.274 342.417C461.272 349.07 457.946 358.578 461.962 363.647C465.694 368.382 480.534 368.177 484.445 365.81C492.086 361.208 490.229 350.376 490.034 342.38C489.857 333.805 491.413 328.009 494.12 319.863C497.498 309.686 499.815 299.359 502.964 289.126C505.299 281.672 504.627 273.953 506.802 266.515C510.34 254.399 523.553 244.763 516.442 230.652C510.552 218.947 499.479 217.325 499.373 201.966C499.373 192.757 502.539 177.007 509.137 169.998" stroke="#E8E8E8" stroke-opacity="0.59" stroke-width="1.4" stroke-linecap="round" stroke-linejoin="round"/>
<path d="M194.564 205.378C193.22 205.378 193.821 212.592 193.521 215.742C191.982 231.642 186.056 245.92 181.052 260.794C176.436 274.513 175.038 290.358 168.158 303.051C162.586 313.34 158.111 323.871 152.858 334.31C150.416 339.175 147.55 343.443 146.648 348.942C145.675 355.633 147.55 361.002 144.88 367.581C142.492 373.415 138.282 377.274 137.345 383.854C136.602 389.129 137.681 392.763 135.576 397.964C132.132 405.457 129.178 413.165 126.732 421.04C124.185 430.025 123.99 430.062 127.864 439.475C129.332 443.073 129.209 447.547 130.676 450.753C133.33 456.568 134.815 455.114 140.635 457.183C147.285 459.535 153.547 463.036 160.427 465.068C164.99 466.41 178.009 466.354 181.069 469.244C183.51 471.555 181.582 473.941 182.396 477.147C183.811 482.739 184.995 482.049 188.639 486.169C193.433 491.593 192.672 494.202 193.346 501.36C207.497 505.48 222.85 499.683 232.26 488.163C238.68 480.297 240.042 479.216 250.284 477.108C259.605 475.244 268.573 473.25 277.187 468.981C285.288 464.974 290.948 461.768 291.797 451.963C292.487 444.19 291.231 437.797 292.54 429.987C293.371 425.159 294.309 421.73 292.859 417.088C291.744 413.546 288.102 411.049 287.375 407.209C285.235 395.745 297.281 384.114 303.012 376.062C308.069 368.958 312.899 362.25 313.359 352.874C313.854 342.435 305.611 338.595 313.818 329.387C326.642 315.035 345.126 315.389 361.912 316.749C382.059 318.371 392.866 298.109 412.818 296.358C421.467 295.631 425.872 297.737 432.523 301.745C439.173 305.752 440.694 304.764 448.671 303.907C459.284 302.826 469.667 306.721 473.081 292.294C474.443 286.46 472.037 279.879 472.904 274.027C473.665 268.919 476.265 264.8 478.069 260.065C483.605 245.509 475.734 237.064 469.88 224.184C462.804 208.731 475.187 197.175 477.362 182.039" stroke="#E8E8E8" stroke-opacity="0.59" stroke-width="1.4" stroke-linecap="round" stroke-linejoin="round"/>
<path d="M234.537 208.379C237.791 213.971 235.738 222.75 234.537 228.752C231.848 242.732 223.517 244.466 214.657 253.432C212.349 256.332 210.257 259.397 208.398 262.603C202.384 271.494 202.72 279.378 200.208 289.481C197.554 300.217 189.684 311.7 185.492 321.914C182.874 328.233 178.877 336.397 179.956 343.686C181.424 353.64 186.412 353.434 182.45 364.19C177.71 377.07 170.741 389.149 164.55 401.283C158.36 413.417 160.535 419.196 171.484 426.744C179.479 432.337 186.82 437.761 191.578 447.025C195.894 455.394 196.194 466.28 204.932 471.797C215.545 478.47 229.429 473.661 237.089 465.404C244.748 457.146 254.476 455.133 262.736 447.379C268.839 441.656 273.968 434.331 273.155 425.44C272.376 416.94 266.362 411.796 267.088 402.942C268.396 387.079 281.362 375.597 286.544 361.692C291.232 349.221 290.223 335.167 293.124 322.548C296.821 306.332 312.793 297.31 327.863 297.422C342.509 297.422 351.76 293.06 364.831 285.902C373.374 281.224 381.706 276.825 391.363 274.942C399.024 273.414 406.769 274.942 414.357 273.171C428.207 269.947 434.292 251.829 436.891 238.52C438.217 231.772 440.729 221.949 439.951 215.239C438.429 201.856 426.702 198.239 437.315 185.154" stroke="#E8E8E8" stroke-opacity="0.59" stroke-width="1.4" stroke-linecap="round" stroke-linejoin="round"/>
<path d="M271.789 206.868C268.145 215.293 265.83 224.613 261.955 233.225C259.832 237.922 258.134 242.729 254.154 246.142C250.899 248.919 247.415 249.591 244.815 253.337C240.923 258.929 241.277 267.13 238.818 273.468C234.839 283.813 230.857 294.084 226.967 304.596C220.069 323.236 213.153 342.528 209.279 362.173C206.538 376.079 198.561 394.271 201.09 408.251C203.177 419.751 209.686 434.513 221.732 436.471C232.132 438.149 243.134 434.384 248.653 424.486C250.958 419.619 252.303 414.354 252.615 408.979C252.916 402.306 247.307 396.192 247.998 390.339C248.423 386.779 253.039 384.337 254.702 381.467C256.669 377.693 257.934 373.594 258.434 369.37C259 364.666 258.929 359.907 258.222 355.222C257.391 348.978 253.924 342.323 253.906 335.949C253.906 320.925 267.42 321.149 272.425 310.787C277.733 299.939 280.721 290.878 288.203 280.964C297.295 268.829 305.025 276.099 316.716 271.14C321.934 268.922 324.039 263.871 328.09 260.348C333.237 256.26 339.021 253.042 345.211 250.823C357.451 245.902 359.946 236.06 362.899 222.491C366.139 207.299 354.604 198.519 355.347 183.607" stroke="#E8E8E8" stroke-opacity="0.59" stroke-width="1.4" stroke-linecap="round" stroke-linejoin="round"/>
<path d="M296.567 209.125C295.941 209.009 295.296 209.054 294.692 209.256C293.366 226.031 279.427 230.635 275.359 245.249C270.956 261.9 262.807 277.328 251.534 290.357C240.815 303.219 241.292 325.027 236.605 341.131C232.767 354.179 224.223 363.965 223.003 378.112C222.366 385.716 214.619 409.8 220.916 415.019C234.218 426.203 238.179 392.838 238.728 386.687C239.47 378.28 242.265 371.197 243.609 363.033C244.547 356.937 242.937 350.527 243.857 344.393C244.724 338.801 247.2 333.582 248.156 327.972C249.924 317.962 250.844 311.084 257 302.696C262.748 294.774 267.612 286.293 273.096 278.296C276.952 272.704 281.94 268.548 285.902 263.049C288.944 258.817 289.952 253.394 293.295 249.443C302.422 238.65 317.227 239.153 325.239 225.211C335.392 207.41 323.47 189.59 324.479 171.547" stroke="#E8E8E8" stroke-opacity="0.59" stroke-width="1.4" stroke-linecap="round" stroke-linejoin="round"/>
<path d="M111.868 447.629C111.749 450.373 112.36 453.1 113.637 455.533C115.405 459.969 116.697 459.708 120.288 461.982C122.251 463.233 122.641 464.666 124.073 466.214C126.266 468.581 129.185 469.177 125.417 472.42C119.828 477.267 107.977 471.694 101.857 470.948C98.6376 470.575 96.0197 469.084 92.8891 468.45C88.3259 467.388 83.6385 468.133 79.3051 465.878C69.0109 460.528 85.9203 445.654 89.405 439.932C92.465 434.879 93.2607 429.027 94.7128 423.361C96.2788 417.791 98.3205 412.366 100.815 407.144C102.991 402.429 105.839 399.204 106.971 394.096C107.69 390.499 108.145 386.855 108.333 383.191C108.722 378.476 111.004 361.513 118.362 371.057C123.934 378.289 115.249 387.982 115.019 395.792C114.896 399.519 115.019 401.887 113.481 405.354C111.942 408.821 109.589 411.114 109.466 415.14C109.306 420.229 109.589 425.355 109.466 430.537C109.377 432.401 108.915 438.962 108.758 439.67C107.711 443.771 112.699 440.341 111.868 447.629Z" stroke="#E8E8E8" stroke-opacity="0.59" stroke-width="1.4" stroke-linecap="round" stroke-linejoin="round"/>
<path d="M177.286 463.498C173.093 464.02 172.067 461.447 169.023 459.771C165.979 458.094 163.31 459.286 160.834 457.199C159.878 456.416 159.682 454.924 158.552 454.011C157.101 453.132 155.559 452.413 153.953 451.868C149.6 450.501 145.492 448.45 141.785 445.791C138.548 443.424 133.454 443.163 132.605 438.633C132.128 436.061 133.507 433.041 133.757 430.562C134.217 425.884 134.04 422.044 135.526 417.514C136.605 414.141 138.586 406.331 142 404.466C142.574 404.135 143.224 403.955 143.887 403.945C144.55 403.934 145.205 404.093 145.79 404.406C146.389 404.733 146.902 405.199 147.285 405.764C147.669 406.328 147.912 406.976 147.996 407.654C149.022 412.444 145.926 417.719 147.784 422.566C148.88 425.436 152.081 427.803 153.904 430.019C156.114 432.796 157.105 435.387 160.147 437.195C167.47 441.482 175.801 444.649 179.463 453.766C180.876 457.273 181.657 462.939 177.286 463.498Z" stroke="#E8E8E8" stroke-opacity="0.59" stroke-width="1.4" stroke-linecap="round" stroke-linejoin="round"/>
</g>
<defs>
<clipPath id="clip0_939_2071">
<rect width="1017" height="1088" fill="white" transform="translate(-175 170)"/>
</clipPath>
</defs>
</svg>
