<svg width="168" height="48" viewBox="0 0 168 48" fill="none" xmlns="http://www.w3.org/2000/svg">
<path d="M60.0781 23.5039C60.0781 20.4883 60.8867 18.1641 62.5039 16.5312C63.9102 15.1094 65.6992 14.3984 67.8711 14.3984C70.7773 14.3984 72.9023 15.3516 74.2461 17.2578C74.9883 18.3281 75.3867 19.4023 75.4414 20.4805H71.832C71.5977 19.6523 71.2969 19.0273 70.9297 18.6055C70.2734 17.8555 69.3008 17.4805 68.0117 17.4805C66.6992 17.4805 65.6641 18.0117 64.9062 19.0742C64.1484 20.1289 63.7695 21.625 63.7695 23.5625C63.7695 25.5 64.168 26.9531 64.9648 27.9219C65.7695 28.8828 66.7891 29.3633 68.0234 29.3633C69.2891 29.3633 70.2539 28.9492 70.918 28.1211C71.2852 27.6758 71.5898 27.0078 71.832 26.1172H75.4062C75.0938 28 74.293 29.5312 73.0039 30.7109C71.7227 31.8906 70.0781 32.4805 68.0703 32.4805C65.5859 32.4805 63.6328 31.6836 62.2109 30.0898C60.7891 28.4883 60.0781 26.293 60.0781 23.5039ZM84.9453 18.8984C85.7344 18.8984 86.4492 19.0352 87.0898 19.3086C87.7383 19.582 88.2695 20 88.6836 20.5625C89.0352 21.0391 89.25 21.5312 89.3281 22.0391C89.4062 22.5391 89.4453 23.3594 89.4453 24.5V32H86.0352V24.2305C86.0352 23.543 85.918 22.9883 85.6836 22.5664C85.3789 21.9727 84.8008 21.6758 83.9492 21.6758C83.0664 21.6758 82.3945 21.9727 81.9336 22.5664C81.4805 23.1523 81.2539 23.9922 81.2539 25.0859V32H77.9258V14.7852H81.2539V20.8906C81.7383 20.1484 82.2969 19.6328 82.9297 19.3438C83.5703 19.0469 84.2422 18.8984 84.9453 18.8984ZM99.6172 25.7891C99.4062 25.9219 99.1914 26.0312 98.9727 26.1172C98.7617 26.1953 98.4688 26.2695 98.0938 26.3398L97.3438 26.4805C96.6406 26.6055 96.1367 26.7578 95.832 26.9375C95.3164 27.2422 95.0586 27.7148 95.0586 28.3555C95.0586 28.9258 95.2148 29.3398 95.5273 29.5977C95.8477 29.8477 96.2344 29.9727 96.6875 29.9727C97.4062 29.9727 98.0664 29.7617 98.668 29.3398C99.2773 28.918 99.5938 28.1484 99.6172 27.0312V25.7891ZM97.5898 24.2305C98.207 24.1523 98.6484 24.0547 98.9141 23.9375C99.3906 23.7344 99.6289 23.418 99.6289 22.9883C99.6289 22.4648 99.4453 22.1055 99.0781 21.9102C98.7188 21.707 98.1875 21.6055 97.4844 21.6055C96.6953 21.6055 96.1367 21.8008 95.8086 22.1914C95.5742 22.4805 95.418 22.8711 95.3398 23.3633H92.1172C92.1875 22.2461 92.5 21.3281 93.0547 20.6094C93.9375 19.4844 95.4531 18.9219 97.6016 18.9219C99 18.9219 100.242 19.1992 101.328 19.7539C102.414 20.3086 102.957 21.3555 102.957 22.8945V28.7539C102.957 29.1602 102.965 29.6523 102.98 30.2305C103.004 30.668 103.07 30.9648 103.18 31.1211C103.289 31.2773 103.453 31.4062 103.672 31.5078V32H100.039C99.9375 31.7422 99.8672 31.5 99.8281 31.2734C99.7891 31.0469 99.7578 30.7891 99.7344 30.5C99.2734 31 98.7422 31.4258 98.1406 31.7773C97.4219 32.1914 96.6094 32.3984 95.7031 32.3984C94.5469 32.3984 93.5898 32.0703 92.832 31.4141C92.082 30.75 91.707 29.8125 91.707 28.6016C91.707 27.0312 92.3125 25.8945 93.5234 25.1914C94.1875 24.8086 95.1641 24.5352 96.4531 24.3711L97.5898 24.2305ZM109.367 17.7031H105.98V14.6211H109.367V17.7031ZM105.98 19.2266H109.367V32H105.98V19.2266ZM119.691 18.9219C121.012 18.9219 122.09 19.2695 122.926 19.9648C123.77 20.6523 124.191 21.7969 124.191 23.3984V32H120.77V24.2305C120.77 23.5586 120.68 23.043 120.5 22.6836C120.172 22.0273 119.547 21.6992 118.625 21.6992C117.492 21.6992 116.715 22.1797 116.293 23.1406C116.074 23.6484 115.965 24.2969 115.965 25.0859V32H112.637V19.25H115.859V21.1133C116.289 20.457 116.695 19.9844 117.078 19.6953C117.766 19.1797 118.637 18.9219 119.691 18.9219ZM130.695 32H127.355V14.7266H130.695V32ZM137.398 17.7031H134.012V14.6211H137.398V17.7031ZM134.012 19.2266H137.398V32H134.012V19.2266ZM147.723 18.9219C149.043 18.9219 150.121 19.2695 150.957 19.9648C151.801 20.6523 152.223 21.7969 152.223 23.3984V32H148.801V24.2305C148.801 23.5586 148.711 23.043 148.531 22.6836C148.203 22.0273 147.578 21.6992 146.656 21.6992C145.523 21.6992 144.746 22.1797 144.324 23.1406C144.105 23.6484 143.996 24.2969 143.996 25.0859V32H140.668V19.25H143.891V21.1133C144.32 20.457 144.727 19.9844 145.109 19.6953C145.797 19.1797 146.668 18.9219 147.723 18.9219ZM155.281 14.7852H158.562V24.0898L162.723 19.2852H166.859L162.395 24.1719L167.035 32H163.004L159.945 26.5391L158.562 27.9805V32H155.281V14.7852Z" fill="white"/>
<path d="M8.21539 14.8868L24 5.7735L39.7846 14.8868V33.1132L24 42.2265L8.21539 33.1132V14.8868Z" stroke="white" stroke-width="10"/>
</svg>
