<svg width="120" height="120" viewBox="0 0 120 120" fill="none" xmlns="http://www.w3.org/2000/svg">
<path d="M60 120C93.1371 120 120 93.1371 120 60C120 26.8629 93.1371 0 60 0C26.8629 0 0 26.8629 0 60C0 93.1371 26.8629 120 60 120Z" fill="url(#paint0_linear_1533_3201)"/>
<path d="M23.4983 65.2457C22.4605 65.2461 21.446 64.9386 20.5831 64.3622C19.7201 63.7858 19.0475 62.9664 18.6504 62.0076C18.2532 61.0489 18.1493 59.994 18.3519 58.9762C18.5544 57.9584 19.0543 57.0235 19.7882 56.2899L36.732 39.3461C37.7157 38.3621 39.05 37.8093 40.4413 37.8091C41.8326 37.8089 43.167 38.3613 44.151 39.3449C45.1349 40.3286 45.6878 41.6628 45.6881 43.0541C45.6883 44.4455 45.1358 45.7799 44.1521 46.7639L27.2084 63.71C26.7218 64.1979 26.1434 64.5848 25.5067 64.8483C24.87 65.1118 24.1874 65.247 23.4983 65.2457Z" fill="black"/>
<path d="M40.4425 82.1918C39.7533 82.1924 39.0708 82.0568 38.4341 81.7928C37.7975 81.5289 37.2192 81.1418 36.7325 80.6538L19.7887 63.71C18.8047 62.726 18.252 61.3915 18.252 60C18.252 58.6084 18.8047 57.2739 19.7887 56.2899C20.7727 55.3059 22.1072 54.7532 23.4987 54.7532C24.8903 54.7532 26.2249 55.3059 27.2089 56.2899L44.1526 73.2337C44.8862 73.9676 45.3858 74.9026 45.5882 75.9204C45.7905 76.9382 45.6866 77.9931 45.2895 78.9519C44.8924 79.9106 44.22 80.7302 43.3573 81.3069C42.4946 81.8836 41.4802 82.1915 40.4425 82.1918Z" fill="black"/>
<path d="M96.5025 54.7517C97.5397 54.7525 98.5535 55.0607 99.4157 55.6373C100.278 56.2138 100.95 57.033 101.347 57.9913C101.744 58.9495 101.848 60.0039 101.646 61.0213C101.444 62.0387 100.945 62.9735 100.213 63.7075L83.2664 80.6537C82.2824 81.6373 80.948 82.1899 79.5567 82.1897C78.1654 82.1894 76.8311 81.6365 75.8475 80.6525C74.8638 79.6685 74.3113 78.3341 74.3115 76.9427C74.3117 75.5514 74.8646 74.2172 75.8486 73.2335L92.7924 56.2897C93.2789 55.8015 93.8572 55.4144 94.4939 55.1504C95.1306 54.8865 95.8132 54.7509 96.5025 54.7517Z" fill="black"/>
<path d="M79.5588 37.8081C80.2477 37.8074 80.93 37.9427 81.5663 38.2067C82.2026 38.4706 82.7804 38.8579 83.2665 39.346L100.213 56.2898C100.7 56.777 101.086 57.3554 101.35 57.9919C101.613 58.6284 101.749 59.3106 101.749 59.9996C101.748 60.6885 101.613 61.3707 101.349 62.0071C101.085 62.6435 100.699 63.2217 100.211 63.7087C99.7242 64.1958 99.1459 64.5822 98.5094 64.8457C97.8728 65.1093 97.1907 65.2449 96.5018 65.2448C95.8128 65.2446 95.1307 65.1088 94.4942 64.845C93.8578 64.5813 93.2795 64.1948 92.7925 63.7076L75.8487 46.7638C75.1148 46.0302 74.615 45.0953 74.4124 44.0775C74.2099 43.0597 74.3138 42.0048 74.7109 41.0461C75.1081 40.0873 75.7807 39.268 76.6436 38.6916C77.5066 38.1153 78.5211 37.8078 79.5588 37.8081Z" fill="black"/>
<defs>
<linearGradient id="paint0_linear_1533_3201" x1="120" y1="0" x2="0" y2="120" gradientUnits="userSpaceOnUse">
<stop stop-color="#EF04FF"/>
<stop offset="1" stop-color="#00FF88"/>
</linearGradient>
</defs>
</svg>
