<svg width="120" height="120" viewBox="0 0 120 120" fill="none" xmlns="http://www.w3.org/2000/svg">
<path d="M60 120C93.1371 120 120 93.1371 120 60C120 26.8629 93.1371 0 60 0C26.8629 0 0 26.8629 0 60C0 93.1371 26.8629 120 60 120Z" fill="white" fill-opacity="0.1"/>
<path d="M15.121 97.5006C14.4559 97.5008 13.8056 97.3038 13.2525 96.9343C12.6994 96.5649 12.2683 96.0397 12.0138 95.4252C11.7592 94.8107 11.6927 94.1346 11.8225 93.4822C11.9523 92.8299 12.2727 92.2307 12.7431 91.7605L91.4732 13.0303C92.106 12.4102 92.958 12.0648 93.844 12.0694C94.7299 12.074 95.5783 12.4281 96.2046 13.0547C96.8309 13.6814 97.1846 14.53 97.1888 15.4159C97.1929 16.3019 96.8473 17.1538 96.2268 17.7862L17.4871 96.514C16.8601 97.1431 16.0092 97.4979 15.121 97.5006Z" fill="white"/>
<path d="M82.7156 4.46484C81.1122 7.63886 80.6814 11.2772 81.4991 14.7379C82.3168 18.1986 84.3305 21.2593 87.1849 23.3801C90.0393 25.5008 93.5511 26.5452 97.1005 26.329C100.65 26.1129 104.009 24.6503 106.585 22.1989C100.239 14.3822 92.0315 8.28431 82.7156 4.46484Z" fill="url(#paint0_linear_1533_3190)"/>
<path d="M7.41386 84.9292C6.77033 84.9329 6.12777 84.9788 5.49023 85.0665C9.18535 93.0813 14.5974 100.186 21.3432 105.876C22.3037 103.58 22.6823 101.082 22.4451 98.604C22.208 96.1261 21.3625 93.7451 19.9839 91.6726C18.6052 89.6 16.736 87.9001 14.5423 86.7237C12.3486 85.5473 9.89838 84.9309 7.40917 84.9292H7.41386Z" fill="url(#paint1_linear_1533_3190)"/>
<path d="M14.1308 21.3398C12.6683 23.0707 11.3048 24.8829 10.0469 26.7677L89.5484 106.269C90.1812 106.889 91.0332 107.235 91.9192 107.23C92.8051 107.226 93.6535 106.871 94.2798 106.245C94.9061 105.618 95.2598 104.77 95.264 103.884C95.2681 102.998 94.9223 102.146 94.3019 101.513L14.1308 21.3398Z" fill="white"/>
<path d="M7.58594 30.8067C7.77049 30.8067 7.95032 30.8327 8.13725 30.8327C9.86511 30.8323 11.5687 30.4258 13.1107 29.646C14.6526 28.8663 15.9896 27.7351 17.014 26.3437C18.0384 24.9522 18.7215 23.3395 19.0081 21.6355C19.2947 19.9316 19.1769 18.1842 18.6641 16.5342C14.2752 20.7079 10.5405 25.5196 7.58594 30.8067Z" fill="url(#paint2_linear_1533_3190)"/>
<path d="M104.321 100.451C102.413 98.7826 99.9861 97.8239 97.4521 97.7374C94.9181 97.6508 92.4321 98.4418 90.4138 99.9765C88.3956 101.511 86.9691 103.696 86.3754 106.161C85.7817 108.626 86.0571 111.22 87.1552 113.505C93.6163 110.223 99.4316 105.8 104.321 100.451Z" fill="url(#paint3_linear_1533_3190)"/>
<path d="M63.0377 59.8953C63.0377 62.8833 62.1515 65.8042 60.4914 68.2886C58.8314 70.7731 56.472 72.7094 53.7114 73.8528C50.9508 74.9963 47.9132 75.2955 44.9826 74.7125C42.052 74.1296 39.36 72.6907 37.2472 70.5779C35.1344 68.4651 33.6955 65.7731 33.1126 62.8425C32.5296 59.9119 32.8288 56.8743 33.9723 54.1137C35.1157 51.3532 37.0521 48.9937 39.5366 47.3337C42.021 45.6736 44.9419 44.7876 47.9299 44.7876C51.9367 44.7876 55.7794 46.3793 58.6127 49.2125C61.4459 52.0457 63.0377 55.8885 63.0377 59.8953Z" fill="url(#paint4_linear_1533_3190)"/>
<defs>
<linearGradient id="paint0_linear_1533_3190" x1="106.585" y1="4.46484" x2="84.944" y2="29.6629" gradientUnits="userSpaceOnUse">
<stop stop-color="#EF04FF"/>
<stop offset="1" stop-color="#00FF88"/>
</linearGradient>
<linearGradient id="paint1_linear_1533_3190" x1="22.5139" y1="84.9292" x2="2.0092" y2="101.593" gradientUnits="userSpaceOnUse">
<stop stop-color="#EF04FF"/>
<stop offset="1" stop-color="#00FF88"/>
</linearGradient>
<linearGradient id="paint2_linear_1533_3190" x1="19.1609" y1="16.5342" x2="5.17577" y2="27.8554" gradientUnits="userSpaceOnUse">
<stop stop-color="#EF04FF"/>
<stop offset="1" stop-color="#00FF88"/>
</linearGradient>
<linearGradient id="paint3_linear_1533_3190" x1="104.321" y1="97.731" x2="88.7135" y2="115.791" gradientUnits="userSpaceOnUse">
<stop stop-color="#EF04FF"/>
<stop offset="1" stop-color="#00FF88"/>
</linearGradient>
<linearGradient id="paint4_linear_1533_3190" x1="63.0377" y1="44.7876" x2="32.8224" y2="75.003" gradientUnits="userSpaceOnUse">
<stop stop-color="#EF04FF"/>
<stop offset="1" stop-color="#00FF88"/>
</linearGradient>
</defs>
</svg>
