<svg width="120" height="120" viewBox="0 0 120 120" fill="none" xmlns="http://www.w3.org/2000/svg">
<path d="M77.5822 102.418C101.009 92.7074 112.128 65.8445 102.418 42.4178C92.7073 18.9911 65.8444 7.87189 42.4177 17.5823C18.9911 27.2927 7.87184 54.1556 17.5822 77.5823C27.2927 101.009 54.1556 112.128 77.5822 102.418Z" fill="url(#paint0_linear_1533_3229)"/>
<path d="M77.5475 17.6001C70.796 14.7961 63.4704 13.6525 56.1855 14.2654L48.6074 32.5625L87.4283 48.642L95.0065 30.3466C90.2902 24.7625 84.3029 20.3913 77.5475 17.6001Z" fill="url(#paint1_linear_1533_3229)"/>
<path d="M102.393 77.5769C105.198 70.8255 106.341 63.4995 105.726 56.2148L87.4309 48.6367L71.3496 87.4595L89.645 95.0376C95.23 90.3209 99.6019 84.3332 102.393 77.5769Z" fill="url(#paint2_linear_1533_3229)"/>
<path d="M42.4129 102.422C49.1643 105.226 56.4902 106.369 63.7749 105.755L71.353 87.4594L32.5321 71.3799L24.9521 89.6752C29.6688 95.2599 35.6567 99.6311 42.4129 102.422Z" fill="url(#paint3_linear_1533_3229)"/>
<path d="M82.0965 61.5139L87.4297 48.6387L74.5546 43.3055C74.9143 42.4464 75.101 41.5247 75.1037 40.5933C75.1064 39.6619 74.9252 38.7391 74.5705 37.8779C74.2157 37.0167 73.6944 36.234 73.0365 35.5747C72.3785 34.9155 71.5968 34.3927 70.7363 34.0363C69.8758 33.6799 68.9534 33.4968 68.022 33.4978C67.0906 33.4987 66.1685 33.6835 65.3087 34.0416C64.4489 34.3997 63.6683 34.924 63.0116 35.5846C62.355 36.2451 61.8352 37.0288 61.4822 37.8907L48.6088 32.5593L32.5293 71.3802L45.4027 76.7117C44.6932 78.4436 44.6989 80.3861 45.4185 82.1138C46.1381 83.8415 47.513 85.2136 49.2421 85.9298C50.9712 86.646 52.9136 86.6479 54.6441 85.935C56.3746 85.2222 57.7522 83.8528 58.4752 82.1265L71.3503 87.4597L76.6818 74.5864C78.4137 75.2958 80.3561 75.2902 82.0838 74.5706C83.8115 73.8509 85.1837 72.476 85.8999 70.7469C86.6161 69.0178 86.6179 67.0754 85.9051 65.3449C85.1923 63.6144 83.8228 62.2368 82.0965 61.5139Z" fill="#040404" fill-opacity="0.71"/>
<path d="M43.2878 45.436L48.6211 32.5627L30.3258 24.9846C24.7463 29.7061 20.376 35.6927 17.579 42.4455C14.782 49.1983 13.6394 56.5217 14.2463 63.8055L32.5416 71.3837L37.8694 58.514C39.6013 59.2234 41.5438 59.2176 43.2715 58.498C44.9992 57.7784 46.3714 56.4036 47.0876 54.6745C47.8038 52.9454 47.8057 51.0029 47.0929 49.2724C46.38 47.5419 45.0105 46.1644 43.2842 45.4415L43.2878 45.436Z" fill="url(#paint4_linear_1533_3229)"/>
<path d="M95.0088 30.3433L87.4307 48.6385L105.726 56.2167C104.924 46.6892 101.179 37.6471 95.0088 30.3433Z" fill="#040404" fill-opacity="0.71"/>
<path d="M56.1878 14.262L48.6098 32.5591L30.3145 24.9792C37.6187 18.8099 46.6606 15.0646 56.1878 14.262Z" fill="#040404" fill-opacity="0.71"/>
<path d="M24.9506 89.6751L32.5305 71.3798L14.2334 63.8018C15.0359 73.329 18.7812 82.3709 24.9506 89.6751Z" fill="#040404" fill-opacity="0.71"/>
<path d="M63.7715 105.755L71.3496 87.4597L89.6449 95.0378C82.3407 101.207 73.2988 104.953 63.7715 105.755Z" fill="#040404" fill-opacity="0.71"/>
<defs>
<linearGradient id="paint0_linear_1533_3229" x1="84.8355" y1="5.41356e-05" x2="35.1645" y2="120" gradientUnits="userSpaceOnUse">
<stop stop-color="#EF04FF"/>
<stop offset="1" stop-color="#00FF88"/>
</linearGradient>
<linearGradient id="paint1_linear_1533_3229" x1="95.0065" y1="14.1045" x2="61.9214" y2="58.5524" gradientUnits="userSpaceOnUse">
<stop stop-color="#EF04FF"/>
<stop offset="1" stop-color="#00FF88"/>
</linearGradient>
<linearGradient id="paint2_linear_1533_3229" x1="105.888" y1="48.6367" x2="61.4385" y2="81.7223" gradientUnits="userSpaceOnUse">
<stop stop-color="#EF04FF"/>
<stop offset="1" stop-color="#00FF88"/>
</linearGradient>
<linearGradient id="paint3_linear_1533_3229" x1="71.353" y1="71.3799" x2="38.2696" y2="115.829" gradientUnits="userSpaceOnUse">
<stop stop-color="#EF04FF"/>
<stop offset="1" stop-color="#00FF88"/>
</linearGradient>
<linearGradient id="paint4_linear_1533_3229" x1="48.6211" y1="24.9846" x2="4.17484" y2="58.0644" gradientUnits="userSpaceOnUse">
<stop stop-color="#EF04FF"/>
<stop offset="1" stop-color="#00FF88"/>
</linearGradient>
</defs>
</svg>
