<svg width="120" height="120" viewBox="0 0 120 120" fill="none" xmlns="http://www.w3.org/2000/svg">
<path d="M60 120C93.1371 120 120 93.1371 120 60C120 26.8629 93.1371 0 60 0C26.8629 0 0 26.8629 0 60C0 93.1371 26.8629 120 60 120Z" fill="white" fill-opacity="0.1"/>
<path d="M32.8038 78.9122C32.362 78.9127 31.9244 78.8257 31.5163 78.6563C31.1082 78.487 30.7376 78.2387 30.4259 77.9256L19.5654 67.0675C18.9453 66.4347 18.6 65.5827 18.6045 64.6968C18.6091 63.8108 18.9632 62.9625 19.5899 62.3361C20.2165 61.7098 21.065 61.3562 21.951 61.3521C22.837 61.3479 23.6889 61.6935 24.3213 62.3139L35.1794 73.172C35.648 73.6419 35.9671 74.24 36.0967 74.8908C36.2262 75.5417 36.1604 76.2165 35.9075 76.8301C35.6546 77.4436 35.2259 77.9687 34.6753 78.3392C34.1248 78.7097 33.4769 78.909 32.8133 78.9122H32.8038Z" fill="white"/>
<path d="M21.9439 78.9122C21.2792 78.9113 20.6298 78.7137 20.0774 78.3441C19.5251 77.9745 19.0945 77.4493 18.8401 76.8352C18.5858 76.2212 18.519 75.5456 18.6481 74.8937C18.7773 74.2417 19.0966 73.6426 19.5659 73.172L30.4264 62.3139C31.0618 61.7087 31.9087 61.376 32.7862 61.3867C33.6637 61.3974 34.5021 61.7508 35.1227 62.3714C35.7432 62.9919 36.0965 63.8303 36.1072 64.7077C36.1179 65.5852 35.7851 66.432 35.1799 67.0675L24.3218 77.9256C24.0101 78.2387 23.6395 78.487 23.2314 78.6563C22.8233 78.8257 22.3857 78.9127 21.9439 78.9122Z" fill="white"/>
<path d="M94.2877 62.0752C92.2122 62.0752 90.1834 61.4597 88.4577 60.3066C86.732 59.1536 85.387 57.5147 84.5927 55.5972C83.7985 53.6797 83.5907 51.5696 83.9956 49.5341C84.4005 47.4985 85.3999 45.6288 86.8674 44.1612C88.335 42.6936 90.2049 41.6942 92.2405 41.2893C94.2761 40.8844 96.3859 41.0921 98.3034 41.8863C100.221 42.6806 101.86 44.0258 103.013 45.7515C104.166 47.4772 104.781 49.5058 104.781 51.5813C104.779 54.3636 103.673 57.0314 101.705 58.9988C99.7377 60.9662 97.0701 62.0727 94.2877 62.0752ZM94.2877 47.8123C93.5422 47.8123 92.8134 48.0333 92.1936 48.4475C91.5738 48.8616 91.0907 49.4501 90.8054 50.1389C90.5201 50.8276 90.4454 51.5855 90.5909 52.3167C90.7363 53.0478 91.0953 53.7195 91.6224 54.2466C92.1496 54.7738 92.8212 55.1326 93.5523 55.2781C94.2835 55.4235 95.0413 55.349 95.7301 55.0638C96.4188 54.7785 97.0075 54.2952 97.4217 53.6753C97.8359 53.0555 98.0569 52.3268 98.0569 51.5813C98.0526 50.583 97.654 49.6268 96.9481 48.9209C96.2422 48.2149 95.286 47.8167 94.2877 47.8123Z" fill="white"/>
<path d="M74.4454 26.8861L57.5206 22.2676C56.8067 21.9707 56.0385 21.8266 55.2656 21.8451C54.4926 21.8635 53.7322 22.0441 53.0333 22.3748C52.3345 22.7055 51.7127 23.179 51.2083 23.7649C50.704 24.3509 50.3282 25.0361 50.1051 25.7764L45.2522 43.565C44.9211 44.8432 45.107 46.2004 45.7693 47.3426C46.4317 48.4849 47.5174 49.3202 48.7912 49.6678C50.065 50.0153 51.4244 49.8471 52.5751 49.1996C53.7258 48.552 54.5751 47.477 54.9391 46.2078L56.1222 41.9016C59.1451 53.2624 58.3306 65.3035 53.8054 76.1537C49.2801 87.0039 41.2975 96.0555 31.0981 101.902C28.0997 103.619 24.9439 105.045 21.6738 106.161C24.7733 108.74 28.1258 110.999 31.6801 112.904C33.1684 112.194 34.6378 111.451 36.0788 110.628C48.945 103.253 58.8178 91.6003 63.9789 77.6975C69.1401 63.7947 69.2627 48.522 64.3255 34.5381L71.8119 36.5802C73.088 36.9048 74.4406 36.7151 75.5782 36.0519C76.7158 35.3887 77.5474 34.3052 77.8937 33.0347C78.24 31.7643 78.0733 30.4087 77.4297 29.26C76.786 28.1112 75.7168 27.2612 74.4524 26.8933L74.4454 26.8861Z" fill="url(#paint0_linear_1533_3166)"/>
<defs>
<linearGradient id="paint0_linear_1533_3166" x1="78.0704" y1="21.8435" x2="-3.45277" y2="72.3334" gradientUnits="userSpaceOnUse">
<stop stop-color="#EF04FF"/>
<stop offset="1" stop-color="#00FF88"/>
</linearGradient>
</defs>
</svg>
