<svg width="42" height="50" viewBox="0 0 42 50" fill="none" xmlns="http://www.w3.org/2000/svg">
<path d="M41.2122 11.7C40.6122 10.8 39.4122 10.5 38.4122 11.1L20.2122 23C16.1122 22.7 13.0122 19.5 13.0122 15.3C13.0122 11 16.4122 7.6 20.7122 7.6C23.8122 7.6 26.5122 9.4 27.8122 12.3C28.1122 13.1 28.9122 13.5 29.6122 13.5C29.9122 13.5 30.1122 13.4 30.4122 13.3C31.4122 12.9 31.9122 11.7 31.4122 10.7C29.9122 7 26.5122 4.5 22.7122 3.8V2C22.7122 0.9 21.8122 0 20.7122 0C19.6122 0 18.7122 0.9 18.7122 2V3.8C13.2122 4.8 9.01216 9.5 9.01216 15.3C9.01216 20 11.8122 24 15.7122 25.9L0.912155 35.5C0.0121555 36.1 -0.287844 37.3 0.312156 38.3C0.712156 38.9 1.31216 39.2 2.01216 39.2C2.41216 39.2 2.81216 39.1 3.11216 38.9L21.3122 27C25.3122 27.3 28.4122 30.6 28.4122 34.7C28.4122 39 25.0122 42.4 20.7122 42.4C17.6122 42.4 14.9122 40.6 13.6122 37.7C13.2122 36.7 12.0122 36.2 11.0122 36.7C10.0122 37.1 9.51216 38.3 9.91216 39.3C11.5122 43 14.8122 45.6 18.6122 46.2V48C18.6122 49.1 19.5122 50 20.6122 50C21.7122 50 22.6122 49.1 22.6122 48V46.2C28.1122 45.2 32.3122 40.5 32.3122 34.7C32.4122 30 29.7122 26 25.7122 24.1L40.6122 14.4C41.5122 13.9 41.8122 12.6 41.2122 11.7Z" fill="url(#paint0_linear_379_607)"/>
<defs>
<linearGradient id="paint0_linear_379_607" x1="41.5243" y1="0" x2="-7.6254" y2="40.8182" gradientUnits="userSpaceOnUse">
<stop stop-color="#00FF88"/>
<stop offset="1" stop-color="#EF04FF"/>
</linearGradient>
</defs>
</svg>
