<svg width="72" height="60" viewBox="0 0 72 60" fill="none" xmlns="http://www.w3.org/2000/svg">
<path d="M60.736 8.5H67.656V5.5H42.656C41.968 2.359 39.168 0 35.823 0C32.478 0 29.678 2.359 28.989 5.5H3.989V8.5H10.909L0 29.957V30.316C0 37.7 6.011 43.712 13.399 43.712C20.788 43.712 26.798 37.7 26.798 30.316V29.957L15.887 8.5H28.99C29.573 11.157 31.667 13.25 34.324 13.833V56.659H27.361V59.659H44.288V56.659H37.324V13.833C39.982 13.25 42.076 11.156 42.658 8.5H55.762L44.85 29.957V30.316C44.85 37.7 50.86 43.712 58.248 43.712C65.636 43.712 71.646 37.7 71.646 30.316V29.957L60.736 8.5ZM13.399 40.712C8.151 40.712 3.801 36.802 3.101 31.744H20.927L19.402 28.749H3.981L13.399 10.226L23.792 30.663C23.607 36.233 19.016 40.712 13.399 40.712ZM35.824 11C33.618 11 31.824 9.206 31.824 7C31.824 4.794 33.618 3 35.824 3C38.03 3 39.824 4.794 39.824 7C39.824 9.207 38.029 11 35.824 11ZM58.248 40.712C52.999 40.712 48.648 36.802 47.949 31.744H65.777L64.252 28.749H48.83L58.248 10.226L68.643 30.663C68.457 36.233 63.865 40.712 58.248 40.712Z" fill="url(#paint0_linear_379_605)"/>
<defs>
<linearGradient id="paint0_linear_379_605" x1="71.646" y1="0" x2="12.9732" y2="70.4617" gradientUnits="userSpaceOnUse">
<stop stop-color="#00FF88"/>
<stop offset="1" stop-color="#EF04FF"/>
</linearGradient>
</defs>
</svg>
