<svg width="66" height="80" viewBox="0 0 66 80" fill="none" xmlns="http://www.w3.org/2000/svg">
<path d="M59.521 64.7093C59.125 63.3743 57.912 62.5873 55.917 62.3683C55.573 62.3313 55.223 62.3103 54.874 62.3103C52.166 62.3103 50.268 63.4453 50.061 63.5763C48.051 64.8533 45.946 65.8733 43.749 66.6303C44.076 66.2233 44.367 65.7813 44.624 65.3113C44.667 65.2293 44.705 65.1473 44.737 65.0613C45.277 63.6233 44.925 62.6163 44.535 62.0223C43.93 61.1023 42.879 60.6023 41.412 60.5343L41.08 60.5263L31.032 60.5243C28.054 56.9383 22.573 55.1383 14.328 55.0303L13.545 55.0243C13.54 55.0243 13.536 55.0243 13.532 55.0243C13.408 55.0243 13.287 55.0393 13.167 55.0613V54.1083C13.167 53.0043 12.271 52.1083 11.167 52.1083H2C0.896 52.1083 0 53.0043 0 54.1083V76.1083C0 77.2123 0.896 78.1083 2 78.1083H11.167C12.271 78.1083 13.167 77.2123 13.167 76.1083V75.4953C23.13 77.9813 30.448 79.1903 35.532 79.1903C43.415 79.1903 56.316 70.0423 56.861 69.6533C56.896 69.6273 56.931 69.5983 56.966 69.5713C57.845 68.8503 60.181 66.9343 59.521 64.7093ZM11.166 76.1063H1.999V54.1063H11.166V76.1063ZM55.698 68.0243C55.698 68.0243 42.864 77.1903 35.531 77.1903C30.642 77.1903 23.309 75.9683 13.531 73.5243V57.0243L14.301 57.0283C22.418 57.1353 27.661 58.9673 30.031 62.5243H41.031L41.317 62.5303C42.78 62.5983 43.296 63.2083 42.864 64.3563C41.373 67.1083 38.252 68.4813 33.496 68.4813C31.911 68.4813 30.144 68.3293 28.198 68.0243V69.8563L29.05 69.9683C30.656 70.1643 32.229 70.2633 33.77 70.2633C40.108 70.2633 45.889 68.6003 51.117 65.2743C51.117 65.2743 52.66 64.3113 54.874 64.3113C55.14 64.3113 55.415 64.3263 55.699 64.3563C58.13 64.6233 58.429 65.7853 55.698 68.0243ZM41.572 43.1773V51.7863H39.85V43.1773H41.572ZM23.875 29.8343L24.408 31.4723L16.219 34.1333L15.687 32.4943L23.875 29.8343ZM57.498 29.8343L65.686 32.4943L65.154 34.1333L56.965 31.4723L57.498 29.8343ZM56.32 2.16433L57.715 3.17733L52.654 10.1423L51.26 9.12933L56.32 2.16433ZM25.101 2.16433L30.162 9.12933L28.768 10.1423L23.707 3.17733L25.101 2.16433ZM27.468 44.9553C26.774 44.9553 26.142 44.5733 25.82 43.9593C25.632 43.6033 25.565 43.1833 25.633 42.7793L28.027 28.8213L17.886 18.9363C17.53 18.5893 17.33 18.1233 17.324 17.6263C17.318 17.1293 17.506 16.6603 17.852 16.3043C18.136 16.0123 18.514 15.8203 18.916 15.7613L32.931 13.7243L39.201 1.02433C39.631 0.14233 40.805 -0.26067 41.692 0.17933C42.056 0.35933 42.357 0.65933 42.537 1.02433L48.807 13.7243L62.821 15.7613C63.834 15.9083 64.54 16.8533 64.395 17.8683C64.337 18.2743 64.142 18.6573 63.844 18.9413L53.71 28.8203L56.103 42.7783C56.278 43.7893 55.597 44.7543 54.585 44.9283C54.149 44.9983 53.763 44.9273 53.406 44.7403L40.867 38.1503L28.333 44.7393C28.07 44.8813 27.769 44.9553 27.468 44.9553ZM19.484 17.7003L29.8 27.7563C30.035 27.9863 30.143 28.3173 30.088 28.6413L27.653 42.8403L40.404 36.1363C40.695 35.9833 41.043 35.9833 41.334 36.1363L54.086 42.8383L51.652 28.6413C51.596 28.3173 51.704 27.9863 51.939 27.7563L62.254 17.6993L48 15.6283C47.674 15.5813 47.393 15.3763 47.247 15.0813L40.87 2.16333L34.493 15.0813C34.348 15.3763 34.067 15.5813 33.741 15.6283L19.484 17.7003Z" fill="url(#paint0_linear_379_606)"/>
<defs>
<linearGradient id="paint0_linear_379_606" x1="65.686" y1="0" x2="-12.1401" y2="64.5544" gradientUnits="userSpaceOnUse">
<stop stop-color="#00FF88"/>
<stop offset="1" stop-color="#EF04FF"/>
</linearGradient>
</defs>
</svg>
