<svg width="89" height="85" viewBox="0 0 89 85" fill="none" xmlns="http://www.w3.org/2000/svg">
<path d="M78.9 31.7401H59.69C58.7024 28.4928 56.6972 25.649 53.9703 23.6281C51.2434 21.6073 47.9391 20.5164 44.545 20.5164C41.1509 20.5164 37.8466 21.6073 35.1197 23.6281C32.3928 25.649 30.3876 28.4928 29.4 31.7401H10.1C7.42213 31.7427 4.85469 32.8077 2.96115 34.7012C1.0676 36.5948 0.00264743 39.1622 0 41.8401V73.9901C0.0132083 76.661 1.08282 79.2182 2.97523 81.1031C4.86763 82.988 7.42904 84.0475 10.1 84.0501H78.9C81.5779 84.0474 84.1453 82.9825 86.0389 81.0889C87.9324 79.1954 88.9974 76.6279 89 73.9501V41.8401C88.9974 39.1622 87.9324 36.5948 86.0389 34.7012C84.1453 32.8077 81.5779 31.7427 78.9 31.7401ZM44.5 23.5101C47.3378 23.5016 50.0982 24.4342 52.3495 26.1619C54.6007 27.8896 56.2156 30.315 56.9414 33.0583C57.6673 35.8017 57.4631 38.7083 56.3609 41.3233C55.2587 43.9382 53.3206 46.114 50.85 47.5101C48.67 47.6701 46.39 47.7701 44.1 47.7701C42.1 47.7701 40.1 47.6901 38.25 47.5701C35.7868 46.1782 33.8527 44.0113 32.7487 41.4063C31.6447 38.8014 31.4327 35.9045 32.1457 33.1666C32.8587 30.4287 34.4567 28.0032 36.6911 26.2676C38.9254 24.532 41.6708 23.5837 44.5 23.5701V23.5101ZM86 73.9901C85.9868 75.8654 85.2333 77.6595 83.9035 78.9818C82.5737 80.3041 80.7753 81.0475 78.9 81.0501H10.1C8.21778 81.0474 6.4134 80.2985 5.08246 78.9676C3.75153 77.6367 3.00265 75.8323 3 73.9501V41.8401C3.00265 39.9578 3.75153 38.1535 5.08246 36.8225C6.4134 35.4916 8.21778 34.7427 10.1 34.7401H28.79C28.5624 36.9629 28.8073 39.2088 29.5087 41.3303C30.2102 43.4518 31.3522 45.401 32.86 47.0501C28.8648 46.5839 24.9011 45.8793 20.99 44.9401C20.6111 44.8557 20.2142 44.9214 19.8828 45.1236C19.5514 45.3257 19.3113 45.6484 19.2129 46.0239C19.1145 46.3994 19.1654 46.7985 19.3551 47.1371C19.5448 47.4758 19.8584 47.7278 20.23 47.8401C28.0626 49.7205 36.085 50.6968 44.14 50.7501C52.4203 50.6599 60.6672 49.6844 68.74 47.8401C69.1068 47.7286 69.4171 47.481 69.607 47.1479C69.7969 46.8149 69.8521 46.4217 69.7613 46.0493C69.6704 45.6768 69.4403 45.3533 69.1184 45.1451C68.7964 44.937 68.4069 44.86 68.03 44.9301C64.154 45.8001 60.2354 46.4677 56.29 46.9301C57.774 45.286 58.8967 43.349 59.5857 41.2442C60.2747 39.1393 60.5146 36.9134 60.29 34.7101H78.9C80.7822 34.7127 82.5866 35.4616 83.9175 36.7925C85.2485 38.1235 85.9974 39.9278 86 41.8101V73.9901Z" fill="url(#paint0_linear_379_598)"/>
<path d="M71.7299 22.12C73.917 22.12 76.0549 21.4716 77.8735 20.2568C79.6921 19.0419 81.1097 17.3152 81.9471 15.2948C82.7845 13.2744 83.0041 11.0511 82.5781 8.90598C82.1522 6.76082 81.0998 4.79011 79.5541 3.24294C78.0083 1.69577 76.0385 0.641622 73.8937 0.21374C71.749 -0.214141 69.5255 0.00345826 67.5044 0.83903C65.4832 1.6746 63.7552 3.09063 62.5387 4.90812C61.3222 6.72562 60.6719 8.86297 60.6699 11.05C60.6699 13.9842 61.8348 16.7984 63.9087 18.8741C65.9826 20.9499 68.7957 22.1174 71.7299 22.12ZM71.7299 3.01C73.3249 3.01001 74.884 3.48323 76.2099 4.36976C77.5358 5.25629 78.5688 6.51628 79.1783 7.99021C79.7877 9.46415 79.9462 11.0858 79.6336 12.6498C79.3209 14.2138 78.5513 15.65 77.4221 16.7764C76.2929 17.9028 74.8549 18.6688 73.2901 18.9776C71.7253 19.2863 70.104 19.1238 68.6316 18.5107C67.1592 17.8976 65.9018 16.8614 65.0185 15.5333C64.1353 14.2052 63.666 12.645 63.6699 11.05C63.6858 8.92277 64.5419 6.88806 66.0518 5.38947C67.5616 3.89088 69.6026 3.04995 71.7299 3.05V3.01Z" fill="url(#paint1_linear_379_598)"/>
<path d="M58.5998 56.3699C53.8081 57.0244 48.976 57.3385 44.1398 57.3099C39.5524 57.3645 34.9679 57.0536 30.4298 56.3799C30.032 56.3096 29.6226 56.4003 29.2916 56.6319C28.9606 56.8635 28.7351 57.2171 28.6648 57.6149C28.5946 58.0128 28.6852 58.4222 28.9168 58.7532C29.1484 59.0842 29.502 59.3096 29.8998 59.3799C34.6113 60.1009 39.3738 60.4353 44.1398 60.3799C49.1341 60.4063 54.1237 60.0721 59.0698 59.3799C59.4677 59.3176 59.8244 59.0998 60.0617 58.7744C60.2989 58.449 60.3972 58.0427 60.3348 57.6449C60.2725 57.2471 60.0547 56.8903 59.7293 56.6531C59.404 56.4159 58.9977 56.3176 58.5998 56.3799V56.3699Z" fill="url(#paint2_linear_379_598)"/>
<path d="M43.9901 39.0501C42.7706 39.0411 41.572 38.732 40.5001 38.1501L39.8701 40.6101C40.9828 41.1697 42.2051 41.4769 43.4501 41.5101V43.5101H45.5001V41.3601C47.9201 40.9401 49.2401 39.3601 49.2401 37.4701C49.2401 35.5801 48.2401 34.4701 45.7301 33.5401C43.9401 32.8701 43.2101 32.4301 43.2101 31.7301C43.2101 31.0301 43.6501 30.5501 45.0201 30.5501C46.0605 30.5609 47.0853 30.8034 48.0201 31.2601L48.6301 28.8801C47.688 28.4468 46.6669 28.2119 45.6301 28.1901V26.3501H43.5001V28.3501C41.2501 28.7901 39.9501 30.2401 39.9501 32.0901C39.9501 34.0901 41.4901 35.1801 43.7401 35.9401C45.3001 36.4701 45.9701 36.9401 45.9701 37.7701C45.9701 38.6001 45.1901 39.0501 43.9901 39.0501Z" fill="url(#paint3_linear_379_598)"/>
<path d="M71.4202 13.05C70.7551 13.0439 70.1021 12.8721 69.5202 12.55L69.1802 13.89C69.7862 14.1949 70.452 14.3622 71.1302 14.38V15.47H72.2502V14.26C72.7848 14.2115 73.2832 13.9692 73.6516 13.5787C74.02 13.1883 74.2329 12.6766 74.2502 12.14C74.2502 11.14 73.7002 10.48 72.3402 10C71.3402 9.63005 70.9702 9.39005 70.9702 9.00005C70.9702 8.61005 71.2102 8.36005 71.9702 8.36005C72.5425 8.36413 73.1066 8.49744 73.6202 8.75005L73.9502 7.46005C73.4377 7.21149 72.8793 7.07189 72.3102 7.05005V6.05005H71.1802V7.14005C70.6698 7.18281 70.1921 7.40893 69.8355 7.77658C69.4788 8.14423 69.2674 8.62857 69.2402 9.14005C69.2402 10.25 70.0802 10.82 71.3002 11.24C72.1502 11.53 72.5102 11.8 72.5102 12.24C72.5102 12.68 72.0802 13.05 71.4202 13.05Z" fill="url(#paint4_linear_379_598)"/>
<defs>
<linearGradient id="paint0_linear_379_598" x1="89" y1="20.5164" x2="28.9121" y2="104.689" gradientUnits="userSpaceOnUse">
<stop stop-color="#00FF88"/>
<stop offset="1" stop-color="#EF04FF"/>
</linearGradient>
<linearGradient id="paint1_linear_379_598" x1="82.7899" y1="0" x2="60.6699" y2="22.12" gradientUnits="userSpaceOnUse">
<stop stop-color="#00FF88"/>
<stop offset="1" stop-color="#EF04FF"/>
</linearGradient>
<linearGradient id="paint2_linear_379_598" x1="60.3531" y1="56.3567" x2="59.3456" y2="64.2869" gradientUnits="userSpaceOnUse">
<stop stop-color="#00FF88"/>
<stop offset="1" stop-color="#EF04FF"/>
</linearGradient>
<linearGradient id="paint3_linear_379_598" x1="49.2401" y1="26.3501" x2="34.8043" y2="34.2326" gradientUnits="userSpaceOnUse">
<stop stop-color="#00FF88"/>
<stop offset="1" stop-color="#EF04FF"/>
</linearGradient>
<linearGradient id="paint4_linear_379_598" x1="74.2502" y1="6.05005" x2="66.3877" y2="10.2817" gradientUnits="userSpaceOnUse">
<stop stop-color="#00FF88"/>
<stop offset="1" stop-color="#EF04FF"/>
</linearGradient>
</defs>
</svg>
