<svg width="206" height="144" viewBox="0 0 206 144" fill="none" xmlns="http://www.w3.org/2000/svg">
<path d="M29.9516 129.306H24.2331V143.753H22.8298V129.306H17.1113V128.195H29.9516V129.306Z" fill="white"/>
<path d="M77.9428 142.642V136.464H69.6253V135.352H77.9428V129.306H68.9773V128.195H79.3227V143.753H68.8457V142.642H77.9428Z" fill="white"/>
<path d="M118.449 135.974C118.426 134.91 118.656 133.852 119.125 132.866C119.593 131.879 120.291 130.984 121.175 130.234C122.059 129.484 123.112 128.895 124.269 128.503C125.427 128.11 126.666 127.922 127.91 127.95C129.48 127.928 131.028 128.262 132.398 128.918C133.767 129.574 134.909 130.528 135.707 131.685L134.485 132.284C133.826 131.295 132.867 130.476 131.71 129.913C130.553 129.349 129.24 129.063 127.908 129.084C126.843 129.074 125.785 129.245 124.798 129.586C123.81 129.928 122.911 130.434 122.153 131.075C121.395 131.716 120.794 132.479 120.383 133.32C119.973 134.16 119.761 135.063 119.761 135.974C119.761 136.885 119.973 137.787 120.383 138.628C120.794 139.469 121.395 140.232 122.153 140.873C122.911 141.514 123.81 142.02 124.798 142.361C125.785 142.703 126.843 142.874 127.908 142.864C129.256 142.884 130.584 142.591 131.751 142.016C132.919 141.44 133.881 140.604 134.535 139.597L135.757 140.197C134.965 141.372 133.819 142.344 132.438 143.012C131.058 143.681 129.493 144.021 127.907 143.997C126.663 144.025 125.425 143.837 124.267 143.444C123.11 143.052 122.058 142.463 121.174 141.713C120.29 140.964 119.593 140.069 119.125 139.082C118.656 138.096 118.426 137.039 118.449 135.974Z" fill="white"/>
<path d="M188.354 128.195V143.753H186.977V136.308H176.398V143.753H175.02V128.195H176.398V135.195H186.977V128.195H188.354Z" fill="white"/>
<path d="M33.4363 0.00425716V15.5535H32.0593V1.73667L25.3351 11.2879H25.1012L18.377 1.73584V15.5527H17V0.00341797H18.7337L25.222 9.21465L31.7104 0.00341797L33.4363 0.00425716Z" fill="white"/>
<path d="M87.7262 0.00439453L81.0994 9.15562V15.5537H79.7224V9.15562L73.0957 0.00439453H74.655L80.4241 8.01652L86.163 0.00439453H87.7262Z" fill="white"/>
<path d="M126.96 15.5537L131.481 9.02313C130.341 8.76823 129.331 8.1981 128.61 7.40154C128 6.72178 127.624 5.9098 127.525 5.05719C127.426 4.20458 127.607 3.34526 128.049 2.57614C128.49 1.80702 129.175 1.15869 130.024 0.704282C130.874 0.249876 131.855 0.00747025 132.857 0.00439453H140.027V15.5537H138.65V9.17813H132.932L128.546 15.5537H126.96ZM132.857 1.11517C132.328 1.10832 131.803 1.19561 131.315 1.37148C130.828 1.54735 130.388 1.80798 130.025 2.1368C129.646 2.45939 129.347 2.84404 129.146 3.26771C128.945 3.69139 128.846 4.14539 128.855 4.60251C128.845 5.05813 128.944 5.51071 129.145 5.93274C129.346 6.35476 129.645 6.73741 130.025 7.0574C130.39 7.38349 130.83 7.64158 131.317 7.81551C131.805 7.98944 132.329 8.07546 132.857 8.06818H138.65V1.11601L132.857 1.11517Z" fill="white"/>
<path d="M180.078 14.4385H188.654V15.5493H178.704V0H180.081L180.078 14.4385Z" fill="white"/>
<path d="M206 29H0V113H206V29Z" fill="url(#paint0_linear_422_4323)"/>
<path d="M29.9516 129.306H24.2331V143.753H22.8298V129.306H17.1113V128.195H29.9516V129.306Z" fill="white"/>
<path d="M77.9428 142.642V136.464H69.6253V135.352H77.9428V129.306H68.9773V128.195H79.3227V143.753H68.8457V142.642H77.9428Z" fill="white"/>
<path d="M118.449 135.974C118.426 134.91 118.656 133.852 119.125 132.866C119.593 131.879 120.291 130.984 121.175 130.234C122.059 129.484 123.112 128.895 124.269 128.503C125.427 128.11 126.666 127.922 127.91 127.95C129.48 127.928 131.028 128.262 132.398 128.918C133.767 129.574 134.909 130.528 135.707 131.685L134.485 132.284C133.826 131.295 132.867 130.476 131.71 129.913C130.553 129.349 129.24 129.063 127.908 129.084C126.843 129.074 125.785 129.245 124.798 129.586C123.81 129.928 122.911 130.434 122.153 131.075C121.395 131.716 120.794 132.479 120.383 133.32C119.973 134.16 119.761 135.063 119.761 135.974C119.761 136.885 119.973 137.787 120.383 138.628C120.794 139.469 121.395 140.232 122.153 140.873C122.911 141.514 123.81 142.02 124.798 142.361C125.785 142.703 126.843 142.874 127.908 142.864C129.256 142.884 130.584 142.591 131.751 142.016C132.919 141.44 133.881 140.604 134.535 139.597L135.757 140.197C134.965 141.372 133.819 142.344 132.438 143.012C131.058 143.681 129.493 144.021 127.907 143.997C126.663 144.025 125.425 143.837 124.267 143.444C123.11 143.052 122.058 142.463 121.174 141.713C120.29 140.964 119.593 140.069 119.125 139.082C118.656 138.096 118.426 137.039 118.449 135.974Z" fill="white"/>
<path d="M188.354 128.195V143.753H186.977V136.308H176.398V143.753H175.02V128.195H176.398V135.195H186.977V128.195H188.354Z" fill="white"/>
<path d="M33.4363 0.00425716V15.5535H32.0593V1.73667L25.3351 11.2879H25.1012L18.377 1.73584V15.5527H17V0.00341797H18.7337L25.222 9.21465L31.7104 0.00341797L33.4363 0.00425716Z" fill="white"/>
<path d="M87.7262 0.00439453L81.0994 9.15562V15.5537H79.7224V9.15562L73.0957 0.00439453H74.655L80.4241 8.01652L86.163 0.00439453H87.7262Z" fill="white"/>
<path d="M126.96 15.5537L131.481 9.02313C130.341 8.76823 129.331 8.1981 128.61 7.40154C128 6.72178 127.624 5.9098 127.525 5.05719C127.426 4.20458 127.607 3.34526 128.049 2.57614C128.49 1.80702 129.175 1.15869 130.024 0.704282C130.874 0.249876 131.855 0.00747025 132.857 0.00439453H140.027V15.5537H138.65V9.17813H132.932L128.546 15.5537H126.96ZM132.857 1.11517C132.328 1.10832 131.803 1.19561 131.315 1.37148C130.828 1.54735 130.388 1.80798 130.025 2.1368C129.646 2.45939 129.347 2.84404 129.146 3.26771C128.945 3.69139 128.846 4.14539 128.855 4.60251C128.845 5.05813 128.944 5.51071 129.145 5.93274C129.346 6.35476 129.645 6.73741 130.025 7.0574C130.39 7.38349 130.83 7.64158 131.317 7.81551C131.805 7.98944 132.329 8.07546 132.857 8.06818H138.65V1.11601L132.857 1.11517Z" fill="white"/>
<path d="M180.078 14.4385H188.654V15.5493H178.704V0H180.081L180.078 14.4385Z" fill="white"/>
<defs>
<linearGradient id="paint0_linear_422_4323" x1="206" y1="29" x2="147.262" y2="173.048" gradientUnits="userSpaceOnUse">
<stop stop-color="#00FF88"/>
<stop offset="1" stop-color="#EF04FF"/>
</linearGradient>
</defs>
</svg>
