<svg width="463" height="190" viewBox="0 0 463 190" fill="none" xmlns="http://www.w3.org/2000/svg">
<g filter="url(#filter0_d_1527_2827)">
<rect x="367" y="10" width="82" height="82" rx="8" fill="url(#paint0_linear_1527_2827)"/>
</g>
<path d="M407.317 42.8008V57.8198" stroke="white" stroke-width="1.5" stroke-linecap="round" stroke-linejoin="round"/>
<path d="M414.833 50.3092H399.8" stroke="white" stroke-width="1.5" stroke-linecap="round" stroke-linejoin="round"/>
<rect y="10" width="330" height="180" rx="8" fill="url(#paint1_linear_1527_2827)"/>
<path d="M141.93 93.184C143.478 93.184 144.756 93.568 145.764 94.336C146.772 95.092 147.468 96.13 147.852 97.45H146.124C145.8 96.61 145.278 95.944 144.558 95.452C143.838 94.948 142.956 94.696 141.912 94.696C141.084 94.696 140.34 94.9 139.68 95.308C139.032 95.704 138.516 96.28 138.132 97.036C137.76 97.78 137.574 98.656 137.574 99.664C137.574 100.66 137.76 101.53 138.132 102.274C138.516 103.018 139.032 103.594 139.68 104.002C140.34 104.398 141.084 104.596 141.912 104.596C142.956 104.596 143.838 104.35 144.558 103.858C145.278 103.354 145.8 102.682 146.124 101.842H147.852C147.468 103.162 146.772 104.206 145.764 104.974C144.756 105.73 143.478 106.108 141.93 106.108C140.742 106.108 139.692 105.838 138.78 105.298C137.868 104.746 137.154 103.984 136.638 103.012C136.134 102.028 135.882 100.912 135.882 99.664C135.882 98.404 136.134 97.282 136.638 96.298C137.154 95.314 137.868 94.552 138.78 94.012C139.692 93.46 140.742 93.184 141.93 93.184ZM154.093 95.992C155.053 95.992 155.863 96.232 156.523 96.712C157.195 97.192 157.663 97.834 157.927 98.638V96.118H159.565V106H157.927V103.48C157.663 104.284 157.195 104.926 156.523 105.406C155.863 105.886 155.053 106.126 154.093 106.126C153.217 106.126 152.437 105.922 151.753 105.514C151.069 105.106 150.529 104.524 150.133 103.768C149.749 103 149.557 102.1 149.557 101.068C149.557 100.036 149.749 99.136 150.133 98.368C150.529 97.6 151.069 97.012 151.753 96.604C152.437 96.196 153.217 95.992 154.093 95.992ZM154.561 97.45C153.553 97.45 152.743 97.774 152.131 98.422C151.531 99.058 151.231 99.94 151.231 101.068C151.231 102.196 151.531 103.084 152.131 103.732C152.743 104.368 153.553 104.686 154.561 104.686C155.209 104.686 155.785 104.536 156.289 104.236C156.805 103.936 157.207 103.516 157.495 102.976C157.783 102.424 157.927 101.788 157.927 101.068C157.927 100.348 157.783 99.712 157.495 99.16C157.207 98.608 156.805 98.188 156.289 97.9C155.785 97.6 155.209 97.45 154.561 97.45ZM163.809 98.116C164.133 97.432 164.607 96.904 165.231 96.532C165.855 96.148 166.599 95.956 167.463 95.956V97.738H166.959C166.035 97.738 165.279 97.978 164.691 98.458C164.103 98.926 163.809 99.706 163.809 100.798V106H162.171V96.118H163.809V98.116ZM173.13 95.992C174.09 95.992 174.9 96.232 175.56 96.712C176.232 97.192 176.7 97.834 176.964 98.638V92.68H178.602V106H176.964V103.48C176.7 104.284 176.232 104.926 175.56 105.406C174.9 105.886 174.09 106.126 173.13 106.126C172.254 106.126 171.474 105.922 170.79 105.514C170.106 105.106 169.566 104.524 169.17 103.768C168.786 103 168.594 102.1 168.594 101.068C168.594 100.036 168.786 99.136 169.17 98.368C169.566 97.6 170.106 97.012 170.79 96.604C171.474 96.196 172.254 95.992 173.13 95.992ZM173.598 97.45C172.59 97.45 171.78 97.774 171.168 98.422C170.568 99.058 170.268 99.94 170.268 101.068C170.268 102.196 170.568 103.084 171.168 103.732C171.78 104.368 172.59 104.686 173.598 104.686C174.246 104.686 174.822 104.536 175.326 104.236C175.842 103.936 176.244 103.516 176.532 102.976C176.82 102.424 176.964 101.788 176.964 101.068C176.964 100.348 176.82 99.712 176.532 99.16C176.244 98.608 175.842 98.188 175.326 97.9C174.822 97.6 174.246 97.45 173.598 97.45Z" fill="white"/>
<defs>
<filter id="filter0_d_1527_2827" x="353" y="0" width="110" height="110" filterUnits="userSpaceOnUse" color-interpolation-filters="sRGB">
<feFlood flood-opacity="0" result="BackgroundImageFix"/>
<feColorMatrix in="SourceAlpha" type="matrix" values="0 0 0 0 0 0 0 0 0 0 0 0 0 0 0 0 0 0 127 0" result="hardAlpha"/>
<feOffset dy="4"/>
<feGaussianBlur stdDeviation="7"/>
<feComposite in2="hardAlpha" operator="out"/>
<feColorMatrix type="matrix" values="0 0 0 0 0.255171 0 0 0 0 0.248559 0 0 0 0 0.579167 0 0 0 1 0"/>
<feBlend mode="normal" in2="BackgroundImageFix" result="effect1_dropShadow_1527_2827"/>
<feBlend mode="normal" in="SourceGraphic" in2="effect1_dropShadow_1527_2827" result="shape"/>
</filter>
<linearGradient id="paint0_linear_1527_2827" x1="408" y1="10" x2="408" y2="92" gradientUnits="userSpaceOnUse">
<stop stop-color="#6671ED"/>
<stop offset="0.883552" stop-color="#2840FF"/>
</linearGradient>
<linearGradient id="paint1_linear_1527_2827" x1="-77" y1="-53.3166" x2="43.1914" y2="297.202" gradientUnits="userSpaceOnUse">
<stop offset="0.164613" stop-color="#6C6F84"/>
<stop offset="1" stop-color="#3F4054"/>
</linearGradient>
</defs>
</svg>
