<svg width="473" height="97" viewBox="0 0 473 97" fill="none" xmlns="http://www.w3.org/2000/svg">
<g filter="url(#filter0_d_1386_2563)">
<rect x="14" y="10" width="445" height="69" rx="8" fill="url(#paint0_linear_1386_2563)"/>
</g>
<path d="M192.866 44.448C193.634 44.604 194.252 44.97 194.72 45.546C195.2 46.122 195.44 46.794 195.44 47.562C195.44 48.618 195.086 49.458 194.378 50.082C193.67 50.694 192.644 51 191.3 51H186.242V38.292H191.21C192.482 38.292 193.454 38.58 194.126 39.156C194.81 39.72 195.152 40.5 195.152 41.496C195.152 42.3 194.942 42.954 194.522 43.458C194.102 43.95 193.55 44.28 192.866 44.448ZM188.294 43.764H190.832C191.552 43.764 192.098 43.596 192.47 43.26C192.854 42.924 193.046 42.456 193.046 41.856C193.046 41.268 192.854 40.806 192.47 40.47C192.098 40.134 191.528 39.966 190.76 39.966H188.294V43.764ZM190.886 49.308C191.666 49.308 192.266 49.134 192.686 48.786C193.118 48.426 193.334 47.928 193.334 47.292C193.334 46.656 193.118 46.158 192.686 45.798C192.254 45.438 191.648 45.258 190.868 45.258H188.294V49.308H190.886ZM206.513 41.082V51H204.443V48.84C204.191 49.572 203.753 50.142 203.129 50.55C202.505 50.946 201.779 51.144 200.951 51.144C199.799 51.144 198.875 50.772 198.179 50.028C197.483 49.284 197.135 48.222 197.135 46.842V41.082H199.187V46.626C199.187 47.526 199.415 48.222 199.871 48.714C200.327 49.194 200.951 49.434 201.743 49.434C202.559 49.434 203.213 49.17 203.705 48.642C204.197 48.114 204.443 47.346 204.443 46.338V41.082H206.513ZM213.957 49.218V51H212.697C211.641 51 210.837 50.748 210.285 50.244C209.745 49.728 209.475 48.876 209.475 47.688V42.828H208.053V41.082H209.475V38.616H211.545V41.082H213.939V42.828H211.545V47.724C211.545 48.288 211.647 48.678 211.851 48.894C212.067 49.11 212.439 49.218 212.967 49.218H213.957ZM220.865 49.218V51H219.605C218.549 51 217.745 50.748 217.193 50.244C216.653 49.728 216.383 48.876 216.383 47.688V42.828H214.961V41.082H216.383V38.616H218.453V41.082H220.847V42.828H218.453V47.724C218.453 48.288 218.555 48.678 218.759 48.894C218.975 49.11 219.347 49.218 219.875 49.218H220.865ZM227.323 40.956C228.283 40.956 229.147 41.16 229.915 41.568C230.683 41.976 231.283 42.564 231.715 43.332C232.147 44.1 232.363 45 232.363 46.032C232.363 47.076 232.147 47.982 231.715 48.75C231.283 49.518 230.683 50.106 229.915 50.514C229.147 50.922 228.283 51.126 227.323 51.126C226.363 51.126 225.499 50.922 224.731 50.514C223.975 50.106 223.375 49.518 222.931 48.75C222.499 47.97 222.283 47.064 222.283 46.032C222.283 45 222.499 44.1 222.931 43.332C223.375 42.564 223.975 41.976 224.731 41.568C225.499 41.16 226.363 40.956 227.323 40.956ZM227.323 42.738C226.795 42.738 226.309 42.858 225.865 43.098C225.421 43.338 225.061 43.71 224.785 44.214C224.521 44.706 224.389 45.312 224.389 46.032C224.389 46.764 224.521 47.376 224.785 47.868C225.061 48.36 225.421 48.726 225.865 48.966C226.309 49.206 226.795 49.326 227.323 49.326C227.851 49.326 228.337 49.206 228.781 48.966C229.225 48.726 229.579 48.36 229.843 47.868C230.119 47.376 230.257 46.764 230.257 46.032C230.257 45.312 230.119 44.706 229.843 44.214C229.579 43.71 229.225 43.338 228.781 43.098C228.337 42.858 227.851 42.738 227.323 42.738ZM239.88 40.92C241.032 40.92 241.956 41.292 242.652 42.036C243.348 42.78 243.696 43.842 243.696 45.222V51H241.644V45.438C241.644 44.55 241.416 43.866 240.96 43.386C240.504 42.894 239.88 42.648 239.088 42.648C238.272 42.648 237.618 42.912 237.126 43.44C236.634 43.956 236.388 44.718 236.388 45.726V51H234.336V41.082H236.388V43.26C236.652 42.516 237.096 41.94 237.72 41.532C238.344 41.124 239.064 40.92 239.88 40.92ZM258.486 38.292V39.948H254.94V51H252.87V39.948H249.342V38.292H258.486ZM269.233 45.564C269.233 45.9 269.209 46.194 269.161 46.446H261.529C261.565 47.466 261.847 48.222 262.375 48.714C262.903 49.206 263.557 49.452 264.337 49.452C265.021 49.452 265.597 49.278 266.065 48.93C266.545 48.582 266.839 48.12 266.947 47.544H269.143C269.011 48.24 268.735 48.858 268.315 49.398C267.895 49.938 267.349 50.364 266.677 50.676C266.005 50.976 265.255 51.126 264.427 51.126C263.467 51.126 262.615 50.922 261.871 50.514C261.139 50.106 260.563 49.518 260.143 48.75C259.723 47.982 259.513 47.076 259.513 46.032C259.513 45 259.723 44.1 260.143 43.332C260.563 42.564 261.139 41.976 261.871 41.568C262.615 41.16 263.467 40.956 264.427 40.956C265.399 40.956 266.245 41.16 266.965 41.568C267.697 41.964 268.255 42.516 268.639 43.224C269.035 43.92 269.233 44.7 269.233 45.564ZM267.163 45.51C267.187 44.862 267.073 44.322 266.821 43.89C266.581 43.446 266.245 43.122 265.813 42.918C265.393 42.702 264.931 42.594 264.427 42.594C263.623 42.594 262.951 42.84 262.411 43.332C261.871 43.824 261.577 44.55 261.529 45.51H267.163ZM277.083 51L274.653 47.49L272.529 51H270.243L273.519 45.852L270.207 41.082H272.529L274.905 44.502L277.011 41.082H279.279L276.003 46.086L279.405 51H277.083ZM285.816 49.218V51H284.556C283.5 51 282.696 50.748 282.144 50.244C281.604 49.728 281.334 48.876 281.334 47.688V42.828H279.912V41.082H281.334V38.616H283.404V41.082H285.798V42.828H283.404V47.724C283.404 48.288 283.506 48.678 283.71 48.894C283.926 49.11 284.298 49.218 284.826 49.218H285.816Z" fill="white"/>
<defs>
<filter id="filter0_d_1386_2563" x="0" y="0" width="473" height="97" filterUnits="userSpaceOnUse" color-interpolation-filters="sRGB">
<feFlood flood-opacity="0" result="BackgroundImageFix"/>
<feColorMatrix in="SourceAlpha" type="matrix" values="0 0 0 0 0 0 0 0 0 0 0 0 0 0 0 0 0 0 127 0" result="hardAlpha"/>
<feOffset dy="4"/>
<feGaussianBlur stdDeviation="7"/>
<feComposite in2="hardAlpha" operator="out"/>
<feColorMatrix type="matrix" values="0 0 0 0 0.255171 0 0 0 0 0.248559 0 0 0 0 0.579167 0 0 0 1 0"/>
<feBlend mode="normal" in2="BackgroundImageFix" result="effect1_dropShadow_1386_2563"/>
<feBlend mode="normal" in="SourceGraphic" in2="effect1_dropShadow_1386_2563" result="shape"/>
</filter>
<linearGradient id="paint0_linear_1386_2563" x1="236.5" y1="10" x2="236.5" y2="79" gradientUnits="userSpaceOnUse">
<stop stop-color="#6671ED"/>
<stop offset="0.883552" stop-color="#2840FF"/>
</linearGradient>
</defs>
</svg>
