<svg width="395" height="60" viewBox="0 0 395 60" fill="none" xmlns="http://www.w3.org/2000/svg">
<rect width="395" height="60" rx="30" transform="matrix(-1 0 0 1 395 0)" fill="#1F2233"/>
<rect x="190" width="205" height="60" rx="30" fill="url(#paint0_linear_1386_2564)"/>
<path d="M54.68 22.688V34H51.944V22.688H54.68ZM62.233 24.976C63.257 24.976 64.0677 25.3173 64.665 26C65.273 26.6827 65.577 27.6213 65.577 28.816V34H62.841V29.136C62.841 28.5387 62.681 28.0747 62.361 27.744C62.0517 27.4027 61.6357 27.232 61.113 27.232C60.5583 27.232 60.1157 27.408 59.785 27.76C59.465 28.112 59.305 28.6133 59.305 29.264V34H56.569V25.072H59.305V26.704C59.561 26.1707 59.9397 25.7493 60.441 25.44C60.953 25.1307 61.5503 24.976 62.233 24.976ZM70.7735 24.96C71.4562 24.96 72.0428 25.1147 72.5335 25.424C73.0242 25.7333 73.3868 26.1547 73.6215 26.688V25.072H76.3415V34H73.6215V32.384C73.3868 32.9173 73.0242 33.3387 72.5335 33.648C72.0428 33.9573 71.4562 34.112 70.7735 34.112C70.0375 34.112 69.3762 33.9307 68.7895 33.568C68.2135 33.1947 67.7548 32.6613 67.4135 31.968C67.0828 31.2747 66.9175 30.464 66.9175 29.536C66.9175 28.5973 67.0828 27.7867 67.4135 27.104C67.7548 26.4107 68.2135 25.8827 68.7895 25.52C69.3762 25.1467 70.0375 24.96 70.7735 24.96ZM71.6535 27.36C71.0668 27.36 70.5922 27.552 70.2295 27.936C69.8775 28.32 69.7015 28.8533 69.7015 29.536C69.7015 30.2187 69.8775 30.752 70.2295 31.136C70.5922 31.52 71.0668 31.712 71.6535 31.712C72.2295 31.712 72.6988 31.5147 73.0615 31.12C73.4348 30.7253 73.6215 30.1973 73.6215 29.536C73.6215 28.864 73.4348 28.336 73.0615 27.952C72.6988 27.5573 72.2295 27.36 71.6535 27.36ZM82.2573 24.96C83.4093 24.96 84.3746 25.28 85.1533 25.92C85.9319 26.5493 86.4226 27.4187 86.6253 28.528H83.7293C83.6439 28.144 83.4679 27.8453 83.2013 27.632C82.9346 27.4187 82.5986 27.312 82.1933 27.312C81.7133 27.312 81.3186 27.504 81.0093 27.888C80.6999 28.2613 80.5453 28.8107 80.5453 29.536C80.5453 30.2613 80.6999 30.816 81.0093 31.2C81.3186 31.5733 81.7133 31.76 82.1933 31.76C82.5986 31.76 82.9346 31.6533 83.2013 31.44C83.4679 31.2267 83.6439 30.928 83.7293 30.544H86.6253C86.4226 31.6533 85.9319 32.528 85.1533 33.168C84.3746 33.7973 83.4093 34.112 82.2573 34.112C81.3826 34.112 80.6039 33.9307 79.9213 33.568C79.2493 33.1947 78.7213 32.6613 78.3372 31.968C77.9533 31.2747 77.7613 30.464 77.7613 29.536C77.7613 28.5973 77.9479 27.7867 78.3213 27.104C78.7053 26.4107 79.2386 25.8827 79.9213 25.52C80.6039 25.1467 81.3826 24.96 82.2573 24.96ZM93.1094 31.648V34H91.8774C90.832 34 90.016 33.744 89.4294 33.232C88.8534 32.7093 88.5654 31.8507 88.5654 30.656V27.376H87.3654V25.072H88.5654V22.88H91.3014V25.072H93.0934V27.376H91.3014V30.704C91.3014 31.056 91.3707 31.3013 91.5094 31.44C91.6587 31.5787 91.904 31.648 92.2454 31.648H93.1094ZM94.3911 22.56C94.3911 22.144 94.5405 21.8027 94.8391 21.536C95.1378 21.2587 95.5325 21.12 96.0231 21.12C96.5138 21.12 96.9085 21.2587 97.2071 21.536C97.5058 21.8027 97.6551 22.144 97.6551 22.56C97.6551 22.9653 97.5058 23.3067 97.2071 23.584C96.9085 23.8507 96.5138 23.984 96.0231 23.984C95.5325 23.984 95.1378 23.8507 94.8391 23.584C94.5405 23.3067 94.3911 22.9653 94.3911 22.56ZM97.3831 25.072V34H94.6471V25.072H97.3831ZM103.4 31.328L105.336 25.072H108.248L105.08 34H101.688L98.5201 25.072H101.432L103.4 31.328ZM117.862 29.296C117.862 29.52 117.835 29.7653 117.782 30.032H111.59C111.622 30.704 111.792 31.1893 112.102 31.488C112.411 31.776 112.806 31.92 113.286 31.92C113.691 31.92 114.027 31.8187 114.294 31.616C114.56 31.4133 114.736 31.152 114.822 30.832H117.718C117.6 31.4613 117.344 32.0267 116.95 32.528C116.555 33.0187 116.054 33.408 115.446 33.696C114.838 33.9733 114.16 34.112 113.414 34.112C112.539 34.112 111.76 33.9307 111.078 33.568C110.406 33.1947 109.878 32.6613 109.493 31.968C109.11 31.2747 108.918 30.464 108.918 29.536C108.918 28.5973 109.104 27.7867 109.478 27.104C109.862 26.4107 110.395 25.8827 111.078 25.52C111.76 25.1467 112.539 24.96 113.414 24.96C114.299 24.96 115.078 25.1413 115.75 25.504C116.422 25.8667 116.939 26.3787 117.302 27.04C117.675 27.6907 117.862 28.4427 117.862 29.296ZM115.094 28.88C115.104 28.2933 114.944 27.856 114.614 27.568C114.294 27.2693 113.894 27.12 113.414 27.12C112.912 27.12 112.496 27.2693 112.166 27.568C111.835 27.8667 111.648 28.304 111.606 28.88H115.094Z" fill="white" fill-opacity="0.33"/>
<path d="M273.904 31.728H269.376L268.576 34H266.192L270.352 22.832H272.928L277.072 34H274.688L273.904 31.728ZM273.296 30.016L271.632 25.248L269.968 30.016H273.296ZM282.274 25.024C283.415 25.024 284.364 25.3333 285.122 25.952C285.89 26.5707 286.37 27.4133 286.562 28.48H284.178C284.082 28.0107 283.863 27.6427 283.522 27.376C283.18 27.0987 282.748 26.96 282.226 26.96C281.628 26.96 281.127 27.184 280.722 27.632C280.327 28.0693 280.13 28.7147 280.13 29.568C280.13 30.4213 280.327 31.072 280.722 31.52C281.127 31.9573 281.628 32.176 282.226 32.176C282.748 32.176 283.18 32.0427 283.522 31.776C283.863 31.4987 284.082 31.1253 284.178 30.656H286.562C286.37 31.7227 285.89 32.5653 285.122 33.184C284.364 33.8027 283.415 34.112 282.274 34.112C281.41 34.112 280.642 33.9307 279.97 33.568C279.298 33.1947 278.775 32.6667 278.402 31.984C278.028 31.3013 277.842 30.496 277.842 29.568C277.842 28.64 278.028 27.8347 278.402 27.152C278.775 26.4587 279.298 25.9307 279.97 25.568C280.642 25.2053 281.41 25.024 282.274 25.024ZM292.901 32.064V34H291.717C290.725 34 289.962 33.76 289.429 33.28C288.906 32.8 288.645 32 288.645 30.88V27.04H287.413V25.136H288.645V22.944H290.901V25.136H292.885V27.04H290.901V30.912C290.901 31.3387 290.986 31.6373 291.157 31.808C291.327 31.9787 291.615 32.064 292.021 32.064H292.901ZM294.268 22.592C294.268 22.2293 294.396 21.936 294.652 21.712C294.908 21.4773 295.244 21.36 295.66 21.36C296.076 21.36 296.412 21.4773 296.668 21.712C296.924 21.936 297.052 22.2293 297.052 22.592C297.052 22.944 296.924 23.2373 296.668 23.472C296.412 23.696 296.076 23.808 295.66 23.808C295.244 23.808 294.908 23.696 294.652 23.472C294.396 23.2373 294.268 22.944 294.268 22.592ZM296.78 25.136V34H294.524V25.136H296.78ZM302.677 31.744L304.917 25.136H307.317L304.037 34H301.285L298.005 25.136H300.421L302.677 31.744ZM316.907 29.232C316.907 29.456 316.88 29.712 316.827 30H310.331C310.363 30.7893 310.576 31.3707 310.971 31.744C311.366 32.1173 311.856 32.304 312.443 32.304C312.966 32.304 313.398 32.176 313.739 31.92C314.091 31.664 314.315 31.3173 314.411 30.88H316.795C316.678 31.4987 316.427 32.0533 316.043 32.544C315.659 33.0347 315.163 33.4187 314.555 33.696C313.958 33.9733 313.291 34.112 312.555 34.112C311.691 34.112 310.923 33.9307 310.251 33.568C309.579 33.1947 309.056 32.6667 308.683 31.984C308.31 31.3013 308.123 30.496 308.123 29.568C308.123 28.64 308.31 27.8347 308.683 27.152C309.056 26.4587 309.579 25.9307 310.251 25.568C310.923 25.2053 311.691 25.024 312.555 25.024C313.43 25.024 314.192 25.2053 314.843 25.568C315.504 25.9307 316.011 26.432 316.363 27.072C316.726 27.7013 316.907 28.4213 316.907 29.232ZM314.635 29.008C314.667 28.2827 314.475 27.7333 314.059 27.36C313.654 26.9867 313.152 26.8 312.555 26.8C311.947 26.8 311.435 26.9867 311.019 27.36C310.603 27.7333 310.374 28.2827 310.331 29.008H314.635Z" fill="white"/>
<defs>
<linearGradient id="paint0_linear_1386_2564" x1="142.167" y1="-21.1055" x2="165.405" y2="105.196" gradientUnits="userSpaceOnUse">
<stop offset="0.164613" stop-color="#6C6F84"/>
<stop offset="1" stop-color="#3F4054"/>
</linearGradient>
</defs>
</svg>
