<svg width="298" height="78" viewBox="0 0 298 78" fill="none" xmlns="http://www.w3.org/2000/svg">
<path d="M4.25781 15V5.00586H6.37695V15H4.25781ZM15.7832 15H13.6982V10.5361C13.6982 9.9847 13.6003 9.57227 13.4043 9.29883C13.2083 9.02083 12.8962 8.88184 12.4678 8.88184C11.8844 8.88184 11.4629 9.0778 11.2031 9.46973C10.9434 9.8571 10.8135 10.502 10.8135 11.4043V15H8.72852V7.35742H10.3213L10.6016 8.33496H10.7178C10.9502 7.96582 11.2692 7.68783 11.6748 7.50098C12.085 7.30957 12.5498 7.21387 13.0693 7.21387C13.958 7.21387 14.6325 7.4554 15.0928 7.93848C15.5531 8.41699 15.7832 9.1097 15.7832 10.0166V15ZM22.127 15.1367C21.2292 15.1367 20.5251 14.8109 20.0146 14.1592H19.9053C19.9782 14.7972 20.0146 15.1663 20.0146 15.2666V18.3633H17.9297V7.35742H19.625L19.9189 8.34863H20.0146C20.5023 7.59212 21.2246 7.21387 22.1816 7.21387C23.084 7.21387 23.7904 7.5625 24.3008 8.25977C24.8112 8.95703 25.0664 9.92546 25.0664 11.165C25.0664 11.9808 24.9456 12.6895 24.7041 13.291C24.4671 13.8926 24.1276 14.3506 23.6855 14.665C23.2435 14.9795 22.724 15.1367 22.127 15.1367ZM21.5117 8.88184C20.9967 8.88184 20.6208 9.04134 20.3838 9.36035C20.1468 9.6748 20.0238 10.1966 20.0146 10.9258V11.1514C20.0146 11.9717 20.1354 12.5596 20.377 12.915C20.623 13.2705 21.0104 13.4482 21.5391 13.4482C22.4733 13.4482 22.9404 12.6781 22.9404 11.1377C22.9404 10.3857 22.8242 9.82292 22.5918 9.44922C22.3639 9.07096 22.0039 8.88184 21.5117 8.88184ZM32.2031 15L31.9229 14.0225H31.8135C31.5902 14.3779 31.2734 14.6536 30.8633 14.8496C30.4531 15.041 29.986 15.1367 29.4619 15.1367C28.5641 15.1367 27.8874 14.8975 27.4316 14.4189C26.9759 13.9359 26.748 13.2432 26.748 12.3408V7.35742H28.833V11.8213C28.833 12.3727 28.931 12.7874 29.127 13.0654C29.3229 13.3389 29.6351 13.4756 30.0635 13.4756C30.6468 13.4756 31.0684 13.2819 31.3281 12.8945C31.5879 12.5026 31.7178 11.8555 31.7178 10.9531V7.35742H33.8027V15H32.2031ZM39.21 13.4756C39.5745 13.4756 40.012 13.3958 40.5225 13.2363V14.7881C40.0029 15.0205 39.3649 15.1367 38.6084 15.1367C37.7744 15.1367 37.166 14.9271 36.7832 14.5078C36.4049 14.084 36.2158 13.4505 36.2158 12.6074V8.92285H35.2178V8.04102L36.3662 7.34375L36.9678 5.73047H38.3008V7.35742H40.4404V8.92285H38.3008V12.6074C38.3008 12.9036 38.3828 13.1224 38.5469 13.2637C38.7155 13.4049 38.9365 13.4756 39.21 13.4756ZM47.96 15H45.875V5.00586H51.6035V6.74219H47.96V9.31934H51.3506V11.0488H47.96V15ZM53.3057 5.38184C53.3057 4.7028 53.6839 4.36328 54.4404 4.36328C55.1969 4.36328 55.5752 4.7028 55.5752 5.38184C55.5752 5.7054 55.4795 5.95833 55.2881 6.14062C55.1012 6.31836 54.8187 6.40723 54.4404 6.40723C53.6839 6.40723 53.3057 6.06543 53.3057 5.38184ZM55.4795 15H53.3945V7.35742H55.4795V15ZM60.8389 8.69727C60.3968 8.69727 60.0505 8.83854 59.7998 9.12109C59.5492 9.39909 59.4056 9.79557 59.3691 10.3105H62.2949C62.2858 9.79557 62.1514 9.39909 61.8916 9.12109C61.6318 8.83854 61.2809 8.69727 60.8389 8.69727ZM61.1328 15.1367C59.9023 15.1367 58.9408 14.7972 58.248 14.1182C57.5553 13.4391 57.209 12.4775 57.209 11.2334C57.209 9.9528 57.528 8.96387 58.166 8.2666C58.8086 7.56478 59.695 7.21387 60.8252 7.21387C61.9053 7.21387 62.7461 7.52148 63.3477 8.13672C63.9492 8.75195 64.25 9.60189 64.25 10.6865V11.6982H59.3213C59.3441 12.2907 59.5195 12.7533 59.8477 13.0859C60.1758 13.4186 60.6361 13.585 61.2285 13.585C61.6888 13.585 62.124 13.5371 62.5342 13.4414C62.9443 13.3457 63.3727 13.193 63.8193 12.9834V14.5967C63.4548 14.779 63.0651 14.9134 62.6504 15C62.2357 15.0911 61.7298 15.1367 61.1328 15.1367ZM68.0303 15H65.9453V4.36328H68.0303V15ZM72.6445 15.1367C71.7467 15.1367 71.0404 14.7881 70.5254 14.0908C70.015 13.3936 69.7598 12.4274 69.7598 11.1924C69.7598 9.93913 70.0195 8.96387 70.5391 8.2666C71.0632 7.56478 71.7832 7.21387 72.6992 7.21387C73.6608 7.21387 74.3945 7.58757 74.9004 8.33496H74.9688C74.8639 7.7653 74.8115 7.25716 74.8115 6.81055V4.36328H76.9033V15H75.3037L74.9004 14.0088H74.8115C74.3376 14.7607 73.6152 15.1367 72.6445 15.1367ZM73.376 13.4756C73.9092 13.4756 74.2988 13.3206 74.5449 13.0107C74.7956 12.7008 74.9323 12.1745 74.9551 11.4316V11.2061C74.9551 10.3857 74.8275 9.79785 74.5723 9.44238C74.3216 9.08691 73.9115 8.90918 73.3418 8.90918C72.877 8.90918 72.5146 9.10742 72.2549 9.50391C71.9997 9.89583 71.8721 10.4678 71.8721 11.2197C71.8721 11.9717 72.002 12.5368 72.2617 12.915C72.5215 13.2887 72.8929 13.4756 73.376 13.4756Z" fill="white"/>
<g filter="url(#filter0_dd_1238_2025)">
<rect x="3" y="28" width="291.533" height="46" rx="6" fill="#30323F"/>
</g>
<path d="M21.378 57H15.8067V47.0059H21.378V48.0381H16.9688V51.2578H21.1114V52.2832H16.9688V55.9609H21.378V57ZM28.5557 57V52.1533C28.5557 51.5426 28.4167 51.0869 28.1387 50.7861C27.8607 50.4854 27.4255 50.335 26.8331 50.335C26.0492 50.335 25.475 50.5469 25.1104 50.9707C24.7458 51.3945 24.5635 52.0941 24.5635 53.0693V57H23.4288V49.5078H24.3516L24.5362 50.5332H24.5909C24.8233 50.1641 25.1491 49.8792 25.5684 49.6787C25.9877 49.4736 26.4548 49.3711 26.9698 49.3711C27.8721 49.3711 28.5512 49.5898 29.0069 50.0273C29.4626 50.4603 29.6905 51.1553 29.6905 52.1123V57H28.5557ZM34.4483 56.2002C34.6488 56.2002 34.8425 56.1865 35.0294 56.1592C35.2162 56.1273 35.3643 56.0954 35.4737 56.0635V56.9316C35.3506 56.9909 35.1684 57.0387 34.9268 57.0752C34.6898 57.1162 34.4756 57.1367 34.2842 57.1367C32.835 57.1367 32.1104 56.3734 32.1104 54.8467V50.3896H31.0372V49.8428L32.1104 49.3711L32.5889 47.7715H33.2452V49.5078H35.419V50.3896H33.2452V54.7988C33.2452 55.25 33.3523 55.5964 33.5665 55.8379C33.7807 56.0794 34.0746 56.2002 34.4483 56.2002ZM40.1426 57.1367C39.0352 57.1367 38.1602 56.7995 37.5176 56.125C36.8796 55.4505 36.5606 54.514 36.5606 53.3154C36.5606 52.1077 36.8568 51.1484 37.4493 50.4375C38.0463 49.7266 38.8461 49.3711 39.8487 49.3711C40.7875 49.3711 41.5303 49.681 42.0772 50.3008C42.6241 50.916 42.8975 51.7295 42.8975 52.7412V53.459H37.7364C37.7592 54.3385 37.9802 55.0062 38.3995 55.4619C38.8233 55.9176 39.418 56.1455 40.1837 56.1455C40.9903 56.1455 41.7878 55.9769 42.5762 55.6396V56.6514C42.1752 56.8245 41.7947 56.9476 41.4346 57.0205C41.0792 57.098 40.6485 57.1367 40.1426 57.1367ZM39.835 50.3213C39.2335 50.3213 38.7527 50.5173 38.3926 50.9092C38.0372 51.3011 37.8275 51.8434 37.7637 52.5361H41.6807C41.6807 51.8206 41.5212 51.2738 41.2022 50.8955C40.8832 50.5127 40.4275 50.3213 39.835 50.3213ZM48.2569 49.3711C48.5896 49.3711 48.8881 49.3984 49.1524 49.4531L48.9952 50.5059C48.6853 50.4375 48.4118 50.4033 48.1749 50.4033C47.5687 50.4033 47.0492 50.6494 46.6163 51.1416C46.1879 51.6338 45.9737 52.2467 45.9737 52.9805V57H44.8389V49.5078H45.7755L45.9053 50.8955H45.96C46.238 50.4079 46.573 50.0319 46.9649 49.7676C47.3568 49.5033 47.7875 49.3711 48.2569 49.3711ZM56.6104 56.2002C56.8109 56.2002 57.0046 56.1865 57.1915 56.1592C57.3783 56.1273 57.5264 56.0954 57.6358 56.0635V56.9316C57.5128 56.9909 57.3305 57.0387 57.0889 57.0752C56.8519 57.1162 56.6378 57.1367 56.4464 57.1367C54.9971 57.1367 54.2725 56.3734 54.2725 54.8467V50.3896H53.1993V49.8428L54.2725 49.3711L54.751 47.7715H55.4073V49.5078H57.5811V50.3896H55.4073V54.7988C55.4073 55.25 55.5144 55.5964 55.7286 55.8379C55.9428 56.0794 56.2367 56.2002 56.6104 56.2002ZM62.3047 57.1367C61.1973 57.1367 60.3223 56.7995 59.6797 56.125C59.0417 55.4505 58.7227 54.514 58.7227 53.3154C58.7227 52.1077 59.0189 51.1484 59.6114 50.4375C60.2084 49.7266 61.0082 49.3711 62.0108 49.3711C62.9496 49.3711 63.6924 49.681 64.2393 50.3008C64.7862 50.916 65.0596 51.7295 65.0596 52.7412V53.459H59.8985C59.9213 54.3385 60.1423 55.0062 60.5616 55.4619C60.9854 55.9176 61.5801 56.1455 62.3458 56.1455C63.1524 56.1455 63.9499 55.9769 64.7383 55.6396V56.6514C64.3373 56.8245 63.9568 56.9476 63.5967 57.0205C63.2413 57.098 62.8106 57.1367 62.3047 57.1367ZM61.9971 50.3213C61.3956 50.3213 60.9148 50.5173 60.5547 50.9092C60.1993 51.3011 59.9896 51.8434 59.9258 52.5361H63.8428C63.8428 51.8206 63.6833 51.2738 63.3643 50.8955C63.0453 50.5127 62.5896 50.3213 61.9971 50.3213ZM68.8057 53.165L66.2012 49.5078H67.4932L69.4688 52.3789L71.4376 49.5078H72.7159L70.1114 53.165L72.8526 57H71.5674L69.4688 53.9648L67.3497 57H66.0645L68.8057 53.165ZM76.7628 56.2002C76.9633 56.2002 77.157 56.1865 77.3438 56.1592C77.5307 56.1273 77.6788 56.0954 77.7881 56.0635V56.9316C77.6651 56.9909 77.4828 57.0387 77.2413 57.0752C77.0043 57.1162 76.7901 57.1367 76.5987 57.1367C75.1495 57.1367 74.4249 56.3734 74.4249 54.8467V50.3896H73.3516V49.8428L74.4249 49.3711L74.9034 47.7715H75.5596V49.5078H77.7335V50.3896H75.5596V54.7988C75.5596 55.25 75.6667 55.5964 75.8809 55.8379C76.0951 56.0794 76.3891 56.2002 76.7628 56.2002ZM88.0557 57V52.1533C88.0557 51.5426 87.9167 51.0869 87.6387 50.7861C87.3607 50.4854 86.9255 50.335 86.3331 50.335C85.5447 50.335 84.9682 50.5492 84.6036 50.9775C84.2436 51.4059 84.0635 52.1077 84.0635 53.083V57H82.9288V46.3633H84.0635V49.583C84.0635 49.9704 84.0453 50.2917 84.0089 50.5469H84.0772C84.3005 50.1868 84.6172 49.9043 85.0274 49.6992C85.4421 49.4896 85.9138 49.3848 86.4424 49.3848C87.3585 49.3848 88.0443 49.6035 88.5001 50.041C88.9603 50.474 89.1905 51.1644 89.1905 52.1123V57H88.0557ZM94.6934 57.1367C93.586 57.1367 92.711 56.7995 92.0684 56.125C91.4304 55.4505 91.1114 54.514 91.1114 53.3154C91.1114 52.1077 91.4076 51.1484 92.0001 50.4375C92.5971 49.7266 93.3969 49.3711 94.3995 49.3711C95.3383 49.3711 96.0811 49.681 96.628 50.3008C97.1749 50.916 97.4483 51.7295 97.4483 52.7412V53.459H92.2872C92.31 54.3385 92.531 55.0062 92.9503 55.4619C93.3741 55.9176 93.9688 56.1455 94.7344 56.1455C95.5411 56.1455 96.3386 55.9769 97.127 55.6396V56.6514C96.726 56.8245 96.3454 56.9476 95.9854 57.0205C95.6299 57.098 95.1993 57.1367 94.6934 57.1367ZM94.3858 50.3213C93.7842 50.3213 93.3034 50.5173 92.9434 50.9092C92.588 51.3011 92.3783 51.8434 92.3145 52.5361H96.2315C96.2315 51.8206 96.072 51.2738 95.753 50.8955C95.434 50.5127 94.9783 50.3213 94.3858 50.3213ZM102.808 49.3711C103.14 49.3711 103.439 49.3984 103.703 49.4531L103.546 50.5059C103.236 50.4375 102.963 50.4033 102.726 50.4033C102.12 50.4033 101.6 50.6494 101.167 51.1416C100.739 51.6338 100.524 52.2467 100.524 52.9805V57H99.3897V49.5078H100.326L100.456 50.8955H100.511C100.789 50.4079 101.124 50.0319 101.516 49.7676C101.908 49.5033 102.338 49.3711 102.808 49.3711ZM108.27 57.1367C107.162 57.1367 106.287 56.7995 105.645 56.125C105.007 55.4505 104.688 54.514 104.688 53.3154C104.688 52.1077 104.984 51.1484 105.576 50.4375C106.173 49.7266 106.973 49.3711 107.976 49.3711C108.914 49.3711 109.657 49.681 110.204 50.3008C110.751 50.916 111.024 51.7295 111.024 52.7412V53.459H105.863C105.886 54.3385 106.107 55.0062 106.526 55.4619C106.95 55.9176 107.545 56.1455 108.311 56.1455C109.117 56.1455 109.915 55.9769 110.703 55.6396V56.6514C110.302 56.8245 109.922 56.9476 109.562 57.0205C109.206 57.098 108.775 57.1367 108.27 57.1367ZM107.962 50.3213C107.36 50.3213 106.88 50.5173 106.52 50.9092C106.164 51.3011 105.954 51.8434 105.891 52.5361H109.808C109.808 51.8206 109.648 51.2738 109.329 50.8955C109.01 50.5127 108.554 50.3213 107.962 50.3213Z" fill="white" fill-opacity="0.23"/>
<defs>
<filter id="filter0_dd_1238_2025" x="0" y="26" width="297.533" height="52" filterUnits="userSpaceOnUse" color-interpolation-filters="sRGB">
<feFlood flood-opacity="0" result="BackgroundImageFix"/>
<feColorMatrix in="SourceAlpha" type="matrix" values="0 0 0 0 0 0 0 0 0 0 0 0 0 0 0 0 0 0 127 0" result="hardAlpha"/>
<feOffset dy="1"/>
<feGaussianBlur stdDeviation="1.5"/>
<feColorMatrix type="matrix" values="0 0 0 0 0.196078 0 0 0 0 0.196078 0 0 0 0 0.364706 0 0 0 0.15 0"/>
<feBlend mode="normal" in2="BackgroundImageFix" result="effect1_dropShadow_1238_2025"/>
<feColorMatrix in="SourceAlpha" type="matrix" values="0 0 0 0 0 0 0 0 0 0 0 0 0 0 0 0 0 0 127 0" result="hardAlpha"/>
<feOffset/>
<feGaussianBlur stdDeviation="0.5"/>
<feColorMatrix type="matrix" values="0 0 0 0 0 0 0 0 0 0 0 0 0 0 0 0 0 0 0.02 0"/>
<feBlend mode="normal" in2="effect1_dropShadow_1238_2025" result="effect2_dropShadow_1238_2025"/>
<feBlend mode="normal" in="SourceGraphic" in2="effect2_dropShadow_1238_2025" result="shape"/>
</filter>
</defs>
</svg>
