<svg width="147" height="41" viewBox="0 0 147 41" fill="none" xmlns="http://www.w3.org/2000/svg">
<path d="M145.176 20.0282C143.635 20.0323 142.134 20.5721 141.022 21.6125C139.267 23.0601 138.887 24.8886 138.909 27.1994L138.96 32.4511M112.304 32.4005L112.294 26.2651L112.263 15.3048L112.304 32.4005ZM118.469 20.0279L112.294 26.2646L118.5 32.4201L118.469 20.0279ZM77.1269 26.3467C77.1567 25.0312 76.774 23.6869 75.9993 22.5985C74.8831 21.0309 73.0754 19.9578 71.0931 19.9372C70.961 19.9372 70.83 19.9372 70.697 19.9473C69.9132 19.9958 69.1541 20.1045 68.4824 20.3842C64.0654 22.222 63.2828 28.356 67.0095 31.1315C70.237 33.5321 74.9318 32.5536 76.5577 28.887C76.901 28.1121 77.1266 27.1353 77.1266 26.3472V15.2549L77.1269 26.3467ZM106.93 20.6689C106.018 20.0779 104.948 19.8647 103.893 19.8664C103.778 19.8664 103.661 19.8721 103.558 19.8765C100.506 20.0078 97.6765 22.1642 97.6765 26.3469C97.6765 31.2921 102.979 33.9611 106.943 31.6289L106.93 20.6689ZM124.739 31.0905L134.115 23.0558C134.115 23.0558 133.887 22.6244 133.739 22.4261C132.477 20.7323 130.546 19.8863 128.518 19.8863C123.501 19.8863 119.736 26.3767 124.739 31.0905C125.086 31.4169 125.561 31.6726 126.09 31.893C127.926 32.6583 130.439 32.5956 131.799 31.5881L124.739 31.0905ZM87.3883 19.9062C87.246 19.9086 87.1046 19.924 86.9618 19.9266C83.1557 19.9986 80.4116 23.95 81.2429 27.6161C82.0531 31.1889 85.9562 33.3045 89.3285 32.1364C93.2558 31.1041 94.857 26.159 92.7008 22.8217C91.5214 20.9973 89.5225 19.8659 87.3883 19.9065V19.9062Z" stroke="white" stroke-width="1.93892" stroke-linecap="round" stroke-linejoin="round"/>
<path d="M35.406 16.1946H40.8951V21.8059H43.6707C44.9526 21.8059 46.2705 21.5779 47.4844 21.1664C48.0807 20.9643 48.7503 20.6827 49.3386 20.3262C48.5637 19.3146 48.1681 18.037 48.0519 16.7782C47.8935 15.0656 48.2392 12.8364 49.3962 11.496L49.9733 10.8286L50.6609 11.3812C52.3893 12.7721 53.8479 14.718 54.1045 16.9308C56.1889 16.3177 58.6363 16.4627 60.4732 17.5231L61.227 17.958L60.8301 18.7325C59.2784 21.7675 56.0297 22.7068 52.8538 22.5405C48.1016 34.3777 37.7549 39.9813 25.2098 39.9813C18.7283 39.9813 12.7821 37.5584 9.39584 31.8081C9.19731 31.4509 9.02735 31.0774 8.84707 30.7106C7.70248 28.1794 7.32223 25.4065 7.58005 22.6358L7.65735 21.8059H12.3514V16.1946H17.8406V10.7054H28.8188V5.21631H35.406V16.1946Z" fill="white"/>
<path d="M29.7334 0.639648H34.4908V5.39685H29.7334V0.639648Z" fill="white" fill-opacity="0.49"/>
<path d="M29.7334 6.13135H34.4908V10.8888H29.7334V6.13135Z" fill="white" fill-opacity="0.19"/>
<path d="M30.3174 5.0031V1.03809V5.0031ZM31.0308 5.00286V1.03809V5.00286ZM31.7515 5.00286V1.03809V5.00286ZM32.4724 5.00286V1.03809V5.00286ZM33.1933 5.00286V1.03809V5.00286ZM33.9062 5.00286V1.03809V5.00286Z" fill="white"/>
<path d="M33.9062 5.00286V1.03809M30.3174 5.0031V1.03809V5.0031ZM31.0308 5.00286V1.03809V5.00286ZM31.7515 5.00286V1.03809V5.00286ZM32.4724 5.00286V1.03809V5.00286ZM33.1933 5.00286V1.03809V5.00286Z" stroke="white" stroke-width="0.288068"/>
<path d="M53.1894 18.2709C53.5574 15.4107 51.4168 13.1637 50.0893 12.0972C48.5594 13.8659 48.3217 18.5014 50.7218 20.4528C49.3823 21.6425 46.56 22.7209 43.6699 22.7209H8.16194C7.88107 25.7377 8.16194 40.2649 8.16194 40.2649H60.2542L60.0173 18.318C57.7608 17.0159 54.8599 17.4312 53.1894 18.2707" fill="white" fill-opacity="0.35"/>
<path d="M8.16211 26.5815V40.2648H60.2544V26.5815" fill="black" fill-opacity="0.17"/>
<path d="M26.7034 39.0403C23.453 37.4979 21.6689 35.401 20.6763 33.1123L10.8027 33.543L15.8439 40.2646L26.7034 39.0403Z" fill="white" fill-opacity="0.53"/>
<path d="M53.4128 18.1646V18.1718C48.4052 24.6293 41.222 30.2658 33.5107 33.2281C26.6318 35.8707 20.6345 35.8832 16.4966 33.7611C16.0511 33.5095 15.6142 33.2301 15.1763 32.966C12.1427 30.8458 10.4342 27.3391 10.5778 22.7187H8.16211V40.2647H60.2544V17.2192H54.253L53.4128 18.1646Z" fill="black" fill-opacity="0.085"/>
<path d="M10.9521 33.3106C14.3526 33.4966 17.9815 33.53 21.1474 32.5376" stroke="white" stroke-width="0.627841" stroke-linecap="round"/>
<path d="M24.5264 30.8932C24.5262 31.2412 24.3879 31.5749 24.1418 31.821C23.8957 32.0671 23.562 32.2054 23.214 32.2056C22.8659 32.2055 22.5322 32.0672 22.2861 31.8211C22.0399 31.575 21.9016 31.2412 21.9014 30.8932C21.9015 30.5451 22.0398 30.2113 22.286 29.9652C22.5321 29.719 22.8659 29.5807 23.214 29.5806C23.562 29.5808 23.8958 29.7191 24.1419 29.9653C24.388 30.2114 24.5263 30.5451 24.5264 30.8932Z" fill="white" fill-opacity="0.53"/>
<path d="M23.5544 30.0165C23.4817 30.059 23.425 30.1241 23.3931 30.202C23.3611 30.2798 23.3555 30.366 23.3773 30.4473C23.399 30.5286 23.4469 30.6005 23.5135 30.652C23.5801 30.7034 23.6618 30.7316 23.7459 30.7321C23.8912 30.7321 24.0172 30.6514 24.0825 30.5323C24.1286 30.6433 24.154 30.7652 24.154 30.8929C24.154 31.4119 23.7332 31.8327 23.214 31.8327C22.6947 31.8327 22.2739 31.4119 22.2739 30.8929C22.2741 30.6436 22.3732 30.4046 22.5494 30.2283C22.7257 30.052 22.9647 29.9529 23.214 29.9526C23.3304 29.9525 23.4458 29.9741 23.5544 30.0162V30.0165ZM0 26.8607H61.0529C59.7235 26.5234 56.8471 26.068 57.3212 24.3257C54.9038 27.1228 49.0746 26.2879 47.6037 24.909C45.9653 27.2851 36.4279 26.382 35.7627 24.5309C33.7088 26.9411 27.3446 26.9411 25.2907 24.5309C24.6253 26.3794 15.0883 27.2851 13.4494 24.909C11.9783 26.2884 6.15169 27.1231 3.73192 24.3257C4.20627 26.068 1.32991 26.5236 0 26.8607Z" fill="white"/>
</svg>
