<svg width="114" height="41" viewBox="0 0 114 41" fill="none" xmlns="http://www.w3.org/2000/svg">
<path d="M38.64 28.6401V14.5401H47.6V16.2201H40.72V20.7201H47.18V22.4001H40.72V28.6401H38.64ZM49.3142 16.6201V14.5201H51.6742V16.6201H49.3142ZM49.4942 28.6401V18.8801H51.5142V28.6401H49.4942ZM54.3575 28.6401V18.8801H56.3175V20.6201C56.8242 19.4601 57.8775 18.8135 59.4775 18.6801L60.1375 18.6401L60.2775 20.3601L59.0575 20.4801C57.2842 20.6535 56.3975 21.5668 56.3975 23.2201V28.6401H54.3575ZM66.2617 28.8201C64.6617 28.8201 63.4017 28.3735 62.4817 27.4801C61.5617 26.5735 61.1017 25.3401 61.1017 23.7801C61.1017 22.7801 61.3017 21.9001 61.7017 21.1401C62.1151 20.3668 62.6817 19.7668 63.4017 19.3401C64.1217 18.9135 64.9484 18.7001 65.8817 18.7001C67.2284 18.7001 68.2884 19.1335 69.0617 20.0001C69.8351 20.8535 70.2217 22.0335 70.2217 23.5401V24.2201H63.0617C63.2084 26.2468 64.2817 27.2601 66.2817 27.2601C66.8417 27.2601 67.3884 27.1735 67.9217 27.0001C68.4684 26.8268 68.9817 26.5401 69.4617 26.1401L70.0617 27.5401C69.6217 27.9401 69.0551 28.2535 68.3617 28.4801C67.6684 28.7068 66.9684 28.8201 66.2617 28.8201ZM65.9617 20.1201C65.1217 20.1201 64.4551 20.3801 63.9617 20.9001C63.4684 21.4201 63.1684 22.1135 63.0617 22.9801H68.5217C68.4817 22.0735 68.2417 21.3735 67.8017 20.8801C67.3617 20.3735 66.7484 20.1201 65.9617 20.1201ZM77.6639 28.8201C76.9172 28.8201 76.2572 28.6535 75.6839 28.3201C75.1106 27.9868 74.6839 27.5401 74.4039 26.9801V28.6401H72.4239V14.5401H74.4439V20.4601C74.7372 19.9268 75.1639 19.5001 75.7239 19.1801C76.2972 18.8601 76.9439 18.7001 77.6639 18.7001C78.5306 18.7001 79.2839 18.9068 79.9239 19.3201C80.5772 19.7335 81.0772 20.3201 81.4239 21.0801C81.7839 21.8268 81.9639 22.7201 81.9639 23.7601C81.9639 24.8001 81.7839 25.7001 81.4239 26.4601C81.0772 27.2201 80.5772 27.8068 79.9239 28.2201C79.2839 28.6201 78.5306 28.8201 77.6639 28.8201ZM77.1639 27.2601C78.0039 27.2601 78.6706 26.9601 79.1639 26.3601C79.6706 25.7601 79.9239 24.8935 79.9239 23.7601C79.9239 22.6268 79.6706 21.7668 79.1639 21.1801C78.6706 20.5801 78.0039 20.2801 77.1639 20.2801C76.3239 20.2801 75.6506 20.5801 75.1439 21.1801C74.6506 21.7668 74.4039 22.6268 74.4039 23.7601C74.4039 24.8935 74.6506 25.7601 75.1439 26.3601C75.6506 26.9601 76.3239 27.2601 77.1639 27.2601ZM87.3603 28.8201C86.6803 28.8201 86.0736 28.6868 85.5403 28.4201C85.007 28.1535 84.5803 27.7935 84.2603 27.3401C83.9536 26.8868 83.8003 26.3735 83.8003 25.8001C83.8003 25.0801 83.9803 24.5135 84.3403 24.1001C84.7136 23.6868 85.3203 23.3868 86.1603 23.2001C87.0136 23.0135 88.1603 22.9201 89.6003 22.9201H90.2803V22.4001C90.2803 21.6401 90.1203 21.0935 89.8003 20.7601C89.4803 20.4268 88.9536 20.2601 88.2203 20.2601C87.6603 20.2601 87.1003 20.3468 86.5403 20.5201C85.9803 20.6801 85.407 20.9401 84.8203 21.3001L84.2003 19.8801C84.707 19.5201 85.3403 19.2335 86.1003 19.0201C86.8603 18.8068 87.587 18.7001 88.2803 18.7001C89.6136 18.7001 90.6003 19.0201 91.2403 19.6601C91.8803 20.2868 92.2003 21.2735 92.2003 22.6201V28.6401H90.3003V27.0201C90.0603 27.5801 89.687 28.0201 89.1803 28.3401C88.6736 28.6601 88.067 28.8201 87.3603 28.8201ZM87.7603 27.3801C88.4803 27.3801 89.0803 27.1268 89.5603 26.6201C90.0403 26.1135 90.2803 25.4735 90.2803 24.7001V24.1601H89.6203C88.647 24.1601 87.8803 24.2068 87.3203 24.3001C86.7736 24.3935 86.3803 24.5535 86.1403 24.7801C85.9136 24.9935 85.8003 25.2935 85.8003 25.6801C85.8003 26.1868 85.9736 26.6001 86.3203 26.9201C86.667 27.2268 87.147 27.3801 87.7603 27.3801ZM98.4025 28.8201C97.6025 28.8201 96.8558 28.7201 96.1625 28.5201C95.4692 28.3068 94.8892 28.0135 94.4225 27.6401L95.0025 26.2801C95.4958 26.6268 96.0358 26.8935 96.6225 27.0801C97.2225 27.2668 97.8225 27.3601 98.4225 27.3601C99.1292 27.3601 99.6625 27.2335 100.023 26.9801C100.383 26.7268 100.563 26.3868 100.563 25.9601C100.563 25.6135 100.443 25.3468 100.203 25.1601C99.9625 24.9601 99.6025 24.8068 99.1225 24.7001L97.2225 24.3201C95.5425 23.9735 94.7025 23.1068 94.7025 21.7201C94.7025 20.8001 95.0692 20.0668 95.8025 19.5201C96.5358 18.9735 97.4958 18.7001 98.6825 18.7001C99.3625 18.7001 100.009 18.8001 100.623 19.0001C101.249 19.2001 101.769 19.5001 102.183 19.9001L101.603 21.2601C101.203 20.9135 100.743 20.6468 100.223 20.4601C99.7025 20.2735 99.1892 20.1801 98.6825 20.1801C97.9892 20.1801 97.4625 20.3135 97.1025 20.5801C96.7425 20.8335 96.5625 21.1801 96.5625 21.6201C96.5625 22.2868 97.0025 22.7135 97.8825 22.9001L99.7825 23.2801C100.649 23.4535 101.303 23.7468 101.743 24.1601C102.196 24.5735 102.423 25.1335 102.423 25.8401C102.423 26.7735 102.056 27.5068 101.323 28.0401C100.589 28.5601 99.6158 28.8201 98.4025 28.8201ZM109.25 28.8201C107.65 28.8201 106.39 28.3735 105.47 27.4801C104.55 26.5735 104.09 25.3401 104.09 23.7801C104.09 22.7801 104.29 21.9001 104.69 21.1401C105.103 20.3668 105.67 19.7668 106.39 19.3401C107.11 18.9135 107.937 18.7001 108.87 18.7001C110.217 18.7001 111.277 19.1335 112.05 20.0001C112.823 20.8535 113.21 22.0335 113.21 23.5401V24.2201H106.05C106.197 26.2468 107.27 27.2601 109.27 27.2601C109.83 27.2601 110.377 27.1735 110.91 27.0001C111.457 26.8268 111.97 26.5401 112.45 26.1401L113.05 27.5401C112.61 27.9401 112.043 28.2535 111.35 28.4801C110.657 28.7068 109.957 28.8201 109.25 28.8201ZM108.95 20.1201C108.11 20.1201 107.443 20.3801 106.95 20.9001C106.457 21.4201 106.157 22.1135 106.05 22.9801H111.51C111.47 22.0735 111.23 21.3735 110.79 20.8801C110.35 20.3735 109.737 20.1201 108.95 20.1201Z" fill="white"/>
<path d="M0 32.7743L0.241065 32.4368L11.6419 10.8042L11.6659 10.5751L6.64035 1.13501C6.21909 0.344255 5.03363 0.544102 4.89556 1.42933L0 32.7743Z" fill="white"/>
<path d="M0.142578 32.517L0.324825 32.1616L11.605 10.7557L6.59319 1.27717C6.17647 0.494592 5.11853 0.694098 4.98079 1.57013L0.142578 32.517Z" fill="white"/>
<path d="M0.142578 32.517L0.324825 32.1616L11.605 10.7557L6.59319 1.27717C6.17647 0.494592 5.11853 0.694098 4.98079 1.57013L0.142578 32.517Z" fill="white" fill-opacity="0.33"/>
<path d="M15.3299 17.7155L19.0719 13.8832L15.3289 6.73753C14.9735 6.06111 13.9814 6.05918 13.6298 6.73753L11.6299 10.5528V10.8775L15.3299 17.7155Z" fill="white"/>
<path d="M15.263 17.5568L18.9009 13.831L15.263 6.90375C14.9176 6.24516 14.0784 6.17726 13.7366 6.83562L11.7262 10.7076L11.666 10.9057L15.263 17.5568Z" fill="white"/>
<path d="M15.263 17.5568L18.9009 13.831L15.263 6.90375C14.9176 6.24516 14.0784 6.17726 13.7366 6.83562L11.7262 10.7076L11.666 10.9057L15.263 17.5568Z" fill="white" fill-opacity="0.33"/>
<path d="M11.6403 10.5312L0 32.7747L0.109234 32.6648L0.506202 32.5036L15.0948 17.9693L15.2794 17.4663L11.6403 10.5312Z" fill="white" fill-opacity="0.31"/>
<path d="M15.797 40.1043L28.9999 32.7409L25.2306 9.51984C25.1125 8.79335 24.2214 8.50607 23.7015 9.02704L0 32.7745L13.1272 40.1038C13.5352 40.3316 13.9948 40.4512 14.4621 40.4513C14.9294 40.4514 15.3889 40.332 15.7971 40.1044" fill="white"/>
<path d="M28.8815 32.6794L25.1399 9.63548C25.0229 8.91444 24.2814 8.61614 23.7655 9.13313L0.147461 32.7293L13.1304 39.9851C13.9537 40.4448 14.9563 40.445 15.78 39.9858L28.8815 32.6794Z" fill="white"/>
<path d="M15.797 39.8874C14.968 40.3502 13.9567 40.35 13.1271 39.8867L0.105601 32.6628L0 32.7744L13.1272 40.1038C13.9568 40.5671 14.9671 40.5671 15.7971 40.1044L29 32.7409L28.9676 32.542L15.797 39.8874Z" fill="white"/>
</svg>
