<svg width="138" height="50" viewBox="0 0 138 50" fill="none" xmlns="http://www.w3.org/2000/svg">
<path d="M19.1215 43.9891L40.1586 22.9473H24.8619L11.4756 36.3384L19.1215 43.9891Z" fill="white"/>
<path d="M0 24.8624L24.8624 0H40.159L7.65071 32.5131L0 24.8624Z" fill="white"/>
<path d="M24.8625 49.7247H40.1591L26.7728 36.3384L19.1221 43.9891L24.8625 49.7247Z" fill="white" fill-opacity="0.66"/>
<path d="M26.7728 36.3384L19.1221 43.9891L30.4689 40.0584L26.7728 36.3384Z" fill="url(#paint0_linear_422_4525)"/>
<path d="M11.4756 36.336L19.1265 28.6851L26.7779 36.336L19.1265 43.987L11.4756 36.336Z" fill="white" fill-opacity="0.66"/>
<path d="M40.159 22.9473L26.7727 36.3385L40.159 49.7296H24.8624L11.4713 36.3385L24.8624 22.9473H40.159ZM24.8624 0L0 24.8624L7.65071 32.5131L40.159 0H24.8624Z" fill="url(#paint1_radial_422_4525)"/>
<path d="M45.0146 13.3301H58.384V15.9447H47.728V23.8553H57.348V26.4379H47.728V36.4464H45.0146V13.3301ZM61.619 13.3301H64.3632V36.4477H61.619V13.3301ZM74.4025 36.9644C72.4226 36.9644 70.9015 36.3831 69.8392 35.2205C68.813 34.0505 68.3 32.4254 68.3 30.3451V19.9814H71.0441V29.9258C71.0441 31.488 71.3993 32.6391 72.1097 33.3791C72.8201 34.1191 73.778 34.4891 74.9834 34.4891C75.9092 34.4891 76.7315 34.2417 77.4501 33.7467C78.1901 33.2517 78.7492 32.6063 79.1274 31.8103C79.5361 31.0128 79.7404 30.1733 79.7404 29.2919V19.9925H82.4833V36.4575H79.8686V34.0575H79.7391C79.2869 34.8756 78.5658 35.5642 77.5759 36.1233C76.5859 36.6824 75.531 36.962 74.4111 36.962L74.4025 36.9644Z" fill="white"/>
<path d="M93.0459 36.7069C92.3782 36.7069 91.7541 36.5992 91.1737 36.3838C90.6145 36.1684 90.1409 35.8777 89.7529 35.5118C89.322 35.1032 88.9993 34.6296 88.7847 34.091C88.5693 33.5533 88.4616 32.8968 88.4616 32.1214V22.4681H85.5879V19.9817H88.4616V15.332H91.2057V19.9817H95.2091V22.4681H91.2057V31.4443C91.2057 32.3487 91.3784 33.016 91.7237 33.446C92.1324 33.9196 92.7244 34.1564 93.4997 34.1564C94.1246 34.1564 94.7273 33.9735 95.3078 33.6076V36.2876C94.9847 36.4381 94.6508 36.5458 94.3063 36.6107C93.9832 36.6765 93.5639 36.7094 93.0483 36.7094L93.0459 36.7069Z" fill="white"/>
<path d="M104.684 36.7069C104.016 36.7069 103.392 36.5992 102.811 36.3838C102.252 36.1684 101.779 35.8777 101.391 35.5118C100.96 35.1032 100.637 34.6296 100.422 34.091C100.207 33.5533 100.099 32.8968 100.099 32.1214V22.4681H97.2256V19.9817H100.099V15.332H102.843V19.9817H106.847V22.4681H102.843V31.4443C102.843 32.3487 103.016 33.016 103.361 33.446C103.77 33.9196 104.362 34.1564 105.137 34.1564C105.762 34.1564 106.365 33.9735 106.945 33.6076V36.2876C106.622 36.4381 106.289 36.5458 105.944 36.6107C105.621 36.6765 105.202 36.7094 104.686 36.7094L104.684 36.7069Z" fill="white"/>
<path d="M116.77 36.9646C115.208 36.9646 113.798 36.5881 112.54 35.8349C111.292 35.0817 110.312 34.0486 109.602 32.7355C108.913 31.4011 108.568 29.9046 108.568 28.2462C108.568 26.6536 108.891 25.19 109.537 23.8555C110.204 22.5211 111.141 21.4555 112.346 20.6587C113.551 19.8612 114.95 19.4624 116.543 19.4624C118.157 19.4624 119.556 19.8324 120.74 20.5724C121.924 21.2828 122.829 22.2728 123.453 23.5423C124.099 24.8126 124.422 26.2655 124.422 27.9009C124.422 28.224 124.389 28.5036 124.323 28.7395H111.311C111.377 29.9877 111.678 31.0426 112.215 31.9043C112.753 32.7651 113.431 33.4106 114.25 33.8406C115.089 34.2714 115.961 34.4869 116.865 34.4869C118.975 34.4869 120.6 33.4969 121.74 31.517L124.065 32.6467C123.355 33.9812 122.386 35.0361 121.159 35.8115C119.954 36.586 118.491 36.9733 116.769 36.9733L116.77 36.9646ZM121.516 26.4714C121.473 25.7824 121.28 25.0938 120.936 24.4056C120.591 23.7166 120.042 23.1353 119.29 22.6617C118.55 22.1881 117.625 21.9513 116.515 21.9513C115.224 21.9513 114.126 22.3706 113.222 23.2093C112.339 24.0274 111.758 25.1144 111.478 26.4702H121.52L121.516 26.4714ZM127.601 19.9816H130.216V22.6296H130.345C130.668 21.7252 131.293 20.9827 132.218 20.4022C133.143 19.7995 134.112 19.4982 135.123 19.4982C135.876 19.4982 136.522 19.6059 137.06 19.8213V22.7912C136.371 22.4458 135.596 22.2732 134.735 22.2732C133.937 22.2732 133.205 22.4993 132.539 22.9515C131.872 23.4037 131.337 24.0171 130.936 24.7916C130.55 25.5448 130.356 26.367 130.356 27.2583V36.459H127.612V19.994L127.601 19.9816Z" fill="white"/>
<defs>
<linearGradient id="paint0_linear_422_4525" x1="21.3548" y1="45.4656" x2="27.0529" y2="39.7675" gradientUnits="userSpaceOnUse">
<stop stop-color="#1A237E" stop-opacity="0.4"/>
<stop offset="1" stop-color="#1A237E" stop-opacity="0"/>
</linearGradient>
<radialGradient id="paint1_radial_422_4525" cx="0" cy="0" r="1" gradientUnits="userSpaceOnUse" gradientTransform="translate(1.1282 3.38942) scale(60.8381)">
<stop stop-color="white" stop-opacity="0.1"/>
<stop offset="1" stop-color="white" stop-opacity="0"/>
</radialGradient>
</defs>
</svg>
