<svg width="117" height="51" viewBox="0 0 117 51" fill="none" xmlns="http://www.w3.org/2000/svg">
<path d="M20.8248 47.4573C30.1989 47.4573 37.7981 39.8581 37.7981 30.484C37.7981 21.1099 30.1989 13.5107 20.8248 13.5107C11.4507 13.5107 3.85156 21.1099 3.85156 30.484C3.85156 39.8581 11.4507 47.4573 20.8248 47.4573Z" fill="white" fill-opacity="0.31"/>
<path d="M27.6141 35.5764L21.2492 23.0586C20.6127 21.9978 19.3397 21.5734 18.2788 21.9978C17.218 22.6343 16.7937 23.9072 17.218 24.9681L19.9762 30.06L15.3085 34.7277C14.9011 35.1573 14.674 35.7269 14.674 36.319C14.674 36.911 14.9011 37.4806 15.3085 37.9102C15.7099 38.2957 16.2378 38.5219 16.7937 38.5467C17.4302 38.5467 17.8545 38.3345 18.2788 37.9102L22.0978 34.0912L23.583 37.2737C24.0073 38.1224 24.856 38.5467 25.4925 38.5467C25.9168 38.5467 26.129 38.5467 26.5533 38.3346C27.8263 38.1224 28.2506 36.8494 27.6141 35.5764ZM36.1008 0.99338C34.8278 1.84204 36.9494 9.05566 31.8575 13.5111C28.675 11.3895 24.856 10.1165 20.8248 10.1165C16.7937 10.1165 12.9747 11.3895 9.79221 13.299C4.70023 9.05565 6.82189 1.62986 5.5489 0.781201C3.42724 -0.491793 -0.391722 7.1462 0.0326095 11.8138C0.244775 14.3598 0.881246 18.1788 2.79074 21.1491C1.30558 23.9073 0.669081 26.8776 0.669081 30.2722C0.669081 41.517 9.79222 50.6401 21.037 50.6401C32.2818 50.6401 41.4049 41.517 41.4049 30.2722C41.4049 27.0897 40.5563 23.9073 39.2833 21.1491C41.1927 18.1788 41.8292 14.3598 42.0414 11.8138C42.0414 7.1462 38.2224 -0.279615 36.1008 0.99338ZM20.8248 46.1846C12.126 46.1846 5.12457 39.1832 5.12457 30.2722C5.12457 21.5734 12.126 14.572 20.8248 14.572C29.5236 14.572 36.7372 21.5734 36.7372 30.2722C36.7372 39.1832 29.5236 46.1846 20.8248 46.1846Z" fill="white"/>
<path d="M51.681 35.6401V21.5401H53.761V27.6201H61.661V21.5401H63.721V35.6401H61.661V29.3601H53.761V35.6401H51.681ZM69.913 35.8201C69.233 35.8201 68.6264 35.6868 68.093 35.4201C67.5597 35.1535 67.133 34.7935 66.813 34.3401C66.5064 33.8868 66.353 33.3735 66.353 32.8001C66.353 32.0801 66.533 31.5135 66.893 31.1001C67.2664 30.6868 67.873 30.3868 68.713 30.2001C69.5664 30.0135 70.713 29.9201 72.153 29.9201H72.833V29.4001C72.833 28.6401 72.673 28.0935 72.353 27.7601C72.033 27.4268 71.5064 27.2601 70.773 27.2601C70.213 27.2601 69.653 27.3468 69.093 27.5201C68.533 27.6801 67.9597 27.9401 67.373 28.3001L66.753 26.8801C67.2597 26.5201 67.893 26.2335 68.653 26.0201C69.413 25.8068 70.1397 25.7001 70.833 25.7001C72.1664 25.7001 73.153 26.0201 73.793 26.6601C74.433 27.2868 74.753 28.2735 74.753 29.6201V35.6401H72.853V34.0201C72.613 34.5801 72.2397 35.0201 71.733 35.3401C71.2264 35.6601 70.6197 35.8201 69.913 35.8201ZM70.313 34.3801C71.033 34.3801 71.633 34.1268 72.113 33.6201C72.593 33.1135 72.833 32.4735 72.833 31.7001V31.1601H72.173C71.1997 31.1601 70.433 31.2068 69.873 31.3001C69.3264 31.3935 68.933 31.5535 68.693 31.7801C68.4664 31.9935 68.353 32.2935 68.353 32.6801C68.353 33.1868 68.5264 33.6001 68.873 33.9201C69.2197 34.2268 69.6997 34.3801 70.313 34.3801ZM80.9552 35.8201C80.1552 35.8201 79.4086 35.7201 78.7152 35.5201C78.0219 35.3068 77.4419 35.0135 76.9752 34.6401L77.5552 33.2801C78.0486 33.6268 78.5886 33.8935 79.1752 34.0801C79.7752 34.2668 80.3752 34.3601 80.9752 34.3601C81.6819 34.3601 82.2152 34.2335 82.5752 33.9801C82.9352 33.7268 83.1152 33.3868 83.1152 32.9601C83.1152 32.6135 82.9952 32.3468 82.7552 32.1601C82.5152 31.9601 82.1552 31.8068 81.6752 31.7001L79.7752 31.3201C78.0952 30.9735 77.2552 30.1068 77.2552 28.7201C77.2552 27.8001 77.6219 27.0668 78.3552 26.5201C79.0886 25.9735 80.0486 25.7001 81.2352 25.7001C81.9152 25.7001 82.5619 25.8001 83.1752 26.0001C83.8019 26.2001 84.3219 26.5001 84.7352 26.9001L84.1552 28.2601C83.7552 27.9135 83.2952 27.6468 82.7752 27.4601C82.2552 27.2735 81.7419 27.1801 81.2352 27.1801C80.5419 27.1801 80.0152 27.3135 79.6552 27.5801C79.2952 27.8335 79.1152 28.1801 79.1152 28.6201C79.1152 29.2868 79.5552 29.7135 80.4352 29.9001L82.3352 30.2801C83.2019 30.4535 83.8552 30.7468 84.2952 31.1601C84.7486 31.5735 84.9752 32.1335 84.9752 32.8401C84.9752 33.7735 84.6086 34.5068 83.8752 35.0401C83.1419 35.5601 82.1686 35.8201 80.9552 35.8201ZM90.7027 35.8201C88.3427 35.8201 87.1627 34.5068 87.1627 31.8801V25.8801H89.1827V31.9001C89.1827 32.6868 89.3427 33.2668 89.6627 33.6401C89.9827 34.0135 90.4894 34.2001 91.1827 34.2001C91.9427 34.2001 92.5561 33.9468 93.0227 33.4401C93.5027 32.9335 93.7427 32.2535 93.7427 31.4001V25.8801H95.7627V35.6401H93.8027V34.0801C93.4827 34.6535 93.0561 35.0868 92.5227 35.3801C91.9894 35.6735 91.3827 35.8201 90.7027 35.8201ZM98.6095 35.6401V25.8801H100.569V27.6201C101.076 26.4601 102.129 25.8135 103.729 25.6801L104.389 25.6401L104.529 27.3601L103.309 27.4801C101.536 27.6535 100.649 28.5668 100.649 30.2201V35.6401H98.6095ZM109.093 35.8201C108.413 35.8201 107.806 35.6868 107.273 35.4201C106.739 35.1535 106.313 34.7935 105.993 34.3401C105.686 33.8868 105.533 33.3735 105.533 32.8001C105.533 32.0801 105.713 31.5135 106.073 31.1001C106.446 30.6868 107.053 30.3868 107.893 30.2001C108.746 30.0135 109.893 29.9201 111.333 29.9201H112.013V29.4001C112.013 28.6401 111.853 28.0935 111.533 27.7601C111.213 27.4268 110.686 27.2601 109.953 27.2601C109.393 27.2601 108.833 27.3468 108.273 27.5201C107.713 27.6801 107.139 27.9401 106.553 28.3001L105.933 26.8801C106.439 26.5201 107.073 26.2335 107.833 26.0201C108.593 25.8068 109.319 25.7001 110.013 25.7001C111.346 25.7001 112.333 26.0201 112.973 26.6601C113.613 27.2868 113.933 28.2735 113.933 29.6201V35.6401H112.033V34.0201C111.793 34.5801 111.419 35.0201 110.913 35.3401C110.406 35.6601 109.799 35.8201 109.093 35.8201ZM109.493 34.3801C110.213 34.3801 110.813 34.1268 111.293 33.6201C111.773 33.1135 112.013 32.4735 112.013 31.7001V31.1601H111.353C110.379 31.1601 109.613 31.2068 109.053 31.3001C108.506 31.3935 108.113 31.5535 107.873 31.7801C107.646 31.9935 107.533 32.2935 107.533 32.6801C107.533 33.1868 107.706 33.6001 108.053 33.9201C108.399 34.2268 108.879 34.3801 109.493 34.3801Z" fill="white"/>
</svg>
