<svg width="160" height="67" viewBox="0 0 160 67" fill="none" xmlns="http://www.w3.org/2000/svg">
<path fill-rule="evenodd" clip-rule="evenodd" d="M46.5923 32.155C46.5923 45.1141 36.3224 55.6187 23.6535 55.6187C10.9847 55.6187 0.714844 45.1123 0.714844 32.155C0.714844 19.1977 10.9847 8.69132 23.6535 8.69132C36.3224 8.69132 46.5923 19.1959 46.5923 32.155Z" fill="white"/>
<path d="M1.65047 37.9639C1.65047 37.9639 -0.0104097 13.4969 22.5377 12.7981L20.9611 10.1751L8.72755 14.2834L5.2338 18.3039L2.17542 24.1591L0.426758 30.9746L0.951717 35.5182" fill="white"/>
<path d="M7.94246 16.1481C3.91838 20.2654 1.42796 25.9521 1.42796 32.2427C1.42796 38.5332 3.93629 44.2182 7.94246 48.3354C11.9486 52.4527 17.5189 54.9933 23.6554 54.9933C29.7918 54.9933 35.3406 52.4527 39.3683 48.3354C43.396 44.2182 45.8846 38.5314 45.8846 32.2427C45.8846 25.9539 43.3763 20.2672 39.3683 16.1481C35.3603 12.0291 29.7918 9.49029 23.6554 9.49029C17.5189 9.49029 11.9737 12.0309 7.94246 16.1481ZM6.92121 49.3298C2.6445 44.9545 0 38.9095 0 32.2409C0 25.5723 2.6445 19.5254 6.92121 15.152C11.1979 10.7785 17.1158 8.06413 23.6518 8.06592C30.1878 8.06771 36.1039 10.7767 40.3806 15.152C44.6573 19.5272 47.3036 25.5723 47.3018 32.2409C47.3 38.9095 44.6573 44.9545 40.3806 49.3298C36.1039 53.705 30.1878 56.4355 23.6536 56.4355C17.1194 56.4355 11.1997 53.705 6.923 49.3298" fill="#231F20"/>
<path fill-rule="evenodd" clip-rule="evenodd" d="M33.3107 32.2838L29.817 32.8088L25.0977 33.3338L22.0393 33.4233L19.0688 33.3338L16.7969 32.6171L14.7867 30.4313L13.2136 25.9754L12.8642 25.0133L10.768 24.2966L9.54426 22.2863L8.66992 19.4197L9.63205 16.8845L11.9039 16.0961L13.7385 16.9705L14.6129 18.8929L15.661 18.7173L16.0104 18.2802L15.6753 16.2932L15.5858 13.758L16.1107 10.2643L16.0928 8.26834L17.6874 5.72059L20.4824 3.71034L25.3736 1.61409L30.7916 2.40242L35.5109 5.81017L37.6967 9.30392L39.0942 11.8391L39.4436 18.1315L38.3955 23.5495L36.473 28.3565L34.6383 30.8917" fill="white"/>
<path fill-rule="evenodd" clip-rule="evenodd" d="M30.3387 47.402L17.8436 47.9251V50.0214L18.8918 57.3619L18.3668 57.9746L9.62884 55.0058L9.01609 53.9577L8.14175 44.0856L6.1315 38.1427L5.69434 36.7451L12.6854 31.9381L14.8713 31.0638L16.7937 33.4234L18.4546 34.9105L20.377 35.5196L21.2514 35.7812L22.2995 40.3249L23.0878 41.287L25.0981 40.5704L23.7006 43.2794L31.3026 46.8627L30.3423 47.3876" fill="white" fill-opacity="0.54"/>
<path fill-rule="evenodd" clip-rule="evenodd" d="M9.62819 16.9041L11.9 16.1158L13.7347 16.9901L14.609 18.9126L15.6571 18.737L15.9187 17.6889L15.3938 15.6786L15.9187 10.8716L15.4816 8.25039L17.0546 6.41572L20.4624 3.70672L19.5003 2.39522L14.6932 4.75485L12.683 6.32793L11.5471 8.77535L9.7984 11.135L9.27344 13.93L9.62281 16.9006" fill="#6D6B6D"/>
<path fill-rule="evenodd" clip-rule="evenodd" d="M13.2102 8.68771C13.2102 8.68771 14.5217 5.45376 19.7641 3.88067C25.0065 2.30759 20.0257 2.74476 20.0257 2.74476L14.3461 4.93059L12.1603 7.11642L11.2 8.86509L13.2102 8.68951V8.68771ZM10.5872 16.2933C10.5872 16.2933 8.75434 10.1748 15.7472 9.30226L15.4856 8.25413L10.6589 9.38647L9.2793 13.9337L9.62867 16.9043L10.589 16.2951" fill="#DCD9D8"/>
<path fill-rule="evenodd" clip-rule="evenodd" d="M13.3857 24.4185L14.5324 23.3077C14.5324 23.3077 15.0484 23.3686 15.1362 23.9796C15.224 24.5905 15.482 30.0981 19.2588 33.0723C19.6172 33.341 16.4638 32.6351 16.4638 32.6351L13.6688 28.2634L13.3857 24.4185ZM29.466 22.7594C29.466 22.7594 29.6702 20.1114 30.3833 20.3138C31.0964 20.5163 31.0964 21.2311 31.0964 21.2311C31.0964 21.2311 29.3638 22.3527 29.4839 22.7594" fill="white"/>
<path d="M36.7186 13.0773C36.7186 13.0773 35.2781 13.3819 35.1455 14.6504C35.0129 15.9189 36.7186 14.912 36.9801 14.826L36.7186 13.0773ZM26.1441 13.149C26.1441 13.149 24.2217 13.4106 24.2217 14.6361C24.2217 15.8616 26.4075 15.772 27.0167 15.2488" fill="white"/>
<path fill-rule="evenodd" clip-rule="evenodd" d="M14.2419 18.8106C14.2419 18.8106 10.9202 16.8004 10.569 18.7211C10.2178 20.6417 9.43309 22.041 11.094 24.0513L9.95805 23.7019L8.90992 20.9929L8.56055 18.3717L10.5708 16.2754L12.8426 16.451L14.1541 17.4991L14.2437 18.8106H14.2419ZM15.8329 13.3031C15.8329 13.3031 17.32 5.61323 24.8343 4.12973C31.0209 2.90602 34.2728 4.39131 35.4947 5.7906C35.4947 5.7906 29.9889 -0.763315 24.7447 1.24693C19.5005 3.25718 15.6753 6.94264 15.7469 9.30227L15.8365 13.3228L15.8329 13.3031ZM36.1056 6.68106C36.1056 6.68106 33.5722 6.59148 33.4844 8.86689C33.4844 8.86689 33.4844 9.21627 33.6582 9.58356C33.6582 9.58356 35.6685 7.31173 36.8922 8.53544L36.1056 6.68106ZM24.9919 9.79856C24.9919 9.79856 24.5565 6.31018 21.5824 8.33835C19.6599 9.64985 19.8355 11.4845 20.1849 11.8321C20.5343 12.1797 20.4393 12.8856 20.7224 12.4019C21.0055 11.9181 20.9015 10.345 21.8619 9.89352C22.8222 9.44202 24.3989 8.96902 25.0098 9.78064" fill="white"/>
<path fill-rule="evenodd" clip-rule="evenodd" d="M16.7937 33.4195L8.58071 37.0906C8.58071 37.0906 11.9885 50.6356 10.2416 54.8281L9.01788 54.391L8.92829 49.2345L6.65646 39.4467L5.69434 36.7377L14.2585 30.9685L16.7919 33.4141L16.7937 33.4195ZM17.6394 40.9123L18.804 42.3348V47.5772H17.4065L17.2327 43.4707C17.2327 43.0336 17.4065 41.4605 17.4065 41.4605L17.6394 40.9123ZM17.668 48.3638L13.7353 48.5376L14.8713 49.3259L17.6663 49.7631" fill="white"/>
<path fill-rule="evenodd" clip-rule="evenodd" d="M31.1257 47.4897L34.3596 47.4001L35.148 55.4393L31.828 55.8765L31.1113 47.4879" fill="white" fill-opacity="0.54"/>
<path fill-rule="evenodd" clip-rule="evenodd" d="M31.998 47.4897L36.8893 47.2282L38.8995 41.898C38.8995 41.6364 40.6482 34.5575 40.6482 34.5575L36.7155 30.451L35.9272 29.7343L33.8309 31.8306V39.9576L31.998 47.4897Z" fill="white" fill-opacity="0.54"/>
<path fill-rule="evenodd" clip-rule="evenodd" d="M34.1834 46.8788L31.125 47.488L31.5622 49.9354C32.6981 50.4604 34.6205 49.0611 34.6205 49.0611L34.1834 46.8788ZM34.273 31.5851L40.3897 36.1288L40.5653 34.0326L35.9338 29.7326L34.273 31.5672" fill="white"/>
<path fill-rule="evenodd" clip-rule="evenodd" d="M20.6997 64.7057L18.908 57.3635L18.0086 51.9473L17.8438 47.925L26.0317 47.4896H31.1254L30.6595 56.6665L31.4479 63.7436L31.3583 65.0551L24.7166 65.5801L20.6961 64.7057" fill="white"/>
<path fill-rule="evenodd" clip-rule="evenodd" d="M29.991 47.4017C29.991 47.4017 29.5539 56.4908 30.8654 62.957C30.8654 62.957 28.2442 64.6178 24.3975 65.0532L31.7379 64.7916L32.6123 64.2667L31.5641 49.9333L31.3025 46.875" fill="#DCD9D8"/>
<path fill-rule="evenodd" clip-rule="evenodd" d="M35.2948 54.7441L38.7025 53.782L45.1705 53.4326L46.1326 50.4621L44.3839 45.3056L42.3737 45.0441L39.5787 45.9184L36.8965 47.2263L35.4722 46.9647L34.3613 47.4001" fill="white"/>
<path fill-rule="evenodd" clip-rule="evenodd" d="M35.2314 52.9954C35.2314 52.9954 37.5033 51.9473 37.8527 52.0351L36.8923 47.228L38.0282 46.7909L38.8166 51.8613L44.1468 52.1229C44.1468 52.1229 45.1949 50.1126 44.9351 48.0164L45.8972 50.8114L45.9868 52.3845L44.5893 54.4807L43.0162 54.8301L40.395 54.7405L39.5207 53.6046L36.4623 54.0417L35.5002 54.3911" fill="#DCD9D8"/>
<path d="M31.7999 46.791L29.8774 41.8998L27.8672 39.0331C27.8672 39.0331 28.3044 37.8094 28.9153 37.8094H30.9256L32.848 38.5261L32.6742 41.76L31.7999 46.791Z" fill="white"/>
<path fill-rule="evenodd" clip-rule="evenodd" d="M32.1725 45.1483C32.1725 45.1483 29.7251 40.429 29.7251 39.7303C29.7251 39.7303 30.1623 38.6822 30.7732 38.942C31.3842 39.2018 32.6957 39.9023 32.6957 39.9023V38.2414L29.7251 37.6287L27.7148 37.8903L31.1226 45.9295L31.8393 46.019" fill="#DCD9D8"/>
<path d="M21.4855 33.5976L19.0668 33.3342L16.7949 32.6175V33.4058L17.9058 34.6296L21.3995 36.2026" fill="white"/>
<path fill-rule="evenodd" clip-rule="evenodd" d="M17.5801 33.8607C17.5801 33.8607 20.2891 34.9967 21.1634 34.7351L21.253 35.7832L18.8074 35.26L17.3203 34.2119L17.5819 33.8625" fill="#DCD9D8"/>
<path fill-rule="evenodd" clip-rule="evenodd" d="M35.2849 38.089C33.8014 38.046 32.463 37.8687 31.2895 37.539C31.3683 37.0588 31.2178 36.5858 31.3396 36.24C31.6657 36.0071 32.214 36.0071 32.7085 35.9534C32.2342 35.7303 31.6995 35.6698 31.1874 35.7814C31.1766 35.4481 31.0082 35.2403 30.9365 34.9805C31.7696 34.6831 33.7387 32.7319 34.8459 33.3787C35.3727 33.6833 35.5984 35.4392 35.6379 36.2938C35.6737 37.0015 35.5734 37.7164 35.2849 38.0908" fill="white"/>
<path d="M35.2849 38.089C33.8014 38.046 32.463 37.8687 31.2895 37.539C31.3683 37.0588 31.2178 36.5858 31.3396 36.24C31.6657 36.0071 32.214 36.0071 32.7085 35.9534C32.2342 35.7303 31.6995 35.6698 31.1874 35.7814C31.1766 35.4481 31.0082 35.2403 30.9365 34.9805C31.7696 34.6831 33.7387 32.7319 34.8459 33.3787C35.3727 33.6833 35.5984 35.4392 35.6379 36.2938C35.6737 37.0015 35.5734 37.7164 35.2849 38.0908V38.089Z" stroke="white" stroke-width="0.36625"/>
<path fill-rule="evenodd" clip-rule="evenodd" d="M28.194 35.6652L28.1815 36.0056C27.7192 36.3102 26.9703 36.3066 26.4615 36.5431C27.1043 36.5639 27.735 36.7234 28.3105 37.0107L28.2782 37.8582C27.429 38.4387 26.655 39.304 25.6552 39.8469C25.1822 40.1049 23.5231 40.7678 23.0215 40.6496C22.7348 40.5833 22.7115 40.2303 22.5986 39.8971C22.3567 39.184 21.7995 38.0517 21.7494 36.9767C21.6867 35.6222 21.5523 33.3521 23.0107 33.6316C24.1878 33.8556 25.5585 34.3985 26.4686 34.8965C27.024 35.2011 27.3465 35.5774 28.194 35.6419" fill="white"/>
<path d="M28.194 35.6652L28.1815 36.0056C27.7192 36.3102 26.9703 36.3066 26.4615 36.5431C27.1043 36.5639 27.735 36.7234 28.3105 37.0107L28.2782 37.8582C27.429 38.4387 26.655 39.304 25.6552 39.8469C25.1822 40.1049 23.5231 40.7678 23.0215 40.6496C22.7348 40.5833 22.7115 40.2303 22.5986 39.8971C22.3567 39.184 21.7995 38.0517 21.7494 36.9767C21.6867 35.6222 21.5523 33.3521 23.0107 33.6316C24.1878 33.8556 25.5585 34.3985 26.4686 34.8965C27.024 35.2011 27.3465 35.5774 28.194 35.6419V35.6652Z" stroke="white" stroke-width="0.36625"/>
<path fill-rule="evenodd" clip-rule="evenodd" d="M29.0354 37.2827C28.9064 36.5445 28.7559 36.3331 28.815 35.6917C30.7822 34.3802 31.1513 37.9456 29.0354 37.2827Z" fill="white"/>
<path d="M29.0354 37.2827C28.9064 36.5445 28.7559 36.3331 28.815 35.6917C30.7822 34.3802 31.1513 37.9456 29.0354 37.2827Z" stroke="white" stroke-width="0.36625"/>
<path fill-rule="evenodd" clip-rule="evenodd" d="M31.8867 37.8778C31.8867 37.8778 31.2739 37.0035 31.7111 36.7419C32.1483 36.4803 32.5854 36.7419 32.847 36.3047C33.1086 35.8675 32.847 35.588 32.9366 35.081C33.0262 34.574 33.4616 34.4682 33.8987 34.3643C34.3359 34.2604 35.5596 34.1027 35.7334 34.5399L35.2084 32.9668L34.1603 32.6175L30.8404 34.5399L30.6648 35.502V37.4263L31.8867 37.8778ZM22.7098 40.7642L22.3514 36.6756C22.1669 34.642 22.8406 34.9968 24.6036 34.9968C24.8723 34.9968 26.2627 35.3193 26.3594 35.5217C26.836 36.4946 25.5621 36.2796 26.9077 37.0124C28.0436 37.6323 30.0502 36.6541 29.5916 35.2566C29.3354 34.952 28.2532 35.1616 27.8644 34.961L25.8165 33.8985C24.9476 33.447 22.9409 32.7912 22.0146 33.4201C19.6854 35.0326 22.1633 39.003 23 40.6674" fill="white"/>
<path fill-rule="evenodd" clip-rule="evenodd" d="M24.9924 9.79884C22.6095 9.26134 21.4091 10.795 20.705 12.4039C20.06 12.248 20.3162 11.3701 20.4792 10.924C20.9056 9.75226 22.6238 8.19172 24.0267 8.40313C24.6305 8.49272 25.4475 9.04813 24.9906 9.80063L24.9924 9.79884ZM36.615 12.5132L36.7278 12.5168C37.2653 13.6348 37.7312 14.8191 38.412 15.8063C37.9569 16.8813 34.9684 17.804 35.0132 15.9013C35.6582 15.6182 36.7762 15.8439 37.3495 15.482C37.0181 14.5718 36.5397 13.7978 36.6329 12.5114L36.615 12.5132ZM26.2466 12.5401C26.7572 13.4771 26.9238 14.4608 27.6495 15.1667C27.9755 15.4856 28.6116 15.8726 28.2945 16.7792C28.2228 16.9888 27.6817 17.4546 27.3718 17.546C26.2376 17.881 23.6093 17.6177 24.5051 16.2023C25.4439 16.2453 26.7053 16.8114 27.4076 16.1306C26.8701 15.2706 25.908 13.5649 26.2609 12.5616L26.2466 12.5401ZM36.1903 22.0574C34.4811 23.1557 32.5765 24.3508 29.7762 24.0713C29.1778 23.5338 28.952 22.3943 29.5307 21.6292C29.8353 22.1667 29.6436 23.1055 30.4857 23.2507C32.0749 23.523 33.9257 22.2796 35.067 21.8442C35.7765 20.6492 35.006 20.2102 34.3503 19.4434C33.0424 17.8667 31.2901 15.9138 31.3546 13.5578C31.8832 13.1743 31.928 14.1418 32.005 14.3192C32.6858 15.9317 34.4058 17.9563 35.66 19.3251C35.9682 19.662 36.4752 19.9845 36.5308 20.2066C36.7099 20.8516 36.1079 21.6292 36.176 22.0592L36.1903 22.0574ZM13.6619 20.9018C13.1244 20.5972 12.999 19.2499 12.3719 19.2123C11.4725 19.1585 11.6553 20.9591 11.6409 22.0126C11.0228 21.4518 10.9135 19.7229 11.3686 18.8342C10.8311 18.5798 10.6197 19.1155 10.333 19.3036C10.7021 16.6215 14.2747 18.0602 13.6655 20.9036L13.6619 20.9018ZM37.2761 23.1736C36.4806 24.6876 35.3554 26.3556 33.0209 26.404C32.9743 25.9149 32.9367 25.1713 33.0227 24.8775C34.8072 24.7055 35.8893 23.7971 37.2743 23.1754L37.2761 23.1736ZM26.0943 24.1555C27.5814 24.9384 30.319 25.0226 32.3418 24.9617C32.4493 25.4043 32.4493 25.9525 32.4493 26.4936C29.8478 26.6226 26.7733 25.9794 26.0889 24.1537L26.0943 24.1555ZM25.8112 25.6157C26.8414 28.201 30.38 27.9036 33.3631 27.832C33.2323 28.167 32.9474 28.5486 32.5927 28.7278C31.6359 29.1166 28.9986 29.4122 27.6728 28.7063C26.8307 28.2584 26.2896 27.2479 25.8273 26.6548C25.6052 26.3682 24.4961 25.6372 25.8094 25.6336" fill="#231F20"/>
<path fill-rule="evenodd" clip-rule="evenodd" d="M36.0649 39.8721L32.2666 45.8921C32.8668 44.1255 33.1266 41.1675 33.2162 38.9135C34.4739 38.3259 35.5489 39.0461 36.0829 39.8721" fill="white"/>
<path fill-rule="evenodd" clip-rule="evenodd" d="M42.5651 47.309C41.2124 47.5777 40.2628 48.8946 38.9424 48.8104C39.668 47.7892 40.9383 47.3771 42.5651 47.309ZM43.16 49.4232C42.0581 49.5396 40.7627 49.7188 39.6447 49.6256C40.1733 48.8194 42.214 49.0953 43.16 49.4232ZM43.5434 51.2507C42.3035 51.2775 40.7663 51.2525 39.5874 51.1539C40.304 50.405 42.7407 50.8762 43.5434 51.2507Z" fill="#231F20"/>
<path fill-rule="evenodd" clip-rule="evenodd" d="M33.7358 56.2442C33.9149 57.7993 34.5313 59.376 34.4524 61.0817C33.768 61.3146 33.3739 61.5153 32.4565 61.5117L32.2559 56.4681C32.7074 56.4986 33.3721 56.1456 33.7358 56.2424" fill="#DCD9D8"/>
<path fill-rule="evenodd" clip-rule="evenodd" d="M31.7352 33.3127C31.1135 33.7194 30.5832 34.2086 29.9866 34.6601C28.6607 34.7264 27.9387 34.5705 26.9658 33.8072C26.9837 33.7463 27.0805 33.7714 27.0841 33.6997C28.5031 34.3322 30.3055 33.4417 31.737 33.3145" fill="white"/>
<path fill-rule="evenodd" clip-rule="evenodd" d="M24.29 42.9984C24.6788 41.3106 26.2071 40.4363 27.5939 39.5046C29.0272 41.3214 29.8962 43.6559 30.8547 45.9116C28.59 45.2308 26.277 44.12 24.2918 42.9984" fill="white"/>
<path fill-rule="evenodd" clip-rule="evenodd" d="M32.2539 56.4716C32.1966 57.8512 32.3901 60.0657 32.4546 61.5151C33.3719 61.5169 33.7661 61.3144 34.4505 61.0851C34.5276 59.383 33.913 57.8064 33.7338 56.2476C33.3719 56.1509 32.7054 56.5038 32.2539 56.4734V56.4716ZM17.9618 48.6187C18.5674 54.1818 19.4435 58.8599 21.0506 63.7869C24.6196 64.8709 28.9214 64.9641 32.0748 63.9876C31.4961 61.2069 31.7487 57.8207 31.4118 54.8537L30.9371 48.1027C27.1154 47.3072 21.7136 47.9164 17.9618 48.6187ZM31.8401 48.1385C31.8078 50.5286 31.9476 52.8864 32.1303 55.2783L34.5222 54.8609C34.2445 52.5568 34.2803 49.966 33.7159 47.9271C33.0638 47.9325 32.4904 47.9199 31.8401 48.1367V48.1385ZM36.4948 47.7533C36.0594 47.653 35.5524 47.7497 35.1367 47.7569L35.9734 53.8987C36.6274 53.9167 36.9768 53.6121 37.5143 53.5046C37.5429 51.7093 37.3566 49.2368 36.493 47.7497L36.4948 47.7533ZM43.5432 54.1926C44.9085 53.8611 45.7649 52.1895 45.3833 50.4731C45.1271 49.3192 44.6702 47.1477 44.1828 46.4096C43.8245 45.8631 42.8445 45.15 42.0633 45.6499C40.7912 46.4633 38.5552 46.6998 37.6289 47.6834C38.0948 49.2297 38.2381 51.3564 38.4298 53.3147C40.0172 53.4132 41.9701 52.8775 43.2906 53.4472C42.3697 53.7464 41.1728 53.7482 40.3773 54.1818C41.0277 54.4954 42.5506 54.4327 43.545 54.1908L43.5432 54.1926ZM30.8511 45.8936C29.8925 43.6397 29.0236 41.3033 27.5902 39.4866C26.2035 40.4182 24.677 41.2908 24.2864 42.9803C26.2716 44.1037 28.5864 45.2109 30.8493 45.8936H30.8511ZM33.2161 38.9132C33.1265 41.1672 32.8685 44.127 32.2665 45.8918C33.6998 44.0643 34.8554 41.9412 36.0648 39.8718C35.5506 39.0476 34.4738 38.3238 33.1981 38.9132H33.2161ZM30.5375 37.9636C29.9946 37.9045 29.5342 38.5872 28.8283 38.2933L28.3553 38.8398C29.914 40.721 30.6235 43.3852 31.8275 45.5944C32.4725 43.473 32.4008 41.151 32.5442 38.8344C31.6555 38.8882 31.1646 38.0317 30.5411 37.9654L30.5375 37.9636ZM28.8175 35.6882C28.7602 36.3332 28.9071 36.5429 29.0379 37.2792C31.1521 37.9422 30.7848 34.3767 28.8175 35.6882ZM26.4704 34.9178C25.5567 34.4197 24.1896 33.8786 23.0125 33.6529C21.5523 33.3734 21.6903 35.6416 21.7512 36.9979C21.7996 38.0694 22.3568 39.2017 22.6004 39.9184C22.7133 40.2516 22.7402 40.6046 23.0233 40.6709C23.5249 40.7873 25.184 40.1244 25.657 39.8682C26.6568 39.3235 27.4487 38.4582 28.28 37.8794L28.3123 37.032C27.7368 36.7446 27.1061 36.5851 26.4633 36.5644C26.9721 36.3082 27.7174 36.3135 28.1833 36.0269L28.1958 35.6864C27.3501 35.6219 27.0276 35.2457 26.4704 34.9411V34.9178ZM17.7629 33.3358C17.0068 34.1062 19.8843 35.1507 20.8016 35.2081C20.7962 34.7243 21.0793 34.2639 21.022 33.9145C19.9326 33.7228 18.5029 33.85 17.7611 33.3358H17.7629ZM27.0832 33.6941C27.0796 33.7694 26.9811 33.7425 26.9649 33.8016C27.9378 34.5631 28.6616 34.7189 29.9857 34.6544L31.7343 33.3071C30.301 33.4325 28.4986 34.3248 27.0814 33.6923L27.0832 33.6941ZM35.6384 36.2884C35.5972 35.4356 35.3732 33.6798 34.8465 33.3734C33.7392 32.7284 31.772 34.6777 30.9371 34.9751C31.0266 35.2367 31.1771 35.441 31.1879 35.776C31.7 35.6645 32.2347 35.725 32.709 35.948C32.2145 36.0018 31.6663 36.0018 31.3402 36.2347C31.2201 36.5805 31.3688 37.0535 31.29 37.5336C32.4636 37.8651 33.8019 38.0407 35.2854 38.0837C35.5721 37.7074 35.6724 36.9944 35.6384 36.2866V36.2884ZM16.4891 34.0793C16.2508 33.9091 14.6436 31.8182 14.4233 31.906C11.5154 33.0527 8.79743 35.0361 6.36614 36.9119C8.68276 41.8838 9.6198 47.9737 9.78105 53.845C12.4327 55.0866 14.7673 56.8765 18.3685 57.0628L17.3347 48.7065C16.4299 48.3249 15.131 48.7244 14.2853 48.5882C14.2781 47.567 15.5789 48.1403 15.6864 47.4559C15.7688 46.9184 14.9697 46.8969 15.2295 46.0799C15.8924 46.32 16.24 46.8503 16.9459 47.051C17.5909 45.6392 16.937 43.1416 17.0301 41.9627C17.0481 41.7405 17.1412 40.7354 17.6393 40.9127C18.0783 41.0686 17.6142 43.5877 17.6626 44.7039C17.7056 45.7323 17.5372 46.7285 17.9546 47.3914C21.4341 46.9184 24.9708 46.612 28.7369 46.5081C27.9091 46.1534 26.9237 45.8165 25.8451 45.2074C25.2611 44.8777 23.4156 44.1915 23.2472 43.6361C22.9785 42.751 23.9531 42.2798 24.1216 41.5219C22.3657 42.4804 22.0217 40.6028 21.6061 39.2734C21.2477 38.0694 21.0148 37.1699 20.9252 36.4748C19.4113 35.7527 17.7934 35.0414 16.4908 34.0972L16.4891 34.0793ZM34.1011 32.1586C36.5235 30.9833 36.9606 36.5482 36.0111 38.3435C36.158 38.8774 36.6632 39.0834 36.8711 39.5618L32.6373 46.6389C33.664 45.9993 35.1278 46.5242 36.3371 46.0477C36.7779 45.8739 37.0986 44.8616 37.4301 44.0535C38.3492 41.8283 39.3149 39.0243 39.7449 36.9012C39.8416 36.4174 40.1068 35.3639 40.0495 34.9339C39.942 34.1635 38.8974 33.5902 38.3653 33.1154L35.7423 30.6357C35.3302 31.2485 34.438 31.657 34.0993 32.1586H34.1011ZM10.9456 10.6694C9.7918 11.9415 10.0498 14.3208 10.1716 16.0139C12.2589 14.7006 15.0271 16.1179 15.002 18.3503C15.9981 18.3234 15.3746 17.1051 15.1937 16.3203C14.6024 13.7582 16.1863 10.9722 15.2653 8.62869C13.4773 8.76486 12.0099 9.49406 10.9438 10.6676L10.9456 10.6694ZM19.2052 3.29669C16.5894 4.03844 13.239 5.93761 12.1676 8.28469C12.9989 8.16465 13.5758 7.74361 14.3964 7.69344C14.7063 7.67553 15.1131 7.82423 15.4714 7.73465C16.1809 7.55907 16.7793 5.96627 17.3168 5.37323C17.84 4.79452 18.4671 4.54906 18.8971 4.02052C19.173 3.88794 19.5815 3.8951 19.5958 3.48302C19.4758 3.3576 19.3503 3.25727 19.207 3.29848L19.2052 3.29669ZM32.8129 3.99544C30.1003 2.46535 25.5083 1.31331 22.6219 2.75202C20.2928 3.91302 17.1448 5.83369 16.0716 8.27036C17.0749 10.6174 15.7742 12.7728 15.6918 15.1575C15.647 16.426 16.2902 17.5351 16.3368 18.9164C15.9963 19.4826 14.9464 19.5525 14.2226 19.5131C13.9789 18.2911 13.5507 16.9151 12.293 16.779C10.5121 16.5819 9.2113 18.0582 9.12889 19.5991C9.03393 21.4086 10.5192 24.4115 12.628 24.2036C13.4414 24.123 13.6421 23.3078 14.5272 23.315C15.0073 24.2735 13.7854 24.5763 13.66 25.2607C13.6278 25.4399 13.7621 26.1297 13.8392 26.4558C14.2226 28.0378 15.0933 30.0839 15.9175 31.2879C16.9836 32.8144 19.078 33.0437 21.3319 33.1942C21.7351 32.3271 23.2168 32.3987 24.1807 32.6245C23.0233 32.1658 21.9465 31.055 21.0542 30.0714C20.0294 28.9426 18.9938 27.7314 18.9401 26.2551C20.8751 28.9426 22.475 31.2897 25.9992 32.4686C28.6634 33.3644 31.7738 32.0565 33.8216 30.6232C34.6709 30.0266 35.1779 29.077 35.7817 28.2098C38.0392 24.9597 39.0963 20.3229 38.8634 15.8258C38.7684 13.9714 38.7738 12.1242 38.1503 10.8772C37.4999 9.5729 35.2836 8.40473 34.0116 9.58723C33.7733 8.31873 35.0812 7.53399 36.6202 7.99265C35.5237 6.55932 34.3735 4.87514 32.8147 3.99723L32.8129 3.99544ZM37.8654 45.8273C39.985 44.7738 43.9463 42.9911 45.2758 45.8309C45.7667 46.8772 46.3418 48.6474 46.5962 49.7295C46.9546 51.2524 46.2074 54.4595 44.6397 54.9719C43.2548 55.4234 41.6405 55.3966 39.9724 55.0615C39.7386 54.8504 39.546 54.5977 39.4045 54.3162C38.213 54.2696 37.0986 54.3807 36.158 54.8716C36.2476 55.7495 35.6509 55.8929 35.0937 56.0756C34.6816 57.7168 35.9215 59.8596 35.6241 61.3574C35.4126 62.4235 34.1011 62.5883 33.1336 62.7872C33.1014 63.3784 33.1766 63.8747 33.2411 64.3764C33.0208 65.188 32.0318 65.6521 31.0947 65.7649C28.0131 66.1358 23.3314 66.3024 20.3662 65.2364C19.5385 63.2064 18.8863 60.7393 18.2162 58.4209C15.3245 58.7291 12.9846 57.1739 10.7808 56.1527C10.0176 55.7979 8.96047 55.6044 8.6756 54.9952C8.39968 54.4076 8.51435 53.2788 8.44268 52.2146C8.26889 49.4948 8.12018 46.87 7.39993 44.084C7.07743 42.8334 6.51485 41.7315 6.12247 40.5275C5.76055 39.4113 5.1263 38.0317 4.96147 36.9191C4.71601 35.2708 6.26939 35.1776 7.26376 34.4645C8.79922 33.3591 10.005 32.7481 11.6677 31.7502C12.1604 31.4545 13.6457 30.7074 13.8141 30.3616C14.1491 29.6808 13.2372 28.7133 12.9935 28.1811C12.6083 27.3355 12.4058 26.6152 12.3485 25.7803C10.951 25.5599 9.89393 24.7304 9.25789 23.7916C8.18289 22.2418 7.46622 19.3751 8.37997 17.1946C8.45164 17.0226 8.80997 16.6858 8.86372 16.4206C8.96764 15.8831 8.66664 15.2113 8.64872 14.6576C8.55197 11.8232 9.12889 9.38119 11.0352 8.52656C11.8092 5.44131 14.5827 4.41469 17.1932 2.88282C18.1696 2.30948 19.2464 1.94398 20.3573 1.53368C24.3437 0.0645218 30.4623 0.342232 33.7697 2.84519C35.1726 3.90586 37.4157 6.14724 38.2184 7.76869C40.3379 12.0687 40.1892 19.2103 38.7021 24.4186C38.5051 25.1353 38.2148 26.1458 37.8099 26.9861C37.5286 27.572 36.6543 28.7473 36.76 29.2651C36.8675 29.8026 38.7541 31.2306 39.1572 31.6212C39.8846 32.3235 41.266 33.2551 41.3789 34.1402C41.4989 35.0827 40.9632 36.3727 40.6927 37.281L37.8726 45.8273" fill="#231F20"/>
<path fill-rule="evenodd" clip-rule="evenodd" d="M23.7256 24.8166C23.8403 24.6643 24.4727 24.4314 25.356 24.8578C25.356 24.8578 24.3079 25.0334 24.3939 26.7803L23.9567 26.6907C23.9567 26.6907 23.5052 25.1051 23.7238 24.8148" fill="white"/>
<path fill-rule="evenodd" clip-rule="evenodd" d="M31.3881 39.845C31.3881 40.1102 31.1731 40.3252 30.9079 40.3252C30.6427 40.3252 30.4277 40.1102 30.4277 39.845C30.4277 39.5799 30.6427 39.3649 30.9079 39.3649C31.1731 39.3649 31.3881 39.5799 31.3881 39.845ZM31.8682 42.0721C31.8682 42.3372 31.6532 42.5522 31.3881 42.5522C31.1229 42.5522 30.9079 42.3372 30.9079 42.0721C30.9079 41.8069 31.1229 41.5919 31.3881 41.5919C31.6532 41.5919 31.8682 41.8069 31.8682 42.0721Z" fill="#1D1919"/>
<path d="M52.3397 45.5137V42.6112H53.945C53.9928 43.3852 54.1738 43.9538 54.4879 44.3169C54.8104 44.6788 55.284 44.8598 55.9087 44.8598C56.709 44.8598 57.2644 44.551 57.5749 43.9335C57.8974 43.3362 58.0587 42.1872 58.0587 40.4863V24.1409H55.3783V22.6467H65.2003V24.1409H62.8406V40.5848C62.8406 42.5867 62.3342 44.0487 61.3213 44.9708C60.318 45.8929 58.7162 46.354 56.5161 46.354C55.8328 46.354 55.1448 46.2841 54.4521 46.1444C53.7593 46.0046 53.0546 45.7944 52.3379 45.5137H52.3397ZM76.2943 33.678C76.2943 31.9484 76.133 30.7378 75.8105 30.0463C75.488 29.3463 74.9404 28.9963 74.1676 28.9963C73.4174 28.9963 72.8782 29.3379 72.5497 30.0212C72.2272 30.7044 72.0659 31.8493 72.0659 33.4558V33.678H76.2907H76.2943ZM81.0995 35.1471H72.0695V35.2457C72.0695 36.9418 72.3251 38.1691 72.8363 38.9275C73.3476 39.6777 74.1717 40.0527 75.3088 40.0527C76.256 40.0527 77.0223 39.8019 77.6076 39.3002C78.2048 38.7985 78.5798 38.0699 78.7327 37.1144H80.7842C80.4294 38.605 79.7247 39.7003 78.67 40.4003C77.6153 41.1002 76.1402 41.4502 74.2446 41.4502C71.9716 41.4502 70.2253 40.853 69.0058 39.6585C67.7946 38.4557 67.189 36.7417 67.189 34.5165C67.189 32.3426 67.8101 30.6465 69.0523 29.4281C70.2946 28.2098 72.0241 27.6006 74.241 27.6006C76.4149 27.6006 78.0829 28.2432 79.2451 29.5285C80.4061 30.8065 81.0237 32.6806 81.0977 35.1507L81.0995 35.1471Z" fill="white"/>
<path d="M83.1279 41.0903V39.5961H84.9913V29.4553H83.1279V27.961H89.3665V29.8118C89.8921 29.0294 90.4935 28.4651 91.1707 28.1187C91.8456 27.7603 92.6978 27.5812 93.7274 27.5812C95.2014 27.5812 96.3134 28.0171 97.0635 28.8891C97.8208 29.7539 98.1994 31.0307 98.1994 32.7197V39.5943H100.077V41.0885H92.2296V39.5943H93.8421V32.614C93.8421 31.5031 93.6988 30.7327 93.4121 30.3027C93.1326 29.8667 92.6429 29.6488 91.9429 29.6488C91.0614 29.6488 90.4146 29.9742 90.0026 30.6252C89.5905 31.2678 89.3844 32.2932 89.3844 33.7015V39.5943H90.9898V41.0885H83.1423L83.1279 41.0903Z" fill="white"/>
<path d="M109.407 41.0902H101.515V39.5959H103.378V23.3491H101.515V21.8674H107.753V34.2299L113.053 29.473H111.483V27.9787H117.475V29.473H115.042L111.638 32.5117L117.192 39.6156H118.613V41.1099H111.077V39.6156H112.621L108.977 34.934L107.753 36.0215V39.5941H109.409V41.0884L109.407 41.0902ZM120.515 24.2395C120.515 23.5706 120.746 23.0104 121.207 22.5589C121.668 22.0979 122.232 21.8674 122.9 21.8674C123.551 21.8674 124.103 22.0979 124.555 22.5589C125.017 23.0128 125.247 23.573 125.247 24.2395C125.247 24.8905 125.017 25.4459 124.555 25.9058C124.102 26.3597 123.55 26.5866 122.9 26.5866C122.231 26.5866 121.667 26.3597 121.207 25.9058C120.746 25.4519 120.515 24.8965 120.515 24.2395ZM125.299 39.5941H127.177V41.0884H119.055V39.5941H120.918V29.4533H119.055V27.959H125.294V39.5941H125.299Z" fill="white"/>
<path d="M128.693 41.0903V39.5961H130.557V29.4553H128.693V27.961H134.932V29.8118C135.458 29.0294 136.059 28.4651 136.736 28.1187C137.411 27.7603 138.263 27.5812 139.293 27.5812C140.767 27.5812 141.879 28.0171 142.629 28.8891C143.386 29.7539 143.765 31.0307 143.765 32.7197V39.5943H145.643V41.0885H137.795V39.5943H139.408V32.614C139.408 31.5031 139.264 30.7327 138.978 30.3027C138.698 29.8667 138.208 29.6488 137.508 29.6488C136.627 29.6488 135.98 29.9742 135.568 30.6252C135.156 31.2678 134.95 32.2932 134.95 33.7015V39.5943H136.555V41.0885H128.708L128.693 41.0903Z" fill="white"/>
<path d="M147.398 40.7088V37.0394H148.796C148.912 38.0189 149.278 38.7684 149.896 39.288C150.513 39.7992 151.354 40.0548 152.417 40.0548C153.307 40.0548 153.986 39.9025 154.456 39.5979C154.933 39.285 155.172 38.8401 155.172 38.2631C155.172 37.7376 155.02 37.3297 154.716 37.0394C154.419 36.7528 153.839 36.5019 152.974 36.2869L151.17 35.8301C149.811 35.492 148.826 35.0101 148.217 34.3842C147.62 33.7511 147.321 32.8989 147.321 31.8275C147.321 30.4025 147.815 29.3442 148.803 28.6527C149.791 27.9527 151.314 27.6027 153.372 27.6027C154.146 27.6027 154.97 27.6625 155.844 27.7819C156.726 27.9049 157.697 28.102 158.759 28.3731V31.6841H157.362C157.288 30.7859 156.966 30.1111 156.398 29.6596C155.836 29.2057 155.029 28.9787 153.976 28.9787C153.086 28.9787 152.411 29.1221 151.951 29.4087C151.497 29.6882 151.27 30.1063 151.27 30.6629C151.27 31.1072 151.402 31.4572 151.664 31.7128C151.927 31.9684 152.401 32.1834 153.085 32.3578L154.877 32.8147C156.597 33.2507 157.787 33.79 158.448 34.4326C159.107 35.0752 159.437 35.9686 159.437 37.1129C159.437 38.594 158.899 39.6893 157.824 40.3988C156.769 41.0988 155.127 41.4487 152.897 41.4487C152.081 41.4487 151.216 41.3872 150.303 41.2642C149.389 41.1412 148.421 40.962 147.4 40.7267L147.398 40.7088Z" fill="white"/>
</svg>
