<svg width="113" height="53" viewBox="0 0 113 53" fill="none" xmlns="http://www.w3.org/2000/svg">
<path d="M61.8402 33.4082V19.3082H63.9202V25.6482H63.9602L70.5002 19.3082H73.0602L65.9402 26.1282L73.4602 33.4082H70.8602L63.9602 26.8282H63.9202V33.4082H61.8402ZM78.8174 33.5882C77.2174 33.5882 75.9574 33.1415 75.0374 32.2482C74.1174 31.3415 73.6574 30.1082 73.6574 28.5482C73.6574 27.5482 73.8574 26.6682 74.2574 25.9082C74.6707 25.1349 75.2374 24.5349 75.9574 24.1082C76.6774 23.6815 77.504 23.4682 78.4374 23.4682C79.784 23.4682 80.8441 23.9015 81.6174 24.7682C82.3907 25.6215 82.7774 26.8015 82.7774 28.3082V28.9882H75.6174C75.764 31.0149 76.8374 32.0282 78.8374 32.0282C79.3974 32.0282 79.944 31.9415 80.4774 31.7682C81.024 31.5949 81.5374 31.3082 82.0174 30.9082L82.6174 32.3082C82.1774 32.7082 81.6107 33.0215 80.9174 33.2482C80.224 33.4749 79.524 33.5882 78.8174 33.5882ZM78.5174 24.8882C77.6774 24.8882 77.0107 25.1482 76.5174 25.6682C76.024 26.1882 75.724 26.8815 75.6174 27.7482H81.0774C81.0374 26.8415 80.7974 26.1415 80.3574 25.6482C79.9174 25.1415 79.304 24.8882 78.5174 24.8882ZM84.9796 33.4082V23.6482H86.9396V25.3882C87.4462 24.2282 88.4996 23.5815 90.0996 23.4482L90.7596 23.4082L90.8996 25.1282L89.6796 25.2482C87.9062 25.4215 87.0196 26.3349 87.0196 27.9882V33.4082H84.9796ZM95.4629 33.5882C94.7829 33.5882 94.1762 33.4549 93.6429 33.1882C93.1095 32.9215 92.6829 32.5615 92.3629 32.1082C92.0562 31.6549 91.9029 31.1415 91.9029 30.5682C91.9029 29.8482 92.0829 29.2815 92.4429 28.8682C92.8162 28.4549 93.4229 28.1549 94.2629 27.9682C95.1162 27.7815 96.2629 27.6882 97.7029 27.6882H98.3829V27.1682C98.3829 26.4082 98.2229 25.8615 97.9029 25.5282C97.5829 25.1949 97.0562 25.0282 96.3229 25.0282C95.7629 25.0282 95.2029 25.1149 94.6429 25.2882C94.0829 25.4482 93.5095 25.7082 92.9229 26.0682L92.3029 24.6482C92.8095 24.2882 93.4429 24.0015 94.2029 23.7882C94.9629 23.5749 95.6895 23.4682 96.3829 23.4682C97.7162 23.4682 98.7029 23.7882 99.3429 24.4282C99.9829 25.0549 100.303 26.0415 100.303 27.3882V33.4082H98.4029V31.7882C98.1629 32.3482 97.7895 32.7882 97.2829 33.1082C96.7762 33.4282 96.1695 33.5882 95.4629 33.5882ZM95.8629 32.1482C96.5829 32.1482 97.1829 31.8949 97.6629 31.3882C98.1429 30.8815 98.3829 30.2415 98.3829 29.4682V28.9282H97.7229C96.7495 28.9282 95.9829 28.9749 95.4229 29.0682C94.8762 29.1615 94.4829 29.3215 94.2429 29.5482C94.0162 29.7615 93.9029 30.0615 93.9029 30.4482C93.9029 30.9549 94.0762 31.3682 94.4229 31.6882C94.7695 31.9949 95.2495 32.1482 95.8629 32.1482ZM106.505 33.5882C105.705 33.5882 104.958 33.4882 104.265 33.2882C103.572 33.0749 102.992 32.7815 102.525 32.4082L103.105 31.0482C103.598 31.3949 104.138 31.6615 104.725 31.8482C105.325 32.0349 105.925 32.1282 106.525 32.1282C107.232 32.1282 107.765 32.0015 108.125 31.7482C108.485 31.4949 108.665 31.1549 108.665 30.7282C108.665 30.3815 108.545 30.1149 108.305 29.9282C108.065 29.7282 107.705 29.5749 107.225 29.4682L105.325 29.0882C103.645 28.7415 102.805 27.8749 102.805 26.4882C102.805 25.5682 103.172 24.8349 103.905 24.2882C104.638 23.7415 105.598 23.4682 106.785 23.4682C107.465 23.4682 108.112 23.5682 108.725 23.7682C109.352 23.9682 109.872 24.2682 110.285 24.6682L109.705 26.0282C109.305 25.6815 108.845 25.4149 108.325 25.2282C107.805 25.0415 107.292 24.9482 106.785 24.9482C106.092 24.9482 105.565 25.0815 105.205 25.3482C104.845 25.6015 104.665 25.9482 104.665 26.3882C104.665 27.0549 105.105 27.4815 105.985 27.6682L107.885 28.0482C108.752 28.2215 109.405 28.5149 109.845 28.9282C110.298 29.3415 110.525 29.9015 110.525 30.6082C110.525 31.5415 110.158 32.2749 109.425 32.8082C108.692 33.3282 107.718 33.5882 106.505 33.5882Z" fill="white"/>
<path d="M52.2 52.6062C52.2 52.6072 52.199 52.6082 52.198 52.6082H0.00200005C0.00100005 52.6082 0 52.6072 0 52.6062V0.410203C0 0.409203 0.00100005 0.408203 0.00200005 0.408203H52.1985C52.1995 0.408203 52.2005 0.409203 52.2005 0.410203V52.6062H52.2Z" fill="white" fill-opacity="0.26"/>
<path d="M16.1499 41.2287C16.1499 41.2682 16.1729 41.3232 16.2004 41.3507L17.0939 42.2442C17.1219 42.2722 17.1769 42.2947 17.2159 42.2947H20.2734C20.3129 42.2947 20.3679 42.2717 20.3954 42.2442L21.2889 41.3507C21.3169 41.3227 21.3394 41.2677 21.3394 41.2287V31.5272C21.3394 31.4877 21.3629 31.4332 21.3914 31.4062L25.2759 27.6962C25.3044 27.6692 25.3459 27.6732 25.3679 27.7062L35.1824 42.2362C35.2044 42.2687 35.2549 42.2957 35.2939 42.2957H39.6254C39.6649 42.2957 39.7119 42.2672 39.7299 42.2322L40.5159 40.7092C40.5339 40.6742 40.5304 40.6192 40.5079 40.5867L29.0279 23.9467C29.0054 23.9142 29.0099 23.8652 29.0379 23.8372L39.5969 13.3277C39.6249 13.2997 39.6474 13.2452 39.6474 13.2057V13.0117C39.6474 12.9722 39.6344 12.9107 39.6189 12.8742L39.0099 11.4737C38.9944 11.4377 38.9489 11.4082 38.9099 11.4082H34.6284C34.5889 11.4082 34.5339 11.4312 34.5064 11.4587L21.3909 24.6237C21.3629 24.6517 21.3404 24.6422 21.3404 24.6027V12.5252C21.3404 12.4857 21.3184 12.4302 21.2914 12.4012L20.4149 11.4612C20.3879 11.4322 20.3339 11.4087 20.2944 11.4087H17.2159C17.1764 11.4087 17.1224 11.4322 17.0954 11.4612L16.1979 12.4302C16.1709 12.4592 16.1494 12.5147 16.1494 12.5542V41.2287H16.1499Z" fill="white"/>
</svg>
