<svg width="176" height="50" viewBox="0 0 176 50" fill="none" xmlns="http://www.w3.org/2000/svg">
<path d="M24.8846 0.642416C24.4364 0.668961 23.998 0.785231 23.5956 0.984334L6.15777 9.30661C5.70798 9.52077 5.31234 9.8337 5.00034 10.2221C4.68835 10.6104 4.46804 11.0642 4.35586 11.5496L0.0853086 30.232C-0.0154425 30.6652 -0.0270848 31.1144 0.0510884 31.5523C0.129262 31.9902 0.295619 32.4076 0.540059 32.7793C0.599325 32.8704 0.66201 32.9582 0.728114 33.0425L12.791 48.0322C13.1051 48.4179 13.5015 48.7286 13.951 48.9415C14.4006 49.1545 14.8921 49.2644 15.3895 49.2631H34.7284C35.2278 49.2641 35.7212 49.1532 36.1721 48.9384C36.623 48.7236 37.0199 48.4104 37.3338 48.0219L49.3864 33.0254C49.6984 32.6384 49.9183 32.1855 50.0297 31.701C50.141 31.2165 50.1409 30.713 50.0292 30.2285L45.7279 11.5257C45.6157 11.0403 45.3954 10.5865 45.0834 10.1981C44.7714 9.80976 44.3758 9.49683 43.926 9.28267L26.5019 0.984334C25.9997 0.737229 25.4438 0.619687 24.8846 0.642416Z" fill="white" fill-opacity="0.47"/>
<path d="M25.0594 7.00195C24.7707 7.02217 24.5014 7.15497 24.3095 7.37175C24.1177 7.58853 24.0186 7.87197 24.0337 8.16105V8.4551C24.0625 8.78811 24.1104 9.11918 24.1773 9.44666C24.273 10.0732 24.3074 10.7076 24.2799 11.3409C24.2198 11.5499 24.1012 11.7374 23.9379 11.8811L23.914 12.3256C23.28 12.3782 22.6504 12.4753 22.03 12.6162C19.4203 13.2043 17.0459 14.5594 15.2122 16.5073L14.8361 16.2406C14.6297 16.3017 14.4076 16.2796 14.2172 16.179C13.7087 15.8028 13.2381 15.378 12.8119 14.9105C12.5982 14.6548 12.3698 14.4117 12.1281 14.1822L11.8956 13.9976C11.6894 13.8314 11.4354 13.7356 11.1707 13.7241C11.013 13.716 10.8555 13.7452 10.7112 13.8094C10.5668 13.8735 10.4396 13.9708 10.3399 14.0933C10.1702 14.3315 10.1019 14.6272 10.15 14.9157C10.1981 15.2041 10.3586 15.4617 10.5963 15.632L10.8117 15.8029C11.0901 15.9881 11.3789 16.157 11.6768 16.3089C12.2316 16.6173 12.755 16.9792 13.2393 17.3894C13.3637 17.5666 13.4359 17.7751 13.4479 17.9912L13.7898 18.2887C11.9455 21.0559 11.1881 24.4068 11.6631 27.6982L11.2254 27.8247C11.1115 28.0065 10.9585 28.1607 10.7775 28.2761C10.1656 28.4392 9.5392 28.5423 8.90724 28.5838C8.57207 28.5907 8.23758 28.617 7.90542 28.6624L7.63189 28.7308H7.5977C7.40477 28.7565 7.22284 28.8355 7.07234 28.9589C6.92183 29.0823 6.80874 29.2452 6.74575 29.4294C6.68277 29.6135 6.6724 29.8116 6.71581 30.0013C6.75922 30.191 6.85469 30.3649 6.99148 30.5033C7.12831 30.6418 7.30106 30.7394 7.4903 30.785C7.67955 30.8307 7.87778 30.8226 8.06271 30.7618H8.08322L8.36701 30.7276C8.68557 30.6316 8.99837 30.5175 9.30387 30.3857C9.89143 30.1492 10.5006 29.9706 11.1229 29.8523C11.3382 29.8656 11.5456 29.939 11.7212 30.0643L12.176 29.9857C13.1937 33.144 15.3333 35.8201 18.1903 37.5078L17.9988 37.9079C18.0871 38.0905 18.1192 38.2951 18.0912 38.496C17.832 39.0947 17.516 39.6672 17.1475 40.2056C16.9447 40.4727 16.7575 40.7512 16.5867 41.0399L16.4499 41.3202C16.3521 41.4876 16.3026 41.679 16.3072 41.8728C16.3117 42.0667 16.37 42.2555 16.4757 42.4181C16.5813 42.5808 16.73 42.7109 16.9053 42.7939C17.0805 42.8769 17.2754 42.9096 17.4682 42.8883C17.6609 42.8669 17.8439 42.7925 17.9968 42.6732C18.1497 42.5539 18.2664 42.3944 18.3339 42.2126L18.4638 41.9459C18.5825 41.6329 18.6829 41.3132 18.7647 40.9886C19.0383 40.3047 19.1921 39.5696 19.5717 39.1149C19.6955 38.9985 19.8516 38.9222 20.0196 38.896L20.2589 38.4686C23.3552 39.6593 26.7817 39.6678 29.8839 38.4926L30.089 38.8926C30.302 38.9258 30.4935 39.0412 30.6224 39.214C30.9171 39.7741 31.1564 40.3615 31.337 40.968C31.42 41.2928 31.5216 41.6124 31.6414 41.9254L31.7713 42.1921C31.8388 42.3739 31.9555 42.5334 32.1084 42.6527C32.2613 42.772 32.4443 42.8464 32.6371 42.8678C32.8298 42.8891 33.0247 42.8564 33.2 42.7734C33.3753 42.6904 33.524 42.5603 33.6296 42.3976C33.7352 42.235 33.7935 42.0462 33.7981 41.8523C33.8026 41.6584 33.7531 41.4671 33.6552 41.2997L33.5185 41.0193C33.3477 40.7318 33.1605 40.4544 32.9577 40.1885C32.597 39.6681 32.2878 39.1139 32.0346 38.5336C32.0096 38.4275 32.0061 38.3175 32.0243 38.21C32.0425 38.1026 32.0821 37.9998 32.1406 37.9079C32.0736 37.7715 32.0153 37.6311 31.9662 37.4873C34.8194 35.7885 36.9507 33.1025 37.9566 29.9378L38.4011 30.0164C38.5603 29.8709 38.7702 29.7935 38.9857 29.801C39.608 29.9193 40.2172 30.0979 40.8047 30.3344C41.1098 30.4731 41.4226 30.5941 41.7416 30.6968C41.8168 30.7174 41.9262 30.731 42.0151 30.755H42.0356C42.2206 30.8158 42.4188 30.8239 42.608 30.7783C42.7973 30.7326 42.97 30.6351 43.1069 30.4967C43.2437 30.3582 43.3392 30.1843 43.3827 29.9946C43.4261 29.8048 43.4157 29.6067 43.3527 29.4225C43.2895 29.2379 43.1758 29.0746 43.0247 28.9512C42.8735 28.8277 42.6908 28.749 42.4972 28.724L42.1895 28.6556C41.8574 28.6102 41.5229 28.5839 41.1877 28.577C40.5557 28.5355 39.9293 28.4324 39.3174 28.2692C39.128 28.1635 38.9718 28.0073 38.8661 27.8179L38.4455 27.6948C38.8962 24.4059 38.1236 21.066 36.2743 18.3092L36.6436 17.9673C36.6287 17.7522 36.6987 17.5398 36.8385 17.3757C37.3192 16.9625 37.8391 16.5972 38.3908 16.285C38.6886 16.1331 38.9775 15.9641 39.2559 15.779L39.4849 15.5943C39.6531 15.4897 39.7882 15.3397 39.8747 15.1615C39.9612 14.9833 39.9955 14.7843 39.9737 14.5875C39.9519 14.3907 39.8748 14.204 39.7514 14.0491C39.628 13.8942 39.4633 13.7774 39.2764 13.7121C39.0894 13.6468 38.8877 13.6358 38.6947 13.6802C38.5017 13.7247 38.3252 13.8229 38.1857 13.9634L37.9532 14.148C37.7115 14.3775 37.4832 14.6207 37.2693 14.8763C36.8559 15.349 36.3979 15.7806 35.9016 16.1653C35.7013 16.2465 35.4822 16.2702 35.2691 16.2337L34.8725 16.5175C32.5853 14.1196 29.5053 12.6337 26.2049 12.3359C26.2049 12.1991 26.1843 11.9461 26.1809 11.8709C26.0034 11.749 25.8807 11.5624 25.839 11.3511C25.8175 10.7185 25.8576 10.0852 25.9587 9.46034C26.0256 9.13285 26.0735 8.80178 26.1023 8.46878V8.17131C26.1173 7.88222 26.0183 7.59879 25.8264 7.38201C25.6346 7.16522 25.3653 7.03243 25.0765 7.01221L25.0594 7.00195ZM23.7533 15.0917L23.4456 20.5624H23.4216C23.4145 20.7286 23.3625 20.8897 23.271 21.0286C23.1796 21.1676 23.0522 21.2791 22.9024 21.3514C22.7526 21.4236 22.586 21.4539 22.4203 21.439C22.2547 21.4241 22.0962 21.3646 21.9617 21.2668L17.4757 18.0869C18.9039 16.6841 20.6957 15.7083 22.6489 15.2695C23.0149 15.1914 23.3847 15.1321 23.7567 15.0917H23.7533ZM26.3656 15.0917C28.7217 15.3841 30.9165 16.4424 32.6124 18.104L28.1675 21.2633C28.0331 21.3708 27.8713 21.4385 27.7004 21.4586C27.5295 21.4787 27.3564 21.4504 27.2008 21.377C27.0451 21.3037 26.9132 21.1881 26.8199 21.0435C26.7267 20.8989 26.6759 20.731 26.6733 20.559L26.3656 15.0917ZM15.8413 20.1487L19.9443 23.8072V23.8311C20.0695 23.9406 20.1627 24.0819 20.214 24.24C20.2653 24.3982 20.2727 24.5673 20.2355 24.7294C20.1984 24.8914 20.1179 25.0404 20.0029 25.1604C19.8878 25.2803 19.7423 25.3669 19.5819 25.4108V25.4279L14.3164 26.9426C14.0553 24.5703 14.5919 22.1787 15.8413 20.1453V20.1487ZM34.2468 20.1487C35.4932 22.1768 36.0442 24.556 35.8162 26.9255L30.5438 25.4074V25.3869C30.3834 25.343 30.238 25.2564 30.1229 25.1364C30.0078 25.0164 29.9273 24.8675 29.8902 24.7054C29.853 24.5434 29.8604 24.3743 29.9117 24.2161C29.963 24.0579 30.0562 23.9166 30.1814 23.8072L34.2502 20.1624L34.2468 20.1487ZM24.2183 24.0978H25.8937L26.9195 25.3971L26.5434 27.0246L25.0389 27.7495L23.5276 27.0246L23.1721 25.3937L24.2183 24.0978ZM29.5967 28.5428C29.6671 28.5346 29.7382 28.5346 29.8087 28.5428L35.2383 29.4591C34.439 31.7155 32.9097 33.6408 30.8926 34.9298L28.7932 29.842C28.7354 29.7058 28.7112 29.5577 28.7226 29.4102C28.7341 29.2626 28.7808 29.12 28.8589 28.9943C28.937 28.8686 29.0442 28.7635 29.1714 28.6879C29.2986 28.6123 29.4421 28.5684 29.5898 28.5599L29.5967 28.5428ZM20.4777 28.5667C20.6287 28.5691 20.7768 28.6086 20.9089 28.6817C21.041 28.7549 21.1531 28.8594 21.2352 28.9862C21.3173 29.1129 21.3669 29.2579 21.3798 29.4083C21.3926 29.5588 21.3681 29.7101 21.3086 29.8489V29.8694L19.2195 34.9024C17.2267 33.6215 15.7105 31.7209 14.9045 29.4933L20.2863 28.577C20.3465 28.5711 20.4072 28.5711 20.4675 28.577L20.4777 28.5667ZM25.0252 30.7755C25.1963 30.7703 25.3654 30.8127 25.5139 30.8978C25.6623 30.9829 25.7844 31.1074 25.8664 31.2576H25.8869L28.5402 36.0444C28.192 36.1612 27.8383 36.2605 27.4802 36.3419C25.5285 36.7887 23.491 36.6833 21.5958 36.0376L24.2423 31.2507C24.3216 31.1126 24.4355 30.9974 24.5727 30.9165C24.71 30.8356 24.8659 30.7917 25.0252 30.7892V30.7755Z" fill="white" stroke="white" stroke-width="0.053987"/>
<path d="M61.0422 25.9238L62.0508 24.8229C62.3973 24.4399 62.7335 24.0615 63.0595 23.6877L63.9827 22.6209C64.2699 22.2836 64.5172 21.9895 64.7246 21.7388H68.6499C67.8657 22.6392 67.1021 23.4974 66.359 24.3134C65.6136 25.1295 64.7976 25.9729 63.9109 26.8436C64.3974 27.291 64.8542 27.7695 65.2785 28.2762C65.7504 28.8301 66.2063 29.4 66.6462 29.9858C67.0861 30.5716 67.4919 31.1643 67.8634 31.7638C68.2327 32.3565 68.5427 32.8967 68.7935 33.3845H64.9982C64.7702 32.997 64.5012 32.5707 64.1912 32.1057C63.8812 31.6384 63.5621 31.1803 63.2339 30.7312C62.892 30.2753 62.5341 29.8274 62.1603 29.3875C61.8197 28.9934 61.4456 28.6296 61.0422 28.3002V33.4084H57.7393V16.7331L61.0422 16.1997V25.9273V25.9238ZM80.2921 32.9947C79.5783 33.1899 78.8532 33.3418 78.121 33.4495C77.1979 33.593 76.2651 33.6639 75.3309 33.6614C74.489 33.6863 73.65 33.5506 72.8589 33.2614C72.25 33.0303 71.7116 32.645 71.2963 32.1433C70.9006 31.6406 70.6205 31.0569 70.4757 30.4337C70.3072 29.7144 70.2257 28.9774 70.2329 28.2386V21.7422H73.5359V27.8283C73.5359 28.8928 73.676 29.661 73.9564 30.1329C74.2368 30.6047 74.7611 30.8406 75.5292 30.8406C75.7572 30.8406 76.0079 30.8292 76.2815 30.8064C76.555 30.7836 76.7909 30.7574 76.9892 30.7278V21.7354H80.2921V32.9947ZM94.2355 27.5651C94.2473 28.4248 94.1084 29.28 93.8252 30.0918C93.5722 30.8121 93.1676 31.4697 92.6388 32.0202C92.102 32.5654 91.4518 32.9856 90.7343 33.2511C89.9108 33.551 89.0393 33.697 88.1631 33.682C87.7642 33.682 87.347 33.6637 86.9117 33.6273C86.4786 33.5908 86.05 33.5429 85.6261 33.4836C85.2044 33.4244 84.802 33.3537 84.4191 33.2717C84.0361 33.1896 83.6942 33.1041 83.3933 33.0152V16.7297L86.6963 16.1963V22.0089C87.0671 21.8462 87.4531 21.7202 87.8485 21.6328C88.2709 21.5415 88.702 21.4968 89.1341 21.4994C89.8883 21.4841 90.6369 21.631 91.3293 21.9302C91.9515 22.2083 92.4988 22.6301 92.926 23.1612C93.3734 23.7305 93.7045 24.3823 93.9005 25.0793C94.1311 25.8875 94.244 26.7247 94.2355 27.5651ZM90.8677 27.4762C90.8677 25.3494 90.0847 24.2861 88.5187 24.2861C88.1781 24.2863 87.839 24.3311 87.51 24.4194C87.2239 24.4911 86.9506 24.6064 86.6997 24.7613V30.7551C86.8592 30.7848 87.0644 30.811 87.3151 30.8338C87.5659 30.8566 87.8394 30.868 88.1357 30.868C88.528 30.8951 88.9208 30.8242 89.2789 30.6619C89.637 30.4996 89.9491 30.2508 90.1872 29.938C90.6728 29.212 90.9103 28.3483 90.8642 27.4762H90.8677ZM96.2255 27.654C96.2057 26.7267 96.3671 25.8045 96.7008 24.9391C96.9842 24.2158 97.4097 23.5566 97.9522 23.0005C98.4609 22.4953 99.0686 22.1006 99.737 21.8414C100.396 21.5775 101.099 21.4417 101.809 21.4413C103.464 21.4413 104.771 21.9473 105.731 22.9594C106.688 23.9715 107.167 25.46 107.167 27.4249C107.167 27.6163 107.16 27.8272 107.146 28.0574C107.133 28.2854 107.118 28.4882 107.102 28.666H99.6139C99.6432 28.9894 99.7439 29.3023 99.9089 29.582C100.074 29.8617 100.299 30.1012 100.568 30.2833C101.24 30.7135 102.031 30.9227 102.828 30.8817C103.427 30.882 104.024 30.8259 104.613 30.7141C105.103 30.6306 105.582 30.493 106.042 30.3038L106.486 32.9844C106.258 33.0927 106.022 33.1819 105.779 33.2511C105.455 33.3464 105.126 33.4241 104.794 33.4836C104.429 33.552 104.042 33.609 103.631 33.6546C103.219 33.6983 102.805 33.72 102.39 33.7196C101.457 33.7398 100.529 33.582 99.6549 33.2546C98.9265 32.9757 98.2682 32.5404 97.7265 31.9792C97.2126 31.4316 96.8271 30.7763 96.5982 30.0611C96.3444 29.2853 96.2174 28.4736 96.2221 27.6574L96.2255 27.654ZM103.98 26.3889C103.966 26.1105 103.918 25.8349 103.837 25.5683C103.759 25.3099 103.631 25.0694 103.46 24.8605C103.284 24.6483 103.065 24.4749 102.818 24.351C102.517 24.2093 102.186 24.1413 101.853 24.1527C101.526 24.1441 101.2 24.2083 100.9 24.3408C100.646 24.4582 100.419 24.6284 100.236 24.84C100.056 25.0527 99.9164 25.2974 99.8259 25.5614C99.7302 25.8314 99.6592 26.1095 99.6139 26.3923H103.98V26.3889ZM116.741 24.6622C116.444 24.5892 116.102 24.5117 115.715 24.4297C115.291 24.3457 114.861 24.3045 114.429 24.3066C114.181 24.3094 113.933 24.3277 113.687 24.3613C113.467 24.3857 113.248 24.4269 113.034 24.4844V33.3742H109.731V22.3542C110.413 22.123 111.107 21.9289 111.81 21.773C112.694 21.5801 113.597 21.4872 114.501 21.496C114.679 21.496 114.893 21.5074 115.144 21.5302C115.395 21.553 115.645 21.5826 115.896 21.6191C116.147 21.6556 116.398 21.7012 116.648 21.7559C116.868 21.7983 117.083 21.8613 117.291 21.9439L116.741 24.6622ZM119.066 22.1388C119.78 21.9439 120.505 21.792 121.237 21.6841C122.161 21.5404 123.095 21.4695 124.03 21.4721C124.874 21.4472 125.714 21.5794 126.509 21.8619C127.117 22.0854 127.655 22.4637 128.072 22.9594C128.466 23.4528 128.746 24.0272 128.892 24.6417C129.061 25.3528 129.143 26.0819 129.135 26.8128V33.3982H125.829V27.2095C125.829 26.145 125.689 25.3927 125.408 24.9528C125.128 24.5106 124.604 24.2895 123.835 24.2895C123.607 24.2895 123.357 24.3009 123.083 24.3237C122.81 24.3465 122.574 24.3727 122.375 24.4023V33.3948H119.072V22.1388H119.066ZM131.563 27.654C131.543 26.7267 131.704 25.8045 132.038 24.9391C132.321 24.2158 132.747 23.5566 133.289 23.0005C133.794 22.4969 134.397 22.1024 135.061 21.8414C135.72 21.5776 136.423 21.4418 137.133 21.4413C138.787 21.4413 140.095 21.9473 141.054 22.9594C142.012 23.9715 142.49 25.46 142.49 27.4249C142.49 27.6163 142.482 27.8272 142.466 28.0574C142.451 28.2854 142.436 28.4882 142.422 28.666H134.934C134.963 28.9894 135.064 29.3023 135.229 29.582C135.394 29.8617 135.619 30.1012 135.888 30.2833C136.561 30.7135 137.351 30.9227 138.148 30.8817C138.747 30.8819 139.344 30.8258 139.933 30.7141C140.423 30.6306 140.902 30.493 141.362 30.3038L141.807 32.9844C141.578 33.0927 141.342 33.1819 141.099 33.2511C140.775 33.3464 140.446 33.4241 140.114 33.4836C139.749 33.552 139.362 33.609 138.952 33.6546C138.539 33.6983 138.125 33.72 137.71 33.7196C136.777 33.7398 135.849 33.582 134.975 33.2546C134.247 32.9757 133.588 32.5404 133.047 31.9792C132.534 31.428 132.151 30.7691 131.925 30.0508C131.676 29.2777 131.552 28.4696 131.559 27.6574L131.563 27.654ZM139.317 26.3889C139.303 26.1105 139.255 25.8349 139.174 25.5683C139.096 25.3099 138.968 25.0694 138.798 24.8605C138.621 24.6483 138.402 24.4749 138.155 24.351C137.854 24.2093 137.523 24.1413 137.191 24.1527C136.863 24.144 136.537 24.2082 136.237 24.3408C135.983 24.4582 135.757 24.6284 135.573 24.84C135.393 25.0526 135.253 25.2974 135.163 25.5614C135.067 25.8313 134.996 26.1094 134.951 26.3923H139.317V26.3889ZM144.942 18.8325L148.245 18.2991V21.7183H152.211V24.4536H148.245V28.5566C148.218 29.1331 148.344 29.7065 148.611 30.2183C148.855 30.6286 149.345 30.8338 150.081 30.8338C150.449 30.8328 150.816 30.7996 151.179 30.7346C151.528 30.6748 151.872 30.5821 152.204 30.4577L152.669 33.0289C152.237 33.202 151.792 33.3426 151.339 33.4495C150.75 33.5784 150.147 33.638 149.544 33.6273C148.782 33.6507 148.023 33.5265 147.308 33.2614C146.756 33.0449 146.268 32.692 145.889 32.2356C145.522 31.773 145.268 31.2309 145.147 30.6526C145.001 29.9787 144.93 29.2906 144.935 28.6011V18.8325H144.942ZM153.969 27.654C153.949 26.7267 154.11 25.8045 154.444 24.9391C154.727 24.2158 155.153 23.5566 155.695 23.0005C156.204 22.4953 156.812 22.1007 157.48 21.8414C158.139 21.5776 158.842 21.4418 159.552 21.4413C161.207 21.4413 162.514 21.9473 163.474 22.9594C164.431 23.9715 164.91 25.4566 164.91 27.4146C164.91 27.6061 164.902 27.8169 164.886 28.0472C164.87 28.2751 164.855 28.478 164.842 28.6558H157.354C157.383 28.9795 157.485 29.2925 157.65 29.5722C157.816 29.8519 158.041 30.0913 158.311 30.273C158.983 30.7032 159.774 30.9124 160.571 30.8714C161.17 30.8717 161.767 30.8156 162.356 30.7039C162.846 30.6204 163.325 30.4828 163.785 30.2936L164.23 32.9742C164.001 33.0825 163.765 33.1717 163.522 33.2409C163.198 33.3362 162.869 33.4138 162.537 33.4734C162.172 33.5418 161.785 33.5988 161.374 33.6444C160.962 33.6881 160.548 33.7098 160.133 33.7093C159.2 33.7295 158.272 33.5717 157.398 33.2443C156.67 32.9655 156.011 32.5301 155.47 31.969C154.951 31.4227 154.56 30.7673 154.328 30.0508C154.08 29.2775 153.957 28.4694 153.965 27.6574L153.969 27.654ZM161.73 26.3889C161.716 26.1105 161.668 25.8349 161.586 25.5683C161.509 25.3099 161.381 25.0694 161.21 24.8605C161.033 24.6483 160.815 24.4749 160.568 24.351C160.266 24.2093 159.936 24.1413 159.603 24.1527C159.275 24.144 158.95 24.2082 158.649 24.3408C158.39 24.4551 158.158 24.6243 157.969 24.8365C157.788 25.0492 157.649 25.294 157.559 25.558C157.463 25.8279 157.392 26.106 157.347 26.3889H161.73ZM170.801 31.0218C171.237 31.0485 171.674 30.988 172.087 30.844C172.212 30.782 172.315 30.6833 172.382 30.561C172.449 30.4388 172.477 30.2989 172.463 30.1602C172.449 30.0134 172.396 29.8729 172.31 29.7528C172.224 29.6328 172.108 29.5375 171.974 29.4764C171.5 29.2053 171.004 28.9764 170.49 28.7925C170.011 28.6171 169.54 28.4174 169.081 28.1942C168.686 28.0053 168.324 27.7548 168.008 27.4522C167.711 27.1614 167.478 26.8121 167.324 26.4265C167.151 25.9668 167.068 25.478 167.081 24.987C167.062 24.4891 167.162 23.9939 167.374 23.543C167.586 23.092 167.903 22.6984 168.298 22.3953C169.11 21.757 170.224 21.4379 171.642 21.4379C172.331 21.4348 173.018 21.4977 173.694 21.6259C174.222 21.7187 174.741 21.856 175.246 22.0362L174.672 24.6075C174.261 24.4713 173.843 24.3572 173.42 24.2655C172.922 24.1576 172.412 24.106 171.902 24.1117C170.867 24.1117 170.35 24.4 170.35 24.9767C170.349 25.0939 170.371 25.21 170.415 25.3187C170.475 25.4399 170.568 25.5427 170.682 25.6161C170.854 25.7349 171.036 25.839 171.225 25.9273C171.453 26.0412 171.745 26.1643 172.1 26.2965C172.717 26.5172 173.317 26.7823 173.896 27.0898C174.312 27.3081 174.69 27.5935 175.014 27.9343C175.278 28.2222 175.474 28.5657 175.588 28.9396C175.706 29.3566 175.762 29.7885 175.756 30.2218C175.783 30.7315 175.679 31.2398 175.452 31.697C175.224 32.1542 174.883 32.5448 174.46 32.8306C173.593 33.4187 172.372 33.715 170.794 33.7196C169.926 33.7374 169.059 33.6478 168.213 33.4529C167.726 33.3391 167.249 33.1906 166.784 33.0084L167.338 30.3277C167.898 30.5488 168.475 30.7227 169.064 30.8475C169.636 30.9658 170.218 31.0243 170.801 31.0218Z" fill="white"/>
</svg>
