<svg width="123" height="50" viewBox="0 0 123 50" fill="none" xmlns="http://www.w3.org/2000/svg">
<path d="M31.7102 30.2285V19.6294L22.5654 24.9508L31.7102 30.2403" fill="white"/>
<path d="M31.1268 18.6031L21.9701 13.3089V23.9116L31.1268 18.6019V18.6031ZM20.7809 23.8985V13.2959L11.6183 18.6031L20.7821 23.9127L20.7809 23.8985ZM20.188 12.2806L11.0361 6.95557V17.5736L20.188 12.2841" fill="white"/>
<path d="M31.1268 31.246L21.9702 25.9565V36.5557L31.1268 31.246ZM20.7809 36.5557V25.9684L11.6172 31.2579L20.7809 36.5675" fill="white"/>
<path d="M42.0698 24.9368L32.8989 19.6272V30.2263L42.0698 24.9368ZM9.82867 17.5836V6.96436L0.615234 12.2894L9.83932 17.5789" fill="white"/>
<path d="M20.1763 37.5767L11.0244 32.2671V42.8816L20.1763 37.5755" fill="white"/>
<path d="M9.82858 42.8816V32.2671L0.604492 37.5767L9.82858 42.8828" fill="white"/>
<path d="M20.1763 24.9363L11.0244 19.6255V30.2246L20.1763 24.9351" fill="white"/>
<path d="M31.7102 17.5729V6.96436L22.5654 12.2894L31.7102 17.5789" fill="white"/>
<path d="M21.9583 0.64132V11.2404L31.1268 5.93437L21.9702 0.640137L21.9583 0.64132ZM11.6184 5.93437L20.7821 11.2404V0.64132L11.6184 5.93437ZM31.1268 43.9028L21.9702 38.6133V49.2089L31.1268 43.9028ZM20.7809 49.2006V38.6015L11.6172 43.891L20.7809 49.2006Z" fill="white"/>
<path d="M42.6592 36.5567V25.9683L33.5144 31.2578L42.6592 36.5674V36.5567ZM9.82877 30.2283V19.6102L0.604683 24.9352L9.82877 30.2247V30.2283ZM9.22763 31.2471L0 25.9683V36.5674L9.23828 31.2578L9.22763 31.2471ZM42.6674 23.9211V13.3184L33.512 18.6139L42.6568 23.9235L42.6674 23.9211ZM42.0675 12.2913L32.8967 6.96631V17.5844L42.0675 12.2949V12.2913ZM42.0675 37.5886L32.8967 32.279V42.8935L42.0675 37.5874" fill="white"/>
<path d="M31.7102 42.8816V32.2671L22.5654 37.5767L31.7102 42.8828" fill="white"/>
<path d="M9.23947 18.6034L0 13.2974V23.9L9.23947 18.6022" fill="white"/>
<path d="M61.5915 20.3918L63.3665 18.3565V31.5388H61.4673V23.3182L57.4085 28.4148L57.2333 28.6124L57.0594 28.4148L52.9567 23.3182V31.5423H51.0693V18.36L52.8443 20.393L57.225 25.8067L61.5915 20.3918ZM69.6678 18.3588H77.1417V20.0392H71.5564V24.0601H76.9524V25.7594H71.5564V29.8537H77.3228V31.5341H69.6666L69.6678 18.3588ZM87.2474 26.0197L85.8132 25.15C84.906 24.6009 84.2658 24.0605 83.8926 23.5288C83.5104 22.9939 83.3104 22.3502 83.3211 21.6946C83.305 21.2196 83.3936 20.7469 83.5805 20.3099C83.7674 19.8729 84.048 19.4823 84.4027 19.1659C85.1229 18.519 86.0585 18.1955 87.2095 18.1955C88.2904 18.1891 89.3474 18.5132 90.2389 19.1244V21.2781C89.289 20.3591 88.2666 19.8995 87.1717 19.8995C86.6331 19.8763 86.1013 20.0256 85.6534 20.3255C85.4711 20.4442 85.3214 20.6066 85.2181 20.7981C85.1147 20.9895 85.061 21.2038 85.0618 21.4213C85.0681 21.8322 85.2237 22.2267 85.4996 22.5313C85.9079 22.9667 86.3836 23.3336 86.9196 23.6164L88.3609 24.4684C89.9702 25.434 90.7749 26.6595 90.7749 28.145C90.7915 28.625 90.7051 29.103 90.5214 29.5468C90.3376 29.9905 90.0609 30.3898 89.7099 30.7176C89.0023 31.3747 88.0832 31.7033 86.9527 31.7033C85.6662 31.7088 84.4145 31.2862 83.3945 30.5022V28.1355C84.4145 29.4198 85.5966 30.062 86.9409 30.062C87.4775 30.081 88.0029 29.9053 88.4201 29.5674C88.6071 29.4203 88.7577 29.2321 88.8603 29.0175C88.9629 28.8029 89.0147 28.5675 89.0117 28.3296C89.0078 27.5289 88.424 26.7684 87.2604 26.0481L87.2474 26.0197ZM103.173 18.1695C105.21 18.1695 106.906 18.8144 108.261 20.1042C109.616 21.3941 110.294 23.0113 110.294 24.9559C110.294 26.8997 109.614 28.5091 108.254 29.7839C106.894 31.058 105.167 31.6891 103.073 31.6772C101.085 31.6772 99.4306 31.0402 98.1092 29.7662C96.787 28.4921 96.1252 26.8966 96.1236 24.9796C96.1236 23.0089 96.7941 21.3799 98.1352 20.0924C99.4764 18.8042 101.163 18.1612 103.196 18.1636L103.173 18.1695ZM103.247 19.9622C101.739 19.9622 100.499 20.4336 99.528 21.3763C98.5577 22.3191 98.0666 23.5221 98.0548 24.9855C98.0374 25.6459 98.1584 26.3026 98.4101 26.9134C98.6618 27.5242 99.0386 28.0755 99.5162 28.5319C100.498 29.4747 101.721 29.9468 103.185 29.9484C103.864 29.9676 104.54 29.8497 105.172 29.6016C105.805 29.3536 106.381 28.9805 106.866 28.5047C107.347 28.0404 107.727 27.4811 107.981 26.8623C108.235 26.2434 108.358 25.5785 108.341 24.9098C108.369 23.5797 107.833 22.2993 106.866 21.3858C106.387 20.9189 105.819 20.5525 105.196 20.3082C104.573 20.0639 103.908 19.9467 103.239 19.9634L103.247 19.9622ZM119.344 26.0185L117.91 25.1488C117.003 24.5997 116.363 24.0593 115.989 23.5276C115.607 22.9928 115.407 22.349 115.418 21.6935C115.402 21.2184 115.49 20.7457 115.677 20.3087C115.864 19.8717 116.145 19.4811 116.499 19.1647C117.22 18.5178 118.155 18.1943 119.306 18.1943C120.387 18.1879 121.444 18.512 122.336 19.1233V21.2769C121.386 20.3579 120.363 19.8983 119.268 19.8983C118.73 19.8752 118.198 20.0244 117.75 20.3243C117.568 20.443 117.418 20.6055 117.315 20.7969C117.211 20.9883 117.158 21.2026 117.159 21.4201C117.165 21.831 117.32 22.2255 117.596 22.5301C118.005 22.9655 118.48 23.3324 119.016 23.6152L120.458 24.4672C122.065 25.4265 122.869 26.6493 122.869 28.1355C122.888 28.6168 122.802 29.0964 122.618 29.5416C122.435 29.9868 122.157 30.3871 121.804 30.7152C121.097 31.3723 120.178 31.7009 119.047 31.7009C117.761 31.7064 116.509 31.2839 115.489 30.4998V28.1332C116.509 29.4175 117.691 30.0596 119.035 30.0596C119.572 30.0787 120.097 29.903 120.514 29.565C120.701 29.4179 120.852 29.2298 120.955 29.0151C121.057 28.8005 121.109 28.5651 121.106 28.3272C121.098 27.5265 120.516 26.766 119.358 26.0458L119.344 26.0185Z" fill="white"/>
</svg>
