<svg width="137" height="38" viewBox="0 0 137 38" fill="none" xmlns="http://www.w3.org/2000/svg">
<path d="M40.1755 28.3262V11.4174H42.336L52.6046 25.0337V11.4174H54.6583V28.3262H52.4978L42.2168 14.5762V28.3262H40.1631H40.1755ZM71.3873 27.6549C69.9871 28.1758 68.5055 28.4396 67.0129 28.4337C60.9312 28.4337 57.8891 25.5062 57.8891 19.6249C57.8891 14.0662 60.8232 11.2724 66.705 11.2724C68.3862 11.2724 69.9581 11.5137 71.3985 11.9724V13.8524C69.9581 13.2899 68.4644 13.0199 66.9434 13.0199C62.3554 13.0199 60.0608 15.2224 60.0608 19.5724C60.0608 24.2724 62.3281 26.6099 66.8366 26.6099C67.5567 26.6099 68.3576 26.5024 69.238 26.3149V20.6487H71.3985V27.6574L71.3873 27.6549ZM74.8553 21.7999V11.4074H77.0158V21.7999C77.0158 25.0499 78.6299 26.6749 81.8583 26.6749C85.0593 26.6749 86.7007 25.0499 86.7007 21.7999V11.4074H88.8613V21.7999C88.8613 26.2312 86.5393 28.4599 81.8707 28.4599C77.202 28.4599 74.8801 26.2312 74.8801 21.7999H74.8553ZM94.8635 11.4174V26.5762H103.679V28.3487H92.7154V11.4174H94.8759H94.8635ZM106.788 28.3362H104.521L112.868 9.20117L121.218 28.3487H118.816L116.656 23.0312H111.106L111.693 21.2587H115.935L112.787 13.6049L106.783 28.3487L106.788 28.3362ZM123.541 28.3362V11.4174H130.718C133.919 11.4174 135.519 12.7599 135.519 15.4724C135.519 17.6749 133.945 19.3124 130.826 20.3474L136.587 28.3224H133.731L128.396 20.7224V19.3262C131.597 18.8162 133.238 17.5812 133.238 15.5937C133.238 14.0362 132.369 13.2562 130.571 13.2562H125.77V28.3262H123.556L123.541 28.3362Z" fill="white"/>
<path d="M0 6.90644L17.2058 0.731445L34.866 6.8002L32.0102 29.7077L17.2058 37.9514L2.64103 29.8264L0 6.90644Z" fill="white" fill-opacity="0.47"/>
<path d="M34.8663 6.79824L17.2061 0.729492V37.9507L32.0117 29.7057L34.8675 6.79824H34.8663Z" fill="white" fill-opacity="0.46"/>
<path d="M17.2343 5.07988L6.50879 29.0761L10.5107 28.9961L12.6712 23.5711H22.2482L24.6073 29.0499L28.4217 29.1299L17.2442 5.06738L17.2343 5.07988ZM17.2591 12.7874L20.8873 20.4149H14.083L17.2591 12.7899V12.7874Z" fill="white" fill-opacity="0.67"/>
</svg>
