<svg width="119" height="33" viewBox="0 0 119 33" fill="none" xmlns="http://www.w3.org/2000/svg">
<path d="M16.0969 32.6401C7.11609 32.6401 0 25.3974 0 16.6401C0 7.7134 7.28583 0.640137 16.0969 0.640137H34.9031C43.8839 0.640137 51 7.88291 51 16.6401C51 25.5669 43.7142 32.6401 34.9031 32.6401H16.0969ZM34.5653 26.9134C40.3267 26.9134 45.0704 22.1982 45.0704 16.4714C45.0704 10.7447 40.3267 6.02944 34.5653 6.02944H16.6045C10.8431 6.02944 6.09928 10.7447 6.09928 16.4714C6.09928 22.1982 10.8439 26.9134 16.6045 26.9134H34.5653Z" fill="white"/>
<path d="M66.76 20.8201C65.4133 20.8201 64.2467 20.5268 63.26 19.9401C62.2733 19.3401 61.5067 18.5001 60.96 17.4201C60.4267 16.3268 60.16 15.0468 60.16 13.5801C60.16 12.1001 60.4267 10.8201 60.96 9.74014C61.5067 8.66014 62.2733 7.8268 63.26 7.24014C64.2467 6.65347 65.4133 6.36014 66.76 6.36014C68.0933 6.36014 69.2533 6.65347 70.24 7.24014C71.24 7.8268 72.0067 8.66014 72.54 9.74014C73.0867 10.8201 73.36 12.0935 73.36 13.5601C73.36 15.0401 73.0867 16.3268 72.54 17.4201C72.0067 18.5001 71.24 19.3401 70.24 19.9401C69.2533 20.5268 68.0933 20.8201 66.76 20.8201ZM66.76 19.0201C68.16 19.0201 69.2467 18.5468 70.02 17.6001C70.8067 16.6401 71.2 15.3001 71.2 13.5801C71.2 11.8601 70.8133 10.5268 70.04 9.58014C69.2667 8.63347 68.1733 8.16014 66.76 8.16014C65.36 8.16014 64.2667 8.63347 63.48 9.58014C62.7067 10.5268 62.32 11.8601 62.32 13.5801C62.32 15.3001 62.7067 16.6401 63.48 17.6001C64.2667 18.5468 65.36 19.0201 66.76 19.0201ZM75.9278 20.6401V10.8801H77.8878V12.6201C78.3945 11.4601 79.4478 10.8135 81.0478 10.6801L81.7078 10.6401L81.8478 12.3601L80.6278 12.4801C78.8545 12.6535 77.9678 13.5668 77.9678 15.2201V20.6401H75.9278ZM87.552 20.8201C86.552 20.8201 85.6854 20.6135 84.952 20.2001C84.232 19.7735 83.672 19.1801 83.272 18.4201C82.872 17.6468 82.672 16.7401 82.672 15.7001C82.672 14.1535 83.112 12.9335 83.992 12.0401C84.872 11.1468 86.0587 10.7001 87.552 10.7001C88.1654 10.7001 88.772 10.8068 89.372 11.0201C89.972 11.2335 90.4654 11.5268 90.852 11.9001L90.212 13.3201C89.8387 12.9735 89.4254 12.7201 88.972 12.5601C88.532 12.3868 88.112 12.3001 87.712 12.3001C86.7654 12.3001 86.032 12.6001 85.512 13.2001C85.0054 13.7868 84.752 14.6268 84.752 15.7201C84.752 16.8135 85.0054 17.6735 85.512 18.3001C86.032 18.9135 86.7654 19.2201 87.712 19.2201C88.112 19.2201 88.532 19.1401 88.972 18.9801C89.4254 18.8068 89.8387 18.5468 90.212 18.2001L90.852 19.6401C90.4654 20.0001 89.9654 20.2868 89.352 20.5001C88.752 20.7135 88.152 20.8201 87.552 20.8201ZM95.6298 20.8201C94.9498 20.8201 94.3432 20.6868 93.8098 20.4201C93.2765 20.1535 92.8498 19.7935 92.5298 19.3401C92.2232 18.8868 92.0698 18.3735 92.0698 17.8001C92.0698 17.0801 92.2498 16.5135 92.6098 16.1001C92.9832 15.6868 93.5898 15.3868 94.4298 15.2001C95.2832 15.0135 96.4298 14.9201 97.8698 14.9201H98.5498V14.4001C98.5498 13.6401 98.3898 13.0935 98.0698 12.7601C97.7498 12.4268 97.2232 12.2601 96.4898 12.2601C95.9298 12.2601 95.3698 12.3468 94.8098 12.5201C94.2498 12.6801 93.6765 12.9401 93.0898 13.3001L92.4698 11.8801C92.9765 11.5201 93.6098 11.2335 94.3698 11.0201C95.1298 10.8068 95.8565 10.7001 96.5498 10.7001C97.8832 10.7001 98.8698 11.0201 99.5098 11.6601C100.15 12.2868 100.47 13.2735 100.47 14.6201V20.6401H98.5698V19.0201C98.3298 19.5801 97.9565 20.0201 97.4498 20.3401C96.9432 20.6601 96.3365 20.8201 95.6298 20.8201ZM96.0298 19.3801C96.7498 19.3801 97.3498 19.1268 97.8298 18.6201C98.3098 18.1135 98.5498 17.4735 98.5498 16.7001V16.1601H97.8898C96.9165 16.1601 96.1498 16.2068 95.5898 16.3001C95.0432 16.3935 94.6498 16.5535 94.4098 16.7801C94.1832 16.9935 94.0698 17.2935 94.0698 17.6801C94.0698 18.1868 94.2432 18.6001 94.5898 18.9201C94.9365 19.2268 95.4165 19.3801 96.0298 19.3801ZM106.432 20.8201C105.365 20.8201 104.565 20.5201 104.032 19.9201C103.512 19.3201 103.252 18.4401 103.252 17.2801V6.54014H105.272V17.1601C105.272 18.4801 105.812 19.1401 106.892 19.1401C107.052 19.1401 107.199 19.1335 107.332 19.1201C107.479 19.1068 107.625 19.0801 107.772 19.0401L107.732 20.6601C107.279 20.7668 106.845 20.8201 106.432 20.8201ZM113.848 20.8201C112.248 20.8201 110.988 20.3735 110.068 19.4801C109.148 18.5735 108.688 17.3401 108.688 15.7801C108.688 14.7801 108.888 13.9001 109.288 13.1401C109.701 12.3668 110.268 11.7668 110.988 11.3401C111.708 10.9135 112.534 10.7001 113.468 10.7001C114.814 10.7001 115.874 11.1335 116.648 12.0001C117.421 12.8535 117.808 14.0335 117.808 15.5401V16.2201H110.648C110.794 18.2468 111.868 19.2601 113.868 19.2601C114.428 19.2601 114.974 19.1735 115.508 19.0001C116.054 18.8268 116.568 18.5401 117.048 18.1401L117.648 19.5401C117.208 19.9401 116.641 20.2535 115.948 20.4801C115.254 20.7068 114.554 20.8201 113.848 20.8201ZM113.548 12.1201C112.708 12.1201 112.041 12.3801 111.548 12.9001C111.054 13.4201 110.754 14.1135 110.648 14.9801H116.108C116.068 14.0735 115.828 13.3735 115.388 12.8801C114.948 12.3735 114.334 12.1201 113.548 12.1201Z" fill="white"/>
</svg>
