<svg width="187" height="49" viewBox="0 0 187 49" fill="none" xmlns="http://www.w3.org/2000/svg">
<path d="M23.9553 0.729492C10.7256 0.729492 0 11.4537 0 24.6848C0 37.9159 10.7256 48.6401 23.9553 48.6401C37.185 48.6401 47.9106 37.9145 47.9106 24.6848C47.9106 11.4551 37.185 0.729492 23.9553 0.729492ZM23.9553 45.5642C20.1914 45.5642 17.1398 43.0501 17.1398 39.9484H30.7708C30.7708 43.0487 27.7178 45.5642 23.9553 45.5642ZM35.2127 38.0893H12.695V34.0043H35.1984V38.0893H35.2127ZM35.1324 31.9045H12.761L12.5388 31.6465C10.234 28.8472 9.69076 27.3866 9.16473 25.8988C9.15613 25.8501 11.9597 26.4722 13.9478 26.9194C14.7835 27.1068 15.6232 27.2764 16.4661 27.4282C15.0299 25.7455 14.1771 23.6055 14.1771 21.4182C14.1771 16.6166 17.8608 12.4198 16.5306 9.02849C17.8235 9.13313 19.2067 11.7576 19.2998 15.8612C20.6758 13.962 21.2492 10.4919 21.2492 8.36486C21.2492 6.16183 22.7011 3.60333 24.1517 3.51589C22.8574 5.64869 24.4871 7.47763 25.9347 12.0127C26.4794 13.7184 26.4077 16.585 26.8277 18.4011C26.9667 14.6242 27.616 9.11306 30.0126 7.21246C28.9562 9.60613 30.1702 12.6061 30.9987 14.0466C32.3374 16.3715 33.1487 18.1316 33.1487 21.4655C33.1487 23.7015 32.3245 25.8028 30.9328 27.4468C32.5152 27.1501 33.6074 26.8821 33.6074 26.8821L38.7444 25.8788C38.7444 25.8788 37.9991 28.9461 35.1296 31.9045H35.1324Z" fill="white"/>
<path d="M55.957 18.3722C57.0722 18.1858 58.5327 18.0282 60.3903 18.0282C62.6736 18.0282 64.3463 18.5585 65.407 19.5145C66.363 20.3645 66.9736 21.6645 66.9736 23.2584C66.9736 24.8781 66.4963 26.1537 65.5933 27.0811C64.3463 28.3826 62.3827 29.0448 60.1237 29.0448C59.4329 29.0448 58.7965 29.0161 58.2647 28.9014V36.0681H55.9714L55.957 18.3722ZM58.2504 27.0008C58.7549 27.1341 59.3927 27.1872 60.1624 27.1872C62.9503 27.1872 64.6488 25.8069 64.6488 23.3888C64.6488 20.9995 62.9503 19.8585 60.4276 19.8585C59.4185 19.8585 58.6503 19.9388 58.2489 20.0449L58.2504 27.0008ZM69.5637 27.213L69.4576 23.2039H71.5015L71.6076 25.7524H71.6879C72.2727 24.0267 73.706 22.9373 75.2712 22.9373C75.5106 22.9373 75.6955 22.966 75.909 22.9904V25.1934C75.6697 25.1404 75.4317 25.1404 75.1121 25.1404C73.4666 25.1404 72.2985 26.3616 71.9788 28.1145C71.9237 28.475 71.8969 28.8392 71.8986 29.2039V36.0552H69.5622V27.2144L69.5637 27.213ZM89.6217 29.5063C89.6217 34.2592 86.3036 36.329 83.2233 36.329C79.7719 36.329 77.0643 33.7805 77.0643 29.7184C77.0643 25.4442 79.9052 22.9216 83.4369 22.9216C87.1277 22.9216 89.6232 25.6019 89.6232 29.5063H89.6217ZM79.4537 29.6396C79.4537 32.4547 81.0303 34.5774 83.3294 34.5774C85.5597 34.5774 87.2324 32.4805 87.2324 29.5866C87.2324 27.4079 86.143 24.6745 83.3824 24.6745C80.6476 24.6745 79.4551 27.223 79.4551 29.6396H79.4537ZM92.5715 26.664L92.4655 23.1867H94.5094L94.6155 25.2837H94.6957C95.4124 24.0625 96.6078 22.9187 98.7578 22.9187C100.484 22.9187 101.811 23.9794 102.37 25.4944H102.423C102.78 24.8358 103.279 24.2646 103.883 23.8217C104.653 23.2383 105.46 22.9187 106.697 22.9187C108.423 22.9187 110.945 24.0338 110.945 28.5087V36.048H108.662V28.8011C108.662 26.3071 107.73 24.8451 105.874 24.8451C104.52 24.8451 103.509 25.8269 103.086 26.9421C102.967 27.3201 102.904 27.7138 102.9 28.1102V36.048H100.615V28.351C100.615 26.3071 99.7124 24.8465 97.9351 24.8465C96.5017 24.8465 95.4124 26.0147 95.0397 27.1829C94.9064 27.5011 94.8534 27.9282 94.8534 28.3252V36.0652H92.5701V26.6912L92.5715 26.664ZM116.017 30.0395C116.07 33.1986 118.06 34.5 120.424 34.5C122.097 34.5 123.147 34.2076 123.982 33.8364L124.406 35.5091C123.583 35.8818 122.15 36.3318 120.106 36.3318C116.15 36.3318 113.788 33.7031 113.788 29.8274C113.788 25.9516 116.071 22.9244 119.815 22.9244C124.036 22.9244 125.125 26.588 125.125 28.9516C125.133 29.3164 125.106 29.6811 125.045 30.0409L116.017 30.0395ZM122.868 28.3668C122.897 26.9048 122.257 24.5971 119.629 24.5971C117.239 24.5971 116.232 26.7471 116.045 28.3668H122.868ZM130.83 20.1108V23.1925H134.175V24.9698H130.83V31.9C130.83 33.4766 131.282 34.394 132.583 34.394C133.221 34.394 133.592 34.3409 133.938 34.2506L134.044 36.028C133.592 36.1713 132.875 36.3462 131.972 36.3462C130.883 36.3462 130.009 35.9735 129.45 35.3643C128.812 34.6477 128.547 33.5053 128.547 31.9917V24.9684H126.559V23.191H128.565V20.8174L130.83 20.1108ZM136.807 17.1768H139.143V25.2221H139.196C139.591 24.5223 140.169 23.9438 140.869 23.5494C141.596 23.1312 142.42 22.9112 143.259 22.9115C144.984 22.9115 147.745 23.9722 147.745 28.3811V36.0265H145.409V28.6578C145.409 26.5866 144.639 24.8594 142.434 24.8594C140.921 24.8594 139.754 25.9201 139.301 27.1528C139.169 27.4968 139.158 27.8436 139.158 28.2679V36.0079H136.821V17.1911L136.807 17.1768ZM152.843 30.0252C152.896 33.1842 154.887 34.4857 157.251 34.4857C158.923 34.4857 159.974 34.1933 160.808 33.8221L161.233 35.4948C160.41 35.8674 158.976 36.3175 156.933 36.3175C152.977 36.3175 150.626 33.6888 150.626 29.813C150.626 25.9373 152.909 22.9101 156.653 22.9101C160.874 22.9101 161.964 26.5737 161.964 28.9373C161.972 29.3021 161.945 29.6669 161.883 30.0266L152.843 30.0252ZM159.695 28.3525C159.723 26.8905 159.084 24.5828 156.455 24.5828C154.066 24.5828 153.058 26.7328 152.872 28.3525H159.695ZM175.596 32.5235L175.702 36.0552H173.629L173.496 33.9582H173.429C172.844 34.9931 171.465 36.3476 169.18 36.3476C167.162 36.3476 164.747 35.2052 164.747 30.7189V23.2054H167.083V30.2932C167.083 32.7356 167.853 34.4069 169.95 34.4069C171.517 34.4069 172.605 33.3175 173.032 32.2569C173.178 31.8755 173.25 31.4698 173.244 31.0615V23.2025H175.58L175.596 32.5235ZM179.155 33.6902C179.872 34.1145 181.093 34.5932 182.261 34.5932C183.934 34.5932 184.729 33.7705 184.729 32.6811C184.729 31.566 184.066 30.9826 182.364 30.3448C180.028 29.4948 178.924 28.2478 178.924 26.707C178.924 24.6358 180.623 22.9373 183.357 22.9373C184.659 22.9373 185.8 23.2813 186.491 23.7343L185.917 25.4328C185.413 25.1146 184.484 24.6631 183.289 24.6631C181.908 24.6631 181.164 25.46 181.164 26.416C181.164 27.4767 181.907 27.9554 183.58 28.6191C185.783 29.4418 186.951 30.5569 186.951 32.469C186.951 34.7523 185.173 36.3447 182.172 36.3447C180.765 36.3447 179.449 35.9721 178.56 35.4417L179.155 33.6902Z" fill="white"/>
</svg>
