<svg width="122" height="48" viewBox="0 0 122 48" fill="none" xmlns="http://www.w3.org/2000/svg">
<path d="M57.64 30.6396V16.5396H63.48C65 16.5396 66.1733 16.9196 67 17.6796C67.8267 18.4263 68.24 19.4796 68.24 20.8396C68.24 22.213 67.8267 23.2796 67 24.0396C66.1733 24.7863 65 25.1596 63.48 25.1596H59.72V30.6396H57.64ZM59.72 23.4996H63.18C65.2067 23.4996 66.22 22.613 66.22 20.8396C66.22 19.0796 65.2067 18.1996 63.18 18.1996H59.72V23.4996ZM71.2911 34.2396L73.0311 30.3796L68.9511 20.8796H71.1111L74.1111 28.2996L77.1511 20.8796H79.2311L73.4111 34.2396H71.2911ZM85.0761 30.8196C83.8494 30.8196 82.9361 30.5063 82.3361 29.8796C81.7361 29.253 81.4361 28.3463 81.4361 27.1596V22.4396H79.5361V20.8796H81.4361V17.9396H83.4561V20.8796H86.4761V22.4396H83.4561V26.9996C83.4561 27.7063 83.6028 28.2396 83.8961 28.5996C84.2028 28.9596 84.6961 29.1396 85.3761 29.1396C85.5894 29.1396 85.7961 29.1196 85.9961 29.0796C86.1961 29.0263 86.3961 28.9663 86.5961 28.8996L86.9161 30.4196C86.7161 30.5396 86.4361 30.633 86.0761 30.6996C85.7294 30.7796 85.3961 30.8196 85.0761 30.8196ZM88.2208 30.6396V16.5396H90.2408V22.3996C90.5741 21.8396 91.0208 21.4196 91.5808 21.1396C92.1541 20.8463 92.7941 20.6996 93.5008 20.6996C95.8074 20.6996 96.9608 22.0063 96.9608 24.6196V30.6396H94.9408V24.7396C94.9408 23.8996 94.7741 23.2863 94.4408 22.8996C94.1208 22.513 93.6141 22.3196 92.9208 22.3196C92.1074 22.3196 91.4541 22.5796 90.9608 23.0996C90.4808 23.6063 90.2408 24.2796 90.2408 25.1196V30.6396H88.2208ZM103.984 30.8196C102.998 30.8196 102.144 30.613 101.424 30.1996C100.704 29.7863 100.144 29.2063 99.7442 28.4596C99.3576 27.6996 99.1642 26.7996 99.1642 25.7596C99.1642 24.7196 99.3576 23.8263 99.7442 23.0796C100.144 22.3196 100.704 21.733 101.424 21.3196C102.144 20.9063 102.998 20.6996 103.984 20.6996C104.944 20.6996 105.784 20.9063 106.504 21.3196C107.224 21.733 107.784 22.3196 108.184 23.0796C108.584 23.8263 108.784 24.7196 108.784 25.7596C108.784 26.7996 108.584 27.6996 108.184 28.4596C107.784 29.2063 107.224 29.7863 106.504 30.1996C105.784 30.613 104.944 30.8196 103.984 30.8196ZM103.984 29.2596C104.811 29.2596 105.478 28.9596 105.984 28.3596C106.491 27.7596 106.744 26.893 106.744 25.7596C106.744 24.6263 106.491 23.7663 105.984 23.1796C105.478 22.5796 104.811 22.2796 103.984 22.2796C103.144 22.2796 102.471 22.5796 101.964 23.1796C101.458 23.7663 101.204 24.6263 101.204 25.7596C101.204 26.893 101.458 27.7596 101.964 28.3596C102.471 28.9596 103.144 29.2596 103.984 29.2596ZM111.053 30.6396V20.8796H113.013V22.4996C113.346 21.913 113.799 21.4663 114.373 21.1596C114.959 20.853 115.613 20.6996 116.333 20.6996C118.639 20.6996 119.793 22.0063 119.793 24.6196V30.6396H117.773V24.7396C117.773 23.8996 117.606 23.2863 117.273 22.8996C116.953 22.513 116.446 22.3196 115.753 22.3196C114.939 22.3196 114.286 22.5796 113.793 23.0996C113.313 23.6063 113.073 24.2796 113.073 25.1196V30.6396H111.053Z" fill="white"/>
<path d="M12.3908 6.92864C12.3908 3.69283 13.2783 1.93254 18.1784 1.09431C21.5051 0.524247 25.7706 0.452989 29.7494 1.09431C32.8919 1.60143 35.537 3.88998 35.537 6.92864V17.6042C35.537 20.7353 32.969 23.3001 29.7494 23.3001H18.1784C14.2513 23.3001 10.9416 26.5737 10.9416 30.2746V35.3965H6.96301C3.59765 35.3965 1.63825 33.0241 0.815135 29.7045C-0.29515 25.2447 -0.248018 22.5875 0.815135 18.3163C1.73689 14.5903 4.68219 12.6243 8.04779 12.6243H23.9659V11.1991H12.3905V6.92841L12.3908 6.92864Z" fill="white"/>
<path d="M35.5368 41.0929C35.5368 44.3287 32.6644 45.9676 29.7492 46.785C25.3635 48.0172 21.8436 47.8286 18.1782 46.785C15.117 45.9132 12.3906 44.1318 12.3906 41.0929V30.4173C12.3906 27.3449 15.0101 24.7215 18.1782 24.7215H29.7492C33.6034 24.7215 36.986 21.465 36.986 17.6045V12.625H41.3246C44.6944 12.625 46.2808 15.0727 47.1122 18.3171C48.2696 22.8229 48.3211 26.1927 47.1122 29.7052C45.9419 33.117 44.69 35.3973 41.3246 35.3973H23.9658V36.8224H35.5368V41.0931V41.0929Z" fill="white"/>
<path d="M15.2842 6.22025C15.2842 5.03832 16.2531 4.08252 17.4537 4.08252C18.6498 4.08252 19.6233 5.03808 19.6233 6.22025C19.6233 7.39838 18.65 8.3537 17.4537 8.3537C16.2536 8.3537 15.2842 7.39814 15.2842 6.22025ZM28.3039 41.8011C28.3039 40.623 29.2772 39.6676 30.4735 39.6676C31.6736 39.6676 32.643 40.6232 32.643 41.8011C32.643 42.983 31.6741 43.9388 30.4735 43.9388C29.2774 43.9388 28.3039 42.9832 28.3039 41.8011Z" fill="white"/>
</svg>
