<svg width="90" height="41" viewBox="0 0 90 41" fill="none" xmlns="http://www.w3.org/2000/svg">
<path d="M49.64 27.0479V12.9479H55.48C57 12.9479 58.1733 13.3145 59 14.0479C59.8267 14.7679 60.24 15.7812 60.24 17.0879C60.24 18.1412 59.96 19.0079 59.4 19.6879C58.84 20.3545 58.0467 20.8012 57.02 21.0279C57.66 21.2412 58.2 21.7545 58.64 22.5679L61.08 27.0479H58.8L56.36 22.5479C56.08 22.0279 55.7533 21.6812 55.38 21.5079C55.02 21.3212 54.5533 21.2279 53.98 21.2279H51.72V27.0479H49.64ZM51.72 19.6679H55.14C57.1933 19.6679 58.22 18.8212 58.22 17.1279C58.22 15.4479 57.1933 14.6079 55.14 14.6079H51.72V19.6679ZM66.4352 27.2279C64.0752 27.2279 62.8952 25.9145 62.8952 23.2879V17.2879H64.9152V23.3079C64.9152 24.0945 65.0752 24.6745 65.3952 25.0479C65.7152 25.4212 66.2218 25.6079 66.9152 25.6079C67.6752 25.6079 68.2885 25.3545 68.7552 24.8479C69.2352 24.3412 69.4752 23.6612 69.4752 22.8079V17.2879H71.4952V27.0479H69.5352V25.4879C69.2152 26.0612 68.7885 26.4945 68.2552 26.7879C67.7218 27.0812 67.1152 27.2279 66.4352 27.2279ZM77.7619 27.2279C76.9619 27.2279 76.2152 27.1279 75.5219 26.9279C74.8285 26.7145 74.2485 26.4212 73.7819 26.0479L74.3619 24.6879C74.8552 25.0345 75.3952 25.3012 75.9819 25.4879C76.5819 25.6745 77.1819 25.7679 77.7819 25.7679C78.4885 25.7679 79.0219 25.6412 79.3819 25.3879C79.7419 25.1345 79.9219 24.7945 79.9219 24.3679C79.9219 24.0212 79.8019 23.7545 79.5619 23.5679C79.3219 23.3679 78.9619 23.2145 78.4819 23.1079L76.5819 22.7279C74.9019 22.3812 74.0619 21.5145 74.0619 20.1279C74.0619 19.2079 74.4285 18.4745 75.1619 17.9279C75.8952 17.3812 76.8552 17.1079 78.0419 17.1079C78.7219 17.1079 79.3685 17.2079 79.9819 17.4079C80.6085 17.6079 81.1285 17.9079 81.5419 18.3079L80.9619 19.6679C80.5619 19.3212 80.1019 19.0545 79.5819 18.8679C79.0619 18.6812 78.5485 18.5879 78.0419 18.5879C77.3485 18.5879 76.8219 18.7212 76.4619 18.9879C76.1019 19.2412 75.9219 19.5879 75.9219 20.0279C75.9219 20.6945 76.3619 21.1212 77.2419 21.3079L79.1419 21.6879C80.0085 21.8612 80.6619 22.1545 81.1019 22.5679C81.5552 22.9812 81.7819 23.5412 81.7819 24.2479C81.7819 25.1812 81.4152 25.9145 80.6819 26.4479C79.9485 26.9679 78.9752 27.2279 77.7619 27.2279ZM88.0917 27.2279C86.8651 27.2279 85.9517 26.9145 85.3517 26.2879C84.7517 25.6612 84.4517 24.7545 84.4517 23.5679V18.8479H82.5517V17.2879H84.4517V14.3479H86.4717V17.2879H89.4917V18.8479H86.4717V23.4079C86.4717 24.1145 86.6184 24.6479 86.9117 25.0079C87.2184 25.3679 87.7117 25.5479 88.3917 25.5479C88.6051 25.5479 88.8117 25.5279 89.0117 25.4879C89.2117 25.4345 89.4117 25.3745 89.6117 25.3079L89.9317 26.8279C89.7317 26.9479 89.4517 27.0412 89.0917 27.1079C88.7451 27.1879 88.4117 27.2279 88.0917 27.2279Z" fill="white"/>
<path d="M20.7319 1.04785C10.6214 1.04785 2.39258 9.17634 2.39258 19.155C2.39258 29.1336 10.6253 37.2621 20.7319 37.2621C30.8385 37.2621 39.0712 29.1336 39.0712 19.155C39.0712 9.17634 30.8385 1.04785 20.7319 1.04785ZM20.7047 2.65669C21.0183 2.66471 21.3163 2.79376 21.5352 3.01631C21.754 3.23886 21.8765 3.5373 21.8764 3.848C21.8764 4.16396 21.7493 4.46697 21.523 4.69039C21.2967 4.9138 20.9898 5.03931 20.6698 5.03931C20.3498 5.03931 20.0429 4.9138 19.8166 4.69039C19.5903 4.46697 19.4632 4.16396 19.4632 3.848C19.4631 3.68862 19.4955 3.53083 19.5583 3.384C19.6211 3.23717 19.7131 3.10428 19.8289 2.99319C19.9446 2.88211 20.0818 2.79509 20.2322 2.73729C20.3827 2.67949 20.5433 2.65208 20.7047 2.65669ZM23.467 4.61795C25.5852 5.00967 27.5916 5.85195 29.347 7.08628C31.1023 8.32062 32.5644 9.91743 33.6318 11.7658L32.208 14.9375C31.9636 15.4853 32.2157 16.1288 32.7667 16.374L35.5057 17.573C35.5907 18.4183 35.6011 19.2693 35.5368 20.1165H34.012C33.8607 20.1165 33.7987 20.2161 33.7987 20.3616V21.0511C33.7987 22.6753 32.8714 23.0315 32.0567 23.1196C31.2807 23.2077 30.4233 22.7979 30.3147 22.3305C29.8569 19.7909 29.0965 19.2508 27.8938 18.3123C29.3875 17.3776 30.9393 15.9948 30.9393 14.1484C30.9393 12.1527 29.5543 10.8963 28.6115 10.2795C27.2847 9.41766 25.8181 9.24529 25.4224 9.24529H9.67087C11.8489 6.84291 14.7684 5.21652 17.9773 4.61795L19.8357 6.5409C20.2547 6.97376 20.9491 6.99291 21.3875 6.57538L23.467 4.61795ZM6.31882 13.4359C6.63274 13.4449 6.93074 13.5744 7.14952 13.7968C7.3683 14.0193 7.49062 14.3172 7.49049 14.6273C7.49049 14.9432 7.36337 15.2462 7.13709 15.4696C6.91081 15.693 6.60391 15.8186 6.28391 15.8186C5.9639 15.8186 5.657 15.693 5.43072 15.4696C5.20444 15.2462 5.07732 14.9432 5.07732 14.6273C5.07726 14.4679 5.10958 14.3101 5.17239 14.1633C5.2352 14.0164 5.32721 13.8835 5.44298 13.7724C5.55874 13.6614 5.69591 13.5743 5.84635 13.5165C5.9968 13.4587 6.15746 13.4313 6.31882 13.4359ZM35.0867 13.4896C35.4006 13.4985 35.6986 13.628 35.9174 13.8505C36.1362 14.0729 36.2585 14.3708 36.2584 14.6809C36.2584 14.9968 36.1313 15.2998 35.905 15.5233C35.6787 15.7467 35.3718 15.8722 35.0518 15.8722C34.7318 15.8722 34.4249 15.7467 34.1986 15.5233C33.9723 15.2998 33.8452 14.9968 33.8452 14.6809C33.8451 14.5215 33.8775 14.3637 33.9403 14.2169C34.0031 14.07 34.0951 13.9372 34.2109 13.8261C34.3266 13.715 34.4638 13.628 34.6142 13.5702C34.7647 13.5124 34.9254 13.485 35.0867 13.4896ZM8.59232 13.6811H10.6951V23.043H6.45073C5.92654 21.2256 5.76318 19.3252 5.96965 17.4466L8.56904 16.305C9.12384 16.0599 9.37602 15.4202 9.12772 14.8724L8.59232 13.6811ZM17.3682 13.7807H22.3769C22.6368 13.7807 24.2042 14.0756 24.2042 15.2363C24.2042 16.1978 23.0015 16.5425 22.0122 16.5425H17.3643L17.3682 13.7807ZM17.3682 20.5072H21.2052C21.5544 20.5072 23.0791 20.6068 23.564 22.5297C23.7153 23.1196 24.0529 25.0426 24.2818 25.6593C24.5107 26.3488 25.4379 27.7278 26.4272 27.7278H32.6891C32.2694 28.2827 31.8105 28.8075 31.3157 29.2984L28.7667 28.7583C28.1731 28.6318 27.5873 29.0072 27.4592 29.5933L26.854 32.382C24.9078 33.2525 22.7942 33.6979 20.6576 33.688C18.521 33.6781 16.4118 33.213 14.4739 32.3245L13.8687 29.5359C13.7407 28.9498 13.1587 28.5744 12.5651 28.7008L10.0705 29.2294C9.60755 28.7579 9.17723 28.2563 8.78242 27.7278H20.9142C21.05 27.7278 21.1431 27.7048 21.1431 27.5784V23.3418C21.1431 23.2192 21.05 23.1924 20.9142 23.1924H17.3643L17.3682 20.5072ZM11.7698 30.21C12.0837 30.219 12.3817 30.3485 12.6005 30.5709C12.8193 30.7934 12.9416 31.0913 12.9415 31.4014C12.9415 31.7173 12.8143 32.0203 12.588 32.2437C12.3618 32.4672 12.0549 32.5927 11.7349 32.5927C11.4149 32.5927 11.108 32.4672 10.8817 32.2437C10.6554 32.0203 10.5283 31.7173 10.5283 31.4014C10.5282 31.242 10.5605 31.0842 10.6234 30.9374C10.6862 30.7905 10.7782 30.6576 10.8939 30.5465C11.0097 30.4355 11.1469 30.3484 11.2973 30.2906C11.4478 30.2328 11.6084 30.2054 11.7698 30.21ZM29.6357 30.2637C29.9497 30.2726 30.2477 30.4021 30.4664 30.6246C30.6852 30.847 30.8075 31.1449 30.8074 31.455C30.8074 31.7709 30.6803 32.074 30.454 32.2974C30.2277 32.5208 29.9208 32.6463 29.6008 32.6463C29.2808 32.6463 28.9739 32.5208 28.7477 32.2974C28.5214 32.074 28.3943 31.7709 28.3943 31.455C28.3942 31.2956 28.4265 31.1378 28.4893 30.991C28.5521 30.8442 28.6441 30.7113 28.7599 30.6002C28.8757 30.4891 29.0128 30.4021 29.1633 30.3443C29.3137 30.2865 29.4744 30.2591 29.6357 30.2637Z" fill="white"/>
<path fill-rule="evenodd" clip-rule="evenodd" d="M37.6485 20.5478C37.6485 25.0959 35.8418 29.4577 32.6258 32.6737C29.4098 35.8896 25.0481 37.6963 20.5 37.6963C15.9519 37.6963 11.5902 35.8896 8.3742 32.6737C5.15824 29.4577 3.35153 25.0959 3.35153 20.5478C3.35153 15.9998 5.15824 11.638 8.3742 8.42205C11.5902 5.20609 15.9519 3.39938 20.5 3.39938C25.0481 3.39938 29.4098 5.20609 32.6258 8.42205C35.8418 11.638 37.6485 15.9998 37.6485 20.5478ZM37.3257 18.8918L40 20.5478L37.3257 22.2039L39.6235 24.3518L36.6802 25.4546L38.5168 28.0097L35.4084 28.5169L36.7148 31.3833L33.5679 31.2719L34.2902 34.3381L31.224 33.6157L31.3355 36.7626L28.4691 35.4562L27.9619 38.5647L25.4067 36.7281L24.3039 39.6713L22.1561 37.3736L20.5 40.0479L18.8439 37.3736L16.6961 39.6713L15.5933 36.7281L13.0381 38.5647L12.5309 35.4562L9.66453 36.7626L9.77596 33.6157L6.70975 34.3381L7.43212 31.2719L4.28522 31.3833L5.59163 28.5169L2.48315 28.0097L4.3198 25.4546L1.37655 24.3518L3.67429 22.2039L1 20.5478L3.67429 18.8918L1.37655 16.7439L4.3198 15.6412L2.48315 13.086L5.59163 12.5788L4.28522 9.71238L7.43212 9.82381L6.70975 6.75761L9.77596 7.47997L9.66453 4.33307L12.5309 5.63948L13.0381 2.531L15.5933 4.36765L16.6961 1.4244L18.8439 3.72214L20.5 1.04785L22.1561 3.72214L24.3039 1.4244L25.4067 4.36765L27.9619 2.531L28.4691 5.63948L31.3355 4.33307L31.224 7.47997L34.2902 6.75761L33.5679 9.82381L36.7148 9.71238L35.4084 12.5788L38.5168 13.086L36.6802 15.6412L39.6235 16.7439L37.3257 18.8918Z" fill="white" stroke="white" stroke-linecap="round" stroke-linejoin="round"/>
</svg>
