<svg width="83" height="84" viewBox="0 0 83 84" fill="none" xmlns="http://www.w3.org/2000/svg">
<path d="M21.1343 53.2371C20.0609 52.8622 19.2665 52.2921 18.7913 51.5377C17.8996 50.1209 18.1688 48.1416 19.5697 45.8139L19.5993 45.7647L38.442 40.3904C39.8954 39.9552 41.2766 39.3061 42.5404 38.4645L54.8881 30.2414C57.3359 28.6111 60.3897 27.6407 61.8404 28.0321C62.2158 28.1331 62.4739 28.3211 62.6054 28.5899C63.7207 30.8645 62.1091 34.4026 58.184 38.2969C50.6095 45.812 36.5886 52.7038 26.9289 53.6596C24.5535 53.8945 22.5882 53.7449 21.1343 53.2371ZM19.7892 46.0128C18.4744 48.2181 18.2143 50.0738 19.0374 51.3817C20.0941 53.0608 22.8867 53.7666 26.9008 53.3694C36.5036 52.4197 50.4457 45.5652 57.9798 38.0899C61.8102 34.2893 63.401 30.8739 62.3446 28.7184C62.2514 28.5283 62.0567 28.3921 61.7644 28.3133C60.3849 27.9411 57.435 28.8946 55.0486 30.4838L42.7009 38.7071C41.412 39.565 40.0035 40.2266 38.5213 40.6702L19.7892 46.0128Z" fill="url(#paint0_linear_419_3939)"/>
<path d="M20.332 53.142C19.0535 52.6954 18.1376 52.0095 17.644 51.1043C16.7713 49.5045 17.2321 47.3302 18.9765 44.8163L19.0086 44.7702L38.5242 40.2537C39.9143 39.9319 41.4934 39.277 42.8568 38.4568L56.1867 30.4383C58.827 28.8502 61.9881 28.0014 63.4157 28.5283C63.785 28.6634 64.0236 28.8832 64.1251 29.1817C64.98 31.6958 62.9597 35.3859 58.5826 39.3059C50.1231 46.882 35.2686 53.3547 25.469 53.7347C23.4054 53.8144 21.67 53.6094 20.332 53.142ZM19.1831 45.0285C17.5324 47.426 17.0879 49.4773 17.8989 50.9642C18.8539 52.715 21.5384 53.5956 25.4583 53.4437C35.2001 53.066 49.9727 46.6265 58.3889 39.089C62.6747 35.2508 64.6652 31.6742 63.8499 29.2762C63.7781 29.065 63.5981 28.9055 63.3154 28.8019C61.9805 28.3198 58.9092 29.1399 56.3359 30.6881L43.006 38.7064L42.9315 38.5816L43.006 38.7064C41.6177 39.5417 40.0077 40.2091 38.5889 40.5375L19.1831 45.0285Z" fill="url(#paint1_linear_419_3939)"/>
<path d="M19.5978 53.0268C18.0841 52.498 17.0469 51.6753 16.5347 50.5791C15.6933 48.7779 16.3711 46.4009 18.495 43.7048L18.5289 43.661L38.6221 40.1124C40.0531 39.8596 41.7125 39.2613 43.1749 38.4699L57.4665 30.7377C60.2798 29.2154 63.5559 28.5231 64.9254 29.1612C65.2921 29.3321 65.5126 29.5872 65.581 29.9193C66.1481 32.6729 63.701 36.4995 58.8672 40.4179C49.5126 48.0006 33.8694 53.9668 23.9954 53.7174C22.2544 53.6734 20.7807 53.44 19.5978 53.0268ZM18.6887 43.9287C16.6646 46.514 16.0107 48.7701 16.7979 50.4552C17.6483 52.2753 20.2068 53.3304 24.0032 53.4262C33.8179 53.6741 49.376 47.737 58.6843 40.1915C63.4307 36.3442 65.8406 32.6217 65.2961 29.9785C65.2473 29.7414 65.0811 29.5552 64.8024 29.4252C63.5125 28.8235 60.3458 29.5105 57.604 30.9939L43.3124 38.726L43.2435 38.5979L43.3124 38.726C41.8239 39.5313 40.1325 40.1412 38.6719 40.3991L18.6887 43.9287Z" fill="url(#paint2_linear_419_3939)"/>
<path d="M18.9975 52.8854C17.1846 52.2521 15.986 51.2633 15.4724 49.9553C14.6782 47.9329 15.6003 45.3471 18.1388 42.4774L18.1756 42.4359L38.737 39.967C40.2011 39.7911 41.9344 39.2583 43.4921 38.5052L58.7156 31.1457C61.7294 29.6891 65.0144 29.169 66.3554 29.9343C66.7178 30.1412 66.9254 30.4433 66.9568 30.8083C67.2089 33.8007 64.3183 37.7462 59.0254 41.6328C48.7722 49.1629 32.3953 54.5311 22.5185 53.5998C21.1682 53.4724 19.9903 53.2321 18.9975 52.8854ZM18.3196 42.7119C15.886 45.4774 14.995 47.944 15.7427 49.8482C16.4951 51.7641 18.8479 52.9612 22.5459 53.3097C32.3623 54.2354 48.6499 48.8919 58.8536 41.3982C64.0625 37.573 66.9102 33.7223 66.6667 30.8334C66.6441 30.5646 66.4907 30.3473 66.211 30.1875C64.9656 29.4769 61.7281 30.0123 58.8415 31.408L43.6181 38.7675L43.5551 38.6364L43.6181 38.7675C42.0324 39.5339 40.2659 40.0766 38.771 40.2561L18.3196 42.7119Z" fill="url(#paint3_linear_419_3939)"/>
<path d="M18.5439 52.747C16.36 51.9842 14.9667 50.789 14.4658 49.226C13.74 46.9613 14.9351 44.1631 17.9216 41.1336L17.9607 41.094L38.8691 39.8181C40.3576 39.7272 42.1571 39.2703 43.8063 38.5648L43.8631 38.6987L43.8063 38.5648L59.9215 31.6687C63.0617 30.3248 66.4011 29.9728 67.6908 30.852C68.0575 31.1019 68.2454 31.4487 68.234 31.8553C68.1437 35.0838 64.7943 39.1279 59.045 42.9507C47.8959 50.3635 30.8514 55.0394 21.0497 53.3741C20.1984 53.2352 19.3603 53.0255 18.5439 52.747ZM18.0892 41.3778C15.2536 44.2683 14.065 47.0223 14.7425 49.1366C15.3789 51.1225 17.5764 52.4883 21.0987 53.087C30.838 54.7416 47.7886 50.0857 58.8844 42.7081C64.554 38.9385 67.8561 34.9797 67.9433 31.8476C67.9517 31.5412 67.812 31.2869 67.5271 31.093C66.3342 30.2799 63.0423 30.6498 60.035 31.9366L43.9199 38.8326C42.2414 39.5508 40.4068 40.016 38.8862 40.1087L18.0892 41.3778Z" fill="url(#paint4_linear_419_3939)"/>
<path d="M18.266 52.6331C15.6202 51.7088 13.9915 50.2553 13.5251 48.3836C12.9041 45.8912 14.4428 42.7982 17.8575 39.6739L17.899 39.6355L39.0188 39.6665C40.5219 39.6688 42.3791 39.2982 44.114 38.6498L61.0711 32.3125C64.3102 31.1017 67.6842 30.9316 68.9165 31.9164C69.0929 32.0461 69.2307 32.2215 69.3151 32.4238C69.3995 32.6262 69.4273 32.8478 69.3956 33.065C68.9352 36.5252 65.1149 40.6456 58.914 44.3696C46.8796 51.5965 29.244 55.4826 19.6019 53.0326C19.1313 52.913 18.686 52.7798 18.266 52.6331ZM18.0114 39.9272C14.7089 42.9623 13.2156 45.939 13.8072 48.3127C14.3198 50.3708 16.349 51.9054 19.6732 52.7502C29.2514 55.184 46.7877 51.3125 58.7648 44.1198C64.8892 40.4418 68.6593 36.3988 69.108 33.0271C69.133 32.8598 69.1115 32.6888 69.0458 32.5331C68.9801 32.3774 68.8728 32.2429 68.7357 32.1444C67.5754 31.2182 64.3241 31.4074 61.1725 32.5853L44.2153 38.9228C42.449 39.583 40.5549 39.9603 39.0183 39.9581L18.0114 39.9272Z" fill="url(#paint5_linear_419_3939)"/>
<path d="M18.1915 52.569L18.1869 52.5674C14.9707 51.4429 13.06 49.6624 12.6613 47.4183C12.1687 44.645 14.0504 41.3356 17.9598 38.0998L18.0047 38.0627L39.1876 39.5146C40.6945 39.6178 42.5991 39.3439 44.4136 38.7628L62.1501 33.0822C65.5132 32.0051 68.8212 32.025 70.0167 33.1301C70.1998 33.2889 70.3348 33.4959 70.4065 33.7277C70.4782 33.9596 70.4837 34.207 70.4224 34.442C69.565 38.1274 65.2631 42.299 58.6195 45.8869C45.7207 52.8536 27.5863 55.8507 18.1915 52.569ZM18.1002 38.3612C14.3055 41.5151 12.4759 44.7119 12.9475 47.367C13.3266 49.5013 15.1715 51.2045 18.2829 52.2924L18.2876 52.294C27.6156 55.5524 45.6445 52.5641 58.4821 45.6308C65.0521 42.0824 69.301 37.9804 70.1392 34.3764C70.1888 34.1915 70.1851 33.9964 70.1285 33.8137C70.0719 33.6311 69.9648 33.4683 69.8195 33.3444C68.7137 32.3222 65.4549 32.3294 62.2383 33.3596L44.5015 39.0398L44.4574 38.9011L44.5015 39.0398C42.6538 39.6315 40.7095 39.9104 39.1676 39.8047L18.1002 38.3612Z" fill="url(#paint6_linear_419_3939)"/>
<path d="M18.3656 52.5921C17.8238 52.4028 17.3087 52.196 16.8204 51.9716C13.8372 50.5982 12.1316 48.6435 11.8874 46.3187C11.5653 43.2455 13.8222 39.7275 18.2425 36.4131L18.2906 36.377L39.3747 39.3611C40.8734 39.5732 42.8144 39.4064 44.7002 38.9032L63.1444 33.9828C66.5476 33.0751 69.8408 33.2904 70.9754 34.4948C71.3685 34.9122 71.4791 35.4293 71.2949 35.9903C70.0139 39.8922 65.223 44.0873 58.1508 47.4998C45.1514 53.7723 27.8553 55.906 18.3656 52.5921ZM18.3687 36.6823C14.0656 39.9219 11.8671 43.332 12.1768 46.2879C12.4092 48.5048 14.0568 50.3786 16.9421 51.7069C25.9183 55.8399 44.3509 53.8357 58.0253 47.2375C65.0265 43.8592 69.7626 39.7268 71.0188 35.8998C71.17 35.4403 71.0839 35.0347 70.7639 34.6949C69.7155 33.5818 66.4718 33.3965 63.2188 34.2643L44.7749 39.1847L44.7378 39.044L44.7749 39.1847C42.8529 39.6975 40.8697 39.867 39.334 39.6497L18.3687 36.6823Z" fill="url(#paint7_linear_419_3939)"/>
<path d="M18.7955 52.732C17.6562 52.3434 16.5582 51.8431 15.5173 51.2383C12.7778 49.6168 11.2918 47.4843 11.22 45.0711C11.1189 41.6832 13.7827 37.9709 18.7202 34.618L18.772 34.5827L39.5816 39.2095C41.0593 39.5383 43.0245 39.4889 44.9729 39.0742L64.0387 35.0186C67.5058 34.2811 70.6872 34.6887 71.7766 36.0112C72.1807 36.5021 72.2557 37.0904 71.9935 37.7127C70.2628 41.8199 64.9787 46.0082 57.4961 49.2036C44.5898 54.715 28.3091 56.0553 18.7955 52.732ZM18.8311 34.8942C14.0118 38.1798 11.4125 41.7889 11.5104 45.062C11.5791 47.3702 13.0159 49.4192 15.6658 50.9876C24.1964 56.0368 42.9106 55.1161 57.3828 48.9358C64.7963 45.7701 70.0242 41.6379 71.7258 37.6002C71.9459 37.0772 71.8878 36.6048 71.5522 36.1971C70.5457 34.9751 67.4112 34.5993 64.0987 35.3039L45.0328 39.3592C43.0451 39.7821 41.035 39.8311 39.5183 39.4939L18.8311 34.8942Z" fill="url(#paint8_linear_419_3939)"/>
<path d="M19.5153 53.0339C17.4845 52.3245 15.7183 51.4339 14.2929 50.3612C11.8053 48.4886 10.5548 46.1707 10.6764 43.6581C10.8561 39.9475 13.9559 36.0626 19.404 32.7187L19.4602 32.6842L39.8067 39.0605C41.2497 39.5126 43.225 39.5913 45.2264 39.276L64.8168 36.193C68.2618 35.6506 71.3811 36.2617 72.402 37.6786C72.817 38.2547 72.8498 38.9227 72.4967 39.6109C70.2914 43.9093 64.513 48.0578 56.6427 50.9923C44.0472 55.6893 28.9499 56.3295 19.5153 53.0339ZM19.4992 33.0016C14.1703 36.2855 11.1411 40.0728 10.9667 43.6718C10.8498 46.0836 12.0605 48.3162 14.4677 50.1282C22.4434 56.1318 41.3176 56.3968 56.5422 50.7196C64.3447 47.8099 70.0664 43.7127 72.2387 39.4781C72.5428 38.8857 72.5184 38.3376 72.1666 37.8495C71.2223 36.5389 68.1499 35.9631 64.8614 36.4806L45.2708 39.5641L45.2483 39.4198L45.2706 39.5636C43.2271 39.8853 41.2037 39.803 39.7195 39.3379L19.4992 33.0016Z" fill="url(#paint9_linear_419_3939)"/>
<path d="M20.5498 53.5464C17.5238 52.4894 14.9887 51.079 13.1649 49.3348C10.9358 47.2024 9.93977 44.687 10.2828 42.0607C10.8097 38.0294 14.37 34.0025 20.3078 30.7215L20.3693 30.6875L40.051 38.9156C41.4446 39.4988 43.4155 39.7154 45.4578 39.5109L65.4627 37.5086C68.8557 37.169 71.8879 37.9863 72.8372 39.4958C73.2616 40.1702 73.2438 40.9276 72.7853 41.6855C70.0825 46.1585 63.8119 50.2316 55.5827 52.8601C43.5286 56.7099 29.7649 56.7653 20.5498 53.5464ZM20.3868 31.0106C14.5687 34.2392 11.0842 38.1749 10.5715 42.0981C10.2407 44.6289 11.2072 47.0585 13.3663 49.1241C20.6739 56.1158 39.5735 57.6679 55.4953 52.5828C63.6581 49.9755 69.8691 45.9489 72.5369 41.535C72.9397 40.8683 72.9581 40.2346 72.5912 39.6515C71.6982 38.2314 68.7785 37.4695 65.4911 37.7986L45.4858 39.8007C43.3974 40.0098 41.3749 39.7849 39.9385 39.1844L20.3868 31.0106Z" fill="url(#paint10_linear_419_3939)"/>
<path d="M21.9002 54.3169C17.6921 52.847 14.2801 50.7677 12.151 48.1544C10.1893 45.7465 9.46977 43.0159 10.0702 40.2578C11.0148 35.9213 15.0535 31.7929 21.4433 28.6334L21.511 28.6002L40.3137 38.7766C41.6433 39.4963 43.5934 39.8616 45.6634 39.779L65.9604 38.9682C69.3238 38.8338 72.1792 39.8354 73.0649 41.4605C73.4947 42.249 73.4158 43.1051 72.8374 43.9364C69.6141 48.565 62.8593 52.5239 54.3045 54.7988C43.0312 57.7959 30.7205 57.3974 21.9002 54.3169ZM21.5043 28.9278C15.2343 32.0428 11.276 36.086 10.3542 40.3194C9.77331 42.9877 10.4724 45.6332 12.3761 47.9699C18.9032 55.9814 37.678 58.918 54.2303 54.5167C62.7199 52.2594 69.4145 48.342 72.5988 43.7694C73.1102 43.0351 73.1828 42.2849 72.8097 41.5999C71.9755 40.0695 69.2275 39.1287 65.9712 39.2586L45.6743 40.0694C43.5535 40.154 41.549 39.776 40.1751 39.0324L21.5043 28.9278Z" fill="url(#paint11_linear_419_3939)"/>
<path d="M23.5289 55.3831C17.9632 53.4389 13.5636 50.5085 11.2696 46.8162C9.58711 44.1082 9.17494 41.1389 10.0779 38.2293C11.5084 33.619 16.0346 29.4404 22.8225 26.4633L22.8965 26.4308L40.5939 38.645C41.8437 39.5076 43.7554 40.0306 45.8394 40.0806L66.2925 40.571C69.5964 40.6501 72.2569 41.8266 73.07 43.5678C73.4995 44.4879 73.3483 45.4532 72.6322 46.3594C68.8697 51.12 61.641 54.9248 52.7998 56.7976C42.5312 58.9728 31.7569 58.2567 23.5289 55.3831ZM22.8645 26.7626C16.1962 29.703 11.7553 33.8037 10.3553 38.3155C9.47829 41.1418 9.87976 44.028 11.5163 46.6619C17.1424 55.717 35.635 60.1362 52.7402 56.5128C61.516 54.6538 68.6834 50.8871 72.4044 46.1784C73.0475 45.3647 73.1867 44.5046 72.8067 43.6912C72.0516 42.0742 69.4307 40.9374 66.2851 40.8616L45.832 40.3713C43.693 40.3202 41.7236 39.7782 40.4288 38.8846L22.8645 26.7626Z" fill="url(#paint12_linear_419_3939)"/>
<path d="M25.3465 56.7638C18.281 54.2957 12.8053 50.3002 10.5386 45.3175C9.15484 42.276 9.08977 39.0399 10.3504 35.9585C12.3284 31.1237 17.337 26.9556 24.4537 24.2212L24.5355 24.1898L40.8905 38.5234C42.0434 39.5338 43.8991 40.2243 45.9815 40.4176L66.4418 42.3182C69.6084 42.6126 72.1182 43.9847 72.8367 45.8146C73.2512 46.8703 73.0068 47.9847 72.1483 48.9522C67.8295 53.8198 60.1432 57.4268 51.0604 58.8482C41.9877 60.2679 32.786 59.3624 25.3465 56.7638ZM24.4756 24.524C17.4781 27.2298 12.5592 31.3274 10.6189 36.0685C9.38949 39.0734 9.45301 42.2298 10.8027 45.1962C15.4063 55.3143 33.4454 61.3094 51.0158 58.5599C60.0334 57.1489 67.6563 53.5759 71.9312 48.7584C72.7244 47.864 72.9438 46.8832 72.5661 45.9211C71.8874 44.1925 69.4733 42.8919 66.4145 42.6077L45.9548 40.7068L45.9681 40.5615L45.9548 40.7068C43.8124 40.5077 41.8969 39.7915 40.6993 38.7419L24.4756 24.524Z" fill="url(#paint13_linear_419_3939)"/>
<path d="M27.2172 58.4559C18.5635 55.4331 11.9755 50.1285 9.97764 43.6572C7.24199 34.7962 13.8206 26.0598 26.3479 21.918L26.438 21.8881L41.2026 38.412C42.2421 39.5753 44.022 40.4415 46.0864 40.7891L66.3923 44.2078C69.4445 44.721 71.7283 46.2498 72.352 48.1954C72.7447 49.4205 72.395 50.668 71.3662 51.708C66.4773 56.6537 58.3543 60.0175 49.0804 60.9368C41.3425 61.7039 33.7 60.7202 27.2172 58.4559ZM26.3482 22.2244C14.0421 26.3245 7.57653 34.8944 10.2553 43.5707C11.9148 48.9462 16.8779 53.6924 24.2304 56.9352C31.5999 60.1856 40.4148 61.5033 49.0521 60.6471C58.2602 59.7344 66.318 56.4016 71.1601 51.5033C72.1219 50.5304 72.4384 49.4176 72.0754 48.2849C71.4939 46.4708 69.2437 44.9832 66.3437 44.4949L46.0378 41.0763L46.0621 40.9327L46.0378 41.0763C43.9093 40.7179 42.0682 39.8178 40.986 38.6065L26.3482 22.2244Z" fill="url(#paint14_linear_419_3939)"/>
<path d="M28.9783 60.435C18.7133 56.8493 11.0509 49.9628 9.60624 41.8348C7.88124 32.1289 15.4788 23.1803 28.5122 19.5673L28.6118 19.5397L41.529 38.314C42.4371 39.6341 44.1209 40.6847 46.15 41.1965L46.1143 41.3378L46.15 41.1965L66.1266 46.2381C68.9972 46.9626 71.0964 48.6752 71.6027 50.7071C71.9556 52.1225 71.481 53.5123 70.2663 54.6205C64.7957 59.6122 56.2622 62.6852 46.8539 63.0518C40.5253 63.2982 34.3901 62.3253 28.9783 60.435ZM28.4896 19.8758C15.6696 23.4643 8.19934 32.2581 9.89232 41.7833C10.9403 47.6797 15.3738 53.12 22.3759 57.102C29.394 61.0929 38.0826 63.102 46.8428 62.7607C56.1839 62.3966 64.65 59.3513 70.0709 54.4053C71.2026 53.3728 71.6463 52.0845 71.3207 50.7781C70.8401 48.8503 68.8223 47.2188 66.0549 46.5206L46.0787 41.479C43.9827 40.9501 42.2371 39.8568 41.2897 38.4796L28.4896 19.8758Z" fill="url(#paint15_linear_419_3939)"/>
<path d="M30.5584 62.6824C26.8435 61.3847 23.3819 59.6053 20.3269 57.3932C13.6882 52.587 9.82318 46.357 9.4431 39.8509C8.82769 29.3035 17.4714 20.194 30.9532 17.1832L31.0625 17.1588L41.8674 38.2301C42.6263 39.7103 44.1953 40.9392 46.1681 41.6394L46.12 41.7769L46.1681 41.6394L65.628 48.4048L65.6422 48.4098C68.3101 49.3417 70.1994 51.2318 70.5758 53.3457C70.8651 54.9718 70.2449 56.511 68.8294 57.6796C62.7696 62.6821 53.8573 65.4149 44.3771 65.1774C39.6687 65.0661 35.0072 64.2244 30.5584 62.6824ZM30.9063 17.4923C17.6322 20.4954 9.12749 29.4632 9.73327 39.8337C10.1079 46.2508 13.9308 52.4032 20.4976 57.1575C27.077 61.9206 35.5601 64.6655 44.3853 64.8866C53.796 65.122 62.6385 62.4134 68.6449 57.4549C69.9756 56.3563 70.5597 54.9152 70.2897 53.3973C69.9321 51.3868 68.115 49.5823 65.5463 48.685L65.5322 48.68L46.0723 41.9146L46.0582 41.9097C44.0209 41.1981 42.3998 39.9063 41.6088 38.3637L30.9063 17.4923Z" fill="url(#paint16_linear_419_3939)"/>
<path d="M31.6373 65.1237C26.6565 63.3838 22.1323 60.7284 18.4111 57.3061C12.304 51.6898 9.1421 44.7299 9.50749 37.7083C10.0997 26.3289 19.8121 17.1157 33.6759 14.7826L33.7951 14.7625L42.2163 38.1618C42.8078 39.8054 44.2366 41.2472 46.1362 42.1178L64.8801 50.7033C67.3866 51.8514 69.0235 53.8727 69.2589 56.1104C69.451 57.9383 68.6415 59.6748 67.0375 60.8744C60.3857 65.8491 51.1318 68.1907 41.6485 67.2988C38.2356 66.9807 34.8741 66.2503 31.6373 65.1237ZM33.6041 15.0902C19.9426 17.433 10.3809 26.5163 9.79781 37.7231C9.43691 44.6563 12.5658 51.5348 18.6078 57.0914C24.6593 62.6567 32.8524 66.1787 41.6765 67.0085C51.0889 67.8938 60.2694 65.5728 66.8642 60.6407C68.4062 59.4876 69.1541 57.8896 68.9701 56.141C68.7458 54.0066 67.1714 52.0731 64.7594 50.9681L46.0153 42.3823C44.0451 41.4798 42.5607 39.9776 41.9431 38.2607L33.6041 15.0902Z" fill="url(#paint17_linear_419_3939)"/>
<path d="M32.2527 67.7485C26.0597 65.5852 20.6044 61.917 16.4984 57.0834C11.0184 50.6321 8.64563 42.935 9.81737 35.4097C11.7156 23.2152 22.5121 13.9611 36.6823 12.3824L36.8114 12.3679L42.5735 38.1106C42.9788 39.9204 44.2459 41.5672 46.0507 42.6305L63.8675 53.1262C66.1577 54.4754 67.567 56.6715 67.6374 59.001C67.6998 61.0673 66.6925 62.9589 64.874 64.1906C57.6307 69.0961 48.0787 70.9938 38.6672 69.3971C36.4865 69.0283 34.3409 68.4768 32.2527 67.7485ZM36.5848 12.6864C22.6101 14.292 11.9768 23.4284 10.1043 35.4541C8.94599 42.894 11.2952 50.5085 16.7197 56.894C22.1499 63.2864 29.9613 67.6246 38.7161 69.1098C48.0546 70.6943 57.5296 68.8131 64.7114 63.9491C66.4457 62.7742 67.4062 60.9744 67.3469 59.0101C67.2796 56.7811 65.9236 54.6753 63.72 53.3772L45.9033 42.8814C44.0296 41.7776 42.7127 40.0621 42.2899 38.1745L36.5848 12.6864Z" fill="url(#paint18_linear_419_3939)"/>
<path d="M32.3649 70.5311C25.0163 67.9641 18.7869 63.1396 14.6053 56.7145C9.85026 49.4084 8.35424 40.9723 10.3914 32.9597C13.6933 19.9749 25.5817 10.7492 39.9739 10.0016L40.1119 9.99444L40.1258 10.1322L42.9376 38.0771C43.1363 40.053 44.2185 41.9117 45.9068 43.1767L62.5746 55.6656C64.6449 57.2169 65.8114 59.593 65.6949 62.0217C65.5842 64.3312 64.3554 66.3692 62.3233 67.6129C54.4949 72.4042 44.6943 73.8048 35.4351 71.4547C34.3923 71.1899 33.3689 70.8821 32.3649 70.5311ZM39.8509 10.3C25.6488 11.0923 13.9328 20.2126 10.673 33.031C8.65584 40.9636 10.1387 49.3179 14.849 56.5551C19.5613 63.7964 26.8991 68.9877 35.5065 71.1721C44.6906 73.5033 54.4099 72.1155 62.172 67.3644C64.1203 66.1718 65.2988 64.2197 65.4046 62.008C65.5165 59.6759 64.3932 57.3921 62.4 55.8987L45.7324 43.41C43.9793 42.0965 42.8553 40.1635 42.6483 38.1067L39.8509 10.3Z" fill="url(#paint19_linear_419_3939)"/>
<path d="M31.9556 73.4511C23.4998 70.4974 16.679 64.3677 12.7494 56.1913C8.8199 48.0149 8.28685 38.843 11.2486 30.3642C13.5829 23.6679 17.9577 17.8729 23.7543 13.7988C29.551 9.72465 36.476 7.57762 43.5501 7.66131L43.6954 7.66294L43.3068 38.0634C43.2946 39.1267 43.5009 40.1808 43.9128 41.1601C44.3246 42.1394 44.9333 43.023 45.7009 43.7559L60.9869 58.3118C61.9072 59.1798 62.6073 60.2556 63.0289 61.4499C63.4506 62.6442 63.5817 63.9226 63.4113 65.1788C63.258 66.4194 62.8116 67.606 62.1092 68.6399C61.4068 69.6739 60.4687 70.5255 59.3727 71.1239C55.2168 73.4135 50.6289 74.8037 45.9059 75.2046C41.183 75.6055 36.4303 75.0081 31.9556 73.4511ZM43.4011 7.95124C36.4123 7.89892 29.5791 10.0419 23.8615 14.079C18.1438 18.1162 13.8289 23.8448 11.5229 30.46C8.58692 38.8648 9.11556 47.9579 13.0114 56.0643C16.9073 64.1706 23.6691 70.2479 32.0517 73.176C36.4879 74.7196 41.1996 75.3118 45.8819 74.9143C50.5642 74.5169 55.1127 73.1386 59.2327 70.8687C60.2884 70.2921 61.1921 69.4718 61.8686 68.4757C62.5452 67.4797 62.9752 66.3367 63.1229 65.1416C63.2871 63.9308 63.1608 62.6987 62.7544 61.5476C62.3481 60.3965 61.6734 59.3596 60.7865 58.5229L45.5005 43.9672C44.704 43.2066 44.0724 42.2898 43.645 41.2736C43.2176 40.2574 43.0035 39.1636 43.0162 38.0602L43.4011 7.95124Z" fill="url(#paint20_linear_419_3939)"/>
<defs>
<linearGradient id="paint0_linear_419_3939" x1="63.7706" y1="28.701" x2="16.6629" y2="50.7151" gradientUnits="userSpaceOnUse">
<stop stop-color="#00FF88"/>
<stop offset="1" stop-color="#EF04FF"/>
</linearGradient>
<linearGradient id="paint1_linear_419_3939" x1="65.0736" y1="29.1071" x2="16.9597" y2="53.3689" gradientUnits="userSpaceOnUse">
<stop stop-color="#00FF88"/>
<stop offset="1" stop-color="#EF04FF"/>
</linearGradient>
<linearGradient id="paint2_linear_419_3939" x1="66.3471" y1="29.6481" x2="17.5697" y2="56.1356" gradientUnits="userSpaceOnUse">
<stop stop-color="#00FF88"/>
<stop offset="1" stop-color="#EF04FF"/>
</linearGradient>
<linearGradient id="paint3_linear_419_3939" x1="67.5789" y1="30.3275" x2="18.5406" y2="58.9764" gradientUnits="userSpaceOnUse">
<stop stop-color="#00FF88"/>
<stop offset="1" stop-color="#EF04FF"/>
</linearGradient>
<linearGradient id="paint4_linear_419_3939" x1="68.7541" y1="31.1512" x2="19.863" y2="61.8384" gradientUnits="userSpaceOnUse">
<stop stop-color="#00FF88"/>
<stop offset="1" stop-color="#EF04FF"/>
</linearGradient>
<linearGradient id="paint5_linear_419_3939" x1="69.8603" y1="32.122" x2="21.5305" y2="64.6574" gradientUnits="userSpaceOnUse">
<stop stop-color="#00FF88"/>
<stop offset="1" stop-color="#EF04FF"/>
</linearGradient>
<linearGradient id="paint6_linear_419_3939" x1="70.8867" y1="33.2346" x2="23.5103" y2="67.4017" gradientUnits="userSpaceOnUse">
<stop stop-color="#00FF88"/>
<stop offset="1" stop-color="#EF04FF"/>
</linearGradient>
<linearGradient id="paint7_linear_419_3939" x1="71.8169" y1="34.5001" x2="25.7744" y2="70.0232" gradientUnits="userSpaceOnUse">
<stop stop-color="#00FF88"/>
<stop offset="1" stop-color="#EF04FF"/>
</linearGradient>
<linearGradient id="paint8_linear_419_3939" x1="72.6327" y1="35.896" x2="28.2308" y2="72.4581" gradientUnits="userSpaceOnUse">
<stop stop-color="#00FF88"/>
<stop offset="1" stop-color="#EF04FF"/>
</linearGradient>
<linearGradient id="paint9_linear_419_3939" x1="73.2847" y1="37.4274" x2="30.791" y2="74.6755" gradientUnits="userSpaceOnUse">
<stop stop-color="#00FF88"/>
<stop offset="1" stop-color="#EF04FF"/>
</linearGradient>
<linearGradient id="paint10_linear_419_3939" x1="73.7612" y1="39.0756" x2="33.3364" y2="76.664" gradientUnits="userSpaceOnUse">
<stop stop-color="#00FF88"/>
<stop offset="1" stop-color="#EF04FF"/>
</linearGradient>
<linearGradient id="paint11_linear_419_3939" x1="74.0507" y1="40.8151" x2="35.7291" y2="78.436" gradientUnits="userSpaceOnUse">
<stop stop-color="#00FF88"/>
<stop offset="1" stop-color="#EF04FF"/>
</linearGradient>
<linearGradient id="paint12_linear_419_3939" x1="74.1343" y1="42.647" x2="37.8614" y2="80.0437" gradientUnits="userSpaceOnUse">
<stop stop-color="#00FF88"/>
<stop offset="1" stop-color="#EF04FF"/>
</linearGradient>
<linearGradient id="paint13_linear_419_3939" x1="74.9532" y1="41.8014" x2="36.0861" y2="80.5327" gradientUnits="userSpaceOnUse">
<stop stop-color="#00FF88"/>
<stop offset="1" stop-color="#EF04FF"/>
</linearGradient>
<linearGradient id="paint14_linear_419_3939" x1="76.1592" y1="39.2564" x2="31.6348" y2="79.9859" gradientUnits="userSpaceOnUse">
<stop stop-color="#00FF88"/>
<stop offset="1" stop-color="#EF04FF"/>
</linearGradient>
<linearGradient id="paint15_linear_419_3939" x1="77.2042" y1="36.5137" x2="26.4717" y2="78.6909" gradientUnits="userSpaceOnUse">
<stop stop-color="#00FF88"/>
<stop offset="1" stop-color="#EF04FF"/>
</linearGradient>
<linearGradient id="paint16_linear_419_3939" x1="78.0687" y1="33.5787" x2="20.7513" y2="76.4535" gradientUnits="userSpaceOnUse">
<stop stop-color="#00FF88"/>
<stop offset="1" stop-color="#EF04FF"/>
</linearGradient>
<linearGradient id="paint17_linear_419_3939" x1="78.7241" y1="30.4569" x2="14.6435" y2="73.0938" gradientUnits="userSpaceOnUse">
<stop stop-color="#00FF88"/>
<stop offset="1" stop-color="#EF04FF"/>
</linearGradient>
<linearGradient id="paint18_linear_419_3939" x1="79.1701" y1="27.1644" x2="8.47894" y2="68.5177" gradientUnits="userSpaceOnUse">
<stop stop-color="#00FF88"/>
<stop offset="1" stop-color="#EF04FF"/>
</linearGradient>
<linearGradient id="paint19_linear_419_3939" x1="79.38" y1="23.7114" x2="2.57031" y2="62.7004" gradientUnits="userSpaceOnUse">
<stop stop-color="#00FF88"/>
<stop offset="1" stop-color="#EF04FF"/>
</linearGradient>
<linearGradient id="paint20_linear_419_3939" x1="79.3416" y1="20.1147" x2="-2.76821" y2="55.7391" gradientUnits="userSpaceOnUse">
<stop stop-color="#00FF88"/>
<stop offset="1" stop-color="#EF04FF"/>
</linearGradient>
</defs>
</svg>
