<svg width="149" height="49" viewBox="0 0 149 49" fill="none" xmlns="http://www.w3.org/2000/svg">
<path d="M48.3273 24.1609C48.327 30.5697 45.7808 36.7158 41.2491 41.2473C36.7173 45.7788 30.571 48.3246 24.1623 48.3246C10.8176 48.3246 0 37.507 0 24.1623C0 10.8175 10.8189 0 24.1623 0C37.5057 0 48.3246 10.8189 48.3246 24.165" fill="white"/>
<path d="M24.5697 14.76L30.8229 30.1932L21.3783 22.7547L24.5697 14.76ZM35.6775 33.7478L26.0588 10.6007C25.7847 9.93377 25.2488 9.58008 24.5684 9.58008C23.888 9.58008 23.3129 9.93377 23.0375 10.6007L12.4805 35.9901H16.0917L20.27 25.5222L32.7413 35.5973C33.2435 36.0023 33.6053 36.1859 34.0751 36.1859C35.0174 36.1859 35.8409 35.4798 35.8409 34.4606C35.8409 34.2945 35.7815 34.0313 35.6762 33.7478H35.6775Z" fill="#0F0F0F"/>
<path d="M81.4475 31.3886C81.1977 31.3886 80.9291 31.3252 80.7414 31.0727L72.7319 20.54V31.2833H70.9053V18.0533C70.9053 17.5133 71.3414 17.1056 71.8395 17.1056C72.1298 17.1056 72.3795 17.1907 72.5658 17.4431L80.5538 27.9542V17.2528H82.3803V30.4612C82.3816 30.5839 82.3583 30.7056 82.3117 30.8192C82.2651 30.9327 82.1962 31.0358 82.1091 31.1222C82.022 31.2087 81.9185 31.2768 81.8046 31.3226C81.6907 31.3683 81.5688 31.3908 81.4461 31.3886H81.4475ZM92.0139 31.5155C90.1887 31.5155 88.2785 31.1375 86.4951 30.4625L86.9312 28.9465C88.5701 29.4865 90.3548 29.851 92.0139 29.851C94.317 29.851 95.5212 29.0302 95.5212 27.8719C95.5212 26.8189 94.587 26.2924 91.3713 24.775C88.1556 23.2576 86.8893 22.291 86.8893 20.3942C86.8893 18.0142 88.7145 17.0462 92.1597 17.0462C93.5907 17.0462 95.8047 17.3432 97.0575 17.7212L96.7673 19.2791C95.271 18.9219 93.7398 18.7317 92.2016 18.7121C89.7743 18.7121 88.778 19.1752 88.778 20.3348C88.778 21.4715 89.5043 21.9548 92.9063 23.537C96.4973 25.2016 97.4085 26.044 97.4085 27.772C97.4085 30.2789 95.042 31.5223 92.0139 31.5223V31.5155ZM101.523 17.2298H103.411V31.259H101.523V17.2298ZM116.022 24.7426H111.332V29.504H116.022C117.619 29.504 118.595 28.4915 118.595 27.0808C118.595 25.7537 117.579 24.7426 116.022 24.7426ZM115.108 18.6757H111.332V23.1631H115.108C116.623 23.1631 117.723 22.1938 117.723 20.8451C117.723 19.5181 116.769 18.6757 115.108 18.6757ZM116.043 31.1038H110.4C109.86 31.1038 109.445 30.6826 109.445 30.1561V18.0223C109.448 17.7706 109.55 17.5302 109.728 17.3529C109.907 17.1756 110.148 17.0756 110.4 17.0746H115.068C117.93 17.0746 119.631 18.4853 119.631 20.698C119.631 21.913 118.925 23.0146 117.846 23.668C119.445 24.154 120.523 25.4797 120.523 27.0808C120.523 29.3137 118.678 31.1038 116.041 31.1038H116.043ZM126.031 30.9485C125.513 30.9485 125.086 30.5057 125.086 30.0008V16.9058H126.976V29.2286H134.513V30.935L126.031 30.9485ZM143.307 31.0255C139.446 31.0255 137.124 29.5945 137.124 26.7055C137.124 25.3366 137.894 24.0298 139.387 23.4196C138.172 22.6609 137.56 21.5863 137.56 20.4064C137.56 17.7941 139.574 16.5508 143.365 16.5508C144.892 16.5572 146.415 16.7196 147.909 17.0354L147.701 18.5947C146.125 18.3422 144.65 18.1951 143.219 18.1951C140.771 18.1951 139.464 18.8701 139.464 20.4901C139.464 21.7753 140.668 22.7851 142.266 22.7851H145.504C145.61 22.7835 145.715 22.803 145.813 22.8426C145.911 22.8821 146.001 22.9409 146.076 23.0154C146.151 23.09 146.211 23.1788 146.252 23.2767C146.292 23.3746 146.313 23.4797 146.312 23.5856C146.312 24.0487 145.961 24.4064 145.502 24.4064H142.017C140.19 24.4064 139.029 25.3109 139.029 26.7014C139.029 28.744 140.916 29.3555 143.282 29.3555C144.568 29.3555 146.311 29.1881 147.737 28.8506L148.007 30.3869C146.484 30.7975 144.914 31.0103 143.337 31.0201L143.307 31.0255ZM60.5778 20.0068L63.8853 28.2931L58.8903 24.2971L60.5778 20.0068ZM66.453 30.202L61.3662 17.7739C61.2204 17.4161 60.9302 17.2258 60.5778 17.2258C60.4028 17.2227 60.2311 17.2737 60.0862 17.3718C59.9412 17.4698 59.83 17.6103 59.7678 17.7739L54.2031 31.7774L56.0931 31.4048L58.3031 25.7848L64.8978 31.1942C65.1638 31.4102 65.3541 31.5101 65.6039 31.5101C65.7265 31.5121 65.8482 31.4895 65.9619 31.4437C66.0757 31.3979 66.1791 31.3297 66.266 31.2433C66.353 31.1568 66.4217 31.0538 66.4682 30.9404C66.5147 30.8269 66.538 30.7053 66.5367 30.5827C66.5281 30.4516 66.4989 30.3227 66.4503 30.2006L66.453 30.202Z" fill="white"/>
</svg>
