<svg width="167" height="50" viewBox="0 0 167 50" fill="none" xmlns="http://www.w3.org/2000/svg">
<path d="M51.92 28.52H44.78L43.28 32H41.2L47.48 17.9H49.2L55.48 32H53.42L51.92 28.52ZM51.22 26.88L48.36 20.2L45.48 26.88H51.22ZM62.3275 22C63.1675 22 63.9142 22.2133 64.5675 22.64C65.2342 23.0667 65.7475 23.6667 66.1075 24.44C66.4808 25.2133 66.6675 26.1067 66.6675 27.12C66.6675 28.12 66.4875 29 66.1275 29.76C65.7675 30.52 65.2542 31.1067 64.5875 31.52C63.9342 31.9333 63.1808 32.14 62.3275 32.14C61.5942 32.14 60.9475 31.9867 60.3875 31.68C59.8275 31.36 59.4008 30.9067 59.1075 30.32V35.6H57.0875V22.24H59.1075V23.84C59.4008 23.2533 59.8275 22.8 60.3875 22.48C60.9475 22.16 61.5942 22 62.3275 22ZM61.8475 30.54C62.7275 30.54 63.4075 30.2467 63.8875 29.66C64.3675 29.06 64.6075 28.2133 64.6075 27.12C64.6075 26.0133 64.3608 25.1533 63.8675 24.54C63.3875 23.9267 62.7142 23.62 61.8475 23.62C60.9675 23.62 60.2875 23.92 59.8075 24.52C59.3408 25.12 59.1075 25.9733 59.1075 27.08C59.1075 28.1867 59.3408 29.04 59.8075 29.64C60.2875 30.24 60.9675 30.54 61.8475 30.54ZM72.9839 22C74.2906 22 75.2572 22.3267 75.8839 22.98C76.5239 23.6333 76.8439 24.6267 76.8439 25.96V32H74.9039V30.38C74.6506 30.9533 74.2706 31.3933 73.7639 31.7C73.2706 31.9933 72.6906 32.14 72.0239 32.14C71.3839 32.14 70.7972 32.0133 70.2639 31.76C69.7306 31.4933 69.3106 31.1267 69.0039 30.66C68.7106 30.1933 68.5639 29.6733 68.5639 29.1C68.5639 28.3933 68.7439 27.84 69.1039 27.44C69.4772 27.0267 70.0839 26.7333 70.9239 26.56C71.7772 26.3867 72.9439 26.3 74.4239 26.3H74.8839V25.72C74.8839 24.9733 74.7239 24.4333 74.4039 24.1C74.0972 23.7667 73.5906 23.6 72.8839 23.6C71.7772 23.6 70.6706 23.94 69.5639 24.62L68.9639 23.2C69.4839 22.84 70.1106 22.5533 70.8439 22.34C71.5906 22.1133 72.3039 22 72.9839 22ZM72.3839 30.64C73.1172 30.64 73.7172 30.3933 74.1839 29.9C74.6506 29.3933 74.8839 28.7467 74.8839 27.96V27.44H74.5239C73.4839 27.44 72.6839 27.4867 72.1239 27.58C71.5639 27.6733 71.1639 27.8333 70.9239 28.06C70.6839 28.2733 70.5639 28.5867 70.5639 29C70.5639 29.4667 70.7306 29.86 71.0639 30.18C71.4106 30.4867 71.8506 30.64 72.3839 30.64ZM83.887 32.14C82.9004 32.14 82.0404 31.9333 81.307 31.52C80.587 31.1067 80.027 30.5267 79.627 29.78C79.2404 29.02 79.047 28.1333 79.047 27.12C79.047 26.1067 79.247 25.2133 79.647 24.44C80.0604 23.6667 80.6337 23.0667 81.367 22.64C82.1137 22.2133 82.9804 22 83.967 22C84.647 22 85.3004 22.1133 85.927 22.34C86.567 22.5667 87.087 22.8733 87.487 23.26L86.867 24.7C85.987 23.98 85.0737 23.62 84.127 23.62C83.1937 23.62 82.4604 23.9267 81.927 24.54C81.407 25.14 81.147 25.9933 81.147 27.1C81.147 28.1933 81.407 29.04 81.927 29.64C82.447 30.2267 83.1804 30.52 84.127 30.52C85.0737 30.52 85.987 30.16 86.867 29.44L87.487 30.9C87.0604 31.2867 86.527 31.5933 85.887 31.82C85.247 32.0333 84.5804 32.14 83.887 32.14ZM94.535 22C96.8683 22 98.035 23.3133 98.035 25.94V32H96.015V26.04C96.015 25.2133 95.8483 24.6067 95.515 24.22C95.195 23.8333 94.6883 23.64 93.995 23.64C93.1817 23.64 92.5283 23.8933 92.035 24.4C91.5417 24.9067 91.295 25.5867 91.295 26.44V32H89.275V17.9H91.295V23.72C91.6283 23.16 92.075 22.7333 92.635 22.44C93.195 22.1467 93.8283 22 94.535 22ZM109.158 27.46H102.258C102.405 29.5267 103.432 30.56 105.338 30.56C106.458 30.56 107.472 30.1933 108.378 29.46L108.998 30.88C108.545 31.2667 107.985 31.5733 107.318 31.8C106.652 32.0267 105.972 32.14 105.278 32.14C103.718 32.14 102.485 31.6933 101.578 30.8C100.685 29.9067 100.238 28.6733 100.238 27.1C100.238 26.1 100.432 25.2133 100.818 24.44C101.218 23.6667 101.772 23.0667 102.478 22.64C103.198 22.2133 104.012 22 104.918 22C106.238 22 107.272 22.4267 108.018 23.28C108.778 24.1333 109.158 25.3133 109.158 26.82V27.46ZM104.958 23.48C104.185 23.48 103.565 23.7267 103.098 24.22C102.645 24.7 102.372 25.3933 102.278 26.3H107.418C107.378 25.3933 107.145 24.7 106.718 24.22C106.305 23.7267 105.718 23.48 104.958 23.48ZM125.898 32L118.958 25.36V32H116.898V17.9H118.958V24.32L125.598 17.9H128.138L121.018 24.72L128.478 32H125.898ZM133.57 22C134.877 22 135.843 22.3267 136.47 22.98C137.11 23.6333 137.43 24.6267 137.43 25.96V32H135.49V30.38C135.237 30.9533 134.857 31.3933 134.35 31.7C133.857 31.9933 133.277 32.14 132.61 32.14C131.97 32.14 131.383 32.0133 130.85 31.76C130.317 31.4933 129.897 31.1267 129.59 30.66C129.297 30.1933 129.15 29.6733 129.15 29.1C129.15 28.3933 129.33 27.84 129.69 27.44C130.063 27.0267 130.67 26.7333 131.51 26.56C132.363 26.3867 133.53 26.3 135.01 26.3H135.47V25.72C135.47 24.9733 135.31 24.4333 134.99 24.1C134.683 23.7667 134.177 23.6 133.47 23.6C132.363 23.6 131.257 23.94 130.15 24.62L129.55 23.2C130.07 22.84 130.697 22.5533 131.43 22.34C132.177 22.1133 132.89 22 133.57 22ZM132.97 30.64C133.703 30.64 134.303 30.3933 134.77 29.9C135.237 29.3933 135.47 28.7467 135.47 27.96V27.44H135.11C134.07 27.44 133.27 27.4867 132.71 27.58C132.15 27.6733 131.75 27.8333 131.51 28.06C131.27 28.2733 131.15 28.5867 131.15 29C131.15 29.4667 131.317 29.86 131.65 30.18C131.997 30.4867 132.437 30.64 132.97 30.64ZM142.833 22.24H145.513V23.8H142.833V32H140.813V23.8H138.913V22.24H140.813V22.06C140.813 20.7133 141.153 19.7 141.833 19.02C142.526 18.34 143.58 17.96 144.993 17.88L145.893 17.84L146.013 19.36L145.093 19.42C144.293 19.46 143.713 19.6667 143.353 20.04C143.006 20.4133 142.833 20.98 142.833 21.74V22.24ZM153.669 32L149.049 27.4V32H147.029V17.9H149.049V26.64L153.329 22.26H155.829L151.209 26.94L156.229 32H153.669ZM161.382 22C162.689 22 163.656 22.3267 164.282 22.98C164.922 23.6333 165.242 24.6267 165.242 25.96V32H163.302V30.38C163.049 30.9533 162.669 31.3933 162.162 31.7C161.669 31.9933 161.089 32.14 160.422 32.14C159.782 32.14 159.196 32.0133 158.662 31.76C158.129 31.4933 157.709 31.1267 157.402 30.66C157.109 30.1933 156.962 29.6733 156.962 29.1C156.962 28.3933 157.142 27.84 157.502 27.44C157.876 27.0267 158.482 26.7333 159.322 26.56C160.176 26.3867 161.342 26.3 162.822 26.3H163.282V25.72C163.282 24.9733 163.122 24.4333 162.802 24.1C162.496 23.7667 161.989 23.6 161.282 23.6C160.176 23.6 159.069 23.94 157.962 24.62L157.362 23.2C157.882 22.84 158.509 22.5533 159.242 22.34C159.989 22.1133 160.702 22 161.382 22ZM160.782 30.64C161.516 30.64 162.116 30.3933 162.582 29.9C163.049 29.3933 163.282 28.7467 163.282 27.96V27.44H162.922C161.882 27.44 161.082 27.4867 160.522 27.58C159.962 27.6733 159.562 27.8333 159.322 28.06C159.082 28.2733 158.962 28.5867 158.962 29C158.962 29.4667 159.129 29.86 159.462 30.18C159.809 30.4867 160.249 30.64 160.782 30.64Z" fill="white"/>
<path d="M24.3459 27.6938C22.3933 27.6938 20.6428 28.5564 19.4441 29.9145L16.3724 27.7461C16.6984 26.8509 16.8857 25.8896 16.8857 24.8834C16.8857 23.8947 16.7049 22.9496 16.3896 22.0676L19.4544 19.9221C20.6531 21.2734 22.399 22.1313 24.3459 22.1313C27.9499 22.1313 30.8824 19.2076 30.8824 15.6133C30.8824 12.019 27.9499 9.09524 24.3459 9.09524C20.742 9.09524 17.8095 12.019 17.8095 15.6133C17.8095 16.2566 17.9069 16.877 18.0819 17.4645L15.015 19.611C13.7338 18.0262 11.8892 16.9196 9.78753 16.5818V12.896C12.7484 12.2758 14.9793 9.65257 14.9793 6.51805C14.9793 2.92376 12.0468 0 8.44283 0C4.83888 0 1.90638 2.92376 1.90638 6.51805C1.90638 9.61058 4.07949 12.2015 6.9811 12.8659V16.5996C3.02116 17.2927 0 20.7389 0 24.8834C0 29.0482 3.05108 32.507 7.03961 33.1766V37.1191C4.10832 37.7616 1.90638 40.3684 1.90638 43.482C1.90638 47.0762 4.83888 50 8.44283 50C12.0468 50 14.9793 47.0762 14.9793 43.482C14.9793 40.3684 12.7773 37.7616 9.84604 37.1191V33.1764C11.8648 32.8373 13.6912 31.7781 14.9851 30.196L18.0773 32.3785C17.9056 32.9607 17.8095 33.575 17.8095 34.2118C17.8095 37.8061 20.742 40.7299 24.3459 40.7299C27.9499 40.7299 30.8824 37.8061 30.8824 34.2118C30.8824 30.6175 27.9499 27.6938 24.3459 27.6938ZM24.3459 12.453C26.0935 12.453 27.515 13.8711 27.515 15.6133C27.515 17.3555 26.0935 18.7734 24.3459 18.7734C22.5983 18.7734 21.1768 17.3555 21.1768 15.6133C21.1768 13.8711 22.5983 12.453 24.3459 12.453ZM5.27364 6.51805C5.27364 4.77582 6.6952 3.35791 8.44283 3.35791C10.1905 3.35791 11.6119 4.77582 11.6119 6.51805C11.6119 8.26027 10.1905 9.67819 8.44283 9.67819C6.6952 9.67819 5.27364 8.26027 5.27364 6.51805ZM11.6119 43.482C11.6119 45.2242 10.1905 46.6421 8.44283 46.6421C6.6952 46.6421 5.27364 45.2242 5.27364 43.482C5.27364 41.7397 6.6952 40.3218 8.44283 40.3218C10.1905 40.3218 11.6119 41.7397 11.6119 43.482ZM8.44258 29.2908C6.00517 29.2908 4.02231 27.3139 4.02231 24.8834C4.02231 22.4529 6.00517 20.4756 8.44258 20.4756C10.8799 20.4756 12.8627 22.4529 12.8627 24.8834C12.8627 27.3139 10.8799 29.2908 8.44258 29.2908ZM24.3459 37.3721C22.5983 37.3721 21.1768 35.954 21.1768 34.2118C21.1768 32.4696 22.5983 31.0517 24.3459 31.0517C26.0935 31.0517 27.515 32.4696 27.515 34.2118C27.515 35.954 26.0935 37.3721 24.3459 37.3721Z" fill="white"/>
</svg>
