<svg width="201" height="50" viewBox="0 0 201 50" fill="none" xmlns="http://www.w3.org/2000/svg">
<path d="M69.92 28.52H62.78L61.28 32H59.2L65.48 17.9H67.2L73.48 32H71.42L69.92 28.52ZM69.22 26.88L66.36 20.2L63.48 26.88H69.22ZM80.3275 22C81.1675 22 81.9142 22.2133 82.5675 22.64C83.2342 23.0667 83.7475 23.6667 84.1075 24.44C84.4808 25.2133 84.6675 26.1067 84.6675 27.12C84.6675 28.12 84.4875 29 84.1275 29.76C83.7675 30.52 83.2542 31.1067 82.5875 31.52C81.9342 31.9333 81.1808 32.14 80.3275 32.14C79.5942 32.14 78.9475 31.9867 78.3875 31.68C77.8275 31.36 77.4008 30.9067 77.1075 30.32V35.6H75.0875V22.24H77.1075V23.84C77.4008 23.2533 77.8275 22.8 78.3875 22.48C78.9475 22.16 79.5942 22 80.3275 22ZM79.8475 30.54C80.7275 30.54 81.4075 30.2467 81.8875 29.66C82.3675 29.06 82.6075 28.2133 82.6075 27.12C82.6075 26.0133 82.3608 25.1533 81.8675 24.54C81.3875 23.9267 80.7142 23.62 79.8475 23.62C78.9675 23.62 78.2875 23.92 77.8075 24.52C77.3408 25.12 77.1075 25.9733 77.1075 27.08C77.1075 28.1867 77.3408 29.04 77.8075 29.64C78.2875 30.24 78.9675 30.54 79.8475 30.54ZM90.9839 22C92.2906 22 93.2572 22.3267 93.8839 22.98C94.5239 23.6333 94.8439 24.6267 94.8439 25.96V32H92.9039V30.38C92.6506 30.9533 92.2706 31.3933 91.7639 31.7C91.2706 31.9933 90.6906 32.14 90.0239 32.14C89.3839 32.14 88.7972 32.0133 88.2639 31.76C87.7306 31.4933 87.3106 31.1267 87.0039 30.66C86.7106 30.1933 86.5639 29.6733 86.5639 29.1C86.5639 28.3933 86.7439 27.84 87.1039 27.44C87.4772 27.0267 88.0839 26.7333 88.9239 26.56C89.7772 26.3867 90.9439 26.3 92.4239 26.3H92.8839V25.72C92.8839 24.9733 92.7239 24.4333 92.4039 24.1C92.0972 23.7667 91.5906 23.6 90.8839 23.6C89.7772 23.6 88.6706 23.94 87.5639 24.62L86.9639 23.2C87.4839 22.84 88.1106 22.5533 88.8439 22.34C89.5906 22.1133 90.3039 22 90.9839 22ZM90.3839 30.64C91.1172 30.64 91.7172 30.3933 92.1839 29.9C92.6506 29.3933 92.8839 28.7467 92.8839 27.96V27.44H92.5239C91.4839 27.44 90.6839 27.4867 90.1239 27.58C89.5639 27.6733 89.1639 27.8333 88.9239 28.06C88.6839 28.2733 88.5639 28.5867 88.5639 29C88.5639 29.4667 88.7306 29.86 89.0639 30.18C89.4106 30.4867 89.8506 30.64 90.3839 30.64ZM101.887 32.14C100.9 32.14 100.04 31.9333 99.307 31.52C98.587 31.1067 98.027 30.5267 97.627 29.78C97.2404 29.02 97.047 28.1333 97.047 27.12C97.047 26.1067 97.247 25.2133 97.647 24.44C98.0604 23.6667 98.6337 23.0667 99.367 22.64C100.114 22.2133 100.98 22 101.967 22C102.647 22 103.3 22.1133 103.927 22.34C104.567 22.5667 105.087 22.8733 105.487 23.26L104.867 24.7C103.987 23.98 103.074 23.62 102.127 23.62C101.194 23.62 100.46 23.9267 99.927 24.54C99.407 25.14 99.147 25.9933 99.147 27.1C99.147 28.1933 99.407 29.04 99.927 29.64C100.447 30.2267 101.18 30.52 102.127 30.52C103.074 30.52 103.987 30.16 104.867 29.44L105.487 30.9C105.06 31.2867 104.527 31.5933 103.887 31.82C103.247 32.0333 102.58 32.14 101.887 32.14ZM112.535 22C114.868 22 116.035 23.3133 116.035 25.94V32H114.015V26.04C114.015 25.2133 113.848 24.6067 113.515 24.22C113.195 23.8333 112.688 23.64 111.995 23.64C111.182 23.64 110.528 23.8933 110.035 24.4C109.542 24.9067 109.295 25.5867 109.295 26.44V32H107.275V17.9H109.295V23.72C109.628 23.16 110.075 22.7333 110.635 22.44C111.195 22.1467 111.828 22 112.535 22ZM127.158 27.46H120.258C120.405 29.5267 121.432 30.56 123.338 30.56C124.458 30.56 125.472 30.1933 126.378 29.46L126.998 30.88C126.545 31.2667 125.985 31.5733 125.318 31.8C124.652 32.0267 123.972 32.14 123.278 32.14C121.718 32.14 120.485 31.6933 119.578 30.8C118.685 29.9067 118.238 28.6733 118.238 27.1C118.238 26.1 118.432 25.2133 118.818 24.44C119.218 23.6667 119.772 23.0667 120.478 22.64C121.198 22.2133 122.012 22 122.918 22C124.238 22 125.272 22.4267 126.018 23.28C126.778 24.1333 127.158 25.3133 127.158 26.82V27.46ZM122.958 23.48C122.185 23.48 121.565 23.7267 121.098 24.22C120.645 24.7 120.372 25.3933 120.278 26.3H125.418C125.378 25.3933 125.145 24.7 124.718 24.22C124.305 23.7267 123.718 23.48 122.958 23.48ZM144.178 28.52H137.038L135.538 32H133.458L139.738 17.9H141.458L147.738 32H145.678L144.178 28.52ZM143.478 26.88L140.618 20.2L137.738 26.88H143.478ZM149.345 22.24H151.365V32H149.345V22.24ZM151.525 17.88V19.98H149.205V17.88H151.525ZM160.129 23.7L158.909 23.82C157.949 23.9133 157.256 24.2067 156.829 24.7C156.416 25.1933 156.209 25.82 156.209 26.58V32H154.189V22.24H156.149V23.94C156.669 22.7933 157.729 22.16 159.329 22.04L159.989 22L160.129 23.7ZM164.993 22.24H167.673V23.8H164.993V32H162.973V23.8H161.073V22.24H162.973V22.06C162.973 20.7133 163.313 19.7 163.993 19.02C164.686 18.34 165.74 17.96 167.153 17.88L168.053 17.84L168.173 19.36L167.253 19.42C166.453 19.46 165.873 19.6667 165.513 20.04C165.166 20.4133 164.993 20.98 164.993 21.74V22.24ZM169.193 17.9H171.213V32H169.193V17.9ZM178.273 32.14C177.313 32.14 176.466 31.9333 175.733 31.52C175.013 31.1067 174.453 30.52 174.053 29.76C173.666 28.9867 173.473 28.0933 173.473 27.08C173.473 26.0533 173.666 25.16 174.053 24.4C174.453 23.6267 175.013 23.0333 175.733 22.62C176.466 22.2067 177.313 22 178.273 22C179.233 22 180.073 22.2067 180.793 22.62C181.526 23.0333 182.086 23.6267 182.473 24.4C182.873 25.16 183.073 26.0533 183.073 27.08C183.073 28.0933 182.873 28.9867 182.473 29.76C182.086 30.52 181.526 31.1067 180.793 31.52C180.073 31.9333 179.233 32.14 178.273 32.14ZM178.273 30.54C179.166 30.54 179.846 30.2467 180.313 29.66C180.793 29.0733 181.033 28.2133 181.033 27.08C181.033 25.96 180.793 25.1067 180.313 24.52C179.833 23.92 179.153 23.62 178.273 23.62C177.393 23.62 176.713 23.92 176.233 24.52C175.753 25.1067 175.513 25.96 175.513 27.08C175.513 28.2133 175.746 29.0733 176.213 29.66C176.693 30.2467 177.379 30.54 178.273 30.54ZM200.405 22.24L196.665 32H194.845L192.265 25.02L189.685 32H187.845L184.125 22.24H186.225L188.865 29.58L191.525 22.24H193.105L195.765 29.62L198.405 22.24H200.405Z" fill="white"/>
<path d="M0.80632 49.8004L24.7454 25.261C24.8954 25.1073 24.9241 24.8696 24.799 24.6951C23.3428 22.6623 20.6572 22.31 19.6616 20.9444C16.7126 16.899 15.9643 14.6093 14.6971 14.7514C14.6086 14.7613 14.5297 14.8089 14.4675 14.8727L5.81941 23.7376C0.844344 28.8373 0.130893 40.0658 5.0401e-05 49.4679C-0.00586084 49.8927 0.509602 50.1044 0.80632 49.8004Z" fill="white"/>
<path d="M49.8014 49.194L25.262 25.2548C25.1083 25.1049 24.8706 25.0761 24.6961 25.2012C22.6633 26.6574 22.311 29.343 20.9454 30.3386C16.9 33.2875 14.6103 34.0359 14.7523 35.3032C14.7623 35.3917 14.8099 35.4706 14.8737 35.5326L23.7385 44.1808C28.8383 49.1559 40.0668 49.8693 49.4688 50C49.8937 50.0061 50.1054 49.4907 49.8014 49.194Z" fill="white"/>
<path fill-rule="evenodd" clip-rule="evenodd" d="M23.7379 44.1805C20.9521 41.4631 19.6597 36.0868 25.0003 25C16.3207 28.8788 13.2791 33.9777 14.7754 35.4374L23.7379 44.1805Z" fill="#DFDFDF"/>
<path d="M49.1943 0.19963L25.2553 24.7389C25.1053 24.8927 25.0766 25.1303 25.2017 25.3049C26.6579 27.3376 29.3436 27.6899 30.3389 29.0556C33.2881 33.1009 34.0365 35.3905 35.3035 35.2487C35.392 35.2388 35.4709 35.1911 35.5333 35.1273L44.1811 26.2624C49.1565 21.1626 49.8699 9.93424 50.0006 0.532071C50.0065 0.107196 49.4911 -0.104528 49.1943 0.19963Z" fill="white"/>
<path fill-rule="evenodd" clip-rule="evenodd" d="M44.1808 26.2624C41.4631 29.048 36.0868 30.3406 25 25C28.8788 33.6795 33.9777 36.7213 35.4374 35.2248L44.1808 26.2624Z" fill="#D7D7D7"/>
<path d="M0.200118 0.806317L24.7394 24.7454C24.8932 24.8953 25.1308 24.9241 25.3054 24.799C27.3381 23.3428 27.6904 20.6572 29.0559 19.6616C33.1015 16.7126 35.3912 15.9643 35.2491 14.6971C35.2392 14.6086 35.1914 14.5297 35.1279 14.4675L26.2629 5.81942C21.1631 0.844344 9.93472 0.130893 0.532559 5.04505e-05C0.107684 -0.0058637 -0.10404 0.509599 0.200118 0.806317Z" fill="white"/>
<path fill-rule="evenodd" clip-rule="evenodd" d="M26.2624 5.81934C29.048 8.53696 30.3406 13.9131 25 25C33.6795 21.1212 36.7213 16.0223 35.2248 14.5626L26.2624 5.81934Z" fill="#CECECE"/>
<path fill-rule="evenodd" clip-rule="evenodd" d="M5.82031 23.7379C8.53794 20.9521 13.9141 19.6597 25.0009 25.0003C21.1221 16.3207 16.0233 13.2791 14.5636 14.7754L5.82031 23.7379Z" fill="#EAEAEA"/>
<path d="M25.0168 26.0669C25.6079 26.0596 26.0812 25.5745 26.0739 24.9833C26.0666 24.3922 25.5814 23.9189 24.9903 23.9262C24.3991 23.9335 23.9259 24.4187 23.9332 25.0098C23.9405 25.601 24.4256 26.0742 25.0168 26.0669Z" fill="#4A4848"/>
</svg>
