<svg width="66" height="39" viewBox="0 0 66 39" fill="none" xmlns="http://www.w3.org/2000/svg">
<path d="M18.3959 13.9929C18.3959 14.7857 18.4828 15.4286 18.6347 15.9C18.8084 16.3714 19.0255 16.8857 19.3295 17.4429C19.438 17.6143 19.4815 17.7857 19.4815 17.9357C19.4815 18.15 19.3512 18.3643 19.069 18.5786L17.7012 19.4786C17.5058 19.6071 17.3104 19.6714 17.1367 19.6714C16.9196 19.6714 16.7025 19.5643 16.4854 19.3714C16.1815 19.05 15.9209 18.7071 15.7038 18.3643C15.4867 18 15.2696 17.5929 15.0308 17.1C13.3374 19.0714 11.2097 20.0571 8.6479 20.0571C6.82422 20.0571 5.36961 19.5429 4.3058 18.5143C3.24198 17.4857 2.69922 16.1143 2.69922 14.4C2.69922 12.5786 3.35053 11.1 4.67488 9.98572C5.99922 8.87143 7.75777 8.31429 9.99396 8.31429C10.7321 8.31429 11.492 8.37857 12.2953 8.48572C13.0986 8.59286 13.9236 8.76429 14.792 8.95714V7.39286C14.792 5.76429 14.4446 4.62857 13.7716 3.96429C13.0768 3.3 11.9045 2.97857 10.2328 2.97857C9.4729 2.97857 8.69132 3.06429 7.88803 3.25714C7.08474 3.45 6.30317 3.68571 5.5433 3.98571C5.19593 4.13571 4.9354 4.22143 4.78343 4.26429C4.63146 4.30714 4.5229 4.32857 4.43606 4.32857C4.13211 4.32857 3.98014 4.11429 3.98014 3.66429V2.61429C3.98014 2.27143 4.02356 2.01429 4.13211 1.86429C4.24067 1.71429 4.43606 1.56429 4.74001 1.41429C5.49988 1.02857 6.41172 0.707143 7.47553 0.45C8.53935 0.171429 9.6683 0.0428571 10.8624 0.0428571C13.4459 0.0428571 15.3347 0.621428 16.5505 1.77857C17.7446 2.93571 18.3525 4.69286 18.3525 7.05V13.9929H18.3959ZM9.58146 17.25C10.2979 17.25 11.0361 17.1214 11.8176 16.8643C12.5992 16.6071 13.294 16.1357 13.8801 15.4929C14.2275 15.0857 14.488 14.6357 14.6183 14.1214C14.7486 13.6071 14.8354 12.9857 14.8354 12.2571V11.3571C14.2058 11.2071 13.5328 11.0786 12.838 10.9929C12.1433 10.9071 11.4703 10.8643 10.7972 10.8643C9.34264 10.8643 8.27882 11.1429 7.56238 11.7214C6.84593 12.3 6.49856 13.1143 6.49856 14.1857C6.49856 15.1929 6.75909 15.9429 7.30185 16.4571C7.8229 16.9929 8.58277 17.25 9.58146 17.25ZM27.015 19.5643C26.6242 19.5643 26.3637 19.5 26.19 19.35C26.0163 19.2214 25.8643 18.9214 25.7341 18.5143L20.6321 1.95C20.5019 1.52143 20.4367 1.24286 20.4367 1.09286C20.4367 0.75 20.6104 0.557143 20.9578 0.557143H23.0854C23.4979 0.557143 23.7801 0.621429 23.9321 0.771429C24.1058 0.9 24.2361 1.2 24.3663 1.60714L28.0137 15.7929L31.4005 1.60714C31.5091 1.17857 31.6393 0.9 31.813 0.771429C31.9867 0.642857 32.2907 0.557143 32.6815 0.557143H34.4183C34.8308 0.557143 35.113 0.621429 35.2867 0.771429C35.4604 0.9 35.6124 1.2 35.6992 1.60714L39.1295 15.9643L42.8854 1.60714C43.0157 1.17857 43.1676 0.9 43.3196 0.771429C43.4933 0.642857 43.7755 0.557143 44.1663 0.557143H46.1854C46.5328 0.557143 46.7282 0.728571 46.7282 1.09286C46.7282 1.2 46.7065 1.30714 46.6847 1.43571C46.663 1.56429 46.6196 1.73571 46.5328 1.97143L41.3005 18.5357C41.1703 18.9643 41.0183 19.2429 40.8446 19.3714C40.6709 19.5 40.3887 19.5857 40.0196 19.5857H38.1525C37.74 19.5857 37.4578 19.5214 37.2841 19.3714C37.1104 19.2214 36.9584 18.9429 36.8716 18.5143L33.5065 4.69286L30.163 18.4929C30.0545 18.9214 29.9242 19.2 29.7505 19.35C29.5768 19.5 29.2729 19.5643 28.8821 19.5643H27.015ZM54.913 20.1429C53.7841 20.1429 52.6551 20.0143 51.5696 19.7571C50.4841 19.5 49.6374 19.2214 49.0729 18.9C48.7255 18.7071 48.4867 18.4929 48.3999 18.3C48.313 18.1071 48.2696 17.8929 48.2696 17.7V16.6071C48.2696 16.1571 48.4433 15.9429 48.769 15.9429C48.8992 15.9429 49.0295 15.9643 49.1597 16.0071C49.29 16.05 49.4854 16.1357 49.7025 16.2214C50.4407 16.5429 51.244 16.8 52.0907 16.9714C52.9591 17.1429 53.8058 17.2286 54.6742 17.2286C56.042 17.2286 57.1058 16.9929 57.844 16.5214C58.5821 16.05 58.9729 15.3643 58.9729 14.4857C58.9729 13.8857 58.7775 13.3929 58.3867 12.9857C57.9959 12.5786 57.2578 12.2143 56.194 11.8714L53.0459 10.9071C51.4611 10.4143 50.2887 9.68572 49.5722 8.72143C48.8558 7.77857 48.4867 6.72857 48.4867 5.61429C48.4867 4.71429 48.6821 3.92143 49.0729 3.23571C49.4637 2.55 49.9847 1.95 50.6361 1.47857C51.2874 0.985714 52.0255 0.621429 52.894 0.364286C53.7624 0.107143 54.6742 0 55.6295 0C56.1071 0 56.6065 0.0214286 57.0841 0.0857143C57.5834 0.15 58.0393 0.235714 58.4953 0.321429C58.9295 0.428571 59.342 0.535714 59.7328 0.664286C60.1236 0.792857 60.4275 0.921429 60.6446 1.05C60.9486 1.22143 61.1657 1.39286 61.2959 1.58571C61.4262 1.75714 61.4913 1.99286 61.4913 2.29286V3.3C61.4913 3.75 61.3176 3.98571 60.992 3.98571C60.8183 3.98571 60.5361 3.9 60.167 3.72857C58.9295 3.17143 57.54 2.89286 55.9986 2.89286C54.7611 2.89286 53.7841 3.08571 53.1111 3.49286C52.438 3.9 52.0907 4.52143 52.0907 5.4C52.0907 6 52.3078 6.51429 52.742 6.92143C53.1762 7.32857 53.9795 7.73572 55.1301 8.1L58.213 9.06429C59.7762 9.55714 60.9051 10.2429 61.5782 11.1214C62.2512 12 62.5768 13.0071 62.5768 14.1214C62.5768 15.0429 62.3815 15.8786 62.0124 16.6071C61.6216 17.3357 61.1005 17.9786 60.4275 18.4929C59.7545 19.0286 58.9512 19.4143 58.0176 19.6929C57.0407 19.9929 56.0203 20.1429 54.913 20.1429Z" fill="white"/>
<path fill-rule="evenodd" clip-rule="evenodd" d="M59.0162 30.5571C51.8734 35.7643 41.4958 38.5286 32.5727 38.5286C20.0675 38.5286 8.79972 33.9643 0.289188 26.3786C-0.383838 25.7786 0.224056 24.9643 1.02735 25.4357C10.2326 30.7071 21.5872 33.9 33.3326 33.9C41.257 33.9 49.9629 32.2714 57.9741 28.9286C59.1681 28.3929 60.1885 29.7 59.0162 30.5571Z" fill="white"/>
<path fill-rule="evenodd" clip-rule="evenodd" d="M61.9906 27.214C61.0788 26.0569 55.9551 26.6569 53.6321 26.9355C52.9373 27.0212 52.8288 26.4212 53.4584 25.9712C57.54 23.1426 64.2485 23.9569 65.0301 24.8998C65.8117 25.864 64.813 32.4855 60.9919 35.6569C60.4057 36.1498 59.8413 35.8926 60.1018 35.2498C60.9702 33.1283 62.9025 28.3498 61.9906 27.214Z" fill="white"/>
</svg>
