<svg width="181" height="50" viewBox="0 0 181 50" fill="none" xmlns="http://www.w3.org/2000/svg">
<path d="M69.84 32.16C68.48 32.16 67.2933 31.8667 66.28 31.28C65.28 30.6933 64.5067 29.86 63.96 28.78C63.4267 27.6867 63.16 26.4067 63.16 24.94C63.16 23.4733 63.4267 22.2 63.96 21.12C64.5067 20.0267 65.28 19.1933 66.28 18.62C67.2933 18.0333 68.48 17.74 69.84 17.74C70.8 17.74 71.6933 17.8933 72.52 18.2C73.3467 18.4933 74.0467 18.92 74.62 19.48L73.9 21C73.2467 20.4533 72.5933 20.06 71.94 19.82C71.3 19.58 70.6067 19.46 69.86 19.46C68.3933 19.46 67.26 19.9333 66.46 20.88C65.6733 21.8267 65.28 23.18 65.28 24.94C65.28 26.7 65.6733 28.06 66.46 29.02C67.26 29.9667 68.3933 30.44 69.86 30.44C70.6067 30.44 71.3 30.32 71.94 30.08C72.5933 29.84 73.2467 29.4467 73.9 28.9L74.62 30.42C74.0467 30.98 73.3467 31.4133 72.52 31.72C71.6933 32.0133 70.8 32.16 69.84 32.16ZM80.9798 32.14C80.0198 32.14 79.1732 31.9333 78.4398 31.52C77.7198 31.1067 77.1598 30.52 76.7598 29.76C76.3732 28.9867 76.1798 28.0933 76.1798 27.08C76.1798 26.0533 76.3732 25.16 76.7598 24.4C77.1598 23.6267 77.7198 23.0333 78.4398 22.62C79.1732 22.2067 80.0198 22 80.9798 22C81.9398 22 82.7798 22.2067 83.4998 22.62C84.2332 23.0333 84.7932 23.6267 85.1798 24.4C85.5798 25.16 85.7798 26.0533 85.7798 27.08C85.7798 28.0933 85.5798 28.9867 85.1798 29.76C84.7932 30.52 84.2332 31.1067 83.4998 31.52C82.7798 31.9333 81.9398 32.14 80.9798 32.14ZM80.9798 30.54C81.8732 30.54 82.5532 30.2467 83.0198 29.66C83.4998 29.0733 83.7398 28.2133 83.7398 27.08C83.7398 25.96 83.4998 25.1067 83.0198 24.52C82.5398 23.92 81.8598 23.62 80.9798 23.62C80.0998 23.62 79.4198 23.92 78.9398 24.52C78.4598 25.1067 78.2198 25.96 78.2198 27.08C78.2198 28.2133 78.4532 29.0733 78.9198 29.66C79.3998 30.2467 80.0865 30.54 80.9798 30.54ZM91.4689 32.14C89.7756 32.14 88.4222 31.7267 87.4089 30.9L88.0289 29.44C89.0289 30.2133 90.1956 30.6 91.5289 30.6C92.1822 30.6 92.6822 30.4933 93.0289 30.28C93.3756 30.0533 93.5489 29.74 93.5489 29.34C93.5489 28.9933 93.4289 28.72 93.1889 28.52C92.9622 28.32 92.5622 28.1533 91.9889 28.02L90.3689 27.66C89.5022 27.46 88.8489 27.1333 88.4089 26.68C87.9689 26.2267 87.7489 25.6533 87.7489 24.96C87.7489 24.08 88.1022 23.3667 88.8089 22.82C89.5289 22.2733 90.4689 22 91.6289 22C92.3222 22 92.9822 22.1133 93.6089 22.34C94.2356 22.5533 94.7756 22.86 95.2289 23.26L94.6089 24.68C93.6489 23.92 92.6556 23.54 91.6289 23.54C91.0156 23.54 90.5289 23.66 90.1689 23.9C89.8222 24.14 89.6489 24.4667 89.6489 24.88C89.6489 25.2133 89.7556 25.4867 89.9689 25.7C90.1956 25.9 90.5489 26.0533 91.0289 26.16L92.6889 26.54C93.6356 26.7533 94.3289 27.0867 94.7689 27.54C95.2089 27.98 95.4289 28.56 95.4289 29.28C95.4289 30.16 95.0689 30.86 94.3489 31.38C93.6422 31.8867 92.6822 32.14 91.4689 32.14ZM108.877 22C111.064 22 112.157 23.3133 112.157 25.94V32H110.137V26.02C110.137 25.1933 109.991 24.5933 109.697 24.22C109.417 23.8333 108.957 23.64 108.317 23.64C107.584 23.64 107.004 23.8933 106.577 24.4C106.151 24.9067 105.937 25.6 105.937 26.48V32H103.917V26.02C103.917 25.1933 103.771 24.5933 103.477 24.22C103.184 23.8333 102.724 23.64 102.097 23.64C101.351 23.64 100.764 23.8933 100.337 24.4C99.9107 24.9067 99.6973 25.6 99.6973 26.48V32H97.6773V22.24H99.6573V23.72C99.964 23.1733 100.377 22.7533 100.897 22.46C101.417 22.1533 102.011 22 102.677 22C104.184 22 105.164 22.6267 105.617 23.88C105.924 23.2933 106.364 22.8333 106.937 22.5C107.511 22.1667 108.157 22 108.877 22ZM119.163 32.14C118.203 32.14 117.357 31.9333 116.623 31.52C115.903 31.1067 115.343 30.52 114.943 29.76C114.557 28.9867 114.363 28.0933 114.363 27.08C114.363 26.0533 114.557 25.16 114.943 24.4C115.343 23.6267 115.903 23.0333 116.623 22.62C117.357 22.2067 118.203 22 119.163 22C120.123 22 120.963 22.2067 121.683 22.62C122.417 23.0333 122.977 23.6267 123.363 24.4C123.763 25.16 123.963 26.0533 123.963 27.08C123.963 28.0933 123.763 28.9867 123.363 29.76C122.977 30.52 122.417 31.1067 121.683 31.52C120.963 31.9333 120.123 32.14 119.163 32.14ZM119.163 30.54C120.057 30.54 120.737 30.2467 121.203 29.66C121.683 29.0733 121.923 28.2133 121.923 27.08C121.923 25.96 121.683 25.1067 121.203 24.52C120.723 23.92 120.043 23.62 119.163 23.62C118.283 23.62 117.603 23.92 117.123 24.52C116.643 25.1067 116.403 25.96 116.403 27.08C116.403 28.2133 116.637 29.0733 117.103 29.66C117.583 30.2467 118.27 30.54 119.163 30.54ZM129.653 32.14C127.959 32.14 126.606 31.7267 125.593 30.9L126.213 29.44C127.213 30.2133 128.379 30.6 129.713 30.6C130.366 30.6 130.866 30.4933 131.213 30.28C131.559 30.0533 131.733 29.74 131.733 29.34C131.733 28.9933 131.613 28.72 131.373 28.52C131.146 28.32 130.746 28.1533 130.173 28.02L128.553 27.66C127.686 27.46 127.033 27.1333 126.593 26.68C126.153 26.2267 125.933 25.6533 125.933 24.96C125.933 24.08 126.286 23.3667 126.993 22.82C127.713 22.2733 128.653 22 129.812 22C130.506 22 131.166 22.1133 131.793 22.34C132.419 22.5533 132.959 22.86 133.413 23.26L132.793 24.68C131.833 23.92 130.839 23.54 129.812 23.54C129.199 23.54 128.713 23.66 128.353 23.9C128.006 24.14 127.833 24.4667 127.833 24.88C127.833 25.2133 127.939 25.4867 128.153 25.7C128.379 25.9 128.733 26.0533 129.213 26.16L130.873 26.54C131.819 26.7533 132.513 27.0867 132.953 27.54C133.393 27.98 133.613 28.56 133.613 29.28C133.613 30.16 133.253 30.86 132.533 31.38C131.826 31.8867 130.866 32.14 129.653 32.14ZM145.994 32.16C144.901 32.16 143.894 32.0133 142.974 31.72C142.068 31.4267 141.288 30.9933 140.634 30.42L141.374 28.9C142.068 29.46 142.781 29.8667 143.514 30.12C144.261 30.36 145.094 30.48 146.014 30.48C147.068 30.48 147.881 30.2867 148.454 29.9C149.028 29.5 149.314 28.94 149.314 28.22C149.314 27.6067 149.048 27.1533 148.514 26.86C147.981 26.5533 147.128 26.2667 145.954 26C144.834 25.76 143.914 25.4867 143.194 25.18C142.474 24.8733 141.908 24.46 141.494 23.94C141.094 23.4067 140.894 22.7333 140.894 21.92C140.894 21.0933 141.108 20.3667 141.534 19.74C141.974 19.1133 142.594 18.6267 143.394 18.28C144.194 17.92 145.121 17.74 146.174 17.74C147.161 17.74 148.088 17.8933 148.954 18.2C149.834 18.4933 150.554 18.92 151.114 19.48L150.394 21C149.741 20.4667 149.068 20.0733 148.374 19.82C147.694 19.5533 146.968 19.42 146.194 19.42C145.181 19.42 144.381 19.6333 143.794 20.06C143.221 20.4733 142.934 21.0533 142.934 21.8C142.934 22.44 143.188 22.9267 143.694 23.26C144.201 23.58 145.014 23.8733 146.134 24.14C147.308 24.4067 148.254 24.6867 148.974 24.98C149.708 25.26 150.288 25.6533 150.714 26.16C151.154 26.6533 151.374 27.3 151.374 28.1C151.374 28.9133 151.154 29.6267 150.714 30.24C150.288 30.8533 149.668 31.3267 148.854 31.66C148.054 31.9933 147.101 32.16 145.994 32.16ZM153.913 17.9H158.853C161.133 17.9 162.9 18.5133 164.153 19.74C165.407 20.9667 166.033 22.7 166.033 24.94C166.033 27.18 165.407 28.92 164.153 30.16C162.9 31.3867 161.133 32 158.853 32H153.913V17.9ZM158.733 30.28C162.2 30.28 163.933 28.5 163.933 24.94C163.933 21.3933 162.2 19.62 158.733 19.62H155.973V30.28H158.733ZM177.835 32L170.895 25.36V32H168.835V17.9H170.895V24.32L177.535 17.9H180.075L172.955 24.72L180.415 32H177.835Z" fill="white"/>
<path d="M25 50C38.8071 50 50 38.8071 50 25C50 11.1929 38.8071 0 25 0C11.1929 0 0 11.1929 0 25C0 38.8071 11.1929 50 25 50Z" fill="white" fill-opacity="0.12"/>
<path d="M25.0003 39.506C33.0118 39.506 39.5065 33.0114 39.5065 24.9998C39.5065 16.9883 33.0118 10.4937 25.0003 10.4937C16.9888 10.4937 10.4941 16.9883 10.4941 24.9998C10.4941 33.0114 16.9888 39.506 25.0003 39.506Z" fill="#747474"/>
<path d="M25.0509 3.18945C22.3523 3.18945 20.1641 12.9775 20.1641 25.0516C20.1641 37.1257 22.3523 46.9137 25.0509 46.9137C27.7495 46.9137 29.9377 37.1257 29.9377 25.0516C29.9377 12.9775 27.7495 3.18945 25.0509 3.18945ZM25.3884 45.6792C25.0797 46.0907 24.7711 45.782 24.7711 45.782C23.5283 44.3417 22.9069 41.6668 22.9069 41.6668C20.733 34.6709 21.2505 19.6504 21.2505 19.6504C22.2721 7.72546 24.1311 4.90859 24.7628 4.28307C24.8275 4.21937 24.9126 4.18052 25.0031 4.17337C25.0937 4.16622 25.1838 4.19122 25.2577 4.24398C26.1754 4.89419 26.9449 7.61332 26.9449 7.61332C29.2176 16.0495 29.0118 23.9713 29.0118 23.9713C29.2176 30.8643 27.8729 38.5804 27.8729 38.5804C26.8379 44.4446 25.3884 45.6792 25.3884 45.6792Z" fill="#FEFEFE"/>
<path d="M44.015 14.1716C42.6714 11.83 33.0932 14.8033 22.6158 20.8125C12.1385 26.8218 4.74649 33.5903 6.08908 35.9308C7.43168 38.2714 17.0109 35.2991 27.4882 29.2899C37.9656 23.2806 45.3576 16.5121 44.015 14.1716ZM7.32777 35.6088C6.81336 35.544 6.92962 35.1212 6.92962 35.1212C7.56028 33.3269 9.56851 31.4566 9.56851 31.4566C14.5572 26.0893 27.8442 19.0635 27.8442 19.0635C38.695 14.0152 42.0654 14.2282 42.9203 14.4627C43.0082 14.4871 43.0847 14.5417 43.1361 14.6171C43.1875 14.6924 43.2106 14.7835 43.2012 14.8742C43.0983 15.9936 41.1179 18.0142 41.1179 18.0142C34.9347 24.187 27.9605 27.9514 27.9605 27.9514C22.0839 31.5615 14.7218 34.2333 14.7218 34.2333C9.11995 36.2518 7.32777 35.6088 7.32777 35.6088Z" fill="#FEFEFE"/>
<path d="M43.9679 36.0082C45.3218 33.6728 37.9494 26.8724 27.507 20.8189C17.0646 14.7654 7.48952 11.7551 6.13664 14.0946C4.78376 16.4341 12.1552 23.2304 22.6027 29.2839C33.0502 35.3374 42.615 38.3477 43.9679 36.0082ZM7.03376 14.9968C6.83315 14.5226 7.25599 14.4084 7.25599 14.4084C9.12533 14.0555 11.7508 14.859 11.7508 14.859C18.8938 16.4855 31.6305 24.4639 31.6305 24.4639C41.4371 31.3261 42.9412 34.3487 43.1665 35.2067C43.1894 35.2947 43.1805 35.388 43.1413 35.4701C43.1022 35.5521 43.0353 35.6177 42.9525 35.6553C41.9299 36.1234 39.1912 35.4259 39.1912 35.4259C30.7498 33.1625 23.9988 29.0154 23.9988 29.0154C17.9329 25.7438 11.935 20.7098 11.935 20.7098C7.37738 16.8724 7.03582 15.001 7.03582 15.001L7.03376 14.9968Z" fill="#FEFEFE"/>
<path d="M24.9997 27.5722C26.4202 27.5722 27.5718 26.4207 27.5718 25.0002C27.5718 23.5798 26.4202 22.4282 24.9997 22.4282C23.5793 22.4282 22.4277 23.5798 22.4277 25.0002C22.4277 26.4207 23.5793 27.5722 24.9997 27.5722Z" fill="white"/>
<path d="M35.5445 16.6665C36.3684 16.6665 37.0363 15.9756 37.0363 15.1233C37.0363 14.271 36.3684 13.5801 35.5445 13.5801C34.7206 13.5801 34.0527 14.271 34.0527 15.1233C34.0527 15.9756 34.7206 16.6665 35.5445 16.6665Z" fill="white"/>
<path d="M11.0601 21.9136C11.884 21.9136 12.5519 21.2226 12.5519 20.3704C12.5519 19.5181 11.884 18.8271 11.0601 18.8271C10.2362 18.8271 9.56836 19.5181 9.56836 20.3704C9.56836 21.2226 10.2362 21.9136 11.0601 21.9136Z" fill="white"/>
<path d="M21.9644 40.8437C22.7883 40.8437 23.4562 40.1528 23.4562 39.3005C23.4562 38.4482 22.7883 37.7573 21.9644 37.7573C21.1405 37.7573 20.4727 38.4482 20.4727 39.3005C20.4727 40.1528 21.1405 40.8437 21.9644 40.8437Z" fill="white"/>
</svg>
