<svg width="147" height="40" viewBox="0 0 147 40" fill="none" xmlns="http://www.w3.org/2000/svg">
<path d="M145.175 19.3885C143.634 19.3926 142.133 19.9325 141.021 20.9729C139.266 22.4204 138.886 24.249 138.908 26.5597L138.959 31.8115M112.303 31.7608L112.293 25.6254L112.262 14.6652L112.303 31.7608ZM118.468 19.3883L112.293 25.625L118.499 31.7805L118.468 19.3883ZM77.1259 25.7071C77.1557 24.3915 76.773 23.0472 75.9984 21.9588C74.8821 20.3912 73.0745 19.3182 71.0921 19.2975C70.9601 19.2975 70.829 19.2975 70.696 19.3076C69.9122 19.3561 69.1531 19.4649 68.4815 19.7445C64.0644 21.5824 63.2818 27.7163 67.0085 30.4919C70.236 32.8924 74.9308 31.914 76.5567 28.2473C76.9 27.4724 77.1257 26.4956 77.1257 25.7075V14.6152L77.1259 25.7071ZM106.929 20.0292C106.017 19.4382 104.948 19.225 103.892 19.2267C103.777 19.2267 103.66 19.2325 103.557 19.2368C100.505 19.3681 97.6755 21.5245 97.6755 25.7073C97.6755 30.6525 102.978 33.3214 106.942 30.9893L106.929 20.0292ZM124.738 30.4508L134.114 22.4161C134.114 22.4161 133.886 21.9847 133.738 21.7864C132.476 20.0926 130.545 19.2466 128.517 19.2466C123.5 19.2466 119.735 25.7371 124.738 30.4508C125.085 30.7773 125.56 31.033 126.089 31.2533C127.925 32.0186 130.438 31.956 131.798 30.9485L124.738 30.4508ZM87.3874 19.2666C87.245 19.269 87.1036 19.2843 86.9608 19.287C83.1547 19.359 80.4106 23.3103 81.2419 26.9765C82.0521 30.5492 85.9552 32.6649 89.3275 31.4967C93.2548 30.4645 94.856 25.5193 92.6998 22.1821C91.5204 20.3576 89.5215 19.2262 87.3874 19.2668V19.2666Z" stroke="white" stroke-width="1.93892" stroke-linecap="round" stroke-linejoin="round"/>
<path d="M35.405 15.5549H40.8941V21.1663H43.6697C44.9516 21.1663 46.2695 20.9382 47.4835 20.5267C48.0798 20.3246 48.7493 20.043 49.3377 19.6865C48.5627 18.6749 48.1671 17.3974 48.051 16.1385C47.8925 14.4259 48.2382 12.1968 49.3953 10.8563L49.9724 10.1889L50.6599 10.7416C52.3883 12.1324 53.8469 14.0783 54.1035 16.2912C56.1879 15.6781 58.6353 15.8231 60.4722 16.8834L61.226 17.3184L60.8292 18.0928C59.2774 21.1278 56.0288 22.0672 52.8528 21.9008C48.1006 33.738 37.754 39.3417 25.2088 39.3417C18.7273 39.3417 12.7811 36.9188 9.39486 31.1685C9.19634 30.8113 9.02638 30.4377 8.84609 30.0709C7.7015 27.5398 7.32125 24.7669 7.57907 21.9961L7.65637 21.1663H12.3504V15.5549H17.8396V10.0658H28.8178V4.57666H35.405V15.5549Z" fill="white"/>
<path d="M29.7344 0H34.4918V4.7572H29.7344V0Z" fill="white" fill-opacity="0.49"/>
<path d="M29.7344 5.4917H34.4918V10.2491H29.7344V5.4917Z" fill="white" fill-opacity="0.19"/>
<path d="M30.3184 4.36345V0.398438V4.36345ZM31.0318 4.36321V0.398438V4.36321ZM31.7525 4.36321V0.398438V4.36321ZM32.4733 4.36321V0.398438V4.36321ZM33.1942 4.36321V0.398438V4.36321ZM33.9072 4.36321V0.398438V4.36321Z" fill="white"/>
<path d="M33.9072 4.36321V0.398438M30.3184 4.36345V0.398438V4.36345ZM31.0318 4.36321V0.398438V4.36321ZM31.7525 4.36321V0.398438V4.36321ZM32.4733 4.36321V0.398438V4.36321ZM33.1942 4.36321V0.398438V4.36321Z" stroke="white" stroke-width="0.288068"/>
<path d="M53.1894 17.6313C53.5574 14.771 51.4168 12.5241 50.0893 11.4575C48.5594 13.2263 48.3217 17.8618 50.7218 19.8132C49.3823 21.0029 46.56 22.0812 43.6699 22.0812H8.16194C7.88107 25.098 8.16194 39.6253 8.16194 39.6253H60.2542L60.0173 17.6783C57.7608 16.3763 54.8599 16.7916 53.1894 17.6311" fill="white" fill-opacity="0.35"/>
<path d="M8.16211 25.9419V39.6251H60.2544V25.9419" fill="black" fill-opacity="0.17"/>
<path d="M26.7034 38.4006C23.453 36.8582 21.6689 34.7614 20.6763 32.4727L10.8027 32.9033L15.8439 39.6249L26.7034 38.4006Z" fill="white" fill-opacity="0.53"/>
<path d="M53.4128 17.5249V17.5321C48.4052 23.9897 41.222 29.6262 33.5107 32.5885C26.6318 35.231 20.6345 35.2435 16.4966 33.1214C16.0511 32.8698 15.6142 32.5904 15.1763 32.3264C12.1427 30.2062 10.4342 26.6994 10.5778 22.079H8.16211V39.625H60.2544V16.5796H54.253L53.4128 17.5249Z" fill="black" fill-opacity="0.085"/>
<path d="M10.9531 32.6709C14.3535 32.857 17.9825 32.8903 21.1483 31.8979" stroke="white" stroke-width="0.627841" stroke-linecap="round"/>
<path d="M24.5274 30.2535C24.5272 30.6016 24.3888 30.9353 24.1428 31.1813C23.8967 31.4274 23.563 31.5657 23.215 31.5659C22.8669 31.5658 22.5332 31.4275 22.287 31.1814C22.0409 30.9353 21.9025 30.6016 21.9023 30.2535C21.9025 29.9055 22.0408 29.5717 22.2869 29.3255C22.5331 29.0794 22.8669 28.941 23.215 28.9409C23.563 28.9411 23.8968 29.0795 24.1428 29.3256C24.3889 29.5717 24.5272 29.9055 24.5274 30.2535Z" fill="white" fill-opacity="0.53"/>
<path d="M23.5544 29.3768C23.4817 29.4193 23.425 29.4845 23.3931 29.5623C23.3611 29.6402 23.3555 29.7264 23.3773 29.8077C23.399 29.889 23.4469 29.9609 23.5135 30.0123C23.5801 30.0638 23.6618 30.0919 23.7459 30.0924C23.8912 30.0924 24.0172 30.0118 24.0825 29.8927C24.1286 30.0036 24.154 30.1256 24.154 30.2533C24.154 30.7723 23.7332 31.1931 23.214 31.1931C22.6947 31.1931 22.2739 30.7723 22.2739 30.2533C22.2741 30.004 22.3732 29.765 22.5494 29.5887C22.7257 29.4124 22.9647 29.3132 23.214 29.313C23.3304 29.3129 23.4458 29.3344 23.5544 29.3766V29.3768ZM0 26.221H61.0529C59.7235 25.8838 56.8471 25.4284 57.3212 23.686C54.9038 26.4832 49.0746 25.6483 47.6037 24.2694C45.9653 26.6455 36.4279 25.7424 35.7627 23.8913C33.7088 26.3015 27.3446 26.3015 25.2907 23.8913C24.6253 25.7397 15.0883 26.6455 13.4494 24.2694C11.9783 25.6487 6.15169 26.4834 3.73192 23.686C4.20627 25.4284 1.32991 25.884 0 26.221Z" fill="white"/>
</svg>
