<svg width="119" height="43" viewBox="0 0 119 43" fill="none" xmlns="http://www.w3.org/2000/svg">
<path d="M37.2957 10.9245C44.8743 18.6154 44.4458 30.0494 37.1399 37.2593C29.8339 44.4693 18.4035 44.7383 10.8248 37.0474C3.24621 29.3565 6.50097 11.4647 0.000549702 0.00970647C11.4845 6.75017 29.717 3.2336 37.2957 10.9245Z" fill="black"/>
<path opacity="0.75" d="M10.4991 12.7493C11.0558 10.099 13.6552 9.17908 15.9866 8.86034C20.1906 8.24657 28.0922 8.68152 31.256 10.2827C37.7325 13.0854 38.7684 16.8786 39.5812 20.0402C40.5543 23.3977 39.4284 26.7339 37.1078 28.3348C34.0534 30.8622 29.21 30.9511 25.1672 28.365C20.5496 25.727 16.6148 21.7083 12.6454 17.9441C11.3553 16.5075 10.3193 14.5575 10.4991 12.7493Z" fill="url(#paint0_linear_1743_2448)"/>
<g filter="url(#filter0_f_1743_2448)">
<path d="M10.5459 36.1304C10.191 33.7856 11.4168 31.2988 13.9537 29.2172C16.4905 27.1355 20.1306 25.6295 24.0732 25.0305C28.0158 24.4314 31.9379 24.7884 34.9767 26.0228C38.0155 27.2573 39.9221 29.2681 40.277 31.6129C40.6319 33.9578 39.4061 36.4445 36.8693 38.5261C34.3324 40.6078 30.6923 42.1138 26.7497 42.7128C22.8071 43.3119 18.885 42.9549 15.8462 41.7205C12.8074 40.486 10.9008 38.4752 10.5459 36.1304Z" fill="url(#paint1_radial_1743_2448)"/>
</g>
<path d="M55.3121 18.5716C55.3121 19.1189 55.1781 19.6072 54.9102 20.0364C54.6422 20.4549 54.2295 20.6642 53.6721 20.6642C53.0719 20.6642 52.611 20.5086 52.2894 20.1974C51.9785 19.8862 51.8231 19.5428 51.8231 19.1672C51.8231 18.9311 51.8392 18.7165 51.8714 18.5233C51.9142 18.3302 51.9517 18.137 51.9839 17.9438C51.4801 17.9438 50.8906 18.1477 50.2153 18.5555C49.54 18.9633 48.9665 19.5428 48.4949 20.2939V29.5334C48.4949 29.909 48.5646 30.2149 48.7039 30.451C48.854 30.687 49.0844 30.8641 49.3953 30.9821C49.6633 31.0895 50.0063 31.1699 50.4243 31.2236C50.8531 31.2773 51.2229 31.3148 51.5337 31.3363V32.3987H43.173V31.3363C43.4195 31.3148 43.6714 31.2934 43.9286 31.2719C44.1966 31.2504 44.4271 31.2075 44.62 31.1431C44.9201 31.0465 45.1399 30.8802 45.2792 30.6441C45.4293 30.3973 45.5043 30.0807 45.5043 29.6944V19.8915C45.5043 19.5589 45.4239 19.2316 45.2631 18.9096C45.1131 18.5877 44.8987 18.3302 44.62 18.137C44.4163 18.0082 44.1752 17.917 43.8965 17.8633C43.6178 17.799 43.3177 17.756 42.9961 17.7346V16.6883L48.2698 16.3341L48.4949 16.5595V18.7969H48.5753C49.2399 17.9277 49.9795 17.2678 50.7941 16.817C51.6087 16.3664 52.3537 16.141 53.029 16.141C53.7043 16.141 54.251 16.361 54.669 16.801C55.0978 17.2409 55.3121 17.8312 55.3121 18.5716ZM64.316 32.3987H56.6467V31.3363C56.8932 31.3148 57.1451 31.2934 57.4023 31.2719C57.6703 31.2504 57.9008 31.2075 58.0937 31.1431C58.3938 31.0465 58.6136 30.8802 58.7529 30.6441C58.903 30.3973 58.978 30.0807 58.978 29.6944V19.8915C58.978 19.5481 58.8976 19.2369 58.7368 18.9579C58.5868 18.6682 58.3724 18.4267 58.0937 18.2336C57.89 18.1048 57.5953 17.9975 57.2094 17.9116C56.8235 17.8151 56.4698 17.756 56.1482 17.7346V16.6883L61.7435 16.3341L61.9686 16.5595V29.5012C61.9686 29.8768 62.0383 30.188 62.1776 30.4349C62.3277 30.6817 62.5581 30.8641 62.869 30.9821C63.1048 31.0787 63.3353 31.1592 63.5604 31.2236C63.7854 31.2773 64.0373 31.3148 64.316 31.3363V32.3987ZM62.2902 10.0725C62.2902 10.6842 62.0865 11.2208 61.6792 11.6822C61.2826 12.1329 60.7895 12.3583 60.2 12.3583C59.6533 12.3583 59.1763 12.1437 58.769 11.7144C58.3724 11.2744 58.1741 10.7754 58.1741 10.2174C58.1741 9.62721 58.3724 9.11211 58.769 8.67211C59.1763 8.23216 59.6533 8.01217 60.2 8.01215C60.8109 8.01217 61.3094 8.22143 61.6953 8.63992C62.0919 9.04773 62.2902 9.52526 62.2902 10.0725ZM78.7544 32.3987H65.9239V31.5455L74.8956 17.8311H72.6768C71.7442 17.8312 71.0154 17.8473 70.4901 17.8794C69.9649 17.9116 69.4825 18.019 69.0431 18.2014C68.7429 18.3194 68.4589 18.6575 68.1909 19.2155C67.9337 19.7735 67.7086 20.5032 67.5156 21.4046H66.5349V16.5273H78.658V17.1873L69.5415 31.0948C69.9274 31.1056 70.3508 31.1163 70.8117 31.127C71.2726 31.127 71.7711 31.127 72.307 31.127C72.7358 31.127 73.1806 31.1217 73.6415 31.1109C74.1131 31.1002 74.7134 31.0734 75.4423 31.0304C75.871 31.009 76.1926 30.8641 76.407 30.5958C76.6321 30.3276 76.8036 30.0217 76.9215 29.6783C77.0394 29.3671 77.1787 28.9379 77.3395 28.3906C77.511 27.8433 77.6611 27.3121 77.7897 26.797H78.7544V32.3987ZM93.4179 32.3987H80.5874V31.5455L89.5591 17.8311H87.3403C86.4077 17.8312 85.6789 17.8473 85.1536 17.8794C84.6284 17.9116 84.146 18.019 83.7066 18.2014C83.4064 18.3194 83.1224 18.6575 82.8544 19.2155C82.5972 19.7735 82.3721 20.5032 82.1791 21.4046H81.1984V16.5273H93.3215V17.1873L84.205 31.0948C84.5909 31.1056 85.0143 31.1163 85.4752 31.127C85.9361 31.127 86.4346 31.127 86.9705 31.127C87.3993 31.127 87.8441 31.1217 88.305 31.1109C88.7766 31.1002 89.3769 31.0734 90.1058 31.0304C90.5345 31.009 90.8561 30.8641 91.0705 30.5958C91.2956 30.3276 91.4671 30.0217 91.585 29.6783C91.7029 29.3671 91.8422 28.9379 92.003 28.3906C92.1745 27.8433 92.3246 27.3121 92.4532 26.797H93.4179V32.3987ZM102.952 32.3987H95.2187V31.3363C95.4653 31.3148 95.7279 31.2934 96.0066 31.2719C96.2852 31.2397 96.5157 31.1968 96.6979 31.1431C96.9981 31.0465 97.2231 30.8802 97.3732 30.6441C97.5233 30.3973 97.5983 30.0807 97.5983 29.6944V11.312C97.5983 10.9257 97.5126 10.5662 97.3411 10.2335C97.1803 9.89012 96.9659 9.62184 96.6979 9.42866C96.505 9.29991 96.1512 9.18187 95.6368 9.07453C95.1222 8.96724 94.7096 8.90286 94.3987 8.88137V7.85118L100.364 7.48096L100.589 7.72241V29.5012C100.589 29.8768 100.659 30.188 100.798 30.4349C100.937 30.6709 101.162 30.8534 101.473 30.9821C101.709 31.0895 101.939 31.1699 102.165 31.2236C102.4 31.2773 102.663 31.3148 102.952 31.3363V32.3987ZM118.999 28.6642C118.334 29.9305 117.444 30.9392 116.33 31.6904C115.215 32.4416 113.934 32.8172 112.487 32.8172C111.211 32.8172 110.091 32.5918 109.127 32.1411C108.173 31.6904 107.385 31.0787 106.763 30.3061C106.141 29.5334 105.675 28.632 105.364 27.6018C105.064 26.5717 104.914 25.4824 104.914 24.3342C104.914 23.304 105.075 22.2953 105.396 21.308C105.729 20.31 106.211 19.414 106.843 18.6199C107.454 17.858 108.21 17.2463 109.11 16.7849C110.022 16.3127 111.04 16.0766 112.165 16.0766C113.323 16.0766 114.314 16.259 115.14 16.6239C115.965 16.9888 116.635 17.4878 117.15 18.1209C117.643 18.7218 118.007 19.4301 118.243 20.2456C118.49 21.0612 118.613 21.9465 118.613 22.9016V23.964H108.114C108.114 25.0049 108.21 25.9492 108.403 26.797C108.607 27.6448 108.923 28.3906 109.352 29.0344C109.77 29.6569 110.316 30.1505 110.992 30.5153C111.667 30.8695 112.471 31.0465 113.403 31.0465C114.357 31.0465 115.177 30.8265 115.863 30.3866C116.56 29.9359 117.23 29.131 117.873 27.9721L118.999 28.6642ZM115.445 22.6119C115.445 22.0109 115.392 21.3671 115.285 20.6803C115.188 19.9935 115.027 19.4194 114.802 18.9579C114.556 18.4643 114.218 18.0619 113.789 17.7507C113.361 17.4395 112.808 17.2839 112.133 17.2839C111.008 17.2839 110.07 17.756 109.319 18.7004C108.58 19.634 108.178 20.9378 108.114 22.6119H115.445Z" fill="white"/>
<g filter="url(#filter1_f_1743_2448)">
<path d="M36.116 24.7967C36.116 26.739 35.7516 28.4238 35.0227 29.8511C34.2938 31.2783 33.3452 32.448 32.1768 33.3601C30.9977 34.2723 29.6739 34.9537 28.2055 35.4044C26.7369 35.8551 25.2202 36.0805 23.6553 36.0805H14.2012V34.9376C14.512 34.9376 14.914 34.9108 15.4071 34.8571C15.9108 34.7927 16.2431 34.723 16.4039 34.6479C16.7255 34.5084 16.9559 34.3045 17.0953 34.0362C17.2453 33.7572 17.3204 33.4245 17.3204 33.0382V16.5552C17.3204 16.1903 17.2561 15.863 17.1274 15.5733C17.0095 15.2836 16.7684 15.0528 16.4039 14.8811C16.0716 14.7202 15.7125 14.6021 15.3267 14.527C14.9408 14.4519 14.6085 14.4036 14.3298 14.3821V13.2393H24.2984C25.6704 13.2393 27.021 13.4539 28.3502 13.8831C29.6793 14.3017 30.8369 14.8704 31.8231 15.5894C33.1629 16.5445 34.2134 17.7946 34.9745 19.3399C35.7355 20.8852 36.116 22.7041 36.116 24.7967ZM32.1768 24.7806C32.1768 23.2461 31.9731 21.8617 31.5658 20.6276C31.1585 19.3829 30.5636 18.299 29.7811 17.3761C29.0415 16.4962 28.1304 15.804 27.0478 15.2996C25.9759 14.7953 24.7807 14.5431 23.4623 14.5431C23.0228 14.5431 22.5244 14.5538 21.967 14.5753C21.4204 14.586 21.013 14.5968 20.7451 14.6075V32.169C20.7451 33.1455 21.0291 33.8216 21.5972 34.1972C22.1653 34.5728 23.0389 34.7605 24.218 34.7605C25.5793 34.7605 26.7691 34.5191 27.7874 34.0362C28.8057 33.5533 29.6311 32.8826 30.2635 32.0241C30.928 31.1227 31.4104 30.0818 31.7105 28.9013C32.0214 27.7102 32.1768 26.3366 32.1768 24.7806Z" fill="white"/>
<path d="M36.116 24.7967C36.116 26.739 35.7516 28.4238 35.0227 29.8511C34.2938 31.2783 33.3452 32.448 32.1768 33.3601C30.9977 34.2723 29.6739 34.9537 28.2055 35.4044C26.7369 35.8551 25.2202 36.0805 23.6553 36.0805H14.2012V34.9376C14.512 34.9376 14.914 34.9108 15.4071 34.8571C15.9108 34.7927 16.2431 34.723 16.4039 34.6479C16.7255 34.5084 16.9559 34.3045 17.0953 34.0362C17.2453 33.7572 17.3204 33.4245 17.3204 33.0382V16.5552C17.3204 16.1903 17.2561 15.863 17.1274 15.5733C17.0095 15.2836 16.7684 15.0528 16.4039 14.8811C16.0716 14.7202 15.7125 14.6021 15.3267 14.527C14.9408 14.4519 14.6085 14.4036 14.3298 14.3821V13.2393H24.2984C25.6704 13.2393 27.021 13.4539 28.3502 13.8831C29.6793 14.3017 30.8369 14.8704 31.8231 15.5894C33.1629 16.5445 34.2134 17.7946 34.9745 19.3399C35.7355 20.8852 36.116 22.7041 36.116 24.7967ZM32.1768 24.7806C32.1768 23.2461 31.9731 21.8617 31.5658 20.6276C31.1585 19.3829 30.5636 18.299 29.7811 17.3761C29.0415 16.4962 28.1304 15.804 27.0478 15.2996C25.9759 14.7953 24.7807 14.5431 23.4623 14.5431C23.0228 14.5431 22.5244 14.5538 21.967 14.5753C21.4204 14.586 21.013 14.5968 20.7451 14.6075V32.169C20.7451 33.1455 21.0291 33.8216 21.5972 34.1972C22.1653 34.5728 23.0389 34.7605 24.218 34.7605C25.5793 34.7605 26.7691 34.5191 27.7874 34.0362C28.8057 33.5533 29.6311 32.8826 30.2635 32.0241C30.928 31.1227 31.4104 30.0818 31.7105 28.9013C32.0214 27.7102 32.1768 26.3366 32.1768 24.7806Z" stroke="white" stroke-width="8"/>
</g>
<path d="M36.116 24.7967C36.116 26.739 35.7516 28.4238 35.0227 29.8511C34.2938 31.2783 33.3452 32.448 32.1768 33.3601C30.9977 34.2723 29.6739 34.9537 28.2055 35.4044C26.737 35.8551 25.2202 36.0805 23.6553 36.0805H14.2012V34.9376C14.512 34.9376 14.914 34.9108 15.4071 34.8571C15.9108 34.7928 16.2431 34.723 16.4039 34.6479C16.7255 34.5084 16.9559 34.3045 17.0953 34.0362C17.2453 33.7572 17.3204 33.4245 17.3204 33.0382V16.5552C17.3204 16.1903 17.2561 15.863 17.1274 15.5733C17.0095 15.2836 16.7684 15.0528 16.4039 14.8811C16.0716 14.7202 15.7125 14.6021 15.3267 14.527C14.9408 14.4519 14.6085 14.4036 14.3298 14.3821V13.2393H24.2984C25.6704 13.2393 27.021 13.4539 28.3502 13.8831C29.6793 14.3017 30.8369 14.8704 31.8231 15.5894C33.1629 16.5445 34.2134 17.7946 34.9745 19.3399C35.7355 20.8852 36.116 22.7041 36.116 24.7967ZM32.1768 24.7806C32.1768 23.2461 31.9731 21.8617 31.5658 20.6276C31.1585 19.3829 30.5636 18.299 29.7811 17.3761C29.0415 16.4962 28.1304 15.804 27.0478 15.2996C25.9759 14.7953 24.7807 14.5431 23.4623 14.5431C23.0228 14.5431 22.5244 14.5538 21.967 14.5753C21.4204 14.586 21.013 14.5968 20.7451 14.6075V32.169C20.7451 33.1455 21.0291 33.8216 21.5972 34.1972C22.1653 34.5728 23.0389 34.7606 24.218 34.7606C25.5793 34.7606 26.7691 34.5191 27.7874 34.0362C28.8057 33.5533 29.6311 32.8826 30.2635 32.0241C30.928 31.1227 31.4104 30.0818 31.7105 28.9013C32.0214 27.7102 32.1768 26.3366 32.1768 24.7806Z" fill="white"/>
<defs>
<filter id="filter0_f_1743_2448" x="-6.3197" y="7.94055" width="63.4636" height="51.8625" filterUnits="userSpaceOnUse" color-interpolation-filters="sRGB">
<feFlood flood-opacity="0" result="BackgroundImageFix"/>
<feBlend mode="normal" in="SourceGraphic" in2="BackgroundImageFix" result="shape"/>
<feGaussianBlur stdDeviation="8.40301" result="effect1_foregroundBlur_1743_2448"/>
</filter>
<filter id="filter1_f_1743_2448" x="3.96049" y="2.99858" width="42.3954" height="43.3227" filterUnits="userSpaceOnUse" color-interpolation-filters="sRGB">
<feFlood flood-opacity="0" result="BackgroundImageFix"/>
<feBlend mode="normal" in="SourceGraphic" in2="BackgroundImageFix" result="shape"/>
<feGaussianBlur stdDeviation="3.12034" result="effect1_foregroundBlur_1743_2448"/>
</filter>
<linearGradient id="paint0_linear_1743_2448" x1="19.2411" y1="7.71466" x2="23.0974" y2="20.8396" gradientUnits="userSpaceOnUse">
<stop stop-color="white"/>
<stop offset="1" stop-color="white" stop-opacity="0"/>
</linearGradient>
<radialGradient id="paint1_radial_1743_2448" cx="0" cy="0" r="1" gradientUnits="userSpaceOnUse" gradientTransform="translate(25.4115 33.8717) rotate(171.36) scale(15.0362 8.94188)">
<stop stop-color="white" stop-opacity="0.8"/>
<stop offset="1" stop-color="white" stop-opacity="0"/>
</radialGradient>
</defs>
</svg>
