<svg width="131" height="50" viewBox="0 0 131 50" fill="none" xmlns="http://www.w3.org/2000/svg">
<path d="M44.2552 17.9H53.4152V19.56H46.2752V24H53.0152V25.68H46.2752V30.34H53.4152V32H44.2552V17.9ZM60.3345 30.58C60.6411 30.58 60.9411 30.56 61.2345 30.52L61.1345 32.06C60.8011 32.1133 60.4545 32.14 60.0945 32.14C58.8278 32.14 57.8811 31.8333 57.2545 31.22C56.6411 30.5933 56.3345 29.6933 56.3345 28.52V23.8H54.4345V22.24H56.3345V19.3H58.3545V22.24H61.0345V23.8H58.3545V28.44C58.3545 29.8667 59.0145 30.58 60.3345 30.58ZM68.0252 22C70.3586 22 71.5252 23.3133 71.5252 25.94V32H69.5052V26.04C69.5052 25.2133 69.3386 24.6067 69.0052 24.22C68.6852 23.8333 68.1786 23.64 67.4852 23.64C66.6719 23.64 66.0186 23.8933 65.5252 24.4C65.0319 24.9067 64.7852 25.5867 64.7852 26.44V32H62.7652V17.9H64.7852V23.72C65.1186 23.16 65.5652 22.7333 66.1252 22.44C66.6852 22.1467 67.3186 22 68.0252 22ZM82.6487 27.46H75.7487C75.8953 29.5267 76.922 30.56 78.8287 30.56C79.9487 30.56 80.962 30.1933 81.8687 29.46L82.4887 30.88C82.0353 31.2667 81.4753 31.5733 80.8087 31.8C80.142 32.0267 79.462 32.14 78.7687 32.14C77.2087 32.14 75.9753 31.6933 75.0687 30.8C74.1753 29.9067 73.7287 28.6733 73.7287 27.1C73.7287 26.1 73.922 25.2133 74.3087 24.44C74.7087 23.6667 75.262 23.0667 75.9687 22.64C76.6887 22.2133 77.502 22 78.4087 22C79.7287 22 80.762 22.4267 81.5087 23.28C82.2687 24.1333 82.6487 25.3133 82.6487 26.82V27.46ZM78.4487 23.48C77.6753 23.48 77.0553 23.7267 76.5887 24.22C76.1353 24.7 75.862 25.3933 75.7687 26.3H80.9087C80.8687 25.3933 80.6353 24.7 80.2087 24.22C79.7953 23.7267 79.2087 23.48 78.4487 23.48ZM90.8146 23.7L89.5946 23.82C88.6346 23.9133 87.9413 24.2067 87.5146 24.7C87.1013 25.1933 86.8946 25.82 86.8946 26.58V32H84.8746V22.24H86.8346V23.94C87.3546 22.7933 88.4146 22.16 90.0146 22.04L90.6746 22L90.8146 23.7ZM100.364 27.46H93.4635C93.6102 29.5267 94.6368 30.56 96.5435 30.56C97.6635 30.56 98.6768 30.1933 99.5835 29.46L100.204 30.88C99.7502 31.2667 99.1902 31.5733 98.5235 31.8C97.8568 32.0267 97.1768 32.14 96.4835 32.14C94.9235 32.14 93.6902 31.6933 92.7835 30.8C91.8902 29.9067 91.4435 28.6733 91.4435 27.1C91.4435 26.1 91.6368 25.2133 92.0235 24.44C92.4235 23.6667 92.9768 23.0667 93.6835 22.64C94.4035 22.2133 95.2168 22 96.1235 22C97.4435 22 98.4768 22.4267 99.2235 23.28C99.9835 24.1333 100.364 25.3133 100.364 26.82V27.46ZM96.1635 23.48C95.3902 23.48 94.7702 23.7267 94.3035 24.22C93.8502 24.7 93.5768 25.3933 93.4835 26.3H98.6235C98.5835 25.3933 98.3502 24.7 97.9235 24.22C97.5102 23.7267 96.9235 23.48 96.1635 23.48ZM111.149 22.24V32H109.189V30.42C108.883 30.98 108.456 31.4067 107.909 31.7C107.376 31.9933 106.776 32.14 106.109 32.14C103.736 32.14 102.549 30.8333 102.549 28.22V22.24H104.569V28.2C104.569 28.9867 104.729 29.5667 105.049 29.94C105.369 30.3133 105.863 30.5 106.529 30.5C107.316 30.5 107.943 30.2467 108.409 29.74C108.889 29.2333 109.129 28.56 109.129 27.72V22.24H111.149ZM125.176 22C127.363 22 128.456 23.3133 128.456 25.94V32H126.436V26.02C126.436 25.1933 126.29 24.5933 125.996 24.22C125.716 23.8333 125.256 23.64 124.616 23.64C123.883 23.64 123.303 23.8933 122.876 24.4C122.45 24.9067 122.236 25.6 122.236 26.48V32H120.216V26.02C120.216 25.1933 120.07 24.5933 119.776 24.22C119.483 23.8333 119.023 23.64 118.396 23.64C117.65 23.64 117.063 23.8933 116.636 24.4C116.21 24.9067 115.996 25.6 115.996 26.48V32H113.976V22.24H115.956V23.72C116.263 23.1733 116.676 22.7533 117.196 22.46C117.716 22.1533 118.31 22 118.976 22C120.483 22 121.463 22.6267 121.916 23.88C122.223 23.2933 122.663 22.8333 123.236 22.5C123.81 22.1667 124.456 22 125.176 22Z" fill="white"/>
<g clip-path="url(#clip0_1745_2664)">
<path d="M15.3029 0L14.9688 1.13909V34.1928L15.3029 34.5273L30.6033 25.458L15.3029 0Z" fill="white"/>
<path d="M15.3023 0L0.00195312 25.458L15.3023 34.5275V18.4842V0Z" fill="white"/>
<path d="M15.3016 37.4324L15.1133 37.6626V49.4371L15.3016 49.9887L30.6112 28.3677L15.3016 37.4324Z" fill="white"/>
<path d="M15.3023 49.9888V37.4324L0.00195312 28.3677L15.3023 49.9888Z" fill="white"/>
<path d="M15.3027 34.5274L30.6029 25.4582L15.3027 18.4844V34.5274Z" fill="#E3E3E3"/>
<path d="M0.00195312 25.4582L15.3021 34.5275V18.4844L0.00195312 25.4582Z" fill="#B9B9B9"/>
</g>
<defs>
<clipPath id="clip0_1745_2664">
<rect width="30.6144" height="50" fill="white"/>
</clipPath>
</defs>
</svg>
