<svg width="137" height="50" viewBox="0 0 137 50" fill="none" xmlns="http://www.w3.org/2000/svg">
<path d="M69.3652 24.52V31.16C68.7652 31.4667 68.0118 31.7133 67.1052 31.9C66.1985 32.0733 65.2785 32.16 64.3452 32.16C62.9185 32.16 61.6852 31.8733 60.6452 31.3C59.6052 30.7267 58.8118 29.9 58.2652 28.82C57.7185 27.74 57.4452 26.4467 57.4452 24.94C57.4452 23.46 57.7185 22.18 58.2652 21.1C58.8118 20.0067 59.5918 19.1733 60.6052 18.6C61.6318 18.0267 62.8385 17.74 64.2252 17.74C65.2252 17.74 66.1452 17.8867 66.9852 18.18C67.8252 18.4733 68.5385 18.9 69.1252 19.46L68.3852 20.98C67.7185 20.4333 67.0585 20.04 66.4052 19.8C65.7518 19.56 65.0318 19.44 64.2452 19.44C62.7252 19.44 61.5585 19.9133 60.7452 20.86C59.9452 21.7933 59.5452 23.1533 59.5452 24.94C59.5452 26.7667 59.9585 28.1533 60.7852 29.1C61.6118 30.0333 62.8185 30.5 64.4052 30.5C65.4452 30.5 66.4718 30.3467 67.4852 30.04V26.08H64.2052V24.52H69.3652ZM76.3159 22C77.6226 22 78.5893 22.3267 79.2159 22.98C79.8559 23.6333 80.1759 24.6267 80.1759 25.96V32H78.2359V30.38C77.9826 30.9533 77.6026 31.3933 77.0959 31.7C76.6026 31.9933 76.0226 32.14 75.3559 32.14C74.7159 32.14 74.1293 32.0133 73.5959 31.76C73.0626 31.4933 72.6426 31.1267 72.3359 30.66C72.0426 30.1933 71.8959 29.6733 71.8959 29.1C71.8959 28.3933 72.0759 27.84 72.4359 27.44C72.8093 27.0267 73.4159 26.7333 74.2559 26.56C75.1093 26.3867 76.2759 26.3 77.7559 26.3H78.2159V25.72C78.2159 24.9733 78.0559 24.4333 77.7359 24.1C77.4293 23.7667 76.9226 23.6 76.2159 23.6C75.1093 23.6 74.0026 23.94 72.8959 24.62L72.2959 23.2C72.8159 22.84 73.4426 22.5533 74.1759 22.34C74.9226 22.1133 75.6359 22 76.3159 22ZM75.7159 30.64C76.4493 30.64 77.0493 30.3933 77.5159 29.9C77.9826 29.3933 78.2159 28.7467 78.2159 27.96V27.44H77.8559C76.8159 27.44 76.0159 27.4867 75.4559 27.58C74.8959 27.6733 74.4959 27.8333 74.2559 28.06C74.0159 28.2733 73.8959 28.5867 73.8959 29C73.8959 29.4667 74.0626 29.86 74.3959 30.18C74.7426 30.4867 75.1826 30.64 75.7159 30.64ZM88.1991 22C90.5324 22 91.6991 23.3133 91.6991 25.94V32H89.6791V26.04C89.6791 25.2133 89.5124 24.6067 89.1791 24.22C88.8591 23.8333 88.3524 23.64 87.6591 23.64C86.8457 23.64 86.1924 23.8933 85.6991 24.4C85.2057 24.9067 84.9591 25.5867 84.9591 26.44V32H82.9391V22.24H84.9191V23.8C85.2391 23.2133 85.6857 22.7667 86.2591 22.46C86.8324 22.1533 87.4791 22 88.1991 22ZM98.5425 22C99.8492 22 100.816 22.3267 101.443 22.98C102.083 23.6333 102.403 24.6267 102.403 25.96V32H100.463V30.38C100.209 30.9533 99.8292 31.3933 99.3225 31.7C98.8292 31.9933 98.2492 32.14 97.5825 32.14C96.9425 32.14 96.3558 32.0133 95.8225 31.76C95.2892 31.4933 94.8692 31.1267 94.5625 30.66C94.2692 30.1933 94.1225 29.6733 94.1225 29.1C94.1225 28.3933 94.3025 27.84 94.6625 27.44C95.0358 27.0267 95.6425 26.7333 96.4825 26.56C97.3358 26.3867 98.5025 26.3 99.9825 26.3H100.443V25.72C100.443 24.9733 100.283 24.4333 99.9625 24.1C99.6558 23.7667 99.1492 23.6 98.4425 23.6C97.3358 23.6 96.2292 23.94 95.1225 24.62L94.5225 23.2C95.0425 22.84 95.6692 22.5533 96.4025 22.34C97.1492 22.1133 97.8625 22 98.5425 22ZM97.9425 30.64C98.6758 30.64 99.2758 30.3933 99.7425 29.9C100.209 29.3933 100.443 28.7467 100.443 27.96V27.44H100.083C99.0425 27.44 98.2425 27.4867 97.6825 27.58C97.1225 27.6733 96.7225 27.8333 96.4825 28.06C96.2425 28.2733 96.1225 28.5867 96.1225 29C96.1225 29.4667 96.2892 29.86 96.6225 30.18C96.9692 30.4867 97.4092 30.64 97.9425 30.64ZM109.446 32.14C108.459 32.14 107.599 31.9333 106.866 31.52C106.146 31.1067 105.586 30.5267 105.186 29.78C104.799 29.02 104.606 28.1333 104.606 27.12C104.606 26.1067 104.806 25.2133 105.206 24.44C105.619 23.6667 106.192 23.0667 106.926 22.64C107.672 22.2133 108.539 22 109.526 22C110.206 22 110.859 22.1133 111.486 22.34C112.126 22.5667 112.646 22.8733 113.046 23.26L112.426 24.7C111.546 23.98 110.632 23.62 109.686 23.62C108.752 23.62 108.019 23.9267 107.486 24.54C106.966 25.14 106.706 25.9933 106.706 27.1C106.706 28.1933 106.966 29.04 107.486 29.64C108.006 30.2267 108.739 30.52 109.686 30.52C110.632 30.52 111.546 30.16 112.426 29.44L113.046 30.9C112.619 31.2867 112.086 31.5933 111.446 31.82C110.806 32.0333 110.139 32.14 109.446 32.14ZM120.094 22C122.427 22 123.594 23.3133 123.594 25.94V32H121.574V26.04C121.574 25.2133 121.407 24.6067 121.074 24.22C120.754 23.8333 120.247 23.64 119.554 23.64C118.74 23.64 118.087 23.8933 117.594 24.4C117.1 24.9067 116.854 25.5867 116.854 26.44V32H114.834V17.9H116.854V23.72C117.187 23.16 117.634 22.7333 118.194 22.44C118.754 22.1467 119.387 22 120.094 22ZM134.717 27.46H127.817C127.964 29.5267 128.99 30.56 130.897 30.56C132.017 30.56 133.03 30.1933 133.937 29.46L134.557 30.88C134.104 31.2667 133.544 31.5733 132.877 31.8C132.21 32.0267 131.53 32.14 130.837 32.14C129.277 32.14 128.044 31.6933 127.137 30.8C126.244 29.9067 125.797 28.6733 125.797 27.1C125.797 26.1 125.99 25.2133 126.377 24.44C126.777 23.6667 127.33 23.0667 128.037 22.64C128.757 22.2133 129.57 22 130.477 22C131.797 22 132.83 22.4267 133.577 23.28C134.337 24.1333 134.717 25.3133 134.717 26.82V27.46ZM130.517 23.48C129.744 23.48 129.124 23.7267 128.657 24.22C128.204 24.7 127.93 25.3933 127.837 26.3H132.977C132.937 25.3933 132.704 24.7 132.277 24.22C131.864 23.7267 131.277 23.48 130.517 23.48Z" fill="white"/>
<g clip-path="url(#clip0_1744_2473)">
<path d="M38.4869 37.4321C39.0057 37.4321 39.1849 37.3107 39.4315 36.8881C39.6781 36.4654 39.5595 35.779 39.5501 35.5922C39.5269 35.1812 39.3896 34.7235 39.371 34.4947C39.371 34.3546 39.371 33.4603 39.3919 33.0937C39.7037 27.2936 42.1839 25.9136 42.9005 25.7571C43.3576 25.6219 43.8477 25.6551 44.2826 25.8505V16.9775V16.8514V14.4977C44.2826 13.2158 43.3752 11.6397 42.2677 10.9952L24.1523 0.487727C23.0355 -0.161403 21.2137 -0.161403 20.1155 0.480722L2.01874 10.9742C0.913579 11.6163 0.00618008 13.1925 0.00850674 14.4767V16.7697C0.00758109 16.7829 0.00758109 16.7962 0.00850674 16.8094V20.1578C0.113207 20.2162 0.217906 20.2769 0.322606 20.3423C0.673932 20.5758 1.02061 20.7042 1.37426 20.9494C2.38201 21.5657 3.31842 22.2924 4.16625 23.1162C4.33145 23.275 4.88287 23.9708 5.01316 24.1343C5.41361 24.6881 5.86376 25.204 6.35797 25.6754C6.631 25.9252 6.93153 26.143 7.25374 26.3245C7.78654 26.6024 8.66602 26.5394 9.11507 26.3409C12.5632 24.8418 14.727 25.5937 15.7251 26.1961C18.1937 27.6835 19.0173 29.764 19.2803 32.2905C19.3148 32.6177 19.3257 32.947 19.3128 33.2758C19.3128 33.8759 19.2919 34.8403 19.9224 35.0014C20.8275 35.2349 21.0462 34.2635 21.1811 33.6191C21.4859 32.1597 23.4217 31.2024 24.8387 31.9379C25.8159 32.4446 26.216 32.7318 27.1816 32.3045C28.3891 31.7698 29.0127 30.4084 29.4338 29.6846C29.8499 28.9798 30.4522 28.4044 31.1742 28.0221C33.0588 26.8429 37.7958 27.1488 37.968 32.3885C37.968 32.6734 37.968 33.4019 37.968 33.8456C37.968 34.3453 37.9843 34.8333 37.9517 35.3493C37.9308 35.6926 37.8703 36.0498 37.8377 36.4024C37.8284 36.4024 37.6516 37.4275 38.4869 37.4321Z" fill="white"/>
<path d="M44.2787 25.8597C44.1508 25.82 43.7785 25.5749 42.9013 25.7663C42.1824 25.9228 39.7045 27.3028 39.3927 33.1029C39.3741 33.4602 39.3625 34.3545 39.3718 34.5039C39.3904 34.7374 39.5277 35.1904 39.5509 35.6014C39.5509 35.7882 39.6929 36.4653 39.4323 36.8973C39.1717 37.3293 39.0065 37.4437 38.4877 37.4413C37.6524 37.4413 37.8292 36.4116 37.8292 36.4116C37.8618 36.0637 37.9223 35.7111 37.9432 35.3585C37.9758 34.8425 37.9595 34.3545 37.9595 33.8548C37.9595 33.4111 37.9595 32.6873 37.9595 32.3977C37.7873 27.158 33.0503 26.8521 31.1657 28.0313C30.4437 28.4136 29.8414 28.989 29.4253 29.6938C29.0042 30.4177 28.3806 31.779 27.1731 32.3137C26.2075 32.741 25.8073 32.4538 24.8301 31.9471C23.4132 31.2116 21.4774 32.1689 21.1726 33.6283C21.0377 34.2727 20.819 35.2418 19.9139 35.0106C19.2834 34.8495 19.3043 33.8851 19.3043 33.285C19.3172 32.9562 19.3063 32.6269 19.2718 32.2997C19.0088 29.7732 18.1852 27.6927 15.7166 26.2053C14.7185 25.6029 12.5547 24.851 9.10656 26.3501C8.64123 26.5486 7.77106 26.6116 7.24523 26.3337C6.92303 26.1522 6.6225 25.9345 6.34946 25.6846C5.85526 25.2132 5.40511 24.6973 5.00465 24.1435C4.87436 23.9801 4.32294 23.2842 4.15775 23.1254C3.30992 22.3016 2.37351 21.5749 1.36575 20.9586C1.0121 20.7251 0.667752 20.5756 0.3141 20.3515C0.2094 20.2861 0.1047 20.2254 0 20.167V35.4776C0 36.7619 0.907399 38.338 2.01489 38.9801L20.1303 49.4876C21.2378 50.1321 23.0503 50.1321 24.1577 49.4876L42.2755 38.9941C43.383 38.352 44.288 36.7759 44.2857 35.4916L44.2787 25.8597Z" fill="#808080"/>
<path d="M24.4434 23.2865C23.1917 24.0127 21.1419 24.0127 19.8901 23.2865L1.36523 13.4795C1.57463 13.6873 20.1507 24.5171 20.1507 24.5171C21.2582 25.1615 23.0707 25.1615 24.1782 24.5171C24.1782 24.5171 42.7286 13.72 42.938 13.5122L24.4434 23.2865Z" fill="#696969"/>
<path d="M19.861 1.88653C21.1151 1.16735 23.1625 1.16735 24.4166 1.88887L26.6618 2.82287C26.4524 2.61506 24.1537 1.12065 24.1537 1.12065C23.0462 0.478528 21.236 0.476193 20.1285 1.12065C20.1285 1.12065 16.4571 3.2852 16.25 3.49068L19.861 1.88653Z" fill="#696969"/>
</g>
<defs>
<clipPath id="clip0_1744_2473">
<rect width="44.2857" height="50" fill="white"/>
</clipPath>
</defs>
</svg>
