<svg width="98" height="40" viewBox="0 0 98 40" fill="none" xmlns="http://www.w3.org/2000/svg">
<path d="M31.1816 10.8933L32.7511 10.9201L37.0156 6.65555L37.2223 4.84869C33.8398 1.8352 29.3739 0 24.4939 0C15.6586 0 8.20143 6.01166 5.99414 14.1548C6.45964 13.8302 7.45495 14.0737 7.45495 14.0737L15.9763 12.6726C15.9763 12.6726 16.4143 11.9475 16.6363 11.9835C17.6327 10.8888 18.8468 10.0144 20.2009 9.41618C21.5549 8.81801 23.019 8.50932 24.4992 8.50989C27.0258 8.51525 29.3533 9.40796 31.1816 10.8849V10.8933Z" fill="white" fill-opacity="0.49"/>
<path d="M43.0049 14.1716C42.015 10.5196 39.9746 7.2948 37.2207 4.84863L31.1822 10.8871C33.6016 12.8394 35.1535 15.8269 35.1535 19.1711V20.2369C38.0912 20.2369 40.4776 22.6287 40.4776 25.561C40.4776 28.4987 38.0858 30.8851 35.1535 30.8851H24.5052L23.4395 31.957V38.3469L24.5052 39.4073H35.1535C38.824 39.4022 42.3428 37.9419 44.9384 35.3465C47.534 32.7511 48.9945 29.2323 48.9998 25.5618C48.9944 20.8494 46.6263 16.6806 43.0049 14.1724V14.1716Z" fill="white" fill-opacity="0.88"/>
<path d="M13.8464 39.4139H24.4886V30.8849H13.8464C13.0903 30.885 12.343 30.7226 11.6552 30.4087L10.1186 30.8795L5.85409 35.1441L5.48047 36.5834C7.88367 38.4168 10.823 39.4092 13.8457 39.4078L13.8464 39.4139Z" fill="white"/>
<path d="M13.8463 11.7222C10.1757 11.7272 6.65691 13.1876 4.06134 15.783C1.46578 18.3784 0.00526625 21.8971 0 25.5677C0 30.0642 2.1537 34.0623 5.48645 36.5949L11.6604 30.421C10.7259 29.9996 9.93279 29.3176 9.37615 28.4567C8.81952 27.5959 8.52299 26.5928 8.52214 25.5677C8.52214 22.63 10.9139 20.2435 13.8463 20.2435C16.0053 20.2435 17.8612 21.5451 18.7003 23.3826L24.8743 17.2086C22.3424 13.8759 18.3435 11.7222 13.847 11.7222H13.8463Z" fill="white" fill-opacity="0.17"/>
<path d="M65.24 27.18C63.7067 27.18 62.4133 26.8933 61.36 26.32C60.3067 25.7333 59.5067 24.9 58.96 23.82C58.4267 22.74 58.16 21.4533 58.16 19.96C58.16 18.48 58.4333 17.2 58.98 16.12C59.5267 15.0267 60.32 14.1867 61.36 13.6C62.4 13.0133 63.6467 12.72 65.1 12.72C66.1 12.72 67.0267 12.8667 67.88 13.16C68.7333 13.4533 69.4467 13.8733 70.02 14.42L69.28 16.04C68.64 15.5067 67.9867 15.1267 67.32 14.9C66.6533 14.66 65.9133 14.54 65.1 14.54C63.54 14.54 62.3533 15.0133 61.54 15.96C60.7267 16.8933 60.32 18.2267 60.32 19.96C60.32 21.7333 60.7333 23.08 61.56 24C62.4 24.92 63.6533 25.38 65.32 25.38C66.3333 25.38 67.34 25.2133 68.34 24.88V21.1H64.9V19.54H70.08V26.18C69.48 26.4733 68.7333 26.7133 67.84 26.9C66.96 27.0867 66.0933 27.18 65.24 27.18ZM79.5889 27.18C78.1622 27.18 76.9422 26.8867 75.9289 26.3C74.9156 25.7133 74.1356 24.88 73.5889 23.8C73.0556 22.7067 72.7889 21.42 72.7889 19.94C72.7889 18.46 73.0556 17.18 73.5889 16.1C74.1356 15.02 74.9156 14.1867 75.9289 13.6C76.9422 13.0133 78.1622 12.72 79.5889 12.72C80.5489 12.72 81.4422 12.8733 82.2689 13.18C83.1089 13.4733 83.8089 13.9 84.3689 14.46L83.6489 16.12C83.0356 15.5733 82.4022 15.18 81.7489 14.94C81.1089 14.6867 80.4089 14.56 79.6489 14.56C78.1289 14.56 76.9689 15.0267 76.1689 15.96C75.3689 16.8933 74.9689 18.22 74.9689 19.94C74.9689 21.66 75.3689 22.9933 76.1689 23.94C76.9689 24.8733 78.1289 25.34 79.6489 25.34C80.4089 25.34 81.1089 25.22 81.7489 24.98C82.4022 24.7267 83.0356 24.3267 83.6489 23.78L84.3689 25.44C83.8089 25.9867 83.1089 26.4133 82.2689 26.72C81.4422 27.0267 80.5489 27.18 79.5889 27.18ZM86.7845 27V12.9H92.6245C94.1445 12.9 95.3179 13.28 96.1445 14.04C96.9712 14.7867 97.3845 15.84 97.3845 17.2C97.3845 18.5733 96.9712 19.64 96.1445 20.4C95.3179 21.1467 94.1445 21.52 92.6245 21.52H88.8645V27H86.7845ZM88.8645 19.86H92.3245C94.3512 19.86 95.3645 18.9733 95.3645 17.2C95.3645 15.44 94.3512 14.56 92.3245 14.56H88.8645V19.86Z" fill="white"/>
</svg>
