<svg width="176" height="49" viewBox="0 0 176 49" fill="none" xmlns="http://www.w3.org/2000/svg">
<path d="M24.8846 0.00276792C24.4364 0.0293127 23.998 0.145583 23.5956 0.344686L6.15777 8.66696C5.70798 8.88112 5.31234 9.19405 5.00034 9.58241C4.68835 9.97078 4.46804 10.4246 4.35586 10.9099L0.0853086 29.5923C-0.0154425 30.0256 -0.0270848 30.4748 0.0510884 30.9127C0.129262 31.3505 0.295619 31.768 0.540059 32.1396C0.599325 32.2308 0.66201 32.3185 0.728114 32.4029L12.791 47.3926C13.1051 47.7783 13.5015 48.0889 13.951 48.3019C14.4006 48.5149 14.8921 48.6247 15.3895 48.6235H34.7284C35.2278 48.6245 35.7212 48.5135 36.1721 48.2987C36.623 48.084 37.0199 47.7708 37.3338 47.3823L49.3864 32.3858C49.6984 31.9987 49.9183 31.5458 50.0297 31.0613C50.141 30.5768 50.1409 30.0733 50.0292 29.5889L45.7279 10.886C45.6157 10.4006 45.3954 9.94685 45.0834 9.55848C44.7714 9.17011 44.3758 8.85718 43.926 8.64303L26.5019 0.344686C25.9997 0.0975807 25.4438 -0.0199611 24.8846 0.00276792Z" fill="white" fill-opacity="0.47"/>
<path d="M25.0594 6.3623C24.7707 6.38253 24.5014 6.51532 24.3095 6.7321C24.1177 6.94888 24.0186 7.23232 24.0337 7.52141V7.81545C24.0625 8.14846 24.1104 8.47953 24.1773 8.80701C24.273 9.43358 24.3074 10.068 24.2799 10.7012C24.2198 10.9103 24.1012 11.0977 23.9379 11.2415L23.914 11.686C23.28 11.7386 22.6504 11.8357 22.03 11.9766C19.4203 12.5647 17.0459 13.9197 15.2122 15.8676L14.8361 15.6009C14.6297 15.662 14.4076 15.6399 14.2172 15.5394C13.7087 15.1632 13.2381 14.7383 12.8119 14.2709C12.5982 14.0152 12.3698 13.772 12.1281 13.5426L11.8956 13.3579C11.6894 13.1918 11.4354 13.0959 11.1707 13.0844C11.013 13.0763 10.8555 13.1056 10.7112 13.1697C10.5668 13.2339 10.4396 13.3312 10.3399 13.4537C10.1702 13.6918 10.1019 13.9876 10.15 14.276C10.1981 14.5644 10.3586 14.822 10.5963 14.9923L10.8117 15.1633C11.0901 15.3484 11.3789 15.5174 11.6768 15.6693C12.2316 15.9776 12.755 16.3395 13.2393 16.7498C13.3637 16.9269 13.4359 17.1354 13.4479 17.3515L13.7898 17.649C11.9455 20.4162 11.1881 23.7671 11.6631 27.0586L11.2254 27.1851C11.1115 27.3669 10.9585 27.5211 10.7775 27.6364C10.1656 27.7996 9.5392 27.9026 8.90724 27.9441C8.57207 27.9511 8.23758 27.9773 7.90542 28.0228L7.63189 28.0912H7.5977C7.40477 28.1168 7.22284 28.1958 7.07234 28.3192C6.92183 28.4426 6.80874 28.6056 6.74575 28.7897C6.68277 28.9739 6.6724 29.1719 6.71581 29.3617C6.75922 29.5514 6.85469 29.7252 6.99148 29.8637C7.12831 30.0021 7.30106 30.0997 7.4903 30.1454C7.67955 30.191 7.87778 30.183 8.06271 30.1222H8.08322L8.36701 30.088C8.68557 29.992 8.99837 29.8778 9.30387 29.746C9.89143 29.5096 10.5006 29.3309 11.1229 29.2127C11.3382 29.2259 11.5456 29.2994 11.7212 29.4246L12.176 29.346C13.1937 32.5044 15.3333 35.1804 18.1903 36.8682L17.9988 37.2682C18.0871 37.4508 18.1192 37.6555 18.0912 37.8563C17.832 38.4551 17.516 39.0276 17.1475 39.5659C16.9447 39.833 16.7575 40.1116 16.5867 40.4002L16.4499 40.6806C16.3521 40.848 16.3026 41.0393 16.3072 41.2332C16.3117 41.4271 16.37 41.6159 16.4757 41.7785C16.5813 41.9411 16.73 42.0712 16.9053 42.1542C17.0805 42.2373 17.2754 42.2699 17.4682 42.2486C17.6609 42.2273 17.8439 42.1528 17.9968 42.0335C18.1497 41.9142 18.2664 41.7548 18.3339 41.573L18.4638 41.3063C18.5825 40.9932 18.6829 40.6736 18.7647 40.3489C19.0383 39.6651 19.1921 38.93 19.5717 38.4752C19.6955 38.3589 19.8516 38.2826 20.0196 38.2564L20.2589 37.829C23.3552 39.0197 26.7817 39.0282 29.8839 37.8529L30.089 38.253C30.302 38.2862 30.4935 38.4016 30.6224 38.5744C30.9171 39.1344 31.1564 39.7219 31.337 40.3284C31.42 40.6531 31.5216 40.9728 31.6414 41.2858L31.7713 41.5525C31.8388 41.7343 31.9555 41.8937 32.1084 42.013C32.2613 42.1323 32.4443 42.2068 32.6371 42.2281C32.8298 42.2494 33.0247 42.2168 33.2 42.1337C33.3753 42.0507 33.524 41.9206 33.6296 41.758C33.7352 41.5953 33.7935 41.4065 33.7981 41.2126C33.8026 41.0188 33.7531 40.8275 33.6552 40.6601L33.5185 40.3797C33.3477 40.0922 33.1605 39.8148 32.9577 39.5488C32.597 39.0285 32.2878 38.4743 32.0346 37.8939C32.0096 37.7879 32.0061 37.6778 32.0243 37.5704C32.0425 37.4629 32.0821 37.3602 32.1406 37.2682C32.0736 37.1319 32.0153 36.9914 31.9662 36.8477C34.8194 35.1488 36.9507 32.4628 37.9566 29.2981L38.4011 29.3768C38.5603 29.2312 38.7702 29.1539 38.9857 29.1614C39.608 29.2797 40.2172 29.4583 40.8047 29.6948C41.1098 29.8335 41.4226 29.9545 41.7416 30.0572C41.8168 30.0777 41.9262 30.0914 42.0151 30.1153H42.0356C42.2206 30.1762 42.4188 30.1843 42.608 30.1386C42.7973 30.093 42.97 29.9955 43.1069 29.857C43.2437 29.7186 43.3392 29.5447 43.3827 29.3549C43.4261 29.1652 43.4157 28.9671 43.3527 28.7829C43.2895 28.5982 43.1758 28.435 43.0247 28.3115C42.8735 28.1881 42.6908 28.1094 42.4972 28.0843L42.1895 28.0159C41.8574 27.9705 41.5229 27.9443 41.1877 27.9373C40.5557 27.8958 39.9293 27.7927 39.3174 27.6296C39.128 27.5239 38.9718 27.3676 38.8661 27.1782L38.4455 27.0552C38.8962 23.7663 38.1236 20.4264 36.2743 17.6695L36.6436 17.3276C36.6287 17.1125 36.6987 16.9002 36.8385 16.7361C37.3192 16.3228 37.8391 15.9575 38.3908 15.6454C38.6886 15.4934 38.9775 15.3245 39.2559 15.1393L39.4849 14.9547C39.6531 14.8501 39.7882 14.7 39.8747 14.5218C39.9612 14.3437 39.9955 14.1447 39.9737 13.9479C39.9519 13.751 39.8748 13.5644 39.7514 13.4095C39.628 13.2546 39.4633 13.1377 39.2764 13.0724C39.0894 13.0072 38.8877 12.9961 38.6947 13.0406C38.5017 13.0851 38.3252 13.1832 38.1857 13.3237L37.9532 13.5084C37.7115 13.7379 37.4832 13.981 37.2693 14.2367C36.8559 14.7093 36.3979 15.141 35.9016 15.5257C35.7013 15.6069 35.4822 15.6305 35.2691 15.5941L34.8725 15.8779C32.5853 13.48 29.5053 11.994 26.2049 11.6962C26.2049 11.5595 26.1843 11.3064 26.1809 11.2312C26.0034 11.1093 25.8807 10.9228 25.839 10.7115C25.8175 10.0788 25.8576 9.44559 25.9587 8.82069C26.0256 8.49321 26.0735 8.16214 26.1023 7.82913V7.53166C26.1173 7.24258 26.0183 6.95914 25.8264 6.74236C25.6346 6.52558 25.3653 6.39278 25.0765 6.37256L25.0594 6.3623ZM23.7533 14.4521L23.4456 19.9228H23.4216C23.4145 20.0889 23.3625 20.2501 23.271 20.389C23.1796 20.5279 23.0522 20.6395 22.9024 20.7117C22.7526 20.784 22.586 20.8143 22.4203 20.7994C22.2547 20.7845 22.0962 20.725 21.9617 20.6271L17.4757 17.4473C18.9039 16.0445 20.6957 15.0687 22.6489 14.6299C23.0149 14.5518 23.3847 14.4924 23.7567 14.4521H23.7533ZM26.3656 14.4521C28.7217 14.7444 30.9165 15.8028 32.6124 17.4644L28.1675 20.6237C28.0331 20.7312 27.8713 20.7988 27.7004 20.8189C27.5295 20.839 27.3564 20.8108 27.2008 20.7374C27.0451 20.664 26.9132 20.5485 26.8199 20.4039C26.7267 20.2593 26.6759 20.0914 26.6733 19.9193L26.3656 14.4521ZM15.8413 19.509L19.9443 23.1676V23.1915C20.0695 23.3009 20.1627 23.4422 20.214 23.6004C20.2653 23.7585 20.2727 23.9277 20.2355 24.0897C20.1984 24.2518 20.1179 24.4007 20.0029 24.5207C19.8878 24.6407 19.7423 24.7272 19.5819 24.7711V24.7882L14.3164 26.3029C14.0553 23.9307 14.5919 21.539 15.8413 19.5056V19.509ZM34.2468 19.509C35.4932 21.5371 36.0442 23.9163 35.8162 26.2858L30.5438 24.7677V24.7472C30.3834 24.7033 30.238 24.6168 30.1229 24.4968C30.0078 24.3768 29.9273 24.2278 29.8902 24.0658C29.853 23.9037 29.8604 23.7346 29.9117 23.5764C29.963 23.4183 30.0562 23.277 30.1814 23.1676L34.2502 19.5227L34.2468 19.509ZM24.2183 23.4582H25.8937L26.9195 24.7575L26.5434 26.385L25.0389 27.1099L23.5276 26.385L23.1721 24.7541L24.2183 23.4582ZM29.5967 27.9031C29.6671 27.8949 29.7382 27.8949 29.8087 27.9031L35.2383 28.8195C34.439 31.0759 32.9097 33.0011 30.8926 34.2901L28.7932 29.2024C28.7354 29.0662 28.7112 28.918 28.7226 28.7705C28.7341 28.623 28.7808 28.4803 28.8589 28.3546C28.937 28.2289 29.0442 28.1239 29.1714 28.0483C29.2986 27.9727 29.4421 27.9287 29.5898 27.9202L29.5967 27.9031ZM20.4777 27.927C20.6287 27.9294 20.7768 27.9689 20.9089 28.0421C21.041 28.1152 21.1531 28.2198 21.2352 28.3465C21.3173 28.4732 21.3669 28.6182 21.3798 28.7687C21.3926 28.9192 21.3681 29.0705 21.3086 29.2092V29.2298L19.2195 34.2628C17.2267 32.9819 15.7105 31.0812 14.9045 28.8536L20.2863 27.9373C20.3465 27.9314 20.4072 27.9314 20.4675 27.9373L20.4777 27.927ZM25.0252 30.1358C25.1963 30.1307 25.3654 30.173 25.5139 30.2581C25.6623 30.3432 25.7844 30.4677 25.8664 30.6179H25.8869L28.5402 35.4048C28.192 35.5216 27.8383 35.6209 27.4802 35.7023C25.5285 36.149 23.491 36.0437 21.5958 35.3979L24.2423 30.6111C24.3216 30.4729 24.4355 30.3577 24.5727 30.2768C24.71 30.1959 24.8659 30.152 25.0252 30.1495V30.1358Z" fill="white" stroke="white" stroke-width="0.053987"/>
<path d="M61.0432 25.2842L62.0518 24.1832C62.3983 23.8003 62.7345 23.4219 63.0605 23.0481L63.9836 21.9813C64.2709 21.6439 64.5182 21.3499 64.7256 21.0991H68.6508C67.8667 21.9995 67.1031 22.8577 66.36 23.6738C65.6146 24.4898 64.7986 25.3332 63.9118 26.204C64.3983 26.6513 64.8552 27.1299 65.2795 27.6366C65.7514 28.1905 66.2073 28.7604 66.6472 29.3462C67.0871 29.932 67.4929 30.5247 67.8644 31.1242C68.2337 31.7168 68.5437 32.257 68.7944 32.7448H64.9991C64.7712 32.3573 64.5022 31.9311 64.1922 31.4661C63.8822 30.9988 63.5631 30.5406 63.2348 30.0916C62.8929 29.6357 62.5351 29.1878 62.1612 28.7478C61.8206 28.3538 61.4466 27.99 61.0432 27.6605V32.7688H57.7402V16.0935L61.0432 15.5601V25.2876V25.2842ZM80.2931 32.3551C79.5792 32.5503 78.8542 32.7022 78.1219 32.8098C77.1989 32.9534 76.266 33.0242 75.3319 33.0218C74.4899 33.0467 73.651 32.9109 72.8598 32.6218C72.251 32.3906 71.7125 32.0054 71.2973 31.5037C70.9016 31.0009 70.6214 30.4173 70.4767 29.7941C70.3082 29.0747 70.2267 28.3378 70.2339 27.599V21.1025H73.5368V27.1887C73.5368 28.2532 73.677 29.0214 73.9574 29.4932C74.2378 29.9651 74.762 30.201 75.5302 30.201C75.7582 30.201 76.0089 30.1896 76.2824 30.1668C76.556 30.144 76.7919 30.1178 76.9902 30.0881V21.0957H80.2931V32.3551ZM94.2365 26.9254C94.2482 27.7852 94.1094 28.6403 93.8262 29.4522C93.5732 30.1724 93.1686 30.83 92.6398 31.3806C92.103 31.9257 91.4528 32.346 90.7353 32.6115C89.9118 32.9113 89.0403 33.0574 88.1641 33.0423C87.7652 33.0423 87.348 33.0241 86.9126 32.9876C86.4796 32.9511 86.051 32.9033 85.627 32.844C85.2053 32.7847 84.803 32.7141 84.4201 32.632C84.0371 32.55 83.6952 32.4645 83.3943 32.3756V16.09L86.6972 15.5566V21.3692C87.0681 21.2065 87.4541 21.0805 87.8495 20.9931C88.2719 20.9019 88.703 20.8572 89.1351 20.8598C89.8892 20.8444 90.6379 20.9913 91.3302 21.2906C91.9525 21.5686 92.4998 21.9905 92.927 22.5215C93.3743 23.0909 93.7054 23.7426 93.9014 24.4397C94.1321 25.2478 94.2449 26.085 94.2365 26.9254ZM90.8686 26.8365C90.8686 24.7098 90.0856 23.6464 88.5197 23.6464C88.1791 23.6466 87.84 23.6914 87.511 23.7798C87.2249 23.8514 86.9516 23.9667 86.7007 24.1217V30.1155C86.8602 30.1451 87.0654 30.1713 87.3161 30.1941C87.5668 30.2169 87.8404 30.2283 88.1367 30.2283C88.529 30.2554 88.9218 30.1846 89.2798 30.0223C89.6379 29.8599 89.9501 29.6112 90.1882 29.2983C90.6738 28.5723 90.9112 27.7087 90.8652 26.8365H90.8686ZM96.2265 27.0143C96.2066 26.087 96.3681 25.1648 96.7018 24.2995C96.9851 23.5761 97.4107 22.9169 97.9532 22.3608C98.4619 21.8556 99.0696 21.461 99.738 21.2017C100.397 20.9379 101.1 20.8021 101.81 20.8017C103.465 20.8017 104.772 21.3077 105.732 22.3198C106.689 23.3318 107.168 24.8203 107.168 26.7852C107.168 26.9767 107.161 27.1875 107.147 27.4178C107.134 27.6457 107.119 27.8486 107.103 28.0264H99.6149C99.6442 28.3498 99.7449 28.6626 99.9099 28.9423C100.075 29.222 100.3 29.4616 100.569 29.6437C101.241 30.0738 102.032 30.283 102.829 30.242C103.428 30.2423 104.025 30.1862 104.614 30.0745C105.104 29.991 105.583 29.8534 106.043 29.6642L106.487 32.3448C106.259 32.4531 106.023 32.5423 105.78 32.6115C105.456 32.7068 105.127 32.7844 104.795 32.844C104.43 32.9124 104.043 32.9694 103.632 33.015C103.22 33.0587 102.806 33.0804 102.391 33.0799C101.458 33.1001 100.53 32.9423 99.6559 32.6149C98.9275 32.3361 98.2692 31.9007 97.7275 31.3396C97.2135 30.792 96.8281 30.1367 96.5992 29.4214C96.3454 28.6456 96.2184 27.834 96.2231 27.0177L96.2265 27.0143ZM103.981 25.7492C103.967 25.4708 103.919 25.1953 103.838 24.9286C103.76 24.6702 103.632 24.4297 103.461 24.2208C103.284 24.0086 103.066 23.8352 102.819 23.7114C102.518 23.5697 102.187 23.5017 101.854 23.5131C101.526 23.5045 101.201 23.5687 100.901 23.7011C100.646 23.8186 100.42 23.9888 100.237 24.2003C100.057 24.413 99.9174 24.6578 99.8269 24.9218C99.7312 25.1917 99.6602 25.4698 99.6149 25.7526H103.981V25.7492ZM116.742 24.0225C116.445 23.9496 116.103 23.8721 115.716 23.79C115.292 23.7061 114.862 23.6649 114.43 23.6669C114.182 23.6698 113.934 23.6881 113.688 23.7216C113.468 23.7461 113.249 23.7872 113.035 23.8447V32.7346H109.732V21.7146C110.414 21.4833 111.108 21.2893 111.811 21.1333C112.695 20.9405 113.597 20.8476 114.502 20.8564C114.68 20.8564 114.894 20.8678 115.145 20.8906C115.396 20.9134 115.646 20.943 115.897 20.9795C116.148 21.0159 116.398 21.0615 116.649 21.1162C116.869 21.1586 117.084 21.2216 117.292 21.3043L116.742 24.0225ZM119.067 21.4992C119.781 21.3042 120.506 21.1524 121.238 21.0444C122.162 20.9007 123.096 20.8299 124.031 20.8324C124.875 20.8075 125.715 20.9397 126.51 21.2222C127.118 21.4457 127.656 21.8241 128.073 22.3198C128.467 22.8131 128.747 23.3876 128.893 24.002C129.062 24.7131 129.144 25.4423 129.136 26.1732V32.7585H125.83V26.5698C125.83 25.5053 125.69 24.7531 125.409 24.3132C125.129 23.8709 124.605 23.6498 123.836 23.6498C123.608 23.6498 123.358 23.6612 123.084 23.684C122.811 23.7068 122.575 23.733 122.376 23.7627V32.7551H119.073V21.4992H119.067ZM131.564 27.0143C131.544 26.0871 131.705 25.1649 132.039 24.2995C132.322 23.5761 132.748 22.9169 133.29 22.3608C133.795 21.8573 134.398 21.4627 135.061 21.2017C135.72 20.9379 136.424 20.8022 137.134 20.8017C138.788 20.8017 140.096 21.3077 141.055 22.3198C142.013 23.3318 142.491 24.8203 142.491 26.7852C142.491 26.9767 142.483 27.1875 142.467 27.4178C142.451 27.6457 142.437 27.8486 142.423 28.0264H134.935C134.964 28.3498 135.065 28.6626 135.23 28.9423C135.395 29.222 135.62 29.4616 135.889 29.6437C136.562 30.0738 137.352 30.283 138.149 30.242C138.748 30.2423 139.345 30.1862 139.934 30.0745C140.424 29.991 140.903 29.8534 141.363 29.6642L141.808 32.3448C141.579 32.4531 141.343 32.5423 141.1 32.6115C140.776 32.7068 140.447 32.7844 140.115 32.844C139.75 32.9124 139.363 32.9694 138.953 33.015C138.54 33.0587 138.126 33.0804 137.711 33.0799C136.778 33.1001 135.85 32.9423 134.976 32.6149C134.248 32.3361 133.589 31.9007 133.048 31.3396C132.535 30.7883 132.152 30.1295 131.926 29.4111C131.677 28.638 131.553 27.83 131.56 27.0177L131.564 27.0143ZM139.318 25.7492C139.304 25.4708 139.256 25.1953 139.175 24.9286C139.097 24.6702 138.969 24.4297 138.799 24.2208C138.622 24.0086 138.403 23.8352 138.156 23.7114C137.855 23.5697 137.524 23.5017 137.192 23.5131C136.864 23.5043 136.538 23.5686 136.238 23.7011C135.984 23.8186 135.758 23.9888 135.574 24.2003C135.394 24.413 135.254 24.6577 135.164 24.9218C135.068 25.1917 134.997 25.4698 134.952 25.7526H139.318V25.7492ZM144.943 18.1928L148.246 17.6594V21.0786H152.212V23.814H148.246V27.917C148.219 28.4935 148.345 29.0669 148.612 29.5787C148.856 29.989 149.346 30.1941 150.082 30.1941C150.45 30.1931 150.817 30.16 151.18 30.095C151.529 30.0351 151.873 29.9424 152.205 29.818L152.67 32.3892C152.238 32.5624 151.793 32.7029 151.34 32.8098C150.751 32.9387 150.148 32.9984 149.545 32.9876C148.783 33.0111 148.024 32.8868 147.309 32.6218C146.757 32.4053 146.269 32.0524 145.89 31.596C145.523 31.1334 145.269 30.5912 145.148 30.0129C145.002 29.339 144.931 28.651 144.936 27.9614V18.1928H144.943ZM153.97 27.0143C153.95 26.0871 154.111 25.1649 154.445 24.2995C154.728 23.5761 155.154 22.9169 155.696 22.3608C156.205 21.8557 156.813 21.4611 157.481 21.2017C158.14 20.9379 158.843 20.8022 159.553 20.8017C161.208 20.8017 162.515 21.3077 163.475 22.3198C164.432 23.3318 164.911 24.8169 164.911 26.775C164.911 26.9664 164.903 27.1773 164.887 27.4075C164.871 27.6355 164.856 27.8383 164.843 28.0161H157.355C157.384 28.3398 157.485 28.6529 157.651 28.9326C157.817 29.2123 158.042 29.4517 158.312 29.6334C158.984 30.0636 159.775 30.2728 160.572 30.2317C161.171 30.232 161.768 30.1759 162.357 30.0642C162.847 29.9807 163.326 29.8431 163.786 29.6539L164.23 32.3345C164.002 32.4428 163.766 32.532 163.523 32.6012C163.199 32.6965 162.87 32.7742 162.538 32.8337C162.173 32.9021 161.786 32.9591 161.375 33.0047C160.963 33.0484 160.549 33.0701 160.134 33.0697C159.201 33.0899 158.273 32.932 157.399 32.6047C156.671 32.3258 156.012 31.8905 155.471 31.3293C154.952 30.783 154.561 30.1277 154.329 29.4111C154.081 28.6378 153.958 27.8298 153.966 27.0177L153.97 27.0143ZM161.731 25.7492C161.717 25.4708 161.669 25.1953 161.587 24.9286C161.51 24.6702 161.382 24.4297 161.211 24.2208C161.034 24.0086 160.816 23.8352 160.569 23.7114C160.267 23.5697 159.937 23.5017 159.604 23.5131C159.276 23.5043 158.951 23.5686 158.65 23.7011C158.391 23.8155 158.158 23.9846 157.97 24.1969C157.789 24.4096 157.65 24.6543 157.56 24.9183C157.464 25.1883 157.393 25.4664 157.348 25.7492H161.731ZM170.802 30.3822C171.238 30.4088 171.675 30.3484 172.088 30.2044C172.213 30.1424 172.316 30.0436 172.383 29.9214C172.45 29.7992 172.478 29.6593 172.464 29.5206C172.45 29.3737 172.397 29.2332 172.311 29.1132C172.225 28.9931 172.109 28.8978 171.975 28.8367C171.501 28.5656 171.005 28.3368 170.491 28.1529C170.012 27.9774 169.541 27.7777 169.082 27.5545C168.687 27.3656 168.325 27.1152 168.009 26.8126C167.712 26.5217 167.479 26.1724 167.325 25.7868C167.152 25.3271 167.069 24.8383 167.082 24.3473C167.063 23.8495 167.163 23.3543 167.375 22.9033C167.587 22.4524 167.904 22.0588 168.299 21.7556C169.111 21.1174 170.225 20.7982 171.643 20.7982C172.332 20.7951 173.019 20.8581 173.695 20.9863C174.223 21.0791 174.742 21.2164 175.247 21.3966L174.673 23.9678C174.262 23.8317 173.844 23.7175 173.421 23.6259C172.923 23.518 172.413 23.4664 171.903 23.472C170.868 23.472 170.351 23.7604 170.351 24.3371C170.35 24.4542 170.372 24.5704 170.416 24.679C170.476 24.8003 170.569 24.903 170.682 24.9765C170.855 25.0952 171.036 25.1993 171.226 25.2876C171.454 25.4016 171.746 25.5247 172.101 25.6569C172.718 25.8776 173.318 26.1427 173.897 26.4501C174.313 26.6685 174.691 26.9538 175.015 27.2947C175.279 27.5826 175.475 27.9261 175.589 28.2999C175.707 28.7169 175.763 29.1488 175.757 29.5821C175.784 30.0919 175.68 30.6001 175.453 31.0573C175.225 31.5146 174.884 31.9051 174.461 32.1909C173.594 32.779 172.373 33.0754 170.795 33.0799C169.927 33.0977 169.06 33.0082 168.214 32.8132C167.727 32.6995 167.25 32.5509 166.785 32.3687L167.339 29.6881C167.899 29.9092 168.476 30.083 169.065 30.2078C169.637 30.3262 170.219 30.3846 170.802 30.3822Z" fill="white"/>
</svg>
