<svg width="187" height="48" viewBox="0 0 187 48" fill="none" xmlns="http://www.w3.org/2000/svg">
<path d="M23.9553 0C10.7256 0 0 10.7242 0 23.9553C0 37.1864 10.7256 47.9106 23.9553 47.9106C37.185 47.9106 47.9106 37.185 47.9106 23.9553C47.9106 10.7256 37.185 0 23.9553 0ZM23.9553 44.8347C20.1914 44.8347 17.1398 42.3206 17.1398 39.2189H30.7708C30.7708 42.3192 27.7178 44.8347 23.9553 44.8347ZM35.2127 37.3598H12.695V33.2748H35.1984V37.3598H35.2127ZM35.1324 31.175H12.761L12.5388 30.917C10.234 28.1177 9.69076 26.6571 9.16473 25.1693C9.15613 25.1206 11.9597 25.7427 13.9478 26.1899C14.7835 26.3773 15.6232 26.5469 16.4661 26.6987C15.0299 25.016 14.1771 22.876 14.1771 20.6887C14.1771 15.8871 17.8608 11.6903 16.5306 8.299C17.8235 8.40363 19.2067 11.0281 19.2998 15.1317C20.6758 13.2325 21.2492 9.76243 21.2492 7.63537C21.2492 5.43233 22.7011 2.87383 24.1517 2.7864C22.8574 4.9192 24.4871 6.74813 25.9347 11.2832C26.4794 12.9889 26.4077 15.8555 26.8277 17.6716C26.9667 13.8947 27.616 8.38357 30.0126 6.48297C28.9562 8.87663 30.1702 11.8766 30.9987 13.3171C32.3374 15.642 33.1487 17.4021 33.1487 20.736C33.1487 22.972 32.3245 25.0733 30.9328 26.7173C32.5152 26.4206 33.6074 26.1526 33.6074 26.1526L38.7444 25.1493C38.7444 25.1493 37.9991 28.2166 35.1296 31.175H35.1324Z" fill="white"/>
<path d="M55.957 17.6427C57.0722 17.4563 58.5327 17.2987 60.3903 17.2987C62.6736 17.2987 64.3463 17.829 65.407 18.785C66.363 19.635 66.9736 20.935 66.9736 22.5289C66.9736 24.1486 66.4963 25.4242 65.5933 26.3516C64.3463 27.6531 62.3827 28.3153 60.1237 28.3153C59.4329 28.3153 58.7965 28.2866 58.2647 28.1719V35.3386H55.9714L55.957 17.6427ZM58.2504 26.2713C58.7549 26.4046 59.3927 26.4577 60.1624 26.4577C62.9503 26.4577 64.6488 25.0774 64.6488 22.6593C64.6488 20.27 62.9503 19.129 60.4276 19.129C59.4185 19.129 58.6503 19.2093 58.2489 19.3154L58.2504 26.2713ZM69.5637 26.4835L69.4576 22.4744H71.5015L71.6076 25.0229H71.6879C72.2727 23.2972 73.706 22.2078 75.2712 22.2078C75.5106 22.2078 75.6955 22.2365 75.909 22.2609V24.4639C75.6697 24.4109 75.4317 24.4109 75.1121 24.4109C73.4666 24.4109 72.2985 25.6321 71.9788 27.385C71.9237 27.7455 71.8969 28.1097 71.8986 28.4744V35.3257H69.5622V26.4849L69.5637 26.4835ZM89.6217 28.7768C89.6217 33.5297 86.3036 35.5995 83.2233 35.5995C79.7719 35.5995 77.0643 33.051 77.0643 28.9889C77.0643 24.7147 79.9052 22.1921 83.4369 22.1921C87.1277 22.1921 89.6232 24.8724 89.6232 28.7768H89.6217ZM79.4537 28.9101C79.4537 31.7252 81.0303 33.8479 83.3294 33.8479C85.5597 33.8479 87.2324 31.751 87.2324 28.8571C87.2324 26.6784 86.143 23.945 83.3824 23.945C80.6476 23.945 79.4551 26.4935 79.4551 28.9101H79.4537ZM92.5715 25.9345L92.4655 22.4572H94.5094L94.6155 24.5542H94.6957C95.4124 23.333 96.6078 22.1892 98.7578 22.1892C100.484 22.1892 101.811 23.2499 102.37 24.7649H102.423C102.78 24.1063 103.279 23.5351 103.883 23.0922C104.653 22.5088 105.46 22.1892 106.697 22.1892C108.423 22.1892 110.945 23.3043 110.945 27.7792V35.3185H108.662V28.0716C108.662 25.5776 107.73 24.1156 105.874 24.1156C104.52 24.1156 103.509 25.0974 103.086 26.2126C102.967 26.5906 102.904 26.9843 102.9 27.3807V35.3185H100.615V27.6215C100.615 25.5776 99.7124 24.117 97.9351 24.117C96.5017 24.117 95.4124 25.2852 95.0397 26.4534C94.9064 26.7716 94.8534 27.1987 94.8534 27.5957V35.3357H92.5701V25.9617L92.5715 25.9345ZM116.017 29.31C116.07 32.4691 118.06 33.7705 120.424 33.7705C122.097 33.7705 123.147 33.4781 123.982 33.1069L124.406 34.7796C123.583 35.1523 122.15 35.6023 120.106 35.6023C116.15 35.6023 113.788 32.9736 113.788 29.0979C113.788 25.2221 116.071 22.1949 119.815 22.1949C124.036 22.1949 125.125 25.8585 125.125 28.2221C125.133 28.5869 125.106 28.9516 125.045 29.3114L116.017 29.31ZM122.868 27.6373C122.897 26.1753 122.257 23.8676 119.629 23.8676C117.239 23.8676 116.232 26.0176 116.045 27.6373H122.868ZM130.83 19.3813V22.463H134.175V24.2403H130.83V31.1705C130.83 32.7471 131.282 33.6645 132.583 33.6645C133.221 33.6645 133.592 33.6114 133.938 33.5211L134.044 35.2985C133.592 35.4418 132.875 35.6167 131.972 35.6167C130.883 35.6167 130.009 35.244 129.45 34.6348C128.812 33.9182 128.547 32.7758 128.547 31.2622V24.2389H126.559V22.4615H128.565V20.0879L130.83 19.3813ZM136.807 16.4473H139.143V24.4926H139.196C139.591 23.7928 140.169 23.2143 140.869 22.8199C141.596 22.4017 142.42 22.1817 143.259 22.182C144.984 22.182 147.745 23.2427 147.745 27.6516V35.297H145.409V27.9283C145.409 25.8571 144.639 24.1299 142.434 24.1299C140.921 24.1299 139.754 25.1906 139.301 26.4233C139.169 26.7673 139.158 27.1141 139.158 27.5384V35.2784H136.821V16.4616L136.807 16.4473ZM152.843 29.2957C152.896 32.4547 154.887 33.7562 157.251 33.7562C158.923 33.7562 159.974 33.4638 160.808 33.0926L161.233 34.7653C160.41 35.1379 158.976 35.588 156.933 35.588C152.977 35.588 150.626 32.9593 150.626 29.0835C150.626 25.2078 152.909 22.1806 156.653 22.1806C160.874 22.1806 161.964 25.8442 161.964 28.2078C161.972 28.5726 161.945 28.9374 161.883 29.2971L152.843 29.2957ZM159.695 27.623C159.723 26.161 159.084 23.8533 156.455 23.8533C154.066 23.8533 153.058 26.0033 152.872 27.623H159.695ZM175.596 31.794L175.702 35.3257H173.629L173.496 33.2287H173.429C172.844 34.2636 171.465 35.6181 169.18 35.6181C167.162 35.6181 164.747 34.4757 164.747 29.9894V22.4759H167.083V29.5637C167.083 32.0061 167.853 33.6774 169.95 33.6774C171.517 33.6774 172.605 32.588 173.032 31.5274C173.178 31.146 173.25 30.7403 173.244 30.332V22.473H175.58L175.596 31.794ZM179.155 32.9607C179.872 33.385 181.093 33.8637 182.261 33.8637C183.934 33.8637 184.729 33.041 184.729 31.9516C184.729 30.8365 184.066 30.2531 182.364 29.6153C180.028 28.7653 178.924 27.5183 178.924 25.9775C178.924 23.9063 180.623 22.2078 183.357 22.2078C184.659 22.2078 185.8 22.5518 186.491 23.0048L185.917 24.7033C185.413 24.3851 184.484 23.9336 183.289 23.9336C181.908 23.9336 181.164 24.7305 181.164 25.6865C181.164 26.7472 181.907 27.2259 183.58 27.8896C185.783 28.7123 186.951 29.8274 186.951 31.7395C186.951 34.0228 185.173 35.6152 182.172 35.6152C180.765 35.6152 179.449 35.2426 178.56 34.7122L179.155 32.9607Z" fill="white"/>
</svg>
