<svg width="120" height="50" viewBox="0 0 120 50" fill="none" xmlns="http://www.w3.org/2000/svg">
<g clip-path="url(#clip0_1745_2600)">
<path d="M32.4483 1.34519C29.163 3.27519 27.2177 6.76044 27.2177 10.4357C27.2177 12.3657 27.9928 14.3107 28.963 16.0459C29.738 17.5959 30.118 20.3012 27.413 21.6562C25.4827 22.8112 22.9575 22.0412 21.8025 20.1062C20.6472 18.5562 19.2922 17.0062 17.547 15.8509C14.2618 13.9209 10.3863 13.9209 7.10075 15.8509C3.81525 17.7809 1.875 21.2749 1.875 24.9512C1.875 28.6275 3.80525 32.1115 7.1 34.0467C10.3853 35.9767 14.2607 35.9767 17.5462 34.0467C19.2915 33.0767 20.6463 31.5367 21.6068 29.7915C22.3818 28.4365 24.512 26.6915 27.2172 28.2415C29.1475 29.3965 29.7275 31.9217 28.7672 33.8517C27.7972 35.5967 27.2172 37.532 27.2172 39.462C27.2172 43.1422 29.1475 46.6222 32.4478 48.5525C35.733 50.4825 39.6085 50.4825 42.894 48.5525C46.1795 46.6225 48.125 43.1372 48.125 39.462C48.125 35.7867 46.1898 32.3017 42.8945 30.3665C41.1493 29.3965 39.214 29.0115 37.0888 29.0115C35.3435 29.0115 33.0282 27.8565 33.0282 24.9512C33.0282 22.6262 34.7735 20.8909 37.0888 20.8909C39.019 20.8909 41.1493 20.5059 42.8945 19.5359C46.1798 17.6059 48.125 14.1207 48.125 10.4457C48.125 6.77069 46.1898 3.28544 42.8945 1.35519C41.3445 0.385185 39.414 0.000184885 37.6695 0.000184885C35.9342 -0.00981512 33.989 0.385185 32.449 1.34519" fill="white"/>
</g>
<path d="M75.08 32H72.8L70.4 27.48C70.1333 27 69.8133 26.6667 69.44 26.48C69.08 26.28 68.6 26.18 68 26.18H65.68V32H63.64V17.9H69.64C71.2 17.9 72.3867 18.2467 73.2 18.94C74.0267 19.6333 74.44 20.6467 74.44 21.98C74.44 23.06 74.1333 23.9467 73.52 24.64C72.92 25.3333 72.06 25.7733 70.94 25.96C71.6333 26.1733 72.2067 26.6933 72.66 27.52L75.08 32ZM69.4 24.52C70.44 24.52 71.2067 24.32 71.7 23.92C72.2067 23.5067 72.46 22.8733 72.46 22.02C72.46 21.1667 72.2133 20.5467 71.72 20.16C71.2267 19.76 70.4533 19.56 69.4 19.56H65.66V24.52H69.4ZM77.2086 22.24H79.2286V32H77.2086V22.24ZM79.3886 17.88V19.98H77.0686V17.88H79.3886ZM87.2923 22C88.1323 22 88.879 22.2133 89.5323 22.64C90.199 23.0667 90.7123 23.6667 91.0723 24.44C91.4457 25.2133 91.6323 26.1067 91.6323 27.12C91.6323 28.12 91.4523 29 91.0923 29.76C90.7323 30.52 90.219 31.1067 89.5523 31.52C88.899 31.9333 88.1457 32.14 87.2923 32.14C86.559 32.14 85.9123 31.9867 85.3523 31.68C84.7923 31.36 84.3657 30.9067 84.0723 30.32V35.6H82.0523V22.24H84.0723V23.84C84.3657 23.2533 84.7923 22.8 85.3523 22.48C85.9123 22.16 86.559 22 87.2923 22ZM86.8123 30.54C87.6923 30.54 88.3723 30.2467 88.8523 29.66C89.3323 29.06 89.5723 28.2133 89.5723 27.12C89.5723 26.0133 89.3257 25.1533 88.8323 24.54C88.3523 23.9267 87.679 23.62 86.8123 23.62C85.9323 23.62 85.2523 23.92 84.7723 24.52C84.3057 25.12 84.0723 25.9733 84.0723 27.08C84.0723 28.1867 84.3057 29.04 84.7723 29.64C85.2523 30.24 85.9323 30.54 86.8123 30.54ZM99.1088 22C99.9488 22 100.695 22.2133 101.349 22.64C102.015 23.0667 102.529 23.6667 102.889 24.44C103.262 25.2133 103.449 26.1067 103.449 27.12C103.449 28.12 103.269 29 102.909 29.76C102.549 30.52 102.035 31.1067 101.369 31.52C100.715 31.9333 99.9621 32.14 99.1088 32.14C98.3754 32.14 97.7288 31.9867 97.1688 31.68C96.6088 31.36 96.1821 30.9067 95.8888 30.32V35.6H93.8688V22.24H95.8888V23.84C96.1821 23.2533 96.6088 22.8 97.1688 22.48C97.7288 22.16 98.3754 22 99.1088 22ZM98.6288 30.54C99.5088 30.54 100.189 30.2467 100.669 29.66C101.149 29.06 101.389 28.2133 101.389 27.12C101.389 26.0133 101.142 25.1533 100.649 24.54C100.169 23.9267 99.4954 23.62 98.6288 23.62C97.7488 23.62 97.0688 23.92 96.5888 24.52C96.1221 25.12 95.8888 25.9733 95.8888 27.08C95.8888 28.1867 96.1221 29.04 96.5888 29.64C97.0688 30.24 97.7488 30.54 98.6288 30.54ZM105.685 17.9H107.705V32H105.685V17.9ZM118.889 27.46H111.989C112.136 29.5267 113.162 30.56 115.069 30.56C116.189 30.56 117.202 30.1933 118.109 29.46L118.729 30.88C118.276 31.2667 117.716 31.5733 117.049 31.8C116.382 32.0267 115.702 32.14 115.009 32.14C113.449 32.14 112.216 31.6933 111.309 30.8C110.416 29.9067 109.969 28.6733 109.969 27.1C109.969 26.1 110.162 25.2133 110.549 24.44C110.949 23.6667 111.502 23.0667 112.209 22.64C112.929 22.2133 113.742 22 114.649 22C115.969 22 117.002 22.4267 117.749 23.28C118.509 24.1333 118.889 25.3133 118.889 26.82V27.46ZM114.689 23.48C113.916 23.48 113.296 23.7267 112.829 24.22C112.376 24.7 112.102 25.3933 112.009 26.3H117.149C117.109 25.3933 116.876 24.7 116.449 24.22C116.036 23.7267 115.449 23.48 114.689 23.48Z" fill="white"/>
<defs>
<clipPath id="clip0_1745_2600">
<rect width="50" height="50" fill="white"/>
</clipPath>
</defs>
</svg>
