<svg width="90" height="41" viewBox="0 0 90 41" fill="none" xmlns="http://www.w3.org/2000/svg">
<path d="M49.64 27V12.9H55.48C57 12.9 58.1733 13.2667 59 14C59.8267 14.72 60.24 15.7333 60.24 17.04C60.24 18.0933 59.96 18.96 59.4 19.64C58.84 20.3067 58.0467 20.7533 57.02 20.98C57.66 21.1933 58.2 21.7067 58.64 22.52L61.08 27H58.8L56.36 22.5C56.08 21.98 55.7533 21.6333 55.38 21.46C55.02 21.2733 54.5533 21.18 53.98 21.18H51.72V27H49.64ZM51.72 19.62H55.14C57.1933 19.62 58.22 18.7733 58.22 17.08C58.22 15.4 57.1933 14.56 55.14 14.56H51.72V19.62ZM66.4352 27.18C64.0752 27.18 62.8952 25.8667 62.8952 23.24V17.24H64.9152V23.26C64.9152 24.0467 65.0752 24.6267 65.3952 25C65.7152 25.3733 66.2218 25.56 66.9152 25.56C67.6752 25.56 68.2885 25.3067 68.7552 24.8C69.2352 24.2933 69.4752 23.6133 69.4752 22.76V17.24H71.4952V27H69.5352V25.44C69.2152 26.0133 68.7885 26.4467 68.2552 26.74C67.7218 27.0333 67.1152 27.18 66.4352 27.18ZM77.7619 27.18C76.9619 27.18 76.2152 27.08 75.5219 26.88C74.8285 26.6667 74.2485 26.3733 73.7819 26L74.3619 24.64C74.8552 24.9867 75.3952 25.2533 75.9819 25.44C76.5819 25.6267 77.1819 25.72 77.7819 25.72C78.4885 25.72 79.0219 25.5933 79.3819 25.34C79.7419 25.0867 79.9219 24.7467 79.9219 24.32C79.9219 23.9733 79.8019 23.7067 79.5619 23.52C79.3219 23.32 78.9619 23.1667 78.4819 23.06L76.5819 22.68C74.9019 22.3333 74.0619 21.4667 74.0619 20.08C74.0619 19.16 74.4285 18.4267 75.1619 17.88C75.8952 17.3333 76.8552 17.06 78.0419 17.06C78.7219 17.06 79.3685 17.16 79.9819 17.36C80.6085 17.56 81.1285 17.86 81.5419 18.26L80.9619 19.62C80.5619 19.2733 80.1019 19.0067 79.5819 18.82C79.0619 18.6333 78.5485 18.54 78.0419 18.54C77.3485 18.54 76.8219 18.6733 76.4619 18.94C76.1019 19.1933 75.9219 19.54 75.9219 19.98C75.9219 20.6467 76.3619 21.0733 77.2419 21.26L79.1419 21.64C80.0085 21.8133 80.6619 22.1067 81.1019 22.52C81.5552 22.9333 81.7819 23.4933 81.7819 24.2C81.7819 25.1333 81.4152 25.8667 80.6819 26.4C79.9485 26.92 78.9752 27.18 77.7619 27.18ZM88.0917 27.18C86.8651 27.18 85.9517 26.8667 85.3517 26.24C84.7517 25.6133 84.4517 24.7067 84.4517 23.52V18.8H82.5517V17.24H84.4517V14.3H86.4717V17.24H89.4917V18.8H86.4717V23.36C86.4717 24.0667 86.6184 24.6 86.9117 24.96C87.2184 25.32 87.7117 25.5 88.3917 25.5C88.6051 25.5 88.8117 25.48 89.0117 25.44C89.2117 25.3867 89.4117 25.3267 89.6117 25.26L89.9317 26.78C89.7317 26.9 89.4517 26.9933 89.0917 27.06C88.7451 27.14 88.4117 27.18 88.0917 27.18Z" fill="white"/>
<path d="M20.7319 1C10.6214 1 2.39258 9.12849 2.39258 19.1071C2.39258 29.0858 10.6253 37.2143 20.7319 37.2143C30.8385 37.2143 39.0712 29.0858 39.0712 19.1071C39.0712 9.12849 30.8385 1 20.7319 1ZM20.7047 2.60884C21.0183 2.61686 21.3163 2.7459 21.5352 2.96846C21.754 3.19101 21.8765 3.48945 21.8764 3.80015C21.8764 4.11611 21.7493 4.41912 21.523 4.64254C21.2967 4.86595 20.9898 4.99146 20.6698 4.99146C20.3498 4.99146 20.0429 4.86595 19.8166 4.64254C19.5903 4.41912 19.4632 4.11611 19.4632 3.80015C19.4631 3.64076 19.4955 3.48298 19.5583 3.33615C19.6211 3.18932 19.7131 3.05643 19.8289 2.94534C19.9446 2.83426 20.0818 2.74724 20.2322 2.68944C20.3827 2.63164 20.5433 2.60423 20.7047 2.60884ZM23.467 4.5701C25.5852 4.96182 27.5916 5.80409 29.347 7.03843C31.1023 8.27277 32.5644 9.86958 33.6318 11.718L32.208 14.8897C31.9636 15.4374 32.2157 16.081 32.7667 16.3261L35.5057 17.5251C35.5907 18.3705 35.6011 19.2215 35.5368 20.0686H34.012C33.8607 20.0686 33.7987 20.1682 33.7987 20.3138V21.0033C33.7987 22.6274 32.8714 22.9837 32.0567 23.0718C31.2807 23.1599 30.4233 22.75 30.3147 22.2827C29.8569 19.743 29.0965 19.2029 27.8938 18.2644C29.3875 17.3298 30.9393 15.9469 30.9393 14.1006C30.9393 12.1048 29.5543 10.8484 28.6115 10.2317C27.2847 9.36981 25.8181 9.19744 25.4224 9.19744H9.67087C11.8489 6.79505 14.7684 5.16866 17.9773 4.5701L19.8357 6.49305C20.2547 6.9259 20.9491 6.94506 21.3875 6.52752L23.467 4.5701ZM6.31882 13.3881C6.63274 13.3971 6.93074 13.5265 7.14952 13.749C7.3683 13.9714 7.49062 14.2693 7.49049 14.5794C7.49049 14.8954 7.36337 15.1984 7.13709 15.4218C6.91081 15.6452 6.60391 15.7707 6.28391 15.7707C5.9639 15.7707 5.657 15.6452 5.43072 15.4218C5.20444 15.1984 5.07732 14.8954 5.07732 14.5794C5.07726 14.42 5.10958 14.2622 5.17239 14.1154C5.2352 13.9686 5.32721 13.8357 5.44298 13.7246C5.55874 13.6135 5.69591 13.5265 5.84635 13.4687C5.9968 13.4109 6.15746 13.3835 6.31882 13.3881ZM35.0867 13.4417C35.4006 13.4507 35.6986 13.5802 35.9174 13.8026C36.1362 14.0251 36.2585 14.323 36.2584 14.633C36.2584 14.949 36.1313 15.252 35.905 15.4754C35.6787 15.6988 35.3718 15.8243 35.0518 15.8243C34.7318 15.8243 34.4249 15.6988 34.1986 15.4754C33.9723 15.252 33.8452 14.949 33.8452 14.633C33.8451 14.4736 33.8775 14.3159 33.9403 14.169C34.0031 14.0222 34.0951 13.8893 34.2109 13.7782C34.3266 13.6671 34.4638 13.5801 34.6142 13.5223C34.7647 13.4645 34.9254 13.4371 35.0867 13.4417ZM8.59232 13.6332H10.6951V22.9952H6.45073C5.92654 21.1777 5.76318 19.2774 5.96965 17.3987L8.56904 16.2572C9.12384 16.012 9.37602 15.3723 9.12772 14.8246L8.59232 13.6332ZM17.3682 13.7328H22.3769C22.6368 13.7328 24.2042 14.0278 24.2042 15.1885C24.2042 16.1499 23.0015 16.4947 22.0122 16.4947H17.3643L17.3682 13.7328ZM17.3682 20.4593H21.2052C21.5544 20.4593 23.0791 20.5589 23.564 22.4819C23.7153 23.0718 24.0529 24.9947 24.2818 25.6115C24.5107 26.301 25.4379 27.68 26.4272 27.68H32.6891C32.2694 28.2349 31.8105 28.7597 31.3157 29.2505L28.7667 28.7104C28.1731 28.584 27.5873 28.9594 27.4592 29.5455L26.854 32.3341C24.9078 33.2046 22.7942 33.6501 20.6576 33.6402C18.521 33.6303 16.4118 33.1652 14.4739 32.2767L13.8687 29.488C13.7407 28.9019 13.1587 28.5265 12.5651 28.6529L10.0705 29.1816C9.60755 28.7101 9.17723 28.2084 8.78242 27.68H20.9142C21.05 27.68 21.1431 27.657 21.1431 27.5306V23.294C21.1431 23.1714 21.05 23.1446 20.9142 23.1446H17.3643L17.3682 20.4593ZM11.7698 30.1622C12.0837 30.1712 12.3817 30.3006 12.6005 30.5231C12.8193 30.7455 12.9416 31.0434 12.9415 31.3535C12.9415 31.6695 12.8143 31.9725 12.588 32.1959C12.3618 32.4193 12.0549 32.5448 11.7349 32.5448C11.4149 32.5448 11.108 32.4193 10.8817 32.1959C10.6554 31.9725 10.5283 31.6695 10.5283 31.3535C10.5282 31.1941 10.5605 31.0363 10.6234 30.8895C10.6862 30.7427 10.7782 30.6098 10.8939 30.4987C11.0097 30.3876 11.1469 30.3006 11.2973 30.2428C11.4478 30.185 11.6084 30.1576 11.7698 30.1622ZM29.6357 30.2158C29.9497 30.2248 30.2477 30.3543 30.4664 30.5767C30.6852 30.7992 30.8075 31.0971 30.8074 31.4071C30.8074 31.7231 30.6803 32.0261 30.454 32.2495C30.2277 32.4729 29.9208 32.5984 29.6008 32.5984C29.2808 32.5984 28.9739 32.4729 28.7477 32.2495C28.5214 32.0261 28.3943 31.7231 28.3943 31.4071C28.3942 31.2477 28.4265 31.09 28.4893 30.9431C28.5521 30.7963 28.6441 30.6634 28.7599 30.5523C28.8757 30.4412 29.0128 30.3542 29.1633 30.2964C29.3137 30.2386 29.4744 30.2112 29.6357 30.2158Z" fill="white"/>
<path fill-rule="evenodd" clip-rule="evenodd" d="M37.6485 20.5C37.6485 25.0481 35.8418 29.4098 32.6258 32.6258C29.4098 35.8418 25.0481 37.6485 20.5 37.6485C15.9519 37.6485 11.5902 35.8418 8.3742 32.6258C5.15824 29.4098 3.35153 25.0481 3.35153 20.5C3.35153 15.9519 5.15824 11.5902 8.3742 8.3742C11.5902 5.15824 15.9519 3.35153 20.5 3.35153C25.0481 3.35153 29.4098 5.15824 32.6258 8.3742C35.8418 11.5902 37.6485 15.9519 37.6485 20.5ZM37.3257 18.8439L40 20.5L37.3257 22.1561L39.6235 24.3039L36.6802 25.4067L38.5168 27.9619L35.4084 28.4691L36.7148 31.3355L33.5679 31.224L34.2902 34.2902L31.224 33.5679L31.3355 36.7148L28.4691 35.4084L27.9619 38.5168L25.4067 36.6802L24.3039 39.6235L22.1561 37.3257L20.5 40L18.8439 37.3257L16.6961 39.6235L15.5933 36.6802L13.0381 38.5168L12.5309 35.4084L9.66453 36.7148L9.77596 33.5679L6.70975 34.2902L7.43212 31.224L4.28522 31.3355L5.59163 28.4691L2.48315 27.9619L4.3198 25.4067L1.37655 24.3039L3.67429 22.1561L1 20.5L3.67429 18.8439L1.37655 16.6961L4.3198 15.5933L2.48315 13.0381L5.59163 12.5309L4.28522 9.66453L7.43212 9.77596L6.70975 6.70975L9.77596 7.43212L9.66453 4.28522L12.5309 5.59163L13.0381 2.48315L15.5933 4.3198L16.6961 1.37655L18.8439 3.67429L20.5 1L22.1561 3.67429L24.3039 1.37655L25.4067 4.3198L27.9619 2.48315L28.4691 5.59163L31.3355 4.28522L31.224 7.43212L34.2902 6.70975L33.5679 9.77596L36.7148 9.66453L35.4084 12.5309L38.5168 13.0381L36.6802 15.5933L39.6235 16.6961L37.3257 18.8439Z" fill="white" stroke="white" stroke-linecap="round" stroke-linejoin="round"/>
</svg>
