<svg width="113" height="51" viewBox="0 0 113 51" fill="none" xmlns="http://www.w3.org/2000/svg">
<path d="M50.3362 31.66C49.2428 31.66 48.2362 31.5133 47.3162 31.22C46.4095 30.9267 45.6295 30.4933 44.9762 29.92L45.7162 28.4C46.4095 28.96 47.1228 29.3667 47.8562 29.62C48.6028 29.86 49.4362 29.98 50.3562 29.98C51.4095 29.98 52.2228 29.7867 52.7962 29.4C53.3695 29 53.6562 28.44 53.6562 27.72C53.6562 27.1067 53.3895 26.6533 52.8562 26.36C52.3228 26.0533 51.4695 25.7667 50.2962 25.5C49.1762 25.26 48.2562 24.9867 47.5362 24.68C46.8162 24.3733 46.2495 23.96 45.8362 23.44C45.4362 22.9067 45.2362 22.2333 45.2362 21.42C45.2362 20.5933 45.4495 19.8667 45.8762 19.24C46.3162 18.6133 46.9362 18.1267 47.7362 17.78C48.5362 17.42 49.4628 17.24 50.5162 17.24C51.5028 17.24 52.4295 17.3933 53.2962 17.7C54.1762 17.9933 54.8962 18.42 55.4562 18.98L54.7362 20.5C54.0828 19.9667 53.4095 19.5733 52.7162 19.32C52.0362 19.0533 51.3095 18.92 50.5362 18.92C49.5228 18.92 48.7228 19.1333 48.1362 19.56C47.5628 19.9733 47.2762 20.5533 47.2762 21.3C47.2762 21.94 47.5295 22.4267 48.0362 22.76C48.5428 23.08 49.3562 23.3733 50.4762 23.64C51.6495 23.9067 52.5962 24.1867 53.3162 24.48C54.0495 24.76 54.6295 25.1533 55.0562 25.66C55.4962 26.1533 55.7162 26.8 55.7162 27.6C55.7162 28.4133 55.4962 29.1267 55.0562 29.74C54.6295 30.3533 54.0095 30.8267 53.1962 31.16C52.3962 31.4933 51.4428 31.66 50.3362 31.66ZM62.2552 31.64C61.2952 31.64 60.4486 31.4333 59.7152 31.02C58.9952 30.6067 58.4352 30.02 58.0352 29.26C57.6486 28.4867 57.4552 27.5933 57.4552 26.58C57.4552 25.5533 57.6486 24.66 58.0352 23.9C58.4352 23.1267 58.9952 22.5333 59.7152 22.12C60.4486 21.7067 61.2952 21.5 62.2552 21.5C63.2152 21.5 64.0552 21.7067 64.7752 22.12C65.5086 22.5333 66.0686 23.1267 66.4552 23.9C66.8552 24.66 67.0552 25.5533 67.0552 26.58C67.0552 27.5933 66.8552 28.4867 66.4552 29.26C66.0686 30.02 65.5086 30.6067 64.7752 31.02C64.0552 31.4333 63.2152 31.64 62.2552 31.64ZM62.2552 30.04C63.1486 30.04 63.8286 29.7467 64.2952 29.16C64.7752 28.5733 65.0152 27.7133 65.0152 26.58C65.0152 25.46 64.7752 24.6067 64.2952 24.02C63.8152 23.42 63.1352 23.12 62.2552 23.12C61.3752 23.12 60.6952 23.42 60.2152 24.02C59.7352 24.6067 59.4952 25.46 59.4952 26.58C59.4952 27.7133 59.7286 28.5733 60.1952 29.16C60.6752 29.7467 61.3619 30.04 62.2552 30.04ZM69.3043 17.4H71.3243V31.5H69.3043V17.4ZM74.148 21.74H76.168V31.5H74.148V21.74ZM76.328 17.38V19.48H74.008V17.38H76.328ZM87.9918 17.4V31.5H85.9918V29.82C85.6985 30.4067 85.2718 30.86 84.7118 31.18C84.1518 31.4867 83.5051 31.64 82.7718 31.64C81.9318 31.64 81.1785 31.4267 80.5118 31C79.8585 30.5733 79.3451 29.9733 78.9718 29.2C78.6118 28.4267 78.4318 27.54 78.4318 26.54C78.4318 25.5267 78.6118 24.64 78.9718 23.88C79.3451 23.12 79.8585 22.5333 80.5118 22.12C81.1651 21.7067 81.9185 21.5 82.7718 21.5C83.5051 21.5 84.1451 21.66 84.6918 21.98C85.2518 22.2867 85.6785 22.7267 85.9718 23.3V17.4H87.9918ZM83.2518 30.04C84.1318 30.04 84.8051 29.74 85.2718 29.14C85.7518 28.54 85.9918 27.6867 85.9918 26.58C85.9918 25.4733 85.7518 24.62 85.2718 24.02C84.8051 23.42 84.1318 23.12 83.2518 23.12C82.3718 23.12 81.6851 23.42 81.1918 24.02C80.7118 24.6067 80.4718 25.4467 80.4718 26.54C80.4718 27.6333 80.7185 28.4933 81.2118 29.12C81.7051 29.7333 82.3851 30.04 83.2518 30.04ZM90.8082 21.74H92.8282V31.5H90.8082V21.74ZM92.9882 17.38V19.48H90.6682V17.38H92.9882ZM100.272 30.08C100.579 30.08 100.879 30.06 101.172 30.02L101.072 31.56C100.739 31.6133 100.392 31.64 100.032 31.64C98.7653 31.64 97.8186 31.3333 97.192 30.72C96.5786 30.0933 96.272 29.1933 96.272 28.02V23.3H94.372V21.74H96.272V18.8H98.292V21.74H100.972V23.3H98.292V27.94C98.292 29.3667 98.952 30.08 100.272 30.08ZM111.779 21.76L105.959 35.1H103.919L105.619 31.26L101.519 21.76H103.639L106.679 29.22L109.759 21.76H111.779Z" fill="white"/>
<g clip-path="url(#clip0_1745_2575)">
<path opacity="0.45" d="M23.9957 0.500977L15.9937 14.7875H0L7.99591 0.500977H23.9957Z" fill="white"/>
<path opacity="0.6" d="M15.9938 14.7875H31.9918L23.9965 0.500977H7.99609L15.9938 14.7875Z" fill="white"/>
<path opacity="0.8" d="M7.99591 29.0679L15.9936 14.7875L7.99591 0.500977L0 14.7875L7.99591 29.0679Z" fill="white"/>
<path opacity="0.45" d="M8.07422 50.4989L16.0763 36.2124H32.0754L24.0734 50.4989H8.07422Z" fill="white"/>
<path opacity="0.6" d="M16.0761 36.2124H0.078125L8.07403 50.4989H24.0732L16.0761 36.2124Z" fill="white"/>
<path opacity="0.8" d="M24.0733 21.9307L16.0762 36.2123L24.0733 50.4988L32.0753 36.2123L24.0733 21.9307Z" fill="white"/>
</g>
<defs>
<clipPath id="clip0_1745_2575">
<rect width="32.0755" height="50" fill="white" transform="translate(0 0.5)"/>
</clipPath>
</defs>
</svg>
