<svg width="114" height="60" viewBox="0 0 114 60" fill="none" xmlns="http://www.w3.org/2000/svg">
<path fill-rule="evenodd" clip-rule="evenodd" d="M103.792 29.9084C103.692 29.6999 103.65 29.5926 103.597 29.4913C102.173 26.7741 100.755 24.0629 99.3195 21.3517C99.1771 21.0776 99.1949 20.9168 99.3906 20.6844C101.651 18.0327 103.899 15.3692 106.153 12.7057C106.231 12.6103 106.302 12.515 106.331 12.3482L104.356 12.8666C101.621 13.5935 98.8923 14.3205 96.1635 15.0534C95.9084 15.119 95.7956 15.0474 95.6651 14.8329C94.1109 12.229 92.5566 9.631 90.9964 7.03302C90.9133 6.89597 90.8303 6.76488 90.6583 6.65166C90.5337 7.34287 90.4032 8.04003 90.2845 8.73124L88.9853 16.0783C88.9379 16.3405 88.8726 16.6086 88.8489 16.8708C88.8252 17.1211 88.7006 17.2164 88.4692 17.2879C85.248 18.3009 82.0327 19.3258 78.8173 20.3507C78.675 20.3983 78.5385 20.452 78.3843 20.589C81.0182 21.6378 83.6462 22.6924 86.3217 23.759C86.2268 23.8365 86.1616 23.8961 86.0904 23.9438C84.4471 25.0104 82.7979 26.077 81.1547 27.1555C80.9589 27.2866 80.8047 27.3045 80.5792 27.2032C78.6156 26.3153 76.6402 25.4454 74.6706 24.5575C73.7867 24.1642 72.9918 23.6339 72.3748 22.8772C70.9748 21.1551 71.2536 19.2006 73.1164 18.0089C73.7274 17.6156 74.4215 17.3237 75.1096 17.0972C78.2656 16.0664 81.4276 15.0713 84.5895 14.0702C84.8564 13.9868 84.9751 13.8676 85.0285 13.5816C85.4497 11.1326 85.8887 8.68357 86.3277 6.23455C86.565 4.92364 86.6895 3.58294 87.3243 2.38524C87.5675 1.92642 87.8582 1.47356 88.2082 1.08625C89.4659 -0.314042 91.2159 -0.36767 92.5447 0.967075C92.9956 1.41994 93.3812 1.95026 93.7134 2.4925C95.1787 4.88789 96.6143 7.30116 98.0499 9.71442C98.216 10.0004 98.3703 10.06 98.6847 9.97065C102.214 9.02322 105.744 8.0877 109.274 7.14623C110.004 6.95555 110.739 6.88405 111.487 7.0211C113.112 7.32499 113.824 8.57036 113.278 10.1494C113.029 10.8704 112.596 11.4782 112.11 12.0502C109.648 14.964 107.186 17.8778 104.712 20.7797C104.51 21.018 104.504 21.1909 104.647 21.453C106.124 24.2477 107.583 27.0423 109.048 29.8429C109.398 30.5102 109.665 31.2074 109.677 31.9761C109.695 33.722 108.42 35.1521 106.693 35.4083C105.726 35.5513 104.825 35.3427 103.917 35.0627C101.704 34.3774 99.4915 33.6981 97.2728 33.0308C97.0652 32.9712 96.988 32.8877 96.9524 32.6673C96.6974 31.1001 96.4185 29.539 96.1516 27.9718C96.1457 27.9301 96.1575 27.8825 96.1635 27.7871C98.6847 28.4902 101.188 29.1814 103.792 29.9084Z" fill="white"/>
<path fill-rule="evenodd" clip-rule="evenodd" d="M99.4792 52.7301C97.4859 52.7242 95.4867 52.7182 93.4934 52.7242C93.2324 52.7242 93.0841 52.6467 92.9358 52.4203C90.5747 48.8093 88.2018 45.1984 85.8289 41.5933C85.7518 41.4801 85.6746 41.3669 85.5382 41.1762C85.028 45.0732 84.5297 48.8808 84.0314 52.7003H78.805C78.8643 52.1879 78.9177 51.6933 78.983 51.2047C79.4932 47.2899 80.0033 43.381 80.5194 39.4661C81.0059 35.73 81.4983 31.9879 81.9907 28.2518C82.0025 28.1386 82.0797 28.0016 82.1686 27.942C83.9661 26.7622 85.7696 25.6002 87.573 24.4264C87.5967 24.4085 87.6382 24.4085 87.7272 24.3787C87.1814 28.5557 86.6416 32.703 86.0958 36.8502C86.1196 36.8621 86.1374 36.88 86.1611 36.8979C88.9908 33.7458 91.8205 30.5936 94.7155 27.3759L94.9409 28.6868C95.1426 29.8726 95.3384 31.0643 95.5579 32.2501C95.5994 32.4885 95.5401 32.6374 95.3799 32.8043C93.5528 34.7289 91.7256 36.6596 89.9044 38.5842C89.8273 38.6676 89.7502 38.757 89.6552 38.8523C89.7146 38.9477 89.762 39.0371 89.8213 39.1205L99.2656 52.4322C99.3249 52.5097 99.402 52.5752 99.4732 52.6467C99.4792 52.6825 99.4792 52.7063 99.4792 52.7301ZM37.5516 41.1941C37.4745 40.783 37.4152 40.1871 37.2372 39.627C36.3592 36.9158 33.5948 35.4261 30.7235 36.0994C27.5794 36.8324 25.331 39.3171 25.0048 42.5408C24.7615 44.9243 26.0429 47.2243 28.4218 48.0824C30.3379 48.7795 32.1769 48.4875 33.8914 47.4567C36.1575 46.0922 37.3914 44.0602 37.5516 41.1941ZM23.7412 51.2762C23.5869 52.4441 23.4386 53.5405 23.2962 54.6429C23.1064 56.1027 22.9166 57.5686 22.7327 59.0285C22.7089 59.2013 22.6615 59.2728 22.4776 59.2728C21.042 59.2668 19.6063 59.2668 18.1707 59.2668C18.1411 59.2668 18.1055 59.2489 18.0283 59.2251C18.1173 58.5339 18.2004 57.8427 18.2894 57.1515C18.6038 54.7263 18.9241 52.3011 19.2445 49.8759C19.6123 47.1051 19.903 44.3165 20.3716 41.5636C21.2021 36.6834 25.3251 32.4825 30.1599 31.4338C32.96 30.826 35.6473 31.1061 38.0915 32.6911C40.5296 34.2701 41.9297 36.5642 42.25 39.4482C42.7009 43.524 41.2059 46.9085 38.3228 49.7091C36.4304 51.5503 34.1643 52.7182 31.5481 53.1115C28.8548 53.5167 26.3217 53.0698 24.0556 51.4728C23.9725 51.4133 23.8835 51.3656 23.7412 51.2762ZM21.4038 28.091C19.7962 29.2946 18.2419 30.4566 16.6876 31.6185C16.4385 31.2193 16.213 30.826 15.9461 30.4566C15.2698 29.5091 14.4274 28.8 13.2113 28.7107C12.1969 28.6392 11.3248 28.9728 10.6367 29.7296C10.0197 30.4029 9.93664 31.3563 10.5121 32.119C11.1468 32.9533 11.8469 33.7458 12.5528 34.5204C13.7333 35.8015 14.9613 37.035 16.1359 38.328C17.2037 39.5018 18.0521 40.8187 18.3131 42.4216C18.6275 44.3284 18.2478 46.1458 17.3461 47.8261C15.6851 50.9306 13.063 52.7301 9.61037 53.2903C8.08576 53.5405 6.56115 53.4869 5.07214 53.0519C3.09667 52.468 1.72037 51.163 0.836458 49.3277C0.522045 48.6782 0.284752 47.993 0 47.2958C1.73224 46.3663 3.41109 45.4605 5.1196 44.5429C5.17892 44.6859 5.22045 44.8051 5.27384 44.9183C5.56452 45.5022 5.80181 46.1219 6.16369 46.6642C7.2315 48.2611 8.95781 48.7438 10.7078 47.9572C11.1587 47.7546 11.5918 47.4686 11.9596 47.1409C13.0867 46.1339 13.3003 44.7336 12.4638 43.4703C11.9833 42.7434 11.3841 42.0939 10.7968 41.4384C9.40274 39.8832 7.94932 38.3757 6.58488 36.7906C5.64757 35.6942 5.00688 34.4191 4.80518 32.9533C4.58569 31.3563 4.9001 29.8488 5.73063 28.5021C7.78914 25.1593 10.779 23.4194 14.7359 23.5624C16.9902 23.6458 18.7877 24.7064 20.1818 26.4642C20.597 26.9826 20.9826 27.5249 21.4038 28.091ZM59.6199 46.0445C59.3588 48.0585 59.1097 49.9713 58.8546 51.884C58.8427 51.9793 58.7656 52.1104 58.6826 52.1521C54.791 53.9636 49.6595 53.7133 46.462 50.0606C44.7416 48.1002 44.0238 45.7763 44.1306 43.1903C44.3797 37.2018 49.3214 31.9701 55.2359 31.2431C58.6885 30.8141 61.7199 31.7556 64.0632 34.4489C65.659 36.2842 66.3946 38.477 66.2878 40.8962C66.2166 42.4931 65.9675 44.0841 65.7658 45.6751C65.4869 47.9274 65.1785 50.1798 64.8818 52.4322C64.87 52.5097 64.8581 52.5931 64.8344 52.6944H60.1775C60.2368 52.176 60.2962 51.6695 60.3614 51.163C60.6996 48.5591 61.0674 45.967 61.364 43.3571C61.5479 41.7364 61.4352 40.1215 60.6936 38.62C59.9105 37.023 58.5876 36.1769 56.8554 35.9922C53.2663 35.6108 49.8553 38.1135 49.09 41.6589C48.5857 44.0007 49.3807 46.2411 51.2375 47.4865C53.0469 48.6961 54.9867 48.6961 56.9563 47.9155C57.9588 47.5222 58.8071 46.8906 59.6199 46.0445ZM79.2321 31.696C79.0186 33.3167 78.8109 34.9137 78.5974 36.5463C77.6126 36.5463 76.6456 36.5404 75.6787 36.5463C74.8956 36.5523 74.1837 37.0588 73.9464 37.7917C73.8515 38.0777 73.8219 38.3876 73.7803 38.6855C73.2879 42.4097 72.8015 46.1339 72.315 49.864C72.1905 50.8055 72.0718 51.741 71.9472 52.6944H67.1005C67.1895 51.9793 67.2785 51.2822 67.3675 50.591C67.6819 48.1777 67.9963 45.7644 68.3167 43.3512C68.5955 41.2656 68.8387 39.1682 69.165 37.0886C69.598 34.2999 72.3625 31.8211 75.1685 31.7019C76.5092 31.6483 77.8499 31.696 79.2321 31.696Z" fill="white"/>
<path d="M105.198 52.7004V50.6446H105.186L104.385 52.7004H104.13L103.329 50.6446H103.318V52.7004H102.914V50.2394H103.537L104.267 52.1105L104.985 50.2394H105.602V52.7004H105.198ZM101.639 50.5672V52.7004H101.235V50.5672H100.47V50.2394H102.41V50.5672H101.639ZM27.8999 24.635H29.1042L28.8195 22.8056L27.8999 24.635ZM29.2881 25.8148H27.2889L26.6542 27.0661H25.2363L28.3627 21.2028H29.7271L30.789 27.0661H29.4779L29.2881 25.8148ZM36.4484 22.3826H35.7365L35.4993 23.7352H36.2111C36.6383 23.7352 36.9823 23.4492 36.9823 22.9189C36.9823 22.5613 36.7628 22.3826 36.4484 22.3826ZM34.7221 21.2028H36.5908C37.5696 21.2028 38.2578 21.7867 38.2578 22.7997C38.2578 24.0689 37.3679 24.921 36.0925 24.921H35.2857L34.906 27.0661H33.6899L34.7221 21.2028ZM42.3986 24.635H43.6028L43.3181 22.8056L42.3986 24.635ZM43.7926 25.8148H41.7935L41.1587 27.0661H39.7409L42.8672 21.2028H44.2316L45.2935 27.0661H43.9825L43.7926 25.8148ZM51.6945 26.8576C51.2852 27.0482 50.8284 27.1614 50.3716 27.1614C48.8292 27.1614 47.8563 25.9995 47.8563 24.5396C47.8563 22.6746 49.4165 21.1074 51.2733 21.1074C51.736 21.1074 52.1572 21.2206 52.5013 21.4113L52.3293 22.8176C52.0742 22.5315 51.6589 22.3349 51.1428 22.3349C50.0809 22.3349 49.1317 23.3002 49.1317 24.4205C49.1317 25.2725 49.6657 25.9399 50.508 25.9399C51.0242 25.9399 51.5225 25.7433 51.8547 25.4632L51.6945 26.8576ZM59.1455 24.7005H56.6065L56.1912 27.0601H54.9751L56.0073 21.1968H57.2234L56.8141 23.5147H59.3531L59.7625 21.1968H60.9845L59.9523 27.0601H58.7362L59.1455 24.7005ZM63.6185 27.0661L64.6448 21.2028H67.8838L67.6762 22.3826H65.6592L65.4516 23.5207H67.3025L67.0948 24.7005H65.238L65.0304 25.8803H67.0474L66.8397 27.0601L63.6185 27.0661Z" fill="white"/>
</svg>
