<svg width="144" height="43" viewBox="0 0 144 43" fill="none" xmlns="http://www.w3.org/2000/svg">
<path d="M15.3266 25.6961C15.3266 26.6191 15.1403 27.5422 14.7103 28.342C14.2959 29.1223 13.7307 29.8126 13.0476 30.373C12.3095 30.9263 11.448 31.3577 10.4633 31.6659C9.47863 31.9741 8.37067 32.1575 7.20107 32.1575C5.78493 32.1575 4.47773 31.9712 3.38553 31.6043C2.29333 31.2373 1.1696 30.5579 0 29.6979L1.84613 26.6822C2.7692 27.4204 3.569 27.9751 4.24697 28.3449C4.98513 28.7147 5.7233 28.8365 6.4629 28.8365C7.38597 28.8365 8.12557 28.59 8.67883 28.0983C9.2321 27.6067 9.53884 26.9904 9.53884 26.192C9.53884 25.8222 9.4772 25.5155 9.41557 25.2073C9.27733 24.8742 9.09092 24.5632 8.8623 24.2842C8.53758 23.891 8.16543 23.5396 7.75433 23.2379L5.9082 21.8834L4.24553 20.6507C3.69227 20.2207 3.1992 19.7277 2.7692 19.2346C2.33073 18.7297 1.95841 18.171 1.66123 17.5719C1.4147 16.9556 1.23123 16.2791 1.23123 15.4793C1.23123 14.5562 1.41757 13.7564 1.7845 13.0182C2.15112 12.2777 2.67619 11.6268 3.32247 11.1119C3.9388 10.6203 4.7386 10.1888 5.66167 9.87922C6.58473 9.56962 7.568 9.44922 8.61434 9.44922C9.7223 9.44922 10.8303 9.57248 11.8766 9.87922C12.9229 10.186 13.9076 10.6174 14.7691 11.1721L13.1064 13.8954C11.9368 13.0956 10.7672 12.6628 9.47577 12.6628C8.67597 12.6628 8.05963 12.8491 7.56943 13.2791C7.07923 13.7091 6.83127 14.2022 6.83127 14.8171C6.83127 15.3703 7.0778 15.925 7.5078 16.355C7.9378 16.8467 8.74047 17.463 9.80113 18.3244L12.5245 20.4171C13.2626 21.0334 13.8173 21.5867 14.2473 22.14C14.6773 22.6932 14.9855 23.1863 15.1073 23.7396C15.2306 24.4777 15.3539 25.0941 15.3539 25.709L15.3266 25.6961ZM34.4358 20.6636C34.4358 18.3244 33.9442 16.4167 33.0197 15.0636C32.035 13.7091 30.7264 13.0326 29.0809 13.0326C27.358 13.0326 25.9276 13.7707 24.9572 15.1869C23.9109 16.603 23.4192 18.5724 23.4192 21.0951C23.4192 23.4959 23.9109 25.4037 24.8956 26.8184C25.8803 28.2331 27.2964 28.911 29.0193 28.911C30.0656 28.911 30.9256 28.6645 31.6036 28.1112C32.2867 27.5508 32.8518 26.8605 33.2662 26.0802C33.7174 25.2383 34.0094 24.3204 34.1277 23.3726C34.3742 22.3879 34.4358 21.4663 34.4358 20.6493V20.6636ZM40.4673 20.4028C40.4673 22.1256 40.2208 23.665 39.6675 25.0797C39.1759 26.4959 38.4348 27.7257 37.5132 28.8351C36.5901 29.8814 35.4822 30.7414 34.1879 31.2961C32.895 31.9124 31.5419 32.1561 30.0642 32.1561C29.4439 32.1618 28.8249 32.0998 28.218 31.9712C27.6648 31.8479 27.1101 31.663 26.5554 31.4179C26.0637 31.1714 25.509 30.8016 25.0174 30.3716C24.4538 29.8697 23.9197 29.3356 23.4178 28.772V42.4962H17.835V10.0641H23.3734V13.2175C24.3581 11.9246 25.466 11.0015 26.6356 10.4483C27.8052 9.83192 29.2199 9.58825 30.7593 9.58825C32.1755 9.58825 33.4827 9.83479 34.6365 10.3881C35.7745 10.9265 36.7984 11.6788 37.6522 12.604C38.5122 13.5271 39.1286 14.6967 39.6216 15.9895C40.1749 17.344 40.4214 18.8204 40.4214 20.4329L40.4673 20.4028ZM67.2563 31.6659V28.7734C66.1483 30.0061 65.0404 30.8661 63.8708 31.4194C62.7012 31.9726 61.3481 32.2192 59.8574 32.2192C58.1346 32.2192 56.7041 31.911 55.5488 31.2345C54.3936 30.5579 53.5178 29.5718 53.0262 28.2187C52.8956 27.8999 52.7925 27.5704 52.718 27.234L52.5317 26.0644C52.4551 25.5552 52.4139 25.0413 52.4084 24.5265V10.1258H58.1317V22.4954L58.255 25.0181C58.3782 25.5714 58.5631 26.1261 58.8082 26.5561C59.4848 27.7887 60.6544 28.4022 62.3156 28.4022C64.4699 28.4022 65.9462 27.4791 66.7589 25.6789C66.9453 25.1872 67.1287 24.6942 67.1889 24.1409C67.2743 23.3435 67.3155 22.542 67.3122 21.7401V10.0469H73.0355V31.7261H67.2563V31.6659ZM91.8122 31.6659V19.3708L91.6889 16.8481C91.5656 16.2948 91.3807 15.7401 91.1356 15.3101C90.4591 14.0775 89.2895 13.5256 87.6283 13.5256C86.6631 13.5156 85.7109 13.7483 84.8591 14.2022C84.1209 14.6322 83.5046 15.3101 83.1362 16.1716C82.9499 16.6632 82.7664 17.1563 82.7062 17.7712C82.6446 18.3244 82.5829 19.1257 82.5829 20.1104V31.7419H76.8596V10.0641H82.5829V12.9566C83.6909 11.7239 84.7989 10.8639 85.9685 10.3107C87.1381 9.75739 88.4911 9.51085 89.9818 9.51085C91.7047 9.51085 93.1351 9.88065 94.2904 10.5572C95.4457 11.2337 96.3215 12.2801 96.8131 13.5729C96.9364 13.8811 97.0596 14.1893 97.1212 14.5576L97.3678 15.7272C97.4471 16.2361 97.4883 16.7502 97.491 17.2652V31.6659H91.8122Z" fill="white"/>
<path d="M101.474 31.6666H107.197V20.22L115.797 32.0981L121.106 30.2648L112.429 19.4948L119.739 11.6172L115.43 9.77104L107.799 18.6333H107.183V0H101.459L101.474 31.6666ZM42.8848 32.8993H48.6081V1.20257H42.8848V32.8993Z" fill="white"/>
<path d="M126.029 14.1882V10.3125L143.322 18.9885V22.4958L126.029 31.1102V27.2975L139.445 20.7128L126.029 14.1882Z" fill="white"/>
</svg>
