<svg width="142" height="54" viewBox="0 0 142 54" fill="none" xmlns="http://www.w3.org/2000/svg">
<path d="M54.7398 21.4662H50.168V18.7188H62.4108V21.4662H57.839V35.2163H54.741L54.7398 21.4662ZM65.2319 32.9713C66.4735 32.965 67.7078 32.7737 68.8948 32.4025L69.3666 34.6775C67.9573 35.1974 66.4684 35.4648 64.9674 35.4675C61.2027 35.4675 59.9014 33.7175 59.9014 30.8175V27.66C59.9014 25.11 61.0189 22.91 64.8656 22.91C68.7123 22.91 69.5839 25.16 69.5839 27.7575V30.3325H62.9162V30.9488C62.9162 32.3938 63.4128 32.9487 65.2455 32.9487L65.2319 32.9713ZM62.8789 27.8963H66.6908V27.3038C66.6908 26.1788 66.3456 25.3788 64.8718 25.3788C63.3979 25.3788 62.8802 26.1687 62.8802 27.3038L62.8789 27.8963Z" fill="white"/>
<path d="M77.5773 25.6636C76.4884 26.1686 75.4392 26.7573 74.4409 27.4261V35.1948H71.4062V23.1386H73.9393L74.1354 24.4723C75.1078 23.8101 76.1623 23.2793 77.2719 22.8936L77.5773 25.6636Z" fill="white"/>
<path d="M84.9016 25.6636C83.8126 26.1686 82.7634 26.7573 81.7651 27.4261V35.1948H78.7305V23.1386H81.2635L81.4597 24.4723C82.432 23.8101 83.4865 23.2793 84.5961 22.8936L84.9016 25.6636Z" fill="white"/>
<path d="M94.9268 35.1847H92.472L92.2522 34.3947C91.1919 35.0877 89.9554 35.4579 88.6911 35.461C86.5033 35.461 85.5547 33.9535 85.5547 31.876C85.5547 29.4285 86.6138 28.501 89.0314 28.501H91.9095V27.251C91.9095 25.9172 91.5408 25.4435 89.6274 25.4435C88.5119 25.4555 87.4005 25.5799 86.3096 25.8147L85.9408 23.5172C87.2768 23.1453 88.656 22.954 90.0421 22.9485C93.8068 22.9485 94.9119 24.2822 94.9119 27.3072L94.9268 35.1847ZM91.9306 30.6297H89.7205C88.7272 30.6297 88.4788 30.8985 88.4788 31.8135C88.4788 32.7285 88.7458 33.0297 89.687 33.0297C90.4794 33.019 91.2562 32.807 91.9456 32.4135L91.9306 30.6297ZM104.149 20.3797C103.584 20.2578 103.009 20.1917 102.431 20.1822C101.256 20.1822 101.083 20.7035 101.083 21.6197V23.1272H104.125L103.951 25.496H101.073V35.1435H98.0769V25.541H96.156V23.1722H98.0682V21.4597C98.0682 18.9572 99.2205 17.7247 101.88 17.7247C102.752 17.7208 103.62 17.8377 104.46 18.0722L104.149 20.3797ZM109.999 35.4247C105.898 35.4247 104.792 33.1497 104.792 30.6747V27.6535C104.792 25.1822 105.909 22.9035 109.999 22.9035C114.089 22.9035 115.214 25.1785 115.214 27.6535V30.701C115.207 33.1559 114.101 35.451 109.999 35.451V35.4247ZM109.999 25.4535C108.431 25.4535 107.789 26.1722 107.789 27.5285V30.7735C107.789 32.131 108.401 32.8485 109.999 32.8485C111.597 32.8485 112.21 32.1297 112.21 30.7735V27.541C112.21 26.1747 111.589 25.4572 109.999 25.4572V25.4535ZM122.913 25.651C121.823 26.1557 120.775 26.745 119.776 27.4135V35.1822H116.747V23.126H119.28L119.476 24.4597C120.448 23.7975 121.503 23.2667 122.612 22.881L122.913 25.651ZM131.157 35.1847V26.776C131.157 26.136 130.89 25.8135 130.201 25.8135C129.099 25.9385 128.031 26.2835 127.065 26.8322V35.2072H124.085V23.151H126.367L126.665 24.1697C128.158 23.417 129.79 22.9869 131.458 22.9072C131.92 22.864 132.384 22.9642 132.788 23.1944C133.192 23.4245 133.516 23.7736 133.716 24.1947C135.211 23.4247 136.854 22.986 138.532 22.9072C140.523 22.9072 141.238 24.3197 141.238 26.4697V35.2022H138.242V26.7935C138.242 26.1535 137.975 25.831 137.286 25.831C136.181 25.9458 135.113 26.2929 134.15 26.8497V35.2247L131.157 35.1847Z" fill="white"/>
<path fill-rule="evenodd" clip-rule="evenodd" d="M30.464 36.5086V36.3987L16.0234 28.0032V44.7873L30.464 53.1828V36.5086ZM30.464 17.7666V34.5575L16.0234 26.162V9.37109L30.464 17.7666Z" fill="white"/>
<path fill-rule="evenodd" clip-rule="evenodd" d="M32.0469 34.5575L46.4943 26.162V9.37109L32.0469 17.7666V34.5575Z" fill="white"/>
<path fill-rule="evenodd" clip-rule="evenodd" d="M0 16.7909L14.4406 25.1864V8.39546L0 0V16.7909Z" fill="white"/>
</svg>
