<svg width="122" height="50" viewBox="0 0 122 50" fill="none" xmlns="http://www.w3.org/2000/svg">
<path d="M67.623 19.62H62.863V17.9H74.483V19.62H69.703V32H67.623V19.62ZM80.5295 23.7L79.3095 23.82C78.3495 23.9133 77.6561 24.2067 77.2295 24.7C76.8161 25.1933 76.6095 25.82 76.6095 26.58V32H74.5895V22.24H76.5495V23.94C77.0695 22.7933 78.1295 22.16 79.7295 22.04L80.3895 22L80.5295 23.7ZM90.4737 22.24V32H88.5137V30.42C88.207 30.98 87.7803 31.4067 87.2337 31.7C86.7003 31.9933 86.1003 32.14 85.4337 32.14C83.0603 32.14 81.8737 30.8333 81.8737 28.22V22.24H83.8937V28.2C83.8937 28.9867 84.0537 29.5667 84.3737 29.94C84.6937 30.3133 85.187 30.5 85.8537 30.5C86.6403 30.5 87.267 30.2467 87.7337 29.74C88.2137 29.2333 88.4537 28.56 88.4537 27.72V22.24H90.4737ZM95.9404 22.24H98.6204V23.8H95.9404V32H93.9204V23.8H92.0204V22.24H93.9204V22.06C93.9204 20.7133 94.2604 19.7 94.9404 19.02C95.6337 18.34 96.6871 17.96 98.1004 17.88L99.0004 17.84L99.1204 19.36L98.2004 19.42C97.4004 19.46 96.8204 19.6667 96.4604 20.04C96.1137 20.4133 95.9404 20.98 95.9404 21.74V22.24ZM102.698 22.24H105.378V23.8H102.698V32H100.678V23.8H98.7782V22.24H100.678V22.06C100.678 20.7133 101.018 19.7 101.698 19.02C102.392 18.34 103.445 17.96 104.858 17.88L105.758 17.84L105.878 19.36L104.958 19.42C104.158 19.46 103.578 19.6667 103.218 20.04C102.872 20.4133 102.698 20.98 102.698 21.74V22.24ZM106.898 17.9H108.918V32H106.898V17.9ZM120.098 27.46H113.198C113.345 29.5267 114.371 30.56 116.278 30.56C117.398 30.56 118.411 30.1933 119.318 29.46L119.938 30.88C119.485 31.2667 118.925 31.5733 118.258 31.8C117.591 32.0267 116.911 32.14 116.218 32.14C114.658 32.14 113.425 31.6933 112.518 30.8C111.625 29.9067 111.178 28.6733 111.178 27.1C111.178 26.1 111.371 25.2133 111.758 24.44C112.158 23.6667 112.711 23.0667 113.418 22.64C114.138 22.2133 114.951 22 115.858 22C117.178 22 118.211 22.4267 118.958 23.28C119.718 24.1333 120.098 25.3133 120.098 26.82V27.46ZM115.898 23.48C115.125 23.48 114.505 23.7267 114.038 24.22C113.585 24.7 113.311 25.3933 113.218 26.3H118.358C118.318 25.3933 118.085 24.7 117.658 24.22C117.245 23.7267 116.658 23.48 115.898 23.48Z" fill="white"/>
<path d="M25.2522 50C38.8998 50 49.9634 38.8071 49.9634 25C49.9634 11.1929 38.8998 0 25.2522 0C11.6046 0 0.541016 11.1929 0.541016 25C0.541016 38.8071 11.6046 50 25.2522 50Z" fill="#4D4D4D"/>
<path d="M17.4805 47.1681C18.4914 47.5132 21.8862 48.6171 22.0306 47.5377C22.1089 46.9454 20.3173 46.3384 17.8917 45.0534C14.4419 43.2301 11.2858 40.8984 8.52954 38.1364C4.50636 34.1916 2.19298 28.8247 2.0874 23.1912C1.8818 15.6281 4.83853 9.51392 9.70195 5.56836C3.75457 10.1588 0.193787 17.1859 0.00936897 24.6965C-0.135041 30.167 1.39472 34.7758 4.26823 38.971C5.16051 40.1235 6.20355 41.1509 7.36937 42.0257C10.1229 44.1086 14.1493 46.0349 17.4805 47.1657" fill="white"/>
<path d="M50.3032 19.2702C48.771 12.0644 44.008 7.01988 37.6368 3.45615C42.5198 6.92443 49.3731 14.2991 45.3223 20.8049C41.8957 26.0159 33.5737 24.9952 29.0089 22.5182C23.5948 19.5811 16.8198 12.9725 23.5018 6.51322C27.8341 2.33269 41.6142 7.01988 39.1886 13.2687C37.7739 16.9034 32.2667 16.0957 29.7897 14.3187C27.9638 13.0068 26.4267 10.7525 27.2417 8.42482C27.5012 7.67829 27.4645 6.52057 26.4096 7.37234C25.6312 8.00872 25.2274 9.0563 25.0903 10.0354C23.9375 18.1835 38.4543 24.5008 42.7621 16.617C44.9968 12.5246 41.3743 6.58176 36.8144 4.14882C33.3877 2.31311 29.8215 1.02321 25.4501 1.33651C18.4597 1.82603 12.5952 6.20727 11.8585 13.3494C11.1242 20.4475 15.8701 26.8358 21.458 30.6566C27.3323 34.6707 35.2283 37.3165 42.4537 34.9228C48.9301 32.7762 51.6054 25.3428 50.3032 19.2751" fill="white"/>
<path d="M41.1883 13.7507C41.8835 9.08064 37.6613 5.87425 33.7622 4.41792C29.1656 2.70458 23.0931 3.45356 19.7447 7.25961C17.2971 10.0548 17.4562 14.1129 18.7192 17.3977C20.6283 22.359 24.9386 25.9447 29.9562 27.4941C33.5224 28.5955 37.8326 29.0753 41.4453 27.9126C46.7151 26.2164 48.4308 20.7215 47.3416 15.6868C47.1084 14.5984 46.7504 13.5405 46.2745 12.5342C45.6087 11.1366 43.5699 8.30719 46.3797 11.7534C46.6743 12.1375 46.9456 12.5388 47.1923 12.9552C47.772 13.9074 48.2315 14.9277 48.5606 15.9927C50.0928 20.6922 48.891 26.1748 44.6444 29.0116C41.3866 31.1827 37.2452 31.4421 33.4661 30.8987C28.3995 30.1644 23.6242 27.7168 20.3052 23.7786C17.2751 20.1879 15.2068 15.0308 16.4527 10.3167C17.3656 6.86799 20.1657 4.29309 23.519 3.21859C27.7607 1.84547 32.4307 2.4843 36.2466 4.71408C38.1606 5.82775 39.918 7.36975 40.8971 9.39149C41.3399 10.3023 41.578 11.2989 41.5946 12.3115C41.6044 12.7216 41.5724 13.1317 41.4992 13.5353C41.4722 13.6822 41.1614 14.0958 41.2055 13.7556" fill="#CDCDCD"/>
</svg>
