<svg width="92" height="48" viewBox="0 0 92 48" fill="none" xmlns="http://www.w3.org/2000/svg">
<path d="M72.4846 1.06342L65.8868 27.9021L59.2704 1.06342H40.1602V10.9741C37.8381 2.30138 29.3193 0.126209 21.7074 0.0026474C12.4262 -0.118584 2.14253 3.90303 1.78583 16.1754H14.6223C14.6223 12.4708 18.0145 10.3493 21.2178 10.4029C25.1508 10.3703 26.96 12.0488 27.0509 14.6623C26.9157 16.9307 25.5775 18.5091 21.2504 18.5091H16.9327V27.4149H20.8518C23.0782 27.4149 26.1766 28.6272 26.2978 31.7979C26.4471 35.577 23.8196 37.237 20.586 37.2696C14.8135 37.0551 13.3238 32.6208 13.3238 28.8067H0C0.0559529 31.3759 -0.0279766 48.1221 20.8541 47.9986C30.858 48.0895 38.1389 43.8837 40.1928 38.0856V46.9727H53.0433V18.0171L60.1493 46.9727H71.6313L78.763 18.0498V46.9984H91.8746V1.06342H72.4846ZM40.2021 27.8392C38.5655 24.4541 36.2621 22.9736 34.9659 22.505C37.6866 21.295 39.1111 19.6538 40.2021 16.3829V27.8392Z" fill="#FF0000"/>
</svg>
