<svg width="91" height="100" viewBox="0 0 91 100" fill="none" xmlns="http://www.w3.org/2000/svg">
<path fill-rule="evenodd" clip-rule="evenodd" d="M77.1423 2.28564H82.6284L82.456 3.25684H81.4276C80.9134 3.25684 80.5709 3.14314 80.5709 3.14314V4.91462C80.5709 5.54252 80.3992 6.17189 80.3992 6.79979C80.3992 7.42843 80.2276 8.05706 80.2276 8.40035H78.8566V6.79979C78.8566 6.17189 79.0282 5.54252 79.0282 4.91462C79.0282 4.22877 79.1984 3.42922 79.1984 3.14314H78.5133H77.8267C77.4842 3.14314 77.1416 3.25684 77.1416 3.25684V2.28564H77.1423ZM83.3128 2.28564H85.198C85.198 2.6282 85.3696 2.9715 85.3696 3.14241C85.3696 3.42848 85.7122 3.94196 85.8838 4.57059C85.8838 4.74224 86.0555 5.19923 86.0555 5.54179C86.2256 6.17042 86.5697 6.79906 86.5697 6.79906C86.5697 6.4565 86.9122 5.99951 87.0839 5.37087C87.2541 4.91388 87.5981 4.22803 87.769 3.77104C87.9406 3.25611 88.2832 2.6282 88.2832 2.28564H90.3408V4.22803C90.3408 4.91388 90.1691 5.82786 90.1691 6.4565V8.39962H88.7981V7.14235V5.54179C88.7981 5.02758 88.9698 4.57059 88.9698 4.2273V3.60013L87.0846 8.40035H85.7122C85.7122 8.05706 85.3696 7.42916 85.3696 6.97144C85.198 6.17189 84.8554 5.54252 84.8554 5.37161C84.8554 5.02905 84.5129 4.40041 84.3412 3.77178V5.37161C84.3412 5.8286 84.1696 6.45723 84.1696 6.97144V8.40035H82.7986C82.7986 7.77172 82.9702 6.97144 82.9702 6.28632C82.9702 5.7149 83.1404 4.91462 83.1404 4.22877C83.1412 3.60013 83.3128 2.9715 83.3128 2.28564ZM17.3713 99.598H13.714L12.2858 94.4559H5.54243L4.11424 99.598H0.571289L6.7997 76.8556H10.7996L17.3713 99.598ZM11.2566 90.7414L8.85725 82.1708L6.62805 90.7414H11.2566ZM30.514 99.598H27.428V97.2558C26.9138 98.2842 26.228 98.9708 25.5993 99.2562C24.9714 99.5987 24.2849 100 23.599 100C22.3417 100 21.0852 99.1417 20.1705 97.7136C19.1421 96.3998 18.6851 94.1149 18.6851 91.4287C18.6851 88.6867 19.1428 86.2852 19.9996 84.857C20.9136 83.486 22.228 82.6292 23.7714 82.6292C24.9715 82.6292 26.2287 83.486 27.3136 85.0286V76.8564H30.514V99.598ZM21.8283 91.0282C21.8283 92.7417 22.0571 94.2843 22.3425 94.9709C22.8574 95.9993 23.5997 96.6844 24.4572 96.6844C25.2568 96.6844 25.8854 96.1702 26.3996 95.5423C26.9138 94.6841 27.3136 93.2559 27.3136 91.5424C27.3136 89.7129 27.0283 88.1711 26.5141 87.3128C26.0563 86.4561 25.2568 85.8846 24.4572 85.8846C23.7714 85.8846 23.1428 86.4561 22.5713 87.1427C22.0564 87.9994 21.8283 89.3132 21.8283 91.0282ZM33.1422 91.0282C33.1422 89.7129 33.3132 88.2848 33.8281 86.971C34.3995 85.6 35.1426 84.5716 36.0566 83.885C37.0278 83.1427 38.2278 82.6285 39.3714 82.6285C41.1429 82.6285 42.7999 83.4853 43.8855 85.0279C45.0856 86.7414 45.7142 89.0278 45.7142 91.4279C45.7142 93.828 45.0856 95.9993 43.8855 97.5426C42.6283 99.1417 41.1429 100 39.3714 100C38.2858 100 37.2001 99.5987 36.1717 98.9716C35.1433 98.285 34.4002 97.2566 33.8288 96C33.3146 94.6848 33.143 92.9713 33.143 91.2563V91.0282H33.1422ZM36.3419 91.4279C36.3419 93.1429 36.5135 94.4567 37.0278 95.3134C37.5992 96.1702 38.4567 96.6844 39.257 96.6844C39.9993 96.6844 40.8568 96.1702 41.371 95.3134C41.9424 94.4567 42.285 93.1429 42.285 91.4279C42.285 89.7129 41.9424 88.2848 41.371 87.428C40.8568 86.4568 39.9993 85.8846 39.257 85.8846C38.4567 85.8846 37.6571 86.4561 37.1994 87.3128C36.6852 88.284 36.3419 89.7129 36.3419 91.4279ZM48.228 99.598V76.8556H51.427V85.0279C52.3424 83.4845 53.6562 82.6285 54.9127 82.6285C56.3981 82.6285 57.6561 83.4853 58.6273 84.8562C59.5985 86.2844 60.1706 88.4564 60.1706 91.2563C60.1706 93.9997 59.5992 96.3998 58.6273 97.7136C57.5989 99.1417 56.3424 100 55.0843 100C54.3992 100 53.6562 99.5987 53.0268 99.2562C52.3417 98.9708 51.713 98.1141 51.369 97.2558V99.598H48.228ZM51.427 91.0282C51.427 92.7417 51.7138 94.2843 51.9984 94.9709C52.5126 95.9993 53.3708 96.6844 54.2848 96.6844C55.0843 96.6844 55.713 96.1702 56.17 95.5423C56.6842 94.8557 56.9695 93.2559 56.9695 91.5424C56.9695 89.7129 56.6842 88.1711 56.17 87.3128C55.713 86.4561 54.912 85.8846 54.1124 85.8846C53.3701 85.8846 52.7414 86.4561 52.2272 87.1427C51.7138 87.9994 51.427 89.3132 51.427 91.0282ZM69.8841 94.4567L73.0844 94.9709C72.7404 96.6844 71.9409 98.1141 71.1421 98.742C70.2281 99.4286 68.9701 100 67.6563 100C65.7139 100 63.9989 98.9716 63.027 97.2566C62.2275 95.8284 61.8834 93.828 61.8834 91.5431C61.8834 88.8569 62.3404 86.572 63.3688 85.0286C64.3972 83.4853 65.8834 82.6292 67.4832 82.6292C69.254 82.6292 70.6836 83.486 71.6555 85.0286C72.7404 86.7421 73.3691 89.3139 73.3691 92.5715H65.0853C65.0853 93.9997 65.2569 94.9709 65.8291 95.7132C66.3418 96.3998 66.9712 96.6844 67.6571 96.6844C68.2285 96.6844 68.7427 96.5715 68.9708 96.1702C69.2554 95.8277 69.5994 95.1425 69.8841 94.4567ZM70.1709 89.8846C70.1709 88.6853 69.7139 87.5996 69.3699 86.9703C68.9129 86.2837 68.2277 85.8846 67.5991 85.8846C66.8553 85.8846 66.1709 86.4561 65.8284 87.1427C65.2569 87.8278 65.0846 88.8562 65.0846 89.8846H70.1709Z" fill="white"/>
<path fill-rule="evenodd" clip-rule="evenodd" d="M0 0H27.4282L0 66.7997V0ZM46.1134 0H73.8841V65.9415L46.1134 0ZM37.0851 25.5423L52.2281 65.5996H42.8565L36.3993 52.9147H26.1137L37.0851 25.5423Z" fill="#CC2229"/>
</svg>
