<svg width="184" height="48" viewBox="0 0 184 48" fill="none" xmlns="http://www.w3.org/2000/svg">
<path d="M22.6224 38.6656L22.4895 38.7942C20.3474 40.9766 17.8682 42.1332 15.3135 42.1332C9.98106 42.1332 6.11023 38.1329 6.11023 32.6132C6.11023 27.1036 9.98106 23.0975 15.3135 23.0975C17.8682 23.0975 20.3474 24.2589 22.4895 26.4471L22.6224 26.5795L26.0518 22.4328L25.9601 22.3203C23.1081 18.95 19.6861 17.3094 15.4791 17.3094C11.2576 17.3094 7.39852 18.7301 4.61733 21.2922C1.59548 24.0669 0 27.9798 0 32.6132C0 37.2443 1.59548 41.167 4.61733 43.9423C7.39852 46.5163 11.2576 47.9292 15.4791 47.9292C19.6861 47.9292 23.1081 46.2894 25.9601 42.9178L26.0518 42.8131L22.6224 38.6656Z" fill="white"/>
<path d="M29.5176 47.3647H35.576V17.7898H29.5176V47.3647Z" fill="white"/>
<path d="M59.3066 40.9341C57.6903 41.9182 56.1861 42.413 54.8353 42.413C52.8779 42.413 51.9934 41.3799 51.9934 39.0788V23.3862H58.1635V17.8169H51.9934V8.61452L46.0553 11.7924V17.8169H40.9326V23.3862H46.0553V40.0798C46.0553 44.628 48.7494 47.7351 52.7711 47.8159C55.5018 47.8693 57.148 47.0559 58.1479 46.4612L58.2064 46.4177L59.665 40.7152L59.3066 40.9341Z" fill="white"/>
<path d="M64.3242 47.3647H70.3866V17.7898H64.3242V47.3647Z" fill="white"/>
<path d="M167.013 6.53678V34.7482L168.9 31.8106C168.898 31.8237 177.379 19.5435 178.466 17.9776H182.245C181.441 19.0585 174.773 28.2349 174.773 28.2349C174.773 28.2349 183.458 46.3337 183.96 47.3648H180.249C180.044 46.9425 172.583 31.1468 172.583 31.1468L167.013 38.952V47.3648H163.555V8.51144C163.857 8.33777 166.199 6.99553 167.013 6.53678ZM138.608 21.4812C140.392 18.8148 143.186 17.3446 146.456 17.3446C152.975 17.3446 156.43 21.5025 156.43 29.3707V47.3648H152.964V30.1157C152.964 23.4217 150.64 20.3143 145.604 20.3143C140.785 20.3143 137.907 23.9799 137.907 30.1157V47.3648H134.451V17.9776H137.907V22.5348L138.608 21.4812ZM117.356 17.3446C124.065 17.3446 127.326 20.4124 127.326 26.7251V47.3648H123.868V43.0774L123.195 43.8194C120.65 46.6271 117.729 48 114.251 48C111.526 48 105.184 47.098 105.184 38.732C105.184 31.8937 110.829 29.4666 116.117 29.4666C118.772 29.4666 121.395 30.078 123.299 31.1447L123.868 31.4601V27.2412C123.868 22.5636 121.583 20.1948 117.069 20.1948C114.285 20.1948 111.773 20.8974 109.197 22.3494C108.969 21.8272 108.17 20.0605 107.948 19.5565C110.64 18.1375 113.965 17.3446 117.356 17.3446ZM108.575 38.444C108.575 42.837 110.851 45.258 114.987 45.258C118.506 45.258 121.632 43.5951 123.803 40.5712L123.868 40.4674V34.0244L123.676 33.9131C121.469 32.6549 119.208 32.1474 115.885 32.1474C111.312 32.1474 108.575 34.5006 108.575 38.444ZM81.8746 6.53678V22.2573L82.5441 21.5243C85.0906 18.7115 87.9095 17.3446 91.1504 17.3446C97.6359 17.3446 101.359 22.7503 101.359 32.1782C101.359 41.7891 97.1306 48 90.5846 48C87.3951 48 84.8412 46.7626 82.5476 44.11L81.8746 43.3268V47.3648H78.4238V8.51144C78.7177 8.33777 81.0634 6.99553 81.8746 6.53678ZM81.9567 24.8177L81.8746 24.9262V40.2237L81.9363 40.3175C83.8437 43.2693 86.9511 45.0343 90.2583 45.0343C95.3658 45.0343 97.9548 40.7293 97.9548 32.2409C97.9548 24.6579 95.0864 20.3143 90.0854 20.3143C87.0541 20.3143 84.319 21.8288 81.9567 24.8177Z" fill="white"/>
<path fill-rule="evenodd" clip-rule="evenodd" d="M74.016 12.5421C68.4702 4.68669 59.2601 -4.29153e-05 49.8895 -4.29153e-05C40.5228 -4.29153e-05 31.3109 4.68669 25.7743 12.5421L25.4902 12.9463H32.4732L32.5506 12.8624C37.3034 7.95699 43.5077 5.36279 49.8895 5.36279C56.2721 5.36279 62.4752 7.95699 67.2372 12.8624L67.3144 12.9463H74.2953L74.016 12.5421Z" fill="#D9261C"/>
</svg>
