<svg width="100" height="100" viewBox="0 0 100 100" fill="none" xmlns="http://www.w3.org/2000/svg">
<path d="M50.0002 99.8038C49.5051 99.8038 49.0122 99.7948 48.5201 99.7805L58.6983 71.8078H72.7057C75.1643 71.8078 77.8632 69.9178 78.7041 67.6086L89.7467 37.2776C91.5532 32.3117 88.7089 28.249 83.4248 28.249H63.9923L47.6873 73.0531H47.6813L38.4378 98.4515C16.508 93.238 0.196289 73.5247 0.196289 49.9999C0.196289 27.1533 15.5804 7.9018 36.5538 2.03439L27.0161 28.249H27.0134L11.1575 71.8078L21.7127 71.8087L35.1969 34.7945H43.1296L29.6454 71.8087L40.1967 71.8106L52.7625 37.2776C54.5702 32.3117 51.7256 28.249 46.4464 28.249H37.5737L47.7618 0.248141C48.5045 0.215169 49.2499 0.195801 50.0002 0.195801C77.5062 0.195801 99.8041 22.4936 99.8041 49.9999C99.8041 77.5055 77.5062 99.8038 50.0002 99.8038ZM80.1343 34.768H72.2037L61.0977 65.2402H69.0285L80.1343 34.768Z" fill="#4987CE"/>
</svg>
