<svg width="129" height="100" viewBox="0 0 129 100" fill="none" xmlns="http://www.w3.org/2000/svg">
<g clip-path="url(#clip0_506_1830)">
<path d="M23.3031 99.7806V93.144C23.3031 90.6053 21.7591 88.9429 19.1084 88.9429C17.783 88.9429 16.3419 89.3811 15.3511 90.8244C14.579 89.613 13.4724 88.9429 11.8125 88.9429C10.7059 88.9429 9.59933 89.278 8.72434 90.4893V89.162H6.4082V99.7806H8.72434V93.9172C8.72434 92.0357 9.71513 91.1465 11.2592 91.1465C12.8033 91.1465 13.5754 92.1388 13.5754 93.9172V99.7806H15.8915V93.9172C15.8915 92.0357 16.9981 91.1465 18.4264 91.1465C19.9705 91.1465 20.7425 92.1388 20.7425 93.9172V99.7806H23.3031ZM57.6592 89.162H53.9019V85.9532H51.5858V89.162H49.4884V91.2625H51.5858V96.1337C51.5858 98.5693 52.5766 99.9997 55.2273 99.9997C56.2181 99.9997 57.3247 99.6646 58.0967 99.2265L57.4276 97.2291C56.7585 97.6672 55.9864 97.7832 55.4331 97.7832C54.3265 97.7832 53.889 97.1131 53.889 96.0177V91.2625H57.6463V89.162H57.6592ZM77.3207 88.93C75.9953 88.93 75.1075 89.6001 74.5542 90.4764V89.1491H72.238V99.7677H74.5542V93.7883C74.5542 92.0228 75.3262 91.0177 76.7673 91.0177C77.2048 91.0177 77.7581 91.1337 78.2085 91.2368L78.8776 89.0202C78.4144 88.93 77.7581 88.93 77.3207 88.93ZM47.6097 90.0383C46.5031 89.2651 44.959 88.93 43.2991 88.93C40.6485 88.93 38.8856 90.2574 38.8856 92.3579C38.8856 94.1234 40.211 95.1285 42.5271 95.4507L43.6337 95.5667C44.8432 95.7858 45.5123 96.1208 45.5123 96.6749C45.5123 97.4481 44.6245 98.0023 43.0804 98.0023C41.5363 98.0023 40.3139 97.4481 39.5419 96.894L38.4353 98.6595C39.6448 99.5487 41.3047 99.9868 42.9646 99.9868C46.0528 99.9868 47.8285 98.5435 47.8285 96.559C47.8285 94.6775 46.3873 93.6852 44.187 93.3502L43.0804 93.2342C42.0896 93.1182 41.3176 92.8991 41.3176 92.2419C41.3176 91.4687 42.0896 91.0306 43.312 91.0306C44.6374 91.0306 45.9627 91.5847 46.6318 91.9197L47.6097 90.0383ZM109.232 88.93C107.907 88.93 107.019 89.6001 106.465 90.4764V89.1491H104.149V99.7677H106.465V93.7883C106.465 92.0228 107.237 91.0177 108.679 91.0177C109.116 91.0177 109.669 91.1337 110.12 91.2368L110.789 89.046C110.338 88.93 109.682 88.93 109.232 88.93ZM79.6368 94.4713C79.6368 97.6801 81.85 99.9997 85.2727 99.9997C86.8168 99.9997 87.9234 99.6646 89.03 98.7884L87.9234 96.9069C87.0356 97.577 86.1606 97.8992 85.1569 97.8992C83.2783 97.8992 81.9529 96.5718 81.9529 94.4713C81.9529 92.4739 83.2783 91.1465 85.1569 91.0435C86.1477 91.0435 87.0356 91.3785 87.9234 92.0357L89.03 90.1543C87.9234 89.2651 86.8168 88.9429 85.2727 88.9429C81.85 88.93 79.6368 91.2625 79.6368 94.4713ZM101.061 94.4713V89.162H98.7449V90.4893C97.9729 89.4971 96.8663 88.9429 95.4251 88.9429C92.4399 88.9429 90.1238 91.2625 90.1238 94.4713C90.1238 97.6801 92.4399 99.9997 95.4251 99.9997C96.9692 99.9997 98.0758 99.4456 98.7449 98.4533V99.7806H101.061V94.4713ZM92.5557 94.4713C92.5557 92.5899 93.7652 91.0435 95.7597 91.0435C97.6383 91.0435 98.9637 92.4868 98.9637 94.4713C98.9637 96.3528 97.6383 97.8992 95.7597 97.8992C93.7781 97.7832 92.5557 96.3399 92.5557 94.4713ZM64.8392 88.93C61.7511 88.93 59.5379 91.1465 59.5379 94.4584C59.5379 97.7832 61.7511 99.9868 64.955 99.9868C66.4991 99.9868 68.0432 99.5487 69.2656 98.5435L68.159 96.8811C67.2712 97.5512 66.1646 97.9894 65.0709 97.9894C63.6297 97.9894 62.2014 97.3193 61.8669 95.4507H69.7031C69.7031 95.1157 69.7031 94.8966 69.7031 94.5615C69.8061 91.1465 67.8116 88.93 64.8392 88.93ZM64.8392 90.9275C66.2804 90.9275 67.2712 91.8167 67.4899 93.4662H61.9698C62.1885 92.0357 63.1793 90.9275 64.8392 90.9275ZM122.382 94.4713V84.9609H120.066V90.4893C119.294 89.4971 118.188 88.9429 116.746 88.9429C113.761 88.9429 111.445 91.2625 111.445 94.4713C111.445 97.6801 113.761 99.9997 116.746 99.9997C118.291 99.9997 119.397 99.4456 120.066 98.4533V99.7806H122.382V94.4713ZM113.877 94.4713C113.877 92.5899 115.087 91.0435 117.081 91.0435C118.96 91.0435 120.285 92.4868 120.285 94.4713C120.285 96.3528 118.96 97.8992 117.081 97.8992C115.087 97.7832 113.877 96.3399 113.877 94.4713ZM36.3379 94.4713V89.162H34.0217V90.4893C33.2497 89.4971 32.1431 88.9429 30.7019 88.9429C27.7167 88.9429 25.4005 91.2625 25.4005 94.4713C25.4005 97.6801 27.7167 99.9997 30.7019 99.9997C32.246 99.9997 33.3526 99.4456 34.0217 98.4533V99.7806H36.3379V94.4713ZM27.7295 94.4713C27.7295 92.5899 28.9391 91.0435 30.9335 91.0435C32.8122 91.0435 34.1375 92.4868 34.1375 94.4713C34.1375 96.3528 32.8122 97.8992 30.9335 97.8992C28.9391 97.7832 27.7295 96.3399 27.7295 94.4713Z" fill="white"/>
<path d="M81.6314 8.51807H46.8379V71.1211H81.6314V8.51807Z" fill="#FF5A00"/>
<path d="M49.1536 39.8196C49.1536 27.1005 55.1241 15.8119 64.2857 8.51804C57.5432 3.20876 49.0378 0 39.7604 0C17.7828 0 0 17.8093 0 39.8196C0 61.8299 17.7828 79.6392 39.7604 79.6392C49.0378 79.6392 57.5432 76.4304 64.2857 71.1211C55.1112 63.9304 49.1536 52.5387 49.1536 39.8196Z" fill="#EB001B"/>
<path d="M128.572 39.8196C128.572 61.8299 110.789 79.6392 88.8115 79.6392C79.534 79.6392 71.0287 76.4304 64.2861 71.1211C73.5636 63.8144 79.4182 52.5387 79.4182 39.8196C79.4182 27.1005 73.4477 15.8119 64.2861 8.51804C71.0158 3.20876 79.5212 0 88.7986 0C110.789 0 128.572 17.9253 128.572 39.8196Z" fill="#F79E1B"/>
</g>
<defs>
<clipPath id="clip0_506_1830">
<rect width="128.571" height="100" fill="white"/>
</clipPath>
</defs>
</svg>
