<svg width="100" height="100" viewBox="0 0 100 100" fill="none" xmlns="http://www.w3.org/2000/svg">
<path d="M50.0001 0C22.3547 0 0 22.3547 0 50.0001C0 77.6454 22.3547 100 50.0001 100C77.6454 100 100 77.6454 100 50.0001C100 22.5037 77.9435 0 50.0001 0Z" fill="white" fill-opacity="0.66"/>
<path d="M64.9035 12.2954L50.0749 61.4759L50.0002 61.5504L49.8513 61.4759L35.0226 12.2954L15.8721 75.2612H19.4488C19.4488 75.2612 21.8333 64.3075 25.7827 57.7501C27.9436 54.1733 31.2223 51.2672 35.6188 51.3417C38.7484 51.4163 41.431 53.1301 44.7842 57.8245C45.5294 58.8678 46.4236 60.5816 47.3177 62.221C48.7335 64.978 49.9258 67.8097 49.9258 67.8097C49.9258 67.8097 53.0555 60.6562 55.0674 57.8245C58.4206 53.1301 61.1032 51.4162 64.2328 51.3417C68.6292 51.2671 71.9824 54.1733 74.0689 57.7501C78.0182 64.3075 80.4028 75.2612 80.4028 75.2612H83.9795L64.9035 12.2954Z" fill="white"/>
</svg>
