<svg width="62" height="50" viewBox="0 0 62 50" fill="none" xmlns="http://www.w3.org/2000/svg">
<path d="M61.9937 7.3564H59.542C58.6318 7.3564 57.3446 8.69212 57.3446 9.54704V40.5387C57.3446 41.3946 58.6318 42.5616 59.542 42.5616H61.9937V49.918H39.7818V42.5616H44.4308V9.9835H44.203L33.3465 49.918H24.9415L14.2251 9.9835H13.9539V42.5616H18.6029V49.918H0.00683594V42.5616H2.38824C3.36865 42.5616 4.65585 41.3946 4.65585 40.5387V9.5468C4.65585 8.69187 3.36865 7.35616 2.38824 7.35616H0.00683594V0H23.2601L30.8947 28.8998H31.1053L38.8099 0H61.9937V7.3564Z" fill="white"/>
</svg>
