<svg width="130" height="1246" viewBox="0 0 130 1246" fill="none" xmlns="http://www.w3.org/2000/svg">
<path d="M59 263L59 130L64 132.228L64 263H59Z" fill="url(#paint0_linear_478_394)"/>
<path d="M61 545L61 393L66 395.546L66 545H61Z" fill="url(#paint1_linear_478_394)"/>
<path d="M59 823L59 681L64 683.379L64 823H59Z" fill="url(#paint2_linear_478_394)"/>
<path d="M63 1116L63 954L68 956.714L68 1116H63Z" fill="url(#paint3_linear_478_394)"/>
<rect width="130" height="130" rx="65" fill="url(#paint4_linear_478_394)" fill-opacity="0.5"/>
<rect y="263" width="130" height="130" rx="65" fill="url(#paint5_linear_478_394)" fill-opacity="0.5"/>
<rect y="545" width="130" height="130" rx="65" fill="url(#paint6_linear_478_394)" fill-opacity="0.5"/>
<rect y="823" width="130" height="130" rx="65" fill="url(#paint7_linear_478_394)" fill-opacity="0.5"/>
<rect y="1116" width="130" height="130" rx="65" fill="url(#paint8_linear_478_394)" fill-opacity="0.5"/>
<path d="M42.2563 93.648C35.9683 93.648 31.1683 91.416 27.8563 86.952C24.5443 82.488 22.8883 76.032 22.8883 67.584C22.8883 59.28 24.5443 52.896 27.8563 48.432C31.2163 43.968 36.0163 41.736 42.2563 41.736C48.4963 41.736 53.2723 43.968 56.5843 48.432C59.9443 52.896 61.6243 59.28 61.6243 67.584C61.6243 76.032 59.9683 82.488 56.6562 86.952C53.3443 91.416 48.5443 93.648 42.2563 93.648ZM42.2563 83.64C44.5603 83.64 46.2163 82.392 47.2243 79.896C48.2323 77.4 48.7363 73.296 48.7363 67.584C48.7363 61.968 48.2323 57.936 47.2243 55.488C46.2163 52.992 44.5603 51.744 42.2563 51.744C39.9523 51.744 38.2963 52.992 37.2883 55.488C36.2803 57.936 35.7763 61.968 35.7763 67.584C35.7763 73.296 36.2803 77.4 37.2883 79.896C38.2963 82.392 39.9523 83.64 42.2563 83.64ZM105.66 82.488V93H70.6681V82.488H81.5401V56.64L72.9721 61.536L68.2201 52.032L85.4281 42.24H94.7881V82.488H105.66Z" fill="white" fill-opacity="0.7"/>
<path d="M44.1859 352.648C37.8979 352.648 33.0979 350.416 29.7859 345.952C26.4739 341.488 24.8179 335.032 24.8179 326.584C24.8179 318.28 26.4739 311.896 29.7859 307.432C33.1459 302.968 37.9459 300.736 44.1859 300.736C50.4259 300.736 55.2019 302.968 58.5139 307.432C61.8739 311.896 63.5539 318.28 63.5539 326.584C63.5539 335.032 61.8979 341.488 58.5859 345.952C55.2739 350.416 50.4739 352.648 44.1859 352.648ZM44.1859 342.64C46.4899 342.64 48.1459 341.392 49.1539 338.896C50.1619 336.4 50.6659 332.296 50.6659 326.584C50.6659 320.968 50.1619 316.936 49.1539 314.488C48.1459 311.992 46.4899 310.744 44.1859 310.744C41.8819 310.744 40.2259 311.992 39.2179 314.488C38.2099 316.936 37.7059 320.968 37.7059 326.584C37.7059 332.296 38.2099 336.4 39.2179 338.896C40.2259 341.392 41.8819 342.64 44.1859 342.64ZM105.79 341.488V352H70.0058V342.208L86.5658 325C89.7338 321.688 91.3178 318.64 91.3178 315.856C91.3178 312.496 89.3258 310.816 85.3418 310.816C83.4218 310.816 81.3338 311.224 79.0778 312.04C76.8698 312.808 74.6378 313.912 72.3818 315.352L68.2778 305.992C70.2938 304.36 72.9098 303.064 76.1258 302.104C79.3898 301.096 82.7018 300.592 86.0618 300.592C89.7098 300.592 92.9018 301.192 95.6378 302.392C98.4218 303.544 100.558 305.2 102.046 307.36C103.534 309.52 104.278 312.04 104.278 314.92C104.278 317.848 103.678 320.536 102.478 322.984C101.326 325.384 99.3338 328.072 96.5018 331.048L86.2778 341.488H105.79Z" fill="white" fill-opacity="0.7"/>
<path d="M44.2563 634.648C37.9683 634.648 33.1683 632.416 29.8563 627.952C26.5443 623.488 24.8883 617.032 24.8883 608.584C24.8883 600.28 26.5443 593.896 29.8563 589.432C33.2163 584.968 38.0163 582.736 44.2563 582.736C50.4963 582.736 55.2723 584.968 58.5843 589.432C61.9443 593.896 63.6243 600.28 63.6243 608.584C63.6243 617.032 61.9683 623.488 58.6562 627.952C55.3443 632.416 50.5443 634.648 44.2563 634.648ZM44.2563 624.64C46.5603 624.64 48.2163 623.392 49.2243 620.896C50.2323 618.4 50.7363 614.296 50.7363 608.584C50.7363 602.968 50.2323 598.936 49.2243 596.488C48.2163 593.992 46.5603 592.744 44.2563 592.744C41.9523 592.744 40.2963 593.992 39.2883 596.488C38.2803 598.936 37.7763 602.968 37.7763 608.584C37.7763 614.296 38.2803 618.4 39.2883 620.896C40.2963 623.392 41.9523 624.64 44.2563 624.64ZM96.5001 607.864C99.3801 608.68 101.612 610.168 103.196 612.328C104.828 614.488 105.644 617.104 105.644 620.176C105.644 624.64 103.868 628.168 100.316 630.76C96.8121 633.304 92.0121 634.576 85.9161 634.576C82.3161 634.576 78.8601 634.096 75.5481 633.136C72.2361 632.128 69.5961 630.808 67.6281 629.176L71.7321 619.816C76.2441 622.84 80.7561 624.352 85.2681 624.352C88.1481 624.352 90.1881 623.92 91.3881 623.056C92.6361 622.192 93.2601 620.752 93.2601 618.736C93.2601 616.864 92.6601 615.52 91.4601 614.704C90.2601 613.888 88.2921 613.48 85.5561 613.48H77.7081V603.256H84.2601C86.9001 603.256 88.8201 602.872 90.0201 602.104C91.2201 601.336 91.8201 600.112 91.8201 598.432C91.8201 596.656 91.2441 595.288 90.0921 594.328C88.9881 593.32 87.4041 592.816 85.3401 592.816C83.3241 592.816 81.1881 593.224 78.9321 594.04C76.6761 594.808 74.5161 595.912 72.4521 597.352L68.3481 587.992C70.3641 586.36 73.0041 585.064 76.2681 584.104C79.5801 583.096 82.9401 582.592 86.3481 582.592C89.9481 582.592 93.0921 583.168 95.7801 584.32C98.5161 585.472 100.628 587.104 102.116 589.216C103.604 591.328 104.348 593.776 104.348 596.56C104.348 599.248 103.652 601.576 102.26 603.544C100.916 605.512 98.9961 606.952 96.5001 607.864Z" fill="white" fill-opacity="0.7"/>
<path d="M44.2563 912.648C37.9683 912.648 33.1683 910.416 29.8563 905.952C26.5443 901.488 24.8883 895.032 24.8883 886.584C24.8883 878.28 26.5443 871.896 29.8563 867.432C33.2163 862.968 38.0163 860.736 44.2563 860.736C50.4963 860.736 55.2723 862.968 58.5843 867.432C61.9443 871.896 63.6243 878.28 63.6243 886.584C63.6243 895.032 61.9683 901.488 58.6562 905.952C55.3443 910.416 50.5443 912.648 44.2563 912.648ZM44.2563 902.64C46.5603 902.64 48.2163 901.392 49.2243 898.896C50.2323 896.4 50.7363 892.296 50.7363 886.584C50.7363 880.968 50.2323 876.936 49.2243 874.488C48.2163 871.992 46.5603 870.744 44.2563 870.744C41.9523 870.744 40.2963 871.992 39.2883 874.488C38.2803 876.936 37.7763 880.968 37.7763 886.584C37.7763 892.296 38.2803 896.4 39.2883 898.896C40.2963 901.392 41.9523 902.64 44.2563 902.64ZM107.948 903.432H101.324V912H88.4361V903.432H67.9881V893.64L90.7401 861.24H101.324V893.352H107.948V903.432ZM88.4361 893.352V880.896L79.7961 893.352H88.4361Z" fill="white" fill-opacity="0.7"/>
<path d="M44.2563 1205.65C37.9683 1205.65 33.1683 1203.42 29.8563 1198.95C26.5443 1194.49 24.8883 1188.03 24.8883 1179.58C24.8883 1171.28 26.5443 1164.9 29.8563 1160.43C33.2163 1155.97 38.0163 1153.74 44.2563 1153.74C50.4963 1153.74 55.2723 1155.97 58.5843 1160.43C61.9443 1164.9 63.6243 1171.28 63.6243 1179.58C63.6243 1188.03 61.9683 1194.49 58.6562 1198.95C55.3443 1203.42 50.5443 1205.65 44.2563 1205.65ZM44.2563 1195.64C46.5603 1195.64 48.2163 1194.39 49.2243 1191.9C50.2323 1189.4 50.7363 1185.3 50.7363 1179.58C50.7363 1173.97 50.2323 1169.94 49.2243 1167.49C48.2163 1164.99 46.5603 1163.74 44.2563 1163.74C41.9523 1163.74 40.2963 1164.99 39.2883 1167.49C38.2803 1169.94 37.7763 1173.97 37.7763 1179.58C37.7763 1185.3 38.2803 1189.4 39.2883 1191.9C40.2963 1194.39 41.9523 1195.64 44.2563 1195.64ZM90.8841 1171.81C94.0041 1171.81 96.7881 1172.5 99.2361 1173.9C101.684 1175.24 103.58 1177.16 104.924 1179.66C106.316 1182.1 107.012 1184.94 107.012 1188.15C107.012 1191.66 106.172 1194.73 104.492 1197.37C102.812 1200.01 100.436 1202.05 97.3641 1203.49C94.2921 1204.88 90.6921 1205.58 86.5641 1205.58C83.2521 1205.58 79.9641 1205.1 76.7001 1204.14C73.4841 1203.13 70.9161 1201.81 68.9961 1200.18L73.1001 1190.82C77.6121 1193.84 82.1481 1195.35 86.7081 1195.35C89.3961 1195.35 91.3881 1194.82 92.6841 1193.77C93.9801 1192.66 94.6281 1190.96 94.6281 1188.66C94.6281 1186.45 93.9321 1184.77 92.5401 1183.62C91.1961 1182.42 89.3001 1181.82 86.8521 1181.82C85.5081 1181.82 84.0441 1182.06 82.4601 1182.54C80.9241 1182.97 79.5081 1183.57 78.2121 1184.34H70.9401V1154.24H104.42V1164.25H83.8281V1173.1C85.7001 1172.24 88.0521 1171.81 90.8841 1171.81Z" fill="white" fill-opacity="0.7"/>
<defs>
<linearGradient id="paint0_linear_478_394" x1="59" y1="130" x2="68.9859" y2="130.375" gradientUnits="userSpaceOnUse">
<stop stop-color="#00FF88"/>
<stop offset="1" stop-color="#EF04FF"/>
</linearGradient>
<linearGradient id="paint1_linear_478_394" x1="61" y1="393" x2="70.9892" y2="393.329" gradientUnits="userSpaceOnUse">
<stop stop-color="#00FF88"/>
<stop offset="1" stop-color="#EF04FF"/>
</linearGradient>
<linearGradient id="paint2_linear_478_394" x1="59" y1="681" x2="68.9876" y2="681.352" gradientUnits="userSpaceOnUse">
<stop stop-color="#00FF88"/>
<stop offset="1" stop-color="#EF04FF"/>
</linearGradient>
<linearGradient id="paint3_linear_478_394" x1="63" y1="954" x2="72.9905" y2="954.308" gradientUnits="userSpaceOnUse">
<stop stop-color="#00FF88"/>
<stop offset="1" stop-color="#EF04FF"/>
</linearGradient>
<linearGradient id="paint4_linear_478_394" x1="130" y1="0" x2="0" y2="130" gradientUnits="userSpaceOnUse">
<stop stop-color="#00FF88"/>
<stop offset="1" stop-color="#EF04FF"/>
</linearGradient>
<linearGradient id="paint5_linear_478_394" x1="130" y1="263" x2="0" y2="393" gradientUnits="userSpaceOnUse">
<stop stop-color="#00FF88"/>
<stop offset="1" stop-color="#EF04FF"/>
</linearGradient>
<linearGradient id="paint6_linear_478_394" x1="130" y1="545" x2="0" y2="675" gradientUnits="userSpaceOnUse">
<stop stop-color="#00FF88"/>
<stop offset="1" stop-color="#EF04FF"/>
</linearGradient>
<linearGradient id="paint7_linear_478_394" x1="130" y1="823" x2="0" y2="953" gradientUnits="userSpaceOnUse">
<stop stop-color="#00FF88"/>
<stop offset="1" stop-color="#EF04FF"/>
</linearGradient>
<linearGradient id="paint8_linear_478_394" x1="130" y1="1116" x2="0" y2="1246" gradientUnits="userSpaceOnUse">
<stop stop-color="#00FF88"/>
<stop offset="1" stop-color="#EF04FF"/>
</linearGradient>
</defs>
</svg>
