<svg width="130" height="1150" viewBox="0 0 130 1150" fill="none" xmlns="http://www.w3.org/2000/svg">
<rect width="130" height="130" rx="65" fill="url(#paint0_linear_478_395)" fill-opacity="0.5"/>
<rect y="516" width="130" height="130" rx="65" fill="url(#paint1_linear_478_395)" fill-opacity="0.5"/>
<rect y="516" width="130" height="130" rx="65" fill="url(#paint2_linear_478_395)" fill-opacity="0.5"/>
<rect width="130" height="130" rx="65" fill="url(#paint3_linear_478_395)" fill-opacity="0.5"/>
<rect y="1020" width="130" height="130" rx="65" fill="url(#paint4_linear_478_395)" fill-opacity="0.5"/>
<rect y="1020" width="130" height="130" rx="65" fill="url(#paint5_linear_478_395)" fill-opacity="0.5"/>
<path d="M44.2563 89.648C37.9683 89.648 33.1683 87.416 29.8563 82.952C26.5443 78.488 24.8883 72.032 24.8883 63.584C24.8883 55.28 26.5443 48.896 29.8563 44.432C33.2163 39.968 38.0163 37.736 44.2563 37.736C50.4963 37.736 55.2723 39.968 58.5843 44.432C61.9443 48.896 63.6243 55.28 63.6243 63.584C63.6243 72.032 61.9683 78.488 58.6562 82.952C55.3443 87.416 50.5443 89.648 44.2563 89.648ZM44.2563 79.64C46.5603 79.64 48.2163 78.392 49.2243 75.896C50.2323 73.4 50.7363 69.296 50.7363 63.584C50.7363 57.968 50.2323 53.936 49.2243 51.488C48.2163 48.992 46.5603 47.744 44.2563 47.744C41.9523 47.744 40.2963 48.992 39.2883 51.488C38.2803 53.936 37.7763 57.968 37.7763 63.584C37.7763 69.296 38.2803 73.4 39.2883 75.896C40.2963 78.392 41.9523 79.64 44.2563 79.64ZM107.66 78.488V89H72.6681V78.488H83.5401V52.64L74.9721 57.536L70.2201 48.032L87.4281 38.24H96.7881V78.488H107.66Z" fill="white" fill-opacity="0.7"/>
<path d="M44.1859 605.648C37.8979 605.648 33.0979 603.416 29.7859 598.952C26.4739 594.488 24.8179 588.032 24.8179 579.584C24.8179 571.28 26.4739 564.896 29.7859 560.432C33.1459 555.968 37.9459 553.736 44.1859 553.736C50.4259 553.736 55.2019 555.968 58.5139 560.432C61.8739 564.896 63.5539 571.28 63.5539 579.584C63.5539 588.032 61.8979 594.488 58.5859 598.952C55.2739 603.416 50.4739 605.648 44.1859 605.648ZM44.1859 595.64C46.4899 595.64 48.1459 594.392 49.1539 591.896C50.1619 589.4 50.6659 585.296 50.6659 579.584C50.6659 573.968 50.1619 569.936 49.1539 567.488C48.1459 564.992 46.4899 563.744 44.1859 563.744C41.8819 563.744 40.2259 564.992 39.2179 567.488C38.2099 569.936 37.7059 573.968 37.7059 579.584C37.7059 585.296 38.2099 589.4 39.2179 591.896C40.2259 594.392 41.8819 595.64 44.1859 595.64ZM105.79 594.488V605H70.0058V595.208L86.5658 578C89.7338 574.688 91.3178 571.64 91.3178 568.856C91.3178 565.496 89.3258 563.816 85.3418 563.816C83.4218 563.816 81.3338 564.224 79.0778 565.04C76.8698 565.808 74.6378 566.912 72.3818 568.352L68.2778 558.992C70.2938 557.36 72.9098 556.064 76.1258 555.104C79.3898 554.096 82.7018 553.592 86.0618 553.592C89.7098 553.592 92.9018 554.192 95.6378 555.392C98.4218 556.544 100.558 558.2 102.046 560.36C103.534 562.52 104.278 565.04 104.278 567.92C104.278 570.848 103.678 573.536 102.478 575.984C101.326 578.384 99.3338 581.072 96.5018 584.048L86.2778 594.488H105.79Z" fill="white" fill-opacity="0.7"/>
<path d="M44.2563 1109.65C37.9683 1109.65 33.1683 1107.42 29.8563 1102.95C26.5443 1098.49 24.8883 1092.03 24.8883 1083.58C24.8883 1075.28 26.5443 1068.9 29.8563 1064.43C33.2163 1059.97 38.0163 1057.74 44.2563 1057.74C50.4963 1057.74 55.2723 1059.97 58.5843 1064.43C61.9443 1068.9 63.6243 1075.28 63.6243 1083.58C63.6243 1092.03 61.9683 1098.49 58.6562 1102.95C55.3443 1107.42 50.5443 1109.65 44.2563 1109.65ZM44.2563 1099.64C46.5603 1099.64 48.2163 1098.39 49.2243 1095.9C50.2323 1093.4 50.7363 1089.3 50.7363 1083.58C50.7363 1077.97 50.2323 1073.94 49.2243 1071.49C48.2163 1068.99 46.5603 1067.74 44.2563 1067.74C41.9523 1067.74 40.2963 1068.99 39.2883 1071.49C38.2803 1073.94 37.7763 1077.97 37.7763 1083.58C37.7763 1089.3 38.2803 1093.4 39.2883 1095.9C40.2963 1098.39 41.9523 1099.64 44.2563 1099.64ZM96.5001 1082.86C99.3801 1083.68 101.612 1085.17 103.196 1087.33C104.828 1089.49 105.644 1092.1 105.644 1095.18C105.644 1099.64 103.868 1103.17 100.316 1105.76C96.8121 1108.3 92.0121 1109.58 85.9161 1109.58C82.3161 1109.58 78.8601 1109.1 75.5481 1108.14C72.2361 1107.13 69.5961 1105.81 67.6281 1104.18L71.7321 1094.82C76.2441 1097.84 80.7561 1099.35 85.2681 1099.35C88.1481 1099.35 90.1881 1098.92 91.3881 1098.06C92.6361 1097.19 93.2601 1095.75 93.2601 1093.74C93.2601 1091.86 92.6601 1090.52 91.4601 1089.7C90.2601 1088.89 88.2921 1088.48 85.5561 1088.48H77.7081V1078.26H84.2601C86.9001 1078.26 88.8201 1077.87 90.0201 1077.1C91.2201 1076.34 91.8201 1075.11 91.8201 1073.43C91.8201 1071.66 91.2441 1070.29 90.0921 1069.33C88.9881 1068.32 87.4041 1067.82 85.3401 1067.82C83.3241 1067.82 81.1881 1068.22 78.9321 1069.04C76.6761 1069.81 74.5161 1070.91 72.4521 1072.35L68.3481 1062.99C70.3641 1061.36 73.0041 1060.06 76.2681 1059.1C79.5801 1058.1 82.9401 1057.59 86.3481 1057.59C89.9481 1057.59 93.0921 1058.17 95.7801 1059.32C98.5161 1060.47 100.628 1062.1 102.116 1064.22C103.604 1066.33 104.348 1068.78 104.348 1071.56C104.348 1074.25 103.652 1076.58 102.26 1078.54C100.916 1080.51 98.9961 1081.95 96.5001 1082.86Z" fill="white" fill-opacity="0.7"/>
<path d="M63 509L63 135L67 141.265L67 509H63Z" fill="url(#paint6_linear_478_395)"/>
<path d="M63 1020L63 646L67 652.265L67 1020H63Z" fill="url(#paint7_linear_478_395)"/>
<defs>
<linearGradient id="paint0_linear_478_395" x1="130" y1="0" x2="0" y2="130" gradientUnits="userSpaceOnUse">
<stop stop-color="#00FF88"/>
<stop offset="1" stop-color="#EF04FF"/>
</linearGradient>
<linearGradient id="paint1_linear_478_395" x1="130" y1="516" x2="0" y2="646" gradientUnits="userSpaceOnUse">
<stop stop-color="#00FF88"/>
<stop offset="1" stop-color="#EF04FF"/>
</linearGradient>
<linearGradient id="paint2_linear_478_395" x1="130" y1="516" x2="0" y2="646" gradientUnits="userSpaceOnUse">
<stop stop-color="#00FF88"/>
<stop offset="1" stop-color="#EF04FF"/>
</linearGradient>
<linearGradient id="paint3_linear_478_395" x1="130" y1="0" x2="0" y2="130" gradientUnits="userSpaceOnUse">
<stop stop-color="#00FF88"/>
<stop offset="1" stop-color="#EF04FF"/>
</linearGradient>
<linearGradient id="paint4_linear_478_395" x1="130" y1="1020" x2="0" y2="1150" gradientUnits="userSpaceOnUse">
<stop stop-color="#00FF88"/>
<stop offset="1" stop-color="#EF04FF"/>
</linearGradient>
<linearGradient id="paint5_linear_478_395" x1="130" y1="1020" x2="0" y2="1150" gradientUnits="userSpaceOnUse">
<stop stop-color="#00FF88"/>
<stop offset="1" stop-color="#EF04FF"/>
</linearGradient>
<linearGradient id="paint6_linear_478_395" x1="63" y1="135" x2="70.9991" y2="135.086" gradientUnits="userSpaceOnUse">
<stop stop-color="#00FF88"/>
<stop offset="1" stop-color="#EF04FF"/>
</linearGradient>
<linearGradient id="paint7_linear_478_395" x1="63" y1="646" x2="70.9991" y2="646.086" gradientUnits="userSpaceOnUse">
<stop stop-color="#00FF88"/>
<stop offset="1" stop-color="#EF04FF"/>
</linearGradient>
</defs>
</svg>
