<svg width="149" height="49" viewBox="0 0 149 49" fill="none" xmlns="http://www.w3.org/2000/svg">
<path d="M48.3273 24.8006C48.327 31.2093 45.7808 37.3554 41.2491 41.8869C36.7173 46.4185 30.571 48.9642 24.1623 48.9642C10.8176 48.9642 0 38.1467 0 24.8019C0 11.4572 10.8189 0.639648 24.1623 0.639648C37.5057 0.639648 48.3246 11.4585 48.3246 24.8046" fill="white"/>
<path d="M24.5707 15.3997L30.8239 30.8329L21.3793 23.3944L24.5707 15.3997ZM35.6785 34.3874L26.0597 11.2403C25.7857 10.5734 25.2497 10.2197 24.5693 10.2197C23.8889 10.2197 23.3138 10.5734 23.0384 11.2403L12.4814 36.6298H16.0927L20.2709 26.1619L32.7423 36.2369C33.2444 36.6419 33.6062 36.8255 34.076 36.8255C35.0183 36.8255 35.8418 36.1195 35.8418 35.1002C35.8418 34.9342 35.7824 34.6709 35.6771 34.3874H35.6785Z" fill="#0F0F0F"/>
<path d="M81.4465 32.0283C81.1967 32.0283 80.9281 31.9648 80.7404 31.7124L72.7309 21.1797V31.923H70.9044V18.693C70.9044 18.153 71.3404 17.7453 71.8385 17.7453C72.1288 17.7453 72.3785 17.8303 72.5648 18.0828L80.5528 28.5939V17.8924H82.3794V31.1008C82.3806 31.2236 82.3573 31.3453 82.3107 31.4588C82.2641 31.5724 82.1953 31.6754 82.1082 31.7619C82.0211 31.8484 81.9175 31.9165 81.8036 31.9622C81.6898 32.008 81.5679 32.0304 81.4451 32.0283H81.4465ZM92.013 32.1552C90.1878 32.1552 88.2775 31.7772 86.4941 31.1022L86.9302 29.5861C88.5691 30.1261 90.3538 30.4906 92.013 30.4906C94.3161 30.4906 95.5203 29.6698 95.5203 28.5115C95.5203 27.4585 94.5861 26.932 91.3703 25.4146C88.1547 23.8972 86.8883 22.9306 86.8883 21.0339C86.8883 18.6538 88.7136 17.6859 92.1588 17.6859C93.5898 17.6859 95.8038 17.9829 97.0566 18.3609L96.7663 19.9188C95.27 19.5616 93.7388 19.3714 92.2006 19.3518C89.7733 19.3518 88.777 19.8148 88.777 20.9745C88.777 22.1112 89.5033 22.5945 92.9053 24.1767C96.4963 25.8412 97.4075 26.6836 97.4075 28.4116C97.4075 30.9186 95.041 32.1619 92.013 32.1619V32.1552ZM101.522 17.8695H103.41V31.8987H101.522V17.8695ZM116.021 25.3822H111.331V30.1437H116.021C117.618 30.1437 118.594 29.1312 118.594 27.7204C118.594 26.3934 117.578 25.3822 116.021 25.3822ZM115.107 19.3153H111.331V23.8027H115.107C116.622 23.8027 117.722 22.8334 117.722 21.4848C117.722 20.1577 116.768 19.3153 115.107 19.3153ZM116.042 31.7434H110.399C109.859 31.7434 109.444 31.3222 109.444 30.7957V18.6619C109.447 18.4103 109.549 18.1699 109.727 17.9926C109.906 17.8152 110.147 17.7153 110.399 17.7142H115.067C117.929 17.7142 119.63 19.125 119.63 21.3376C119.63 22.5526 118.924 23.6542 117.845 24.3076C119.444 24.7936 120.522 26.1193 120.522 27.7204C120.522 29.9533 118.677 31.7434 116.04 31.7434H116.042ZM126.03 31.5882C125.512 31.5882 125.085 31.1454 125.085 30.6405V17.5455H126.975V29.8683H134.512V31.5747L126.03 31.5882ZM143.306 31.6651C139.445 31.6651 137.123 30.2341 137.123 27.3451C137.123 25.9762 137.893 24.6694 139.386 24.0592C138.171 23.3005 137.559 22.2259 137.559 21.046C137.559 18.4338 139.573 17.1904 143.364 17.1904C144.892 17.1968 146.414 17.3592 147.908 17.6751L147.7 19.2343C146.124 18.9819 144.649 18.8347 143.218 18.8347C140.77 18.8347 139.463 19.5097 139.463 21.1297C139.463 22.4149 140.667 23.4247 142.265 23.4247H145.503C145.609 23.4231 145.714 23.4426 145.812 23.4822C145.91 23.5218 146 23.5805 146.075 23.6551C146.15 23.7297 146.21 23.8185 146.251 23.9164C146.291 24.0143 146.312 24.1193 146.311 24.2253C146.311 24.6883 145.96 25.0461 145.501 25.0461H142.016C140.189 25.0461 139.028 25.9506 139.028 27.3411C139.028 29.3836 140.915 29.9952 143.281 29.9952C144.567 29.9952 146.31 29.8278 147.736 29.4903L148.006 31.0266C146.483 31.4372 144.913 31.65 143.336 31.6597L143.306 31.6651ZM60.5768 20.6464L63.8843 28.9327L58.8893 24.9367L60.5768 20.6464ZM66.4521 30.8416L61.3652 18.4135C61.2194 18.0558 60.9292 17.8654 60.5768 17.8654C60.4018 17.8623 60.2302 17.9133 60.0852 18.0114C59.9402 18.1095 59.8291 18.2499 59.7669 18.4135L54.2021 32.4171L56.0922 32.0445L58.3021 26.4244L64.8968 31.8339C65.1628 32.0499 65.3531 32.1498 65.6029 32.1498C65.7255 32.1518 65.8472 32.1292 65.961 32.0833C66.0747 32.0375 66.1781 31.9694 66.265 31.8829C66.352 31.7965 66.4207 31.6935 66.4672 31.58C66.5137 31.4666 66.537 31.3449 66.5358 31.2223C66.5271 31.0912 66.498 30.9623 66.4494 30.8403L66.4521 30.8416Z" fill="white"/>
</svg>
