<svg width="110" height="39" viewBox="0 0 110 39" fill="none" xmlns="http://www.w3.org/2000/svg">
<path fill-rule="evenodd" clip-rule="evenodd" d="M29.8005 5.77526L22.701 20.2886L35.2005 34.9954L12 37.6672L48 38.0479L29.8005 5.77526ZM28.3995 0.0478516L12.1005 13.8914L0 34.6117L10.3005 33.546L28.3995 0.0478516Z" fill="white"/>
<path d="M56.22 27.0479L62.5 12.9479H64.22L70.52 27.0479H68.4L66.92 23.6079H59.78L58.32 27.0479H56.22ZM63.34 15.2479L60.52 21.9279H66.22L63.38 15.2479H63.34ZM71.747 27.0479V25.7279L77.067 18.8479H71.747V17.2879H79.287V18.6279L73.967 25.5079H79.507V27.0479H71.747ZM84.9625 27.2279C82.6025 27.2279 81.4225 25.9145 81.4225 23.2879V17.2879H83.4425V23.3079C83.4425 24.0945 83.6025 24.6745 83.9225 25.0479C84.2425 25.4212 84.7492 25.6079 85.4425 25.6079C86.2025 25.6079 86.8158 25.3545 87.2825 24.8479C87.7625 24.3412 88.0025 23.6612 88.0025 22.8079V17.2879H90.0225V27.0479H88.0625V25.4879C87.7425 26.0612 87.3158 26.4945 86.7825 26.7879C86.2492 27.0812 85.6425 27.2279 84.9625 27.2279ZM92.8692 27.0479V17.2879H94.8292V19.0279C95.3359 17.8679 96.3892 17.2212 97.9892 17.0879L98.6492 17.0479L98.7892 18.7679L97.5692 18.8879C95.7959 19.0612 94.9092 19.9745 94.9092 21.6279V27.0479H92.8692ZM104.773 27.2279C103.173 27.2279 101.913 26.7812 100.993 25.8879C100.073 24.9812 99.6134 23.7479 99.6134 22.1879C99.6134 21.1879 99.8134 20.3079 100.213 19.5479C100.627 18.7745 101.193 18.1745 101.913 17.7479C102.633 17.3212 103.46 17.1079 104.393 17.1079C105.74 17.1079 106.8 17.5412 107.573 18.4079C108.347 19.2612 108.733 20.4412 108.733 21.9479V22.6279H101.573C101.72 24.6545 102.793 25.6679 104.793 25.6679C105.353 25.6679 105.9 25.5812 106.433 25.4079C106.98 25.2345 107.493 24.9479 107.973 24.5479L108.573 25.9479C108.133 26.3479 107.567 26.6612 106.873 26.8879C106.18 27.1145 105.48 27.2279 104.773 27.2279ZM104.473 18.5279C103.633 18.5279 102.967 18.7879 102.473 19.3079C101.98 19.8279 101.68 20.5212 101.573 21.3879H107.033C106.993 20.4812 106.753 19.7812 106.313 19.2879C105.873 18.7812 105.26 18.5279 104.473 18.5279Z" fill="white"/>
</svg>
