<svg width="179" height="48" viewBox="0 0 179 48" fill="none" xmlns="http://www.w3.org/2000/svg">
<g clip-path="url(#clip0_422_4582)">
<path d="M23.5029 47.0493V37.943C33.1497 37.943 40.6374 28.3961 36.9332 18.2353C36.2527 16.3707 35.1727 14.6775 33.7689 13.2742C32.3651 11.8709 30.6714 10.7915 28.8066 10.1117C18.6546 6.43686 9.08863 13.8937 9.08863 23.536H0C0 8.16851 14.8696 -3.81501 30.9906 1.2184C38.0406 3.42887 43.6483 9.02185 45.8323 16.0528C50.8702 32.1943 38.9043 47.0537 23.5029 47.0537V47.0493Z" fill="white"/>
<path d="M14.4677 37.9665V28.9116H23.5269V37.9665H14.4677ZM7.48671 44.943V37.9665H14.4677V44.943H7.48671ZM7.48671 37.9665H1.65137V32.1355H7.48671V37.9665Z" fill="white"/>
</g>
<path d="M56.64 32.0479V17.9479H61.62C63.94 17.9479 65.7267 18.5545 66.98 19.7679C68.2467 20.9812 68.88 22.7212 68.88 24.9879C68.88 27.2545 68.2467 29.0012 66.98 30.2279C65.7267 31.4412 63.94 32.0479 61.62 32.0479H56.64ZM58.72 30.3079H61.5C64.98 30.3079 66.72 28.5345 66.72 24.9879C66.72 21.4545 64.98 19.6879 61.5 19.6879H58.72V30.3079ZM71.2595 20.0279V17.9279H73.6195V20.0279H71.2595ZM71.4395 32.0479V22.2879H73.4595V32.0479H71.4395ZM80.7228 35.8279C79.8428 35.8279 79.0228 35.7212 78.2628 35.5079C77.5028 35.3079 76.8295 34.9879 76.2428 34.5479L76.8628 33.1079C77.4495 33.5079 78.0495 33.8012 78.6628 33.9879C79.2761 34.1745 79.9161 34.2679 80.5828 34.2679C82.4495 34.2679 83.3828 33.3345 83.3828 31.4679V29.9279C83.1028 30.5145 82.6628 30.9745 82.0628 31.3079C81.4761 31.6412 80.8161 31.8079 80.0828 31.8079C79.2028 31.8079 78.4361 31.6079 77.7828 31.2079C77.1295 30.7945 76.6228 30.2279 76.2628 29.5079C75.9028 28.7745 75.7228 27.9212 75.7228 26.9479C75.7228 25.9879 75.9028 25.1479 76.2628 24.4279C76.6228 23.6945 77.1295 23.1279 77.7828 22.7279C78.4361 22.3145 79.2028 22.1079 80.0828 22.1079C80.8295 22.1079 81.4961 22.2745 82.0828 22.6079C82.6695 22.9412 83.1028 23.4012 83.3828 23.9879V22.2879H85.3428V31.2279C85.3428 32.7612 84.9495 33.9079 84.1628 34.6679C83.3761 35.4412 82.2295 35.8279 80.7228 35.8279ZM80.5628 30.2279C81.4161 30.2279 82.0961 29.9345 82.6028 29.3479C83.1095 28.7612 83.3628 27.9612 83.3628 26.9479C83.3628 25.9345 83.1095 25.1412 82.6028 24.5679C82.0961 23.9812 81.4161 23.6879 80.5628 23.6879C79.7095 23.6879 79.0295 23.9812 78.5228 24.5679C78.0161 25.1412 77.7628 25.9345 77.7628 26.9479C77.7628 27.9612 78.0161 28.7612 78.5228 29.3479C79.0295 29.9345 79.7095 30.2279 80.5628 30.2279ZM87.9978 20.0279V17.9279H90.3578V20.0279H87.9978ZM88.1778 32.0479V22.2879H90.1978V32.0479H88.1778ZM97.2011 32.2279C95.9744 32.2279 95.0611 31.9145 94.4611 31.2879C93.8611 30.6612 93.5611 29.7545 93.5611 28.5679V23.8479H91.6611V22.2879H93.5611V19.3479H95.5811V22.2879H98.6011V23.8479H95.5811V28.4079C95.5811 29.1145 95.7278 29.6479 96.0211 30.0079C96.3278 30.3679 96.8211 30.5479 97.5011 30.5479C97.7144 30.5479 97.9211 30.5279 98.1211 30.4879C98.3211 30.4345 98.5211 30.3745 98.7211 30.3079L99.0411 31.8279C98.8411 31.9479 98.5611 32.0412 98.2011 32.1079C97.8544 32.1879 97.5211 32.2279 97.2011 32.2279ZM103.466 32.2279C102.786 32.2279 102.179 32.0945 101.646 31.8279C101.112 31.5612 100.686 31.2012 100.366 30.7479C100.059 30.2945 99.9058 29.7812 99.9058 29.2079C99.9058 28.4879 100.086 27.9212 100.446 27.5079C100.819 27.0945 101.426 26.7945 102.266 26.6079C103.119 26.4212 104.266 26.3279 105.706 26.3279H106.386V25.8079C106.386 25.0479 106.226 24.5012 105.906 24.1679C105.586 23.8345 105.059 23.6679 104.326 23.6679C103.766 23.6679 103.206 23.7545 102.646 23.9279C102.086 24.0879 101.512 24.3479 100.926 24.7079L100.306 23.2879C100.812 22.9279 101.446 22.6412 102.206 22.4279C102.966 22.2145 103.692 22.1079 104.386 22.1079C105.719 22.1079 106.706 22.4279 107.346 23.0679C107.986 23.6945 108.306 24.6812 108.306 26.0279V32.0479H106.406V30.4279C106.166 30.9879 105.792 31.4279 105.286 31.7479C104.779 32.0679 104.172 32.2279 103.466 32.2279ZM103.866 30.7879C104.586 30.7879 105.186 30.5345 105.666 30.0279C106.146 29.5212 106.386 28.8812 106.386 28.1079V27.5679H105.726C104.752 27.5679 103.986 27.6145 103.426 27.7079C102.879 27.8012 102.486 27.9612 102.246 28.1879C102.019 28.4012 101.906 28.7012 101.906 29.0879C101.906 29.5945 102.079 30.0079 102.426 30.3279C102.772 30.6345 103.252 30.7879 103.866 30.7879ZM114.268 32.2279C113.201 32.2279 112.401 31.9279 111.868 31.3279C111.348 30.7279 111.088 29.8479 111.088 28.6879V17.9479H113.108V28.5679C113.108 29.8879 113.648 30.5479 114.728 30.5479C114.888 30.5479 115.035 30.5412 115.168 30.5279C115.315 30.5145 115.461 30.4879 115.608 30.4479L115.568 32.0679C115.115 32.1745 114.681 32.2279 114.268 32.2279ZM128.795 32.2279C127.448 32.2279 126.282 31.9345 125.295 31.3479C124.308 30.7479 123.542 29.9079 122.995 28.8279C122.462 27.7345 122.195 26.4545 122.195 24.9879C122.195 23.5079 122.462 22.2279 122.995 21.1479C123.542 20.0679 124.308 19.2345 125.295 18.6479C126.282 18.0612 127.448 17.7679 128.795 17.7679C130.128 17.7679 131.288 18.0612 132.275 18.6479C133.275 19.2345 134.042 20.0679 134.575 21.1479C135.122 22.2279 135.395 23.5012 135.395 24.9679C135.395 26.4479 135.122 27.7345 134.575 28.8279C134.042 29.9079 133.275 30.7479 132.275 31.3479C131.288 31.9345 130.128 32.2279 128.795 32.2279ZM128.795 30.4279C130.195 30.4279 131.282 29.9545 132.055 29.0079C132.842 28.0479 133.235 26.7079 133.235 24.9879C133.235 23.2679 132.848 21.9345 132.075 20.9879C131.302 20.0412 130.208 19.5679 128.795 19.5679C127.395 19.5679 126.302 20.0412 125.515 20.9879C124.742 21.9345 124.355 23.2679 124.355 24.9879C124.355 26.7079 124.742 28.0479 125.515 29.0079C126.302 29.9545 127.395 30.4279 128.795 30.4279ZM142.263 32.2279C141.263 32.2279 140.396 32.0212 139.663 31.6079C138.943 31.1812 138.383 30.5879 137.983 29.8279C137.583 29.0545 137.383 28.1479 137.383 27.1079C137.383 25.5612 137.823 24.3412 138.703 23.4479C139.583 22.5545 140.77 22.1079 142.263 22.1079C142.876 22.1079 143.483 22.2145 144.083 22.4279C144.683 22.6412 145.176 22.9345 145.563 23.3079L144.923 24.7279C144.55 24.3812 144.136 24.1279 143.683 23.9679C143.243 23.7945 142.823 23.7079 142.423 23.7079C141.476 23.7079 140.743 24.0079 140.223 24.6079C139.716 25.1945 139.463 26.0345 139.463 27.1279C139.463 28.2212 139.716 29.0812 140.223 29.7079C140.743 30.3212 141.476 30.6279 142.423 30.6279C142.823 30.6279 143.243 30.5479 143.683 30.3879C144.136 30.2145 144.55 29.9545 144.923 29.6079L145.563 31.0479C145.176 31.4079 144.676 31.6945 144.063 31.9079C143.463 32.1212 142.863 32.2279 142.263 32.2279ZM151.684 32.2279C150.084 32.2279 148.824 31.7812 147.904 30.8879C146.984 29.9812 146.524 28.7479 146.524 27.1879C146.524 26.1879 146.724 25.3079 147.124 24.5479C147.537 23.7745 148.104 23.1745 148.824 22.7479C149.544 22.3212 150.37 22.1079 151.304 22.1079C152.65 22.1079 153.71 22.5412 154.484 23.4079C155.257 24.2612 155.644 25.4412 155.644 26.9479V27.6279H148.484C148.63 29.6545 149.704 30.6679 151.704 30.6679C152.264 30.6679 152.81 30.5812 153.344 30.4079C153.89 30.2345 154.404 29.9479 154.884 29.5479L155.484 30.9479C155.044 31.3479 154.477 31.6612 153.784 31.8879C153.09 32.1145 152.39 32.2279 151.684 32.2279ZM151.384 23.5279C150.544 23.5279 149.877 23.7879 149.384 24.3079C148.89 24.8279 148.59 25.5212 148.484 26.3879H153.944C153.904 25.4812 153.664 24.7812 153.224 24.2879C152.784 23.7812 152.17 23.5279 151.384 23.5279ZM160.966 32.2279C160.286 32.2279 159.679 32.0945 159.146 31.8279C158.612 31.5612 158.186 31.2012 157.866 30.7479C157.559 30.2945 157.406 29.7812 157.406 29.2079C157.406 28.4879 157.586 27.9212 157.946 27.5079C158.319 27.0945 158.926 26.7945 159.766 26.6079C160.619 26.4212 161.766 26.3279 163.206 26.3279H163.886V25.8079C163.886 25.0479 163.726 24.5012 163.406 24.1679C163.086 23.8345 162.559 23.6679 161.826 23.6679C161.266 23.6679 160.706 23.7545 160.146 23.9279C159.586 24.0879 159.012 24.3479 158.426 24.7079L157.806 23.2879C158.312 22.9279 158.946 22.6412 159.706 22.4279C160.466 22.2145 161.192 22.1079 161.886 22.1079C163.219 22.1079 164.206 22.4279 164.846 23.0679C165.486 23.6945 165.806 24.6812 165.806 26.0279V32.0479H163.906V30.4279C163.666 30.9879 163.292 31.4279 162.786 31.7479C162.279 32.0679 161.672 32.2279 160.966 32.2279ZM161.366 30.7879C162.086 30.7879 162.686 30.5345 163.166 30.0279C163.646 29.5212 163.886 28.8812 163.886 28.1079V27.5679H163.226C162.252 27.5679 161.486 27.6145 160.926 27.7079C160.379 27.8012 159.986 27.9612 159.746 28.1879C159.519 28.4012 159.406 28.7012 159.406 29.0879C159.406 29.5945 159.579 30.0079 159.926 30.3279C160.272 30.6345 160.752 30.7879 161.366 30.7879ZM168.588 32.0479V22.2879H170.548V23.9079C170.881 23.3212 171.335 22.8745 171.908 22.5679C172.495 22.2612 173.148 22.1079 173.868 22.1079C176.175 22.1079 177.328 23.4145 177.328 26.0279V32.0479H175.308V26.1479C175.308 25.3079 175.141 24.6945 174.808 24.3079C174.488 23.9212 173.981 23.7279 173.288 23.7279C172.475 23.7279 171.821 23.9879 171.328 24.5079C170.848 25.0145 170.608 25.6879 170.608 26.5279V32.0479H168.588Z" fill="white"/>
<defs>
<clipPath id="clip0_422_4582">
<rect width="47" height="47" fill="white" transform="translate(0 0.0478516)"/>
</clipPath>
</defs>
</svg>
