<svg width="98" height="40" viewBox="0 0 98 40" fill="none" xmlns="http://www.w3.org/2000/svg">
<path d="M31.1826 10.9411L32.7521 10.9679L37.0166 6.70341L37.2233 4.89654C33.8408 1.88305 29.3749 0.0478516 24.4948 0.0478516C15.6596 0.0478516 8.20241 6.05952 5.99512 14.2027C6.46062 13.878 7.45592 14.1215 7.45592 14.1215L15.9773 12.7204C15.9773 12.7204 16.4152 11.9954 16.6373 12.0314C17.6337 10.9367 18.8478 10.0622 20.2018 9.46404C21.5559 8.86586 23.0199 8.55717 24.5002 8.55774C27.0268 8.5631 29.3543 9.45582 31.1826 10.9327V10.9411Z" fill="white" fill-opacity="0.49"/>
<path d="M43.0049 14.2195C42.015 10.5674 39.9746 7.34265 37.2207 4.89648L31.1822 10.9349C33.6016 12.8873 35.1535 15.8747 35.1535 19.219V20.2847C38.0912 20.2847 40.4776 22.6765 40.4776 25.6089C40.4776 28.5466 38.0858 30.933 35.1535 30.933H24.5052L23.4395 32.0049V38.3948L24.5052 39.4551H35.1535C38.824 39.4501 42.3428 37.9898 44.9384 35.3943C47.534 32.7989 48.9945 29.2802 48.9998 25.6096C48.9944 20.8972 46.6263 16.7284 43.0049 14.2202V14.2195Z" fill="white" fill-opacity="0.88"/>
<path d="M13.8464 39.4618H24.4886V30.9328H13.8464C13.0903 30.9329 12.343 30.7705 11.6552 30.4565L10.1186 30.9274L5.85409 35.1919L5.48047 36.6313C7.88367 38.4647 10.823 39.4571 13.8457 39.4557L13.8464 39.4618Z" fill="white"/>
<path d="M13.8463 11.77C10.1757 11.7751 6.65691 13.2354 4.06134 15.8308C1.46578 18.4262 0.00526625 21.945 0 25.6155C0 30.112 2.1537 34.1101 5.48645 36.6428L11.6604 30.4688C10.7259 30.0474 9.93279 29.3654 9.37615 28.5046C8.81952 27.6438 8.52299 26.6406 8.52214 25.6155C8.52214 22.6778 10.9139 20.2914 13.8463 20.2914C16.0053 20.2914 17.8612 21.593 18.7003 23.4304L24.8743 17.2565C22.3424 13.9237 18.3435 11.77 13.847 11.77H13.8463Z" fill="white" fill-opacity="0.17"/>
<path d="M65.24 27.2279C63.7067 27.2279 62.4133 26.9412 61.36 26.3679C60.3067 25.7812 59.5067 24.9479 58.96 23.8679C58.4267 22.7879 58.16 21.5012 58.16 20.0079C58.16 18.5279 58.4333 17.2479 58.98 16.1679C59.5267 15.0745 60.32 14.2345 61.36 13.6479C62.4 13.0612 63.6467 12.7679 65.1 12.7679C66.1 12.7679 67.0267 12.9145 67.88 13.2079C68.7333 13.5012 69.4467 13.9212 70.02 14.4679L69.28 16.0879C68.64 15.5545 67.9867 15.1745 67.32 14.9479C66.6533 14.7079 65.9133 14.5879 65.1 14.5879C63.54 14.5879 62.3533 15.0612 61.54 16.0079C60.7267 16.9412 60.32 18.2745 60.32 20.0079C60.32 21.7812 60.7333 23.1279 61.56 24.0479C62.4 24.9679 63.6533 25.4279 65.32 25.4279C66.3333 25.4279 67.34 25.2612 68.34 24.9279V21.1479H64.9V19.5879H70.08V26.2279C69.48 26.5212 68.7333 26.7612 67.84 26.9479C66.96 27.1345 66.0933 27.2279 65.24 27.2279ZM79.5889 27.2279C78.1622 27.2279 76.9422 26.9345 75.9289 26.3479C74.9156 25.7612 74.1356 24.9279 73.5889 23.8479C73.0556 22.7545 72.7889 21.4679 72.7889 19.9879C72.7889 18.5079 73.0556 17.2279 73.5889 16.1479C74.1356 15.0679 74.9156 14.2345 75.9289 13.6479C76.9422 13.0612 78.1622 12.7679 79.5889 12.7679C80.5489 12.7679 81.4422 12.9212 82.2689 13.2279C83.1089 13.5212 83.8089 13.9479 84.3689 14.5079L83.6489 16.1679C83.0356 15.6212 82.4022 15.2279 81.7489 14.9879C81.1089 14.7345 80.4089 14.6079 79.6489 14.6079C78.1289 14.6079 76.9689 15.0745 76.1689 16.0079C75.3689 16.9412 74.9689 18.2679 74.9689 19.9879C74.9689 21.7079 75.3689 23.0412 76.1689 23.9879C76.9689 24.9212 78.1289 25.3879 79.6489 25.3879C80.4089 25.3879 81.1089 25.2679 81.7489 25.0279C82.4022 24.7745 83.0356 24.3745 83.6489 23.8279L84.3689 25.4879C83.8089 26.0345 83.1089 26.4612 82.2689 26.7679C81.4422 27.0745 80.5489 27.2279 79.5889 27.2279ZM86.7845 27.0479V12.9479H92.6245C94.1445 12.9479 95.3179 13.3279 96.1445 14.0879C96.9712 14.8345 97.3845 15.8879 97.3845 17.2479C97.3845 18.6212 96.9712 19.6879 96.1445 20.4479C95.3179 21.1945 94.1445 21.5679 92.6245 21.5679H88.8645V27.0479H86.7845ZM88.8645 19.9079H92.3245C94.3512 19.9079 95.3645 19.0212 95.3645 17.2479C95.3645 15.4879 94.3512 14.6079 92.3245 14.6079H88.8645V19.9079Z" fill="white"/>
</svg>
