<svg width="93" height="36" viewBox="0 0 93 36" fill="none" xmlns="http://www.w3.org/2000/svg">
<path d="M6.97362 10.717C6.84546 10.717 6.7173 10.5872 6.84546 10.4575L7.74257 9.15966C7.87072 9.02988 7.99888 8.9001 8.2552 8.9001H24.4031C24.5313 8.9001 24.6594 9.02988 24.5313 9.15966L23.7623 10.3277C23.6342 10.4575 23.506 10.5872 23.2497 10.5872L6.97362 10.717ZM0.181243 14.87C0.0530852 14.87 -0.0750733 14.7402 0.0530847 14.6104L0.950192 13.3126C1.07835 13.1829 1.20651 13.0531 1.46282 13.0531H22.0963C22.2244 13.0531 22.3526 13.1829 22.3526 13.3126L21.9681 14.6104C21.9681 14.7402 21.7118 14.87 21.5836 14.87H0.181243ZM11.0747 19.1527C10.9465 19.1527 10.8184 19.023 10.9465 18.8932L11.5873 17.7252C11.7155 17.5954 11.8436 17.4656 12.0999 17.4656H21.071C21.1992 17.4656 21.3273 17.5954 21.3273 17.7252L21.1992 18.7634C21.1992 18.8932 21.071 19.023 20.9428 19.023L11.0747 19.1527ZM57.9805 9.80856L50.4192 11.7553C49.7784 11.885 49.6502 12.0148 49.1376 11.2361C48.4968 10.4575 47.9842 9.93834 46.9589 9.549C44.1394 8.12142 41.32 8.51076 38.7568 10.1979C35.681 12.1446 34.1431 15.1296 34.1431 18.8932C34.1431 22.527 36.7063 25.512 40.2947 26.0311C43.3705 26.4204 45.9337 25.3822 47.9842 23.0462C48.3687 22.527 48.7531 22.0079 49.2658 21.359H40.551C39.6539 21.359 39.3976 20.7101 39.6539 19.9314C40.2947 18.5038 41.32 16.1678 41.9608 14.9998C42.0889 14.7402 42.4734 14.2211 43.1142 14.2211H59.5184C59.3902 15.5189 59.3902 16.6869 59.2621 17.9847C58.7495 21.2292 57.596 24.344 55.5455 26.9396C52.3416 31.2223 48.1123 33.9477 42.7297 34.7264C38.2442 35.3753 34.1431 34.4668 30.5547 31.7414C27.2226 29.1458 25.3002 25.7715 24.7876 21.6186C24.1468 16.6869 25.6847 12.1446 28.6323 8.2512C31.8363 3.96845 36.0655 1.24307 41.32 0.334606C45.5492 -0.444076 49.6502 0.0750435 53.2387 2.54087C55.6737 4.09823 57.3397 6.3045 58.4931 9.02988C58.6213 9.549 58.4931 9.67878 57.9805 9.80856Z" fill="white"/>
<path d="M72.8471 35.1158C68.746 34.986 65.0294 33.818 61.8255 31.0926C59.1342 28.7566 57.4681 25.7716 56.9555 22.2675C56.1865 17.0763 57.5963 12.534 60.6721 8.51083C64.0042 4.0983 67.9771 1.89203 73.3597 0.85379C77.9734 0.0751087 82.3308 0.464449 86.1755 3.18983C89.7639 5.65566 91.9426 9.02995 92.5834 13.4425C93.3524 19.6719 91.5581 24.6036 87.4571 28.8863C84.5095 32.0011 80.7929 33.818 76.6918 34.7264C75.2821 34.986 74.0005 34.986 72.8471 35.1158ZM83.6123 16.687C83.6123 16.0381 83.6124 15.6487 83.4842 15.1296C82.7152 10.5873 78.6142 7.9917 74.2568 9.02995C70.0276 9.93841 67.3363 12.6638 66.311 16.9465C65.5421 20.4506 67.2081 24.0845 70.4121 25.6418C72.8471 26.6801 75.4102 26.5503 77.7171 25.3823C81.4337 23.5653 83.356 20.5804 83.6123 16.687Z" fill="white"/>
</svg>
