<svg width="141" height="46" viewBox="0 0 141 46" fill="none" xmlns="http://www.w3.org/2000/svg">
<path d="M54.1604 13.6078C53.4351 13.6078 52.7732 13.705 52.1748 13.8993C51.5945 14.0782 51.0859 14.3794 50.6489 14.8028C50.2291 15.2089 49.89 15.7373 49.6316 16.388C49.3895 17.0378 49.2521 17.8135 49.2195 18.7152C49.1687 20.1781 49.1687 21.641 49.2195 23.1039C49.2521 24.0138 49.3895 24.7895 49.6316 25.4311C49.89 26.0808 50.2291 26.6175 50.6489 27.0409C51.0841 27.447 51.5927 27.7482 52.1748 27.9444C52.7732 28.1233 53.4351 28.2127 54.1604 28.2127C54.8731 28.2127 55.535 28.1155 56.1461 27.9211C56.7572 27.7094 57.2822 27.4018 57.721 26.9985C58.1743 26.5759 58.5307 26.0393 58.79 25.3886C59.0484 24.7388 59.1776 23.975 59.1776 23.0971V21.8541H54.9574C54.602 21.8541 54.4243 21.6716 54.4243 21.3065V20.9643C54.4243 20.5993 54.602 20.4167 54.9574 20.4167H60.1391C60.5018 20.4167 60.6831 20.5993 60.6831 20.9643V23.1094C60.6831 24.0859 60.538 24.9802 60.2479 25.7925C59.9578 26.5892 59.5298 27.2809 58.964 27.8677C58.4155 28.4518 57.7282 28.9067 56.9022 29.2325C56.0862 29.541 55.166 29.6952 54.1414 29.6952C53.0915 29.6952 52.1712 29.541 51.3806 29.2325C50.589 28.9076 49.919 28.4605 49.3704 27.891C48.8373 27.3224 48.4257 26.648 48.1355 25.8677C47.8608 25.071 47.7076 24.1931 47.6758 23.234C47.6432 22.5039 47.6269 21.7318 47.6269 20.9178C47.6269 20.0964 47.6432 19.3243 47.6758 18.6016C47.7085 17.6433 47.8699 16.7736 48.16 15.9924C48.4502 15.1957 48.8618 14.5131 49.3949 13.9445C49.9435 13.376 50.6135 12.937 51.405 12.6276C52.1966 12.3027 53.1087 12.1403 54.1414 12.1403C55.2566 12.1403 56.2095 12.3109 57.0002 12.6523C57.7917 12.9936 58.4377 13.4042 58.9382 13.8843C59.4387 14.3561 59.8104 14.8521 60.0534 15.3723C60.2955 15.8925 60.4247 16.3232 60.441 16.6645C60.4574 16.8106 60.4165 16.9324 60.3186 17.03C60.2216 17.1122 60.0924 17.1532 59.931 17.1532H59.3979C59.2528 17.1532 59.1476 17.1213 59.0824 17.0574C59.0189 16.9753 58.9545 16.8452 58.8892 16.6673C58.7605 16.3022 58.5792 15.9372 58.3452 15.5721C58.1186 15.2071 57.813 14.8822 57.4286 14.5975C57.0414 14.3054 56.5813 14.0695 56.0482 13.8898C55.515 13.7109 54.8849 13.6214 54.1577 13.6214L54.1604 13.6078ZM65.5955 18.4578C66.1758 17.3353 67.2738 16.7741 68.8895 16.7741H69.7871C70.1425 16.7741 70.3202 16.9529 70.3202 17.3107V17.6529C70.3202 18.0106 70.1425 18.1895 69.7871 18.1895H68.7453C67.7752 18.1895 67.0081 18.4738 66.4442 19.0423C65.8793 19.6109 65.5969 20.383 65.5969 21.3585V28.9149C65.5969 29.0774 65.5402 29.2074 65.4269 29.3051C65.3299 29.4027 65.2007 29.4516 65.0393 29.4516H64.6517C64.2962 29.4516 64.1185 29.2727 64.1185 28.9149V17.3339C64.1185 17.1715 64.167 17.0414 64.2641 16.9438C64.3611 16.8297 64.4903 16.7727 64.6517 16.7727H65.0393C65.2007 16.7727 65.3299 16.8297 65.4269 16.9438C65.5402 17.0414 65.5969 17.1715 65.5969 17.3339V18.4564L65.5955 18.4578ZM80.5558 29.4584C80.2004 29.4584 80.0227 29.2795 80.0227 28.9218V27.776C79.8776 28.0042 79.684 28.2323 79.4419 28.4605C79.2153 28.6886 78.9328 28.8917 78.5946 29.0696C78.2555 29.2485 77.8475 29.3945 77.3706 29.5077C76.9019 29.6373 76.3533 29.7021 75.725 29.7021C75.1447 29.7021 74.5871 29.6126 74.0522 29.4338C73.5353 29.2394 73.0752 28.9793 72.6717 28.6535C72.2846 28.3286 71.97 27.9467 71.7279 27.5077C71.5012 27.0696 71.3879 26.5905 71.3879 26.0703C71.3879 25.5182 71.5012 25.0222 71.7279 24.5823C71.97 24.1443 72.3009 23.7624 72.7207 23.4366C73.1405 23.0952 73.641 22.8192 74.2222 22.6084C74.8206 22.3802 75.4747 22.2178 76.1847 22.121L80.0118 21.5844V20.7316C80.0118 19.8537 79.7452 19.171 79.2121 18.6837C78.6953 18.1964 77.8638 17.9527 76.7178 17.9527C75.8138 17.9527 75.1112 18.1316 74.6098 18.4893C74.1256 18.8306 73.82 19.2048 73.6931 19.6118C73.6296 19.8062 73.5489 19.9445 73.451 20.0266C73.3694 20.0905 73.2561 20.1224 73.111 20.1224H72.771C72.6259 20.1224 72.4967 20.0736 72.3834 19.9759C72.2864 19.8619 72.2379 19.7318 72.2379 19.5858C72.2379 19.3577 72.3186 19.0734 72.48 18.733C72.6414 18.3917 72.8998 18.0586 73.2552 17.7337C73.6179 17.4088 74.0862 17.1327 74.6601 16.9055C75.225 16.6618 75.9122 16.54 76.7219 16.54C77.6739 16.54 78.4573 16.67 79.072 16.9301C79.7012 17.1902 80.194 17.5315 80.5503 17.9541C80.9058 18.3602 81.1479 18.8151 81.2766 19.3189C81.4217 19.8226 81.4942 20.3186 81.4942 20.8069V28.9245C81.4942 29.2823 81.3165 29.4611 80.9611 29.4611H80.549L80.5558 29.4584ZM75.9779 28.288C76.5265 28.288 77.0433 28.1985 77.5284 28.0197C78.0289 27.8253 78.465 27.541 78.8367 27.1668C79.1994 26.8018 79.4895 26.3304 79.7071 25.7528C79.9175 25.1842 80.0227 24.518 80.0227 23.7541V22.9259L76.8987 23.364C74.2185 23.729 72.8785 24.5905 72.8785 25.9485C72.8785 26.3546 72.9673 26.7042 73.145 26.9971C73.3381 27.2891 73.5802 27.5328 73.8713 27.7281C74.1614 27.9225 74.4923 28.0685 74.8641 28.1662C75.2268 28.2483 75.5985 28.2894 75.9793 28.2894L75.9779 28.288ZM90.8784 29.7021C89.8611 29.7021 89.0296 29.5195 88.3841 29.1545C87.7385 28.7895 87.2136 28.3345 86.8092 27.7897V33.5665C86.8092 33.9243 86.6315 34.1031 86.2761 34.1031H85.864C85.5085 34.1031 85.3308 33.9243 85.3308 33.5665V17.3107C85.3308 16.9529 85.5085 16.7741 85.864 16.7741H86.2761C86.6315 16.7741 86.8092 16.9529 86.8092 17.3107V18.4564C87.2127 17.9043 87.7376 17.4494 88.3841 17.0916C89.0296 16.7266 89.8611 16.5441 90.8784 16.5441C91.815 16.5441 92.6061 16.7147 93.2516 17.056C93.9135 17.3809 94.4466 17.8199 94.851 18.3729C95.2545 18.9096 95.5446 19.5274 95.7214 20.2265C95.9146 20.9091 96.0279 21.6081 96.0614 22.3236C96.0778 22.5673 96.0859 22.8356 96.0859 23.1285C96.0859 23.4206 96.0778 23.6889 96.0614 23.9335C96.0288 24.6508 95.9155 25.3581 95.7214 26.0553C95.5437 26.7379 95.2536 27.3558 94.851 27.9088C94.4475 28.4454 93.9144 28.8844 93.2516 29.2257C92.6061 29.5506 91.815 29.713 90.8784 29.713V29.7021ZM86.8092 22.2415C86.7929 22.4852 86.7847 22.8018 86.7847 23.1915C86.7847 23.5812 86.7929 23.8979 86.8092 24.1415C86.8255 24.6289 86.9062 25.1249 87.0513 25.6296C87.2127 26.1169 87.4547 26.5559 87.7775 26.9464C88.1003 27.3361 88.5083 27.661 89.0015 27.9211C89.4857 28.1648 90.0669 28.2866 90.7451 28.2866C91.4577 28.2866 92.0471 28.1648 92.5131 27.9211C92.9973 27.6774 93.3849 27.3526 93.6759 26.9464C93.9824 26.5239 94.2 26.0448 94.3288 25.5091C94.4738 24.957 94.5627 24.388 94.5953 23.8021C94.6116 23.3458 94.6116 22.8908 94.5953 22.4372C94.5627 21.8532 94.4738 21.2919 94.3288 20.7535C94.2 20.2169 93.9824 19.7455 93.6759 19.3394C93.3858 18.9169 92.9982 18.5838 92.5131 18.3401C92.0444 18.08 91.455 17.9499 90.7451 17.9499C90.0506 17.9499 89.4612 18.08 88.9771 18.3401C88.4929 18.6002 88.0849 18.9415 87.753 19.364C87.4466 19.7701 87.2122 20.2251 87.0499 20.7288C86.9048 21.2326 86.8241 21.7364 86.8078 22.2401L86.8092 22.2415ZM100.862 18.4578C101.298 17.8893 101.822 17.4261 102.437 17.0684C103.048 16.7106 103.88 16.5318 104.932 16.5318C105.755 16.5318 106.473 16.67 107.087 16.9465C107.698 17.2231 108.207 17.605 108.613 18.0923C109.033 18.5796 109.348 19.1569 109.557 19.824C109.767 20.4902 109.872 21.2134 109.872 21.9937V28.9177C109.872 29.2754 109.695 29.4543 109.339 29.4543H108.931C108.576 29.4543 108.398 29.2754 108.398 28.9177V22.1142C108.398 20.8137 108.084 19.798 107.454 19.067C106.825 18.3186 105.905 17.9445 104.694 17.9445C103.531 17.9445 102.603 18.3095 101.908 19.0396C101.214 19.7697 100.866 20.795 100.866 22.1156V28.9191C100.866 29.2768 100.689 29.4557 100.333 29.4557H99.9212C99.5658 29.4557 99.388 29.2768 99.388 28.9191V12.6769C99.388 12.3192 99.5658 12.1403 99.9212 12.1403H100.333C100.689 12.1403 100.866 12.3192 100.866 12.6769V18.4537L100.862 18.4578ZM119.753 12.1444C120.69 12.1444 121.546 12.2826 122.321 12.5592C123.096 12.8357 123.758 13.2582 124.306 13.8268C124.871 14.3789 125.307 15.078 125.615 15.924C125.938 16.7526 126.115 17.7359 126.148 18.874C126.181 19.6041 126.197 20.2867 126.197 20.9219C126.197 21.5552 126.181 22.2378 126.148 22.9698C126.066 25.2942 125.477 27.0007 124.38 28.0895L125.93 30.2839C125.947 30.3167 125.963 30.3487 125.979 30.3797C125.996 30.4125 126.004 30.4696 126.004 30.5508C126.004 30.6804 125.955 30.7945 125.858 30.893C125.761 30.9907 125.648 31.0395 125.518 31.0395H124.985C124.807 31.0395 124.654 30.9665 124.525 30.8205C124.397 30.6909 124.291 30.5768 124.21 30.4782L123.141 28.9902C122.171 29.4621 121.04 29.698 119.749 29.698C117.731 29.698 116.173 29.1536 115.075 28.0648C113.993 26.9761 113.419 25.2777 113.354 22.9698C113.321 22.2397 113.305 21.557 113.305 20.9219C113.305 20.2885 113.321 19.6059 113.354 18.874C113.387 17.7359 113.556 16.7526 113.863 15.924C114.186 15.0789 114.622 14.3798 115.171 13.8268C115.736 13.2582 116.398 12.8357 117.157 12.5592C117.932 12.2826 118.796 12.1444 119.749 12.1444H119.753ZM119.753 13.6091C119.075 13.6091 118.445 13.715 117.863 13.9267C117.282 14.1211 116.774 14.4378 116.337 14.8767C115.901 15.3148 115.554 15.876 115.295 16.5605C115.053 17.2431 114.915 18.0554 114.883 18.9972C114.866 19.3622 114.85 19.7035 114.834 20.0211C114.834 20.3296 114.834 20.6307 114.834 20.9246C114.834 21.2166 114.834 21.5242 114.834 21.8472C114.85 22.1557 114.866 22.4888 114.883 22.8466C114.915 23.8048 115.053 24.6261 115.295 25.3106C115.553 25.9768 115.892 26.5289 116.312 26.967C116.747 27.405 117.256 27.7299 117.838 27.9416C118.418 28.136 119.055 28.2332 119.748 28.2332C120.442 28.2332 121.079 28.136 121.657 27.9416C122.237 27.7299 122.738 27.405 123.159 26.967C123.594 26.5289 123.933 25.9768 124.176 25.3106C124.434 24.628 124.579 23.8066 124.611 22.8466C124.627 22.4888 124.636 22.1557 124.636 21.8472C124.636 21.5224 124.636 21.2148 124.636 20.9246C124.636 20.6326 124.636 20.3314 124.636 20.0211C124.636 19.7127 124.627 19.3713 124.611 18.9972C124.578 18.0544 124.433 17.2422 124.176 16.5605C123.934 15.8779 123.595 15.3166 123.159 14.8767C122.723 14.4387 122.215 14.122 121.633 13.9267C121.052 13.715 120.422 13.6091 119.742 13.6091H119.753ZM131.576 27.9909H139.932C140.294 27.9909 140.476 28.1735 140.476 28.5385V28.904C140.476 29.2617 140.294 29.4406 139.932 29.4406H130.583C130.227 29.4406 130.05 29.2617 130.05 28.904V12.9233C130.05 12.5656 130.227 12.3867 130.583 12.3867H131.043C131.398 12.3867 131.576 12.5656 131.576 12.9233V27.9896V27.9909ZM3.59883 34.8533L1.9668 33.9033L20.1612 2.18555L21.7932 3.13557L3.59883 34.8533Z" fill="white"/>
<path d="M1.5957 31.3711H37.9845V33.2698H1.5957V31.3711Z" fill="white"/>
<path d="M20.518 43.0144L2.31543 32.4368L3.25929 30.7941L21.4605 41.369L20.518 43.0144ZM36.3296 15.4445L18.1284 4.86828L19.0723 3.22559L37.2735 13.8032L36.3296 15.4445Z" fill="white"/>
<path d="M3.26319 15.4394L2.31934 13.7967L20.5355 3.23145L21.4794 4.87414L3.26319 15.4394Z" fill="white"/>
<path d="M35.9938 34.8533L17.798 3.13557L19.4301 2.18555L37.6245 33.9033L35.9938 34.8533ZM3.03906 12.5373H4.9227V33.6925H3.03906V12.5373ZM34.6678 12.5373H36.5541V33.6925H34.6664L34.6678 12.5373Z" fill="white"/>
<path d="M20.1953 42.2117L19.3711 40.7743L35.2018 31.5752L36.026 33.0126L20.1953 42.2117Z" fill="white"/>
<path d="M39.0538 34.3103C38.5272 35.227 37.6608 35.896 36.6447 36.1704C35.6286 36.4447 34.5458 36.3021 33.6341 35.7737C32.7233 35.2437 32.0587 34.3716 31.7861 33.3488C31.5135 32.3261 31.6553 31.2362 32.1802 30.3186C32.7068 29.4018 33.5732 28.7328 34.5894 28.4585C35.6055 28.1841 36.6882 28.3268 37.5999 28.8552C39.5094 29.9503 40.1568 32.4144 39.0552 34.3103H39.0538ZM7.40332 15.9121C6.87676 16.8288 6.01032 17.4978 4.9942 17.7722C3.97809 18.0465 2.89533 17.9039 1.98362 17.3755C1.07284 16.8455 0.408202 15.9734 0.135622 14.9506C-0.136958 13.9279 0.00479314 12.838 0.529757 11.9204C1.05631 11.0036 1.92275 10.3346 2.93887 10.0603C3.95499 9.78592 5.03775 9.92859 5.94945 10.457C7.84669 11.5521 8.4927 14.0162 7.40468 15.9121H7.40332ZM0.541998 34.3103C-0.548741 32.4007 0.0986296 29.9654 1.99722 28.8552C3.89446 27.7573 6.31394 28.4089 7.41692 30.3199C8.50766 32.2296 7.86029 34.6649 5.96169 35.775C4.05222 36.8729 1.63274 36.2213 0.541998 34.3103ZM32.1938 15.9121C31.1031 14.0025 31.7505 11.5672 33.6491 10.457C35.5463 9.35912 37.9658 10.0107 39.0688 11.9217C40.1595 13.8314 39.5121 16.2667 37.6135 17.3768C36.7018 17.9052 35.6191 18.0479 34.603 17.7736C33.5868 17.4992 32.7204 16.8302 32.1938 15.9135V15.9121ZM19.7945 45.5094C17.6021 45.5094 15.83 43.7257 15.83 41.519C15.83 39.3123 17.6062 37.5286 19.7945 37.5286C21.9828 37.5286 23.759 39.3123 23.759 41.519C23.7572 42.5768 23.3389 43.5907 22.5958 44.3386C21.8527 45.0866 20.8454 45.5076 19.7945 45.5094ZM19.7945 8.71026C17.6021 8.71026 15.83 6.92656 15.83 4.71987C15.83 2.51319 17.6062 0.729492 19.7945 0.729492C21.9828 0.729492 23.759 2.51319 23.759 4.71987C23.7599 5.24415 23.6579 5.76345 23.459 6.24799C23.2601 6.73254 22.9681 7.17279 22.5998 7.54351C22.2315 7.91423 21.7941 8.20813 21.3127 8.40834C20.8313 8.60856 20.3154 8.71116 19.7945 8.71026Z" fill="white"/>
</svg>
