<svg width="118" height="48" viewBox="0 0 118 48" fill="none" xmlns="http://www.w3.org/2000/svg">
<path d="M56.64 30.6396V16.5396H58.22L66.3 27.1996V16.5396H68.22V30.6396H66.68L58.56 19.9396V30.6396H56.64ZM75.8633 30.8196C74.2633 30.8196 73.0033 30.373 72.0833 29.4796C71.1633 28.573 70.7033 27.3396 70.7033 25.7796C70.7033 24.7796 70.9033 23.8996 71.3033 23.1396C71.7166 22.3663 72.2833 21.7663 73.0033 21.3396C73.7233 20.913 74.5499 20.6996 75.4833 20.6996C76.8299 20.6996 77.8899 21.133 78.6633 21.9996C79.4366 22.853 79.8233 24.033 79.8233 25.5396V26.2196H72.6633C72.8099 28.2463 73.8833 29.2596 75.8833 29.2596C76.4433 29.2596 76.9899 29.173 77.5233 28.9996C78.0699 28.8263 78.5833 28.5396 79.0633 28.1396L79.6633 29.5396C79.2233 29.9396 78.6566 30.253 77.9633 30.4796C77.2699 30.7063 76.5699 30.8196 75.8633 30.8196ZM75.5633 22.1196C74.7233 22.1196 74.0566 22.3796 73.5633 22.8996C73.0699 23.4196 72.7699 24.113 72.6633 24.9796H78.1233C78.0833 24.073 77.8433 23.373 77.4033 22.8796C76.9633 22.373 76.3499 22.1196 75.5633 22.1196ZM80.6473 30.6396L84.7073 25.5996L80.9073 20.8796H83.2673L85.8873 24.2196L88.5073 20.8796H90.8673L87.0473 25.6196L91.1273 30.6396H88.7273L85.8673 27.0396L83.0273 30.6396H80.6473ZM96.7909 30.8196C95.5643 30.8196 94.6509 30.5063 94.0509 29.8796C93.4509 29.253 93.1509 28.3463 93.1509 27.1596V22.4396H91.2509V20.8796H93.1509V17.9396H95.1709V20.8796H98.1909V22.4396H95.1709V26.9996C95.1709 27.7063 95.3176 28.2396 95.6109 28.5996C95.9176 28.9596 96.4109 29.1396 97.0909 29.1396C97.3043 29.1396 97.5109 29.1196 97.7109 29.0796C97.9109 29.0263 98.1109 28.9663 98.3109 28.8996L98.6309 30.4196C98.4309 30.5396 98.1509 30.633 97.7909 30.6996C97.4443 30.7796 97.1109 30.8196 96.7909 30.8196ZM98.4756 30.7996L98.3156 29.0996L99.6156 29.0196C100.922 28.913 101.576 28.1663 101.576 26.7796V16.5396H103.636V26.7796C103.636 27.993 103.322 28.933 102.696 29.5996C102.069 30.2663 101.142 30.6396 99.9156 30.7196L98.4756 30.7996ZM111.613 30.8196C110.507 30.8196 109.493 30.6796 108.573 30.3996C107.653 30.1063 106.873 29.6996 106.233 29.1796L106.893 27.5396C107.56 28.0463 108.273 28.4263 109.033 28.6796C109.793 28.933 110.653 29.0596 111.613 29.0596C112.747 29.0596 113.58 28.8596 114.113 28.4596C114.66 28.0463 114.933 27.513 114.933 26.8596C114.933 26.3263 114.74 25.9063 114.353 25.5996C113.967 25.2796 113.32 25.0263 112.413 24.8396L110.273 24.3996C109.007 24.133 108.06 23.693 107.433 23.0796C106.82 22.4663 106.513 21.6396 106.513 20.5996C106.513 19.7596 106.733 19.0196 107.173 18.3796C107.627 17.7396 108.253 17.2463 109.053 16.8996C109.853 16.5396 110.773 16.3596 111.813 16.3596C112.773 16.3596 113.66 16.5063 114.473 16.7996C115.3 17.0796 116 17.493 116.573 18.0396L115.893 19.6196C114.76 18.6196 113.393 18.1196 111.793 18.1196C110.807 18.1196 110.02 18.3396 109.433 18.7796C108.86 19.2196 108.573 19.8063 108.573 20.5396C108.573 21.0996 108.753 21.5463 109.113 21.8796C109.473 22.213 110.073 22.4663 110.913 22.6396L113.033 23.0796C114.367 23.3596 115.36 23.793 116.013 24.3796C116.667 24.953 116.993 25.733 116.993 26.7196C116.993 27.5463 116.773 28.2663 116.333 28.8796C115.893 29.493 115.273 29.973 114.473 30.3196C113.673 30.653 112.72 30.8196 111.613 30.8196Z" fill="white"/>
<path d="M21.9609 0.652296C21.8598 0.661484 21.5382 0.693639 21.2488 0.716607C14.5732 1.31838 8.32033 4.9198 4.36002 10.4552C2.15474 13.5329 0.744282 17.0241 0.211339 20.722C0.0229717 22.0128 0 22.3941 0 24.1442C0 25.8944 0.0229717 26.2757 0.211339 27.5665C1.48856 36.3909 7.76901 43.8051 16.2869 46.5521C17.8122 47.0436 19.4202 47.379 21.2488 47.5811C21.9609 47.6592 25.0391 47.6592 25.7512 47.5811C28.9075 47.232 31.5814 46.451 34.2186 45.1051C34.6229 44.8984 34.701 44.8433 34.6458 44.7973C34.6091 44.7698 32.8862 42.4592 30.8188 39.6662L27.0606 34.5902L22.3514 27.6216C19.7602 23.7905 17.6284 20.6577 17.6101 20.6577C17.5917 20.6531 17.5733 23.7492 17.5641 27.5298C17.5503 34.1492 17.5457 34.4157 17.4631 34.5718C17.3436 34.7969 17.2517 34.8888 17.0587 34.9899C16.9117 35.0634 16.7831 35.0772 16.0893 35.0772H15.2945L15.0832 34.9439C14.9454 34.8567 14.8443 34.7418 14.7754 34.6086L14.6789 34.4019L14.6881 25.1916L14.7019 15.9767L14.8443 15.7976C14.9178 15.7011 15.074 15.5771 15.1843 15.5174C15.3726 15.4255 15.4461 15.4163 16.241 15.4163C17.1782 15.4163 17.3344 15.4531 17.5779 15.7195C17.6468 15.793 20.1967 19.6333 23.2473 24.2591C26.2979 28.8849 30.4696 35.2012 32.5187 38.3019L36.2401 43.9383L36.4284 43.8143C38.0962 42.7302 39.8604 41.1867 41.2571 39.5789C44.2296 36.1658 46.1455 32.004 46.7887 27.5665C46.977 26.2757 47 25.8944 47 24.1442C47 22.3941 46.977 22.0128 46.7887 20.722C45.5114 11.8976 39.231 4.4834 30.7131 1.7364C29.2108 1.24947 27.6119 0.914135 25.8201 0.712014C25.3791 0.666077 22.3422 0.615547 21.9609 0.652296ZM31.5814 14.8651C31.802 14.9753 31.9811 15.1866 32.0455 15.4071C32.0822 15.5266 32.0914 18.0806 32.0822 23.8365L32.0684 32.0959L30.612 29.8634L29.151 27.6308V21.6269C29.151 17.7453 29.1694 15.5633 29.197 15.4576C29.2705 15.2004 29.4313 14.9983 29.6518 14.8788C29.8402 14.7824 29.9091 14.7732 30.6304 14.7732C31.3104 14.7732 31.4298 14.7824 31.5814 14.8651Z" fill="white"/>
</svg>
