<svg width="126" height="48" viewBox="0 0 126 48" fill="none" xmlns="http://www.w3.org/2000/svg">
<path d="M61.2396 31.0479V16.9479H62.8196L70.8996 27.6079V16.9479H72.8196V31.0479H71.2796L63.1596 20.3479V31.0479H61.2396ZM80.1229 31.2279C79.1362 31.2279 78.2829 31.0212 77.5629 30.6079C76.8429 30.1945 76.2829 29.6145 75.8829 28.8679C75.4962 28.1079 75.3029 27.2079 75.3029 26.1679C75.3029 25.1279 75.4962 24.2345 75.8829 23.4879C76.2829 22.7279 76.8429 22.1412 77.5629 21.7279C78.2829 21.3145 79.1362 21.1079 80.1229 21.1079C81.0829 21.1079 81.9229 21.3145 82.6429 21.7279C83.3629 22.1412 83.9229 22.7279 84.3229 23.4879C84.7229 24.2345 84.9229 25.1279 84.9229 26.1679C84.9229 27.2079 84.7229 28.1079 84.3229 28.8679C83.9229 29.6145 83.3629 30.1945 82.6429 30.6079C81.9229 31.0212 81.0829 31.2279 80.1229 31.2279ZM80.1229 29.6679C80.9496 29.6679 81.6162 29.3679 82.1229 28.7679C82.6296 28.1679 82.8829 27.3012 82.8829 26.1679C82.8829 25.0345 82.6296 24.1745 82.1229 23.5879C81.6162 22.9879 80.9496 22.6879 80.1229 22.6879C79.2829 22.6879 78.6096 22.9879 78.1029 23.5879C77.5962 24.1745 77.3429 25.0345 77.3429 26.1679C77.3429 27.3012 77.5962 28.1679 78.1029 28.7679C78.6096 29.3679 79.2829 29.6679 80.1229 29.6679ZM90.9115 31.2279C90.0582 31.2279 89.3048 31.0279 88.6515 30.6279C88.0115 30.2145 87.5115 29.6279 87.1515 28.8679C86.7915 28.1079 86.6115 27.2079 86.6115 26.1679C86.6115 25.1279 86.7915 24.2345 87.1515 23.4879C87.5115 22.7279 88.0115 22.1412 88.6515 21.7279C89.2915 21.3145 90.0448 21.1079 90.9115 21.1079C91.6448 21.1079 92.2982 21.2679 92.8715 21.5879C93.4448 21.9079 93.8715 22.3412 94.1515 22.8879V16.9479H96.1715V31.0479H94.1915V29.3479C93.9115 29.9345 93.4782 30.3945 92.8915 30.7279C92.3182 31.0612 91.6582 31.2279 90.9115 31.2279ZM91.4315 29.6679C92.2582 29.6679 92.9248 29.3679 93.4315 28.7679C93.9382 28.1679 94.1915 27.3012 94.1915 26.1679C94.1915 25.0345 93.9382 24.1745 93.4315 23.5879C92.9248 22.9879 92.2582 22.6879 91.4315 22.6879C90.5915 22.6879 89.9182 22.9879 89.4115 23.5879C88.9048 24.1745 88.6515 25.0345 88.6515 26.1679C88.6515 27.3012 88.9048 28.1679 89.4115 28.7679C89.9182 29.3679 90.5915 29.6679 91.4315 29.6679ZM103.588 31.2279C101.988 31.2279 100.728 30.7812 99.8079 29.8879C98.8879 28.9812 98.4279 27.7479 98.4279 26.1879C98.4279 25.1879 98.6279 24.3079 99.0279 23.5479C99.4412 22.7745 100.008 22.1745 100.728 21.7479C101.448 21.3212 102.275 21.1079 103.208 21.1079C104.555 21.1079 105.615 21.5412 106.388 22.4079C107.161 23.2612 107.548 24.4412 107.548 25.9479V26.6279H100.388C100.535 28.6545 101.608 29.6679 103.608 29.6679C104.168 29.6679 104.715 29.5812 105.248 29.4079C105.795 29.2345 106.308 28.9479 106.788 28.5479L107.388 29.9479C106.948 30.3479 106.381 30.6612 105.688 30.8879C104.995 31.1145 104.295 31.2279 103.588 31.2279ZM103.288 22.5279C102.448 22.5279 101.781 22.7879 101.288 23.3079C100.795 23.8279 100.495 24.5212 100.388 25.3879H105.848C105.808 24.4812 105.568 23.7812 105.128 23.2879C104.688 22.7812 104.075 22.5279 103.288 22.5279ZM108.29 31.2079L108.13 29.5079L109.43 29.4279C110.737 29.3212 111.39 28.5745 111.39 27.1879V16.9479H113.45V27.1879C113.45 28.4012 113.137 29.3412 112.51 30.0079C111.883 30.6745 110.957 31.0479 109.73 31.1279L108.29 31.2079ZM119.928 31.2279C119.128 31.2279 118.381 31.1279 117.688 30.9279C116.995 30.7145 116.415 30.4212 115.948 30.0479L116.528 28.6879C117.021 29.0345 117.561 29.3012 118.148 29.4879C118.748 29.6745 119.348 29.7679 119.948 29.7679C120.655 29.7679 121.188 29.6412 121.548 29.3879C121.908 29.1345 122.088 28.7945 122.088 28.3679C122.088 28.0212 121.968 27.7545 121.728 27.5679C121.488 27.3679 121.128 27.2145 120.648 27.1079L118.748 26.7279C117.068 26.3812 116.228 25.5145 116.228 24.1279C116.228 23.2079 116.595 22.4745 117.328 21.9279C118.061 21.3812 119.021 21.1079 120.208 21.1079C120.888 21.1079 121.535 21.2079 122.148 21.4079C122.775 21.6079 123.295 21.9079 123.708 22.3079L123.128 23.6679C122.728 23.3212 122.268 23.0545 121.748 22.8679C121.228 22.6812 120.715 22.5879 120.208 22.5879C119.515 22.5879 118.988 22.7212 118.628 22.9879C118.268 23.2412 118.088 23.5879 118.088 24.0279C118.088 24.6945 118.528 25.1212 119.408 25.3079L121.308 25.6879C122.175 25.8612 122.828 26.1545 123.268 26.5679C123.721 26.9812 123.948 27.5412 123.948 28.2479C123.948 29.1812 123.581 29.9145 122.848 30.4479C122.115 30.9679 121.141 31.2279 119.928 31.2279Z" fill="white"/>
<path d="M24.826 7.78763C25.2782 7.55772 25.7877 7.43701 26.3058 7.43701C26.8239 7.43701 27.3334 7.55772 27.7856 7.78763C32.2915 10.1024 36.798 12.4165 41.3052 14.7298C41.7289 14.9492 42.0818 15.266 42.3285 15.6484C42.5752 16.0309 42.707 16.4655 42.7107 16.9088V30.8366C42.7029 31.297 42.5584 31.7469 42.2926 32.1388C42.0267 32.5307 41.6493 32.85 41.2002 33.0629C36.7087 35.3649 32.2184 37.6679 27.7294 39.9719C27.2687 40.2035 26.7481 40.3186 26.2218 40.3052C25.6955 40.2919 25.1828 40.1506 24.737 39.8961C23.3904 39.1862 22.0431 38.478 20.6951 37.7715C20.3996 37.6512 20.1344 37.4772 19.9154 37.2604C20.0874 37.05 20.3943 37.0236 20.644 36.932C21.197 36.7522 21.7303 36.5257 22.237 36.2557C22.3007 36.2214 22.3743 36.2053 22.4483 36.2093C22.5223 36.2133 22.5932 36.2373 22.6521 36.2782C23.8037 36.8784 24.9445 37.496 26.0999 38.0906C26.3463 38.2183 26.596 38.048 26.8064 37.9415C31.2155 35.6761 35.6249 33.4138 40.0346 31.1544C40.1133 31.1186 40.1783 31.0622 40.2212 30.9923C40.264 30.9225 40.2828 30.8426 40.2749 30.7629C40.278 26.1689 40.278 21.5746 40.2749 16.98C40.2831 16.8906 40.2604 16.8012 40.21 16.7242C40.1596 16.6472 40.084 16.5863 39.9938 16.5502C35.5176 14.2587 31.0429 11.966 26.5698 9.67193C26.4921 9.62386 26.4003 9.59816 26.3063 9.59816C26.2123 9.59816 26.1204 9.62386 26.0427 9.67193C21.5678 11.9628 17.0928 14.2563 12.6178 16.5523C12.5273 16.5873 12.4512 16.6472 12.4002 16.7236C12.3493 16.8001 12.3261 16.8892 12.3339 16.9783C12.3339 21.5723 12.3339 26.1669 12.3339 30.7621C12.3261 30.8414 12.3452 30.921 12.3887 30.9901C12.4322 31.0593 12.4979 31.1147 12.577 31.1488C13.7711 31.7644 14.9662 32.3779 16.1621 32.9892C16.4936 33.1755 16.8646 33.296 17.2508 33.343C17.6371 33.3899 18.0299 33.3623 18.4035 33.2618C18.7281 33.1507 19.0075 32.952 19.2043 32.6924C19.4011 32.4328 19.5059 32.1247 19.5046 31.8094C19.5106 27.2422 19.5013 22.6742 19.5092 18.1078C19.5079 18.0594 19.5179 18.0112 19.5384 17.9665C19.559 17.9217 19.5897 17.8815 19.6286 17.8483C19.6675 17.8151 19.7136 17.7898 19.764 17.774C19.8144 17.7581 19.8679 17.7522 19.9211 17.7564C20.495 17.753 21.0694 17.7496 21.6433 17.7564C21.6993 17.7587 21.7541 17.7716 21.8041 17.7945C21.8542 17.8173 21.8983 17.8495 21.9337 17.889C21.9691 17.9285 21.9949 17.9743 22.0095 18.0234C22.024 18.0726 22.027 18.124 22.0182 18.1743C22.0182 22.7704 22.0242 27.3666 22.0144 31.9628C22.0144 33.1877 21.4625 34.5204 20.2162 35.1197C19.4372 35.4497 18.5844 35.6103 17.7253 35.5889C16.8661 35.5674 16.0243 35.3645 15.2663 34.9962C13.9545 34.3999 12.6998 33.6971 11.41 33.0587C10.9613 32.8462 10.5841 32.5273 10.3184 32.136C10.0527 31.7446 9.90825 31.2952 9.90039 30.8353V16.9076C9.90396 16.4554 10.0405 16.0123 10.2959 15.6243C10.5513 15.2363 10.9162 14.9175 11.3528 14.7008C15.8453 12.3977 20.3363 10.0933 24.826 7.78763Z" fill="white"/>
<path d="M28.7443 17.4345C30.7027 17.3199 32.7993 17.3668 34.5619 18.2438C35.2201 18.6008 35.7644 19.108 36.1407 19.715C36.517 20.3221 36.7123 21.008 36.7072 21.7049C36.6817 21.792 36.6225 21.8679 36.5404 21.9185C36.4582 21.9692 36.3588 21.9912 36.2602 21.9804C35.6919 21.9804 35.1236 21.9872 34.5553 21.977C34.446 21.9707 34.3432 21.9275 34.2671 21.8559C34.191 21.7843 34.1471 21.6894 34.1439 21.5899C34.0796 21.2525 33.9351 20.9318 33.7207 20.6503C33.5063 20.3687 33.2271 20.133 32.9024 19.9594C31.8543 19.4824 30.639 19.5062 29.4962 19.5164C28.6435 19.4931 27.8003 19.6848 27.0599 20.0702C26.8045 20.25 26.6174 20.498 26.5249 20.7794C26.4325 21.0609 26.4394 21.3616 26.5446 21.6393C26.7273 22.0337 27.2281 22.161 27.6376 22.2782C29.998 22.8395 32.499 22.7833 34.8144 23.5219C35.3117 23.6473 35.7707 23.8747 36.1563 24.1865C36.5419 24.4983 36.8438 24.8862 37.0389 25.3205C37.2711 25.9367 37.3272 26.5963 37.202 27.2376C37.0768 27.8789 36.7743 28.4807 36.323 28.9865C35.5067 29.7571 34.4462 30.2767 33.2894 30.473C31.7827 30.7511 30.2372 30.8107 28.7101 30.6497C27.2778 30.5015 25.7874 30.1591 24.6808 29.2723C24.2223 28.8894 23.8625 28.4191 23.6271 27.895C23.3918 27.371 23.2866 26.8062 23.3193 26.241C23.3306 26.1501 23.3809 26.067 23.4592 26.0097C23.5376 25.9523 23.6376 25.9254 23.7377 25.9347C24.3097 25.9305 24.8823 25.9292 25.4543 25.9347C25.5074 25.9337 25.5602 25.9422 25.6096 25.9598C25.659 25.9774 25.7041 26.0037 25.7422 26.0373C25.7803 26.0708 25.8108 26.1109 25.8317 26.1552C25.8527 26.1996 25.8637 26.2472 25.8643 26.2955C25.8921 26.6178 25.9924 26.9315 26.1589 27.2172C26.3254 27.5029 26.5546 27.7546 26.8322 27.9566C27.9951 28.6381 29.4559 28.5921 30.7861 28.6112C31.8894 28.5686 33.1287 28.5533 34.0282 27.8906C34.2514 27.6924 34.4138 27.4447 34.4992 27.1719C34.5847 26.8992 34.5903 26.6109 34.5155 26.3355C34.3749 25.8759 33.8478 25.6621 33.3938 25.522C31.0639 24.852 28.5348 25.0961 26.2255 24.3375C25.7414 24.2085 25.2938 23.9856 24.9136 23.6841C24.5335 23.3826 24.2298 23.0097 24.0235 22.5912C23.7582 21.9668 23.6911 21.2871 23.83 20.6297C23.9688 19.9723 24.3079 19.3636 24.8087 18.8729C25.8395 17.9294 27.3279 17.5661 28.7443 17.4358V17.4345Z" fill="white"/>
<path d="M26.2996 45.9832C39.6255 45.9832 50.4283 36.1624 50.4283 24.048C50.4283 11.9335 39.6255 2.11279 26.2996 2.11279C12.9737 2.11279 2.1709 11.9335 2.1709 24.048C2.1709 36.1624 12.9737 45.9832 26.2996 45.9832Z" stroke="white" stroke-width="3"/>
</svg>
