<svg width="152" height="27" viewBox="0 0 152 27" fill="none" xmlns="http://www.w3.org/2000/svg">
<path d="M60.4728 8.39912C60.5755 8.50623 60.6557 8.63281 60.7088 8.7714C60.7619 8.90999 60.7867 9.0578 60.7817 9.20613V24.7198C60.786 24.8843 60.7577 25.048 60.6984 25.2015C60.6392 25.3549 60.5501 25.4952 60.4364 25.614C60.3229 25.7332 60.1856 25.8271 60.0334 25.8897C59.8812 25.9523 59.7176 25.9823 59.5531 25.9776C59.3667 25.9779 59.1814 25.9484 59.0043 25.8903C58.842 25.8403 58.6962 25.7474 58.5824 25.6213L48.5321 12.5356V24.8543C48.5409 25.1434 48.4345 25.4242 48.2363 25.6348C48.0382 25.8455 47.7644 25.9687 47.4753 25.9776C47.4532 25.9782 47.4311 25.9782 47.4089 25.9776C47.2617 25.9832 47.115 25.9576 46.9784 25.9025C46.8418 25.8473 46.7185 25.7639 46.6165 25.6577C46.5149 25.5507 46.4355 25.4246 46.3831 25.2867C46.3307 25.1488 46.3062 25.0018 46.3112 24.8543V9.30785C46.3074 9.14404 46.3378 8.98125 46.4004 8.82982C46.463 8.67839 46.5564 8.54163 46.6746 8.42824C46.7853 8.31466 46.9184 8.22532 47.0655 8.16587C47.2125 8.10642 47.3703 8.07817 47.5289 8.08289C47.7306 8.08194 47.9306 8.12022 48.1177 8.19561C48.288 8.26149 48.4374 8.37195 48.5503 8.51544L58.5572 21.6302V9.20613C58.5528 9.06298 58.5767 8.92037 58.6274 8.78645C58.6782 8.65252 58.7548 8.52991 58.853 8.4256C58.9511 8.3213 59.0688 8.23735 59.1994 8.17855C59.33 8.11974 59.4709 8.08724 59.614 8.08289C59.6362 8.08227 59.6584 8.08227 59.6805 8.08289C59.8273 8.07748 59.9737 8.10282 60.1101 8.15728C60.2466 8.21173 60.3702 8.29411 60.4729 8.39912H60.4728ZM81.119 8.39912C81.3364 8.64077 81.4511 8.95759 81.4389 9.2824V19.0967C81.4597 20.3652 81.1517 21.6175 80.5447 22.7316C79.9699 23.7827 79.1158 24.6545 78.0766 25.2506C76.9998 25.8684 75.7774 26.1872 74.536 26.1738C73.2836 26.1936 72.0483 25.8813 70.9557 25.2688C69.9119 24.6751 69.0536 23.803 68.4767 22.7498C67.8697 21.6357 67.5617 20.3834 67.5825 19.1148V9.30059C67.5778 9.1361 67.6077 8.97247 67.6704 8.82031C67.733 8.66814 67.8269 8.53084 67.946 8.41731C68.0674 8.29857 68.2113 8.20526 68.3692 8.14285C68.5271 8.08043 68.696 8.05018 68.8657 8.05385C69.0257 8.05399 69.184 8.08623 69.3313 8.14866C69.4786 8.21109 69.6119 8.30245 69.7232 8.41731C69.841 8.52878 69.9342 8.66365 69.9968 8.81326C70.0594 8.96287 70.09 9.12392 70.0867 9.28607V19.1003C70.0736 19.9382 70.2857 20.7642 70.701 21.492C71.0857 22.1702 71.6433 22.7344 72.3169 23.1271C72.9905 23.5198 73.7561 23.7269 74.5358 23.7275C75.3327 23.7332 76.1172 23.5302 76.8113 23.1387C77.5116 22.7517 78.0943 22.1828 78.4979 21.492C78.9199 20.7665 79.136 19.9396 79.1231 19.1003V9.28607C79.1113 8.96388 79.2202 8.6489 79.4285 8.40279C79.5345 8.28404 79.6653 8.18997 79.8116 8.12718C79.9579 8.06439 80.1162 8.0344 80.2754 8.03933C80.4334 8.03565 80.5905 8.06583 80.7359 8.12785C80.8814 8.18987 81.0119 8.2823 81.1187 8.39892L81.119 8.39912ZM100.795 24.1381C100.948 24.3491 101.028 24.6043 101.024 24.8651C101.03 25.0276 101.001 25.1897 100.938 25.3398C100.876 25.4899 100.781 25.6244 100.66 25.7338C100.435 25.9465 100.137 26.0648 99.8279 26.0646C99.6323 26.072 99.438 26.0291 99.2637 25.94C99.0893 25.8509 98.9407 25.7186 98.8321 25.5557L93.8632 18.922L89.007 25.5448C88.8993 25.7104 88.7517 25.8462 88.5776 25.9397C88.4035 26.0331 88.2087 26.081 88.0112 26.0791C87.8659 26.0823 87.7216 26.0555 87.5872 26.0005C87.4527 25.9455 87.3311 25.8634 87.2298 25.7593C87.1293 25.6666 87.049 25.5543 86.9939 25.4292C86.9389 25.3041 86.9103 25.1689 86.9099 25.0323C86.9155 24.7245 87.0243 24.4275 87.2189 24.189L92.4606 17.0537L87.1937 9.97288C87.0292 9.76599 86.9384 9.51017 86.9356 9.24589C86.9322 9.08374 86.9628 8.92269 87.0254 8.77307C87.088 8.62346 87.1812 8.48859 87.299 8.37713C87.4104 8.2623 87.5437 8.17096 87.691 8.10853C87.8382 8.04611 87.9966 8.01385 88.1565 8.01367C88.3471 8.01462 88.5349 8.05939 88.7054 8.14451C88.8856 8.22993 89.0399 8.36163 89.1525 8.52616L94.0633 15.1232L98.9268 8.5913C99.0326 8.42747 99.1757 8.29102 99.3444 8.1931C99.5131 8.09519 99.7026 8.03858 99.8973 8.02792C100.05 8.02873 100.2 8.0615 100.339 8.1241C100.478 8.18671 100.603 8.27776 100.704 8.39138C100.815 8.49011 100.904 8.61031 100.966 8.74466C101.029 8.87901 101.063 9.02469 101.068 9.17279C101.059 9.4354 100.97 9.68908 100.813 9.89972L95.4769 17.003L100.795 24.1381ZM119.242 8.39912C119.361 8.50749 119.455 8.64025 119.517 8.78832C119.58 8.9364 119.61 9.09628 119.605 9.25702C119.61 9.41555 119.58 9.57314 119.517 9.71878C119.454 9.86442 119.36 9.9946 119.242 10.1003C118.996 10.3085 118.681 10.4174 118.359 10.4056H113.808V24.7528C113.811 24.9149 113.78 25.0759 113.718 25.2255C113.655 25.375 113.562 25.5099 113.444 25.6215C113.187 25.8509 112.855 25.9777 112.51 25.9777C112.166 25.9777 111.833 25.8509 111.576 25.6215C111.459 25.5095 111.366 25.3746 111.304 25.2251C111.241 25.0756 111.21 24.9148 111.212 24.7528V10.4056H106.672C106.349 10.4179 106.034 10.3045 105.793 10.0894C105.677 9.97945 105.587 9.84602 105.527 9.69811C105.468 9.55019 105.44 9.39122 105.447 9.23192C105.442 9.07657 105.471 8.92192 105.53 8.77835C105.59 8.63477 105.679 8.50559 105.793 8.39947C106.034 8.18432 106.349 8.07099 106.672 8.08324H118.359C118.683 8.07146 118.999 8.18453 119.242 8.39912Z" fill="white"/>
<path d="M124.84 25.5197C124.012 25.051 123.323 24.3712 122.844 23.5497C122.702 23.3465 122.621 23.1068 122.611 22.859C122.611 22.7006 122.646 22.5441 122.712 22.4003C122.779 22.2566 122.876 22.129 122.997 22.0266C123.205 21.8088 123.488 21.6788 123.789 21.6631C124.015 21.6842 124.234 21.752 124.432 21.8621C124.631 21.9722 124.804 22.1223 124.941 22.3029C125.221 22.7623 125.615 23.1409 126.085 23.401C126.556 23.6611 127.086 23.7938 127.624 23.7859C128.063 23.7962 128.5 23.7178 128.909 23.5554C129.317 23.393 129.689 23.15 130.001 22.8409C130.316 22.5422 130.566 22.181 130.733 21.7804C130.901 21.3799 130.984 20.9487 130.975 20.5145V9.30792C130.973 9.14429 131.006 8.98214 131.072 8.83232C131.138 8.68251 131.235 8.54848 131.357 8.43924C131.595 8.20461 131.917 8.0739 132.251 8.07571C132.418 8.06757 132.585 8.09404 132.742 8.15347C132.898 8.21289 133.04 8.30399 133.16 8.42105C133.274 8.53653 133.364 8.67408 133.423 8.82531C133.482 8.97654 133.51 9.13828 133.505 9.30066V20.5326C133.515 21.5393 133.25 22.5296 132.738 23.3968C132.231 24.2611 131.504 24.975 130.63 25.4651C129.714 25.9838 128.676 26.2498 127.624 26.2357C126.649 26.246 125.689 25.999 124.84 25.5197ZM142.418 25.7087C141.405 25.3241 140.476 24.7477 139.681 24.0111C139.519 23.887 139.387 23.7282 139.295 23.5464C139.202 23.3647 139.152 23.1645 139.146 22.9606C139.148 22.8052 139.182 22.6517 139.244 22.5093C139.307 22.367 139.397 22.2386 139.51 22.1319C139.618 22.016 139.748 21.9239 139.893 21.8613C140.039 21.7987 140.195 21.7671 140.353 21.7684C140.623 21.7647 140.883 21.865 141.08 22.0483C141.694 22.6345 142.408 23.106 143.189 23.4405C143.973 23.7525 144.812 23.9057 145.657 23.8912C146.618 23.9216 147.567 23.662 148.379 23.146C148.711 22.9594 148.989 22.6891 149.184 22.362C149.379 22.0348 149.485 21.6622 149.491 21.2813C149.498 20.8719 149.399 20.4677 149.204 20.1074C149.009 19.7472 148.725 19.443 148.379 19.2239C147.358 18.6244 146.238 18.2132 145.072 18.0099C143.592 17.7729 142.197 17.1652 141.015 16.2434C140.539 15.8196 140.164 15.294 139.919 14.7057C139.673 14.1173 139.564 13.4813 139.597 12.8447C139.578 11.8946 139.857 10.9624 140.397 10.1803C140.946 9.40406 141.702 8.79711 142.578 8.42831C143.581 8.00546 144.66 7.79625 145.748 7.81403C146.767 7.80754 147.78 7.98103 148.739 8.32652C149.585 8.61192 150.361 9.07411 151.014 9.68238C151.187 9.80951 151.329 9.97319 151.431 10.1617C151.533 10.3502 151.592 10.5589 151.603 10.7728C151.603 10.9253 151.573 11.0762 151.513 11.2167C151.454 11.3572 151.367 11.4843 151.258 11.5907C151.153 11.7075 151.025 11.8005 150.881 11.8632C150.738 11.9259 150.582 11.957 150.426 11.9542C150.211 11.9623 150.002 11.8881 149.84 11.7467C149.31 11.2493 148.683 10.8669 147.997 10.6235C147.288 10.3374 146.531 10.187 145.766 10.1801C144.807 10.1308 143.857 10.3771 143.043 10.8854C142.732 11.0916 142.477 11.3716 142.3 11.7005C142.123 12.0294 142.031 12.3968 142.031 12.7701C142.031 13.1434 142.123 13.5109 142.3 13.8397C142.477 14.1686 142.732 14.4486 143.043 14.6548C143.974 15.1979 144.991 15.5791 146.049 15.782C147.173 16.0033 148.27 16.3457 149.321 16.8034C150.113 17.1539 150.791 17.7209 151.276 18.4391C151.768 19.2648 152.006 20.2163 151.963 21.1762C151.977 22.1197 151.687 23.0427 151.134 23.8079C150.553 24.5969 149.771 25.2157 148.87 25.5999C147.879 26.0335 146.807 26.2515 145.726 26.2396C144.6 26.2604 143.48 26.0807 142.418 25.7087Z" fill="white" fill-opacity="0.26"/>
<path d="M10.6052 25.7667C10.5793 25.7209 10.5562 25.6736 10.536 25.625C10.3966 25.3024 10.3537 24.9464 10.4124 24.5999H2.16491L14.4218 3.03038L18.4457 10.1039L19.6125 8.03932L16.1048 1.85992C15.9367 1.54339 15.6919 1.27408 15.3928 1.0766C15.0937 0.879117 14.7499 0.759777 14.3927 0.729492C14.0365 0.745805 13.6919 0.861761 13.3982 1.06418C13.1046 1.26659 12.8736 1.54734 12.7316 1.87451L0.314752 23.7057C0.129118 24.014 0.0220845 24.3632 0.00306859 24.7225C-0.0159473 25.0818 0.0536368 25.4403 0.205699 25.7665C0.396702 26.0676 0.668144 26.3092 0.989327 26.4641C1.31051 26.6189 1.66862 26.6808 2.02315 26.6427H12.4226C12.068 26.6814 11.7097 26.6198 11.3885 26.465C11.0672 26.3101 10.7958 26.0682 10.6052 25.7667Z" fill="white" fill-opacity="0.58"/>
<path d="M34.5154 23.706L24.3123 5.73137C24.1449 5.41148 23.8997 5.13889 23.5992 4.93878C23.2987 4.73868 22.9526 4.6175 22.593 4.58643C22.2369 4.60178 21.8923 4.71693 21.5986 4.91875C21.3049 5.12057 21.0738 5.40091 20.9318 5.72778L19.6123 8.03959L20.7864 10.1042L22.6035 6.88731L32.698 24.6002H28.8595C28.9086 24.893 28.8811 25.1936 28.7796 25.4726C28.7582 25.5342 28.7314 25.5938 28.6995 25.6507L28.6668 25.7161C28.4583 26.0106 28.1803 26.2492 27.8577 26.4108C27.535 26.5725 27.1775 26.6521 26.8167 26.6427H32.8215C33.1824 26.6525 33.54 26.573 33.8628 26.4113C34.1855 26.2497 34.4634 26.0109 34.6717 25.7161C34.8362 25.3999 34.9087 25.044 34.8811 24.6887C34.8534 24.3334 34.7268 23.993 34.5154 23.706Z" fill="white" fill-opacity="0.51"/>
<path d="M28.6668 25.7156L28.6995 25.6502C28.7313 25.5933 28.7581 25.5337 28.7795 25.472C28.881 25.193 28.9086 24.8925 28.8594 24.5997C28.8029 24.2839 28.6896 23.9809 28.525 23.7055L20.7938 10.1037L19.6125 8.03906L18.4384 10.1037L10.7106 23.7058C10.5606 23.9845 10.4598 24.287 10.4125 24.6C10.3504 24.9454 10.3895 25.3014 10.5253 25.6251C10.5454 25.6737 10.5685 25.721 10.5944 25.7668C10.7855 26.0679 11.0569 26.3095 11.3781 26.4643C11.6993 26.6191 12.0574 26.6809 12.4119 26.6428H26.8057C27.1683 26.6535 27.5279 26.5744 27.8526 26.4126C28.1772 26.2509 28.4569 26.0114 28.6668 25.7156ZM19.6122 12.1683L26.6785 24.5997H12.5496L19.6122 12.1683Z" fill="white"/>
</svg>
