<svg width="118" height="45" viewBox="0 0 118 45" fill="none" xmlns="http://www.w3.org/2000/svg">
<path d="M30.5895 13.3942L27.4598 16.5452C32.6759 21.7968 32.6759 30.3495 27.4598 35.6012C22.2436 40.8529 13.7487 40.8529 8.5325 35.6012C3.31632 30.3495 3.31632 21.7968 8.5325 16.5452L16.8784 8.14251L17.9216 6.94213V0.640137L5.25376 13.3942C3.58923 15.0531 2.26788 17.0278 1.3661 19.2041C0.464316 21.3804 0 23.7151 0 26.0732C0 28.4313 0.464316 30.766 1.3661 32.9422C2.26788 35.1185 3.58923 37.0933 5.25376 38.7522C6.90149 40.428 8.86286 41.7584 11.0244 42.6663C13.186 43.5742 15.5049 44.0417 17.8471 44.0417C20.1892 44.0417 22.5082 43.5742 24.6697 42.6663C26.8313 41.7584 28.7927 40.428 30.4404 38.7522C37.5941 31.7 37.5941 20.2964 30.5895 13.3942Z" fill="white" fill-opacity="0.66"/>
<path d="M24.3298 12.4939C25.6468 12.4939 26.7144 11.419 26.7144 10.0931C26.7144 8.76724 25.6468 7.69238 24.3298 7.69238C23.0129 7.69238 21.9453 8.76724 21.9453 10.0931C21.9453 11.419 23.0129 12.4939 24.3298 12.4939Z" fill="white" fill-opacity="0.66"/>
<path d="M48.7447 23.1651H46.6006V28.6382H45V13.102H48.913C53.0639 13.102 55.0204 15.1023 55.0204 17.9963C55.0204 21.4096 52.589 23.1162 48.735 23.1747L48.7447 23.1651ZM48.8519 14.5735H46.5491V21.6947L48.8026 21.6362C51.7678 21.5777 53.3695 20.3999 53.3695 17.9868C53.3695 15.8099 51.8279 14.5735 48.8626 14.5735H48.8519ZM62.2653 28.5787L61.3166 31.0503C60.2488 33.8166 59.1725 34.6401 57.5805 34.6401C56.6907 34.6401 56.0389 34.4061 55.327 34.1103L55.8009 32.6984C56.3348 32.9931 56.9265 33.1687 57.5805 33.1687C58.4703 33.1687 59.1221 32.6984 59.9518 30.5087L60.7237 28.5084L56.2769 17.2686H57.9385L61.5556 26.6848L65.1148 17.2686H66.7154L62.2653 28.5787ZM72.0478 14.632V28.6978H70.4472V14.632H64.9326V13.102H77.5613V14.5735H72.0467L72.0478 14.632ZM82.0682 28.9904C78.866 28.9904 76.4935 26.6369 76.4935 22.9875C76.4935 19.338 78.9249 16.926 82.1754 16.926C85.3776 16.926 87.69 19.2795 87.69 22.9289C87.69 26.5784 85.2586 28.9904 82.0564 28.9904H82.0682ZM82.1272 18.3506C79.6957 18.3506 78.0963 20.2924 78.0963 22.9406C78.0963 25.707 79.7579 27.5902 82.1872 27.5902C84.6164 27.5902 86.2181 25.6485 86.2181 23.0002C86.2181 20.2339 84.5564 18.3506 82.1272 18.3506ZM91.6748 28.6968H90.1332V17.2803L91.6748 16.9856V19.3987C92.4467 17.9272 93.5723 16.9856 95.055 16.9856C95.761 16.9913 96.4541 17.1736 97.0704 17.5154L96.6566 18.9858C96.1828 18.6911 95.531 18.5156 94.877 18.5156C93.6913 18.5156 92.5646 19.3987 91.6158 21.4585V28.6968H91.6748ZM103.178 28.9904C99.7387 28.9904 97.5443 26.5188 97.5443 22.9875C97.5443 19.3976 99.9156 16.926 103.178 16.926C104.6 16.926 105.787 17.2792 106.795 17.9261L106.38 19.338C105.49 18.7496 104.424 18.3964 103.178 18.3964C100.688 18.3964 99.147 20.2211 99.147 22.9289C99.147 25.6953 100.809 27.5189 103.238 27.5189C104.374 27.5137 105.485 27.1871 106.44 26.5773L106.737 27.9892C105.729 28.6361 104.484 28.9894 103.178 28.9894V28.9904ZM116.401 28.6968V21.3404C116.401 19.3401 115.571 18.4677 113.969 18.4677C112.664 18.4677 111.36 19.1146 110.41 20.1168V28.767H108.868V11.9349L110.41 11.6401V18.8199C111.596 17.6431 113.137 16.9951 114.383 16.9951C116.636 16.9951 118 18.407 118 20.8787V28.7053L116.401 28.6968Z" fill="white"/>
</svg>
