<svg width="166" height="38" viewBox="0 0 166 38" fill="none" xmlns="http://www.w3.org/2000/svg">
<path d="M21.3455 22.8077C23.4418 22.8077 25.1412 21.1083 25.1412 19.012C25.1412 16.9157 23.4418 15.2163 21.3455 15.2163C19.2492 15.2163 17.5498 16.9157 17.5498 19.012C17.5498 21.1083 19.2492 22.8077 21.3455 22.8077Z" fill="white"/>
<path fill-rule="evenodd" clip-rule="evenodd" d="M21.3462 11.2944C26.4424 11.2944 31.1767 12.0257 34.7463 13.2546C39.0473 14.7353 41.6916 16.9796 41.6916 19.0119C41.6916 21.1297 38.8891 23.514 34.2705 25.0443C30.7787 26.2011 26.1838 26.8051 21.3462 26.8051C16.3862 26.8051 11.6895 26.2382 8.15834 25.0315C3.69083 23.5045 1 21.0894 1 19.0119C1 16.9961 3.52483 14.7691 7.76528 13.2907C11.3482 12.0415 16.1994 11.2944 21.3455 11.2944H21.3462Z" stroke="white" stroke-width="1.66272"/>
<path fill-rule="evenodd" clip-rule="evenodd" d="M14.6283 15.1757C17.1743 10.761 20.1728 7.02511 23.0207 4.54674C26.4519 1.56068 29.7172 0.391255 31.4777 1.40641C33.3123 2.46438 33.9777 6.08335 32.996 10.8487C32.2545 14.4515 30.4814 18.7335 28.0646 22.9243C25.5867 27.2209 22.7494 31.0064 19.9403 33.4618C16.3858 36.5691 12.9492 37.6935 11.1496 36.6557C9.40333 35.6494 8.73554 32.349 9.57326 27.937C10.2811 24.2091 12.0574 19.6335 14.6275 15.1756L14.6283 15.1757Z" stroke="white" stroke-width="1.66272"/>
<path fill-rule="evenodd" clip-rule="evenodd" d="M14.6338 22.9353C12.0806 18.5256 10.3423 14.0612 9.61666 10.3562C8.74322 5.8922 9.36077 2.47911 11.1196 1.461C12.9524 0.399926 16.4201 1.63079 20.0583 4.86123C22.809 7.30359 25.6336 10.9775 28.0574 15.1643C30.5425 19.4568 32.4049 23.8056 33.1295 27.4655C34.0463 32.097 33.3043 35.6357 31.5063 36.6765C29.7618 37.6865 26.5694 36.6172 23.1654 33.6879C20.2893 31.213 17.2122 27.3889 14.6338 22.9353V22.9353Z" stroke="white" stroke-width="1.66272"/>
<path d="M51.3314 27.0479V12.9479H57.1714C58.6914 12.9479 59.8647 13.3145 60.6914 14.0479C61.5181 14.7679 61.9314 15.7812 61.9314 17.0879C61.9314 18.1412 61.6514 19.0079 61.0914 19.6879C60.5314 20.3545 59.7381 20.8012 58.7114 21.0279C59.3514 21.2412 59.8914 21.7545 60.3314 22.5679L62.7714 27.0479H60.4914L58.0514 22.5479C57.7714 22.0279 57.4447 21.6812 57.0714 21.5079C56.7114 21.3212 56.2447 21.2279 55.6714 21.2279H53.4114V27.0479H51.3314ZM53.4114 19.6679H56.8314C58.8847 19.6679 59.9114 18.8212 59.9114 17.1279C59.9114 15.4479 58.8847 14.6079 56.8314 14.6079H53.4114V19.6679ZM68.9922 27.2279C67.3922 27.2279 66.1322 26.7812 65.2122 25.8879C64.2922 24.9812 63.8322 23.7479 63.8322 22.1879C63.8322 21.1879 64.0322 20.3079 64.4322 19.5479C64.8455 18.7745 65.4122 18.1745 66.1322 17.7479C66.8522 17.3212 67.6789 17.1079 68.6122 17.1079C69.9589 17.1079 71.0189 17.5412 71.7922 18.4079C72.5655 19.2612 72.9522 20.4412 72.9522 21.9479V22.6279H65.7922C65.9389 24.6545 67.0122 25.6679 69.0122 25.6679C69.5722 25.6679 70.1189 25.5812 70.6522 25.4079C71.1989 25.2345 71.7122 24.9479 72.1922 24.5479L72.7922 25.9479C72.3522 26.3479 71.7855 26.6612 71.0922 26.8879C70.3989 27.1145 69.6989 27.2279 68.9922 27.2279ZM68.6922 18.5279C67.8522 18.5279 67.1855 18.7879 66.6922 19.3079C66.1989 19.8279 65.8989 20.5212 65.7922 21.3879H71.2522C71.2122 20.4812 70.9722 19.7812 70.5322 19.2879C70.0922 18.7812 69.4789 18.5279 68.6922 18.5279ZM78.2744 27.2279C77.5944 27.2279 76.9877 27.0945 76.4544 26.8279C75.921 26.5612 75.4944 26.2012 75.1744 25.7479C74.8677 25.2945 74.7144 24.7812 74.7144 24.2079C74.7144 23.4879 74.8944 22.9212 75.2544 22.5079C75.6277 22.0945 76.2344 21.7945 77.0744 21.6079C77.9277 21.4212 79.0744 21.3279 80.5144 21.3279H81.1944V20.8079C81.1944 20.0479 81.0344 19.5012 80.7144 19.1679C80.3944 18.8345 79.8677 18.6679 79.1344 18.6679C78.5744 18.6679 78.0144 18.7545 77.4544 18.9279C76.8944 19.0879 76.321 19.3479 75.7344 19.7079L75.1144 18.2879C75.621 17.9279 76.2544 17.6412 77.0144 17.4279C77.7744 17.2145 78.501 17.1079 79.1944 17.1079C80.5277 17.1079 81.5144 17.4279 82.1544 18.0679C82.7944 18.6945 83.1144 19.6812 83.1144 21.0279V27.0479H81.2144V25.4279C80.9744 25.9879 80.601 26.4279 80.0944 26.7479C79.5877 27.0679 78.981 27.2279 78.2744 27.2279ZM78.6744 25.7879C79.3944 25.7879 79.9944 25.5345 80.4744 25.0279C80.9544 24.5212 81.1944 23.8812 81.1944 23.1079V22.5679H80.5344C79.561 22.5679 78.7944 22.6145 78.2344 22.7079C77.6877 22.8012 77.2944 22.9612 77.0544 23.1879C76.8277 23.4012 76.7144 23.7012 76.7144 24.0879C76.7144 24.5945 76.8877 25.0079 77.2344 25.3279C77.581 25.6345 78.061 25.7879 78.6744 25.7879ZM90.1966 27.2279C89.1966 27.2279 88.3299 27.0212 87.5966 26.6079C86.8766 26.1812 86.3166 25.5879 85.9166 24.8279C85.5166 24.0545 85.3166 23.1479 85.3166 22.1079C85.3166 20.5612 85.7566 19.3412 86.6366 18.4479C87.5166 17.5545 88.7032 17.1079 90.1966 17.1079C90.8099 17.1079 91.4166 17.2145 92.0166 17.4279C92.6166 17.6412 93.1099 17.9345 93.4966 18.3079L92.8566 19.7279C92.4832 19.3812 92.0699 19.1279 91.6166 18.9679C91.1766 18.7945 90.7566 18.7079 90.3566 18.7079C89.4099 18.7079 88.6766 19.0079 88.1566 19.6079C87.6499 20.1945 87.3966 21.0345 87.3966 22.1279C87.3966 23.2212 87.6499 24.0812 88.1566 24.7079C88.6766 25.3212 89.4099 25.6279 90.3566 25.6279C90.7566 25.6279 91.1766 25.5479 91.6166 25.3879C92.0699 25.2145 92.4832 24.9545 92.8566 24.6079L93.4966 26.0479C93.1099 26.4079 92.6099 26.6945 91.9966 26.9079C91.3966 27.1212 90.7966 27.2279 90.1966 27.2279ZM99.412 27.2279C98.1854 27.2279 97.272 26.9145 96.672 26.2879C96.072 25.6612 95.772 24.7545 95.772 23.5679V18.8479H93.872V17.2879H95.772V14.3479H97.792V17.2879H100.812V18.8479H97.792V23.4079C97.792 24.1145 97.9387 24.6479 98.232 25.0079C98.5387 25.3679 99.032 25.5479 99.712 25.5479C99.9254 25.5479 100.132 25.5279 100.332 25.4879C100.532 25.4345 100.732 25.3745 100.932 25.3079L101.252 26.8279C101.052 26.9479 100.772 27.0412 100.412 27.1079C100.065 27.1879 99.732 27.2279 99.412 27.2279ZM108.031 27.0479V12.9479H109.611L117.691 23.6079V12.9479H119.611V27.0479H118.071L109.951 16.3479V27.0479H108.031ZM125.794 27.2279C125.114 27.2279 124.507 27.0945 123.974 26.8279C123.441 26.5612 123.014 26.2012 122.694 25.7479C122.387 25.2945 122.234 24.7812 122.234 24.2079C122.234 23.4879 122.414 22.9212 122.774 22.5079C123.147 22.0945 123.754 21.7945 124.594 21.6079C125.447 21.4212 126.594 21.3279 128.034 21.3279H128.714V20.8079C128.714 20.0479 128.554 19.5012 128.234 19.1679C127.914 18.8345 127.387 18.6679 126.654 18.6679C126.094 18.6679 125.534 18.7545 124.974 18.9279C124.414 19.0879 123.841 19.3479 123.254 19.7079L122.634 18.2879C123.141 17.9279 123.774 17.6412 124.534 17.4279C125.294 17.2145 126.021 17.1079 126.714 17.1079C128.047 17.1079 129.034 17.4279 129.674 18.0679C130.314 18.6945 130.634 19.6812 130.634 21.0279V27.0479H128.734V25.4279C128.494 25.9879 128.121 26.4279 127.614 26.7479C127.107 27.0679 126.501 27.2279 125.794 27.2279ZM126.194 25.7879C126.914 25.7879 127.514 25.5345 127.994 25.0279C128.474 24.5212 128.714 23.8812 128.714 23.1079V22.5679H128.054C127.081 22.5679 126.314 22.6145 125.754 22.7079C125.207 22.8012 124.814 22.9612 124.574 23.1879C124.347 23.4012 124.234 23.7012 124.234 24.0879C124.234 24.5945 124.407 25.0079 124.754 25.3279C125.101 25.6345 125.581 25.7879 126.194 25.7879ZM137.576 27.2279C136.349 27.2279 135.436 26.9145 134.836 26.2879C134.236 25.6612 133.936 24.7545 133.936 23.5679V18.8479H132.036V17.2879H133.936V14.3479H135.956V17.2879H138.976V18.8479H135.956V23.4079C135.956 24.1145 136.103 24.6479 136.396 25.0079C136.703 25.3679 137.196 25.5479 137.876 25.5479C138.089 25.5479 138.296 25.5279 138.496 25.4879C138.696 25.4345 138.896 25.3745 139.096 25.3079L139.416 26.8279C139.216 26.9479 138.936 27.0412 138.576 27.1079C138.229 27.1879 137.896 27.2279 137.576 27.2279ZM140.541 15.0279V12.9279H142.901V15.0279H140.541ZM140.721 27.0479V17.2879H142.741V27.0479H140.721ZM148.444 27.0479L144.244 17.2879H146.424L149.404 24.7079L152.464 17.2879H154.524L150.264 27.0479H148.444ZM160.379 27.2279C158.779 27.2279 157.519 26.7812 156.599 25.8879C155.679 24.9812 155.219 23.7479 155.219 22.1879C155.219 21.1879 155.419 20.3079 155.819 19.5479C156.232 18.7745 156.799 18.1745 157.519 17.7479C158.239 17.3212 159.066 17.1079 159.999 17.1079C161.346 17.1079 162.406 17.5412 163.179 18.4079C163.952 19.2612 164.339 20.4412 164.339 21.9479V22.6279H157.179C157.326 24.6545 158.399 25.6679 160.399 25.6679C160.959 25.6679 161.506 25.5812 162.039 25.4079C162.586 25.2345 163.099 24.9479 163.579 24.5479L164.179 25.9479C163.739 26.3479 163.172 26.6612 162.479 26.8879C161.786 27.1145 161.086 27.2279 160.379 27.2279ZM160.079 18.5279C159.239 18.5279 158.572 18.7879 158.079 19.3079C157.586 19.8279 157.286 20.5212 157.179 21.3879H162.639C162.599 20.4812 162.359 19.7812 161.919 19.2879C161.479 18.7812 160.866 18.5279 160.079 18.5279Z" fill="white"/>
</svg>
