<svg width="154" height="52" viewBox="0 0 154 52" fill="none" xmlns="http://www.w3.org/2000/svg">
<path d="M28.9832 30.9282C31.8664 30.9282 34.2036 28.591 34.2036 25.7078C34.2036 22.8246 31.8664 20.4873 28.9832 20.4873C26.1 20.4873 23.7627 22.8246 23.7627 25.7078C23.7627 28.591 26.1 30.9282 28.9832 30.9282Z" fill="white"/>
<path fill-rule="evenodd" clip-rule="evenodd" d="M28.9833 15.0933C35.9925 15.0933 42.5038 16.099 47.4134 17.7892C53.3287 19.8257 56.9656 22.9125 56.9656 25.7076C56.9656 28.6203 53.1112 31.8996 46.7589 34.0042C41.9565 35.5953 35.6368 36.4259 28.9833 36.4259C22.1616 36.4259 15.7019 35.6463 10.8453 33.9867C4.70086 31.8866 1 28.5648 1 25.7076C1 22.9352 4.47254 19.8722 10.3047 17.8388C15.2325 16.1208 21.9047 15.0933 28.9823 15.0933H28.9833Z" stroke="white" stroke-width="1.66272"/>
<path fill-rule="evenodd" clip-rule="evenodd" d="M19.7436 20.4308C23.2453 14.359 27.3693 9.22088 31.2862 5.81223C36.0054 1.70532 40.4964 0.096943 42.9176 1.49314C45.4409 2.94824 46.356 7.92562 45.0058 14.4796C43.986 19.4349 41.5474 25.3241 38.2235 31.0879C34.8155 36.9974 30.9131 42.2038 27.0496 45.5808C22.1608 49.8544 17.4343 51.401 14.9592 49.9736C12.5574 48.5896 11.639 44.0504 12.7912 37.9822C13.7647 32.8551 16.2077 26.562 19.7425 20.4307L19.7436 20.4308Z" stroke="white" stroke-width="1.66272"/>
<path fill-rule="evenodd" clip-rule="evenodd" d="M19.7524 31.1029C16.2409 25.038 13.85 18.8978 12.8521 13.8021C11.6508 7.66246 12.5001 2.96823 14.9192 1.56797C17.44 0.108611 22.2092 1.80149 27.213 6.24451C30.9963 9.60363 34.8811 14.6566 38.2148 20.4149C41.6326 26.3187 44.1942 32.2998 45.1907 37.3335C46.4516 43.7034 45.431 48.5705 42.9582 50.002C40.5589 51.391 36.1682 49.9204 31.4864 45.8916C27.5307 42.4877 23.2986 37.2281 19.7524 31.1028V31.1029Z" stroke="white" stroke-width="1.66272"/>
<path fill-rule="evenodd" clip-rule="evenodd" d="M87.1422 38.5745L80.7655 28.9668C83.9883 28.6831 86.8922 26.3544 86.8922 22.0998C86.8922 17.7707 83.8116 15 79.4902 15H70V38.5566H72.9399V29.1967H77.6505L83.6709 38.5566L87.1422 38.5745ZM79.1384 26.6365H72.9414V17.6303H79.1384C81.9376 17.6303 83.8491 19.4665 83.8491 22.1163C83.8491 24.766 81.9361 26.6395 79.1384 26.6395V26.6365ZM98.0858 38.997C100.885 38.997 103.186 38.0789 104.886 36.3846L103.611 34.6529C102.264 36.0308 100.282 36.8071 98.3343 36.8071C94.652 36.8071 92.3842 34.123 92.1717 30.9104H106.018V30.2387C106.018 25.1183 102.972 21.0907 97.7999 21.0907C92.9126 21.0907 89.3725 25.0825 89.3725 30.0267C89.3725 35.3605 93.0204 38.9836 98.0843 38.9836L98.0858 38.997ZM103.4 28.9653H92.1732C92.3154 26.3529 94.1191 23.2777 97.7685 23.2777C101.665 23.2777 103.364 26.4215 103.4 28.9653ZM123.658 38.5731V26.847C123.658 22.7149 120.65 21.0892 117.036 21.0892C114.237 21.0892 112.043 22.0073 110.202 23.9151L111.441 25.7513C112.963 24.1271 114.629 23.3851 116.683 23.3851C119.162 23.3851 121.004 24.6914 121.004 26.9873V30.0595C119.623 28.4697 117.675 27.7277 115.337 27.7277C112.433 27.7277 109.35 29.5296 109.35 33.3437C109.35 37.0519 112.43 38.9955 115.337 38.9955C117.639 38.9955 119.588 38.1834 121.004 36.6294V38.5701L123.658 38.5731ZM116.294 37.0892C113.815 37.0892 112.079 35.5367 112.079 33.381C112.079 31.1911 113.815 29.6371 116.294 29.6371C118.171 29.6371 119.976 30.3432 121.004 31.7569V34.9709C119.978 36.3831 118.171 37.0907 116.294 37.0907V37.0892ZM136.502 38.997C139.618 38.997 141.459 37.7251 142.77 36.0308L141 34.4066C139.867 35.9248 138.415 36.6309 136.659 36.6309C133.011 36.6309 130.746 33.805 130.746 30.0267C130.746 26.2484 133.012 23.4583 136.659 23.4583C138.43 23.4583 139.881 24.1301 141 25.6826L142.77 24.0584C141.461 22.3626 139.618 21.0922 136.502 21.0922C131.402 21.0922 127.966 24.978 127.966 30.0282C127.966 35.1142 131.402 38.9851 136.502 38.9851V38.997ZM150.812 38.997C152.368 38.997 153.326 38.5372 154 37.9028L153.222 35.9248C152.867 36.3129 152.174 36.6309 151.415 36.6309C150.247 36.6309 149.679 35.7128 149.679 34.4409V23.8449H153.151V21.5146H149.679V16.8526H147.022V21.5146H144.188V23.8464H147.022V35.0082C147.022 37.552 148.297 39 150.812 39V38.997Z" fill="white"/>
</svg>
