<svg width="157" height="38" viewBox="0 0 157 38" fill="none" xmlns="http://www.w3.org/2000/svg">
<path d="M22.4533 4.15594C24.1976 2.34016 26.6285 1.19152 29.3073 1.19152C32.8794 1.19152 35.975 3.19549 37.6366 6.15906C39.0705 5.51227 40.6689 5.15708 42.3601 5.15708C48.7991 5.15708 54 10.4383 54 16.9512C54 23.4641 48.7696 28.7461 42.3424 28.7461C41.575 28.7452 40.8097 28.6682 40.0574 28.5164C38.6032 31.1256 35.8206 32.899 32.6213 32.899C31.292 32.899 30.0251 32.5854 28.9033 32.0513C27.4289 35.5371 23.9808 38.0005 19.9709 38.0005C15.7957 38.0005 12.2236 35.3497 10.8614 31.613C10.2531 31.7387 9.63359 31.8017 9.01253 31.8012C4.02929 31.7936 2.43765e-05 27.7034 2.43765e-05 22.6299C-0.00366083 21.0273 0.41056 19.4516 1.20142 18.0599C1.99228 16.6682 3.13217 15.5091 4.50754 14.698C3.94663 13.4247 3.63539 12.0048 3.63539 10.5018C3.61431 4.71966 8.32932 0.000501022 14.1029 0.000501022C15.7192 -0.00202697 17.3142 0.371679 18.7628 1.09233C20.2114 1.81298 21.4743 2.861 22.4524 4.15425" fill="white"/>
<path d="M68.34 25.1805C67.2333 25.1805 66.22 25.0405 65.3 24.7605C64.38 24.4672 63.6 24.0605 62.96 23.5405L63.62 21.9005C64.2867 22.4072 65 22.7872 65.76 23.0405C66.52 23.2938 67.38 23.4205 68.34 23.4205C69.4733 23.4205 70.3067 23.2205 70.84 22.8205C71.3867 22.4072 71.66 21.8738 71.66 21.2205C71.66 20.6872 71.4667 20.2672 71.08 19.9605C70.6933 19.6405 70.0467 19.3872 69.14 19.2005L67 18.7605C65.7333 18.4938 64.7867 18.0538 64.16 17.4405C63.5467 16.8272 63.24 16.0005 63.24 14.9605C63.24 14.1205 63.46 13.3805 63.9 12.7405C64.3533 12.1005 64.98 11.6072 65.78 11.2605C66.58 10.9005 67.5 10.7205 68.54 10.7205C69.5 10.7205 70.3867 10.8672 71.2 11.1605C72.0267 11.4405 72.7267 11.8538 73.3 12.4005L72.62 13.9805C71.4867 12.9805 70.12 12.4805 68.52 12.4805C67.5333 12.4805 66.7467 12.7005 66.16 13.1405C65.5867 13.5805 65.3 14.1672 65.3 14.9005C65.3 15.4605 65.48 15.9072 65.84 16.2405C66.2 16.5738 66.8 16.8272 67.64 17.0005L69.76 17.4405C71.0933 17.7205 72.0867 18.1538 72.74 18.7405C73.3933 19.3138 73.72 20.0938 73.72 21.0805C73.72 21.9072 73.5 22.6272 73.06 23.2405C72.62 23.8538 72 24.3338 71.2 24.6805C70.4 25.0138 69.4467 25.1805 68.34 25.1805ZM78.9814 25.1805C78.3014 25.1805 77.6947 25.0472 77.1614 24.7805C76.6281 24.5138 76.2014 24.1538 75.8814 23.7005C75.5747 23.2472 75.4214 22.7338 75.4214 22.1605C75.4214 21.4405 75.6014 20.8738 75.9614 20.4605C76.3347 20.0472 76.9414 19.7472 77.7814 19.5605C78.6347 19.3738 79.7814 19.2805 81.2214 19.2805H81.9014V18.7605C81.9014 18.0005 81.7414 17.4538 81.4214 17.1205C81.1014 16.7872 80.5747 16.6205 79.8414 16.6205C79.2814 16.6205 78.7214 16.7072 78.1614 16.8805C77.6014 17.0405 77.0281 17.3005 76.4414 17.6605L75.8214 16.2405C76.3281 15.8805 76.9614 15.5938 77.7214 15.3805C78.4814 15.1672 79.2081 15.0605 79.9014 15.0605C81.2347 15.0605 82.2214 15.3805 82.8614 16.0205C83.5014 16.6472 83.8214 17.6338 83.8214 18.9805V25.0005H81.9214V23.3805C81.6814 23.9405 81.3081 24.3805 80.8014 24.7005C80.2947 25.0205 79.6881 25.1805 78.9814 25.1805ZM79.3814 23.7405C80.1014 23.7405 80.7014 23.4872 81.1814 22.9805C81.6614 22.4738 81.9014 21.8338 81.9014 21.0605V20.5205H81.2414C80.2681 20.5205 79.5014 20.5672 78.9414 20.6605C78.3947 20.7538 78.0014 20.9138 77.7614 21.1405C77.5347 21.3538 77.4214 21.6538 77.4214 22.0405C77.4214 22.5472 77.5947 22.9605 77.9414 23.2805C78.2881 23.5872 78.7681 23.7405 79.3814 23.7405ZM89.7836 25.1805C88.7169 25.1805 87.9169 24.8805 87.3836 24.2805C86.8636 23.6805 86.6036 22.8005 86.6036 21.6405V10.9005H88.6236V21.5205C88.6236 22.8405 89.1636 23.5005 90.2436 23.5005C90.4036 23.5005 90.5503 23.4938 90.6836 23.4805C90.8303 23.4672 90.9769 23.4405 91.1236 23.4005L91.0836 25.0205C90.6303 25.1272 90.1969 25.1805 89.7836 25.1805ZM97.1992 25.1805C95.5992 25.1805 94.3392 24.7338 93.4192 23.8405C92.4992 22.9338 92.0392 21.7005 92.0392 20.1405C92.0392 19.1405 92.2392 18.2605 92.6392 17.5005C93.0526 16.7272 93.6192 16.1272 94.3392 15.7005C95.0592 15.2738 95.8859 15.0605 96.8192 15.0605C98.1659 15.0605 99.2259 15.4938 99.9992 16.3605C100.773 17.2138 101.159 18.3938 101.159 19.9005V20.5805H93.9992C94.1459 22.6072 95.2192 23.6205 97.2192 23.6205C97.7792 23.6205 98.3259 23.5338 98.8592 23.3605C99.4059 23.1872 99.9192 22.9005 100.399 22.5005L100.999 23.9005C100.559 24.3005 99.9926 24.6138 99.2992 24.8405C98.6059 25.0672 97.9059 25.1805 97.1992 25.1805ZM96.8992 16.4805C96.0592 16.4805 95.3926 16.7405 94.8992 17.2605C94.4059 17.7805 94.1059 18.4738 93.9992 19.3405H99.4592C99.4192 18.4338 99.1792 17.7338 98.7392 17.2405C98.2992 16.7338 97.6859 16.4805 96.8992 16.4805ZM106.781 25.1805C105.981 25.1805 105.235 25.0805 104.541 24.8805C103.848 24.6672 103.268 24.3738 102.801 24.0005L103.381 22.6405C103.875 22.9872 104.415 23.2538 105.001 23.4405C105.601 23.6272 106.201 23.7205 106.801 23.7205C107.508 23.7205 108.041 23.5938 108.401 23.3405C108.761 23.0872 108.941 22.7472 108.941 22.3205C108.941 21.9738 108.821 21.7072 108.581 21.5205C108.341 21.3205 107.981 21.1672 107.501 21.0605L105.601 20.6805C103.921 20.3338 103.081 19.4672 103.081 18.0805C103.081 17.1605 103.448 16.4272 104.181 15.8805C104.915 15.3338 105.875 15.0605 107.061 15.0605C107.741 15.0605 108.388 15.1605 109.001 15.3605C109.628 15.5605 110.148 15.8605 110.561 16.2605L109.981 17.6205C109.581 17.2738 109.121 17.0072 108.601 16.8205C108.081 16.6338 107.568 16.5405 107.061 16.5405C106.368 16.5405 105.841 16.6738 105.481 16.9405C105.121 17.1938 104.941 17.5405 104.941 17.9805C104.941 18.6472 105.381 19.0738 106.261 19.2605L108.161 19.6405C109.028 19.8138 109.681 20.1072 110.121 20.5205C110.575 20.9338 110.801 21.4938 110.801 22.2005C110.801 23.1338 110.435 23.8672 109.701 24.4005C108.968 24.9205 107.995 25.1805 106.781 25.1805ZM113.629 25.0005V16.8005H111.729V15.2405H113.629V15.0605C113.629 13.7138 113.969 12.7005 114.649 12.0205C115.342 11.3405 116.402 10.9605 117.829 10.8805L118.709 10.8205L118.849 12.3405L117.929 12.4005C117.116 12.4538 116.529 12.6738 116.169 13.0605C115.822 13.4472 115.649 14.0205 115.649 14.7805V15.2405H118.389V16.8005H115.649V25.0005H113.629ZM123.949 25.1805C122.962 25.1805 122.109 24.9738 121.389 24.5605C120.669 24.1472 120.109 23.5672 119.709 22.8205C119.322 22.0605 119.129 21.1605 119.129 20.1205C119.129 19.0805 119.322 18.1872 119.709 17.4405C120.109 16.6805 120.669 16.0938 121.389 15.6805C122.109 15.2672 122.962 15.0605 123.949 15.0605C124.909 15.0605 125.749 15.2672 126.469 15.6805C127.189 16.0938 127.749 16.6805 128.149 17.4405C128.549 18.1872 128.749 19.0805 128.749 20.1205C128.749 21.1605 128.549 22.0605 128.149 22.8205C127.749 23.5672 127.189 24.1472 126.469 24.5605C125.749 24.9738 124.909 25.1805 123.949 25.1805ZM123.949 23.6205C124.776 23.6205 125.442 23.3205 125.949 22.7205C126.456 22.1205 126.709 21.2538 126.709 20.1205C126.709 18.9872 126.456 18.1272 125.949 17.5405C125.442 16.9405 124.776 16.6405 123.949 16.6405C123.109 16.6405 122.436 16.9405 121.929 17.5405C121.422 18.1272 121.169 18.9872 121.169 20.1205C121.169 21.2538 121.422 22.1205 121.929 22.7205C122.436 23.3205 123.109 23.6205 123.949 23.6205ZM131.018 25.0005V15.2405H132.978V16.9805C133.484 15.8205 134.538 15.1738 136.138 15.0405L136.798 15.0005L136.938 16.7205L135.718 16.8405C133.944 17.0138 133.058 17.9272 133.058 19.5805V25.0005H131.018ZM142.642 25.1805C141.642 25.1805 140.775 24.9738 140.042 24.5605C139.322 24.1338 138.762 23.5405 138.362 22.7805C137.962 22.0072 137.762 21.1005 137.762 20.0605C137.762 18.5138 138.202 17.2938 139.082 16.4005C139.962 15.5072 141.149 15.0605 142.642 15.0605C143.255 15.0605 143.862 15.1672 144.462 15.3805C145.062 15.5938 145.555 15.8872 145.942 16.2605L145.302 17.6805C144.929 17.3338 144.515 17.0805 144.062 16.9205C143.622 16.7472 143.202 16.6605 142.802 16.6605C141.855 16.6605 141.122 16.9605 140.602 17.5605C140.095 18.1472 139.842 18.9872 139.842 20.0805C139.842 21.1738 140.095 22.0338 140.602 22.6605C141.122 23.2738 141.855 23.5805 142.802 23.5805C143.202 23.5805 143.622 23.5005 144.062 23.3405C144.515 23.1672 144.929 22.9072 145.302 22.5605L145.942 24.0005C145.555 24.3605 145.055 24.6472 144.442 24.8605C143.842 25.0738 143.242 25.1805 142.642 25.1805ZM152.063 25.1805C150.463 25.1805 149.203 24.7338 148.283 23.8405C147.363 22.9338 146.903 21.7005 146.903 20.1405C146.903 19.1405 147.103 18.2605 147.503 17.5005C147.916 16.7272 148.483 16.1272 149.203 15.7005C149.923 15.2738 150.749 15.0605 151.683 15.0605C153.029 15.0605 154.089 15.4938 154.863 16.3605C155.636 17.2138 156.023 18.3938 156.023 19.9005V20.5805H148.863C149.009 22.6072 150.083 23.6205 152.083 23.6205C152.643 23.6205 153.189 23.5338 153.723 23.3605C154.269 23.1872 154.783 22.9005 155.263 22.5005L155.863 23.9005C155.423 24.3005 154.856 24.6138 154.163 24.8405C153.469 25.0672 152.769 25.1805 152.063 25.1805ZM151.763 16.4805C150.923 16.4805 150.256 16.7405 149.763 17.2605C149.269 17.7805 148.969 18.4738 148.863 19.3405H154.323C154.283 18.4338 154.043 17.7338 153.603 17.2405C153.163 16.7338 152.549 16.4805 151.763 16.4805Z" fill="white"/>
</svg>
