<svg width="144" height="44" viewBox="0 0 144 44" fill="none" xmlns="http://www.w3.org/2000/svg">
<path d="M15.3266 26.3362C15.3266 27.2593 15.1403 28.1823 14.7103 28.9821C14.2959 29.7624 13.7307 30.4528 13.0476 31.0132C12.3095 31.5664 11.448 31.9979 10.4633 32.306C9.47863 32.6142 8.37067 32.7977 7.20107 32.7977C5.78493 32.7977 4.47773 32.6113 3.38553 32.2444C2.29333 31.8775 1.1696 31.1981 0 30.3381L1.84613 27.3223C2.7692 28.0605 3.569 28.6152 4.24697 28.985C4.98513 29.3548 5.7233 29.4766 6.4629 29.4766C7.38597 29.4766 8.12557 29.2301 8.67883 28.7385C9.2321 28.2468 9.53884 27.6305 9.53884 26.8321C9.53884 26.4623 9.4772 26.1556 9.41557 25.8474C9.27733 25.5143 9.09092 25.2033 8.8623 24.9244C8.53758 24.5312 8.16543 24.1797 7.75433 23.878L5.9082 22.5235L4.24553 21.2909C3.69227 20.8609 3.1992 20.3678 2.7692 19.8747C2.33073 19.3698 1.95841 18.8111 1.66123 18.2121C1.4147 17.5957 1.23123 16.9192 1.23123 16.1194C1.23123 15.1963 1.41757 14.3965 1.7845 13.6584C2.15112 12.9178 2.67619 12.267 3.32247 11.752C3.9388 11.2604 4.7386 10.829 5.66167 10.5194C6.58473 10.2098 7.568 10.0894 8.61434 10.0894C9.7223 10.0894 10.8303 10.2126 11.8766 10.5194C12.9229 10.8261 13.9076 11.2575 14.7691 11.8122L13.1064 14.5356C11.9368 13.7358 10.7672 13.3029 9.47577 13.3029C8.67597 13.3029 8.05963 13.4892 7.56943 13.9192C7.07923 14.3492 6.83127 14.8423 6.83127 15.4572C6.83127 16.0105 7.0778 16.5652 7.5078 16.9952C7.9378 17.4868 8.74047 18.1031 9.80113 18.9646L12.5245 21.0572C13.2626 21.6736 13.8173 22.2268 14.2473 22.7801C14.6773 23.3334 14.9855 23.8264 15.1073 24.3797C15.2306 25.1179 15.3539 25.7342 15.3539 26.3491L15.3266 26.3362ZM34.4358 21.3038C34.4358 18.9646 33.9442 17.0568 33.0197 15.7037C32.035 14.3492 30.7264 13.6727 29.0809 13.6727C27.358 13.6727 25.9276 14.4109 24.9572 15.827C23.9109 17.2431 23.4192 19.2125 23.4192 21.7352C23.4192 24.136 23.9109 26.0438 24.8956 27.4585C25.8803 28.8732 27.2964 29.5512 29.0193 29.5512C30.0656 29.5512 30.9256 29.3046 31.6036 28.7514C32.2867 28.191 32.8518 27.5006 33.2662 26.7203C33.7174 25.8784 34.0094 24.9606 34.1277 24.0128C34.3742 23.0281 34.4358 22.1064 34.4358 21.2894V21.3038ZM40.4673 21.0429C40.4673 22.7658 40.2208 24.3052 39.6675 25.7199C39.1759 27.136 38.4348 28.3658 37.5132 29.4752C36.5901 30.5215 35.4822 31.3815 34.1879 31.9362C32.895 32.5526 31.5419 32.7962 30.0642 32.7962C29.4439 32.8019 28.8249 32.7399 28.218 32.6113C27.6648 32.4881 27.1101 32.3032 26.5554 32.0581C26.0637 31.8115 25.509 31.4417 25.0174 31.0117C24.4538 30.5098 23.9197 29.9757 23.4178 29.4121V43.1363H17.835V10.7043H23.3734V13.8576C24.3581 12.5647 25.466 11.6417 26.6356 11.0884C27.8052 10.4721 29.2199 10.2284 30.7593 10.2284C32.1755 10.2284 33.4827 10.4749 34.6365 11.0282C35.7745 11.5667 36.7984 12.319 37.6522 13.2441C38.5122 14.1672 39.1286 15.3368 39.6216 16.6297C40.1749 17.9842 40.4214 19.4605 40.4214 21.073L40.4673 21.0429ZM67.2563 32.306V29.4136C66.1483 30.6462 65.0404 31.5062 63.8708 32.0595C62.7012 32.6128 61.3481 32.8593 59.8574 32.8593C58.1346 32.8593 56.7041 32.5511 55.5488 31.8746C54.3936 31.1981 53.5178 30.2119 53.0262 28.8589C52.8956 28.54 52.7925 28.2106 52.718 27.8742L52.5317 26.7046C52.4551 26.1954 52.4139 25.6815 52.4084 25.1666V10.7659H58.1317V23.1356L58.255 25.6582C58.3782 26.2115 58.5631 26.7662 58.8082 27.1962C59.4848 28.4289 60.6544 29.0423 62.3156 29.0423C64.4699 29.0423 65.9462 28.1193 66.7589 26.319C66.9453 25.8274 67.1287 25.3343 67.1889 24.781C67.2743 23.9836 67.3155 23.1821 67.3122 22.3802V10.6871H73.0355V32.3662H67.2563V32.306ZM91.8122 32.306V20.0109L91.6889 17.4882C91.5656 16.935 91.3807 16.3803 91.1356 15.9503C90.4591 14.7176 89.2895 14.1658 87.6283 14.1658C86.6631 14.1558 85.7109 14.3884 84.8591 14.8423C84.1209 15.2723 83.5046 15.9503 83.1362 16.8117C82.9499 17.3033 82.7664 17.7964 82.7062 18.4113C82.6446 18.9646 82.5829 19.7658 82.5829 20.7505V32.382H76.8596V10.7043H82.5829V13.5967C83.6909 12.3641 84.7989 11.5041 85.9685 10.9508C87.1381 10.3975 88.4911 10.151 89.9818 10.151C91.7047 10.151 93.1351 10.5208 94.2904 11.1973C95.4457 11.8739 96.3215 12.9202 96.8131 14.2131C96.9364 14.5212 97.0596 14.8294 97.1212 15.1978L97.3678 16.3674C97.4471 16.8762 97.4883 17.3903 97.491 17.9053V32.306H91.8122Z" fill="white"/>
<path d="M101.474 32.3068H107.197V20.8602L115.797 32.7382L121.106 30.905L112.429 20.1349L119.739 12.2573L115.43 10.4112L107.799 19.2735H107.183V0.640137H101.459L101.474 32.3068ZM42.8848 33.5394H48.6081V1.8427H42.8848V33.5394Z" fill="white"/>
<path d="M126.029 14.8284V10.9526L143.322 19.6286V23.136L126.029 31.7503V27.9376L139.445 21.3529L126.029 14.8284Z" fill="white"/>
</svg>
