<svg width="163" height="51" viewBox="0 0 163 51" fill="none" xmlns="http://www.w3.org/2000/svg">
<path d="M60.4374 32V19.64H55.4374V17.9H67.4974V19.64H62.4974V32H60.4374ZM72.041 32.18C70.441 32.18 69.181 31.7333 68.261 30.84C67.341 29.9333 66.881 28.7 66.881 27.14C66.881 26.14 67.081 25.26 67.481 24.5C67.8943 23.7267 68.461 23.1267 69.181 22.7C69.901 22.2733 70.7277 22.06 71.661 22.06C73.0077 22.06 74.0677 22.4933 74.841 23.36C75.6143 24.2133 76.001 25.3933 76.001 26.9V27.58H68.841C68.9877 29.6067 70.061 30.62 72.061 30.62C72.621 30.62 73.1677 30.5333 73.701 30.36C74.2477 30.1867 74.761 29.9 75.241 29.5L75.841 30.9C75.401 31.3 74.8343 31.6133 74.141 31.84C73.4477 32.0667 72.7477 32.18 72.041 32.18ZM71.741 23.48C70.901 23.48 70.2343 23.74 69.741 24.26C69.2477 24.78 68.9477 25.4733 68.841 26.34H74.301C74.261 25.4333 74.021 24.7333 73.581 24.24C73.141 23.7333 72.5277 23.48 71.741 23.48ZM78.2032 32V22.24H80.1632V23.86C80.4965 23.2733 80.9499 22.8267 81.5232 22.52C82.1099 22.2133 82.7632 22.06 83.4832 22.06C85.7899 22.06 86.9432 23.3667 86.9432 25.98V32H84.9232V26.1C84.9232 25.26 84.7565 24.6467 84.4232 24.26C84.1032 23.8733 83.5965 23.68 82.9032 23.68C82.0899 23.68 81.4365 23.94 80.9432 24.46C80.4632 24.9667 80.2232 25.64 80.2232 26.48V32H78.2032ZM93.1466 32.18C92.3466 32.18 91.6 32.08 90.9066 31.88C90.2133 31.6667 89.6333 31.3733 89.1666 31L89.7466 29.64C90.24 29.9867 90.78 30.2533 91.3666 30.44C91.9666 30.6267 92.5666 30.72 93.1666 30.72C93.8733 30.72 94.4066 30.5933 94.7666 30.34C95.1266 30.0867 95.3066 29.7467 95.3066 29.32C95.3066 28.9733 95.1866 28.7067 94.9466 28.52C94.7066 28.32 94.3466 28.1667 93.8666 28.06L91.9666 27.68C90.2866 27.3333 89.4466 26.4667 89.4466 25.08C89.4466 24.16 89.8133 23.4267 90.5466 22.88C91.28 22.3333 92.24 22.06 93.4266 22.06C94.1066 22.06 94.7533 22.16 95.3666 22.36C95.9933 22.56 96.5133 22.86 96.9266 23.26L96.3466 24.62C95.9466 24.2733 95.4866 24.0067 94.9666 23.82C94.4466 23.6333 93.9333 23.54 93.4266 23.54C92.7333 23.54 92.2066 23.6733 91.8466 23.94C91.4866 24.1933 91.3066 24.54 91.3066 24.98C91.3066 25.6467 91.7466 26.0733 92.6266 26.26L94.5266 26.64C95.3933 26.8133 96.0466 27.1067 96.4866 27.52C96.94 27.9333 97.1666 28.4933 97.1666 29.2C97.1666 30.1333 96.8 30.8667 96.0666 31.4C95.3333 31.92 94.36 32.18 93.1466 32.18ZM103.654 32.18C102.667 32.18 101.814 31.9733 101.094 31.56C100.374 31.1467 99.8141 30.5667 99.4141 29.82C99.0275 29.06 98.8341 28.16 98.8341 27.12C98.8341 26.08 99.0275 25.1867 99.4141 24.44C99.8141 23.68 100.374 23.0933 101.094 22.68C101.814 22.2667 102.667 22.06 103.654 22.06C104.614 22.06 105.454 22.2667 106.174 22.68C106.894 23.0933 107.454 23.68 107.854 24.44C108.254 25.1867 108.454 26.08 108.454 27.12C108.454 28.16 108.254 29.06 107.854 29.82C107.454 30.5667 106.894 31.1467 106.174 31.56C105.454 31.9733 104.614 32.18 103.654 32.18ZM103.654 30.62C104.481 30.62 105.147 30.32 105.654 29.72C106.161 29.12 106.414 28.2533 106.414 27.12C106.414 25.9867 106.161 25.1267 105.654 24.54C105.147 23.94 104.481 23.64 103.654 23.64C102.814 23.64 102.141 23.94 101.634 24.54C101.127 25.1267 100.874 25.9867 100.874 27.12C100.874 28.2533 101.127 29.12 101.634 29.72C102.141 30.32 102.814 30.62 103.654 30.62ZM110.723 32V22.24H112.683V23.98C113.189 22.82 114.243 22.1733 115.843 22.04L116.503 22L116.643 23.72L115.423 23.84C113.649 24.0133 112.763 24.9267 112.763 26.58V32H110.723ZM118.404 32V17.9H127.364V19.58H120.484V24.08H126.944V25.76H120.484V32H118.404ZM132.438 32.18C131.371 32.18 130.571 31.88 130.038 31.28C129.518 30.68 129.258 29.8 129.258 28.64V17.9H131.278V28.52C131.278 29.84 131.818 30.5 132.898 30.5C133.058 30.5 133.205 30.4933 133.338 30.48C133.485 30.4667 133.631 30.44 133.778 30.4L133.738 32.02C133.285 32.1267 132.851 32.18 132.438 32.18ZM139.514 32.18C138.527 32.18 137.674 31.9733 136.954 31.56C136.234 31.1467 135.674 30.5667 135.274 29.82C134.887 29.06 134.694 28.16 134.694 27.12C134.694 26.08 134.887 25.1867 135.274 24.44C135.674 23.68 136.234 23.0933 136.954 22.68C137.674 22.2667 138.527 22.06 139.514 22.06C140.474 22.06 141.314 22.2667 142.034 22.68C142.754 23.0933 143.314 23.68 143.714 24.44C144.114 25.1867 144.314 26.08 144.314 27.12C144.314 28.16 144.114 29.06 143.714 29.82C143.314 30.5667 142.754 31.1467 142.034 31.56C141.314 31.9733 140.474 32.18 139.514 32.18ZM139.514 30.62C140.34 30.62 141.007 30.32 141.514 29.72C142.02 29.12 142.274 28.2533 142.274 27.12C142.274 25.9867 142.02 25.1267 141.514 24.54C141.007 23.94 140.34 23.64 139.514 23.64C138.674 23.64 138 23.94 137.494 24.54C136.987 25.1267 136.734 25.9867 136.734 27.12C136.734 28.2533 136.987 29.12 137.494 29.72C138 30.32 138.674 30.62 139.514 30.62ZM149.046 32L145.326 22.24H147.406L150.026 29.64L152.726 22.24H154.286L156.946 29.68L159.606 22.24H161.586L157.866 32H156.026L153.446 25.02L150.886 32H149.046Z" fill="white"/>
<path d="M27.0611 7.8457V15.6922L40.5913 23.5388V15.6922L27.0611 7.8457ZM0 15.6922V23.5388L6.76508 27.4612V19.6155L0 15.6922ZM20.2952 19.6155L13.5302 23.5388V47.0767L20.2952 51V35.3077L27.0611 39.231V31.3845L20.2952 27.4612V19.6155Z" fill="white"/>
<path d="M27.0607 7.8457L6.76465 19.6155V27.4612L20.2948 19.6155V27.4612L27.0607 23.5388V7.8457ZM47.3567 11.769L40.5908 15.6922V23.5388L47.3567 19.6155V11.769ZM33.8258 27.4612L27.0607 31.3845V39.231L33.8258 35.3077V27.4612ZM27.0607 39.231L20.2948 35.3077V51L27.0607 47.0767V39.231Z" fill="#F2F2F2"/>
<path d="M27.0611 0L0 15.6922L6.76508 19.6155L27.0611 7.84572L40.5913 15.6922L47.3571 11.769L27.0611 0ZM27.0611 23.5388L20.2952 27.4612L27.0611 31.3845L33.8262 27.4612L27.0611 23.5388Z" fill="white" fill-opacity="0.66"/>
</svg>
