<svg width="142" height="54" viewBox="0 0 142 54" fill="none" xmlns="http://www.w3.org/2000/svg">
<path d="M54.7398 22.1059H50.168V19.3584H62.4108V22.1059H57.839V35.8559H54.741L54.7398 22.1059ZM65.2319 33.6109C66.4735 33.6046 67.7078 33.4134 68.8948 33.0421L69.3666 35.3172C67.9573 35.8371 66.4684 36.1045 64.9674 36.1072C61.2027 36.1072 59.9014 34.3571 59.9014 31.4571V28.2996C59.9014 25.7496 61.0189 23.5496 64.8656 23.5496C68.7123 23.5496 69.5839 25.7996 69.5839 28.3972V30.9721H62.9162V31.5884C62.9162 33.0334 63.4128 33.5884 65.2455 33.5884L65.2319 33.6109ZM62.8789 28.5359H66.6908V27.9434C66.6908 26.8184 66.3456 26.0184 64.8718 26.0184C63.3979 26.0184 62.8802 26.8084 62.8802 27.9434L62.8789 28.5359Z" fill="white"/>
<path d="M77.5773 26.3032C76.4884 26.8082 75.4392 27.397 74.4409 28.0657V35.8345H71.4062V23.7782H73.9393L74.1354 25.112C75.1078 24.4498 76.1623 23.919 77.2719 23.5332L77.5773 26.3032Z" fill="white"/>
<path d="M84.9025 26.3032C83.8136 26.8082 82.7644 27.397 81.7661 28.0657V35.8345H78.7314V23.7782H81.2644L81.4606 25.112C82.433 24.4498 83.4875 23.919 84.5971 23.5332L84.9025 26.3032Z" fill="white"/>
<path d="M94.9268 35.8244H92.472L92.2522 35.0344C91.1919 35.7274 89.9554 36.0976 88.6911 36.1006C86.5033 36.1006 85.5547 34.5931 85.5547 32.5156C85.5547 30.0681 86.6138 29.1406 89.0314 29.1406H91.9095V27.8906C91.9095 26.5569 91.5408 26.0831 89.6274 26.0831C88.5119 26.0952 87.4005 26.2195 86.3096 26.4544L85.9408 24.1569C87.2768 23.7849 88.656 23.5937 90.0421 23.5881C93.8068 23.5881 94.9119 24.9219 94.9119 27.9469L94.9268 35.8244ZM91.9306 31.2694H89.7205C88.7272 31.2694 88.4788 31.5381 88.4788 32.4531C88.4788 33.3681 88.7458 33.6694 89.687 33.6694C90.4794 33.6587 91.2562 33.4467 91.9456 33.0531L91.9306 31.2694ZM104.149 21.0194C103.584 20.8974 103.009 20.8313 102.431 20.8219C101.256 20.8219 101.083 21.3431 101.083 22.2594V23.7669H104.125L103.951 26.1356H101.073V35.7831H98.0769V26.1806H96.156V23.8119H98.0682V22.0994C98.0682 19.5969 99.2205 18.3644 101.88 18.3644C102.752 18.3604 103.62 18.4774 104.46 18.7119L104.149 21.0194ZM109.999 36.0644C105.898 36.0644 104.792 33.7893 104.792 31.3143V28.2931C104.792 25.8219 105.909 23.5431 109.999 23.5431C114.089 23.5431 115.214 25.8181 115.214 28.2931V31.3406C115.207 33.7956 114.101 36.0906 109.999 36.0906V36.0644ZM109.999 26.0931C108.431 26.0931 107.789 26.8119 107.789 28.1681V31.4131C107.789 32.7706 108.401 33.4881 109.999 33.4881C111.597 33.4881 112.21 32.7694 112.21 31.4131V28.1806C112.21 26.8144 111.589 26.0969 109.999 26.0969V26.0931ZM122.913 26.2906C121.823 26.7954 120.775 27.3847 119.776 28.0531V35.8219H116.747V23.7656H119.28L119.476 25.0994C120.448 24.4372 121.503 23.9064 122.612 23.5206L122.913 26.2906ZM131.157 35.8244V27.4156C131.157 26.7756 130.89 26.4531 130.201 26.4531C129.099 26.5781 128.031 26.9231 127.065 27.4719V35.8469H124.085V23.7906H126.367L126.665 24.8094C128.158 24.0566 129.79 23.6266 131.458 23.5469C131.92 23.5036 132.384 23.6038 132.788 23.834C133.192 24.0642 133.516 24.4133 133.716 24.8344C135.211 24.0644 136.854 23.6256 138.532 23.5469C140.523 23.5469 141.238 24.9594 141.238 27.1094V35.8419H138.242V27.4331C138.242 26.7931 137.975 26.4706 137.286 26.4706C136.181 26.5854 135.113 26.9325 134.15 27.4894V35.8644L131.157 35.8244Z" fill="white"/>
<path fill-rule="evenodd" clip-rule="evenodd" d="M30.464 37.1483V37.0384L16.0234 28.6429V45.427L30.464 53.8224V37.1483ZM30.464 18.4062V35.1971L16.0234 26.8017V10.0107L30.464 18.4062Z" fill="white"/>
<path fill-rule="evenodd" clip-rule="evenodd" d="M32.0479 35.1971L46.4952 26.8017V10.0107L32.0479 18.4062V35.1971Z" fill="white"/>
<path fill-rule="evenodd" clip-rule="evenodd" d="M0 17.4306L14.4406 25.826V9.03511L0 0.639648V17.4306Z" fill="white"/>
</svg>
