<svg width="544" height="60" viewBox="0 0 544 60" fill="none" xmlns="http://www.w3.org/2000/svg">
<g filter="url(#filter0_b_1386_2562)">
<rect x="255" width="200" height="60" rx="30" fill="white" fill-opacity="0.03"/>
</g>
<path d="M224.651 27.1818H222.554V24.8295H221.045V27.1818H219.562V28.4602H221.045V34.5966C221.045 36.3097 222.426 37.1278 223.705 37.1278C224.267 37.1278 224.625 37.0256 224.83 36.9489L224.523 35.5938C224.395 35.6193 224.19 35.6705 223.858 35.6705C223.193 35.6705 222.554 35.4659 222.554 34.1875V28.4602H224.651V27.1818ZM230.803 37.2045C233.462 37.2045 235.252 35.1847 235.252 32.142C235.252 29.0739 233.462 27.054 230.803 27.054C228.144 27.054 226.354 29.0739 226.354 32.142C226.354 35.1847 228.144 37.2045 230.803 37.2045ZM230.803 35.8494C228.783 35.8494 227.863 34.1108 227.863 32.142C227.863 30.1733 228.783 28.4091 230.803 28.4091C232.823 28.4091 233.743 30.1733 233.743 32.142C233.743 34.1108 232.823 35.8494 230.803 35.8494Z" fill="white"/>
<g filter="url(#filter1_b_1386_2562)">
<rect width="200" height="60" rx="30" fill="white" fill-opacity="0.03"/>
</g>
<path d="M66.0739 36H67.2472V31.2273C67.2472 30.1087 68.0625 29.3182 68.9773 29.3182C69.8672 29.3182 70.4886 29.8999 70.4886 30.7699V36H71.6818V31.0284C71.6818 30.044 72.2983 29.3182 73.3722 29.3182C74.2074 29.3182 74.9233 29.7607 74.9233 30.8892V36H76.0966V30.8892C76.0966 29.0945 75.1321 28.2642 73.7699 28.2642C72.6761 28.2642 71.8757 28.7663 71.483 29.5568H71.4034C71.0256 28.7415 70.3594 28.2642 69.3551 28.2642C68.3608 28.2642 67.625 28.7415 67.3068 29.5568H67.2074V28.3636H66.0739V36ZM78.5218 36H79.6951V31.2273C79.6951 30.1087 80.5105 29.3182 81.4252 29.3182C82.3152 29.3182 82.9366 29.8999 82.9366 30.7699V36H84.1298V31.0284C84.1298 30.044 84.7463 29.3182 85.8201 29.3182C86.6554 29.3182 87.3713 29.7607 87.3713 30.8892V36H88.5446V30.8892C88.5446 29.0945 87.5801 28.2642 86.2179 28.2642C85.1241 28.2642 84.3237 28.7663 83.9309 29.5568H83.8514C83.4735 28.7415 82.8073 28.2642 81.8031 28.2642C80.8088 28.2642 80.073 28.7415 79.7548 29.5568H79.6554V28.3636H78.5218V36ZM94.5692 25.3409H93.4954L90.2141 37.5312H91.288L94.5692 25.3409ZM99.1236 36.1591C100.595 36.1591 101.092 35.2443 101.351 34.8267H101.49V36H102.624V25.8182H101.45V29.5767H101.351C101.092 29.179 100.635 28.2642 99.1434 28.2642C97.2145 28.2642 95.8821 29.7955 95.8821 32.2017C95.8821 34.6278 97.2145 36.1591 99.1236 36.1591ZM99.2826 35.1051C97.8111 35.1051 97.0554 33.8125 97.0554 32.1818C97.0554 30.571 97.7912 29.3182 99.2826 29.3182C100.714 29.3182 101.47 30.4716 101.47 32.1818C101.47 33.9119 100.695 35.1051 99.2826 35.1051ZM108.099 36.1591C109.57 36.1591 110.068 35.2443 110.326 34.8267H110.465V36H111.599V25.8182H110.426V29.5767H110.326C110.068 29.179 109.61 28.2642 108.119 28.2642C106.19 28.2642 104.857 29.7955 104.857 32.2017C104.857 34.6278 106.19 36.1591 108.099 36.1591ZM108.258 35.1051C106.786 35.1051 106.031 33.8125 106.031 32.1818C106.031 30.571 106.766 29.3182 108.258 29.3182C109.69 29.3182 110.445 30.4716 110.445 32.1818C110.445 33.9119 109.67 35.1051 108.258 35.1051ZM117.79 25.3409H116.716L113.435 37.5312H114.509L117.79 25.3409ZM120.217 38.8636C121.276 38.8636 122.021 38.3018 122.464 37.1136L125.715 28.3835L124.432 28.3636L122.325 34.4489H122.245L120.137 28.3636H118.864L121.688 36.0398L121.469 36.6364C121.042 37.7997 120.515 37.9091 119.66 37.6903L119.361 38.7244C119.481 38.7841 119.819 38.8636 120.217 38.8636ZM128.303 38.8636C129.362 38.8636 130.108 38.3018 130.55 37.1136L133.802 28.3835L132.519 28.3636L130.411 34.4489H130.332L128.224 28.3636H126.951L129.775 36.0398L129.556 36.6364C129.129 37.7997 128.602 37.9091 127.746 37.6903L127.448 38.7244C127.567 38.7841 127.905 38.8636 128.303 38.8636Z" fill="white" fill-opacity="0.79"/>
<path d="M321.074 36H322.247V31.2273C322.247 30.1087 323.062 29.3182 323.977 29.3182C324.867 29.3182 325.489 29.8999 325.489 30.7699V36H326.682V31.0284C326.682 30.044 327.298 29.3182 328.372 29.3182C329.207 29.3182 329.923 29.7607 329.923 30.8892V36H331.097V30.8892C331.097 29.0945 330.132 28.2642 328.77 28.2642C327.676 28.2642 326.876 28.7663 326.483 29.5568H326.403C326.026 28.7415 325.359 28.2642 324.355 28.2642C323.361 28.2642 322.625 28.7415 322.307 29.5568H322.207V28.3636H321.074V36ZM333.522 36H334.695V31.2273C334.695 30.1087 335.51 29.3182 336.425 29.3182C337.315 29.3182 337.937 29.8999 337.937 30.7699V36H339.13V31.0284C339.13 30.044 339.746 29.3182 340.82 29.3182C341.655 29.3182 342.371 29.7607 342.371 30.8892V36H343.545V30.8892C343.545 29.0945 342.58 28.2642 341.218 28.2642C340.124 28.2642 339.324 28.7663 338.931 29.5568H338.851C338.474 28.7415 337.807 28.2642 336.803 28.2642C335.809 28.2642 335.073 28.7415 334.755 29.5568H334.655V28.3636H333.522V36ZM349.569 25.3409H348.495L345.214 37.5312H346.288L349.569 25.3409ZM354.124 36.1591C355.595 36.1591 356.092 35.2443 356.351 34.8267H356.49V36H357.624V25.8182H356.45V29.5767H356.351C356.092 29.179 355.635 28.2642 354.143 28.2642C352.214 28.2642 350.882 29.7955 350.882 32.2017C350.882 34.6278 352.214 36.1591 354.124 36.1591ZM354.283 35.1051C352.811 35.1051 352.055 33.8125 352.055 32.1818C352.055 30.571 352.791 29.3182 354.283 29.3182C355.714 29.3182 356.47 30.4716 356.47 32.1818C356.47 33.9119 355.695 35.1051 354.283 35.1051ZM363.099 36.1591C364.57 36.1591 365.068 35.2443 365.326 34.8267H365.465V36H366.599V25.8182H365.426V29.5767H365.326C365.068 29.179 364.61 28.2642 363.119 28.2642C361.19 28.2642 359.857 29.7955 359.857 32.2017C359.857 34.6278 361.19 36.1591 363.099 36.1591ZM363.258 35.1051C361.786 35.1051 361.031 33.8125 361.031 32.1818C361.031 30.571 361.766 29.3182 363.258 29.3182C364.69 29.3182 365.445 30.4716 365.445 32.1818C365.445 33.9119 364.67 35.1051 363.258 35.1051ZM372.79 25.3409H371.716L368.435 37.5312H369.509L372.79 25.3409ZM375.217 38.8636C376.276 38.8636 377.021 38.3018 377.464 37.1136L380.715 28.3835L379.432 28.3636L377.325 34.4489H377.245L375.137 28.3636H373.864L376.688 36.0398L376.469 36.6364C376.042 37.7997 375.515 37.9091 374.66 37.6903L374.361 38.7244C374.481 38.7841 374.819 38.8636 375.217 38.8636ZM383.303 38.8636C384.362 38.8636 385.108 38.3018 385.55 37.1136L388.802 28.3835L387.519 28.3636L385.411 34.4489H385.332L383.224 28.3636H381.951L384.775 36.0398L384.556 36.6364C384.129 37.7997 383.602 37.9091 382.746 37.6903L382.448 38.7244C382.567 38.7841 382.905 38.8636 383.303 38.8636Z" fill="white" fill-opacity="0.79"/>
<rect x="484" width="60" height="60" rx="30" fill="#6F5ADC"/>
<path d="M524.979 29.612H503.729" stroke="white" stroke-width="2" stroke-linecap="round" stroke-linejoin="round"/>
<path d="M516.409 21.0771L524.98 29.6111L516.409 38.1465" stroke="white" stroke-width="2" stroke-linecap="round" stroke-linejoin="round"/>
<defs>
<filter id="filter0_b_1386_2562" x="199" y="-56" width="312" height="172" filterUnits="userSpaceOnUse" color-interpolation-filters="sRGB">
<feFlood flood-opacity="0" result="BackgroundImageFix"/>
<feGaussianBlur in="BackgroundImage" stdDeviation="28"/>
<feComposite in2="SourceAlpha" operator="in" result="effect1_backgroundBlur_1386_2562"/>
<feBlend mode="normal" in="SourceGraphic" in2="effect1_backgroundBlur_1386_2562" result="shape"/>
</filter>
<filter id="filter1_b_1386_2562" x="-56" y="-56" width="312" height="172" filterUnits="userSpaceOnUse" color-interpolation-filters="sRGB">
<feFlood flood-opacity="0" result="BackgroundImageFix"/>
<feGaussianBlur in="BackgroundImage" stdDeviation="28"/>
<feComposite in2="SourceAlpha" operator="in" result="effect1_backgroundBlur_1386_2562"/>
<feBlend mode="normal" in="SourceGraphic" in2="effect1_backgroundBlur_1386_2562" result="shape"/>
</filter>
</defs>
</svg>
