<svg width="549" height="74" viewBox="0 0 549 74" fill="none" xmlns="http://www.w3.org/2000/svg">
<rect x="0.5" y="0.5" width="221" height="73" rx="24.5" fill="#6F5ADC" fill-opacity="0.29" stroke="#A18EFF"/>
<path d="M54.2912 44H56.6626V39.5767H59.1683C62.1918 39.5767 63.8153 37.7614 63.8153 35.2429C63.8153 32.7436 62.2109 30.9091 59.2003 30.9091H54.2912V44ZM56.6626 37.6271V32.8906H58.8359C60.6129 32.8906 61.3991 33.8494 61.3991 35.2429C61.3991 36.6364 60.6129 37.6271 58.8487 37.6271H56.6626ZM65.7729 44H68.0868V38.228C68.0868 36.9815 69.0265 36.0994 70.2985 36.0994C70.6884 36.0994 71.1742 36.1697 71.3723 36.2337V34.1051C71.1614 34.0668 70.7971 34.0412 70.5414 34.0412C69.4164 34.0412 68.4767 34.6804 68.1188 35.8182H68.0165V34.1818H65.7729V44ZM76.788 44.1918C79.6644 44.1918 81.4925 42.1655 81.4925 39.1293C81.4925 36.0866 79.6644 34.054 76.788 34.054C73.9116 34.054 72.0835 36.0866 72.0835 39.1293C72.0835 42.1655 73.9116 44.1918 76.788 44.1918ZM76.8008 42.3381C75.2092 42.3381 74.4293 40.919 74.4293 39.1229C74.4293 37.3267 75.2092 35.8885 76.8008 35.8885C78.3668 35.8885 79.1467 37.3267 79.1467 39.1229C79.1467 40.919 78.3668 42.3381 76.8008 42.3381ZM87.7392 44.1918C90.2065 44.1918 91.7789 42.728 91.9451 40.6442H89.7335C89.5353 41.6989 88.7747 42.3061 87.7583 42.3061C86.3137 42.3061 85.3805 41.098 85.3805 39.0909C85.3805 37.1094 86.3329 35.9205 87.7583 35.9205C88.8706 35.9205 89.5545 36.6364 89.7335 37.5824H91.9451C91.7853 35.4538 90.1234 34.054 87.7264 34.054C84.85 34.054 83.0346 36.1314 83.0346 39.1293C83.0346 42.1016 84.8052 44.1918 87.7392 44.1918ZM98.1918 44.1918C100.48 44.1918 102.053 43.0732 102.462 41.3665L100.301 41.1236C99.9879 41.9545 99.2209 42.3892 98.2237 42.3892C96.728 42.3892 95.7372 41.4048 95.718 39.7237H102.558V39.0142C102.558 35.5689 100.487 34.054 98.0703 34.054C95.2578 34.054 93.4233 36.1186 93.4233 39.1484C93.4233 42.2294 95.2322 44.1918 98.1918 44.1918ZM95.7244 38.1641C95.7947 36.9112 96.7216 35.8565 98.1023 35.8565C99.4318 35.8565 100.327 36.8281 100.339 38.1641H95.7244ZM112.275 36.777C111.955 35.1151 110.626 34.054 108.325 34.054C105.96 34.054 104.349 35.2173 104.355 37.0327C104.349 38.4645 105.231 39.4105 107.117 39.8004L108.791 40.152C109.693 40.3501 110.115 40.7145 110.115 41.2706C110.115 41.9418 109.386 42.4467 108.286 42.4467C107.225 42.4467 106.535 41.9865 106.337 41.1044L104.08 41.3217C104.368 43.1243 105.883 44.1918 108.293 44.1918C110.747 44.1918 112.48 42.9197 112.486 41.0597C112.48 39.6598 111.578 38.8033 109.725 38.4006L108.05 38.0426C107.053 37.8189 106.656 37.4737 106.663 36.9048C106.656 36.2401 107.392 35.7798 108.357 35.7798C109.424 35.7798 109.987 36.3615 110.166 37.0071L112.275 36.777ZM122.154 36.777C121.834 35.1151 120.505 34.054 118.204 34.054C115.839 34.054 114.228 35.2173 114.234 37.0327C114.228 38.4645 115.11 39.4105 116.996 39.8004L118.67 40.152C119.572 40.3501 119.993 40.7145 119.993 41.2706C119.993 41.9418 119.265 42.4467 118.165 42.4467C117.104 42.4467 116.414 41.9865 116.216 41.1044L113.959 41.3217C114.247 43.1243 115.762 44.1918 118.172 44.1918C120.626 44.1918 122.358 42.9197 122.365 41.0597C122.358 39.6598 121.457 38.8033 119.604 38.4006L117.929 38.0426C116.932 37.8189 116.535 37.4737 116.542 36.9048C116.535 36.2401 117.27 35.7798 118.236 35.7798C119.303 35.7798 119.866 36.3615 120.045 37.0071L122.154 36.777ZM133.276 44C137.265 44 139.63 41.5327 139.63 37.4418C139.63 33.3636 137.265 30.9091 133.366 30.9091H128.84V44H133.276ZM131.211 41.9482V32.9609H133.231C135.89 32.9609 137.278 34.4439 137.278 37.4418C137.278 40.4524 135.89 41.9482 133.161 41.9482H131.211ZM144.606 44.1982C146.146 44.1982 147.067 43.4759 147.489 42.6513H147.566V44H149.79V37.429C149.79 34.8338 147.674 34.054 145.801 34.054C143.737 34.054 142.151 34.9744 141.64 36.7642L143.801 37.071C144.031 36.3999 144.683 35.8246 145.814 35.8246C146.888 35.8246 147.476 36.3743 147.476 37.3395V37.3778C147.476 38.0426 146.779 38.0746 145.047 38.2599C143.142 38.4645 141.32 39.0334 141.32 41.245C141.32 43.1754 142.733 44.1982 144.606 44.1982ZM145.207 42.4979C144.242 42.4979 143.551 42.0568 143.551 41.2067C143.551 40.3182 144.325 39.9474 145.36 39.8004C145.968 39.7173 147.182 39.5639 147.482 39.321V40.478C147.482 41.571 146.6 42.4979 145.207 42.4979ZM157.019 34.1818H155.083V31.8295H152.769V34.1818H151.375V35.9716H152.769V41.4304C152.756 43.2777 154.098 44.1854 155.837 44.1342C156.495 44.1151 156.949 43.9872 157.198 43.9041L156.808 42.0952C156.681 42.1271 156.419 42.1847 156.131 42.1847C155.549 42.1847 155.083 41.9801 155.083 41.0469V35.9716H157.019V34.1818ZM161.78 44.1982C163.32 44.1982 164.241 43.4759 164.663 42.6513H164.739V44H166.964V37.429C166.964 34.8338 164.848 34.054 162.975 34.054C160.911 34.054 159.325 34.9744 158.814 36.7642L160.974 37.071C161.205 36.3999 161.857 35.8246 162.988 35.8246C164.062 35.8246 164.65 36.3743 164.65 37.3395V37.3778C164.65 38.0426 163.953 38.0746 162.221 38.2599C160.316 38.4645 158.494 39.0334 158.494 41.245C158.494 43.1754 159.907 44.1982 161.78 44.1982ZM162.381 42.4979C161.415 42.4979 160.725 42.0568 160.725 41.2067C160.725 40.3182 161.499 39.9474 162.534 39.8004C163.141 39.7173 164.356 39.5639 164.656 39.321V40.478C164.656 41.571 163.774 42.4979 162.381 42.4979Z" fill="#C3B8FF"/>
<rect x="355" y="14" width="60" height="60" rx="30" fill="#6F5ADC"/>
<path d="M395.979 43.612H374.729" stroke="white" stroke-width="2" stroke-linecap="round" stroke-linejoin="round"/>
<path d="M387.409 35.0771L395.98 43.6111L387.409 52.1465" stroke="white" stroke-width="2" stroke-linecap="round" stroke-linejoin="round"/>
<rect width="60" height="60" rx="30" transform="matrix(-1 0 0 1 315 14)" fill="#6F5ADC"/>
<path d="M274.021 43.612H295.271" stroke="white" stroke-width="2" stroke-linecap="round" stroke-linejoin="round"/>
<path d="M282.591 35.0771L274.02 43.6111L282.591 52.1465" stroke="white" stroke-width="2" stroke-linecap="round" stroke-linejoin="round"/>
<path d="M545.893 51.8929L524 30" stroke="white" stroke-opacity="0.83" stroke-width="5" stroke-linecap="round" stroke-linejoin="round"/>
<path d="M524.001 51.8929L545.894 30" stroke="white" stroke-opacity="0.83" stroke-width="5" stroke-linecap="round" stroke-linejoin="round"/>
<path fill-rule="evenodd" clip-rule="evenodd" d="M484 30.8965C476.764 30.8965 470.896 36.7629 470.896 44.0007C470.896 51.237 476.764 57.1048 484 57.1048C491.236 57.1048 497.104 51.237 497.104 44.0007C497.104 36.7629 491.236 30.8965 484 30.8965Z" stroke="white" stroke-width="1.5" stroke-linecap="round" stroke-linejoin="round"/>
<path d="M486.043 39.084L481.105 44.0012L486.043 48.9185" stroke="white" stroke-width="1.5" stroke-linecap="round" stroke-linejoin="round"/>
</svg>
