<svg width="524" height="65" viewBox="0 0 524 65" fill="none" xmlns="http://www.w3.org/2000/svg">
<rect width="281" height="65" rx="25" fill="#6F5ADC"/>
<path d="M92.9723 40L94.0526 36.772H98.9744L100.061 40H102.592L97.9773 26.9091H95.0497L90.4411 40H92.9723ZM94.6918 34.8672L96.4624 29.5938H96.5646L98.3352 34.8672H94.6918ZM107.559 40.1726C109.246 40.1726 110.007 39.169 110.371 38.4531H110.512V40H112.788V26.9091H110.467V31.8054H110.371C110.02 31.0959 109.298 30.054 107.565 30.054C105.296 30.054 103.513 31.831 103.513 35.1037C103.513 38.3381 105.245 40.1726 107.559 40.1726ZM108.205 38.2741C106.677 38.2741 105.871 36.9318 105.871 35.0909C105.871 33.2628 106.664 31.9524 108.205 31.9524C109.694 31.9524 110.512 33.1861 110.512 35.0909C110.512 36.9957 109.681 38.2741 108.205 38.2741ZM118.897 40.1726C120.584 40.1726 121.345 39.169 121.709 38.4531H121.85V40H124.126V26.9091H121.805V31.8054H121.709C121.358 31.0959 120.635 30.054 118.903 30.054C116.634 30.054 114.851 31.831 114.851 35.1037C114.851 38.3381 116.583 40.1726 118.897 40.1726ZM119.542 38.2741C118.015 38.2741 117.209 36.9318 117.209 35.0909C117.209 33.2628 118.002 31.9524 119.542 31.9524C121.032 31.9524 121.85 33.1861 121.85 35.0909C121.85 36.9957 121.019 38.2741 119.542 38.2741ZM141.916 26.9091H139.558V35.8324H139.442L133.281 26.9091H131.158V40H133.53V31.0831H133.638L139.807 40H141.916V26.9091ZM148.744 40.1918C151.033 40.1918 152.605 39.0732 153.014 37.3665L150.854 37.1236C150.541 37.9545 149.774 38.3892 148.776 38.3892C147.281 38.3892 146.29 37.4048 146.271 35.7237H153.11V35.0142C153.11 31.5689 151.039 30.054 148.623 30.054C145.811 30.054 143.976 32.1186 143.976 35.1484C143.976 38.2294 145.785 40.1918 148.744 40.1918ZM146.277 34.1641C146.347 32.9112 147.274 31.8565 148.655 31.8565C149.985 31.8565 150.879 32.8281 150.892 34.1641H146.277ZM157.041 40H159.458L161.298 33.3651H161.433L163.274 40H165.683L168.464 30.1818H166.099L164.399 37.0469H164.303L162.539 30.1818H160.205L158.441 37.0852H158.352L156.626 30.1818H154.267L157.041 40ZM174.647 40H182.784V38.0121H177.018V26.9091H174.647V40ZM189.086 40.1918C191.375 40.1918 192.947 39.0732 193.356 37.3665L191.196 37.1236C190.882 37.9545 190.115 38.3892 189.118 38.3892C187.623 38.3892 186.632 37.4048 186.613 35.7237H193.452V35.0142C193.452 31.5689 191.381 30.054 188.965 30.054C186.152 30.054 184.318 32.1186 184.318 35.1484C184.318 38.2294 186.127 40.1918 189.086 40.1918ZM186.619 34.1641C186.689 32.9112 187.616 31.8565 188.997 31.8565C190.326 31.8565 191.221 32.8281 191.234 34.1641H186.619ZM198.235 40.1982C199.775 40.1982 200.696 39.4759 201.118 38.6513H201.194V40H203.419V33.429C203.419 30.8338 201.303 30.054 199.43 30.054C197.366 30.054 195.78 30.9744 195.269 32.7642L197.43 33.071C197.66 32.3999 198.312 31.8246 199.443 31.8246C200.517 31.8246 201.105 32.3743 201.105 33.3395V33.3778C201.105 34.0426 200.408 34.0746 198.676 34.2599C196.771 34.4645 194.949 35.0334 194.949 37.245C194.949 39.1754 196.362 40.1982 198.235 40.1982ZM198.836 38.4979C197.871 38.4979 197.18 38.0568 197.18 37.2067C197.18 36.3182 197.954 35.9474 198.989 35.8004C199.596 35.7173 200.811 35.5639 201.111 35.321V36.478C201.111 37.571 200.229 38.4979 198.836 38.4979ZM209.389 40.1726C211.077 40.1726 211.837 39.169 212.202 38.4531H212.342V40H214.618V26.9091H212.297V31.8054H212.202C211.85 31.0959 211.128 30.054 209.395 30.054C207.126 30.054 205.343 31.831 205.343 35.1037C205.343 38.3381 207.075 40.1726 209.389 40.1726ZM210.035 38.2741C208.507 38.2741 207.702 36.9318 207.702 35.0909C207.702 33.2628 208.494 31.9524 210.035 31.9524C211.524 31.9524 212.342 33.1861 212.342 35.0909C212.342 36.9957 211.511 38.2741 210.035 38.2741Z" fill="#E7E7E7"/>
<path d="M63.0001 29.3281V36.6545" stroke="#E7E7E7" stroke-width="1.5" stroke-linecap="round" stroke-linejoin="round"/>
<path d="M66.6666 32.9914H59.3333" stroke="#E7E7E7" stroke-width="1.5" stroke-linecap="round" stroke-linejoin="round"/>
<path fill-rule="evenodd" clip-rule="evenodd" d="M67.6857 23H58.3143C55.0476 23 53 25.3121 53 28.5852V37.4148C53 40.6879 55.0381 43 58.3143 43H67.6857C70.9619 43 73 40.6879 73 37.4148V28.5852C73 25.3121 70.9619 23 67.6857 23Z" stroke="#E7E7E7" stroke-width="1.5" stroke-linecap="round" stroke-linejoin="round"/>
<g filter="url(#filter0_b_1527_2828)">
<rect x="319" width="205" height="65" rx="25" fill="white" fill-opacity="0.03"/>
<rect x="319.5" y="0.5" width="204" height="64" rx="24.5" stroke="#E5E5E5" stroke-opacity="0.19"/>
</g>
<path d="M384.972 40L386.053 36.772H390.974L392.061 40H394.592L389.977 26.9091H387.05L382.441 40H384.972ZM386.692 34.8672L388.462 29.5938H388.565L390.335 34.8672H386.692ZM400.198 40.1918C402.665 40.1918 404.238 38.728 404.404 36.6442H402.192C401.994 37.6989 401.234 38.3061 400.217 38.3061C398.773 38.3061 397.839 37.098 397.839 35.0909C397.839 33.1094 398.792 31.9205 400.217 31.9205C401.33 31.9205 402.013 32.6364 402.192 33.5824H404.404C404.244 31.4538 402.582 30.054 400.185 30.054C397.309 30.054 395.494 32.1314 395.494 35.1293C395.494 38.1016 397.264 40.1918 400.198 40.1918ZM411.207 30.1818H409.27V27.8295H406.956V30.1818H405.563V31.9716H406.956V37.4304C406.943 39.2777 408.286 40.1854 410.024 40.1342C410.683 40.1151 411.137 39.9872 411.386 39.9041L410.996 38.0952C410.868 38.1271 410.606 38.1847 410.318 38.1847C409.737 38.1847 409.27 37.9801 409.27 37.0469V31.9716H411.207V30.1818ZM413.142 40H415.456V30.1818H413.142V40ZM414.305 28.7884C415.04 28.7884 415.641 28.2259 415.641 27.5355C415.641 26.8388 415.04 26.2763 414.305 26.2763C413.564 26.2763 412.963 26.8388 412.963 27.5355C412.963 28.2259 413.564 28.7884 414.305 28.7884ZM422.118 40.1918C424.994 40.1918 426.823 38.1655 426.823 35.1293C426.823 32.0866 424.994 30.054 422.118 30.054C419.242 30.054 417.414 32.0866 417.414 35.1293C417.414 38.1655 419.242 40.1918 422.118 40.1918ZM422.131 38.3381C420.539 38.3381 419.759 36.919 419.759 35.1229C419.759 33.3267 420.539 31.8885 422.131 31.8885C423.697 31.8885 424.477 33.3267 424.477 35.1229C424.477 36.919 423.697 38.3381 422.131 38.3381ZM431.1 34.2472C431.1 32.8281 431.957 32.0099 433.178 32.0099C434.373 32.0099 435.089 32.7962 435.089 34.1065V40H437.403V33.7486C437.409 31.3963 436.067 30.054 434.041 30.054C432.571 30.054 431.561 30.7571 431.113 31.8501H430.998V30.1818H428.787V40H431.1V34.2472ZM447.515 32.777C447.196 31.1151 445.866 30.054 443.565 30.054C441.2 30.054 439.589 31.2173 439.596 33.0327C439.589 34.4645 440.471 35.4105 442.357 35.8004L444.032 36.152C444.933 36.3501 445.355 36.7145 445.355 37.2706C445.355 37.9418 444.626 38.4467 443.527 38.4467C442.466 38.4467 441.775 37.9865 441.577 37.1044L439.321 37.3217C439.608 39.1243 441.123 40.1918 443.533 40.1918C445.988 40.1918 447.72 38.9197 447.726 37.0597C447.72 35.6598 446.819 34.8033 444.965 34.4006L443.29 34.0426C442.293 33.8189 441.897 33.4737 441.903 32.9048C441.897 32.2401 442.632 31.7798 443.597 31.7798C444.664 31.7798 445.227 32.3615 445.406 33.0071L447.515 32.777Z" fill="white"/>
<path fill-rule="evenodd" clip-rule="evenodd" d="M460.75 34C460.75 39.108 464.891 43.25 470 43.25C475.108 43.25 479.25 39.108 479.25 34C479.25 28.892 475.108 24.75 470 24.75C464.891 24.75 460.75 28.892 460.75 34Z" stroke="white" stroke-width="1.5" stroke-linecap="round" stroke-linejoin="round"/>
<path d="M466.529 32.5586L470 36.0446L473.471 32.5586" stroke="white" stroke-width="1.5" stroke-linecap="round" stroke-linejoin="round"/>
<defs>
<filter id="filter0_b_1527_2828" x="263" y="-56" width="317" height="177" filterUnits="userSpaceOnUse" color-interpolation-filters="sRGB">
<feFlood flood-opacity="0" result="BackgroundImageFix"/>
<feGaussianBlur in="BackgroundImage" stdDeviation="28"/>
<feComposite in2="SourceAlpha" operator="in" result="effect1_backgroundBlur_1527_2828"/>
<feBlend mode="normal" in="SourceGraphic" in2="effect1_backgroundBlur_1527_2828" result="shape"/>
</filter>
</defs>
</svg>
