<svg width="548" height="84" viewBox="0 0 548 84" fill="none" xmlns="http://www.w3.org/2000/svg">
<path fill-rule="evenodd" clip-rule="evenodd" d="M0 9C0 5.13401 3.13401 2 7 2H157C163.627 2 169 7.37258 169 14V80H0V9ZM178 10C178 6.13401 181.134 3 185 3H345C351.627 3 357 8.37258 357 15V79H178V10ZM375 2C371.134 2 368 5.134 368 9V77H547V14C547 7.37258 541.627 2 535 2H375Z" fill="#C4C4C4" fill-opacity="0.03"/>
<path d="M44.7159 36.897H48.7621V48H51.1143V36.897H55.1605V34.9091H44.7159V36.897ZM58.5611 48.1982C60.1016 48.1982 61.022 47.4759 61.4439 46.6513H61.5206V48H63.745V41.429C63.745 38.8338 61.6293 38.054 59.7564 38.054C57.6918 38.054 56.1065 38.9744 55.5952 40.7642L57.7557 41.071C57.9858 40.3999 58.6378 39.8246 59.7692 39.8246C60.843 39.8246 61.4311 40.3743 61.4311 41.3395V41.3778C61.4311 42.0426 60.7344 42.0746 59.0021 42.2599C57.0973 42.4645 55.2756 43.0334 55.2756 45.245C55.2756 47.1754 56.6882 48.1982 58.5611 48.1982ZM59.1619 46.4979C58.1967 46.4979 57.5064 46.0568 57.5064 45.2067C57.5064 44.3182 58.2798 43.9474 59.3153 43.8004C59.9226 43.7173 61.1371 43.5639 61.4375 43.321V44.478C61.4375 45.571 60.5554 46.4979 59.1619 46.4979ZM66.174 48H68.4496V46.4531H68.5838C68.9482 47.169 69.7088 48.1726 71.3963 48.1726C73.7102 48.1726 75.4425 46.3381 75.4425 43.1037C75.4425 39.831 73.6591 38.054 71.3899 38.054C69.6577 38.054 68.9354 39.0959 68.5838 39.8054H68.4879V34.9091H66.174V48ZM68.4432 43.0909C68.4432 41.1861 69.2614 39.9524 70.7507 39.9524C72.2912 39.9524 73.0838 41.2628 73.0838 43.0909C73.0838 44.9318 72.2784 46.2741 70.7507 46.2741C69.2741 46.2741 68.4432 44.9957 68.4432 43.0909ZM87.1735 34.9091H84.9171L81.6635 36.9993V39.1726L84.7253 37.2166H84.802V48H87.1735V34.9091Z" fill="white" fill-opacity="0.79"/>
<path d="M211.716 36.897H215.762V48H218.114V36.897H222.161V34.9091H211.716V36.897ZM225.561 48.1982C227.102 48.1982 228.022 47.4759 228.444 46.6513H228.521V48H230.745V41.429C230.745 38.8338 228.629 38.054 226.756 38.054C224.692 38.054 223.107 38.9744 222.595 40.7642L224.756 41.071C224.986 40.3999 225.638 39.8246 226.769 39.8246C227.843 39.8246 228.431 40.3743 228.431 41.3395V41.3778C228.431 42.0426 227.734 42.0746 226.002 42.2599C224.097 42.4645 222.276 43.0334 222.276 45.245C222.276 47.1754 223.688 48.1982 225.561 48.1982ZM226.162 46.4979C225.197 46.4979 224.506 46.0568 224.506 45.2067C224.506 44.3182 225.28 43.9474 226.315 43.8004C226.923 43.7173 228.137 43.5639 228.438 43.321V44.478C228.438 45.571 227.555 46.4979 226.162 46.4979ZM233.174 48H235.45V46.4531H235.584C235.948 47.169 236.709 48.1726 238.396 48.1726C240.71 48.1726 242.442 46.3381 242.442 43.1037C242.442 39.831 240.659 38.054 238.39 38.054C236.658 38.054 235.935 39.0959 235.584 39.8054H235.488V34.9091H233.174V48ZM235.443 43.0909C235.443 41.1861 236.261 39.9524 237.751 39.9524C239.291 39.9524 240.084 41.2628 240.084 43.0909C240.084 44.9318 239.278 46.2741 237.751 46.2741C236.274 46.2741 235.443 44.9957 235.443 43.0909ZM248.849 48H257.823V46.0185H252.122V45.929L254.378 43.6342C256.922 41.1925 257.625 40.0036 257.625 38.527C257.625 36.3345 255.842 34.7301 253.208 34.7301C250.613 34.7301 248.772 36.3409 248.772 38.8274H251.029C251.029 37.4915 251.872 36.6541 253.176 36.6541C254.423 36.6541 255.35 37.4148 255.35 38.6484C255.35 39.7415 254.685 40.5213 253.394 41.8317L248.849 46.2869V48Z" fill="white" fill-opacity="0.79"/>
<path d="M400.716 36.897H404.762V48H407.114V36.897H411.161V34.9091H400.716V36.897ZM414.561 48.1982C416.102 48.1982 417.022 47.4759 417.444 46.6513H417.521V48H419.745V41.429C419.745 38.8338 417.629 38.054 415.756 38.054C413.692 38.054 412.107 38.9744 411.595 40.7642L413.756 41.071C413.986 40.3999 414.638 39.8246 415.769 39.8246C416.843 39.8246 417.431 40.3743 417.431 41.3395V41.3778C417.431 42.0426 416.734 42.0746 415.002 42.2599C413.097 42.4645 411.276 43.0334 411.276 45.245C411.276 47.1754 412.688 48.1982 414.561 48.1982ZM415.162 46.4979C414.197 46.4979 413.506 46.0568 413.506 45.2067C413.506 44.3182 414.28 43.9474 415.315 43.8004C415.923 43.7173 417.137 43.5639 417.438 43.321V44.478C417.438 45.571 416.555 46.4979 415.162 46.4979ZM422.174 48H424.45V46.4531H424.584C424.948 47.169 425.709 48.1726 427.396 48.1726C429.71 48.1726 431.442 46.3381 431.442 43.1037C431.442 39.831 429.659 38.054 427.39 38.054C425.658 38.054 424.935 39.0959 424.584 39.8054H424.488V34.9091H422.174V48ZM424.443 43.0909C424.443 41.1861 425.261 39.9524 426.751 39.9524C428.291 39.9524 429.084 41.2628 429.084 43.0909C429.084 44.9318 428.278 46.2741 426.751 46.2741C425.274 46.2741 424.443 44.9957 424.443 43.0909ZM438.082 48.179C440.882 48.179 442.921 46.5746 442.915 44.3629C442.921 42.7266 441.898 41.5504 440.064 41.2884V41.1861C441.483 40.8793 442.435 39.8246 442.429 38.3544C442.435 36.3601 440.735 34.7301 438.121 34.7301C435.577 34.7301 433.608 36.245 433.557 38.4375H435.839C435.877 37.3381 436.9 36.6541 438.108 36.6541C439.329 36.6541 440.14 37.3956 440.134 38.495C440.14 39.6392 439.194 40.3999 437.839 40.3999H436.682V42.228H437.839C439.495 42.228 440.479 43.0589 440.473 44.2415C440.479 45.3984 439.476 46.1911 438.076 46.1911C436.759 46.1911 435.743 45.5071 435.685 44.4396H433.282C433.346 46.6513 435.321 48.179 438.082 48.179Z" fill="white" fill-opacity="0.79"/>
<path d="M367 2H535.5C542.127 2 547.5 7.37258 547.5 14V61.2948C547.5 69.7792 538.935 75.5841 531.055 72.441L526.263 70.53" stroke="url(#paint0_diamond_1206_1866)" stroke-linecap="round"/>
<path d="M365 2V70C365 76.6274 359.627 82 353 82H187" stroke="url(#paint1_linear_1206_1866)" stroke-width="3" stroke-linecap="round"/>
<defs>
<radialGradient id="paint0_diamond_1206_1866" cx="0" cy="0" r="1" gradientUnits="userSpaceOnUse" gradientTransform="translate(388.168 27.4048) rotate(158.894) scale(239.287 161.683)">
<stop stop-color="#502EFF"/>
<stop offset="1" stop-color="#AE9AFF"/>
</radialGradient>
<linearGradient id="paint1_linear_1206_1866" x1="380.877" y1="-0.392897" x2="350" y2="66.5004" gradientUnits="userSpaceOnUse">
<stop stop-color="#6F5ADC"/>
<stop offset="1" stop-color="#6F5ADC" stop-opacity="0"/>
</linearGradient>
</defs>
</svg>
